  0
SECTION
  2
HEADER
  9
$ACADVER
  1
AC1012
  9
$DWGCODEPAGE
  3
undefined
  9
$INSBASE
 10
0.0
 20
0.0
 30
0.0
  9
$EXTMIN
 10
1.000000000000000E+20
 20
1.000000000000000E+20
 30
1.000000000000000E+20
  9
$EXTMAX
 10
-1.000000000000000E+20
 20
-1.000000000000000E+20
 30
-1.000000000000000E+20
  9
$LIMMIN
 10
0.0
 20
0.0
  9
$LIMMAX
 10
12.0
 20
9.0
  9
$ORTHOMODE
 70
     0
  9
$REGENMODE
 70
     1
  9
$FILLMODE
 70
     1
  9
$QTEXTMODE
 70
     0
  9
$MIRRTEXT
 70
     1
  9
$DRAGMODE
 70
     2
  9
$LTSCALE
 40
1.0
  9
$OSMODE
 70
    37
  9
$ATTMODE
 70
     1
  9
$TEXTSIZE
 40
0.2
  9
$TRACEWID
 40
0.05
  9
$TEXTSTYLE
  7
STANDARD
  9
$CLAYER
  8
0
  9
$CELTYPE
  6
BYLAYER
  9
$CECOLOR
 62
   256
  9
$CELTSCALE
 40
1.0
  9
$DELOBJ
 70
     1
  9
$DISPSILH
 70
     0
  9
$DIMSCALE
 40
1.0
  9
$DIMASZ
 40
0.18
  9
$DIMEXO
 40
0.0625
  9
$DIMDLI
 40
0.38
  9
$DIMRND
 40
0.0
  9
$DIMDLE
 40
0.0
  9
$DIMEXE
 40
0.18
  9
$DIMTP
 40
0.0
  9
$DIMTM
 40
0.0
  9
$DIMTXT
 40
0.18
  9
$DIMCEN
 40
0.09
  9
$DIMTSZ
 40
0.0
  9
$DIMTOL
 70
     0
  9
$DIMLIM
 70
     0
  9
$DIMTIH
 70
     1
  9
$DIMTOH
 70
     1
  9
$DIMSE1
 70
     0
  9
$DIMSE2
 70
     0
  9
$DIMTAD
 70
     0
  9
$DIMZIN
 70
     0
  9
$DIMBLK
  1

  9
$DIMASO
 70
     1
  9
$DIMSHO
 70
     1
  9
$DIMPOST
  1

  9
$DIMAPOST
  1

  9
$DIMALT
 70
     0
  9
$DIMALTD
 70
     2
  9
$DIMALTF
 40
25.4
  9
$DIMLFAC
 40
1.0
  9
$DIMTOFL
 70
     0
  9
$DIMTVP
 40
0.0
  9
$DIMTIX
 70
     0
  9
$DIMSOXD
 70
     0
  9
$DIMSAH
 70
     0
  9
$DIMBLK1
  1

  9
$DIMBLK2
  1

  9
$DIMSTYLE
  2
STANDARD
  9
$DIMCLRD
 70
     0
  9
$DIMCLRE
 70
     0
  9
$DIMCLRT
 70
     0
  9
$DIMTFAC
 40
1.0
  9
$DIMGAP
 40
0.09
  9
$DIMJUST
 70
     0
  9
$DIMSD1
 70
     0
  9
$DIMSD2
 70
     0
  9
$DIMTOLJ
 70
     1
  9
$DIMTZIN
 70
     0
  9
$DIMALTZ
 70
     0
  9
$DIMALTTZ
 70
     0
  9
$DIMFIT
 70
     3
  9
$DIMUPT
 70
     0
  9
$DIMUNIT
 70
     2
  9
$DIMDEC
 70
     4
  9
$DIMTDEC
 70
     4
  9
$DIMALTU
 70
     2
  9
$DIMALTTD
 70
     2
  9
$DIMTXSTY
  7
STANDARD
  9
$DIMAUNIT
 70
     0
  9
$LUNITS
 70
     2
  9
$LUPREC
 70
     4
  9
$SKETCHINC
 40
0.1
  9
$FILLETRAD
 40
0.5
  9
$AUNITS
 70
     0
  9
$AUPREC
 70
     0
  9
$MENU
  1
.
  9
$ELEVATION
 40
0.0
  9
$PELEVATION
 40
0.0
  9
$THICKNESS
 40
0.0
  9
$LIMCHECK
 70
     0
  9
$CHAMFERA
 40
0.5
  9
$CHAMFERB
 40
0.5
  9
$CHAMFERC
 40
1.0
  9
$CHAMFERD
 40
0.0
  9
$SKPOLY
 70
     0
  9
$TDCREATE
 40
2458821.563680544
  9
$TDUPDATE
 40
2458821.563680544
  9
$TDINDWG
 40
0.0000000116
  9
$TDUSRTIMER
 40
0.0000000116
  9
$USRTIMER
 70
     1
  9
$ANGBASE
 50
0.0
  9
$ANGDIR
 70
     0
  9
$PDMODE
 70
     0
  9
$PDSIZE
 40
0.0
  9
$PLINEWID
 40
0.0
  9
$COORDS
 70
     1
  9
$SPLFRAME
 70
     0
  9
$SPLINETYPE
 70
     6
  9
$SPLINESEGS
 70
     8
  9
$ATTDIA
 70
     0
  9
$ATTREQ
 70
     1
  9
$HANDLING
 70
     1
  9
$HANDSEED
  5
6C
  9
$SURFTAB1
 70
     6
  9
$SURFTAB2
 70
     6
  9
$SURFTYPE
 70
     6
  9
$SURFU
 70
     6
  9
$SURFV
 70
     6
  9
$UCSNAME
  2

  9
$UCSORG
 10
0.0
 20
0.0
 30
0.0
  9
$UCSXDIR
 10
1.0
 20
0.0
 30
0.0
  9
$UCSYDIR
 10
0.0
 20
1.0
 30
0.0
  9
$PUCSNAME
  2

  9
$PUCSORG
 10
0.0
 20
0.0
 30
0.0
  9
$PUCSXDIR
 10
1.0
 20
0.0
 30
0.0
  9
$PUCSYDIR
 10
0.0
 20
1.0
 30
0.0
  9
$USERI1
 70
     0
  9
$USERI2
 70
     0
  9
$USERI3
 70
     0
  9
$USERI4
 70
     0
  9
$USERI5
 70
     0
  9
$USERR1
 40
0.0
  9
$USERR2
 40
0.0
  9
$USERR3
 40
0.0
  9
$USERR4
 40
0.0
  9
$USERR5
 40
0.0
  9
$WORLDVIEW
 70
     1
  9
$SHADEDGE
 70
     3
  9
$SHADEDIF
 70
    70
  9
$TILEMODE
 70
     1
  9
$MAXACTVP
 70
    64
  9
$PINSBASE
 10
0.0
 20
0.0
 30
0.0
  9
$PLIMCHECK
 70
     0
  9
$PEXTMIN
 10
1.000000000000000E+20
 20
1.000000000000000E+20
 30
1.000000000000000E+20
  9
$PEXTMAX
 10
-1.000000000000000E+20
 20
-1.000000000000000E+20
 30
-1.000000000000000E+20
  9
$PLIMMIN
 10
0.0
 20
0.0
  9
$PLIMMAX
 10
12.0
 20
9.0
  9
$UNITMODE
 70
     0
  9
$VISRETAIN
 70
     1
  9
$PLINEGEN
 70
     0
  9
$PSLTSCALE
 70
     1
  9
$TREEDEPTH
 70
  3020
  9
$PICKSTYLE
 70
     1
  9
$CMLSTYLE
  2
STANDARD
  9
$CMLJUST
 70
     0
  9
$CMLSCALE
 40
1.0
  9
$SAVEIMAGES
 70
     1
  0
ENDSEC
  0
SECTION
  2
CLASSES
  0
CLASS
  1
ACDBDICTIONARYWDFLT
  2
AcDbDictionaryWithDefault
  3
ObjectDBX Classes
 90
    32768
280
     0
281
     0
  0
CLASS
  1
VISUALSTYLE
  2
AcDbVisualStyle
  3
ObjectDBX Classes
 90
     4095
280
     0
281
     0
  0
CLASS
  1
MATERIAL
  2
AcDbMaterial
  3
ObjectDBX Classes
 90
     1153
280
     0
281
     0
  0
CLASS
  1
SUN
  2
AcDbSun
  3
SCENEOE
 90
     1024
280
     0
281
     0
  0
CLASS
  1
DICTIONARYVAR
  2
AcDbDictionaryVar
  3
ObjectDBX Classes
 90
        0
280
     0
281
     0
  0
CLASS
  1
XRECORD
  2
AcDbXrecord
  3
AutoCAD 2000
 90
    32768
280
     0
281
     0
  0
CLASS
  1
LWPOLYLINE
  2
AcDbPolyline
  3
AutoCAD 2000
 90
    32768
280
     0
281
     1
  0
CLASS
  1
HATCH
  2
AcDbHatch
  3
AutoCAD 2000
 90
    32768
280
     0
281
     1
  0
CLASS
  1
ACDBPLACEHOLDER
  2
AcDbPlaceHolder
  3
ObjectDBX Classes
 90
        0
280
     0
281
     0
  0
CLASS
  1
LAYOUT
  2
AcDbLayout
  3
ObjectDBX Classes
 90
        0
280
     0
281
     0
  0
ENDSEC
  0
SECTION
  2
TABLES
  0
TABLE
  2
VPORT
  5
8
330
0
100
AcDbSymbolTable
 70
     1
  0
VPORT
  5
29
330
8
100
AcDbSymbolTableRecord
100
AcDbViewportTableRecord
  2
*ACTIVE
 70
     0
 10
0.0
 20
0.0
 11
1.0
 21
1.0
 12
0.0
 22
0.0
 13
0.0
 23
0.0
 14
0.5
 24
0.5
 15
0.5
 25
0.5
 16
0.0
 26
0.0
 36
1.0
 17
64.34389976604898
 27
-63.91503266375991
 37
0.0
 40
66.54357296811368
 41
2.422037422037413
 42
50.0
 43
0.0
 44
0.0
 50
0.0
 51
0.0
 71
     0
 72
   100
 73
     1
 74
     3
 75
     0
 76
     0
 77
     0
 78
     0
  0
ENDTAB
  0
TABLE
  2
LTYPE
  5
5
330
0
100
AcDbSymbolTable
 70
     1
  0
LTYPE
  5
14
330
5
100
AcDbSymbolTableRecord
100
AcDbLinetypeTableRecord
  2
BYBLOCK
 70
     0
  3

 72
    65
 73
     0
 40
0.0
  0
LTYPE
  5
15
330
5
100
AcDbSymbolTableRecord
100
AcDbLinetypeTableRecord
  2
BYLAYER
 70
     0
  3

 72
    65
 73
     0
 40
0.0
  0
LTYPE
  5
16
330
5
100
AcDbSymbolTableRecord
100
AcDbLinetypeTableRecord
  2
CONTINUOUS
 70
     0
  3
Solid line
 72
    65
 73
     0
 40
0.0
  0
ENDTAB
  0
TABLE
  2
LAYER
  5
2
330
0
100
AcDbSymbolTable
 70
     8
  0
LAYER
  5
10
330
2
100
AcDbSymbolTableRecord
100
AcDbLayerTableRecord
  2
0
 70
     0
 62
     7
  6
CONTINUOUS
  0
LAYER
  5
40
330
2
100
AcDbSymbolTableRecord
100
AcDbLayerTableRecord
  2
LAYER_1
 70
     4
 62
     7
  6
CONTINUOUS
  0
LAYER
  5
41
330
2
100
AcDbSymbolTableRecord
100
AcDbLayerTableRecord
  2
LAYER_2
 70
     4
 62
     7
  6
CONTINUOUS
  0
LAYER
  5
42
330
2
100
AcDbSymbolTableRecord
100
AcDbLayerTableRecord
  2
LAYER_3
 70
     4
 62
     7
  6
CONTINUOUS
  0
LAYER
  5
43
330
2
100
AcDbSymbolTableRecord
100
AcDbLayerTableRecord
  2
LAYER_4
 70
     5
 62
     7
  6
CONTINUOUS
  0
LAYER
  5
44
330
2
100
AcDbSymbolTableRecord
100
AcDbLayerTableRecord
  2
LAYER_5
 70
     0
 62
     7
  6
CONTINUOUS
  0
LAYER
  5
45
330
2
100
AcDbSymbolTableRecord
100
AcDbLayerTableRecord
  2
LAYER_6
 70
     1
 62
     7
  6
CONTINUOUS
  0
LAYER
  5
46
330
2
100
AcDbSymbolTableRecord
100
AcDbLayerTableRecord
  2
LAYER_7
 70
     0
 62
     7
  6
CONTINUOUS
  0
ENDTAB
  0
TABLE
  2
STYLE
  5
3
330
0
100
AcDbSymbolTable
 70
     1
  0
STYLE
  5
11
330
3
100
AcDbSymbolTableRecord
100
AcDbTextStyleTableRecord
  2
STANDARD
 70
     0
 40
0.0
 41
1.0
 50
0.0
 71
     0
 42
0.2
  3
txt
  4

  0
ENDTAB
  0
TABLE
  2
VIEW
  5
6
330
0
100
AcDbSymbolTable
 70
     0
  0
ENDTAB
  0
TABLE
  2
UCS
  5
7
330
0
100
AcDbSymbolTable
 70
     0
  0
ENDTAB
  0
TABLE
  2
APPID
  5
9
330
0
100
AcDbSymbolTable
 70
     1
  0
APPID
  5
12
330
9
100
AcDbSymbolTableRecord
100
AcDbRegAppTableRecord
  2
ACAD
 70
     0
  0
ENDTAB
  0
TABLE
  2
DIMSTYLE
  5
A
330
0
100
AcDbSymbolTable
 70
     1
  0
DIMSTYLE
105
27
330
A
100
AcDbSymbolTableRecord
100
AcDbDimStyleTableRecord
  2
STANDARD
 70
     0
  3

  4

  5

  6

  7

 40
1.0
 41
0.18
 42
0.0625
 43
0.38
 44
0.18
 45
0.0
 46
0.0
 47
0.0
 48
0.0
140
0.18
141
0.09
142
0.0
143
25.4
144
1.0
145
0.0
146
1.0
147
0.09
 71
     0
 72
     0
 73
     1
 74
     1
 75
     0
 76
     0
 77
     0
 78
     0
170
     0
171
     2
172
     0
173
     0
174
     0
175
     0
176
     0
177
     0
178
     0
270
     2
271
     4
272
     4
273
     2
274
     2
340
11
275
     0
280
     0
281
     0
282
     0
283
     1
284
     0
285
     0
286
     0
287
     3
288
     0
  0
ENDTAB
  0
TABLE
  2
BLOCK_RECORD
  5
1
330
0
100
AcDbSymbolTable
 70
     2
  0
BLOCK_RECORD
  5
1F
330
1
100
AcDbSymbolTableRecord
100
AcDbBlockTableRecord
  2
*MODEL_SPACE
  0
BLOCK_RECORD
  5
1B
330
1
100
AcDbSymbolTableRecord
100
AcDbBlockTableRecord
  2
*PAPER_SPACE
  0
BLOCK_RECORD
  5
47
330
1
100
AcDbSymbolTableRecord
100
AcDbBlockTableRecord
  2
BLOCK_2
  0
ENDTAB
  0
ENDSEC
  0
SECTION
  2
BLOCKS
  0
BLOCK
  5
20
330
1F
100
AcDbEntity
  8
0
100
AcDbBlockBegin
  2
*MODEL_SPACE
 70
     0
 10
0.0
 20
0.0
 30
0.0
  3
*MODEL_SPACE
  1

  0
ENDBLK
  5
21
330
1F
100
AcDbEntity
  8
0
100
AcDbBlockEnd
  0
BLOCK
  5
1C
330
1B
100
AcDbEntity
 67
     1
  8
0
100
AcDbBlockBegin
  2
*PAPER_SPACE
 70
     0
 10
0.0
 20
0.0
 30
0.0
  3
*PAPER_SPACE
  1

  0
ENDBLK
  5
1D
330
1B
100
AcDbEntity
 67
     1
  8
0
100
AcDbBlockEnd
  0
BLOCK
  5
49
330
47
100
AcDbEntity
  8
0
100
AcDbBlockBegin
  2
BLOCK_2
 70
     0
 10
0.0
 20
0.0
 30
0.0
  3
BLOCK_2
  1

  0
SPLINE
  5
4B
330
47
100
AcDbEntity
  8
LAYER_7
 62
   250
100
AcDbSpline
210
0.0
220
0.0
230
1.0
 70
    11
 71
     3
 72
    29
 73
    25
 74
     0
 42
0.0000000001
 43
0.0000000001
 12
1.0
 22
0.0
 32
0.0
 13
1.0
 23
0.0
 33
0.0
 40
0.0
 40
0.0
 40
0.0
 40
0.0
 40
1.0
 40
1.0
 40
1.0
 40
2.0
 40
2.0
 40
2.0
 40
3.0
 40
3.0
 40
3.0
 40
4.0
 40
4.0
 40
4.0
 40
5.0
 40
5.0
 40
5.0
 40
6.0
 40
6.0
 40
6.0
 40
7.0
 40
7.0
 40
7.0
 40
8.0
 40
8.0
 40
8.0
 40
8.0
 10
-6.752903915412468
 20
-59.26477184933312
 30
0.0
 10
-7.419529891808312
 20
-59.27269556894919
 30
0.0
 10
-7.953347437247775
 20
-59.03963485937204
 30
0.0
 10
-8.354012042182331
 20
-58.56524521105314
 30
0.0
 10
-8.740034991304576
 20
-58.09068330795997
 30
0.0
 10
-8.937783472157916
 20
-57.45592446480268
 30
0.0
 10
-8.94708522996809
 20
-56.66079642680702
 30
0.0
 10
-8.956731497326789
 20
-55.86067300035775
 30
0.0
 10
-8.771557614994611
 20
-55.22126327829538
 30
0.0
 10
-8.39208034729434
 20
-54.74256726061991
 30
0.0
 10
-8.007607691140459
 20
-54.26387124294445
 30
0.0
 10
-7.469656031118697
 20
-54.02047524691155
 30
0.0
 10
-6.778225367229055
 20
-54.01220701774695
 30
0.0
 10
-6.111427136058949
 20
-54.00428329813088
 30
0.0
 10
-5.585361055461298
 20
-54.22769774034933
 30
0.0
 10
-5.199510361113317
 20
-54.68245034440231
 30
0.0
 10
-4.804013399406636
 20
-55.13720294845528
 30
0.0
 10
-4.601614039648208
 20
-55.74732935889303
 30
0.0
 10
-4.592484536612296
 20
-56.51265732094128
 30
0.0
 10
-4.582666014479334
 20
-57.34240856856371
 30
0.0
 10
-4.7724907757166
 20
-58.00403915650594
 30
0.0
 10
-5.161614310775569
 20
-58.49754908476798
 30
0.0
 10
-5.531100801568614
 20
-59.00087753516298
 30
0.0
 10
-6.061473251522826
 20
-59.25667587494278
 30
0.0
 10
-6.752903915412468
 20
-59.26477184933312
 30
0.0
  0
SPLINE
  5
4C
330
47
100
AcDbEntity
  8
LAYER_7
 62
   250
100
AcDbSpline
210
0.0
220
0.0
230
1.0
 70
    11
 71
     3
 72
    29
 73
    25
 74
     0
 42
0.0000000001
 43
0.0000000001
 12
1.0
 22
0.0
 32
0.0
 13
1.0
 23
0.0
 33
0.0
 40
0.0
 40
0.0
 40
0.0
 40
0.0
 40
1.0
 40
1.0
 40
1.0
 40
2.0
 40
2.0
 40
2.0
 40
3.0
 40
3.0
 40
3.0
 40
4.0
 40
4.0
 40
4.0
 40
5.0
 40
5.0
 40
5.0
 40
6.0
 40
6.0
 40
6.0
 40
7.0
 40
7.0
 40
7.0
 40
8.0
 40
8.0
 40
8.0
 40
8.0
 10
-6.792005749170055
 20
-54.72361923545104
 30
0.0
 10
-7.211790634047747
 20
-54.72861462390465
 30
0.0
 10
-7.53339029759582
 20
-54.89794106700469
 30
0.0
 10
-7.756460230265747
 20
-55.23142630997687
 30
0.0
 10
-7.979702417709936
 20
-55.56508380772331
 30
0.0
 10
-8.087706161172518
 20
-56.03551159623418
 30
0.0
 10
-8.080471460653493
 20
-56.64305418505799
 30
0.0
 10
-8.073236760134469
 20
-57.26041529601476
 30
0.0
 10
-7.954036456344824
 20
-57.73428818001088
 30
0.0
 10
-7.72287054928456
 20
-58.06501734659486
 30
0.0
 10
-7.491704642224296
 20
-58.39557425840458
 30
0.0
 10
-7.168726940482125
 20
-58.5585272748569
 30
0.0
 10
-6.753937444058043
 20
-58.55353188640328
 30
0.0
 10
-6.358784991899888
 20
-58.5488810074982
 30
0.0
 10
-6.044764538419365
 20
-58.37731525233276
 30
0.0
 10
-5.811703828842213
 20
-58.0386623661327
 30
0.0
 10
-5.5688245971321
 20
-57.69484183670476
 30
0.0
 10
-5.451002331536555
 20
-57.21183944967274
 30
0.0
 10
-5.458409286829842
 20
-56.58965520503661
 30
0.0
 10
-5.465643987348867
 20
-55.98228487098707
 30
0.0
 10
-5.583638507718674
 20
-55.51805825434965
 30
0.0
 10
-5.812048338390738
 20
-55.19731986467289
 30
0.0
 10
-6.040630423837065
 20
-54.87658147499614
 30
0.0
 10
-6.367225475838749
 20
-54.71862384699743
 30
0.0
 10
-6.792005749170055
 20
-54.72361923545104
 30
0.0
  0
SPLINE
  5
4D
330
47
100
AcDbEntity
  8
LAYER_7
 62
   250
100
AcDbSpline
210
0.0
220
0.0
230
1.0
 70
    11
 71
     3
 72
   269
 73
   265
 74
     0
 42
0.0000000001
 43
0.0000000001
 12
1.0
 22
0.0
 32
0.0
 13
1.0
 23
0.0
 33
0.0
 40
0.0
 40
0.0
 40
0.0
 40
0.0
 40
1.0
 40
1.0
 40
1.0
 40
2.0
 40
2.0
 40
2.0
 40
3.0
 40
3.0
 40
3.0
 40
4.0
 40
4.0
 40
4.0
 40
5.0
 40
5.0
 40
5.0
 40
6.0
 40
6.0
 40
6.0
 40
7.0
 40
7.0
 40
7.0
 40
8.0
 40
8.0
 40
8.0
 40
9.0
 40
9.0
 40
9.0
 40
10.0
 40
10.0
 40
10.0
 40
11.0
 40
11.0
 40
11.0
 40
12.0
 40
12.0
 40
12.0
 40
13.0
 40
13.0
 40
13.0
 40
14.0
 40
14.0
 40
14.0
 40
15.0
 40
15.0
 40
15.0
 40
16.0
 40
16.0
 40
16.0
 40
17.0
 40
17.0
 40
17.0
 40
18.0
 40
18.0
 40
18.0
 40
19.0
 40
19.0
 40
19.0
 40
20.0
 40
20.0
 40
20.0
 40
21.0
 40
21.0
 40
21.0
 40
22.0
 40
22.0
 40
22.0
 40
23.0
 40
23.0
 40
23.0
 40
24.0
 40
24.0
 40
24.0
 40
25.0
 40
25.0
 40
25.0
 40
26.0
 40
26.0
 40
26.0
 40
27.0
 40
27.0
 40
27.0
 40
28.0
 40
28.0
 40
28.0
 40
29.0
 40
29.0
 40
29.0
 40
30.0
 40
30.0
 40
30.0
 40
31.0
 40
31.0
 40
31.0
 40
32.0
 40
32.0
 40
32.0
 40
33.0
 40
33.0
 40
33.0
 40
34.0
 40
34.0
 40
34.0
 40
35.0
 40
35.0
 40
35.0
 40
36.0
 40
36.0
 40
36.0
 40
37.0
 40
37.0
 40
37.0
 40
38.0
 40
38.0
 40
38.0
 40
39.0
 40
39.0
 40
39.0
 40
40.0
 40
40.0
 40
40.0
 40
41.0
 40
41.0
 40
41.0
 40
42.0
 40
42.0
 40
42.0
 40
43.0
 40
43.0
 40
43.0
 40
44.0
 40
44.0
 40
44.0
 40
45.0
 40
45.0
 40
45.0
 40
46.0
 40
46.0
 40
46.0
 40
47.0
 40
47.0
 40
47.0
 40
48.0
 40
48.0
 40
48.0
 40
49.0
 40
49.0
 40
49.0
 40
50.0
 40
50.0
 40
50.0
 40
51.0
 40
51.0
 40
51.0
 40
52.0
 40
52.0
 40
52.0
 40
53.0
 40
53.0
 40
53.0
 40
54.0
 40
54.0
 40
54.0
 40
55.0
 40
55.0
 40
55.0
 40
56.0
 40
56.0
 40
56.0
 40
57.0
 40
57.0
 40
57.0
 40
58.0
 40
58.0
 40
58.0
 40
59.0
 40
59.0
 40
59.0
 40
60.0
 40
60.0
 40
60.0
 40
61.0
 40
61.0
 40
61.0
 40
62.0
 40
62.0
 40
62.0
 40
63.0
 40
63.0
 40
63.0
 40
64.0
 40
64.0
 40
64.0
 40
65.0
 40
65.0
 40
65.0
 40
66.0
 40
66.0
 40
66.0
 40
67.0
 40
67.0
 40
67.0
 40
68.0
 40
68.0
 40
68.0
 40
69.0
 40
69.0
 40
69.0
 40
70.0
 40
70.0
 40
70.0
 40
71.0
 40
71.0
 40
71.0
 40
72.0
 40
72.0
 40
72.0
 40
73.0
 40
73.0
 40
73.0
 40
74.0
 40
74.0
 40
74.0
 40
75.0
 40
75.0
 40
75.0
 40
76.0
 40
76.0
 40
76.0
 40
77.0
 40
77.0
 40
77.0
 40
78.0
 40
78.0
 40
78.0
 40
79.0
 40
79.0
 40
79.0
 40
80.0
 40
80.0
 40
80.0
 40
81.0
 40
81.0
 40
81.0
 40
82.0
 40
82.0
 40
82.0
 40
83.0
 40
83.0
 40
83.0
 40
84.0
 40
84.0
 40
84.0
 40
85.0
 40
85.0
 40
85.0
 40
86.0
 40
86.0
 40
86.0
 40
87.0
 40
87.0
 40
87.0
 40
88.0
 40
88.0
 40
88.0
 40
88.0
 10
-0.232199435705839
 20
-56.7844753547275
 30
0.0
 10
-0.2687174478494873
 20
-56.80083955828243
 30
0.0
 10
-0.3033406574762482
 20
-56.81238062815802
 30
0.0
 10
-0.3360690645861216
 20
-56.81892630957999
 30
0.0
 10
-0.3691419812445201
 20
-56.82581650055049
 30
0.0
 10
-0.4058322481624309
 20
-56.83460149403788
 30
0.0
 10
-0.4466566296626414
 20
-56.84545354481642
 30
0.0
 10
-0.3861952038965067
 20
-56.88610567154237
 30
0.0
 10
-0.3319349500038218
 20
-56.9286526007852
 30
0.0
 10
-0.2842203775331116
 20
-56.97292207777066
 30
0.0
 10
-0.2363335502881388
 20
-57.01736380953039
 30
0.0
 10
-0.1979207356276032
 20
-57.06817896793782
 30
0.0
 10
-0.168809678777242
 20
-57.12553980776723
 30
0.0
 10
-0.1183390299183319
 20
-57.21976316928881
 30
0.0
 10
-0.0838880750658335
 20
-57.33620739669026
 30
0.0
 10
-0.0651123046712219
 20
-57.47435572564878
 30
0.0
 10
-0.0463365342766103
 20
-57.61267630938156
 30
0.0
 10
-0.0461642795023478
 20
-57.77769638312503
 30
0.0
 10
-0.0649400498969594
 20
-57.96941594687917
 30
0.0
 10
-0.0649400498969594
 20
-57.96941594687917
 30
0.0
 10
-0.0973239474583079
 20
-58.30117864210874
 30
0.0
 10
-0.0973239474583079
 20
-58.30117864210874
 30
0.0
 10
-0.1036973741060201
 20
-58.31547578837252
 30
0.0
 10
-0.1086927625596324
 20
-58.34234753315747
 30
0.0
 10
-0.1124823675934072
 20
-58.38162162168932
 30
0.0
 10
-0.1393541123783559
 20
-58.65688475096078
 30
0.0
 10
-0.084060329840096
 20
-58.80123425179275
 30
0.0
 10
0.0537434895698975
 20
-58.81467012418523
 30
0.0
 10
0.1961981878849783
 20
-58.82845050612622
 30
0.0
 10
0.2842203775331116
 20
-58.66343043238275
 30
0.0
 10
0.3178100585142975
 20
-58.3192653934063
 30
0.0
 10
0.3178100585142975
 20
-58.3192653934063
 30
0.0
 10
0.3379638671030091
 20
-58.11290417383983
 30
0.0
 10
0.3379638671030091
 20
-58.11290417383983
 30
0.0
 10
0.3379638671030091
 20
-58.11290417383983
 30
0.0
 10
0.3477823892359711
 20
-57.93513724680094
 30
0.0
 10
0.3477823892359711
 20
-57.93513724680094
 30
0.0
 10
0.3477823892359711
 20
-57.93513724680094
 30
0.0
 10
0.3579454209174581
 20
-57.83195663701771
 30
0.0
 10
0.3579454209174581
 20
-57.83195663701771
 30
0.0
 10
0.3650078666622203
 20
-57.75823159363336
 30
0.0
 10
0.3736206053753449
 20
-57.6946695819305
 30
0.0
 10
0.3839558918310944
 20
-57.6409260923606
 30
0.0
 10
0.3941189235125814
 20
-57.58735485756497
 30
0.0
 10
0.4082438150021057
 20
-57.54411890922508
 30
0.0
 10
0.4263305662996674
 20
-57.51104599256669
 30
0.0
 10
0.4869642468400645
 20
-57.39787460587623
 30
0.0
 10
0.6032362194672465
 20
-57.34964326908273
 30
0.0
 10
0.7754909937297384
 20
-57.36652423696046
 30
0.0
 10
1.026121690281664
 20
-57.39098441490573
 30
0.0
 10
1.138431803100809
 20
-57.53585068006048
 30
0.0
 10
1.112593586961435
 20
-57.80129528719898
 30
0.0
 10
1.11224907741291
 20
-57.8062906756526
 30
0.0
 10
1.110354274896023
 20
-57.82472193649868
 30
0.0
 10
1.107253688959298
 20
-57.85658906973725
 30
0.0
 10
1.104153103022573
 20
-57.88862845775007
 30
0.0
 10
1.098124185923386
 20
-57.92394068647388
 30
0.0
 10
1.089511447210261
 20
-57.96287026545721
 30
0.0
 10
1.087099880370586
 20
-57.98750269817674
 30
0.0
 10
1.083310275336811
 20
-58.01316865954185
 30
0.0
 10
1.078314886883199
 20
-58.03986814955253
 30
0.0
 10
1.072974988881062
 20
-58.06673989433749
 30
0.0
 10
1.069702148170075
 20
-58.08999428886292
 30
0.0
 10
1.067635090878925
 20
-58.10963133312885
 30
0.0
 10
1.057988823520225
 20
-58.15820717947087
 30
0.0
 10
1.051787651646775
 20
-58.19730901322846
 30
0.0
 10
1.048859320484313
 20
-58.22676457962734
 30
0.0
 10
1.045930989321851
 20
-58.25622014602622
 30
0.0
 10
1.043863932030701
 20
-58.27844101190609
 30
0.0
 10
1.042313639062338
 20
-58.29325492249266
 30
0.0
 10
1.042313639062338
 20
-58.29325492249266
 30
0.0
 10
1.025088161636089
 20
-58.47016057566024
 30
0.0
 10
1.025088161636089
 20
-58.47016057566024
 30
0.0
 10
1.028016492798552
 20
-58.49031438424895
 30
0.0
 10
1.028533257121339
 20
-58.51132946670898
 30
0.0
 10
1.026466199830189
 20
-58.53355033258884
 30
0.0
 10
1.024226887764777
 20
-58.55559894369443
 30
0.0
 10
1.022159830473627
 20
-58.57661402615446
 30
0.0
 10
1.020265027956739
 20
-58.59625107042039
 30
0.0
 10
0.9901204424608032
 20
-58.90596515454435
 30
0.0
 10
0.879360622610021
 20
-59.13695880683034
 30
0.0
 10
0.68850233272718
 20
-59.28957653682691
 30
0.0
 10
0.4974717880700765
 20
-59.44219426682348
 30
0.0
 10
0.2446017794527384
 20
-59.5031724569124
 30
0.0
 10
-0.0699354383505717
 20
-59.47251110709368
 30
0.0
 10
-0.7040052624108043
 20
-59.41067164313345
 30
0.0
 10
-0.9904649520093283
 20
-59.06530082073715
 30
0.0
 10
-0.9291422523718812
 20
-58.43605413035627
 30
0.0
 10
-0.9291422523718812
 20
-58.43605413035627
 30
0.0
 10
-0.9082994246861197
 20
-58.22211370072225
 30
0.0
 10
-0.9082994246861197
 20
-58.22211370072225
 30
0.0
 10
-0.9082994246861197
 20
-58.22211370072225
 30
0.0
 10
-0.877982584415921
 20
-57.98698593385395
 30
0.0
 10
-0.877982584415921
 20
-57.98698593385395
 30
0.0
 10
-0.877982584415921
 20
-57.98698593385395
 30
0.0
 10
-0.8628241642808218
 20
-57.83212889179197
 30
0.0
 10
-0.8628241642808218
 20
-57.83212889179197
 30
0.0
 10
-0.8345743813017731
 20
-57.54205185193393
 30
0.0
 10
-0.8660970049918091
 20
-57.35532767663339
 30
0.0
 10
-0.9572197805766673
 20
-57.27212862066461
 30
0.0
 10
-1.046447753644638
 20
-57.16912026565564
 30
0.0
 10
-1.263144259666853
 20
-57.10090737504769
 30
0.0
 10
-1.607137043869049
 20
-57.0673176940665
 30
0.0
 10
-1.607137043869049
 20
-57.0673176940665
 30
0.0
 10
-2.263255479034881
 20
-57.00341117281512
 30
0.0
 10
-2.263255479034881
 20
-57.00341117281512
 30
0.0
 10
-2.332157388739877
 20
-56.99669323661888
 30
0.0
 10
-2.372292751143038
 20
-57.05233152870567
 30
0.0
 10
-2.383833821018625
 20
-57.17032604907548
 30
0.0
 10
-2.383833821018625
 20
-57.17032604907548
 30
0.0
 10
-2.437060546265735
 20
-57.71585691916479
 30
0.0
 10
-2.437060546265735
 20
-57.71585691916479
 30
0.0
 10
-2.453769259369197
 20
-57.88793943865302
 30
0.0
 10
-2.465654838793309
 20
-58.02195365302924
 30
0.0
 10
-2.472545029763809
 20
-58.11807181706771
 30
0.0
 10
-2.479435220734308
 20
-58.21418998110618
 30
0.0
 10
-2.483913844865133
 20
-58.27465140687231
 30
0.0
 10
-2.486325411704807
 20
-58.29911158481759
 30
0.0
 10
-2.486325411704807
 20
-58.29911158481759
 30
0.0
 10
-2.485636392607758
 20
-58.2917046295243
 30
0.0
 10
-2.485636392607758
 20
-58.2917046295243
 30
0.0
 10
-2.464621310147734
 20
-58.48239066463287
 30
0.0
 10
-2.395030381345687
 20
-58.58350421712496
 30
0.0
 10
-2.27703586097588
 20
-58.59487303222628
 30
0.0
 10
-2.23276638399042
 20
-58.59917940158284
 30
0.0
 10
-2.190563964296109
 20
-58.5984903824858
 30
0.0
 10
-2.150256347118686
 20
-58.59246146538661
 30
0.0
 10
-2.070157877086627
 20
-58.58522676486758
 30
0.0
 10
-2.000566948284581
 20
-58.5847100005448
 30
0.0
 10
-1.941655815486808
 20
-58.59039440809546
 30
0.0
 10
-1.710662163200807
 20
-58.61295978352385
 30
0.0
 10
-1.606103515223474
 20
-58.73732773054137
 30
0.0
 10
-1.628152126329073
 20
-58.96332599437375
 30
0.0
 10
-1.651062011305985
 20
-59.19931503511337
 30
0.0
 10
-1.810053167950264
 20
-59.30284015444513
 30
0.0
 10
-2.104953341487651
 20
-59.27407360714329
 30
0.0
 10
-2.114427354072088
 20
-59.26821694481836
 30
0.0
 10
-2.124073621430787
 20
-59.26477184933312
 30
0.0
 10
-2.133719888789487
 20
-59.2639105754618
 30
0.0
 10
-2.163347709962635
 20
-59.26098224429934
 30
0.0
 10
-2.187635633133647
 20
-59.25615911061999
 30
0.0
 10
-2.206755913076783
 20
-59.24926891964949
 30
0.0
 10
-2.206755913076783
 20
-59.24926891964949
 30
0.0
 10
-2.577792696838191
 20
-59.1610744752271
 30
0.0
 10
-2.577792696838191
 20
-59.1610744752271
 30
0.0
 10
-2.655651854804837
 20
-59.14367674302658
 30
0.0
 10
-2.723692490638522
 20
-59.12955185153706
 30
0.0
 10
-2.782086859113506
 20
-59.11887205553278
 30
0.0
 10
-2.840653482362753
 20
-59.10819225952851
 30
0.0
 10
-2.896980793546588
 20
-59.10026853991243
 30
0.0
 10
-2.951068792665011
 20
-59.0949286419103
 30
0.0
 10
-2.980524359063897
 20
-59.09200031074784
 30
0.0
 10
-3.024104816952307
 20
-59.09286158461915
 30
0.0
 10
-3.081465656781717
 20
-59.09716795397571
 30
0.0
 10
-3.138998751385389
 20
-59.10147432333228
 30
0.0
 10
-3.198943412828736
 20
-59.10560843791458
 30
0.0
 10
-3.261299641111759
 20
-59.10939804294835
 30
0.0
 10
-3.323828124169043
 20
-59.11318764798212
 30
0.0
 10
-3.386184352452065
 20
-59.11818303643574
 30
0.0
 10
-3.448885090283612
 20
-59.12455646308344
 30
0.0
 10
-3.511585828115159
 20
-59.13075763495689
 30
0.0
 10
-3.565157062910794
 20
-59.13420273044215
 30
0.0
 10
-3.609943304219042
 20
-59.13489174953919
 30
0.0
 10
-3.664031303337465
 20
-59.12972410631132
 30
0.0
 10
-3.70726725167735
 20
-59.12782930379444
 30
0.0
 10
-3.739651149238699
 20
-59.12972410631132
 30
0.0
 10
-3.772207301574309
 20
-59.13144665405395
 30
0.0
 10
-3.826984319789782
 20
-59.12128362237246
 30
0.0
 10
-3.904154458659378
 20
-59.09889050171834
 30
0.0
 10
-4.189236110063803
 20
-59.07098522828781
 30
0.0
 10
-4.320321993277559
 20
-58.93921032597701
 30
0.0
 10
-4.297239853526385
 20
-58.70322128523739
 30
0.0
 10
-4.276224771066361
 20
-58.48704154353796
 30
0.0
 10
-4.152718097920154
 20
-58.38971759607966
 30
0.0
 10
-3.926547579313502
 20
-58.41176620718525
 30
0.0
 10
-3.921724445634152
 20
-58.41228297150804
 30
0.0
 10
-3.914489745115128
 20
-58.41435002879919
 30
0.0
 10
-3.904671222982166
 20
-58.41762286951018
 30
0.0
 10
-3.895197210397729
 20
-58.42124021976969
 30
0.0
 10
-3.880555554585417
 20
-58.42382404138363
 30
0.0
 10
-3.860918510319493
 20
-58.42571884390052
 30
0.0
 10
-3.846104599732918
 20
-58.42709688209462
 30
0.0
 10
-3.826639810241257
 20
-58.43036972280561
 30
0.0
 10
-3.802179632295983
 20
-58.43519285648495
 30
0.0
 10
-3.777891709124972
 20
-58.44001599016431
 30
0.0
 10
-3.75360378595396
 20
-58.44363334042382
 30
0.0
 10
-3.728799098460161
 20
-58.44604490726349
 30
0.0
 10
-3.704855684837675
 20
-58.45327960778252
 30
0.0
 10
-3.680567761666664
 20
-58.45948077965597
 30
0.0
 10
-3.656279838495653
 20
-58.46430391333531
 30
0.0
 10
-3.631991915324641
 20
-58.46912704701467
 30
0.0
 10
-3.607531737379367
 20
-58.47274439727418
 30
0.0
 10
-3.582899304659831
 20
-58.47515596411385
 30
0.0
 10
-3.425630695758176
 20
-58.49048663902322
 30
0.0
 10
-3.332957627204955
 20
-58.35561115077569
 30
0.0
 10
-3.305224608548694
 20
-58.070357244597
 30
0.0
 10
-3.305224608548694
 20
-58.070357244597
 30
0.0
 10
-3.028583441083132
 20
-55.23159856475113
 30
0.0
 10
-3.028583441083132
 20
-55.23159856475113
 30
0.0
 10
-3.001711696298183
 20
-54.95650769025393
 30
0.0
 10
-3.063895669806943
 20
-54.80388996025737
 30
0.0
 10
-3.214790852060886
 20
-54.77443439385848
 30
0.0
 10
-3.215135361609411
 20
-54.77925752753783
 30
0.0
 10
-3.237700737037797
 20
-54.78080782050619
 30
0.0
 10
-3.28214246879752
 20
-54.7789130179893
 30
0.0
 10
-3.326584200557243
 20
-54.77719047024668
 30
0.0
 10
-3.361379664958267
 20
-54.7775349797952
 30
0.0
 10
-3.38652886200059
 20
-54.77994654663487
 30
0.0
 10
-3.416501192722264
 20
-54.78201360392602
 30
0.0
 10
-3.448885090283612
 20
-54.78253036824881
 30
0.0
 10
-3.48333604513611
 20
-54.7816690943775
 30
0.0
 10
-3.518131509537134
 20
-54.78080782050619
 30
0.0
 10
-3.547759330710282
 20
-54.77908527276357
 30
0.0
 10
-3.572219508655556
 20
-54.77667370592389
 30
0.0
 10
-3.660758462626477
 20
-54.76806096721076
 30
0.0
 10
-3.736206053753448
 20
-54.72723658571056
 30
0.0
 10
-3.798562282036471
 20
-54.65420056142326
 30
0.0
 10
-3.860918510319493
 20
-54.58116453713596
 30
0.0
 10
-3.887962509878704
 20
-54.50296086962079
 30
0.0
 10
-3.879866535488367
 20
-54.41924504932922
 30
0.0
 10
-3.85730116005998
 20
-54.18825139704322
 30
0.0
 10
-3.7010660798039
 20
-54.08679333500261
 30
0.0
 10
-3.410989039945864
 20
-54.11504311798166
 30
0.0
 10
-3.401170517812902
 20
-54.11607664662723
 30
0.0
 10
-3.38515082380649
 20
-54.1176269395956
 30
0.0
 10
-3.363102212700891
 20
-54.11986625166101
 30
0.0
 10
-3.34088134682103
 20
-54.12193330895216
 30
0.0
 10
-3.320383028683793
 20
-54.12658418785725
 30
0.0
 10
-3.301090493966394
 20
-54.13330212405348
 30
0.0
 10
-3.242523870717147
 20
-54.14398192005775
 30
0.0
 10
-3.183095973596587
 20
-54.15586749948187
 30
0.0
 10
-3.122290038281927
 20
-54.16930337187434
 30
0.0
 10
-3.06165635774153
 20
-54.18273924426682
 30
0.0
 10
-3.004467772686383
 20
-54.19445256891667
 30
0.0
 10
-2.950724283116486
 20
-54.20461560059815
 30
0.0
 10
-2.902148436774463
 20
-54.21443412273111
 30
0.0
 10
-2.849610730624403
 20
-54.2232191162185
 30
0.0
 10
-2.793283419440568
 20
-54.23114283583458
 30
0.0
 10
-2.737128363030996
 20
-54.23923881022491
 30
0.0
 10
-2.674599879973711
 20
-54.24647351074394
 30
0.0
 10
-2.605697970268714
 20
-54.25319144694018
 30
0.0
 10
-2.53696831533798
 20
-54.25990938313642
 30
0.0
 10
-2.466688367438884
 20
-54.26559379068708
 30
0.0
 10
-2.395202636119949
 20
-54.26990016004364
 30
0.0
 10
-2.323716904801015
 20
-54.27437878417447
 30
0.0
 10
-2.246030001608632
 20
-54.2783406439825
 30
0.0
 10
-2.161797416994273
 20
-54.28144122991922
 30
0.0
 10
-2.161797416994273
 20
-54.28144122991922
 30
0.0
 10
-2.117527940008813
 20
-54.28574759927579
 30
0.0
 10
-2.117527940008813
 20
-54.28574759927579
 30
0.0
 10
-2.117527940008813
 20
-54.28574759927579
 30
0.0
 10
-1.576475694050326
 20
-54.30882973902696
 30
0.0
 10
-1.576475694050326
 20
-54.30882973902696
 30
0.0
 10
-1.487419975756617
 20
-54.31261934406074
 30
0.0
 10
-1.399914550431271
 20
-54.31744247774009
 30
0.0
 10
-1.313614908525763
 20
-54.32329914006501
 30
0.0
 10
-1.227487521394517
 20
-54.32915580238993
 30
0.0
 10
-1.147389051362458
 20
-54.33570148381191
 30
0.0
 10
-1.073664007978112
 20
-54.34293618433094
 30
0.0
 10
0.0422024196943105
 20
-54.45162894689057
 30
0.0
 10
0.5582777233847361
 20
-54.93618162689096
 30
0.0
 10
0.4743896483189026
 20
-55.79642196955784
 30
0.0
 10
0.4249525281055674
 20
-56.3026787511153
 30
0.0
 10
0.1894802516887411
 20
-56.63202987950519
 30
0.0
 10
-0.232199435705839
 20
-56.7844753547275
 30
0.0
  0
SPLINE
  5
4E
330
47
100
AcDbEntity
  8
LAYER_7
 62
   250
100
AcDbSpline
210
0.0
220
0.0
230
1.0
 70
    11
 71
     3
 72
    41
 73
    37
 74
     0
 42
0.0000000001
 43
0.0000000001
 12
1.0
 22
0.0
 32
0.0
 13
1.0
 23
0.0
 33
0.0
 40
0.0
 40
0.0
 40
0.0
 40
0.0
 40
1.0
 40
1.0
 40
1.0
 40
2.0
 40
2.0
 40
2.0
 40
3.0
 40
3.0
 40
3.0
 40
4.0
 40
4.0
 40
4.0
 40
5.0
 40
5.0
 40
5.0
 40
6.0
 40
6.0
 40
6.0
 40
7.0
 40
7.0
 40
7.0
 40
8.0
 40
8.0
 40
8.0
 40
9.0
 40
9.0
 40
9.0
 40
10.0
 40
10.0
 40
10.0
 40
11.0
 40
11.0
 40
11.0
 40
12.0
 40
12.0
 40
12.0
 40
12.0
 10
-1.556494140235877
 20
-56.39483505534574
 30
0.0
 10
-1.369769964935335
 20
-56.41309406141756
 30
0.0
 10
-1.205094400740393
 20
-56.41688366645134
 30
0.0
 10
-1.06246744765105
 20
-56.40585936089854
 30
0.0
 10
-0.9200127493359691
 20
-56.39500731012
 30
0.0
 10
-0.7994344073522248
 20
-56.36710203668947
 30
0.0
 10
-0.700732421699817
 20
-56.3219712858327
 30
0.0
 10
-0.4936821830363017
 20
-56.23308782231326
 30
0.0
 10
-0.3758599174407573
 20
-56.04360757062452
 30
0.0
 10
-0.3476101344617086
 20
-55.75353053076648
 30
0.0
 10
-0.3016181097336232
 20
-55.28155244928725
 30
0.0
 10
-0.6080593531465963
 20
-55.01352402053482
 30
0.0
 10
-1.266761609926365
 20
-54.94927298973491
 30
0.0
 10
-1.64038221530171
 20
-54.91292723236552
 30
0.0
 10
-1.891185166627898
 20
-54.91585556352798
 30
0.0
 10
-2.019342718679192
 20
-54.95788572844803
 30
0.0
 10
-2.1166666661375
 20
-54.98820256871823
 30
0.0
 10
-2.17196044867576
 20
-55.07209064378407
 30
0.0
 10
-2.185224066293972
 20
-55.20972220841979
 30
0.0
 10
-2.188669161779222
 20
-55.24417316327229
 30
0.0
 10
-2.193492295458571
 20
-55.2808634301902
 30
0.0
 10
-2.199693467332021
 20
-55.31996526394779
 30
0.0
 10
-2.206066893979733
 20
-55.35906709770538
 30
0.0
 10
-2.210717772884821
 20
-55.39334579778361
 30
0.0
 10
-2.21347384927302
 20
-55.4228013641825
 30
0.0
 10
-2.21347384927302
 20
-55.4228013641825
 30
0.0
 10
-2.293227809756554
 20
-56.2411837967036
 30
0.0
 10
-2.293227809756554
 20
-56.2411837967036
 30
0.0
 10
-2.297189669564592
 20
-56.28063014000971
 30
0.0
 10
-2.295639376596229
 20
-56.30422904408367
 30
0.0
 10
-2.289093695174254
 20
-56.31232501847401
 30
0.0
 10
-2.282375758978017
 20
-56.32042099286434
 30
0.0
 10
-2.259465874001106
 20
-56.32644990996353
 30
0.0
 10
-2.220019530694995
 20
-56.3302395149973
 30
0.0
 10
-2.220019530694995
 20
-56.3302395149973
 30
0.0
 10
-1.556494140235877
 20
-56.39483505534574
 30
0.0
 10
-1.556494140235877
 20
-56.39483505534574
 30
0.0
  0
SPLINE
  5
4F
330
47
100
AcDbEntity
  8
LAYER_7
 62
   250
100
AcDbSpline
210
0.0
220
0.0
230
1.0
 70
    11
 71
     3
 72
   125
 73
   121
 74
     0
 42
0.0000000001
 43
0.0000000001
 12
1.0
 22
0.0
 32
0.0
 13
1.0
 23
0.0
 33
0.0
 40
0.0
 40
0.0
 40
0.0
 40
0.0
 40
1.0
 40
1.0
 40
1.0
 40
2.0
 40
2.0
 40
2.0
 40
3.0
 40
3.0
 40
3.0
 40
4.0
 40
4.0
 40
4.0
 40
5.0
 40
5.0
 40
5.0
 40
6.0
 40
6.0
 40
6.0
 40
7.0
 40
7.0
 40
7.0
 40
8.0
 40
8.0
 40
8.0
 40
9.0
 40
9.0
 40
9.0
 40
10.0
 40
10.0
 40
10.0
 40
11.0
 40
11.0
 40
11.0
 40
12.0
 40
12.0
 40
12.0
 40
13.0
 40
13.0
 40
13.0
 40
14.0
 40
14.0
 40
14.0
 40
15.0
 40
15.0
 40
15.0
 40
16.0
 40
16.0
 40
16.0
 40
17.0
 40
17.0
 40
17.0
 40
18.0
 40
18.0
 40
18.0
 40
19.0
 40
19.0
 40
19.0
 40
20.0
 40
20.0
 40
20.0
 40
21.0
 40
21.0
 40
21.0
 40
22.0
 40
22.0
 40
22.0
 40
23.0
 40
23.0
 40
23.0
 40
24.0
 40
24.0
 40
24.0
 40
25.0
 40
25.0
 40
25.0
 40
26.0
 40
26.0
 40
26.0
 40
27.0
 40
27.0
 40
27.0
 40
28.0
 40
28.0
 40
28.0
 40
29.0
 40
29.0
 40
29.0
 40
30.0
 40
30.0
 40
30.0
 40
31.0
 40
31.0
 40
31.0
 40
32.0
 40
32.0
 40
32.0
 40
33.0
 40
33.0
 40
33.0
 40
34.0
 40
34.0
 40
34.0
 40
35.0
 40
35.0
 40
35.0
 40
36.0
 40
36.0
 40
36.0
 40
37.0
 40
37.0
 40
37.0
 40
38.0
 40
38.0
 40
38.0
 40
39.0
 40
39.0
 40
39.0
 40
40.0
 40
40.0
 40
40.0
 40
40.0
 10
2.771062553560707
 20
-55.97470566091952
 30
0.0
 10
2.845648870816366
 20
-55.70323213668183
 30
0.0
 10
2.80792507525288
 20
-55.54200166797214
 30
0.0
 10
2.658063421644512
 20
-55.49049749046765
 30
0.0
 10
2.647211370865975
 20
-55.49273680253307
 30
0.0
 10
2.628780110019888
 20
-55.49015298091913
 30
0.0
 10
2.60259738433199
 20
-55.48291828040011
 30
0.0
 10
2.576414658644091
 20
-55.47568357988108
 30
0.0
 10
2.548337130439305
 20
-55.47068819142747
 30
0.0
 10
2.518537054491893
 20
-55.46758760549074
 30
0.0
 10
2.518537054491893
 20
-55.46758760549074
 30
0.0
 10
2.525599500236656
 20
-55.46948240800763
 30
0.0
 10
2.525599500236656
 20
-55.46948240800763
 30
0.0
 10
2.43602701762016
 20
-55.46035290497172
 30
0.0
 10
2.364885795849751
 20
-55.44846732554761
 30
0.0
 10
2.312520344473953
 20
-55.43417017928382
 30
0.0
 10
2.093412271612064
 20
-55.37388100829195
 30
0.0
 10
2.012624782482955
 20
-55.23917777481868
 30
0.0
 10
2.070157877086627
 20
-55.02954371454123
 30
0.0
 10
2.131652831498337
 20
-54.80578476277425
 30
0.0
 10
2.305113389180666
 20
-54.73292099326122
 30
0.0
 10
2.59088405968214
 20
-54.81146917032491
 30
0.0
 10
2.60053032704084
 20
-54.81405299193885
 30
0.0
 10
2.616033256724464
 20
-54.81835936129541
 30
0.0
 10
2.637392848733013
 20
-54.82421602362034
 30
0.0
 10
2.658752440741562
 20
-54.83007268594526
 30
0.0
 10
2.678389485007486
 20
-54.83799640556133
 30
0.0
 10
2.696131726756523
 20
-54.84798718246856
 30
0.0
 10
2.696131726756523
 20
-54.84798718246856
 30
0.0
 10
3.039607746635931
 20
-54.99595403356004
 30
0.0
 10
3.039607746635931
 20
-54.99595403356004
 30
0.0
 10
3.103686522661579
 20
-55.02385930699057
 30
0.0
 10
3.169660101204113
 20
-55.04969752312994
 30
0.0
 10
3.237356227489272
 20
-55.0732964272039
 30
0.0
 10
3.305052353774431
 20
-55.09706758605213
 30
0.0
 10
3.377054849416153
 20
-55.11928845193199
 30
0.0
 10
3.453363714414437
 20
-55.14030353439201
 30
0.0
 10
3.572391763429819
 20
-55.17285968672762
 30
0.0
 10
3.698137748641438
 20
-55.19973143151257
 30
0.0
 10
3.830773924823557
 20
-55.22074651397259
 30
0.0
 10
3.830773924823557
 20
-55.22074651397259
 30
0.0
 10
4.294483777138185
 20
-55.29429930258268
 30
0.0
 10
4.294483777138185
 20
-55.29429930258268
 30
0.0
 10
4.338753254123645
 20
-55.30136174832744
 30
0.0
 10
4.390774195950918
 20
-55.31186928955745
 30
0.0
 10
4.451063366942789
 20
-55.32564967149845
 30
0.0
 10
4.5111802831604
 20
-55.33960230821371
 30
0.0
 10
4.576981606928672
 20
-55.35648327609144
 30
0.0
 10
4.648467338247605
 20
-55.3759480655831
 30
0.0
 10
5.086683483971385
 20
-55.49618189801832
 30
0.0
 10
5.433949108884568
 20
-55.65827364059933
 30
0.0
 10
5.690608722535681
 20
-55.86170652900333
 30
0.0
 10
6.035290525834927
 20
-56.13559162008069
 30
0.0
 10
6.265422904249617
 20
-56.50094399629143
 30
0.0
 10
6.380833603005486
 20
-56.9575914028613
 30
0.0
 10
6.496244301761356
 20
-57.41441106420542
 30
0.0
 10
6.480741372077731
 20
-57.90947128543583
 30
0.0
 10
6.334324813954614
 20
-58.44294432132676
 30
0.0
 10
6.211507159905457
 20
-58.89063447963498
 30
0.0
 10
6.006007214210304
 20
-59.28492565792182
 30
0.0
 10
5.717824976869155
 20
-59.6258178561873
 30
0.0
 10
5.582432724298837
 20
-59.78325871986321
 30
0.0
 10
5.433776854110306
 20
-59.91417234830271
 30
0.0
 10
5.272201875852089
 20
-60.01821423195725
 30
0.0
 10
5.110282388045347
 20
-60.12242837038606
 30
0.0
 10
4.940266925848267
 20
-60.20114880222402
 30
0.0
 10
4.761638724938063
 20
-60.2545477822454
 30
0.0
 10
4.553210448080447
 20
-60.30484617633004
 30
0.0
 10
4.326867674699534
 20
-60.32723929698417
 30
0.0
 10
4.08261040479532
 20
-60.32172714420776
 30
0.0
 10
3.838353134891106
 20
-60.31621499143137
 30
0.0
 10
3.587550183564918
 20
-60.27814668631935
 30
0.0
 10
3.330373805591018
 20
-60.20752222887173
 30
0.0
 10
3.277836099440958
 20
-60.19305282783368
 30
0.0
 10
3.225987412387948
 20
-60.17754989815006
 30
0.0
 10
3.174138725334938
 20
-60.1608411850466
 30
0.0
 10
3.12246229305619
 20
-60.14396021716887
 30
0.0
 10
3.070958115551705
 20
-60.12604572064557
 30
0.0
 10
3.019970702370007
 20
-60.10692544070244
 30
0.0
 10
3.019970702370007
 20
-60.10692544070244
 30
0.0
 10
2.560222709863416
 20
-59.93467066643995
 30
0.0
 10
2.560222709863416
 20
-59.93467066643995
 30
0.0
 10
2.406915960769799
 20
-59.87730982661054
 30
0.0
 10
2.244651963414531
 20
-59.825116630009
 30
0.0
 10
2.07308620824909
 20
-59.77791882186108
 30
0.0
 10
1.925463866706134
 20
-59.7374389499094
 30
0.0
 10
1.804368760399602
 20
-59.71194524331855
 30
0.0
 10
1.709973144103757
 20
-59.70143770208853
 30
0.0
 10
1.709973144103757
 20
-59.70143770208853
 30
0.0
 10
1.367702907644185
 20
-59.66130233968537
 30
0.0
 10
1.367702907644185
 20
-59.66130233968537
 30
0.0
 10
1.348582627701049
 20
-59.65596244168324
 30
0.0
 10
1.3313571502748
 20
-59.65372312961782
 30
0.0
 10
1.315681965816913
 20
-59.65458440348913
 30
0.0
 10
1.315681965816913
 20
-59.65458440348913
 30
0.0
 10
1.251430935017003
 20
-59.63701441651436
 30
0.0
 10
1.251430935017003
 20
-59.63701441651436
 30
0.0
 10
0.9751342770999665
 20
-59.56122231583886
 30
0.0
 10
0.867819552734434
 20
-59.41136066223049
 30
0.0
 10
0.9291422523718812
 20
-59.18742945568926
 30
0.0
 10
0.9553249780597799
 20
-59.09234482029636
 30
0.0
 10
1.008723958081152
 20
-59.02378742013989
 30
0.0
 10
1.089339192435999
 20
-58.98175725521984
 30
0.0
 10
1.169954426790845
 20
-58.93989934507405
 30
0.0
 10
1.255565049599303
 20
-58.93128660636093
 30
0.0
 10
1.345998806087112
 20
-58.95626354862899
 30
0.0
 10
1.403187391142259
 20
-58.97193873308688
 30
0.0
 10
1.470194498330368
 20
-58.99794920400051
 30
0.0
 10
1.547364637199965
 20
-59.03446721614417
 30
0.0
 10
1.566312662368839
 20
-59.03963485937204
 30
0.0
 10
1.58508843276345
 20
-59.04618054079401
 30
0.0
 10
1.603519693609537
 20
-59.05375975086157
 30
0.0
 10
1.621778699681361
 20
-59.06133896092911
 30
0.0
 10
1.642966036915647
 20
-59.06840140667387
 30
0.0
 10
1.666909450538134
 20
-59.07494708809585
 30
0.0
 10
1.824005804665526
 20
-59.11801078166148
 30
0.0
 10
1.940450032066971
 20
-59.00156655426003
 30
0.0
 10
2.016242132742467
 20
-58.72526989634299
 30
0.0
 10
2.016242132742467
 20
-58.72526989634299
 30
0.0
 10
2.771062553560707
 20
-55.97470566091952
 30
0.0
 10
2.771062553560707
 20
-55.97470566091952
 30
0.0
  0
SPLINE
  5
50
330
47
100
AcDbEntity
  8
LAYER_7
 62
   250
100
AcDbSpline
210
0.0
220
0.0
230
1.0
 70
    11
 71
     3
 72
    44
 73
    40
 74
     0
 42
0.0000000001
 43
0.0000000001
 12
1.0
 22
0.0
 32
0.0
 13
1.0
 23
0.0
 33
0.0
 40
0.0
 40
0.0
 40
0.0
 40
0.0
 40
1.0
 40
1.0
 40
1.0
 40
2.0
 40
2.0
 40
2.0
 40
3.0
 40
3.0
 40
3.0
 40
4.0
 40
4.0
 40
4.0
 40
5.0
 40
5.0
 40
5.0
 40
6.0
 40
6.0
 40
6.0
 40
7.0
 40
7.0
 40
7.0
 40
8.0
 40
8.0
 40
8.0
 40
9.0
 40
9.0
 40
9.0
 40
10.0
 40
10.0
 40
10.0
 40
11.0
 40
11.0
 40
11.0
 40
12.0
 40
12.0
 40
12.0
 40
13.0
 40
13.0
 40
13.0
 40
13.0
 10
2.802068412927955
 20
-59.02533771310825
 30
0.0
 10
2.757626681168232
 20
-59.18742945568926
 30
0.0
 10
2.803963215444843
 20
-59.30766328812447
 30
0.0
 10
2.941250270532048
 20
-59.38621146518818
 30
0.0
 10
2.984830728420459
 20
-59.41359997429591
 30
0.0
 10
3.166215005718863
 20
-59.47113306889958
 30
0.0
 10
3.485403102427261
 20
-59.55863849422493
 30
0.0
 10
3.732933213042462
 20
-59.62650687528435
 30
0.0
 10
3.959792750746163
 20
-59.649244505487
 30
0.0
 10
4.165981715538366
 20
-59.62633462051009
 30
0.0
 10
4.371826170782044
 20
-59.60342473553317
 30
0.0
 10
4.549765352595197
 20
-59.54348007408983
 30
0.0
 10
4.699282496655041
 20
-59.44615612663152
 30
0.0
 10
4.87825520711377
 20
-59.31610377206334
 30
0.0
 10
5.036212835112475
 20
-59.14677732896331
 30
0.0
 10
5.172810871102631
 20
-58.93852130687996
 30
0.0
 10
5.309408907092787
 20
-58.73009303002234
 30
0.0
 10
5.415517848038482
 20
-58.48790281740928
 30
0.0
 10
5.491309948713979
 20
-58.21160615949224
 30
0.0
 10
5.611543781149198
 20
-57.77339001376846
 30
0.0
 10
5.630664061092334
 20
-57.38168265709555
 30
0.0
 10
5.548670788543388
 20
-57.03665634424778
 30
0.0
 10
5.466677515994442
 20
-56.69145777662575
 30
0.0
 10
5.289771862826862
 20
-56.43548718207169
 30
0.0
 10
5.018126083814913
 20
-56.2687445605856
 30
0.0
 10
4.848110621617834
 20
-56.16056856234875
 30
0.0
 10
4.624868434173644
 20
-56.06858451289258
 30
0.0
 10
4.348571776256607
 20
-55.99279241221709
 30
0.0
 10
4.020081921738035
 20
-55.9027031652778
 30
0.0
 10
3.81234266397747
 20
-55.86618515313415
 30
0.0
 10
3.725698512523437
 20
-55.8834106305604
 30
0.0
 10
3.725698512523437
 20
-55.8834106305604
 30
0.0
 10
3.727593315040324
 20
-55.87617593004138
 30
0.0
 10
3.727593315040324
 20
-55.87617593004138
 30
0.0
 10
3.682979328506339
 20
-55.88961180243385
 30
0.0
 10
3.639743380166453
 20
-55.97246634885411
 30
0.0
 10
3.59805772479493
 20
-56.12491182407641
 30
0.0
 10
3.59805772479493
 20
-56.12491182407641
 30
0.0
 10
2.802068412927955
 20
-59.02533771310825
 30
0.0
 10
2.802068412927955
 20
-59.02533771310825
 30
0.0
  0
SPLINE
  5
51
330
47
100
AcDbEntity
  8
LAYER_7
 62
   250
100
AcDbSpline
210
0.0
220
0.0
230
1.0
 70
    11
 71
     3
 72
   119
 73
   115
 74
     0
 42
0.0000000001
 43
0.0000000001
 12
1.0
 22
0.0
 32
0.0
 13
1.0
 23
0.0
 33
0.0
 40
0.0
 40
0.0
 40
0.0
 40
0.0
 40
1.0
 40
1.0
 40
1.0
 40
2.0
 40
2.0
 40
2.0
 40
3.0
 40
3.0
 40
3.0
 40
4.0
 40
4.0
 40
4.0
 40
5.0
 40
5.0
 40
5.0
 40
6.0
 40
6.0
 40
6.0
 40
7.0
 40
7.0
 40
7.0
 40
8.0
 40
8.0
 40
8.0
 40
9.0
 40
9.0
 40
9.0
 40
10.0
 40
10.0
 40
10.0
 40
11.0
 40
11.0
 40
11.0
 40
12.0
 40
12.0
 40
12.0
 40
13.0
 40
13.0
 40
13.0
 40
14.0
 40
14.0
 40
14.0
 40
15.0
 40
15.0
 40
15.0
 40
16.0
 40
16.0
 40
16.0
 40
17.0
 40
17.0
 40
17.0
 40
18.0
 40
18.0
 40
18.0
 40
19.0
 40
19.0
 40
19.0
 40
20.0
 40
20.0
 40
20.0
 40
21.0
 40
21.0
 40
21.0
 40
22.0
 40
22.0
 40
22.0
 40
23.0
 40
23.0
 40
23.0
 40
24.0
 40
24.0
 40
24.0
 40
25.0
 40
25.0
 40
25.0
 40
26.0
 40
26.0
 40
26.0
 40
27.0
 40
27.0
 40
27.0
 40
28.0
 40
28.0
 40
28.0
 40
29.0
 40
29.0
 40
29.0
 40
30.0
 40
30.0
 40
30.0
 40
31.0
 40
31.0
 40
31.0
 40
32.0
 40
32.0
 40
32.0
 40
33.0
 40
33.0
 40
33.0
 40
34.0
 40
34.0
 40
34.0
 40
35.0
 40
35.0
 40
35.0
 40
36.0
 40
36.0
 40
36.0
 40
37.0
 40
37.0
 40
37.0
 40
38.0
 40
38.0
 40
38.0
 40
38.0
 10
10.36646456989102
 20
-57.55824380071461
 30
0.0
 10
10.46086018618687
 20
-57.61181503551024
 30
0.0
 10
10.55680609545108
 20
-57.68054469044097
 30
0.0
 10
10.65413004290938
 20
-57.76408825595828
 30
0.0
 10
10.75145399036769
 20
-57.84780407624986
 30
0.0
 10
10.83758137749894
 20
-57.93358695383258
 30
0.0
 10
10.91268445907738
 20
-58.02160914348071
 30
0.0
 10
10.98761528588157
 20
-58.10963133312885
 30
0.0
 10
11.04790445687344
 20
-58.19351940819468
 30
0.0
 10
11.093551972053
 20
-58.27327336867821
 30
0.0
 10
11.1390272324583
 20
-58.35319958393601
 30
0.0
 10
11.15728623853012
 20
-58.41607257654181
 30
0.0
 10
11.14832899026847
 20
-58.4620646012699
 30
0.0
 10
11.20431179190378
 20
-58.36319036084323
 30
0.0
 10
11.27683105186829
 20
-58.29790580139775
 30
0.0
 10
11.36605902493626
 20
-58.26603866815919
 30
0.0
 10
11.45494248845571
 20
-58.23434378969489
 30
0.0
 10
11.54882134042877
 20
-58.24640162389326
 30
0.0
 10
11.64769558085544
 20
-58.30238442552857
 30
0.0
 10
11.8581909150042
 20
-58.42192923886675
 30
0.0
 10
11.89884304173015
 20
-58.59556205132333
 30
0.0
 10
11.76965196103328
 20
-58.82311060812409
 30
0.0
 10
11.74760334992768
 20
-58.86186793233315
 30
0.0
 10
11.68266330003072
 20
-58.9612589370826
 30
0.0
 10
11.5748318113424
 20
-59.12145587714672
 30
0.0
 10
11.5748318113424
 20
-59.12145587714672
 30
0.0
 10
11.57844916160192
 20
-59.11491019572475
 30
0.0
 10
11.57844916160192
 20
-59.11491019572475
 30
0.0
 10
11.51126979963954
 20
-59.21309541705437
 30
0.0
 10
11.45442572413292
 20
-59.29594996347463
 30
0.0
 10
11.40774468030779
 20
-59.363129325437
 30
0.0
 10
11.36106363648265
 20
-59.43030868739937
 30
0.0
 10
11.32678493640442
 20
-59.48319090309796
 30
0.0
 10
11.30490858007308
 20
-59.52194822730701
 30
0.0
 10
11.24634195682383
 20
-59.62495658231599
 30
0.0
 10
11.18932562654295
 20
-59.74036728107185
 30
0.0
 10
11.13403184400469
 20
-59.86800806880036
 30
0.0
 10
11.13403184400469
 20
-59.86800806880036
 30
0.0
 10
11.02172173118554
 20
-60.11088730051048
 30
0.0
 10
11.02172173118554
 20
-60.11088730051048
 30
0.0
 10
11.02172173118554
 20
-60.11088730051048
 30
0.0
 10
10.98158636878238
 20
-60.18168401273236
 30
0.0
 10
10.98158636878238
 20
-60.18168401273236
 30
0.0
 10
10.84498833279223
 20
-60.42232393237706
 30
0.0
 10
10.66928846304448
 20
-60.48157957472336
 30
0.0
 10
10.45465901431342
 20
-60.35962319454551
 30
0.0
 10
10.21832546402528
 20
-60.2256089801693
 30
0.0
 10
10.17026638200604
 20
-60.04491372196794
 30
0.0
 10
10.31065402302998
 20
-59.81788192948998
 30
0.0
 10
10.33253037936131
 20
-59.77929686005518
 30
0.0
 10
10.35544026433822
 20
-59.74122855494317
 30
0.0
 10
10.37955593273497
 20
-59.70384926892821
 30
0.0
 10
10.40367160113172
 20
-59.66629772813899
 30
0.0
 10
10.42537570268879
 20
-59.63046873509239
 30
0.0
 10
10.44501274695472
 20
-59.59619003501415
 30
0.0
 10
10.6095160563754
 20
-59.32609454897056
 30
0.0
 10
10.65240749516676
 20
-59.05789386544387
 30
0.0
 10
10.57351480855454
 20
-58.79176023920832
 30
0.0
 10
10.49462212194232
 20
-58.5254543581985
 30
0.0
 10
10.31358235419244
 20
-58.31185843811301
 30
0.0
 10
10.03005099575638
 20
-58.15097247895184
 30
0.0
 10
9.651951766250207
 20
-57.93651528499504
 30
0.0
 10
9.273680281969774
 20
-57.91756725982616
 30
0.0
 10
8.895064288140818
 20
-58.09464516776801
 30
0.0
 10
8.516276039537598
 20
-58.27155082093559
 30
0.0
 10
8.177106389014751
 20
-58.62415634385091
 30
0.0
 10
7.877210827023753
 20
-59.15246173651397
 30
0.0
 10
7.57008056451373
 20
-59.69368623724672
 30
0.0
 10
7.441233993365386
 20
-60.17565509563318
 30
0.0
 10
7.491015623127247
 20
-60.59854056644759
 30
0.0
 10
7.540452743340581
 20
-61.02142603726201
 30
0.0
 10
7.760766599622309
 20
-61.34371471990713
 30
0.0
 10
8.151612682423902
 20
-61.56557886915722
 30
0.0
 10
8.362108016572668
 20
-61.68495142772112
 30
0.0
 10
8.577598739175045
 20
-61.74058971980791
 30
0.0
 10
8.798084850231035
 20
-61.73232149064331
 30
0.0
 10
9.018570961287024
 20
-61.72405326147871
 30
0.0
 10
9.210807289363965
 20
-61.65549586132224
 30
0.0
 10
9.374621579687595
 20
-61.52716605449668
 30
0.0
 10
9.427676050160443
 20
-61.48341334183401
 30
0.0
 10
9.480386011084764
 20
-61.42811955929575
 30
0.0
 10
9.5325792076863
 20
-61.3612847068819
 30
0.0
 10
9.584772404287834
 20
-61.29427759969379
 30
0.0
 10
9.638860403406257
 20
-61.21142305327353
 30
0.0
 10
9.69501545981583
 20
-61.11272106762113
 30
0.0
 10
9.834025062645662
 20
-60.86777477861987
 30
0.0
 10
10.01713188768669
 20
-60.80989717446766
 30
0.0
 10
10.2448526992617
 20
-60.9392605099388
 30
0.0
 10
10.48549261890641
 20
-61.07568629115469
 30
0.0
 10
10.53630777731384
 20
-61.26637232626327
 30
0.0
 10
10.39729817448401
 20
-61.51114636049027
 30
0.0
 10
10.13150905779698
 20
-61.97950709170999
 30
0.0
 10
9.749275713708515
 20
-62.2678615838254
 30
0.0
 10
9.250253632670075
 20
-62.37655434638503
 30
0.0
 10
8.760016545119024
 20
-62.49007024262401
 30
0.0
 10
8.259099661563697
 20
-62.40170354342735
 30
0.0
 10
7.748019746326884
 20
-62.11162650356932
 30
0.0
 10
7.163903806802774
 20
-61.78003606311403
 30
0.0
 10
6.808369952724991
 20
-61.30581866956938
 30
0.0
 10
6.681590438867797
 20
-60.68862981338687
 30
0.0
 10
6.622507051295762
 20
-60.38253307952242
 30
0.0
 10
6.627330184975112
 20
-60.07144095720437
 30
0.0
 10
6.695887585131584
 20
-59.75552570120696
 30
0.0
 10
6.764444985288056
 20
-59.43961044520955
 30
0.0
 10
6.893980575533449
 20
-59.11404892185344
 30
0.0
 10
7.083977591544978
 20
-58.77901338591289
 30
0.0
 10
7.281553817624056
 20
-58.43105874190265
 30
0.0
 10
7.501695419131521
 20
-58.14287650456151
 30
0.0
 10
7.744919160390159
 20
-57.91463892866371
 30
0.0
 10
7.988142901648798
 20
-57.68622909799164
 30
0.0
 10
8.26202799272616
 20
-57.51380206895489
 30
0.0
 10
8.566746688396508
 20
-57.39718558677918
 30
0.0
 10
9.169466143540967
 20
-57.16567517017039
 30
0.0
 10
9.769429522297226
 20
-57.21941865974028
 30
0.0
 10
10.36646456989102
 20
-57.55824380071461
 30
0.0
  0
SPLINE
  5
52
330
47
100
AcDbEntity
  8
LAYER_7
 62
   250
100
AcDbSpline
210
0.0
220
0.0
230
1.0
 70
    11
 71
     3
 72
   209
 73
   205
 74
     0
 42
0.0000000001
 43
0.0000000001
 12
1.0
 22
0.0
 32
0.0
 13
1.0
 23
0.0
 33
0.0
 40
0.0
 40
0.0
 40
0.0
 40
0.0
 40
1.0
 40
1.0
 40
1.0
 40
2.0
 40
2.0
 40
2.0
 40
3.0
 40
3.0
 40
3.0
 40
4.0
 40
4.0
 40
4.0
 40
5.0
 40
5.0
 40
5.0
 40
6.0
 40
6.0
 40
6.0
 40
7.0
 40
7.0
 40
7.0
 40
8.0
 40
8.0
 40
8.0
 40
9.0
 40
9.0
 40
9.0
 40
10.0
 40
10.0
 40
10.0
 40
11.0
 40
11.0
 40
11.0
 40
12.0
 40
12.0
 40
12.0
 40
13.0
 40
13.0
 40
13.0
 40
14.0
 40
14.0
 40
14.0
 40
15.0
 40
15.0
 40
15.0
 40
16.0
 40
16.0
 40
16.0
 40
17.0
 40
17.0
 40
17.0
 40
18.0
 40
18.0
 40
18.0
 40
19.0
 40
19.0
 40
19.0
 40
20.0
 40
20.0
 40
20.0
 40
21.0
 40
21.0
 40
21.0
 40
22.0
 40
22.0
 40
22.0
 40
23.0
 40
23.0
 40
23.0
 40
24.0
 40
24.0
 40
24.0
 40
25.0
 40
25.0
 40
25.0
 40
26.0
 40
26.0
 40
26.0
 40
27.0
 40
27.0
 40
27.0
 40
28.0
 40
28.0
 40
28.0
 40
29.0
 40
29.0
 40
29.0
 40
30.0
 40
30.0
 40
30.0
 40
31.0
 40
31.0
 40
31.0
 40
32.0
 40
32.0
 40
32.0
 40
33.0
 40
33.0
 40
33.0
 40
34.0
 40
34.0
 40
34.0
 40
35.0
 40
35.0
 40
35.0
 40
36.0
 40
36.0
 40
36.0
 40
37.0
 40
37.0
 40
37.0
 40
38.0
 40
38.0
 40
38.0
 40
39.0
 40
39.0
 40
39.0
 40
40.0
 40
40.0
 40
40.0
 40
41.0
 40
41.0
 40
41.0
 40
42.0
 40
42.0
 40
42.0
 40
43.0
 40
43.0
 40
43.0
 40
44.0
 40
44.0
 40
44.0
 40
45.0
 40
45.0
 40
45.0
 40
46.0
 40
46.0
 40
46.0
 40
47.0
 40
47.0
 40
47.0
 40
48.0
 40
48.0
 40
48.0
 40
49.0
 40
49.0
 40
49.0
 40
50.0
 40
50.0
 40
50.0
 40
51.0
 40
51.0
 40
51.0
 40
52.0
 40
52.0
 40
52.0
 40
53.0
 40
53.0
 40
53.0
 40
54.0
 40
54.0
 40
54.0
 40
55.0
 40
55.0
 40
55.0
 40
56.0
 40
56.0
 40
56.0
 40
57.0
 40
57.0
 40
57.0
 40
58.0
 40
58.0
 40
58.0
 40
59.0
 40
59.0
 40
59.0
 40
60.0
 40
60.0
 40
60.0
 40
61.0
 40
61.0
 40
61.0
 40
62.0
 40
62.0
 40
62.0
 40
63.0
 40
63.0
 40
63.0
 40
64.0
 40
64.0
 40
64.0
 40
65.0
 40
65.0
 40
65.0
 40
66.0
 40
66.0
 40
66.0
 40
67.0
 40
67.0
 40
67.0
 40
68.0
 40
68.0
 40
68.0
 40
68.0
 10
13.06397433484165
 20
-64.11598305688767
 30
0.0
 10
13.08188883136494
 20
-64.06568466280302
 30
0.0
 10
13.08843451278692
 20
-64.03054468885348
 30
0.0
 10
13.08378363388183
 20
-64.00987411594198
 30
0.0
 10
13.07896050020248
 20
-63.98920354303048
 30
0.0
 10
13.0563951247741
 20
-63.96060925050291
 30
0.0
 10
13.01574299804815
 20
-63.92443574790779
 30
0.0
 10
13.01574299804815
 20
-63.92443574790779
 30
0.0
 10
12.06799723005592
 20
-63.08400470428109
 30
0.0
 10
12.06799723005592
 20
-63.08400470428109
 30
0.0
 10
12.0235554982962
 20
-63.04473061574924
 30
0.0
 10
11.98393690021582
 20
-63.02784964787151
 30
0.0
 10
11.94948594536332
 20
-63.03336180064791
 30
0.0
 10
11.9146904809623
 20
-63.03904620819858
 30
0.0
 10
11.84148220190074
 20
-63.07125785098566
 30
0.0
 10
11.72951659863012
 20
-63.13051349333196
 30
0.0
 10
11.72951659863012
 20
-63.13051349333196
 30
0.0
 10
11.20568983009788
 20
-63.40853269899162
 30
0.0
 10
11.20568983009788
 20
-63.40853269899162
 30
0.0
 10
11.16831054408292
 20
-63.4283419980318
 30
0.0
 10
11.13988850632961
 20
-63.44935708049183
 30
0.0
 10
11.12025146206369
 20
-63.47140569159743
 30
0.0
 10
11.06134032926592
 20
-63.53789603446275
 30
0.0
 10
11.07064208707609
 20
-63.60559216074791
 30
0.0
 10
11.14815673549421
 20
-63.67449407045291
 30
0.0
 10
11.16297064608078
 20
-63.6874131785226
 30
0.0
 10
11.18398572854081
 20
-63.70463865594884
 30
0.0
 10
11.21171874719707
 20
-63.72565373840887
 30
0.0
 10
11.23910725630481
 20
-63.74684107564315
 30
0.0
 10
11.26925184180074
 20
-63.76854517720023
 30
0.0
 10
11.30215250368488
 20
-63.79111055262862
 30
0.0
 10
11.33488091079475
 20
-63.813675928057
 30
0.0
 10
11.36502549629069
 20
-63.83555228438833
 30
0.0
 10
11.39258626017269
 20
-63.85656736684836
 30
0.0
 10
11.42014702405469
 20
-63.87758244930838
 30
0.0
 10
11.44495171154849
 20
-63.89825302221988
 30
0.0
 10
11.46717257742835
 20
-63.91754555693728
 30
0.0
 10
11.6740505613176
 20
-64.1011691463011
 30
0.0
 10
11.70057779655402
 20
-64.27996960198557
 30
0.0
 10
11.54658202836336
 20
-64.45360241444216
 30
0.0
 10
11.39913194159466
 20
-64.6196560168312
 30
0.0
 10
11.21447482358527
 20
-64.6044975966961
 30
0.0
 10
10.99278292910944
 20
-64.40812715403686
 30
0.0
 10
10.97796901852287
 20
-64.39503579119291
 30
0.0
 10
10.96212157929072
 20
-64.37918835196076
 30
0.0
 10
10.94541286618726
 20
-64.36092934588893
 30
0.0
 10
10.92853189830953
 20
-64.34267033981712
 30
0.0
 10
10.91251220430312
 20
-64.32337780509971
 30
0.0
 10
10.89735378416802
 20
-64.30339625128526
 30
0.0
 10
10.89735378416802
 20
-64.30339625128526
 30
0.0
 10
10.87513291828816
 20
-64.28375920701934
 30
0.0
 10
10.87513291828816
 20
-64.28375920701934
 30
0.0
 10
10.87513291828816
 20
-64.28375920701934
 30
0.0
 10
10.64345024690511
 20
-64.00918509684493
 30
0.0
 10
10.64345024690511
 20
-64.00918509684493
 30
0.0
 10
10.62450222173624
 20
-63.98575844754523
 30
0.0
 10
10.59366861714325
 20
-63.95337454998388
 30
0.0
 10
10.55112168790041
 20
-63.91237791370941
 30
0.0
 10
10.50840250388332
 20
-63.87138127743493
 30
0.0
 10
10.46482204599491
 20
-63.83090140548325
 30
0.0
 10
10.42055256900945
 20
-63.7916273169514
 30
0.0
 10
10.36870388195643
 20
-63.74563529222332
 30
0.0
 10
10.31892225219458
 20
-63.70326061775474
 30
0.0
 10
10.27120767972387
 20
-63.66415878399716
 30
0.0
 10
10.22332085247889
 20
-63.62488469546531
 30
0.0
 10
10.18663058556098
 20
-63.59749618635757
 30
0.0
 10
10.1613091337444
 20
-63.58147649235116
 30
0.0
 10
10.1613091337444
 20
-63.58147649235116
 30
0.0
 10
9.909989418095419
 20
-63.41817896635032
 30
0.0
 10
9.909989418095419
 20
-63.41817896635032
 30
0.0
 10
9.855556909428472
 20
-63.38286673762651
 30
0.0
 10
9.807153317860712
 20
-63.34996607574237
 30
0.0
 10
9.765123152940664
 20
-63.31913247114939
 30
0.0
 10
9.723092988020616
 20
-63.28847112133067
 30
0.0
 10
9.687091740199754
 20
-63.26004908357735
 30
0.0
 10
9.657636173800869
 20
-63.23386635788945
 30
0.0
 10
9.45799289043064
 20
-63.05678844994761
 30
0.0
 10
9.431982419517006
 20
-62.88522269478217
 30
0.0
 10
9.579432506285698
 20
-62.71899683761887
 30
0.0
 10
9.733428274476365
 20
-62.54536402516227
 30
0.0
 10
9.908439125127057
 20
-62.54519177038801
 30
0.0
 10
10.10429280346351
 20
-62.71899683761887
 30
0.0
 10
10.1227240643096
 20
-62.7353610411738
 30
0.0
 10
10.13736572012191
 20
-62.74672985627512
 30
0.0
 10
10.14839002567471
 20
-62.75310328292284
 30
0.0
 10
10.15906982167898
 20
-62.75930445479629
 30
0.0
 10
10.17043863678031
 20
-62.77446287493139
 30
0.0
 10
10.18249647097868
 20
-62.79823403377961
 30
0.0
 10
10.18249647097868
 20
-62.79823403377961
 30
0.0
 10
10.23245035551481
 20
-62.84250351076507
 30
0.0
 10
10.23245035551481
 20
-62.84250351076507
 30
0.0
 10
10.29153374308684
 20
-62.89486896214087
 30
0.0
 10
10.3606079075661
 20
-62.91002738227597
 30
0.0
 10
10.43984510372684
 20
-62.8878065163961
 30
0.0
 10
10.48807644052034
 20
-62.87781573948888
 30
0.0
 10
10.59177381462636
 20
-62.82803410972702
 30
0.0
 10
10.75093722604491
 20
-62.73794486278774
 30
0.0
 10
10.75093722604491
 20
-62.73794486278774
 30
0.0
 10
14.11714002468252
 20
-60.9406385481329
 30
0.0
 10
14.11714002468252
 20
-60.9406385481329
 30
0.0
 10
14.34417181716049
 20
-60.81868216795505
 30
0.0
 10
14.565002437765
 20
-60.8524441037105
 30
0.0
 10
14.77928737694754
 20
-61.04261337449629
 30
0.0
 10
14.98616536083679
 20
-61.22606470908585
 30
0.0
 10
15.04266492679489
 20
-61.43793808142871
 30
0.0
 10
14.94861382004757
 20
-61.67788898197637
 30
0.0
 10
14.94861382004757
 20
-61.67788898197637
 30
0.0
 10
13.56230739678304
 20
-65.16191404620952
 30
0.0
 10
13.56230739678304
 20
-65.16191404620952
 30
0.0
 10
13.48617078655901
 20
-65.3517388074468
 30
0.0
 10
13.4453464050588
 20
-65.48885360775974
 30
0.0
 10
13.44000650705667
 20
-65.57325844714836
 30
0.0
 10
13.43449435428027
 20
-65.65731877698845
 30
0.0
 10
13.4632609015821
 20
-65.72759872488754
 30
0.0
 10
13.52613389418791
 20
-65.7834092717486
 30
0.0
 10
13.55179985555302
 20
-65.80614690195124
 30
0.0
 10
13.57195366414173
 20
-65.8206163029893
 30
0.0
 10
13.58642306517978
 20
-65.82681747486275
 30
0.0
 10
13.61226128131916
 20
-65.84955510506539
 30
0.0
 10
13.63430989242476
 20
-65.8674696015887
 30
0.0
 10
13.65256889849658
 20
-65.88056096443265
 30
0.0
 10
13.67082790456841
 20
-65.89365232727658
 30
0.0
 10
13.6873643628976
 20
-65.90639918057201
 30
0.0
 10
13.70217827348418
 20
-65.91949054341596
 30
0.0
 10
13.71681992929649
 20
-65.93258190625991
 30
0.0
 10
13.7314615851088
 20
-65.94222817361862
 30
0.0
 10
13.74593098614685
 20
-65.94842934549206
 30
0.0
 10
13.94901936500233
 20
-66.12860783937063
 30
0.0
 10
13.97864718617548
 20
-66.30017359453608
 30
0.0
 10
13.83446994011777
 20
-66.46278210143986
 30
0.0
 10
13.68374701263809
 20
-66.63262530886269
 30
0.0
 10
13.51045870973002
 20
-66.63055825157153
 30
0.0
 10
13.31460503139357
 20
-66.45726994866347
 30
0.0
 10
13.29600151577322
 20
-66.44073349033427
 30
0.0
 10
13.27481417853894
 20
-66.42178546516539
 30
0.0
 10
13.25087076491645
 20
-66.40077038270536
 30
0.0
 10
13.2267550965197
 20
-66.37941079069682
 30
0.0
 10
13.20729030702804
 20
-66.3583957082368
 30
0.0
 10
13.19195963211868
 20
-66.33841415442234
 30
0.0
 10
13.18455267682539
 20
-66.33186847300037
 30
0.0
 10
13.17800699540341
 20
-66.32428926293282
 30
0.0
 10
13.17232258785275
 20
-66.31602103376822
 30
0.0
 10
13.16646592552783
 20
-66.30775280460362
 30
0.0
 10
13.16181504662274
 20
-66.30155163273017
 30
0.0
 10
13.15819769636323
 20
-66.29845104679345
 30
0.0
 10
13.06035698458213
 20
-66.18545191487725
 30
0.0
 10
12.97319606880531
 20
-66.09002276993583
 30
0.0
 10
12.89688720380703
 20
-66.01250812151771
 30
0.0
 10
12.82057833880875
 20
-65.93499347309958
 30
0.0
 10
12.7564995627831
 20
-65.87298175436509
 30
0.0
 10
12.70482313050435
 20
-65.82716198441126
 30
0.0
 10
12.64195013789854
 20
-65.77135143755022
 30
0.0
 10
12.55461696734746
 20
-65.7007269801026
 30
0.0
 10
12.4428236188511
 20
-65.61459959297136
 30
0.0
 10
12.33085801558048
 20
-65.5284722058401
 30
0.0
 10
12.19443223436459
 20
-65.42753090812229
 30
0.0
 10
12.03354627520342
 20
-65.31108668072085
 30
0.0
 10
12.02613931991013
 20
-65.30454099929887
 30
0.0
 10
12.01700981687422
 20
-65.2979953178769
 30
0.0
 10
12.00615776609568
 20
-65.29179414600344
 30
0.0
 10
11.99530571531715
 20
-65.28524846458147
 30
0.0
 10
11.98617621228123
 20
-65.27904729270801
 30
0.0
 10
11.97876925698795
 20
-65.27250161128605
 30
0.0
 10
11.95344780517136
 20
-65.25630966250537
 30
0.0
 10
11.92864311767756
 20
-65.23770614688502
 30
0.0
 10
11.90452744928081
 20
-65.21634655487647
 30
0.0
 10
11.88058403565833
 20
-65.19498696286793
 30
0.0
 10
11.86111924616666
 20
-65.17776148544168
 30
0.0
 10
11.84630533558009
 20
-65.16501463214625
 30
0.0
 10
11.64304470195035
 20
-64.98483613826768
 30
0.0
 10
11.61686197626245
 20
-64.80982528761699
 30
0.0
 10
11.76758490374213
 20
-64.63963757064565
 30
0.0
 10
11.91830783122181
 20
-64.46979436322283
 30
0.0
 10
12.10262043968268
 20
-64.48116317832415
 30
0.0
 10
12.32069498389899
 20
-64.6747775445952
 30
0.0
 10
12.33929849951934
 20
-64.69096949337587
 30
0.0
 10
12.36048583675363
 20
-64.71164006628737
 30
0.0
 10
12.38477375992464
 20
-64.73644475378117
 30
0.0
 10
12.40888942832139
 20
-64.76124944127497
 30
0.0
 10
12.43421088013798
 20
-64.78846569560844
 30
0.0
 10
12.46056586060014
 20
-64.81843802633011
 30
0.0
 10
12.48313123602852
 20
-64.84496526156654
 30
0.0
 10
12.50655788532822
 20
-64.87080347770592
 30
0.0
 10
12.53084580849923
 20
-64.89560816519972
 30
0.0
 10
12.55496147689598
 20
-64.92041285269352
 30
0.0
 10
12.57270371864502
 20
-64.93763833011975
 30
0.0
 10
12.58372802419782
 20
-64.94762910702698
 30
0.0
 10
12.63919406151034
 20
-64.99654946291753
 30
0.0
 10
12.68828667217515
 20
-64.99723848201458
 30
0.0
 10
12.73083360141799
 20
-64.94900714522109
 30
0.0
 10
12.73410644212897
 20
-64.94556204973584
 30
0.0
 10
12.73875732103406
 20
-64.93660480147419
 30
0.0
 10
12.74495849290751
 20
-64.92213540043613
 30
0.0
 10
12.7509874100067
 20
-64.90766599939809
 30
0.0
 10
12.75856662007425
 20
-64.88802895513216
 30
0.0
 10
12.76769612311016
 20
-64.86287975808983
 30
0.0
 10
12.76769612311016
 20
-64.86287975808983
 30
0.0
 10
12.79525688699216
 20
-64.79845647251567
 30
0.0
 10
12.79525688699216
 20
-64.79845647251567
 30
0.0
 10
12.79525688699216
 20
-64.79845647251567
 30
0.0
 10
12.79026149853855
 20
-64.80396862529207
 30
0.0
 10
12.79026149853855
 20
-64.80396862529207
 30
0.0
 10
12.79026149853855
 20
-64.80396862529207
 30
0.0
 10
13.06397433484165
 20
-64.11598305688767
 30
0.0
 10
13.06397433484165
 20
-64.11598305688767
 30
0.0
  0
SPLINE
  5
53
330
47
100
AcDbEntity
  8
LAYER_7
 62
   250
100
AcDbSpline
210
0.0
220
0.0
230
1.0
 70
    11
 71
     3
 72
    11
 73
     7
 74
     0
 42
0.0000000001
 43
0.0000000001
 12
1.0
 22
0.0
 32
0.0
 13
1.0
 23
0.0
 33
0.0
 40
0.0
 40
0.0
 40
0.0
 40
0.0
 40
1.0
 40
1.0
 40
1.0
 40
2.0
 40
2.0
 40
2.0
 40
2.0
 10
12.54307589747187
 20
-62.69333087625375
 30
0.0
 10
12.53601345172711
 20
-62.69384764057654
 30
0.0
 10
12.53584119695285
 20
-62.69040254509129
 30
0.0
 10
12.54238687837482
 20
-62.682995589798
 30
0.0
 10
12.54238687837482
 20
-62.682995589798
 30
0.0
 10
12.54307589747187
 20
-62.69333087625375
 30
0.0
 10
12.54307589747187
 20
-62.69333087625375
 30
0.0
  0
SPLINE
  5
54
330
47
100
AcDbEntity
  8
LAYER_7
 62
   250
100
AcDbSpline
210
0.0
220
0.0
230
1.0
 70
    11
 71
     3
 72
    17
 73
    13
 74
     0
 42
0.0000000001
 43
0.0000000001
 12
1.0
 22
0.0
 32
0.0
 13
1.0
 23
0.0
 33
0.0
 40
0.0
 40
0.0
 40
0.0
 40
0.0
 40
1.0
 40
1.0
 40
1.0
 40
2.0
 40
2.0
 40
2.0
 40
3.0
 40
3.0
 40
3.0
 40
4.0
 40
4.0
 40
4.0
 40
4.0
 10
12.54238687837482
 20
-62.682995589798
 30
0.0
 10
12.54893255979679
 20
-62.67558863450472
 30
0.0
 10
12.55547824121877
 20
-62.66990422695405
 30
0.0
 10
12.56236843218927
 20
-62.66594236714602
 30
0.0
 10
12.56908636838551
 20
-62.66198050733798
 30
0.0
 10
12.56925862315977
 20
-62.66387530985487
 30
0.0
 10
12.56271294173779
 20
-62.67128226514816
 30
0.0
 10
12.55565049599303
 20
-62.67162677469668
 30
0.0
 10
12.55048285276516
 20
-62.67369383198783
 30
0.0
 10
12.54738226682843
 20
-62.67731118224734
 30
0.0
 10
12.54738226682843
 20
-62.67731118224734
 30
0.0
 10
12.54238687837482
 20
-62.682995589798
 30
0.0
 10
12.54238687837482
 20
-62.682995589798
 30
0.0
  0
SPLINE
  5
55
330
47
100
AcDbEntity
  8
LAYER_7
 62
   250
100
AcDbSpline
210
0.0
220
0.0
230
1.0
 70
    11
 71
     3
 72
    14
 73
    10
 74
     0
 42
0.0000000001
 43
0.0000000001
 12
1.0
 22
0.0
 32
0.0
 13
1.0
 23
0.0
 33
0.0
 40
0.0
 40
0.0
 40
0.0
 40
0.0
 40
1.0
 40
1.0
 40
1.0
 40
2.0
 40
2.0
 40
2.0
 40
3.0
 40
3.0
 40
3.0
 40
3.0
 10
12.56753607541715
 20
-62.66559785759749
 30
0.0
 10
12.57080891612813
 20
-62.66198050733798
 30
0.0
 10
12.57201469954797
 20
-62.65319551385059
 30
0.0
 10
12.57132568045092
 20
-62.63924287713533
 30
0.0
 10
12.57132568045092
 20
-62.63924287713533
 30
0.0
 10
12.58786213878012
 20
-62.65388453294764
 30
0.0
 10
12.58786213878012
 20
-62.65388453294764
 30
0.0
 10
12.58079969303536
 20
-62.65440129727043
 30
0.0
 10
12.57408175683912
 20
-62.65836315707847
 30
0.0
 10
12.56753607541715
 20
-62.66559785759749
 30
0.0
  0
SPLINE
  5
56
330
47
100
AcDbEntity
  8
LAYER_7
 62
   250
100
AcDbSpline
210
0.0
220
0.0
230
1.0
 70
    11
 71
     3
 72
    20
 73
    16
 74
     0
 42
0.0000000001
 43
0.0000000001
 12
1.0
 22
0.0
 32
0.0
 13
1.0
 23
0.0
 33
0.0
 40
0.0
 40
0.0
 40
0.0
 40
0.0
 40
1.0
 40
1.0
 40
1.0
 40
2.0
 40
2.0
 40
2.0
 40
3.0
 40
3.0
 40
3.0
 40
4.0
 40
4.0
 40
4.0
 40
5.0
 40
5.0
 40
5.0
 40
5.0
 10
14.05426703207671
 20
-61.81552054661209
 30
0.0
 10
13.80708143101004
 20
-61.9528076016993
 30
0.0
 10
13.56075710381467
 20
-62.09095593065782
 30
0.0
 10
13.31546630526488
 20
-62.22979327871339
 30
0.0
 10
13.0701755067151
 20
-62.36863062676895
 30
0.0
 10
12.82764078455351
 20
-62.51005179643846
 30
0.0
 10
12.58786213878012
 20
-62.65388453294764
 30
0.0
 10
12.58786213878012
 20
-62.65388453294764
 30
0.0
 10
13.38057860993611
 20
-63.35685626671287
 30
0.0
 10
13.38057860993611
 20
-63.35685626671287
 30
0.0
 10
13.38057860993611
 20
-63.35685626671287
 30
0.0
 10
13.39039713206907
 20
-63.34583196116007
 30
0.0
 10
13.39039713206907
 20
-63.34583196116007
 30
0.0
 10
13.39039713206907
 20
-63.34583196116007
 30
0.0
 10
14.05426703207671
 20
-61.81552054661209
 30
0.0
 10
14.05426703207671
 20
-61.81552054661209
 30
0.0
  0
SPLINE
  5
57
330
47
100
AcDbEntity
  8
LAYER_7
 62
   250
100
AcDbSpline
210
0.0
220
0.0
230
1.0
 70
    11
 71
     3
 72
    17
 73
    13
 74
     0
 42
0.0000000001
 43
0.0000000001
 12
1.0
 22
0.0
 32
0.0
 13
1.0
 23
0.0
 33
0.0
 40
0.0
 40
0.0
 40
0.0
 40
0.0
 40
1.0
 40
1.0
 40
1.0
 40
2.0
 40
2.0
 40
2.0
 40
3.0
 40
3.0
 40
3.0
 40
4.0
 40
4.0
 40
4.0
 40
4.0
 10
13.36697048276937
 20
-63.3944078075021
 30
0.0
 10
13.36645371844658
 20
-63.3875176165316
 30
0.0
 10
13.36800401141494
 20
-63.38217771852946
 30
0.0
 10
13.37127685212593
 20
-63.37838811349568
 30
0.0
 10
13.37454969283692
 20
-63.37477076323617
 30
0.0
 10
13.37747802399938
 20
-63.36753606271715
 30
0.0
 10
13.38057860993611
 20
-63.35685626671287
 30
0.0
 10
13.38057860993611
 20
-63.35685626671287
 30
0.0
 10
13.41382378136877
 20
-63.38631183311175
 30
0.0
 10
13.41382378136877
 20
-63.38631183311175
 30
0.0
 10
13.39229193458596
 20
-63.38062742556109
 30
0.0
 10
13.37678900490233
 20
-63.3833835019493
 30
0.0
 10
13.36697048276937
 20
-63.3944078075021
 30
0.0
  0
SPLINE
  5
58
330
47
100
AcDbEntity
  8
LAYER_7
 62
   250
100
AcDbSpline
210
0.0
220
0.0
230
1.0
 70
    11
 71
     3
 72
   317
 73
   313
 74
     0
 42
0.0000000001
 43
0.0000000001
 12
1.0
 22
0.0
 32
0.0
 13
1.0
 23
0.0
 33
0.0
 40
0.0
 40
0.0
 40
0.0
 40
0.0
 40
1.0
 40
1.0
 40
1.0
 40
2.0
 40
2.0
 40
2.0
 40
3.0
 40
3.0
 40
3.0
 40
4.0
 40
4.0
 40
4.0
 40
5.0
 40
5.0
 40
5.0
 40
6.0
 40
6.0
 40
6.0
 40
7.0
 40
7.0
 40
7.0
 40
8.0
 40
8.0
 40
8.0
 40
9.0
 40
9.0
 40
9.0
 40
10.0
 40
10.0
 40
10.0
 40
11.0
 40
11.0
 40
11.0
 40
12.0
 40
12.0
 40
12.0
 40
13.0
 40
13.0
 40
13.0
 40
14.0
 40
14.0
 40
14.0
 40
15.0
 40
15.0
 40
15.0
 40
16.0
 40
16.0
 40
16.0
 40
17.0
 40
17.0
 40
17.0
 40
18.0
 40
18.0
 40
18.0
 40
19.0
 40
19.0
 40
19.0
 40
20.0
 40
20.0
 40
20.0
 40
21.0
 40
21.0
 40
21.0
 40
22.0
 40
22.0
 40
22.0
 40
23.0
 40
23.0
 40
23.0
 40
24.0
 40
24.0
 40
24.0
 40
25.0
 40
25.0
 40
25.0
 40
26.0
 40
26.0
 40
26.0
 40
27.0
 40
27.0
 40
27.0
 40
28.0
 40
28.0
 40
28.0
 40
29.0
 40
29.0
 40
29.0
 40
30.0
 40
30.0
 40
30.0
 40
31.0
 40
31.0
 40
31.0
 40
32.0
 40
32.0
 40
32.0
 40
33.0
 40
33.0
 40
33.0
 40
34.0
 40
34.0
 40
34.0
 40
35.0
 40
35.0
 40
35.0
 40
36.0
 40
36.0
 40
36.0
 40
37.0
 40
37.0
 40
37.0
 40
38.0
 40
38.0
 40
38.0
 40
39.0
 40
39.0
 40
39.0
 40
40.0
 40
40.0
 40
40.0
 40
41.0
 40
41.0
 40
41.0
 40
42.0
 40
42.0
 40
42.0
 40
43.0
 40
43.0
 40
43.0
 40
44.0
 40
44.0
 40
44.0
 40
45.0
 40
45.0
 40
45.0
 40
46.0
 40
46.0
 40
46.0
 40
47.0
 40
47.0
 40
47.0
 40
48.0
 40
48.0
 40
48.0
 40
49.0
 40
49.0
 40
49.0
 40
50.0
 40
50.0
 40
50.0
 40
51.0
 40
51.0
 40
51.0
 40
52.0
 40
52.0
 40
52.0
 40
53.0
 40
53.0
 40
53.0
 40
54.0
 40
54.0
 40
54.0
 40
55.0
 40
55.0
 40
55.0
 40
56.0
 40
56.0
 40
56.0
 40
57.0
 40
57.0
 40
57.0
 40
58.0
 40
58.0
 40
58.0
 40
59.0
 40
59.0
 40
59.0
 40
60.0
 40
60.0
 40
60.0
 40
61.0
 40
61.0
 40
61.0
 40
62.0
 40
62.0
 40
62.0
 40
63.0
 40
63.0
 40
63.0
 40
64.0
 40
64.0
 40
64.0
 40
65.0
 40
65.0
 40
65.0
 40
66.0
 40
66.0
 40
66.0
 40
67.0
 40
67.0
 40
67.0
 40
68.0
 40
68.0
 40
68.0
 40
69.0
 40
69.0
 40
69.0
 40
70.0
 40
70.0
 40
70.0
 40
71.0
 40
71.0
 40
71.0
 40
72.0
 40
72.0
 40
72.0
 40
73.0
 40
73.0
 40
73.0
 40
74.0
 40
74.0
 40
74.0
 40
75.0
 40
75.0
 40
75.0
 40
76.0
 40
76.0
 40
76.0
 40
77.0
 40
77.0
 40
77.0
 40
78.0
 40
78.0
 40
78.0
 40
79.0
 40
79.0
 40
79.0
 40
80.0
 40
80.0
 40
80.0
 40
81.0
 40
81.0
 40
81.0
 40
82.0
 40
82.0
 40
82.0
 40
83.0
 40
83.0
 40
83.0
 40
84.0
 40
84.0
 40
84.0
 40
85.0
 40
85.0
 40
85.0
 40
86.0
 40
86.0
 40
86.0
 40
87.0
 40
87.0
 40
87.0
 40
88.0
 40
88.0
 40
88.0
 40
89.0
 40
89.0
 40
89.0
 40
90.0
 40
90.0
 40
90.0
 40
91.0
 40
91.0
 40
91.0
 40
92.0
 40
92.0
 40
92.0
 40
93.0
 40
93.0
 40
93.0
 40
94.0
 40
94.0
 40
94.0
 40
95.0
 40
95.0
 40
95.0
 40
96.0
 40
96.0
 40
96.0
 40
97.0
 40
97.0
 40
97.0
 40
98.0
 40
98.0
 40
98.0
 40
99.0
 40
99.0
 40
99.0
 40
100.0
 40
100.0
 40
100.0
 40
101.0
 40
101.0
 40
101.0
 40
102.0
 40
102.0
 40
102.0
 40
103.0
 40
103.0
 40
103.0
 40
104.0
 40
104.0
 40
104.0
 40
104.0
 10
18.24350314214051
 20
-64.9217908908876
 30
0.0
 10
18.24350314214051
 20
-64.9217908908876
 30
0.0
 10
18.24746500194855
 20
-64.91558971901416
 30
0.0
 10
18.24746500194855
 20
-64.91558971901416
 30
0.0
 10
18.24746500194855
 20
-64.91558971901416
 30
0.0
 10
17.32021755209356
 20
-68.1553575133431
 30
0.0
 10
17.32021755209356
 20
-68.1553575133431
 30
0.0
 10
17.32021755209356
 20
-68.1553575133431
 30
0.0
 10
20.11057264037166
 20
-65.84128687590079
 30
0.0
 10
20.11057264037166
 20
-65.84128687590079
 30
0.0
 10
20.3110771976132
 20
-65.6773003308029
 30
0.0
 10
20.50055744930194
 20
-65.65318466240615
 30
0.0
 10
20.67884114066362
 20
-65.76859536116203
 30
0.0
 10
20.67884114066362
 20
-65.76859536116203
 30
0.0
 10
20.70984700003087
 20
-65.788921424525
 30
0.0
 10
20.70984700003087
 20
-65.788921424525
 30
0.0
 10
20.75118814585387
 20
-65.81579316930994
 30
0.0
 10
20.80527614497229
 20
-65.85954588197262
 30
0.0
 10
20.87176648783761
 20
-65.92052407206154
 30
0.0
 10
20.9411851618654
 20
-65.99493813454293
 30
0.0
 10
20.98424885543102
 20
-66.03731280901151
 30
0.0
 10
21.00078531376022
 20
-66.04799260501578
 30
0.0
 10
21.03127440880468
 20
-66.07383082115516
 30
0.0
 10
21.06641438275423
 20
-66.10104707548864
 30
0.0
 10
21.10654974515739
 20
-66.12998587756474
 30
0.0
 10
21.14668510756055
 20
-66.15892467964083
 30
0.0
 10
21.19164360364306
 20
-66.18958602945955
 30
0.0
 10
21.24125297863066
 20
-66.22162541747238
 30
0.0
 10
21.35321858190128
 20
-66.29466144175967
 30
0.0
 10
21.44434135748614
 20
-66.3446153262958
 30
0.0
 10
21.51444905061097
 20
-66.37252059972631
 30
0.0
 10
21.51444905061097
 20
-66.37252059972631
 30
0.0
 10
21.71495360785251
 20
-66.45830347730904
 30
0.0
 10
21.71495360785251
 20
-66.45830347730904
 30
0.0
 10
21.73665770940959
 20
-66.46071504414871
 30
0.0
 10
21.7788601291039
 20
-66.48207463615726
 30
0.0
 10
21.84104410261266
 20
-66.52272676288321
 30
0.0
 10
22.09374185645573
 20
-66.68636879843258
 30
0.0
 10
22.15695935861007
 20
-66.86585827321409
 30
0.0
 10
22.03069660907566
 20
-67.06050616813071
 30
0.0
 10
21.91235757915733
 20
-67.24309622884896
 30
0.0
 10
21.75577798935272
 20
-67.27100150227947
 30
0.0
 10
21.56113009443611
 20
-67.1445664979708
 30
0.0
 10
21.53632540694231
 20
-67.12837454919013
 30
0.0
 10
21.51100395512572
 20
-67.11080456221536
 30
0.0
 10
21.48551024853487
 20
-67.09116751794943
 30
0.0
 10
21.45984428716976
 20
-67.07153047368351
 30
0.0
 10
21.43590087354728
 20
-67.05154891986906
 30
0.0
 10
21.41385226244168
 20
-67.03122285650609
 30
0.0
 10
21.39163139656182
 20
-67.01124130269164
 30
0.0
 10
21.36355386835703
 20
-66.98850367248899
 30
0.0
 10
21.32979193260158
 20
-66.96369898499519
 30
0.0
 10
21.29585774207187
 20
-66.93854978795287
 30
0.0
 10
21.28224961490513
 20
-66.92545842510891
 30
0.0
 10
21.28913980587563
 20
-66.92408038691481
 30
0.0
 10
21.15805392266187
 20
-66.84484319075408
 30
0.0
 10
21.01456569570122
 20
-66.92545842510891
 30
0.0
 10
20.85867512499367
 20
-67.16558158043082
 30
0.0
 10
20.85867512499367
 20
-67.16558158043082
 30
0.0
 10
20.58857963895008
 20
-67.58209362459753
 30
0.0
 10
20.58857963895008
 20
-67.58209362459753
 30
0.0
 10
20.58857963895008
 20
-67.58209362459753
 30
0.0
 10
20.23959146629427
 20
-68.10643715745256
 30
0.0
 10
20.23959146629427
 20
-68.10643715745256
 30
0.0
 10
20.23959146629427
 20
-68.10643715745256
 30
0.0
 10
19.91299641429259
 20
-68.60976560784756
 30
0.0
 10
19.91299641429259
 20
-68.60976560784756
 30
0.0
 10
19.91299641429259
 20
-68.60976560784756
 30
0.0
 10
19.30648735411435
 20
-69.55854490448537
 30
0.0
 10
19.30648735411435
 20
-69.55854490448537
 30
0.0
 10
19.15042452863253
 20
-69.79901256935581
 30
0.0
 10
19.13871120398268
 20
-69.96196558580812
 30
0.0
 10
19.27151963493906
 20
-70.04809297293937
 30
0.0
 10
19.287883838494
 20
-70.05877276894364
 30
0.0
 10
19.30407578727468
 20
-70.06773001720529
 30
0.0
 10
19.32009548128109
 20
-70.07530922727284
 30
0.0
 10
19.33594292051324
 20
-70.08254392779186
 30
0.0
 10
19.35213486929391
 20
-70.09150117605351
 30
0.0
 10
19.36867132762311
 20
-70.1021809720578
 30
0.0
 10
19.41965874080481
 20
-70.12354056406635
 30
0.0
 10
19.45548773385141
 20
-70.14076604149258
 30
0.0
 10
19.4761583067629
 20
-70.15454642343359
 30
0.0
 10
19.4968288796744
 20
-70.16798229582606
 30
0.0
 10
19.51129828071245
 20
-70.17728405363624
 30
0.0
 10
19.51973876465131
 20
-70.1824516968641
 30
0.0
 10
19.53214110839821
 20
-70.1907199260287
 30
0.0
 10
19.54299315917675
 20
-70.19623207880511
 30
0.0
 10
19.55281168130972
 20
-70.19967717429036
 30
0.0
 10
19.56245794866841
 20
-70.2031222697756
 30
0.0
 10
19.56934813963892
 20
-70.20587834616381
 30
0.0
 10
19.57348225422122
 20
-70.20863442255201
 30
0.0
 10
19.76813014913783
 20
-70.33506942686068
 30
0.0
 10
19.8063707090241
 20
-70.48940970459988
 30
0.0
 10
19.68820393388003
 20
-70.6716552557696
 30
0.0
 10
19.6263644699198
 20
-70.76708440071101
 30
0.0
 10
19.54213188530544
 20
-70.82392847621763
 30
0.0
 10
19.43550618003696
 20
-70.84322101093503
 30
0.0
 10
19.32888047476848
 20
-70.86251354565243
 30
0.0
 10
19.22845594137344
 20
-70.82668455260583
 30
0.0
 10
19.13423257985186
 20
-70.73607854134376
 30
0.0
 10
19.05671793143374
 20
-70.67406682260926
 30
0.0
 10
18.99660101521613
 20
-70.63065861949512
 30
0.0
 10
18.95370957642477
 20
-70.60585393200132
 30
0.0
 10
18.91099039240767
 20
-70.58104924450753
 30
0.0
 10
18.86465385813106
 20
-70.5434977037183
 30
0.0
 10
18.81469997359494
 20
-70.49354381918218
 30
0.0
 10
18.72064886684761
 20
-70.4208523044434
 30
0.0
 10
18.64296196365523
 20
-70.3588405857089
 30
0.0
 10
18.58215602834057
 20
-70.30750866297868
 30
0.0
 10
18.52117783825165
 20
-70.25617674024846
 30
0.0
 10
18.45554876925764
 20
-70.20760089390643
 30
0.0
 10
18.38509656658428
 20
-70.16178112395261
 30
0.0
 10
18.29810790558172
 20
-70.10562606754304
 30
0.0
 10
18.21008571593359
 20
-70.05291610661872
 30
0.0
 10
18.12120225241414
 20
-70.00399575072817
 30
0.0
 10
18.03214653412044
 20
-69.95507539483762
 30
0.0
 10
17.93878444647017
 20
-69.9106336630779
 30
0.0
 10
17.84111598946333
 20
-69.870670555449
 30
0.0
 10
17.75843369781734
 20
-69.8348415624024
 30
0.0
 10
17.68384738056168
 20
-69.79522296432204
 30
0.0
 10
17.61770154724488
 20
-69.75250378030493
 30
0.0
 10
17.3939425954779
 20
-69.60712075082739
 30
0.0
 10
17.34261067274768
 20
-69.44141165798688
 30
0.0
 10
17.46353352427995
 20
-69.25503199223486
 30
0.0
 10
17.58704019742616
 20
-69.06451821190053
 30
0.0
 10
17.76291232194816
 20
-69.04281411034347
 30
0.0
 10
17.99080538829744
 20
-69.19095321620921
 30
0.0
 10
18.01561007579124
 20
-69.20680065544136
 30
0.0
 10
18.03593613915421
 20
-69.2185139800912
 30
0.0
 10
18.05178357838636
 20
-69.22609319015876
 30
0.0
 10
18.06763101761851
 20
-69.23332789067778
 30
0.0
 10
18.08123914478525
 20
-69.24641925352174
 30
0.0
 10
18.09243570511231
 20
-69.26571178823913
 30
0.0
 10
18.11035020163561
 20
-69.28328177521391
 30
0.0
 10
18.12774793383612
 20
-69.29740666670342
 30
0.0
 10
18.14428439216532
 20
-69.3080864627077
 30
0.0
 10
18.16082085049452
 20
-69.31876625871197
 30
0.0
 10
18.17322319424142
 20
-69.32668997832805
 30
0.0
 10
18.18166367818028
 20
-69.33220213110445
 30
0.0
 10
18.18166367818028
 20
-69.33220213110445
 30
0.0
 10
18.23127305316788
 20
-69.3645860286658
 30
0.0
 10
18.23127305316788
 20
-69.3645860286658
 30
0.0
 10
18.31412759958814
 20
-69.4183295182357
 30
0.0
 10
18.44728054009304
 20
-69.33116860245887
 30
0.0
 10
18.6307318746826
 20
-69.10275877178681
 30
0.0
 10
18.66173773404984
 20
-69.0638291928035
 30
0.0
 10
18.71186387336023
 20
-68.9935492449044
 30
0.0
 10
18.78128254738801
 20
-68.89122990899247
 30
0.0
 10
18.85035671186727
 20
-68.78891057308056
 30
0.0
 10
18.93476155125589
 20
-68.66109753057779
 30
0.0
 10
19.03432481077962
 20
-68.50779078148416
 30
0.0
 10
19.07721624957097
 20
-68.44164494816737
 30
0.0
 10
19.12975395572104
 20
-68.360685204264
 30
0.0
 10
19.19159341968127
 20
-68.26560056887111
 30
0.0
 10
19.2534328836415
 20
-68.17017142392969
 30
0.0
 10
19.32664116270306
 20
-68.06165091614432
 30
0.0
 10
19.41139051164021
 20
-67.940039045515
 30
0.0
 10
19.45979410320797
 20
-67.8656249830336
 30
0.0
 10
19.5202555289741
 20
-67.77674151951415
 30
0.0
 10
19.59311929848714
 20
-67.67373316450518
 30
0.0
 10
19.66563855845165
 20
-67.57072480949621
 30
0.0
 10
19.72627223899205
 20
-67.48184134597676
 30
0.0
 10
19.7746758305598
 20
-67.40742728349537
 30
0.0
 10
19.7746758305598
 20
-67.40742728349537
 30
0.0
 10
20.173790142526
 20
-66.79213322982974
 30
0.0
 10
20.173790142526
 20
-66.79213322982974
 30
0.0
 10
20.173790142526
 20
-66.79213322982974
 30
0.0
 10
17.26716308162071
 20
-69.16304794277869
 30
0.0
 10
17.26716308162071
 20
-69.16304794277869
 30
0.0
 10
17.17741834422995
 20
-69.22850475699843
 30
0.0
 10
17.07957763244886
 20
-69.26364473094799
 30
0.0
 10
16.97364094627742
 20
-69.2681233550788
 30
0.0
 10
16.86753200533173
 20
-69.27294648875815
 30
0.0
 10
16.76056179051472
 20
-69.2405625911968
 30
0.0
 10
16.65290255660067
 20
-69.17062715284624
 30
0.0
 10
16.52009412564428
 20
-69.084499765715
 30
0.0
 10
16.43534477670714
 20
-69.00009492632637
 30
0.0
 10
16.39796549069218
 20
-68.91706812513185
 30
0.0
 10
16.36041394990295
 20
-68.8336968143888
 30
0.0
 10
16.36024169512869
 20
-68.72758787344311
 30
0.0
 10
16.3969319620466
 20
-68.59839679274624
 30
0.0
 10
16.55402831617399
 20
-68.01135252205967
 30
0.0
 10
16.71525878488369
 20
-67.41569551265997
 30
0.0
 10
16.88114013249847
 20
-66.8107367454501
 30
0.0
 10
17.04667697056472
 20
-66.20577797824022
 30
0.0
 10
17.21290282772803
 20
-65.60736489245232
 30
0.0
 10
17.37947319443985
 20
-65.01480846898936
 30
0.0
 10
17.37947319443985
 20
-65.01480846898936
 30
0.0
 10
15.91082898907785
 20
-67.34679360295497
 30
0.0
 10
15.91082898907785
 20
-67.34679360295497
 30
0.0
 10
15.76165635456653
 20
-67.5858832296313
 30
0.0
 10
15.73065049519928
 20
-67.7333333164
 30
0.0
 10
15.81763915620184
 20
-67.7898328823581
 30
0.0
 10
15.85071207286024
 20
-67.81153698391518
 30
0.0
 10
15.90790065791539
 20
-67.8366861809575
 30
0.0
 10
15.98920491136728
 20
-67.86596949258212
 30
0.0
 10
15.98920491136728
 20
-67.86596949258212
 30
0.0
 10
16.08239474424329
 20
-67.92625866357399
 30
0.0
 10
16.08239474424329
 20
-67.92625866357399
 30
0.0
 10
16.30615369601027
 20
-68.07164169305153
 30
0.0
 10
16.35490179712655
 20
-68.24148490047435
 30
0.0
 10
16.22846679281788
 20
-68.43613279539098
 30
0.0
 10
16.10220404328348
 20
-68.63112519985611
 30
0.0
 10
15.92495388056737
 20
-68.65420733960728
 30
0.0
 10
15.69723306899236
 20
-68.50641274329007
 30
0.0
 10
15.6805243558889
 20
-68.49573294728579
 30
0.0
 10
15.6639878975597
 20
-68.48505315128152
 30
0.0
 10
15.6474514392305
 20
-68.47437335527724
 30
0.0
 10
15.6309149809013
 20
-68.46334904972444
 30
0.0
 10
15.61368950347505
 20
-68.44922415823491
 30
0.0
 10
15.59560275217749
 20
-68.43165417126015
 30
0.0
 10
15.59560275217749
 20
-68.43165417126015
 30
0.0
 10
15.60180392405094
 20
-68.43578828584245
 30
0.0
 10
15.60180392405094
 20
-68.43578828584245
 30
0.0
 10
15.59611951650028
 20
-68.42614201848374
 30
0.0
 10
15.58509521094748
 20
-68.41615124157651
 30
0.0
 10
15.56855875261828
 20
-68.40547144557225
 30
0.0
 10
15.56855875261828
 20
-68.40547144557225
 30
0.0
 10
15.31086561032159
 20
-68.17637259580313
 30
0.0
 10
15.31086561032159
 20
-68.17637259580313
 30
0.0
 10
15.23593478351741
 20
-68.11022676248633
 30
0.0
 10
15.14481200793255
 20
-68.04201387187838
 30
0.0
 10
15.03698051924423
 20
-67.97242294307634
 30
0.0
 10
14.82579616599841
 20
-67.8353081427634
 30
0.0
 10
14.68489176065169
 20
-67.7526258511174
 30
0.0
 10
14.61478406752686
 20
-67.72472057768688
 30
0.0
 10
14.61478406752686
 20
-67.72472057768688
 30
0.0
 10
14.32763535883129
 20
-67.60930987893101
 30
0.0
 10
14.32763535883129
 20
-67.60930987893101
 30
0.0
 10
14.31523301508439
 20
-67.60138615931493
 30
0.0
 10
14.30351969043454
 20
-67.59656302563559
 30
0.0
 10
14.29249538488174
 20
-67.59518498744148
 30
0.0
 10
14.29249538488174
 20
-67.59518498744148
 30
0.0
 10
14.24288600989414
 20
-67.56314559942867
 30
0.0
 10
14.24288600989414
 20
-67.56314559942867
 30
0.0
 10
13.9900160012768
 20
-67.39915905433077
 30
0.0
 10
13.92679849912247
 20
-67.21966957954925
 30
0.0
 10
14.05323350343114
 20
-67.02502168463263
 30
0.0
 10
14.10697699300103
 20
-66.94233939298664
 30
0.0
 10
14.17949625296554
 20
-66.89376354664462
 30
0.0
 10
14.27130804764745
 20
-66.87963865515509
 30
0.0
 10
14.36277533278083
 20
-66.86516925411705
 30
0.0
 10
14.44597438874962
 20
-66.8823947315433
 30
0.0
 10
14.52056070600528
 20
-66.93097057788532
 30
0.0
 10
14.54949950808138
 20
-66.94957409350566
 30
0.0
 10
14.58136664131994
 20
-66.9733452523539
 30
0.0
 10
14.6159898509467
 20
-67.00159503533294
 30
0.0
 10
14.65061306057346
 20
-67.02984481831199
 30
0.0
 10
14.68092990084366
 20
-67.05568303445136
 30
0.0
 10
14.70728488130582
 20
-67.078420664654
 30
0.0
 10
14.72106526324682
 20
-67.09323457524059
 30
0.0
 10
14.74053005273848
 20
-67.1087375049242
 30
0.0
 10
14.76550699500654
 20
-67.12492945370488
 30
0.0
 10
14.77790933875344
 20
-67.13319768286948
 30
0.0
 10
14.78686658701509
 20
-67.1418104215826
 30
0.0
 10
14.79255099456575
 20
-67.15145668894131
 30
0.0
 10
14.92501491597361
 20
-67.23723956652402
 30
0.0
 10
15.06936441680558
 20
-67.16041393720296
 30
0.0
 10
15.22525498751313
 20
-66.91994627233251
 30
0.0
 10
15.22525498751313
 20
-66.91994627233251
 30
0.0
 10
16.78157687297475
 20
-64.52112628595306
 30
0.0
 10
16.78157687297475
 20
-64.52112628595306
 30
0.0
 10
16.9319552909059
 20
-64.28892685024722
 30
0.0
 10
16.94694145626674
 20
-64.12494030514932
 30
0.0
 10
16.82670762383152
 20
-64.02916665065938
 30
0.0
 10
16.82395154744332
 20
-64.03330076524168
 30
0.0
 10
16.80328097453182
 20
-64.02434351698003
 30
0.0
 10
16.76469590509702
 20
-64.00229490587444
 30
0.0
 10
16.72611083566222
 20
-63.98024629476883
 30
0.0
 10
16.69493272152071
 20
-63.96439885553668
 30
0.0
 10
16.67167832699528
 20
-63.95509709772651
 30
0.0
 10
16.64411756311328
 20
-63.94303926352814
 30
0.0
 10
16.61500650626292
 20
-63.92856986249009
 30
0.0
 10
16.58486192076698
 20
-63.91203340416088
 30
0.0
 10
16.55437282572252
 20
-63.89549694583168
 30
0.0
 10
16.52887911913167
 20
-63.88033852569659
 30
0.0
 10
16.50820854622017
 20
-63.86655814375558
 30
0.0
 10
16.31752251111159
 20
-63.74305147060938
 30
0.0
 10
16.28134900851647
 20
-63.59026148583855
 30
0.0
 10
16.3996880384348
 20
-63.40784367989457
 30
0.0
 10
16.52595078796921
 20
-63.21302353020369
 30
0.0
 10
16.71353623714106
 20
-63.19631481710023
 30
0.0
 10
16.96209987640184
 20
-63.35754528580992
 30
0.0
 10
16.97036810556644
 20
-63.36288518381206
 30
0.0
 10
16.98380397795891
 20
-63.37167017729945
 30
0.0
 10
17.00257974835352
 20
-63.38390026627209
 30
0.0
 10
17.02118326397387
 20
-63.39595810047046
 30
0.0
 10
17.03737521275455
 20
-63.40939397286293
 30
0.0
 10
17.05132784946981
 20
-63.42438013822377
 30
0.0
 10
17.05132784946981
 20
-63.42438013822377
 30
0.0
 10
17.24029133683576
 20
-63.58216551144821
 30
0.0
 10
17.24029133683576
 20
-63.58216551144821
 30
0.0
 10
17.33175862196914
 20
-63.65916339554354
 30
0.0
 10
17.42081434026285
 20
-63.72582599318313
 30
0.0
 10
17.50780300126541
 20
-63.78232555914123
 30
0.0
 10
17.54518228728037
 20
-63.80644122753797
 30
0.0
 10
17.58893499994305
 20
-63.83193493412882
 30
0.0
 10
17.63940564880195
 20
-63.85897893368804
 30
0.0
 10
17.68953178811234
 20
-63.88550616892446
 30
0.0
 10
17.74861517568437
 20
-63.91478948054908
 30
0.0
 10
17.81613904719527
 20
-63.94717337811043
 30
0.0
 10
17.8876247785142
 20
-63.98162433296293
 30
0.0
 10
17.94980875202296
 20
-64.01331921142723
 30
0.0
 10
18.00217420339876
 20
-64.04122448485775
 30
0.0
 10
18.05453965477456
 20
-64.06912975828827
 30
0.0
 10
18.09743109356592
 20
-64.09393444578207
 30
0.0
 10
18.13050401022432
 20
-64.11563854733915
 30
0.0
 10
18.3377265036621
 20
-64.2499972712639
 30
0.0
 10
18.39577636258856
 20
-64.4556694717333
 30
0.0
 10
18.30482584177796
 20
-64.73196612965035
 30
0.0
 10
18.30482584177796
 20
-64.73196612965035
 30
0.0
 10
18.24350314214051
 20
-64.9217908908876
 30
0.0
 10
18.24350314214051
 20
-64.9217908908876
 30
0.0
  0
SPLINE
  5
59
330
47
100
AcDbEntity
  8
LAYER_7
 62
   250
100
AcDbSpline
210
0.0
220
0.0
230
1.0
 70
    11
 71
     3
 72
   179
 73
   175
 74
     0
 42
0.0000000001
 43
0.0000000001
 12
1.0
 22
0.0
 32
0.0
 13
1.0
 23
0.0
 33
0.0
 40
0.0
 40
0.0
 40
0.0
 40
0.0
 40
1.0
 40
1.0
 40
1.0
 40
2.0
 40
2.0
 40
2.0
 40
3.0
 40
3.0
 40
3.0
 40
4.0
 40
4.0
 40
4.0
 40
5.0
 40
5.0
 40
5.0
 40
6.0
 40
6.0
 40
6.0
 40
7.0
 40
7.0
 40
7.0
 40
8.0
 40
8.0
 40
8.0
 40
9.0
 40
9.0
 40
9.0
 40
10.0
 40
10.0
 40
10.0
 40
11.0
 40
11.0
 40
11.0
 40
12.0
 40
12.0
 40
12.0
 40
13.0
 40
13.0
 40
13.0
 40
14.0
 40
14.0
 40
14.0
 40
15.0
 40
15.0
 40
15.0
 40
16.0
 40
16.0
 40
16.0
 40
17.0
 40
17.0
 40
17.0
 40
18.0
 40
18.0
 40
18.0
 40
19.0
 40
19.0
 40
19.0
 40
20.0
 40
20.0
 40
20.0
 40
21.0
 40
21.0
 40
21.0
 40
22.0
 40
22.0
 40
22.0
 40
23.0
 40
23.0
 40
23.0
 40
24.0
 40
24.0
 40
24.0
 40
25.0
 40
25.0
 40
25.0
 40
26.0
 40
26.0
 40
26.0
 40
27.0
 40
27.0
 40
27.0
 40
28.0
 40
28.0
 40
28.0
 40
29.0
 40
29.0
 40
29.0
 40
30.0
 40
30.0
 40
30.0
 40
31.0
 40
31.0
 40
31.0
 40
32.0
 40
32.0
 40
32.0
 40
33.0
 40
33.0
 40
33.0
 40
34.0
 40
34.0
 40
34.0
 40
35.0
 40
35.0
 40
35.0
 40
36.0
 40
36.0
 40
36.0
 40
37.0
 40
37.0
 40
37.0
 40
38.0
 40
38.0
 40
38.0
 40
39.0
 40
39.0
 40
39.0
 40
40.0
 40
40.0
 40
40.0
 40
41.0
 40
41.0
 40
41.0
 40
42.0
 40
42.0
 40
42.0
 40
43.0
 40
43.0
 40
43.0
 40
44.0
 40
44.0
 40
44.0
 40
45.0
 40
45.0
 40
45.0
 40
46.0
 40
46.0
 40
46.0
 40
47.0
 40
47.0
 40
47.0
 40
48.0
 40
48.0
 40
48.0
 40
49.0
 40
49.0
 40
49.0
 40
50.0
 40
50.0
 40
50.0
 40
51.0
 40
51.0
 40
51.0
 40
52.0
 40
52.0
 40
52.0
 40
53.0
 40
53.0
 40
53.0
 40
54.0
 40
54.0
 40
54.0
 40
55.0
 40
55.0
 40
55.0
 40
56.0
 40
56.0
 40
56.0
 40
57.0
 40
57.0
 40
57.0
 40
58.0
 40
58.0
 40
58.0
 40
58.0
 10
22.73297932374384
 20
-67.54592012200241
 30
0.0
 10
22.7717366479529
 20
-67.26204425401782
 30
0.0
 10
22.71024169354119
 20
-67.10908201447273
 30
0.0
 10
22.54883897005724
 20
-67.08703340336713
 30
0.0
 10
22.53884819315001
 20
-67.08565536517304
 30
0.0
 10
22.52920192579131
 20
-67.08462183652746
 30
0.0
 10
22.51938340365835
 20
-67.08324379833336
 30
0.0
 10
22.50956488152539
 20
-67.08186576013927
 30
0.0
 10
22.49216714932487
 20
-67.08186576013927
 30
0.0
 10
22.46701795228255
 20
-67.08358830788188
 30
0.0
 10
22.45719943014959
 20
-67.08221026968778
 30
0.0
 10
22.44720865324237
 20
-67.08221026968778
 30
0.0
 10
22.43721787633514
 20
-67.08324379833336
 30
0.0
 10
22.42688258987939
 20
-67.08427732697893
 30
0.0
 10
22.41706406774643
 20
-67.08427732697893
 30
0.0
 10
22.40724554561347
 20
-67.08289928878483
 30
0.0
 10
22.40724554561347
 20
-67.08289928878483
 30
0.0
 10
22.42205945620004
 20
-67.08496634607599
 30
0.0
 10
22.42205945620004
 20
-67.08496634607599
 30
0.0
 10
22.33197020926076
 20
-67.08737791291566
 30
0.0
 10
22.25996771361904
 20
-67.08531085562451
 30
0.0
 10
22.20605196927488
 20
-67.07773164555697
 30
0.0
 10
21.97609184563445
 20
-67.04638127664118
 30
0.0
 10
21.8761840765622
 20
-66.92063529142956
 30
0.0
 10
21.90615640728388
 20
-66.7004936899221
 30
0.0
 10
21.93750677619965
 20
-66.47036131150742
 30
0.0
 10
22.09753146148951
 20
-66.37527667611452
 30
0.0
 10
22.38623046315344
 20
-66.41455076464636
 30
0.0
 10
22.41069064109872
 20
-66.41799586013161
 30
0.0
 10
22.43273925220432
 20
-66.42075193651982
 30
0.0
 10
22.45237629647024
 20
-66.42350801290802
 30
0.0
 10
22.4718410859619
 20
-66.42626408929621
 30
0.0
 10
22.4911336206793
 20
-66.43143173252409
 30
0.0
 10
22.51008164584817
 20
-66.43901094259164
 30
0.0
 10
22.51008164584817
 20
-66.43901094259164
 30
0.0
 10
22.50267469055489
 20
-66.43797741394606
 30
0.0
 10
22.50267469055489
 20
-66.43797741394606
 30
0.0
 10
22.50267469055489
 20
-66.43797741394606
 30
0.0
 10
22.84167208630347
 20
-66.52892793475667
 30
0.0
 10
22.84167208630347
 20
-66.52892793475667
 30
0.0
 10
22.95708278505934
 20
-66.55958928457538
 30
0.0
 10
23.09316405672671
 20
-66.58577201026328
 30
0.0
 10
23.24974364653131
 20
-66.60713160227183
 30
0.0
 10
23.35740288044537
 20
-66.62160100330988
 30
0.0
 10
23.4977905214693
 20
-66.63331432795972
 30
0.0
 10
23.67125107915163
 20
-66.64192706667285
 30
0.0
 10
23.67125107915163
 20
-66.64192706667285
 30
0.0
 10
23.66384412385835
 20
-66.64089353802729
 30
0.0
 10
23.66384412385835
 20
-66.64089353802729
 30
0.0
 10
23.85728623535512
 20
-66.64743921944925
 30
0.0
 10
24.02919650006909
 20
-66.65708548680796
 30
0.0
 10
24.17957491800025
 20
-66.67017684965191
 30
0.0
 10
24.32978108115714
 20
-66.68326821249585
 30
0.0
 10
24.45621608546581
 20
-66.69670408488832
 30
0.0
 10
24.55905218570052
 20
-66.71082897637785
 30
0.0
 10
24.88202988744269
 20
-66.75492619858905
 30
0.0
 10
25.14540743729004
 20
-66.81555987912945
 30
0.0
 10
25.34918483524257
 20
-66.8934190370961
 30
0.0
 10
25.49474011949437
 20
-66.95784232267026
 30
0.0
 10
25.62909884341911
 20
-67.04224716205889
 30
0.0
 10
25.75208875224254
 20
-67.14628904571343
 30
0.0
 10
25.87490640629169
 20
-67.25033092936798
 30
0.0
 10
25.97601995878377
 20
-67.36746417586647
 30
0.0
 10
26.05542940971878
 20
-67.49803329475743
 30
0.0
 10
26.13483886065379
 20
-67.62860241364841
 30
0.0
 10
26.19288871958025
 20
-67.76985132854365
 30
0.0
 10
26.22957898649816
 20
-67.92178003944316
 30
0.0
 10
26.26592474386755
 20
-68.07370875034269
 30
0.0
 10
26.27333169916083
 20
-68.23046059492155
 30
0.0
 10
26.25128308805524
 20
-68.39203557317977
 30
0.0
 10
26.1866875477068
 20
-68.8667697310472
 30
0.0
 10
25.97670897788083
 20
-69.20817869363546
 30
0.0
 10
25.62186414290009
 20
-69.41660697049308
 30
0.0
 10
25.26701930791936
 20
-69.6250352473507
 30
0.0
 10
24.78126084449913
 20
-69.68704696608519
 30
0.0
 10
24.16476100741367
 20
-69.60298663624509
 30
0.0
 10
24.16476100741367
 20
-69.60298663624509
 30
0.0
 10
23.65815971630768
 20
-69.53374021699157
 30
0.0
 10
23.65815971630768
 20
-69.53374021699157
 30
0.0
 10
23.58477918247186
 20
-69.52374944008434
 30
0.0
 10
23.521217170769
 20
-69.51513670137122
 30
0.0
 10
23.46730142642484
 20
-69.5079020008522
 30
0.0
 10
23.41338568208068
 20
-69.50032279078465
 30
0.0
 10
23.37462835787162
 20
-69.49274358071709
 30
0.0
 10
23.3508571990234
 20
-69.48447535155249
 30
0.0
 10
23.33070339043469
 20
-69.48654240884365
 30
0.0
 10
23.31847330146205
 20
-69.49377710936267
 30
0.0
 10
23.31433918687975
 20
-69.50549043401251
 30
0.0
 10
23.31020507229745
 20
-69.51754826821089
 30
0.0
 10
23.30486517429531
 20
-69.54786510848109
 30
0.0
 10
23.29814723809908
 20
-69.59678546437164
 30
0.0
 10
23.29814723809908
 20
-69.59678546437164
 30
0.0
 10
23.2791992129302
 20
-69.73631183152426
 30
0.0
 10
23.2791992129302
 20
-69.73631183152426
 30
0.0
 10
23.19772270470404
 20
-70.33334687911805
 30
0.0
 10
23.16447753327138
 20
-70.68784720455027
 30
0.0
 10
23.17911918908369
 20
-70.79946829827236
 30
0.0
 10
23.18790418257108
 20
-70.88042804217572
 30
0.0
 10
23.24871011788574
 20
-70.92865937896923
 30
0.0
 10
23.36119248547915
 20
-70.94381779910432
 30
0.0
 10
23.38565266342442
 20
-70.94726289458957
 30
0.0
 10
23.40787352930428
 20
-70.9489854423322
 30
0.0
 10
23.42785508311873
 20
-70.94932995188073
 30
0.0
 10
23.44766438215892
 20
-70.94932995188073
 30
0.0
 10
23.4702297575873
 20
-70.94864093278368
 30
0.0
 10
23.49537895462963
 20
-70.94726289458957
 30
0.0
 10
23.5198391325749
 20
-70.9503634805263
 30
0.0
 10
23.54567734871427
 20
-70.95277504736598
 30
0.0
 10
23.57306585782201
 20
-70.95415308556008
 30
0.0
 10
23.60010985738122
 20
-70.95518661420564
 30
0.0
 10
23.62112493984125
 20
-70.95690916194827
 30
0.0
 10
23.63593885042782
 20
-70.95897621923943
 30
0.0
 10
23.65058050624013
 20
-70.96069876698205
 30
0.0
 10
23.66281059521277
 20
-70.9613877860791
 30
0.0
 10
23.67314588166852
 20
-70.96035425743352
 30
0.0
 10
23.68313665857574
 20
-70.95897621923943
 30
0.0
 10
23.69312743548297
 20
-70.95932072878796
 30
0.0
 10
23.70294595761593
 20
-70.96035425743352
 30
0.0
 10
23.92791069280275
 20
-70.99136011680078
 30
0.0
 10
24.0259236593581
 20
-71.11435002562419
 30
0.0
 10
23.99664034773348
 20
-71.3296684934523
 30
0.0
 10
23.96460095972066
 20
-71.56427949599782
 30
0.0
 10
23.79923637642866
 20
-71.66143118868187
 30
0.0
 10
23.50071885263177
 20
-71.62077906195591
 30
0.0
 10
23.49158934959585
 20
-71.61457789008247
 30
0.0
 10
23.48211533701142
 20
-71.6107882850487
 30
0.0
 10
23.47246906965272
 20
-71.6094102468546
 30
0.0
 10
23.46247829274549
 20
-71.60803220866049
 30
0.0
 10
23.45145398719269
 20
-71.6066541704664
 30
0.0
 10
23.43939615299432
 20
-71.60493162272377
 30
0.0
 10
23.42716606402168
 20
-71.60320907498115
 30
0.0
 10
23.41648626801741
 20
-71.59941946994736
 30
0.0
 10
23.4073567649815
 20
-71.59321829807392
 30
0.0
 10
23.4073567649815
 20
-71.59321829807392
 30
0.0
 10
23.0619859425852
 20
-71.4936550385502
 30
0.0
 10
23.0619859425852
 20
-71.4936550385502
 30
0.0
 10
22.96604003332099
 20
-71.46574976511968
 30
0.0
 10
22.82513562797427
 20
-71.43887802033473
 30
0.0
 10
22.63927272654504
 20
-71.4137288232924
 30
0.0
 10
22.48252088196618
 20
-71.39236923128385
 30
0.0
 10
22.35195176307521
 20
-71.38203394482811
 30
0.0
 10
22.24722086032361
 20
-71.38272296392516
 30
0.0
 10
22.24722086032361
 20
-71.38272296392516
 30
0.0
 10
21.82812499454297
 20
-71.38513453076483
 30
0.0
 10
21.82812499454297
 20
-71.38513453076483
 30
0.0
 10
21.81348333873066
 20
-71.3834119830222
 30
0.0
 10
21.79849717336982
 20
-71.38375649257073
 30
0.0
 10
21.78316649846046
 20
-71.38651256895893
 30
0.0
 10
21.78316649846046
 20
-71.38651256895893
 30
0.0
 10
21.72442762043695
 20
-71.37858884934286
 30
0.0
 10
21.72442762043695
 20
-71.37858884934286
 30
0.0
 10
21.4307332303194
 20
-71.33862574171395
 30
0.0
 10
21.29964734710564
 20
-71.20357799869217
 30
0.0
 10
21.33099771602142
 20
-70.97344562027747
 30
0.0
 10
21.34426133363963
 20
-70.87560490849638
 30
0.0
 10
21.38818630107657
 20
-70.80084633646646
 30
0.0
 10
21.46260036355796
 20
-70.74848088509066
 30
0.0
 10
21.53701442603936
 20
-70.69645994326339
 30
0.0
 10
21.62073024633093
 20
-70.67647838944895
 30
0.0
 10
21.71374782443268
 20
-70.68922524274436
 30
0.0
 10
21.78213296981489
 20
-70.69852700055453
 30
0.0
 10
21.85206840816545
 20
-70.71575247798079
 30
0.0
 10
21.92355413948439
 20
-70.74021265592606
 30
0.0
 10
21.94301892897605
 20
-70.74296873231427
 30
0.0
 10
21.96248371846771
 20
-70.74675833734804
 30
0.0
 10
21.98177625318511
 20
-70.7519259805759
 30
0.0
 10
22.00089653312825
 20
-70.75709362380378
 30
0.0
 10
22.02277288945958
 20
-70.76122773838608
 30
0.0
 10
22.04740532217912
 20
-70.76467283387133
 30
0.0
 10
22.20880804566308
 20
-70.78672144497693
 30
0.0
 10
22.30888806950959
 20
-70.65580781653745
 30
0.0
 10
22.34764539371865
 20
-70.37193194855286
 30
0.0
 10
22.34764539371865
 20
-70.37193194855286
 30
0.0
 10
22.73297932374384
 20
-67.54592012200241
 30
0.0
 10
22.73297932374384
 20
-67.54592012200241
 30
0.0
  0
SPLINE
  5
5A
330
47
100
AcDbEntity
  8
LAYER_7
 62
   250
100
AcDbSpline
210
0.0
220
0.0
230
1.0
 70
    11
 71
     3
 72
    41
 73
    37
 74
     0
 42
0.0000000001
 43
0.0000000001
 12
1.0
 22
0.0
 32
0.0
 13
1.0
 23
0.0
 33
0.0
 40
0.0
 40
0.0
 40
0.0
 40
0.0
 40
1.0
 40
1.0
 40
1.0
 40
2.0
 40
2.0
 40
2.0
 40
3.0
 40
3.0
 40
3.0
 40
4.0
 40
4.0
 40
4.0
 40
5.0
 40
5.0
 40
5.0
 40
6.0
 40
6.0
 40
6.0
 40
7.0
 40
7.0
 40
7.0
 40
8.0
 40
8.0
 40
8.0
 40
9.0
 40
9.0
 40
9.0
 40
10.0
 40
10.0
 40
10.0
 40
11.0
 40
11.0
 40
11.0
 40
12.0
 40
12.0
 40
12.0
 40
12.0
 10
23.63387179313667
 20
-67.35471732257105
 30
0.0
 10
23.6107896533855
 20
-67.37642142412813
 30
0.0
 10
23.58615722066596
 20
-67.48528644146201
 30
0.0
 10
23.55945773065528
 20
-67.6809678650242
 30
0.0
 10
23.55945773065528
 20
-67.6809678650242
 30
0.0
 10
23.41734754188872
 20
-68.72345375886081
 30
0.0
 10
23.41734754188872
 20
-68.72345375886081
 30
0.0
 10
23.40856254840133
 20
-68.78718802533793
 30
0.0
 10
23.46196152842271
 20
-68.83404132393733
 30
0.0
 10
23.57737222717858
 20
-68.86470267375606
 30
0.0
 10
23.60682779357746
 20
-68.86883678833836
 30
0.0
 10
23.63111571674847
 20
-68.87331541246917
 30
0.0
 10
23.65040825146587
 20
-68.87848305569705
 30
0.0
 10
23.66952853140901
 20
-68.88365069892492
 30
0.0
 10
23.69140488774034
 20
-68.88778481350722
 30
0.0
 10
23.71586506568562
 20
-68.89122990899247
 30
0.0
 10
23.74032524363089
 20
-68.89467500447772
 30
0.0
 10
23.77115884822388
 20
-68.89743108086593
 30
0.0
 10
23.80819362469031
 20
-68.90018715725412
 30
0.0
 10
23.84522840115675
 20
-68.90259872409379
 30
0.0
 10
23.8955267952414
 20
-68.9081108768702
 30
0.0
 10
23.95908880694425
 20
-68.91672361558332
 30
0.0
 10
24.1113620273923
 20
-68.932915564364
 30
0.0
 10
24.25691731164411
 20
-68.94497339856237
 30
0.0
 10
24.39523789537689
 20
-68.95393064682402
 30
0.0
 10
24.53355847910967
 20
-68.96288789508567
 30
0.0
 10
24.66068250251539
 20
-68.96288789508567
 30
0.0
 10
24.77660996559404
 20
-68.9535861372755
 30
0.0
 10
25.14644096593561
 20
-68.9094889150643
 30
0.0
 10
25.35814208350422
 20
-68.69141437084798
 30
0.0
 10
25.41154106352559
 20
-68.3000515237236
 30
0.0
 10
25.48423257826436
 20
-67.76675074260693
 30
0.0
 10
25.17813584439991
 20
-67.45324705344919
 30
0.0
 10
24.49290635238372
 20
-67.35988496579893
 30
0.0
 10
23.97924261553297
 20
-67.28960501789983
 30
0.0
 10
23.69261067116018
 20
-67.2878824701572
 30
0.0
 10
23.63387179313667
 20
-67.35471732257105
 30
0.0
  0
SPLINE
  5
5B
330
47
100
AcDbEntity
  8
LAYER_7
 62
   250
100
AcDbSpline
210
0.0
220
0.0
230
1.0
 70
    11
 71
     3
 72
   146
 73
   142
 74
     0
 42
0.0000000001
 43
0.0000000001
 12
1.0
 22
0.0
 32
0.0
 13
1.0
 23
0.0
 33
0.0
 40
0.0
 40
0.0
 40
0.0
 40
0.0
 40
1.0
 40
1.0
 40
1.0
 40
2.0
 40
2.0
 40
2.0
 40
3.0
 40
3.0
 40
3.0
 40
4.0
 40
4.0
 40
4.0
 40
5.0
 40
5.0
 40
5.0
 40
6.0
 40
6.0
 40
6.0
 40
7.0
 40
7.0
 40
7.0
 40
8.0
 40
8.0
 40
8.0
 40
9.0
 40
9.0
 40
9.0
 40
10.0
 40
10.0
 40
10.0
 40
11.0
 40
11.0
 40
11.0
 40
12.0
 40
12.0
 40
12.0
 40
13.0
 40
13.0
 40
13.0
 40
14.0
 40
14.0
 40
14.0
 40
15.0
 40
15.0
 40
15.0
 40
16.0
 40
16.0
 40
16.0
 40
17.0
 40
17.0
 40
17.0
 40
18.0
 40
18.0
 40
18.0
 40
19.0
 40
19.0
 40
19.0
 40
20.0
 40
20.0
 40
20.0
 40
21.0
 40
21.0
 40
21.0
 40
22.0
 40
22.0
 40
22.0
 40
23.0
 40
23.0
 40
23.0
 40
24.0
 40
24.0
 40
24.0
 40
25.0
 40
25.0
 40
25.0
 40
26.0
 40
26.0
 40
26.0
 40
27.0
 40
27.0
 40
27.0
 40
28.0
 40
28.0
 40
28.0
 40
29.0
 40
29.0
 40
29.0
 40
30.0
 40
30.0
 40
30.0
 40
31.0
 40
31.0
 40
31.0
 40
32.0
 40
32.0
 40
32.0
 40
33.0
 40
33.0
 40
33.0
 40
34.0
 40
34.0
 40
34.0
 40
35.0
 40
35.0
 40
35.0
 40
36.0
 40
36.0
 40
36.0
 40
37.0
 40
37.0
 40
37.0
 40
38.0
 40
38.0
 40
38.0
 40
39.0
 40
39.0
 40
39.0
 40
40.0
 40
40.0
 40
40.0
 40
41.0
 40
41.0
 40
41.0
 40
42.0
 40
42.0
 40
42.0
 40
43.0
 40
43.0
 40
43.0
 40
44.0
 40
44.0
 40
44.0
 40
45.0
 40
45.0
 40
45.0
 40
46.0
 40
46.0
 40
46.0
 40
47.0
 40
47.0
 40
47.0
 40
47.0
 10
30.57281086475263
 20
-70.74296873231427
 30
0.0
 10
30.51596678924601
 20
-70.77431910123003
 30
0.0
 10
30.46360133787021
 20
-70.8098035847281
 30
0.0
 10
30.41554225585098
 20
-70.85011120190553
 30
0.0
 10
30.367655428606
 20
-70.89007430953443
 30
0.0
 10
30.32562526368596
 20
-70.93451604129415
 30
0.0
 10
30.28996852541362
 20
-70.98378090673323
 30
0.0
 10
30.39969481661883
 20
-70.93175996490595
 30
0.0
 10
30.52526854705619
 20
-70.90661076786363
 30
0.0
 10
30.66634520717717
 20
-70.90798880605773
 30
0.0
 10
30.89561631172054
 20
-70.9104003728974
 30
0.0
 10
31.12402614239261
 20
-71.00617402738735
 30
0.0
 10
31.35140244441909
 20
-71.19530976952757
 30
0.0
 10
31.57533365096034
 20
-71.37755532069728
 30
0.0
 10
31.74379882018905
 20
-71.46919486060493
 30
0.0
 10
31.85679795210525
 20
-71.47022838925051
 30
0.0
 10
31.92363280451909
 20
-71.47091740834755
 30
0.0
 10
31.97772080363752
 20
-71.44955781633901
 30
0.0
 10
32.01871743991199
 20
-71.40580510367633
 30
0.0
 10
32.05971407618646
 20
-71.36205239101366
 30
0.0
 10
32.08417425413174
 20
-71.30348576776441
 30
0.0
 10
32.09192571897355
 20
-71.22941621483155
 30
0.0
 10
32.06005858573499
 20
-71.24319659677253
 30
0.0
 10
32.02112900675166
 20
-71.24974227819452
 30
0.0
 10
31.97530923679784
 20
-71.24939776864599
 30
0.0
 10
31.770670564974
 20
-71.24733071135483
 30
0.0
 10
31.66938475770765
 20
-71.15086803776784
 30
0.0
 10
31.67127956022454
 20
-70.96035425743352
 30
0.0
 10
31.67231308887012
 20
-70.86182452655538
 30
0.0
 10
31.71020913920787
 20
-70.780864782652
 30
0.0
 10
31.78496771123779
 20
-70.71816404482047
 30
0.0
 10
31.85955402849345
 20
-70.65546330698892
 30
0.0
 10
31.95687797595176
 20
-70.62480195717019
 30
0.0
 10
32.07693955361271
 20
-70.62583548581577
 30
0.0
 10
32.2285237549637
 20
-70.62755803355839
 30
0.0
 10
32.3497911160445
 20
-70.67888995628861
 30
0.0
 10
32.44039712730657
 20
-70.78052027310349
 30
0.0
 10
32.5311753933429
 20
-70.88180608036983
 30
0.0
 10
32.57561712510262
 20
-71.0206434284254
 30
0.0
 10
32.57389457736
 20
-71.19703231727019
 30
0.0
 10
32.57165526529459
 20
-71.42647567658783
 30
0.0
 10
32.49724120281319
 20
-71.61974553331035
 30
0.0
 10
32.35099689946433
 20
-71.77684188743774
 30
0.0
 10
32.20130750063023
 20
-71.94117294208415
 30
0.0
 10
32.01699489216936
 20
-72.02247719553606
 30
0.0
 10
31.798231328856
 20
-72.02006562869637
 30
0.0
 10
31.59721000729167
 20
-72.01799857140523
 30
0.0
 10
31.36535508113436
 20
-71.91533472594477
 30
0.0
 10
31.10283880515832
 20
-71.711385073218
 30
0.0
 10
30.8682278026128
 20
-71.52569442656302
 30
0.0
 10
30.66462265943454
 20
-71.43198782936423
 30
0.0
 10
30.49185112084926
 20
-71.4302652816216
 30
0.0
 10
30.3965942306821
 20
-71.42923175297602
 30
0.0
 10
30.32390271594333
 20
-71.45162487363015
 30
0.0
 10
30.27412108618147
 20
-71.49675562448692
 30
0.0
 10
30.37971326280438
 20
-71.51914874514105
 30
0.0
 10
30.43207871418018
 20
-71.58839516439457
 30
0.0
 10
30.43087293076034
 20
-71.70483939179601
 30
0.0
 10
30.42880587346919
 20
-71.90568845858608
 30
0.0
 10
30.31477321290742
 20
-72.0052517181098
 30
0.0
 10
30.08911945862355
 20
-72.00284015127012
 30
0.0
 10
29.95148789398782
 20
-72.00146211307603
 30
0.0
 10
29.84003905503999
 20
-71.94668509486056
 30
0.0
 10
29.75477294178006
 20
-71.83816458707518
 30
0.0
 10
29.66933457374586
 20
-71.72964407928981
 30
0.0
 10
29.62764891837434
 20
-71.58219399252113
 30
0.0
 10
29.62954372089123
 20
-71.39512530767206
 30
0.0
 10
29.63591714753894
 20
-70.76363930522577
 30
0.0
 10
30.06896565003484
 20
-70.31991100672558
 30
0.0
 10
30.9288614831532
 20
-70.06394041217152
 30
0.0
 10
30.9288614831532
 20
-70.06394041217152
 30
0.0
 10
31.29524738800952
 20
-69.94611814657597
 30
0.0
 10
31.29524738800952
 20
-69.94611814657597
 30
0.0
 10
31.46870794569185
 20
-69.88789603287525
 30
0.0
 10
31.60530598168201
 20
-69.80796981761746
 30
0.0
 10
31.70504149597999
 20
-69.70668401035111
 30
0.0
 10
31.80494926505224
 20
-69.60539820308476
 30
0.0
 10
31.85541991391115
 20
-69.48757593748923
 30
0.0
 10
31.85679795210525
 20
-69.353561723113
 30
0.0
 10
31.85869275462213
 20
-69.16304794277869
 30
0.0
 10
31.7940972142737
 20
-69.01353079871885
 30
0.0
 10
31.66283907628568
 20
-68.90466578138495
 30
0.0
 10
31.53175319307192
 20
-68.79545625450253
 30
0.0
 10
31.35140244441909
 20
-68.73999021719001
 30
0.0
 10
31.12213133987572
 20
-68.73757865035033
 30
0.0
 10
30.9316175595414
 20
-68.73585610260771
 30
0.0
 10
30.77262640289712
 20
-68.767550981072
 30
0.0
 10
30.64498561516861
 20
-68.83335230484028
 30
0.0
 10
30.51734482744011
 20
-68.89915362860854
 30
0.0
 10
30.43173420463165
 20
-68.99182669716177
 30
0.0
 10
30.38815374674324
 20
-69.11137151049994
 30
0.0
 10
30.56058077578
 20
-69.14823403219211
 30
0.0
 10
30.64601914381419
 20
-69.24986434900698
 30
0.0
 10
30.64429659607157
 20
-69.4155734418475
 30
0.0
 10
30.64326306742599
 20
-69.52478296872992
 30
0.0
 10
30.60261094070004
 20
-69.61711152773461
 30
0.0
 10
30.52251247066798
 20
-69.69221460931306
 30
0.0
 10
30.44241400063592
 20
-69.7673176908915
 30
0.0
 10
30.34233397678942
 20
-69.80418021258367
 30
0.0
 10
30.22244465390272
 20
-69.80280217438958
 30
0.0
 10
30.08136799378174
 20
-69.80142413619548
 30
0.0
 10
29.96802435231702
 20
-69.75353730895051
 30
0.0
 10
29.88258598428283
 20
-69.65914169265466
 30
0.0
 10
29.79697536147437
 20
-69.56509058590734
 30
0.0
 10
29.75511745132858
 20
-69.4417561675354
 30
0.0
 10
29.75666774429694
 20
-69.2901719661844
 30
0.0
 10
29.75959607545941
 20
-68.99733884993817
 30
0.0
 10
29.89963920693481
 20
-68.74825844635461
 30
0.0
 10
30.17679713872316
 20
-68.54293075543372
 30
0.0
 10
30.43983017902199
 20
-68.35172795600235
 30
0.0
 10
30.76711425012072
 20
-68.25767684925503
 30
0.0
 10
31.15864935201937
 20
-68.26181096383733
 30
0.0
 10
31.53605956242849
 20
-68.26560056887111
 30
0.0
 10
31.84732393952081
 20
-68.3675753952345
 30
0.0
 10
32.09227022852208
 20
-68.56739093337899
 30
0.0
 10
32.34066161300859
 20
-68.77823077707627
 30
0.0
 10
32.46330701228348
 20
-69.04040254350379
 30
0.0
 10
32.46020642634676
 20
-69.35425074221006
 30
0.0
 10
32.45796711428135
 20
-69.57680391055719
 30
0.0
 10
32.39595539554685
 20
-69.76904023863413
 30
0.0
 10
32.27434352491753
 20
-69.93199325508645
 30
0.0
 10
32.15273165428821
 20
-70.09494627153876
 30
0.0
 10
31.98392197551097
 20
-70.21931421855629
 30
0.0
 10
31.7679144885858
 20
-70.30544160568753
 30
0.0
 10
31.7679144885858
 20
-70.30544160568753
 30
0.0
 10
31.77325438658794
 20
-70.30544160568753
 30
0.0
 10
31.77325438658794
 20
-70.30544160568753
 30
0.0
 10
31.74483234883463
 20
-70.31577689214328
 30
0.0
 10
31.67851426074357
 20
-70.33782550324888
 30
0.0
 10
31.5741278675405
 20
-70.37227645810138
 30
0.0
 10
31.46956921956317
 20
-70.40638290340536
 30
0.0
 10
31.32883706899071
 20
-70.4525471829077
 30
0.0
 10
31.15193141582313
 20
-70.51076929660842
 30
0.0
 10
31.15193141582313
 20
-70.51076929660842
 30
0.0
 10
31.15727131382527
 20
-70.51076929660842
 30
0.0
 10
31.15727131382527
 20
-70.51076929660842
 30
0.0
 10
31.0404825768753
 20
-70.54866534694617
 30
0.0
 10
30.9316175595414
 20
-70.58793943547802
 30
0.0
 10
30.83067626182358
 20
-70.62928058130102
 30
0.0
 10
30.7295627093315
 20
-70.67062172712401
 30
0.0
 10
30.64360757697452
 20
-70.70851777746176
 30
0.0
 10
30.57281086475263
 20
-70.74296873231427
 30
0.0
  0
SPLINE
  5
5C
330
47
100
AcDbEntity
  8
LAYER_7
 62
   250
100
AcDbSpline
210
0.0
220
0.0
230
1.0
 70
    11
 71
     3
 72
    32
 73
    28
 74
     0
 42
0.0000000001
 43
0.0000000001
 12
1.0
 22
0.0
 32
0.0
 13
1.0
 23
0.0
 33
0.0
 40
0.0
 40
0.0
 40
0.0
 40
0.0
 40
1.0
 40
1.0
 40
1.0
 40
2.0
 40
2.0
 40
2.0
 40
3.0
 40
3.0
 40
3.0
 40
4.0
 40
4.0
 40
4.0
 40
5.0
 40
5.0
 40
5.0
 40
6.0
 40
6.0
 40
6.0
 40
7.0
 40
7.0
 40
7.0
 40
8.0
 40
8.0
 40
8.0
 40
9.0
 40
9.0
 40
9.0
 40
9.0
 10
34.4361409419118
 20
-72.03935816341378
 30
0.0
 10
33.97036403230602
 20
-72.03660208702557
 30
0.0
 10
33.608112242032
 20
-71.86848142734539
 30
0.0
 10
33.34904106154121
 20
-71.53534069392173
 30
0.0
 10
33.09703232679519
 20
-71.20564505598331
 30
0.0
 10
32.97266437977767
 20
-70.75364852831854
 30
0.0
 10
32.97610947526292
 20
-70.1783175822818
 30
0.0
 10
32.97972682552243
 20
-69.59299585933786
 30
0.0
 10
33.11649711628685
 20
-69.13342012160554
 30
0.0
 10
33.38659260233044
 20
-68.79993487863335
 30
0.0
 10
33.66030543863354
 20
-68.4557698396569
 30
0.0
 10
34.0334092796861
 20
-68.2848931035885
 30
0.0
 10
34.50624863503663
 20
-68.28799368952522
 30
0.0
 10
34.96134574863814
 20
-68.29074976591343
 30
0.0
 10
35.3165350931674
 20
-68.45852591604509
 30
0.0
 10
35.57216117817293
 20
-68.79166664946875
 30
0.0
 10
35.70514186390358
 20
-68.9549641754696
 30
0.0
 10
35.80281032091041
 20
-69.14582246535244
 30
0.0
 10
35.86499429441917
 20
-69.36493053821432
 30
0.0
 10
35.92717826792793
 20
-69.58403861107621
 30
0.0
 10
35.95749510819813
 20
-69.83105195736863
 30
0.0
 10
35.9557725604555
 20
-70.1063150866401
 30
0.0
 10
35.95232746497025
 20
-70.70610621062208
 30
0.0
 10
35.81538491943157
 20
-71.17808429210132
 30
0.0
 10
35.54511717861372
 20
-71.52224933107777
 30
0.0
 10
35.27846678805538
 20
-71.86985946553948
 30
0.0
 10
34.90880804248808
 20
-72.04211423980198
 30
0.0
 10
34.4361409419118
 20
-72.03935816341378
 30
0.0
  0
SPLINE
  5
5D
330
47
100
AcDbEntity
  8
LAYER_7
 62
   250
100
AcDbSpline
210
0.0
220
0.0
230
1.0
 70
    11
 71
     3
 72
    35
 73
    31
 74
     0
 42
0.0000000001
 43
0.0000000001
 12
1.0
 22
0.0
 32
0.0
 13
1.0
 23
0.0
 33
0.0
 40
0.0
 40
0.0
 40
0.0
 40
0.0
 40
1.0
 40
1.0
 40
1.0
 40
2.0
 40
2.0
 40
2.0
 40
3.0
 40
3.0
 40
3.0
 40
4.0
 40
4.0
 40
4.0
 40
5.0
 40
5.0
 40
5.0
 40
6.0
 40
6.0
 40
6.0
 40
7.0
 40
7.0
 40
7.0
 40
8.0
 40
8.0
 40
8.0
 40
9.0
 40
9.0
 40
9.0
 40
10.0
 40
10.0
 40
10.0
 40
10.0
 10
34.49246825309564
 20
-68.80648056005533
 30
0.0
 10
33.92798935783745
 20
-68.80303546457007
 30
0.0
 10
33.63084987223465
 20
-69.24228513893944
 30
0.0
 10
33.60087754151298
 20
-70.12388507361487
 30
0.0
 10
33.60087754151298
 20
-70.12388507361487
 30
0.0
 10
33.60036077719019
 20
-70.20346677932413
 30
0.0
 10
33.60036077719019
 20
-70.20346677932413
 30
0.0
 10
33.59794921035051
 20
-70.62686901446133
 30
0.0
 10
33.66995170599223
 20
-70.95243053781745
 30
0.0
 10
33.81688502843814
 20
-71.18084036848951
 30
0.0
 10
33.96364609610978
 20
-71.4095947087101
 30
0.0
 10
34.17276339206445
 20
-71.52431638836893
 30
0.0
 10
34.4444091710764
 20
-71.52603893611155
 30
0.0
 10
34.58204073571213
 20
-71.52707246475713
 30
0.0
 10
34.7057196636326
 20
-71.4950330767443
 30
0.0
 10
34.81544595483781
 20
-71.4302652816216
 30
0.0
 10
34.92517224604301
 20
-71.36584199604744
 30
0.0
 10
35.01922335279033
 20
-71.27282441794569
 30
0.0
 10
35.09759927507977
 20
-71.15155705686489
 30
0.0
 10
35.17580294259494
 20
-71.03028969578409
 30
0.0
 10
35.23591985881255
 20
-70.88249509946688
 30
0.0
 10
35.27760551418407
 20
-70.70817326791324
 30
0.0
 10
35.31911891478133
 20
-70.5338514363596
 30
0.0
 10
35.34065076156414
 20
-70.33541393640921
 30
0.0
 10
35.34202879975825
 20
-70.11320527761059
 30
0.0
 10
35.34444036659792
 20
-69.68980304247339
 30
0.0
 10
35.2724378709562
 20
-69.36665308595695
 30
0.0
 10
35.12550454851029
 20
-69.14375540806128
 30
0.0
 10
34.97874348083865
 20
-68.9205132206171
 30
0.0
 10
34.7677313823671
 20
-68.80820310779795
 30
0.0
 10
34.49246825309564
 20
-68.80648056005533
 30
0.0
  0
SPLINE
  5
5E
330
47
100
AcDbEntity
  8
LAYER_7
 62
   250
100
AcDbSpline
210
0.0
220
0.0
230
1.0
 70
    11
 71
     3
 72
   146
 73
   142
 74
     0
 42
0.0000000001
 43
0.0000000001
 12
1.0
 22
0.0
 32
0.0
 13
1.0
 23
0.0
 33
0.0
 40
0.0
 40
0.0
 40
0.0
 40
0.0
 40
1.0
 40
1.0
 40
1.0
 40
2.0
 40
2.0
 40
2.0
 40
3.0
 40
3.0
 40
3.0
 40
4.0
 40
4.0
 40
4.0
 40
5.0
 40
5.0
 40
5.0
 40
6.0
 40
6.0
 40
6.0
 40
7.0
 40
7.0
 40
7.0
 40
8.0
 40
8.0
 40
8.0
 40
9.0
 40
9.0
 40
9.0
 40
10.0
 40
10.0
 40
10.0
 40
11.0
 40
11.0
 40
11.0
 40
12.0
 40
12.0
 40
12.0
 40
13.0
 40
13.0
 40
13.0
 40
14.0
 40
14.0
 40
14.0
 40
15.0
 40
15.0
 40
15.0
 40
16.0
 40
16.0
 40
16.0
 40
17.0
 40
17.0
 40
17.0
 40
18.0
 40
18.0
 40
18.0
 40
19.0
 40
19.0
 40
19.0
 40
20.0
 40
20.0
 40
20.0
 40
21.0
 40
21.0
 40
21.0
 40
22.0
 40
22.0
 40
22.0
 40
23.0
 40
23.0
 40
23.0
 40
24.0
 40
24.0
 40
24.0
 40
25.0
 40
25.0
 40
25.0
 40
26.0
 40
26.0
 40
26.0
 40
27.0
 40
27.0
 40
27.0
 40
28.0
 40
28.0
 40
28.0
 40
29.0
 40
29.0
 40
29.0
 40
30.0
 40
30.0
 40
30.0
 40
31.0
 40
31.0
 40
31.0
 40
32.0
 40
32.0
 40
32.0
 40
33.0
 40
33.0
 40
33.0
 40
34.0
 40
34.0
 40
34.0
 40
35.0
 40
35.0
 40
35.0
 40
36.0
 40
36.0
 40
36.0
 40
37.0
 40
37.0
 40
37.0
 40
38.0
 40
38.0
 40
38.0
 40
39.0
 40
39.0
 40
39.0
 40
40.0
 40
40.0
 40
40.0
 40
41.0
 40
41.0
 40
41.0
 40
42.0
 40
42.0
 40
42.0
 40
43.0
 40
43.0
 40
43.0
 40
44.0
 40
44.0
 40
44.0
 40
45.0
 40
45.0
 40
45.0
 40
46.0
 40
46.0
 40
46.0
 40
47.0
 40
47.0
 40
47.0
 40
47.0
 10
37.29591470421769
 20
-70.7891330118166
 30
0.0
 10
37.2394151382596
 20
-70.82082789028091
 30
0.0
 10
37.18722194165806
 20
-70.8566568833275
 30
0.0
 10
37.13950736918735
 20
-70.89730901005345
 30
0.0
 10
37.09162054194238
 20
-70.93761662723088
 30
0.0
 10
37.04993488657085
 20
-70.98240286853913
 30
0.0
 10
37.01462265784704
 20
-71.0316677339782
 30
0.0
 10
37.12417669427798
 20
-70.97895777305388
 30
0.0
 10
37.24940591516682
 20
-70.9531195569145
 30
0.0
 10
37.39065483006206
 20
-70.95346406646303
 30
0.0
 10
37.61992593460544
 20
-70.9544975951086
 30
0.0
 10
37.84885252960029
 20
-71.04889321140445
 30
0.0
 10
38.07743461504661
 20
-71.23665091535057
 30
0.0
 10
38.30257160500769
 20
-71.41717391877765
 30
0.0
 10
38.4715535385592
 20
-71.50777993003973
 30
0.0
 10
38.58455267047539
 20
-71.50846894913677
 30
0.0
 10
38.6515597776635
 20
-71.50846894913677
 30
0.0
 10
38.70547552200766
 20
-71.4867648475797
 30
0.0
 10
38.74612764873361
 20
-71.4426676253685
 30
0.0
 10
38.78677977545956
 20
-71.39891491270583
 30
0.0
 10
38.8108954438563
 20
-71.33965927035953
 30
0.0
 10
38.81830239914959
 20
-71.26558971742666
 30
0.0
 10
38.78643526591103
 20
-71.27971460891618
 30
0.0
 10
38.74750568692771
 20
-71.28660479988669
 30
0.0
 10
38.70168591697389
 20
-71.28660479988669
 30
0.0
 10
38.49704724515004
 20
-71.28557127124111
 30
0.0
 10
38.39524467356091
 20
-71.19014212629969
 30
0.0
 10
38.39593369265796
 20
-70.99962834596538
 30
0.0
 10
38.39627820220649
 20
-70.90075410553871
 30
0.0
 10
38.43348523344719
 20
-70.81979436163533
 30
0.0
 10
38.50789929592858
 20
-70.75674911425526
 30
0.0
 10
38.58214110363571
 20
-70.69335935732666
 30
0.0
 10
38.67929279631976
 20
-70.66200898841089
 30
0.0
 10
38.79918211920646
 20
-70.66235349795942
 30
0.0
 10
38.95093857533171
 20
-70.66304251705647
 30
0.0
 10
39.07237819118677
 20
-70.71368542068964
 30
0.0
 10
39.16384547632015
 20
-70.81462671840745
 30
0.0
 10
39.25514050667928
 20
-70.91556801612528
 30
0.0
 10
39.30061576708457
 20
-71.05406085463233
 30
0.0
 10
39.29992674798752
 20
-71.23044974347711
 30
0.0
 10
39.2990654741162
 20
-71.45989310279475
 30
0.0
 10
39.22602944982891
 20
-71.65350746906579
 30
0.0
 10
39.08081867512563
 20
-71.81163735183875
 30
0.0
 10
38.93199055016284
 20
-71.97700193513076
 30
0.0
 10
38.74836696079902
 20
-72.05933971722823
 30
0.0
 10
38.52960339748566
 20
-72.05830618858265
 30
0.0
 10
38.32858207592133
 20
-72.0576171694856
 30
0.0
 10
38.09603813066696
 20
-71.95633136221926
 30
0.0
 10
37.83214381649682
 20
-71.75410425723508
 30
0.0
 10
37.59649928530574
 20
-71.57013615832275
 30
0.0
 10
37.39220512303042
 20
-71.47746308976953
 30
0.0
 10
37.21943358444514
 20
-71.47677407067248
 30
0.0
 10
37.12417669427798
 20
-71.47642956112395
 30
0.0
 10
37.05165743431348
 20
-71.4991671913266
 30
0.0
 10
37.00222031410014
 20
-71.54498696128043
 30
0.0
 10
37.10798474549731
 20
-71.56634655328897
 30
0.0
 10
37.16052245164737
 20
-71.63524846299397
 30
0.0
 10
37.16017794209885
 20
-71.75169269039542
 30
0.0
 10
37.1594889230018
 20
-71.952886266734
 30
0.0
 10
37.04614528153708
 20
-72.05313854535477
 30
0.0
 10
36.82031927247895
 20
-72.0521050167092
 30
0.0
 10
36.68285996261748
 20
-72.05176050716068
 30
0.0
 10
36.57089435934686
 20
-71.99732799849373
 30
0.0
 10
36.48493922698988
 20
-71.88949650980541
 30
0.0
 10
36.39881183985863
 20
-71.78166502111709
 30
0.0
 10
36.3562649106158
 20
-71.63421493434839
 30
0.0
 10
36.35695392971284
 20
-71.44714624949933
 30
0.0
 10
36.35919324177826
 20
-70.81600475660156
 30
0.0
 10
36.78948566788596
 20
-70.36952038171317
 30
0.0
 10
37.6476589532617
 20
-70.10803763438271
 30
0.0
 10
37.6476589532617
 20
-70.10803763438271
 30
0.0
 10
38.0131835842467
 20
-69.98745929239897
 30
0.0
 10
38.0131835842467
 20
-69.98745929239897
 30
0.0
 10
38.18629963238051
 20
-69.92820365005268
 30
0.0
 10
38.32238090404788
 20
-69.84758841569783
 30
0.0
 10
38.42159965402308
 20
-69.74561358933444
 30
0.0
 10
38.52064614922401
 20
-69.64363876297104
 30
0.0
 10
38.57060003376013
 20
-69.52581649737549
 30
0.0
 10
38.57111679808292
 20
-69.39145777345075
 30
0.0
 10
38.57180581717996
 20
-69.20094399311644
 30
0.0
 10
38.50617674818596
 20
-69.05177135860512
 30
0.0
 10
38.37422959110089
 20
-68.94359536036828
 30
0.0
 10
38.24228243401582
 20
-68.83576387167994
 30
0.0
 10
38.06175943058873
 20
-68.78133136301301
 30
0.0
 10
37.83248832604535
 20
-68.78029783436743
 30
0.0
 10
37.64197454571104
 20
-68.77960881527038
 30
0.0
 10
37.48298338906675
 20
-68.81268173192878
 30
0.0
 10
37.35585936566104
 20
-68.8791720747941
 30
0.0
 10
37.22856308748106
 20
-68.94566241765942
 30
0.0
 10
37.14346922899539
 20
-69.0390245053097
 30
0.0
 10
37.10075004497828
 20
-69.15856931864786
 30
0.0
 10
37.27352158356356
 20
-69.19474282124298
 30
0.0
 10
37.35964897069481
 20
-69.29533960941228
 30
0.0
 10
37.35895995159776
 20
-69.46139321180132
 30
0.0
 10
37.35861544204923
 20
-69.57060273868375
 30
0.0
 10
37.31848007964608
 20
-69.66293129768843
 30
0.0
 10
37.23889837393681
 20
-69.73872339836393
 30
0.0
 10
37.15931666822753
 20
-69.8141709894909
 30
0.0
 10
37.05940889915529
 20
-69.85172253028013
 30
0.0
 10
36.93951957626859
 20
-69.8513780207316
 30
0.0
 10
36.79844291614761
 20
-69.85068900163455
 30
0.0
 10
36.68475476513437
 20
-69.80383570303516
 30
0.0
 10
36.59879963277739
 20
-69.70978459628783
 30
0.0
 10
36.51249999087187
 20
-69.61607799908904
 30
0.0
 10
36.46978080685478
 20
-69.49343259981414
 30
0.0
 10
36.47046982595183
 20
-69.34150388891463
 30
0.0
 10
36.4715033545974
 20
-69.04867077266839
 30
0.0
 10
36.60999619310445
 20
-68.79890134998777
 30
0.0
 10
36.88594834147296
 20
-68.59185111132426
 30
0.0
 10
37.14760334357769
 20
-68.39858125460175
 30
0.0
 10
37.47437065035363
 20
-68.3028076001118
 30
0.0
 10
37.86590575225227
 20
-68.3041856383059
 30
0.0
 10
38.24331596266139
 20
-68.3055636765
 30
0.0
 10
38.5550971040765
 20
-68.40547144557225
 30
0.0
 10
38.80142143127187
 20
-68.60390894552263
 30
0.0
 10
39.05119085395248
 20
-68.8130262414773
 30
0.0
 10
39.17538654619574
 20
-69.07450898880776
 30
0.0
 10
39.17435301755016
 20
-69.38835718751403
 30
0.0
 10
39.17349174367885
 20
-69.61056584631264
 30
0.0
 10
39.11268580836419
 20
-69.80349119348664
 30
0.0
 10
38.99227972115471
 20
-69.967133229036
 30
0.0
 10
38.87170137917096
 20
-70.13077526458537
 30
0.0
 10
38.70358071949077
 20
-70.25652124979699
 30
0.0
 10
38.48826225166266
 20
-70.34368216557381
 30
0.0
 10
38.48826225166266
 20
-70.34368216557381
 30
0.0
 10
38.49342989489053
 20
-70.34368216557381
 30
0.0
 10
38.49342989489053
 20
-70.34368216557381
 30
0.0
 10
38.46518011191149
 20
-70.35436196157808
 30
0.0
 10
38.39886202382043
 20
-70.37709959178073
 30
0.0
 10
38.29482014016588
 20
-70.41189505618175
 30
0.0
 10
38.19060600173707
 20
-70.44669052058278
 30
0.0
 10
38.05021836071314
 20
-70.49388832873069
 30
0.0
 10
37.87365721709408
 20
-70.55314397107699
 30
0.0
 10
37.87365721709408
 20
-70.55314397107699
 30
0.0
 10
37.87882486032196
 20
-70.55314397107699
 30
0.0
 10
37.87882486032196
 20
-70.55314397107699
 30
0.0
 10
37.76238063292052
 20
-70.5917290405118
 30
0.0
 10
37.65368787036088
 20
-70.63169214814069
 30
0.0
 10
37.55309108219159
 20
-70.67372231306074
 30
0.0
 10
37.45232203924803
 20
-70.71575247798079
 30
0.0
 10
37.36653916166531
 20
-70.75433754741559
 30
0.0
 10
37.29591470421769
 20
-70.7891330118166
 30
0.0
  0
SPLINE
  5
5F
330
47
100
AcDbEntity
  8
LAYER_7
 62
   250
100
AcDbSpline
210
0.0
220
0.0
230
1.0
 70
    11
 71
     3
 72
    32
 73
    28
 74
     0
 42
0.0000000001
 43
0.0000000001
 12
1.0
 22
0.0
 32
0.0
 13
1.0
 23
0.0
 33
0.0
 40
0.0
 40
0.0
 40
0.0
 40
0.0
 40
1.0
 40
1.0
 40
1.0
 40
2.0
 40
2.0
 40
2.0
 40
3.0
 40
3.0
 40
3.0
 40
4.0
 40
4.0
 40
4.0
 40
5.0
 40
5.0
 40
5.0
 40
6.0
 40
6.0
 40
6.0
 40
7.0
 40
7.0
 40
7.0
 40
8.0
 40
8.0
 40
8.0
 40
9.0
 40
9.0
 40
9.0
 40
9.0
 10
41.17474771106048
 20
-72.0645073604561
 30
0.0
 10
40.7089708014547
 20
-72.06381834135905
 30
0.0
 10
40.34585773730937
 20
-71.89742022942148
 30
0.0
 10
40.08558077339875
 20
-71.5653130246434
 30
0.0
 10
39.83219400045862
 20
-71.23665091535057
 30
0.0
 10
39.70593125092422
 20
-70.7849988972343
 30
0.0
 10
39.70713703434405
 20
-70.20966795119759
 30
0.0
 10
39.70817056298963
 20
-69.62434622825364
 30
0.0
 10
39.84304605123716
 20
-69.16408147142425
 30
0.0
 10
40.11176349908664
 20
-68.8295626998065
 30
0.0
 10
40.38409829719564
 20
-68.48436413218447
 30
0.0
 10
40.75651311915115
 20
-68.31210935792197
 30
0.0
 10
41.22935247450169
 20
-68.31279837701902
 30
0.0
 10
41.68444958810319
 20
-68.3138319056646
 30
0.0
 10
42.0403279517295
 20
-68.48023001760217
 30
0.0
 10
42.29733207492914
 20
-68.81233722238025
 30
0.0
 10
42.43100177975683
 20
-68.97494572928404
 30
0.0
 10
42.52953151063498
 20
-69.16545950961836
 30
0.0
 10
42.59257675801505
 20
-69.38456758248024
 30
0.0
 10
42.65562200539512
 20
-69.60333114579362
 30
0.0
 10
42.6869723743109
 20
-69.85034449208602
 30
0.0
 10
42.68645560998811
 20
-70.12560762135749
 30
0.0
 10
42.68524982656827
 20
-70.72539874533949
 30
0.0
 10
42.55037433832074
 20
-71.19772133636724
 30
0.0
 10
42.28165689047125
 20
-71.54291990398927
 30
0.0
 10
42.01638453810702
 20
-71.89156356709655
 30
0.0
 10
41.64741481163676
 20
-72.06554088910167
 30
0.0
 10
41.17474771106048
 20
-72.0645073604561
 30
0.0
  0
SPLINE
  5
60
330
47
100
AcDbEntity
  8
LAYER_7
 62
   250
100
AcDbSpline
210
0.0
220
0.0
230
1.0
 70
    11
 71
     3
 72
    35
 73
    31
 74
     0
 42
0.0000000001
 43
0.0000000001
 12
1.0
 22
0.0
 32
0.0
 13
1.0
 23
0.0
 33
0.0
 40
0.0
 40
0.0
 40
0.0
 40
0.0
 40
1.0
 40
1.0
 40
1.0
 40
2.0
 40
2.0
 40
2.0
 40
3.0
 40
3.0
 40
3.0
 40
4.0
 40
4.0
 40
4.0
 40
5.0
 40
5.0
 40
5.0
 40
6.0
 40
6.0
 40
6.0
 40
7.0
 40
7.0
 40
7.0
 40
8.0
 40
8.0
 40
8.0
 40
9.0
 40
9.0
 40
9.0
 40
10.0
 40
10.0
 40
10.0
 40
10.0
 10
41.2178114046261
 20
-68.83162975709764
 30
0.0
 10
40.65333250936792
 20
-68.83059622845208
 30
0.0
 10
40.35791557150775
 20
-69.27087943146701
 30
0.0
 10
40.33156059104559
 20
-70.15282387569097
 30
0.0
 10
40.33156059104559
 20
-70.15282387569097
 30
0.0
 10
40.33138833627132
 20
-70.2320610718517
 30
0.0
 10
40.33138833627132
 20
-70.2320610718517
 30
0.0
 10
40.33069931717427
 20
-70.65546330698892
 30
0.0
 10
40.4040798510101
 20
-70.98102483034502
 30
0.0
 10
40.55187444732731
 20
-71.20874564192003
 30
0.0
 10
40.69966904364453
 20
-71.43681096304358
 30
0.0
 10
40.90930310392198
 20
-71.55084362360535
 30
0.0
 10
41.18094888293393
 20
-71.5515326427024
 30
0.0
 10
41.31858044756967
 20
-71.5515326427024
 30
0.0
 10
41.44208712071587
 20
-71.51914874514105
 30
0.0
 10
41.55146890237255
 20
-71.45403644046982
 30
0.0
 10
41.6610229388035
 20
-71.38926864534713
 30
0.0
 10
41.75455728122803
 20
-71.29590655769687
 30
0.0
 10
41.83258869396894
 20
-71.17429468706754
 30
0.0
 10
41.91027559716132
 20
-71.05268281643822
 30
0.0
 10
41.96970349428188
 20
-70.90454371057248
 30
0.0
 10
42.0105278757821
 20
-70.73022187901884
 30
0.0
 10
42.05152451205657
 20
-70.55555553791667
 30
0.0
 10
42.07219508496807
 20
-70.35711803796627
 30
0.0
 10
42.07253959451659
 20
-70.13490937916767
 30
0.0
 10
42.0734008683879
 20
-69.71150714403046
 30
0.0
 10
41.99984807977782
 20
-69.38870169706254
 30
0.0
 10
41.85222573823486
 20
-69.16614852871541
 30
0.0
 10
41.70443114191765
 20
-68.94359536036828
 30
0.0
 10
41.49290227912331
 20
-68.83197426664617
 30
0.0
 10
41.2178114046261
 20
-68.83162975709764
 30
0.0
  0
ENDBLK
  5
4A
330
47
100
AcDbEntity
  8
0
100
AcDbBlockEnd
  0
ENDSEC
  0
SECTION
  2
ENTITIES
  0
INSERT
  5
48
330
1F
100
AcDbEntity
  8
LAYER_7
100
AcDbBlockReference
  2
BLOCK_2
 10
0.0
 20
0.0
 30
0.0
  0
ENDSEC
  0
SECTION
  2
OBJECTS
  0
DICTIONARY
  5
C
330
0
100
AcDbDictionary
  3
ACAD_GROUP
350
D
  3
ACAD_LAYOUT
350
1A
  3
ACAD_MATERIAL
350
3B
  3
ACAD_MLEADERSTYLE
350
63
  3
ACAD_MLINESTYLE
350
17
  3
ACAD_PLOTSETTINGS
350
19
  3
ACAD_VISUALSTYLE
350
2A
  3
ACDBVARIABLEDICTIONARY
350
61
1001
ACAD
1000
TREAT_AS_HARD
1070
     0
  0
DICTIONARY
  5
D
102
{ACAD_REACTORS
330
C
102
}
330
C
100
AcDbDictionary
1001
ACAD
1000
TREAT_AS_HARD
1070
     0
  0
DICTIONARY
  5
1A
102
{ACAD_REACTORS
330
C
102
}
330
C
100
AcDbDictionary
1001
ACAD
1000
TREAT_AS_HARD
1070
     0
  0
DICTIONARY
  5
3B
102
{ACAD_REACTORS
330
C
102
}
330
C
100
AcDbDictionary
  3
BYBLOCK
350
3D
  3
BYLAYER
350
3C
  3
GLOBAL
350
3E
1001
ACAD
1000
TREAT_AS_HARD
1070
     0
  0
DICTIONARY
  5
63
102
{ACAD_REACTORS
330
C
102
}
330
C
100
AcDbDictionary
1001
ACAD
1000
TREAT_AS_HARD
1070
     0
  0
DICTIONARY
  5
17
102
{ACAD_REACTORS
330
C
102
}
330
C
100
AcDbDictionary
  3
STANDARD
350
18
1001
ACAD
1000
TREAT_AS_HARD
1070
     0
  0
DICTIONARY
  5
19
102
{ACAD_REACTORS
330
C
102
}
330
C
100
AcDbDictionary
1001
ACAD
1000
TREAT_AS_HARD
1070
     0
  0
DICTIONARY
  5
2A
102
{ACAD_REACTORS
330
C
102
}
330
C
100
AcDbDictionary
  3
2DWIREFRAME
350
2F
  3
3DWIREFRAME
350
30
  3
3D_HIDDEN
350
31
  3
BASIC
350
32
  3
BRIGHTEN
350
36
  3
COLORCHANGE
350
3A
  3
CONCEPTUAL
350
34
  3
DIM
350
35
  3
FACEPATTERN
350
39
  3
FLAT
350
2B
  3
FLATWITHEDGES
350
2C
  3
GOURAUD
350
2D
  3
GOURAUDWITHEDGES
350
2E
  3
LINEPATTERN
350
38
  3
REALISTIC
350
33
  3
THICKEN
350
37
1001
ACAD
1000
TREAT_AS_HARD
1070
     0
  0
DICTIONARY
  5
61
102
{ACAD_REACTORS
330
C
102
}
330
C
100
AcDbDictionary
  3
DIMASSOC
350
64
  3
HIDETEXT
350
65
1001
ACAD
1000
TREAT_AS_HARD
1070
     0
  0
MATERIAL
  5
3D
102
{ACAD_REACTORS
330
3B
102
}
102
{ACAD_XDICTIONARY
360
68
102
}
330
3B
100
AcDbMaterial
  1
ByBlock
  0
MATERIAL
  5
3C
102
{ACAD_REACTORS
330
3B
102
}
102
{ACAD_XDICTIONARY
360
66
102
}
330
3B
100
AcDbMaterial
  1
ByLayer
  0
MATERIAL
  5
3E
102
{ACAD_REACTORS
330
3B
102
}
102
{ACAD_XDICTIONARY
360
6A
102
}
330
3B
100
AcDbMaterial
  1
Global
  0
MLINESTYLE
  5
18
102
{ACAD_REACTORS
330
17
102
}
330
17
100
AcDbMlineStyle
  2
Standard
 70
     0
  3

 62
   256
 51
90.0
 52
90.0
 71
     2
 49
0.5
 62
   256
  6
BYLAYER
 49
-0.5
 62
   256
  6
BYLAYER
  0
ACAD_PROXY_OBJECT
  5
2F
102
{ACAD_REACTORS
330
2A
102
}
330
2A
100
AcDbZombieObject
 90
      499
 91
      501
 93
      436
310
42CC9915DA5C99599C985B595049028333333333333E3BF0000000000000FB0107901411070040501600405405064090741402480A0340
1001
ACAD
1000
AcDbSavedByObjectVersion
1070
     0
  0
ACAD_PROXY_OBJECT
  5
30
102
{ACAD_REACTORS
330
2A
102
}
330
2A
100
AcDbZombieObject
 90
      499
 91
      501
 93
      436
310
42CCD915DA5C99599C985B595059028333333333333E3BF0000000000000FB0107901411070040501600405405064090741402480A0340
1001
ACAD
1000
AcDbSavedByObjectVersion
1070
     0
  0
ACAD_PROXY_OBJECT
  5
31
102
{ACAD_REACTORS
330
2A
102
}
330
2A
100
AcDbZombieObject
 90
      499
 91
      501
 93
      500
310
424CD108121A5919195B90640502408333333333333E3BF0000000000000FB01079024090700405020000000000001110200405405064090740C02480A0340
1001
ACAD
1000
AcDbSavedByObjectVersion
1070
     0
  0
ACAD_PROXY_OBJECT
  5
32
102
{ACAD_REACTORS
330
2A
102
}
330
2A
100
AcDbZombieObject
 90
      499
 91
      501
 93
      388
310
4150985CDA58D07406404333333333333E3BF0000000000000FB0107A41107004050150841D405064090741402480A0350
1001
ACAD
1000
AcDbSavedByObjectVersion
1070
     0
  0
ACAD_PROXY_OBJECT
  5
36
102
{ACAD_REACTORS
330
2A
102
}
330
2A
100
AcDbZombieObject
 90
      499
 91
      501
 93
      428
310
42109C9A59DA1D195B90C409028333333333333E3BF0000000000000FB010790141107004050150841D405064090741402480A029950
1001
ACAD
1000
AcDbSavedByObjectVersion
1070
     0
  0
ACAD_PROXY_OBJECT
  5
3A
102
{ACAD_REACTORS
330
2A
102
}
330
2A
100
AcDbZombieObject
 90
      499
 91
      501
 93
      452
310
42D0DBDB1BDC90DA185B99D95104090240C333333333333E3BF0000000000000FB0108901411070040501508421405064090741402480A0350
1001
ACAD
1000
AcDbSavedByObjectVersion
1070
     0
  0
ACAD_PROXY_OBJECT
  5
34
102
{ACAD_REACTORS
330
2A
102
}
330
2A
100
AcDbZombieObject
 90
      499
 91
      501
 93
      500
310
4290DBDB98D95C1D1D585B10940D028333333333333E3BF0000000000000FB0107902409070040501000000000000111010841D405064090740C02480A0340
1001
ACAD
1000
AcDbSavedByObjectVersion
1070
     0
  0
ACAD_PROXY_OBJECT
  5
35
102
{ACAD_REACTORS
330
2A
102
}
330
2A
100
AcDbZombieObject
 90
      499
 91
      501
 93
      412
310
40D11A5B50B409028333333333333E3BF0000000000000FB010790141107004050150841D405064090741402480A02677FFFFFD0
1001
ACAD
1000
AcDbSavedByObjectVersion
1070
     0
  0
ACAD_PROXY_OBJECT
  5
39
102
{ACAD_REACTORS
330
2A
102
}
330
2A
100
AcDbZombieObject
 90
      499
 91
      501
 93
      444
310
42D19858D95C185D1D195C9B90F409028333333333333E3BF0000000000000FB010790141107004050150841D405064090741402480A0350
1001
ACAD
1000
AcDbSavedByObjectVersion
1070
     0
  0
ACAD_PROXY_OBJECT
  5
2B
102
{ACAD_REACTORS
330
2A
102
}
330
2A
100
AcDbZombieObject
 90
      499
 91
      501
 93
      388
310
41119B185D240901404333333333333E3BF0000000000000F9010740A41107004050150841D405064090741402480A1B50
1001
ACAD
1000
AcDbSavedByObjectVersion
1070
     0
  0
ACAD_PROXY_OBJECT
  5
2C
102
{ACAD_REACTORS
330
2A
102
}
330
2A
100
AcDbZombieObject
 90
      499
 91
      501
 93
      476
310
43519B185D15DA5D1A115919D95CD0140901404333333333333E3BF0000000000000F9010740901411070040501600405405064090741402480A1B50
1001
ACAD
1000
AcDbSavedByObjectVersion
1070
     0
  0
ACAD_PROXY_OBJECT
  5
2D
102
{ACAD_REACTORS
330
2A
102
}
330
2A
100
AcDbZombieObject
 90
      499
 91
      501
 93
      412
310
41D1DBDD5C985D5910240902404333333333333E3BF0000000000000F9010740A411070040501641D405064090741402480A1B50
1001
ACAD
1000
AcDbSavedByObjectVersion
1070
     0
  0
ACAD_PROXY_OBJECT
  5
2E
102
{ACAD_REACTORS
330
2A
102
}
330
2A
100
AcDbZombieObject
 90
      499
 91
      501
 93
      500
310
4411DBDD5C985D5915DA5D1A115919D95CD0340902404333333333333E3BF0000000000000F9010740901411070040501600405405064090741402480A1B50
1001
ACAD
1000
AcDbSavedByObjectVersion
1070
     0
  0
ACAD_PROXY_OBJECT
  5
38
102
{ACAD_REACTORS
330
2A
102
}
330
2A
100
AcDbZombieObject
 90
      499
 91
      501
 93
      444
310
42D31A5B995C185D1D195C9B90E409028333333333333E3BF0000000000000FB010790141107004050750841D405064090741402483A0350
1001
ACAD
1000
AcDbSavedByObjectVersion
1070
     0
  0
ACAD_PROXY_OBJECT
  5
33
102
{ACAD_REACTORS
330
2A
102
}
330
2A
100
AcDbZombieObject
 90
      499
 91
      501
 93
      420
310
425499585B1A5CDD1A58D08409028333333333333E3BF0000000000000FB01079019070040501508421405064090741402480A1B40
1001
ACAD
1000
AcDbSavedByObjectVersion
1070
     0
  0
ACAD_PROXY_OBJECT
  5
37
102
{ACAD_REACTORS
330
2A
102
}
330
2A
100
AcDbZombieObject
 90
      499
 91
      501
 93
      412
310
41D51A1A58DAD95B90D409028333333333333E3BF0000000000000FB010790141107004050150C41D405064090741402480A0350
1001
ACAD
1000
AcDbSavedByObjectVersion
1070
     0
  0
DICTIONARYVAR
  5
64
102
{ACAD_REACTORS
330
61
102
}
330
61
100
DictionaryVariables
280
     0
  1
2
  0
DICTIONARYVAR
  5
65
102
{ACAD_REACTORS
330
61
102
}
330
61
100
DictionaryVariables
280
     0
  1
1
  0
DICTIONARY
  5
68
330
3D
100
AcDbDictionary
  3
ACAD_XREC_ROUNDTRIP
360
69
1001
ACAD
1000
TREAT_AS_HARD
1070
     1
  0
DICTIONARY
  5
66
330
3C
100
AcDbDictionary
  3
ACAD_XREC_ROUNDTRIP
360
67
1001
ACAD
1000
TREAT_AS_HARD
1070
     1
  0
DICTIONARY
  5
6A
330
3E
100
AcDbDictionary
  3
ACAD_XREC_ROUNDTRIP
360
6B
1001
ACAD
1000
TREAT_AS_HARD
1070
     1
  0
XRECORD
  5
69
102
{ACAD_REACTORS
330
68
102
}
330
68
100
AcDbXrecord
102
MATERIAL
148
0.0
149
0.0
149
0.0
 93
        0
 94
      127
282
     0
 72
     1
 77
     1
171
     1
175
     1
179
     1
273
     0
  0
XRECORD
  5
67
102
{ACAD_REACTORS
330
66
102
}
330
66
100
AcDbXrecord
102
MATERIAL
148
0.0
149
0.0
149
0.0
 93
        0
 94
      127
282
     0
 72
     1
 77
     1
171
     1
175
     1
179
     1
273
     0
  0
XRECORD
  5
6B
102
{ACAD_REACTORS
330
6A
102
}
330
6A
100
AcDbXrecord
102
MATERIAL
148
0.0
149
0.0
149
0.0
 93
        0
 94
      127
282
     0
 72
     1
 77
     1
171
     1
175
     1
179
     1
273
     0
  0
ENDSEC
  0
EOF
