  0
SECTION
  2
HEADER
  9
$ACADVER
  1
AC1012
  9
$DWGCODEPAGE
  3
undefined
  9
$INSBASE
 10
0.0
 20
0.0
 30
0.0
  9
$EXTMIN
 10
1.000000000000000E+20
 20
1.000000000000000E+20
 30
1.000000000000000E+20
  9
$EXTMAX
 10
-1.000000000000000E+20
 20
-1.000000000000000E+20
 30
-1.000000000000000E+20
  9
$LIMMIN
 10
0.0
 20
0.0
  9
$LIMMAX
 10
12.0
 20
9.0
  9
$ORTHOMODE
 70
     0
  9
$REGENMODE
 70
     1
  9
$FILLMODE
 70
     1
  9
$QTEXTMODE
 70
     0
  9
$MIRRTEXT
 70
     1
  9
$DRAGMODE
 70
     2
  9
$LTSCALE
 40
1.0
  9
$OSMODE
 70
    37
  9
$ATTMODE
 70
     1
  9
$TEXTSIZE
 40
0.2
  9
$TRACEWID
 40
0.05
  9
$TEXTSTYLE
  7
STANDARD
  9
$CLAYER
  8
0
  9
$CELTYPE
  6
BYLAYER
  9
$CECOLOR
 62
   256
  9
$CELTSCALE
 40
1.0
  9
$DELOBJ
 70
     1
  9
$DISPSILH
 70
     0
  9
$DIMSCALE
 40
1.0
  9
$DIMASZ
 40
0.18
  9
$DIMEXO
 40
0.0625
  9
$DIMDLI
 40
0.38
  9
$DIMRND
 40
0.0
  9
$DIMDLE
 40
0.0
  9
$DIMEXE
 40
0.18
  9
$DIMTP
 40
0.0
  9
$DIMTM
 40
0.0
  9
$DIMTXT
 40
0.18
  9
$DIMCEN
 40
0.09
  9
$DIMTSZ
 40
0.0
  9
$DIMTOL
 70
     0
  9
$DIMLIM
 70
     0
  9
$DIMTIH
 70
     1
  9
$DIMTOH
 70
     1
  9
$DIMSE1
 70
     0
  9
$DIMSE2
 70
     0
  9
$DIMTAD
 70
     0
  9
$DIMZIN
 70
     0
  9
$DIMBLK
  1

  9
$DIMASO
 70
     1
  9
$DIMSHO
 70
     1
  9
$DIMPOST
  1

  9
$DIMAPOST
  1

  9
$DIMALT
 70
     0
  9
$DIMALTD
 70
     2
  9
$DIMALTF
 40
25.4
  9
$DIMLFAC
 40
1.0
  9
$DIMTOFL
 70
     0
  9
$DIMTVP
 40
0.0
  9
$DIMTIX
 70
     0
  9
$DIMSOXD
 70
     0
  9
$DIMSAH
 70
     0
  9
$DIMBLK1
  1

  9
$DIMBLK2
  1

  9
$DIMSTYLE
  2
STANDARD
  9
$DIMCLRD
 70
     0
  9
$DIMCLRE
 70
     0
  9
$DIMCLRT
 70
     0
  9
$DIMTFAC
 40
1.0
  9
$DIMGAP
 40
0.09
  9
$DIMJUST
 70
     0
  9
$DIMSD1
 70
     0
  9
$DIMSD2
 70
     0
  9
$DIMTOLJ
 70
     1
  9
$DIMTZIN
 70
     0
  9
$DIMALTZ
 70
     0
  9
$DIMALTTZ
 70
     0
  9
$DIMFIT
 70
     3
  9
$DIMUPT
 70
     0
  9
$DIMUNIT
 70
     2
  9
$DIMDEC
 70
     4
  9
$DIMTDEC
 70
     4
  9
$DIMALTU
 70
     2
  9
$DIMALTTD
 70
     2
  9
$DIMTXSTY
  7
STANDARD
  9
$DIMAUNIT
 70
     0
  9
$LUNITS
 70
     2
  9
$LUPREC
 70
     4
  9
$SKETCHINC
 40
0.1
  9
$FILLETRAD
 40
0.5
  9
$AUNITS
 70
     0
  9
$AUPREC
 70
     0
  9
$MENU
  1
.
  9
$ELEVATION
 40
0.0
  9
$PELEVATION
 40
0.0
  9
$THICKNESS
 40
0.0
  9
$LIMCHECK
 70
     0
  9
$CHAMFERA
 40
0.5
  9
$CHAMFERB
 40
0.5
  9
$CHAMFERC
 40
1.0
  9
$CHAMFERD
 40
0.0
  9
$SKPOLY
 70
     0
  9
$TDCREATE
 40
2458817.042349525
  9
$TDUPDATE
 40
2458817.042349525
  9
$TDINDWG
 40
0.0000000116
  9
$TDUSRTIMER
 40
0.0000000116
  9
$USRTIMER
 70
     1
  9
$ANGBASE
 50
0.0
  9
$ANGDIR
 70
     0
  9
$PDMODE
 70
     0
  9
$PDSIZE
 40
0.0
  9
$PLINEWID
 40
0.0
  9
$COORDS
 70
     1
  9
$SPLFRAME
 70
     0
  9
$SPLINETYPE
 70
     6
  9
$SPLINESEGS
 70
     8
  9
$ATTDIA
 70
     0
  9
$ATTREQ
 70
     1
  9
$HANDLING
 70
     1
  9
$HANDSEED
  5
D5
  9
$SURFTAB1
 70
     6
  9
$SURFTAB2
 70
     6
  9
$SURFTYPE
 70
     6
  9
$SURFU
 70
     6
  9
$SURFV
 70
     6
  9
$UCSNAME
  2

  9
$UCSORG
 10
0.0
 20
0.0
 30
0.0
  9
$UCSXDIR
 10
1.0
 20
0.0
 30
0.0
  9
$UCSYDIR
 10
0.0
 20
1.0
 30
0.0
  9
$PUCSNAME
  2

  9
$PUCSORG
 10
0.0
 20
0.0
 30
0.0
  9
$PUCSXDIR
 10
1.0
 20
0.0
 30
0.0
  9
$PUCSYDIR
 10
0.0
 20
1.0
 30
0.0
  9
$USERI1
 70
     0
  9
$USERI2
 70
     0
  9
$USERI3
 70
     0
  9
$USERI4
 70
     0
  9
$USERI5
 70
     0
  9
$USERR1
 40
0.0
  9
$USERR2
 40
0.0
  9
$USERR3
 40
0.0
  9
$USERR4
 40
0.0
  9
$USERR5
 40
0.0
  9
$WORLDVIEW
 70
     1
  9
$SHADEDGE
 70
     3
  9
$SHADEDIF
 70
    70
  9
$TILEMODE
 70
     1
  9
$MAXACTVP
 70
    64
  9
$PINSBASE
 10
0.0
 20
0.0
 30
0.0
  9
$PLIMCHECK
 70
     0
  9
$PEXTMIN
 10
1.000000000000000E+20
 20
1.000000000000000E+20
 30
1.000000000000000E+20
  9
$PEXTMAX
 10
-1.000000000000000E+20
 20
-1.000000000000000E+20
 30
-1.000000000000000E+20
  9
$PLIMMIN
 10
0.0
 20
0.0
  9
$PLIMMAX
 10
12.0
 20
9.0
  9
$UNITMODE
 70
     0
  9
$VISRETAIN
 70
     1
  9
$PLINEGEN
 70
     0
  9
$PSLTSCALE
 70
     1
  9
$TREEDEPTH
 70
  3020
  9
$PICKSTYLE
 70
     1
  9
$CMLSTYLE
  2
STANDARD
  9
$CMLJUST
 70
     0
  9
$CMLSCALE
 40
1.0
  9
$SAVEIMAGES
 70
     1
  0
ENDSEC
  0
SECTION
  2
CLASSES
  0
CLASS
  1
ACDBDICTIONARYWDFLT
  2
AcDbDictionaryWithDefault
  3
ObjectDBX Classes
 90
    32768
280
     0
281
     0
  0
CLASS
  1
VISUALSTYLE
  2
AcDbVisualStyle
  3
ObjectDBX Classes
 90
     4095
280
     0
281
     0
  0
CLASS
  1
MATERIAL
  2
AcDbMaterial
  3
ObjectDBX Classes
 90
     1153
280
     0
281
     0
  0
CLASS
  1
SUN
  2
AcDbSun
  3
SCENEOE
 90
     1024
280
     0
281
     0
  0
CLASS
  1
DICTIONARYVAR
  2
AcDbDictionaryVar
  3
ObjectDBX Classes
 90
        0
280
     0
281
     0
  0
CLASS
  1
XRECORD
  2
AcDbXrecord
  3
AutoCAD 2000
 90
    32768
280
     0
281
     0
  0
CLASS
  1
LWPOLYLINE
  2
AcDbPolyline
  3
AutoCAD 2000
 90
    32768
280
     0
281
     1
  0
CLASS
  1
HATCH
  2
AcDbHatch
  3
AutoCAD 2000
 90
    32768
280
     0
281
     1
  0
CLASS
  1
ACDBPLACEHOLDER
  2
AcDbPlaceHolder
  3
ObjectDBX Classes
 90
        0
280
     0
281
     0
  0
CLASS
  1
LAYOUT
  2
AcDbLayout
  3
ObjectDBX Classes
 90
        0
280
     0
281
     0
  0
ENDSEC
  0
SECTION
  2
TABLES
  0
TABLE
  2
VPORT
  5
8
330
0
100
AcDbSymbolTable
 70
     1
  0
VPORT
  5
29
330
8
100
AcDbSymbolTableRecord
100
AcDbViewportTableRecord
  2
*ACTIVE
 70
     0
 10
0.0
 20
0.0
 11
1.0
 21
1.0
 12
0.0
 22
0.0
 13
0.0
 23
0.0
 14
0.5
 24
0.5
 15
0.5
 25
0.5
 16
0.0
 26
0.0
 36
1.0
 17
64.34389976604898
 27
-63.91503266375991
 37
0.0
 40
66.54357296811368
 41
2.422037422037413
 42
50.0
 43
0.0
 44
0.0
 50
0.0
 51
0.0
 71
     0
 72
   100
 73
     1
 74
     3
 75
     0
 76
     0
 77
     0
 78
     0
  0
ENDTAB
  0
TABLE
  2
LTYPE
  5
5
330
0
100
AcDbSymbolTable
 70
     1
  0
LTYPE
  5
14
330
5
100
AcDbSymbolTableRecord
100
AcDbLinetypeTableRecord
  2
BYBLOCK
 70
     0
  3

 72
    65
 73
     0
 40
0.0
  0
LTYPE
  5
15
330
5
100
AcDbSymbolTableRecord
100
AcDbLinetypeTableRecord
  2
BYLAYER
 70
     0
  3

 72
    65
 73
     0
 40
0.0
  0
LTYPE
  5
16
330
5
100
AcDbSymbolTableRecord
100
AcDbLinetypeTableRecord
  2
CONTINUOUS
 70
     0
  3
Solid line
 72
    65
 73
     0
 40
0.0
  0
ENDTAB
  0
TABLE
  2
LAYER
  5
2
330
0
100
AcDbSymbolTable
 70
     5
  0
LAYER
  5
10
330
2
100
AcDbSymbolTableRecord
100
AcDbLayerTableRecord
  2
0
 70
     0
 62
     7
  6
CONTINUOUS
  0
LAYER
  5
40
330
2
100
AcDbSymbolTableRecord
100
AcDbLayerTableRecord
  2
LAYER_1
 70
     0
 62
     7
  6
CONTINUOUS
  0
LAYER
  5
41
330
2
100
AcDbSymbolTableRecord
100
AcDbLayerTableRecord
  2
LAYER_2
 70
     0
 62
     7
  6
CONTINUOUS
  0
LAYER
  5
42
330
2
100
AcDbSymbolTableRecord
100
AcDbLayerTableRecord
  2
LAYER_3
 70
     0
 62
     7
  6
CONTINUOUS
  0
LAYER
  5
45
330
2
100
AcDbSymbolTableRecord
100
AcDbLayerTableRecord
  2
LAYER_4
 70
     1
 62
     7
  6
CONTINUOUS
  0
ENDTAB
  0
TABLE
  2
STYLE
  5
3
330
0
100
AcDbSymbolTable
 70
     1
  0
STYLE
  5
11
330
3
100
AcDbSymbolTableRecord
100
AcDbTextStyleTableRecord
  2
STANDARD
 70
     0
 40
0.0
 41
1.0
 50
0.0
 71
     0
 42
0.2
  3
txt
  4

  0
ENDTAB
  0
TABLE
  2
VIEW
  5
6
330
0
100
AcDbSymbolTable
 70
     0
  0
ENDTAB
  0
TABLE
  2
UCS
  5
7
330
0
100
AcDbSymbolTable
 70
     0
  0
ENDTAB
  0
TABLE
  2
APPID
  5
9
330
0
100
AcDbSymbolTable
 70
     1
  0
APPID
  5
12
330
9
100
AcDbSymbolTableRecord
100
AcDbRegAppTableRecord
  2
ACAD
 70
     0
  0
ENDTAB
  0
TABLE
  2
DIMSTYLE
  5
A
330
0
100
AcDbSymbolTable
 70
     1
  0
DIMSTYLE
105
27
330
A
100
AcDbSymbolTableRecord
100
AcDbDimStyleTableRecord
  2
STANDARD
 70
     0
  3

  4

  5

  6

  7

 40
1.0
 41
0.18
 42
0.0625
 43
0.38
 44
0.18
 45
0.0
 46
0.0
 47
0.0
 48
0.0
140
0.18
141
0.09
142
0.0
143
25.4
144
1.0
145
0.0
146
1.0
147
0.09
 71
     0
 72
     0
 73
     1
 74
     1
 75
     0
 76
     0
 77
     0
 78
     0
170
     0
171
     2
172
     0
173
     0
174
     0
175
     0
176
     0
177
     0
178
     0
270
     2
271
     4
272
     4
273
     2
274
     2
340
11
275
     0
280
     0
281
     0
282
     0
283
     1
284
     0
285
     0
286
     0
287
     3
288
     0
  0
ENDTAB
  0
TABLE
  2
BLOCK_RECORD
  5
1
330
0
100
AcDbSymbolTable
 70
     2
  0
BLOCK_RECORD
  5
1F
330
1
100
AcDbSymbolTableRecord
100
AcDbBlockTableRecord
  2
*MODEL_SPACE
  0
BLOCK_RECORD
  5
1B
330
1
100
AcDbSymbolTableRecord
100
AcDbBlockTableRecord
  2
*PAPER_SPACE
  0
BLOCK_RECORD
  5
4B
330
1
100
AcDbSymbolTableRecord
100
AcDbBlockTableRecord
  2
*U1
  0
ENDTAB
  0
ENDSEC
  0
SECTION
  2
BLOCKS
  0
BLOCK
  5
20
330
1F
100
AcDbEntity
  8
0
100
AcDbBlockBegin
  2
*MODEL_SPACE
 70
     0
 10
0.0
 20
0.0
 30
0.0
  3
*MODEL_SPACE
  1

  0
ENDBLK
  5
21
330
1F
100
AcDbEntity
  8
0
100
AcDbBlockEnd
  0
BLOCK
  5
1C
330
1B
100
AcDbEntity
 67
     1
  8
0
100
AcDbBlockBegin
  2
*PAPER_SPACE
 70
     0
 10
0.0
 20
0.0
 30
0.0
  3
*PAPER_SPACE
  1

  0
ENDBLK
  5
1D
330
1B
100
AcDbEntity
 67
     1
  8
0
100
AcDbBlockEnd
  0
BLOCK
  5
CD
330
4B
100
AcDbEntity
  8
0
100
AcDbBlockBegin
  2
*U1
 70
     1
 10
0.0
 20
0.0
 30
0.0
  3
*U1
  1

  0
SOLID
  5
4C
330
4B
100
AcDbEntity
  8
LAYER_3
 62
   253
100
AcDbTrace
 10
24.19324064954228
 20
-53.62343875815989
 30
0.0
 11
24.18031218071756
 21
-53.50450234079395
 31
0.0
 12
24.19324064954228
 22
-53.51783522783461
 32
0.0
 13
24.19324064954228
 23
-53.51783522783461
 33
0.0
  0
SOLID
  5
4D
330
4B
100
AcDbEntity
  8
LAYER_3
 62
   253
100
AcDbTrace
 10
24.19324064954228
 20
-53.62343875815989
 30
0.0
 11
24.19324064954228
 21
-53.51783522783461
 31
0.0
 12
24.65278343239523
 22
-54.74754515444802
 32
0.0
 13
24.65278343239523
 23
-54.74754515444802
 33
0.0
  0
SOLID
  5
4E
330
4B
100
AcDbEntity
  8
LAYER_3
 62
   253
100
AcDbTrace
 10
24.65278343239523
 20
-54.74754515444802
 30
0.0
 11
24.19324064954228
 21
-53.51783522783461
 31
0.0
 12
24.65278343239523
 22
-53.99175306738685
 32
0.0
 13
24.65278343239523
 23
-53.99175306738685
 33
0.0
  0
SOLID
  5
4F
330
4B
100
AcDbEntity
  8
LAYER_3
 62
   253
100
AcDbTrace
 10
24.65278343239523
 20
-54.74754515444802
 30
0.0
 11
24.65278343239523
 21
-53.99175306738685
 31
0.0
 12
24.66113716119149
 22
-54.76639210525371
 32
0.0
 13
24.66113716119149
 23
-54.76639210525371
 33
0.0
  0
SOLID
  5
50
330
4B
100
AcDbEntity
  8
LAYER_3
 62
   253
100
AcDbTrace
 10
24.66113716119149
 20
-54.76639210525371
 30
0.0
 11
24.65278343239523
 21
-53.99175306738685
 31
0.0
 12
24.66113716119149
 22
-54.00036811097159
 32
0.0
 13
24.66113716119149
 23
-54.00036811097159
 33
0.0
  0
SOLID
  5
51
330
4B
100
AcDbEntity
  8
LAYER_3
 62
   253
100
AcDbTrace
 10
24.66113716119149
 20
-54.76639210525371
 30
0.0
 11
24.66113716119149
 21
-54.00036811097159
 31
0.0
 12
25.49184241203699
 22
-56.64055649083119
 32
0.0
 13
25.49184241203699
 23
-56.64055649083119
 33
0.0
  0
SOLID
  5
52
330
4B
100
AcDbEntity
  8
LAYER_3
 62
   253
100
AcDbTrace
 10
25.49184241203699
 20
-56.64055649083119
 30
0.0
 11
24.66113716119149
 21
-54.00036811097159
 31
0.0
 12
25.49184241203699
 22
-54.81746454602262
 32
0.0
 13
25.49184241203699
 23
-54.81746454602262
 33
0.0
  0
SOLID
  5
53
330
4B
100
AcDbEntity
  8
LAYER_3
 62
   253
100
AcDbTrace
 10
25.49184241203699
 20
-56.64055649083119
 30
0.0
 11
25.49184241203699
 21
-54.81746454602262
 31
0.0
 12
26.74709822359369
 22
-59.00539588386426
 32
0.0
 13
26.74709822359369
 23
-59.00539588386426
 33
0.0
  0
SOLID
  5
54
330
4B
100
AcDbEntity
  8
LAYER_3
 62
   253
100
AcDbTrace
 10
26.74709822359369
 20
-59.00539588386426
 30
0.0
 11
25.49184241203699
 21
-54.81746454602262
 31
0.0
 12
26.74709822359369
 22
-56.05215645107094
 32
0.0
 13
26.74709822359369
 23
-56.05215645107094
 33
0.0
  0
SOLID
  5
55
330
4B
100
AcDbEntity
  8
LAYER_3
 62
   253
100
AcDbTrace
 10
26.74709822359369
 20
-59.00539588386426
 30
0.0
 11
26.74709822359369
 21
-56.05215645107094
 31
0.0
 12
28.06413755692619
 22
-61.48663235292804
 32
0.0
 13
28.06413755692619
 23
-61.48663235292804
 33
0.0
  0
SOLID
  5
56
330
4B
100
AcDbEntity
  8
LAYER_3
 62
   253
100
AcDbTrace
 10
28.06413755692619
 20
-61.48663235292804
 30
0.0
 11
26.74709822359369
 21
-56.05215645107094
 31
0.0
 12
28.06413755692619
 22
-57.22625033671071
 32
0.0
 13
28.06413755692619
 23
-57.22625033671071
 33
0.0
  0
SOLID
  5
57
330
4B
100
AcDbEntity
  8
LAYER_3
 62
   253
100
AcDbTrace
 10
28.06413755692619
 20
-61.48663235292804
 30
0.0
 11
28.06413755692619
 21
-57.22625033671071
 31
0.0
 12
29.65360566433482
 22
-63.78515590419343
 32
0.0
 13
29.65360566433482
 23
-63.78515590419343
 33
0.0
  0
SOLID
  5
58
330
4B
100
AcDbEntity
  8
LAYER_3
 62
   253
100
AcDbTrace
 10
29.65360566433482
 20
-63.78515590419343
 30
0.0
 11
28.06413755692619
 21
-57.22625033671071
 31
0.0
 12
29.65360566433482
 22
-58.64320481870471
 32
0.0
 13
29.65360566433482
 23
-58.64320481870471
 33
0.0
  0
SOLID
  5
59
330
4B
100
AcDbEntity
  8
LAYER_3
 62
   253
100
AcDbTrace
 10
29.65360566433482
 20
-63.78515590419343
 30
0.0
 11
29.65360566433482
 21
-58.64320481870471
 31
0.0
 12
29.67518801979263
 22
-63.81636606316443
 32
0.0
 13
29.67518801979263
 23
-63.81636606316443
 33
0.0
  0
SOLID
  5
5A
330
4B
100
AcDbEntity
  8
LAYER_3
 62
   253
100
AcDbTrace
 10
29.67518801979263
 20
-63.81636606316443
 30
0.0
 11
29.65360566433482
 21
-58.64320481870471
 31
0.0
 12
29.67518801979263
 22
-58.66064588487389
 32
0.0
 13
29.67518801979263
 23
-58.66064588487389
 33
0.0
  0
SOLID
  5
5B
330
4B
100
AcDbEntity
  8
LAYER_3
 62
   253
100
AcDbTrace
 10
29.67518801979263
 20
-63.81636606316443
 30
0.0
 11
29.67518801979263
 21
-58.66064588487389
 31
0.0
 12
30.21105935233943
 22
-64.41941223521535
 32
0.0
 13
30.21105935233943
 23
-64.41941223521535
 33
0.0
  0
SOLID
  5
5C
330
4B
100
AcDbEntity
  8
LAYER_3
 62
   253
100
AcDbTrace
 10
30.21105935233943
 20
-64.41941223521535
 30
0.0
 11
29.67518801979263
 21
-58.66064588487389
 31
0.0
 12
30.21105935233943
 22
-59.09369256448146
 32
0.0
 13
30.21105935233943
 23
-59.09369256448146
 33
0.0
  0
SOLID
  5
5D
330
4B
100
AcDbEntity
  8
LAYER_3
 62
   253
100
AcDbTrace
 10
30.21105935233943
 20
-64.41941223521535
 30
0.0
 11
30.21105935233943
 21
-59.09369256448146
 31
0.0
 12
30.30154364716243
 22
-64.52123930509126
 32
0.0
 13
30.30154364716243
 23
-64.52123930509126
 33
0.0
  0
SOLID
  5
5E
330
4B
100
AcDbEntity
  8
LAYER_3
 62
   253
100
AcDbTrace
 10
30.30154364716243
 20
-64.52123930509126
 30
0.0
 11
30.21105935233943
 21
-59.09369256448146
 31
0.0
 12
30.30154364716243
 22
-59.16048708991128
 32
0.0
 13
30.30154364716243
 23
-59.16048708991128
 33
0.0
  0
SOLID
  5
5F
330
4B
100
AcDbEntity
  8
LAYER_3
 62
   253
100
AcDbTrace
 10
30.30154364716243
 20
-64.52123930509126
 30
0.0
 11
30.30154364716243
 21
-59.16048708991128
 31
0.0
 12
30.80492875750973
 22
-65.08772690281297
 32
0.0
 13
30.80492875750973
 23
-65.08772690281297
 33
0.0
  0
SOLID
  5
60
330
4B
100
AcDbEntity
  8
LAYER_3
 62
   253
100
AcDbTrace
 10
30.80492875750973
 20
-65.08772690281297
 30
0.0
 11
30.30154364716243
 21
-59.16048708991128
 31
0.0
 12
30.80492875750973
 22
-59.49953872871634
 32
0.0
 13
30.80492875750973
 23
-59.49953872871634
 33
0.0
  0
SOLID
  5
61
330
4B
100
AcDbEntity
  8
LAYER_3
 62
   253
100
AcDbTrace
 10
30.80492875750973
 20
-65.08772690281297
 30
0.0
 11
30.80492875750973
 21
-59.49953872871634
 31
0.0
 12
30.96496481522138
 22
-65.26782448619079
 32
0.0
 13
30.96496481522138
 23
-65.26782448619079
 33
0.0
  0
SOLID
  5
62
330
4B
100
AcDbEntity
  8
LAYER_3
 62
   253
100
AcDbTrace
 10
30.96496481522138
 20
-65.26782448619079
 30
0.0
 11
30.80492875750973
 21
-59.49953872871634
 31
0.0
 12
30.96496481522138
 22
-59.58235704083386
 32
0.0
 13
30.96496481522138
 23
-59.58235704083386
 33
0.0
  0
SOLID
  5
63
330
4B
100
AcDbEntity
  8
LAYER_3
 62
   253
100
AcDbTrace
 10
30.96496481522138
 20
-65.26782448619079
 30
0.0
 11
30.96496481522138
 21
-59.58235704083386
 31
0.0
 12
32.87018487329026
 22
-66.62549428590067
 32
0.0
 13
32.87018487329026
 23
-66.62549428590067
 33
0.0
  0
SOLID
  5
64
330
4B
100
AcDbEntity
  8
LAYER_3
 62
   253
100
AcDbTrace
 10
32.87018487329026
 20
-66.62549428590067
 30
0.0
 11
30.96496481522138
 21
-59.58235704083386
 31
0.0
 12
32.87018487329026
 22
-60.56830428096151
 32
0.0
 13
32.87018487329026
 23
-60.56830428096151
 33
0.0
  0
SOLID
  5
65
330
4B
100
AcDbEntity
  8
LAYER_3
 62
   253
100
AcDbTrace
 10
32.87018487329026
 20
-66.62549428590067
 30
0.0
 11
32.87018487329026
 21
-60.56830428096151
 31
0.0
 12
33.19478544580806
 22
-66.85680635529104
 32
0.0
 13
33.19478544580806
 23
-66.85680635529104
 33
0.0
  0
SOLID
  5
66
330
4B
100
AcDbEntity
  8
LAYER_3
 62
   253
100
AcDbTrace
 10
33.19478544580806
 20
-66.85680635529104
 30
0.0
 11
32.87018487329026
 21
-60.56830428096151
 31
0.0
 12
33.19478544580806
 22
-60.65044665937815
 32
0.0
 13
33.19478544580806
 23
-60.65044665937815
 33
0.0
  0
SOLID
  5
67
330
4B
100
AcDbEntity
  8
LAYER_3
 62
   253
100
AcDbTrace
 10
33.19478544580806
 20
-66.85680635529104
 30
0.0
 11
33.19478544580806
 21
-60.65044665937815
 31
0.0
 12
35.76666805402827
 22
-67.4876282156296
 32
0.0
 13
35.76666805402827
 23
-67.4876282156296
 33
0.0
  0
SOLID
  5
68
330
4B
100
AcDbEntity
  8
LAYER_3
 62
   253
100
AcDbTrace
 10
35.76666805402827
 20
-67.4876282156296
 30
0.0
 11
33.19478544580806
 21
-60.65044665937815
 31
0.0
 12
35.76666805402827
 22
-61.30127901253429
 32
0.0
 13
35.76666805402827
 23
-61.30127901253429
 33
0.0
  0
SOLID
  5
69
330
4B
100
AcDbEntity
  8
LAYER_3
 62
   253
100
AcDbTrace
 10
35.76666805402827
 20
-67.4876282156296
 30
0.0
 11
35.76666805402827
 21
-61.30127901253429
 31
0.0
 12
35.90641230114916
 22
-67.48758179770671
 32
0.0
 13
35.90641230114916
 23
-67.48758179770671
 33
0.0
  0
SOLID
  5
6A
330
4B
100
AcDbEntity
  8
LAYER_3
 62
   253
100
AcDbTrace
 10
35.90641230114916
 20
-67.48758179770671
 30
0.0
 11
35.76666805402827
 21
-61.30127901253429
 31
0.0
 12
35.90641230114916
 22
-61.33664224291775
 32
0.0
 13
35.90641230114916
 23
-61.33664224291775
 33
0.0
  0
SOLID
  5
6B
330
4B
100
AcDbEntity
  8
LAYER_3
 62
   253
100
AcDbTrace
 10
35.90641230114916
 20
-67.48758179770671
 30
0.0
 11
35.90641230114916
 21
-61.33664224291775
 31
0.0
 12
38.72305164554903
 22
-67.4866462132331
 32
0.0
 13
38.72305164554903
 23
-67.4866462132331
 33
0.0
  0
SOLID
  5
6C
330
4B
100
AcDbEntity
  8
LAYER_3
 62
   253
100
AcDbTrace
 10
38.72305164554903
 20
-67.4866462132331
 30
0.0
 11
35.90641230114916
 21
-61.33664224291775
 31
0.0
 12
38.72305164554903
 22
-61.0940614898432
 32
0.0
 13
38.72305164554903
 23
-61.0940614898432
 33
0.0
  0
SOLID
  5
6D
330
4B
100
AcDbEntity
  8
LAYER_3
 62
   253
100
AcDbTrace
 10
38.72305164554903
 20
-67.4866462132331
 30
0.0
 11
38.72305164554903
 21
-61.0940614898432
 31
0.0
 12
38.82659549921267
 22
-67.48661181975564
 32
0.0
 13
38.82659549921267
 23
-67.48661181975564
 33
0.0
  0
SOLID
  5
6E
330
4B
100
AcDbEntity
  8
LAYER_3
 62
   253
100
AcDbTrace
 10
38.82659549921267
 20
-67.48661181975564
 30
0.0
 11
38.72305164554903
 21
-61.0940614898432
 31
0.0
 12
38.82659549921267
 22
-61.04831527740808
 32
0.0
 13
38.82659549921267
 23
-61.04831527740808
 33
0.0
  0
SOLID
  5
6F
330
4B
100
AcDbEntity
  8
LAYER_3
 62
   253
100
AcDbTrace
 10
38.82659549921267
 20
-67.48661181975564
 30
0.0
 11
38.82659549921267
 21
-61.04831527740808
 31
0.0
 12
41.46772688729511
 22
-66.81628049261333
 32
0.0
 13
41.46772688729511
 23
-66.81628049261333
 33
0.0
  0
SOLID
  5
70
330
4B
100
AcDbEntity
  8
LAYER_3
 62
   253
100
AcDbTrace
 10
41.46772688729511
 20
-66.81628049261333
 30
0.0
 11
38.82659549921267
 21
-61.04831527740808
 31
0.0
 12
41.46772688729511
 22
-59.88144971008266
 32
0.0
 13
41.46772688729511
 23
-59.88144971008266
 33
0.0
  0
SOLID
  5
71
330
4B
100
AcDbEntity
  8
LAYER_3
 62
   253
100
AcDbTrace
 10
41.46772688729511
 20
-66.81628049261333
 30
0.0
 11
41.46772688729511
 21
-59.88144971008266
 31
0.0
 12
42.28884914836384
 22
-66.60787587575406
 32
0.0
 13
42.28884914836384
 23
-66.60787587575406
 33
0.0
  0
SOLID
  5
72
330
4B
100
AcDbEntity
  8
LAYER_3
 62
   253
100
AcDbTrace
 10
42.28884914836384
 20
-66.60787587575406
 30
0.0
 11
41.46772688729511
 21
-59.88144971008266
 31
0.0
 12
42.28884914836384
 22
-59.28755652821643
 32
0.0
 13
42.28884914836384
 23
-59.28755652821643
 33
0.0
  0
SOLID
  5
73
330
4B
100
AcDbEntity
  8
LAYER_3
 62
   253
100
AcDbTrace
 10
42.28884914836384
 20
-66.60787587575406
 30
0.0
 11
42.28884914836384
 21
-59.28755652821643
 31
0.0
 12
44.2726331338672
 22
-65.63662092140873
 32
0.0
 13
44.2726331338672
 23
-65.63662092140873
 33
0.0
  0
SOLID
  5
74
330
4B
100
AcDbEntity
  8
LAYER_3
 62
   253
100
AcDbTrace
 10
44.2726331338672
 20
-65.63662092140873
 30
0.0
 11
42.28884914836384
 21
-59.28755652821643
 31
0.0
 12
44.2726331338672
 22
-57.85274488183332
 32
0.0
 13
44.2726331338672
 23
-57.85274488183332
 33
0.0
  0
SOLID
  5
75
330
4B
100
AcDbEntity
  8
LAYER_3
 62
   253
100
AcDbTrace
 10
44.2726331338672
 20
-65.63662092140873
 30
0.0
 11
44.2726331338672
 21
-57.85274488183332
 31
0.0
 12
44.51262401556491
 22
-65.47566515960247
 32
0.0
 13
44.51262401556491
 23
-65.47566515960247
 33
0.0
  0
SOLID
  5
76
330
4B
100
AcDbEntity
  8
LAYER_3
 62
   253
100
AcDbTrace
 10
44.51262401556491
 20
-65.47566515960247
 30
0.0
 11
44.2726331338672
 21
-57.85274488183332
 31
0.0
 12
44.51262401556491
 22
-57.67916665224688
 32
0.0
 13
44.51262401556491
 23
-57.67916665224688
 33
0.0
  0
SOLID
  5
77
330
4B
100
AcDbEntity
  8
LAYER_3
 62
   253
100
AcDbTrace
 10
44.51262401556491
 20
-65.47566515960247
 30
0.0
 11
44.51262401556491
 21
-57.67916665224688
 31
0.0
 12
46.41080845083871
 22
-64.20260128456279
 32
0.0
 13
46.41080845083871
 23
-64.20260128456279
 33
0.0
  0
SOLID
  5
78
330
4B
100
AcDbEntity
  8
LAYER_3
 62
   253
100
AcDbTrace
 10
46.41080845083871
 20
-64.20260128456279
 30
0.0
 11
44.51262401556491
 21
-57.67916665224688
 31
0.0
 12
46.41080845083871
 22
-56.19008399429136
 32
0.0
 13
46.41080845083871
 23
-56.19008399429136
 33
0.0
  0
SOLID
  5
79
330
4B
100
AcDbEntity
  8
LAYER_3
 62
   253
100
AcDbTrace
 10
46.41080845083871
 20
-64.20260128456279
 30
0.0
 11
46.41080845083871
 21
-56.19008399429136
 31
0.0
 12
46.74589328089096
 22
-63.92948014096192
 32
0.0
 13
46.74589328089096
 23
-63.92948014096192
 33
0.0
  0
SOLID
  5
7A
330
4B
100
AcDbEntity
  8
LAYER_3
 62
   253
100
AcDbTrace
 10
46.74589328089096
 20
-63.92948014096192
 30
0.0
 11
46.41080845083871
 21
-56.19008399429136
 31
0.0
 12
46.74589328089096
 22
-55.92721754143121
 32
0.0
 13
46.74589328089096
 23
-55.92721754143121
 33
0.0
  0
SOLID
  5
7B
330
4B
100
AcDbEntity
  8
LAYER_3
 62
   253
100
AcDbTrace
 10
46.74589328089096
 20
-63.92948014096192
 30
0.0
 11
46.74589328089096
 21
-55.92721754143121
 31
0.0
 12
47.53450064554288
 22
-63.28670157873273
 32
0.0
 13
47.53450064554288
 23
-63.28670157873273
 33
0.0
  0
SOLID
  5
7C
330
4B
100
AcDbEntity
  8
LAYER_3
 62
   253
100
AcDbTrace
 10
47.53450064554288
 20
-63.28670157873273
 30
0.0
 11
46.74589328089096
 21
-55.92721754143121
 31
0.0
 12
47.53450064554288
 22
-55.35513685071227
 32
0.0
 13
47.53450064554288
 23
-55.35513685071227
 33
0.0
  0
SOLID
  5
7D
330
4B
100
AcDbEntity
  8
LAYER_3
 62
   253
100
AcDbTrace
 10
47.53450064554288
 20
-63.28670157873273
 30
0.0
 11
47.53450064554288
 21
-55.35513685071227
 31
0.0
 12
48.1094217396603
 22
-62.77459245595873
 32
0.0
 13
48.1094217396603
 23
-62.77459245595873
 33
0.0
  0
SOLID
  5
7E
330
4B
100
AcDbEntity
  8
LAYER_3
 62
   253
100
AcDbTrace
 10
48.1094217396603
 20
-62.77459245595873
 30
0.0
 11
47.53450064554288
 21
-55.35513685071227
 31
0.0
 12
48.1094217396603
 22
-54.93807092998409
 32
0.0
 13
48.1094217396603
 23
-54.93807092998409
 33
0.0
  0
SOLID
  5
7F
330
4B
100
AcDbEntity
  8
LAYER_3
 62
   253
100
AcDbTrace
 10
48.1094217396603
 20
-62.77459245595873
 30
0.0
 11
48.1094217396603
 21
-54.93807092998409
 31
0.0
 12
48.40007901874922
 22
-62.50444347735608
 32
0.0
 13
48.40007901874922
 23
-62.50444347735608
 33
0.0
  0
SOLID
  5
80
330
4B
100
AcDbEntity
  8
LAYER_3
 62
   253
100
AcDbTrace
 10
48.40007901874922
 20
-62.50444347735608
 30
0.0
 11
48.1094217396603
 21
-54.93807092998409
 31
0.0
 12
48.40007901874922
 22
-54.72721895923554
 32
0.0
 13
48.40007901874922
 23
-54.72721895923554
 33
0.0
  0
SOLID
  5
81
330
4B
100
AcDbEntity
  8
LAYER_3
 62
   253
100
AcDbTrace
 10
48.40007901874922
 20
-62.50444347735608
 30
0.0
 11
48.40007901874922
 21
-54.72721895923554
 31
0.0
 12
49.00175202976229
 22
-61.93942697506265
 32
0.0
 13
49.00175202976229
 23
-61.93942697506265
 33
0.0
  0
SOLID
  5
82
330
4B
100
AcDbEntity
  8
LAYER_3
 62
   253
100
AcDbTrace
 10
49.00175202976229
 20
-61.93942697506265
 30
0.0
 11
48.40007901874922
 21
-54.72721895923554
 31
0.0
 12
49.00175202976229
 22
-54.29074635302393
 32
0.0
 13
49.00175202976229
 23
-54.29074635302393
 33
0.0
  0
SOLID
  5
83
330
4B
100
AcDbEntity
  8
LAYER_3
 62
   253
100
AcDbTrace
 10
49.00175202976229
 20
-61.93942697506265
 30
0.0
 11
49.00175202976229
 21
-54.29074635302393
 31
0.0
 12
49.52277560349593
 22
-61.51572706558894
 32
0.0
 13
49.52277560349593
 23
-61.51572706558894
 33
0.0
  0
SOLID
  5
84
330
4B
100
AcDbEntity
  8
LAYER_3
 62
   253
100
AcDbTrace
 10
49.52277560349593
 20
-61.51572706558894
 30
0.0
 11
49.00175202976229
 21
-54.29074635302393
 31
0.0
 12
49.52277560349593
 22
-53.9127793959515
 32
0.0
 13
49.52277560349593
 23
-53.9127793959515
 33
0.0
  0
SOLID
  5
85
330
4B
100
AcDbEntity
  8
LAYER_3
 62
   253
100
AcDbTrace
 10
49.52277560349593
 20
-61.51572706558894
 30
0.0
 11
49.52277560349593
 21
-53.9127793959515
 31
0.0
 12
52.79694558658193
 22
-58.85314979390437
 32
0.0
 13
52.79694558658193
 23
-58.85314979390437
 33
0.0
  0
SOLID
  5
86
330
4B
100
AcDbEntity
  8
LAYER_3
 62
   253
100
AcDbTrace
 10
52.79694558658193
 20
-58.85314979390437
 30
0.0
 11
49.52277560349593
 21
-53.9127793959515
 31
0.0
 12
52.79694558658193
 22
-51.71886066548806
 32
0.0
 13
52.79694558658193
 23
-51.71886066548806
 33
0.0
  0
SOLID
  5
87
330
4B
100
AcDbEntity
  8
LAYER_3
 62
   253
100
AcDbTrace
 10
52.79694558658193
 20
-58.85314979390437
 30
0.0
 11
52.79694558658193
 21
-51.71886066548806
 31
0.0
 12
55.37778328164144
 22
-56.75439504864966
 32
0.0
 13
55.37778328164144
 23
-56.75439504864966
 33
0.0
  0
SOLID
  5
88
330
4B
100
AcDbEntity
  8
LAYER_3
 62
   253
100
AcDbTrace
 10
55.37778328164144
 20
-56.75439504864966
 30
0.0
 11
52.79694558658193
 21
-51.71886066548806
 31
0.0
 12
55.37778328164144
 22
-50.13203724789858
 32
0.0
 13
55.37778328164144
 23
-50.13203724789858
 33
0.0
  0
SOLID
  5
89
330
4B
100
AcDbEntity
  8
LAYER_3
 62
   253
100
AcDbTrace
 10
55.37778328164144
 20
-56.75439504864966
 30
0.0
 11
55.37778328164144
 21
-50.13203724789858
 31
0.0
 12
56.52207783335128
 22
-56.03374574829369
 32
0.0
 13
56.52207783335128
 23
-56.03374574829369
 33
0.0
  0
SOLID
  5
8A
330
4B
100
AcDbEntity
  8
LAYER_3
 62
   253
100
AcDbTrace
 10
56.52207783335128
 20
-56.03374574829369
 30
0.0
 11
55.37778328164144
 21
-50.13203724789858
 31
0.0
 12
56.52207783335128
 22
-49.42846979972112
 32
0.0
 13
56.52207783335128
 23
-49.42846979972112
 33
0.0
  0
SOLID
  5
8B
330
4B
100
AcDbEntity
  8
LAYER_3
 62
   253
100
AcDbTrace
 10
56.52207783335128
 20
-56.03374574829369
 30
0.0
 11
56.52207783335128
 21
-49.42846979972112
 31
0.0
 12
62.75889698436681
 22
-52.10594643219085
 32
0.0
 13
62.75889698436681
 23
-52.10594643219085
 33
0.0
  0
SOLID
  5
8C
330
4B
100
AcDbEntity
  8
LAYER_3
 62
   253
100
AcDbTrace
 10
62.75889698436681
 20
-52.10594643219085
 30
0.0
 11
56.52207783335128
 21
-49.42846979972112
 31
0.0
 12
62.75889698436681
 22
-46.14415744199389
 32
0.0
 13
62.75889698436681
 23
-46.14415744199389
 33
0.0
  0
SOLID
  5
8D
330
4B
100
AcDbEntity
  8
LAYER_3
 62
   253
100
AcDbTrace
 10
62.75889698436681
 20
-52.10594643219085
 30
0.0
 11
62.75889698436681
 21
-46.14415744199389
 31
0.0
 12
65.13992753074977
 22
-50.97638534552644
 32
0.0
 13
65.13992753074977
 23
-50.97638534552644
 33
0.0
  0
SOLID
  5
8E
330
4B
100
AcDbEntity
  8
LAYER_3
 62
   253
100
AcDbTrace
 10
65.13992753074977
 20
-50.97638534552644
 30
0.0
 11
62.75889698436681
 21
-46.14415744199389
 31
0.0
 12
65.13992753074977
 22
-44.89030546099838
 32
0.0
 13
65.13992753074977
 23
-44.89030546099838
 33
0.0
  0
SOLID
  5
8F
330
4B
100
AcDbEntity
  8
LAYER_3
 62
   253
100
AcDbTrace
 10
65.13992753074977
 20
-50.97638534552644
 30
0.0
 11
65.13992753074977
 21
-44.89030546099838
 31
0.0
 12
70.92045692338809
 22
-48.23410172713144
 32
0.0
 13
70.92045692338809
 23
-48.23410172713144
 33
0.0
  0
SOLID
  5
90
330
4B
100
AcDbEntity
  8
LAYER_3
 62
   253
100
AcDbTrace
 10
70.92045692338809
 20
-48.23410172713144
 30
0.0
 11
65.13992753074977
 21
-44.89030546099838
 31
0.0
 12
70.92045692338809
 22
-42.58885470837462
 32
0.0
 13
70.92045692338809
 23
-42.58885470837462
 33
0.0
  0
SOLID
  5
91
330
4B
100
AcDbEntity
  8
LAYER_3
 62
   253
100
AcDbTrace
 10
70.92045692338809
 20
-48.23410172713144
 30
0.0
 11
70.92045692338809
 21
-42.58885470837462
 31
0.0
 12
75.00572152130958
 22
-46.89604563647308
 32
0.0
 13
75.00572152130958
 23
-46.89604563647308
 33
0.0
  0
SOLID
  5
92
330
4B
100
AcDbEntity
  8
LAYER_3
 62
   253
100
AcDbTrace
 10
75.00572152130958
 20
-46.89604563647308
 30
0.0
 11
70.92045692338809
 21
-42.58885470837462
 31
0.0
 12
75.00572152130958
 22
-40.96235397722577
 32
0.0
 13
75.00572152130958
 23
-40.96235397722577
 33
0.0
  0
SOLID
  5
93
330
4B
100
AcDbEntity
  8
LAYER_3
 62
   253
100
AcDbTrace
 10
75.00572152130958
 20
-46.89604563647308
 30
0.0
 11
75.00572152130958
 21
-40.96235397722577
 31
0.0
 12
79.63782688415417
 22
-45.37888153491676
 32
0.0
 13
79.63782688415417
 23
-45.37888153491676
 33
0.0
  0
SOLID
  5
94
330
4B
100
AcDbEntity
  8
LAYER_3
 62
   253
100
AcDbTrace
 10
79.63782688415417
 20
-45.37888153491676
 30
0.0
 11
75.00572152130958
 21
-40.96235397722577
 31
0.0
 12
79.63782688415417
 22
-39.62346368721014
 32
0.0
 13
79.63782688415417
 23
-39.62346368721014
 33
0.0
  0
SOLID
  5
95
330
4B
100
AcDbEntity
  8
LAYER_3
 62
   253
100
AcDbTrace
 10
79.63782688415417
 20
-45.37888153491676
 30
0.0
 11
79.63782688415417
 21
-39.62346368721014
 31
0.0
 12
80.29078413453016
 22
-45.26352582529448
 32
0.0
 13
80.29078413453016
 23
-45.26352582529448
 33
0.0
  0
SOLID
  5
96
330
4B
100
AcDbEntity
  8
LAYER_3
 62
   253
100
AcDbTrace
 10
80.29078413453016
 20
-45.26352582529448
 30
0.0
 11
79.63782688415417
 21
-39.62346368721014
 31
0.0
 12
80.29078413453016
 22
-39.43472918014641
 32
0.0
 13
80.29078413453016
 23
-39.43472918014641
 33
0.0
  0
SOLID
  5
97
330
4B
100
AcDbEntity
  8
LAYER_3
 62
   253
100
AcDbTrace
 10
80.29078413453016
 20
-45.26352582529448
 30
0.0
 11
80.29078413453016
 21
-39.43472918014641
 31
0.0
 12
85.74885663064754
 22
-44.2992669467891
 32
0.0
 13
85.74885663064754
 23
-44.2992669467891
 33
0.0
  0
SOLID
  5
98
330
4B
100
AcDbEntity
  8
LAYER_3
 62
   253
100
AcDbTrace
 10
85.74885663064754
 20
-44.2992669467891
 30
0.0
 11
80.29078413453016
 21
-39.43472918014641
 31
0.0
 12
85.74885663064754
 22
-38.30868294584556
 32
0.0
 13
85.74885663064754
 23
-38.30868294584556
 33
0.0
  0
SOLID
  5
99
330
4B
100
AcDbEntity
  8
LAYER_3
 62
   253
100
AcDbTrace
 10
85.74885663064754
 20
-44.2992669467891
 30
0.0
 11
85.74885663064754
 21
-38.30868294584556
 31
0.0
 12
88.68637065211387
 22
-43.78030645699204
 32
0.0
 13
88.68637065211387
 23
-43.78030645699204
 33
0.0
  0
SOLID
  5
9A
330
4B
100
AcDbEntity
  8
LAYER_3
 62
   253
100
AcDbTrace
 10
88.68637065211387
 20
-43.78030645699204
 30
0.0
 11
85.74885663064754
 21
-38.30868294584556
 31
0.0
 12
88.68637065211387
 22
-37.97128322292831
 32
0.0
 13
88.68637065211387
 23
-37.97128322292831
 33
0.0
  0
SOLID
  5
9B
330
4B
100
AcDbEntity
  8
LAYER_3
 62
   253
100
AcDbTrace
 10
88.68637065211387
 20
-43.78030645699204
 30
0.0
 11
88.68637065211387
 21
-37.97128322292831
 31
0.0
 12
91.33361361286478
 22
-43.63399416331183
 32
0.0
 13
91.33361361286478
 23
-43.63399416331183
 33
0.0
  0
SOLID
  5
9C
330
4B
100
AcDbEntity
  8
LAYER_3
 62
   253
100
AcDbTrace
 10
91.33361361286478
 20
-43.63399416331183
 30
0.0
 11
88.68637065211387
 21
-37.97128322292831
 31
0.0
 12
91.33361361286478
 22
-37.66722372400339
 32
0.0
 13
91.33361361286478
 23
-37.66722372400339
 33
0.0
  0
SOLID
  5
9D
330
4B
100
AcDbEntity
  8
LAYER_3
 62
   253
100
AcDbTrace
 10
91.33361361286478
 20
-43.63399416331183
 30
0.0
 11
91.33361361286478
 21
-37.66722372400339
 31
0.0
 12
93.26463389674377
 22
-43.52726727383992
 32
0.0
 13
93.26463389674377
 23
-43.52726727383992
 33
0.0
  0
SOLID
  5
9E
330
4B
100
AcDbEntity
  8
LAYER_3
 62
   253
100
AcDbTrace
 10
93.26463389674377
 20
-43.52726727383992
 30
0.0
 11
91.33361361286478
 21
-37.66722372400339
 31
0.0
 12
93.26463389674377
 22
-37.64209079683303
 32
0.0
 13
93.26463389674377
 23
-37.64209079683303
 33
0.0
  0
SOLID
  5
9F
330
4B
100
AcDbEntity
  8
LAYER_3
 62
   253
100
AcDbTrace
 10
93.26463389674377
 20
-43.52726727383992
 30
0.0
 11
93.26463389674377
 21
-37.64209079683303
 31
0.0
 12
96.68404885310245
 22
-43.67356505912808
 32
0.0
 13
96.68404885310245
 23
-43.67356505912808
 33
0.0
  0
SOLID
  5
A0
330
4B
100
AcDbEntity
  8
LAYER_3
 62
   253
100
AcDbTrace
 10
96.68404885310245
 20
-43.67356505912808
 30
0.0
 11
93.26463389674377
 21
-37.64209079683303
 31
0.0
 12
96.68404885310245
 22
-37.59758587485947
 32
0.0
 13
96.68404885310245
 23
-37.59758587485947
 33
0.0
  0
SOLID
  5
A1
330
4B
100
AcDbEntity
  8
LAYER_3
 62
   253
100
AcDbTrace
 10
96.68404885310245
 20
-43.67356505912808
 30
0.0
 11
96.68404885310245
 21
-37.59758587485947
 31
0.0
 12
98.2466228581541
 22
-43.74041892717437
 32
0.0
 13
98.2466228581541
 23
-43.74041892717437
 33
0.0
  0
SOLID
  5
A2
330
4B
100
AcDbEntity
  8
LAYER_3
 62
   253
100
AcDbTrace
 10
98.2466228581541
 20
-43.74041892717437
 30
0.0
 11
96.68404885310245
 21
-37.59758587485947
 31
0.0
 12
98.2466228581541
 22
-37.7867686113843
 32
0.0
 13
98.2466228581541
 23
-37.7867686113843
 33
0.0
  0
SOLID
  5
A3
330
4B
100
AcDbEntity
  8
LAYER_3
 62
   253
100
AcDbTrace
 10
98.2466228581541
 20
-43.74041892717437
 30
0.0
 11
98.2466228581541
 21
-37.7867686113843
 31
0.0
 12
101.406255862648
 22
-44.29566482933229
 32
0.0
 13
101.406255862648
 23
-44.29566482933229
 33
0.0
  0
SOLID
  5
A4
330
4B
100
AcDbEntity
  8
LAYER_3
 62
   253
100
AcDbTrace
 10
101.406255862648
 20
-44.29566482933229
 30
0.0
 11
98.2466228581541
 21
-37.7867686113843
 31
0.0
 12
101.406255862648
 22
-38.16930922467485
 32
0.0
 13
101.406255862648
 23
-38.16930922467485
 33
0.0
  0
SOLID
  5
A5
330
4B
100
AcDbEntity
  8
LAYER_3
 62
   253
100
AcDbTrace
 10
101.406255862648
 20
-44.29566482933229
 30
0.0
 11
101.406255862648
 21
-38.16930922467485
 31
0.0
 12
103.3005623416353
 22
-44.62855346177566
 32
0.0
 13
103.3005623416353
 23
-44.62855346177566
 33
0.0
  0
SOLID
  5
A6
330
4B
100
AcDbEntity
  8
LAYER_3
 62
   253
100
AcDbTrace
 10
103.3005623416353
 20
-44.62855346177566
 30
0.0
 11
101.406255862648
 21
-38.16930922467485
 31
0.0
 12
103.3005623416353
 22
-38.63595832336429
 32
0.0
 13
103.3005623416353
 23
-38.63595832336429
 33
0.0
  0
SOLID
  5
A7
330
4B
100
AcDbEntity
  8
LAYER_3
 62
   253
100
AcDbTrace
 10
103.3005623416353
 20
-44.62855346177566
 30
0.0
 11
103.3005623416353
 21
-38.63595832336429
 31
0.0
 12
105.947499561976
 22
-45.44971740173457
 32
0.0
 13
105.947499561976
 23
-45.44971740173457
 33
0.0
  0
SOLID
  5
A8
330
4B
100
AcDbEntity
  8
LAYER_3
 62
   253
100
AcDbTrace
 10
105.947499561976
 20
-45.44971740173457
 30
0.0
 11
103.3005623416353
 21
-38.63595832336429
 31
0.0
 12
105.947499561976
 22
-39.28801271997904
 32
0.0
 13
105.947499561976
 23
-39.28801271997904
 33
0.0
  0
SOLID
  5
A9
330
4B
100
AcDbEntity
  8
LAYER_3
 62
   253
100
AcDbTrace
 10
105.947499561976
 20
-45.44971740173457
 30
0.0
 11
105.947499561976
 21
-39.28801271997904
 31
0.0
 12
107.9943655645495
 22
-46.08472020358606
 32
0.0
 13
107.9943655645495
 23
-46.08472020358606
 33
0.0
  0
SOLID
  5
AA
330
4B
100
AcDbEntity
  8
LAYER_3
 62
   253
100
AcDbTrace
 10
107.9943655645495
 20
-46.08472020358606
 30
0.0
 11
105.947499561976
 21
-39.28801271997904
 31
0.0
 12
107.9943655645495
 22
-40.12033973400528
 32
0.0
 13
107.9943655645495
 23
-40.12033973400528
 33
0.0
  0
SOLID
  5
AB
330
4B
100
AcDbEntity
  8
LAYER_3
 62
   253
100
AcDbTrace
 10
107.9943655645495
 20
-46.08472020358606
 30
0.0
 11
107.9943655645495
 21
-40.12033973400528
 31
0.0
 12
112.3036019216769
 22
-47.97286830538305
 32
0.0
 13
112.3036019216769
 23
-47.97286830538305
 33
0.0
  0
SOLID
  5
AC
330
4B
100
AcDbEntity
  8
LAYER_3
 62
   253
100
AcDbTrace
 10
112.3036019216769
 20
-47.97286830538305
 30
0.0
 11
107.9943655645495
 21
-40.12033973400528
 31
0.0
 12
112.3036019216769
 22
-41.87262533811981
 32
0.0
 13
112.3036019216769
 23
-41.87262533811981
 33
0.0
  0
SOLID
  5
AD
330
4B
100
AcDbEntity
  8
LAYER_3
 62
   253
100
AcDbTrace
 10
112.3036019216769
 20
-47.97286830538305
 30
0.0
 11
112.3036019216769
 21
-41.87262533811981
 31
0.0
 12
114.276233547056
 22
-49.07751411636923
 32
0.0
 13
114.276233547056
 23
-49.07751411636923
 33
0.0
  0
SOLID
  5
AE
330
4B
100
AcDbEntity
  8
LAYER_3
 62
   253
100
AcDbTrace
 10
114.276233547056
 20
-49.07751411636923
 30
0.0
 11
112.3036019216769
 21
-41.87262533811981
 31
0.0
 12
114.276233547056
 22
-42.67476606861275
 32
0.0
 13
114.276233547056
 23
-42.67476606861275
 33
0.0
  0
SOLID
  5
AF
330
4B
100
AcDbEntity
  8
LAYER_3
 62
   253
100
AcDbTrace
 10
114.276233547056
 20
-49.07751411636923
 30
0.0
 11
114.276233547056
 21
-42.67476606861275
 31
0.0
 12
116.2038408077981
 22
-50.15694691994504
 32
0.0
 13
116.2038408077981
 23
-50.15694691994504
 33
0.0
  0
SOLID
  5
B0
330
4B
100
AcDbEntity
  8
LAYER_3
 62
   253
100
AcDbTrace
 10
116.2038408077981
 20
-50.15694691994504
 30
0.0
 11
114.276233547056
 21
-42.67476606861275
 31
0.0
 12
116.2038408077981
 22
-43.80825028472733
 32
0.0
 13
116.2038408077981
 23
-43.80825028472733
 33
0.0
  0
SOLID
  5
B1
330
4B
100
AcDbEntity
  8
LAYER_3
 62
   253
100
AcDbTrace
 10
116.2038408077981
 20
-50.15694691994504
 30
0.0
 11
116.2038408077981
 21
-43.80825028472733
 31
0.0
 12
119.6706516176928
 22
-52.50090520005
 32
0.0
 13
119.6706516176928
 23
-52.50090520005
 33
0.0
  0
SOLID
  5
B2
330
4B
100
AcDbEntity
  8
LAYER_3
 62
   253
100
AcDbTrace
 10
119.6706516176928
 20
-52.50090520005
 30
0.0
 11
116.2038408077981
 21
-43.80825028472733
 31
0.0
 12
119.6706516176928
 22
-45.84682702870489
 32
0.0
 13
119.6706516176928
 23
-45.84682702870489
 33
0.0
  0
SOLID
  5
B3
330
4B
100
AcDbEntity
  8
LAYER_3
 62
   253
100
AcDbTrace
 10
119.6706516176928
 20
-52.50090520005
 30
0.0
 11
119.6706516176928
 21
-45.84682702870489
 31
0.0
 12
121.248523842499
 22
-53.74255522882162
 32
0.0
 13
121.248523842499
 23
-53.74255522882162
 33
0.0
  0
SOLID
  5
B4
330
4B
100
AcDbEntity
  8
LAYER_3
 62
   253
100
AcDbTrace
 10
121.248523842499
 20
-53.74255522882162
 30
0.0
 11
119.6706516176928
 21
-45.84682702870489
 31
0.0
 12
121.248523842499
 22
-46.77465776388009
 32
0.0
 13
121.248523842499
 23
-46.77465776388009
 33
0.0
  0
SOLID
  5
B5
330
4B
100
AcDbEntity
  8
LAYER_3
 62
   253
100
AcDbTrace
 10
121.248523842499
 20
-53.74255522882162
 30
0.0
 11
121.248523842499
 21
-46.77465776388009
 31
0.0
 12
122.6796037461417
 22
-54.86869229847615
 32
0.0
 13
122.6796037461417
 23
-54.86869229847615
 33
0.0
  0
SOLID
  5
B6
330
4B
100
AcDbEntity
  8
LAYER_3
 62
   253
100
AcDbTrace
 10
122.6796037461417
 20
-54.86869229847615
 30
0.0
 11
121.248523842499
 21
-46.77465776388009
 31
0.0
 12
122.6796037461417
 22
-47.78553823870152
 32
0.0
 13
122.6796037461417
 23
-47.78553823870152
 33
0.0
  0
SOLID
  5
B7
330
4B
100
AcDbEntity
  8
LAYER_3
 62
   253
100
AcDbTrace
 10
122.6796037461417
 20
-54.86869229847615
 30
0.0
 11
122.6796037461417
 21
-47.78553823870152
 31
0.0
 12
124.0942129297793
 22
-56.13152127940648
 32
0.0
 13
124.0942129297793
 23
-56.13152127940648
 33
0.0
  0
SOLID
  5
B8
330
4B
100
AcDbEntity
  8
LAYER_3
 62
   253
100
AcDbTrace
 10
124.0942129297793
 20
-56.13152127940648
 30
0.0
 11
122.6796037461417
 21
-47.78553823870152
 31
0.0
 12
124.0942129297793
 22
-48.78478419247562
 32
0.0
 13
124.0942129297793
 23
-48.78478419247562
 33
0.0
  0
SOLID
  5
B9
330
4B
100
AcDbEntity
  8
LAYER_3
 62
   253
100
AcDbTrace
 10
124.0942129297793
 20
-56.13152127940648
 30
0.0
 11
124.0942129297793
 21
-48.78478419247562
 31
0.0
 12
125.2062665879243
 22
-57.12425736800154
 32
0.0
 13
125.2062665879243
 23
-57.12425736800154
 33
0.0
  0
SOLID
  5
BA
330
4B
100
AcDbEntity
  8
LAYER_3
 62
   253
100
AcDbTrace
 10
125.2062665879243
 20
-57.12425736800154
 30
0.0
 11
124.0942129297793
 21
-48.78478419247562
 31
0.0
 12
125.2062665879243
 22
-49.64647508973859
 32
0.0
 13
125.2062665879243
 23
-49.64647508973859
 33
0.0
  0
SOLID
  5
BB
330
4B
100
AcDbEntity
  8
LAYER_3
 62
   253
100
AcDbTrace
 10
125.2062665879243
 20
-57.12425736800154
 30
0.0
 11
125.2062665879243
 21
-49.64647508973859
 31
0.0
 12
126.442643482459
 22
-58.35289092353313
 32
0.0
 13
126.442643482459
 23
-58.35289092353313
 33
0.0
  0
SOLID
  5
BC
330
4B
100
AcDbEntity
  8
LAYER_3
 62
   253
100
AcDbTrace
 10
126.442643482459
 20
-58.35289092353313
 30
0.0
 11
125.2062665879243
 21
-49.64647508973859
 31
0.0
 12
126.442643482459
 22
-50.60449964889872
 32
0.0
 13
126.442643482459
 23
-50.60449964889872
 33
0.0
  0
SOLID
  5
BD
330
4B
100
AcDbEntity
  8
LAYER_3
 62
   253
100
AcDbTrace
 10
126.442643482459
 20
-58.35289092353313
 30
0.0
 11
126.442643482459
 21
-50.60449964889872
 31
0.0
 12
127.2262095378213
 22
-59.13154956140426
 32
0.0
 13
127.2262095378213
 23
-59.13154956140426
 33
0.0
  0
SOLID
  5
BE
330
4B
100
AcDbEntity
  8
LAYER_3
 62
   253
100
AcDbTrace
 10
127.2262095378213
 20
-59.13154956140426
 30
0.0
 11
126.442643482459
 21
-50.60449964889872
 31
0.0
 12
127.2262095378213
 22
-51.26082289660691
 32
0.0
 13
127.2262095378213
 23
-51.26082289660691
 33
0.0
  0
SOLID
  5
BF
330
4B
100
AcDbEntity
  8
LAYER_3
 62
   253
100
AcDbTrace
 10
127.2262095378213
 20
-59.13154956140426
 30
0.0
 11
127.2262095378213
 21
-51.26082289660691
 31
0.0
 12
128.2410996298069
 22
-60.2379056668363
 32
0.0
 13
128.2410996298069
 23
-60.2379056668363
 33
0.0
  0
SOLID
  5
C0
330
4B
100
AcDbEntity
  8
LAYER_3
 62
   253
100
AcDbTrace
 10
128.2410996298069
 20
-60.2379056668363
 30
0.0
 11
127.2262095378213
 21
-51.26082289660691
 31
0.0
 12
128.2410996298069
 22
-52.11090561353981
 32
0.0
 13
128.2410996298069
 23
-52.11090561353981
 33
0.0
  0
SOLID
  5
C1
330
4B
100
AcDbEntity
  8
LAYER_3
 62
   253
100
AcDbTrace
 10
128.2410996298069
 20
-60.2379056668363
 30
0.0
 11
128.2410996298069
 21
-52.11090561353981
 31
0.0
 12
128.7150019906132
 22
-60.75451803146282
 32
0.0
 13
128.7150019906132
 23
-60.75451803146282
 33
0.0
  0
SOLID
  5
C2
330
4B
100
AcDbEntity
  8
LAYER_3
 62
   253
100
AcDbTrace
 10
128.7150019906132
 20
-60.75451803146282
 30
0.0
 11
128.2410996298069
 21
-52.11090561353981
 31
0.0
 12
128.7150019906132
 22
-52.53504327188352
 32
0.0
 13
128.7150019906132
 23
-52.53504327188352
 33
0.0
  0
SOLID
  5
C3
330
4B
100
AcDbEntity
  8
LAYER_3
 62
   253
100
AcDbTrace
 10
128.7150019906132
 20
-60.75451803146282
 30
0.0
 11
128.7150019906132
 21
-52.53504327188352
 31
0.0
 12
129.4368655010927
 22
-61.60740339609491
 32
0.0
 13
129.4368655010927
 23
-61.60740339609491
 33
0.0
  0
SOLID
  5
C4
330
4B
100
AcDbEntity
  8
LAYER_3
 62
   253
100
AcDbTrace
 10
129.4368655010927
 20
-61.60740339609491
 30
0.0
 11
128.7150019906132
 21
-52.53504327188352
 31
0.0
 12
129.4368655010927
 22
-53.18110356678832
 32
0.0
 13
129.4368655010927
 23
-53.18110356678832
 33
0.0
  0
SOLID
  5
C5
330
4B
100
AcDbEntity
  8
LAYER_3
 62
   253
100
AcDbTrace
 10
129.4368655010927
 20
-61.60740339609491
 30
0.0
 11
129.4368655010927
 21
-53.18110356678832
 31
0.0
 12
129.6482133410789
 22
-61.85711193095501
 32
0.0
 13
129.6482133410789
 23
-61.85711193095501
 33
0.0
  0
SOLID
  5
C6
330
4B
100
AcDbEntity
  8
LAYER_3
 62
   253
100
AcDbTrace
 10
129.6482133410789
 20
-61.85711193095501
 30
0.0
 11
129.4368655010927
 21
-53.18110356678832
 31
0.0
 12
129.6482133410789
 22
-53.3810038614087
 32
0.0
 13
129.6482133410789
 23
-53.3810038614087
 33
0.0
  0
SOLID
  5
C7
330
4B
100
AcDbEntity
  8
LAYER_3
 62
   253
100
AcDbTrace
 10
129.6482133410789
 20
-61.85711193095501
 30
0.0
 11
129.6482133410789
 21
-53.3810038614087
 31
0.0
 12
129.9772252255856
 22
-62.27272597789793
 32
0.0
 13
129.9772252255856
 23
-62.27272597789793
 33
0.0
  0
SOLID
  5
C8
330
4B
100
AcDbEntity
  8
LAYER_3
 62
   253
100
AcDbTrace
 10
129.9772252255856
 20
-62.27272597789793
 30
0.0
 11
129.6482133410789
 21
-53.3810038614087
 31
0.0
 12
129.9772252255856
 22
-53.69219498903407
 32
0.0
 13
129.9772252255856
 23
-53.69219498903407
 33
0.0
  0
SOLID
  5
C9
330
4B
100
AcDbEntity
  8
LAYER_3
 62
   253
100
AcDbTrace
 10
129.9772252255856
 20
-62.27272597789793
 30
0.0
 11
129.9772252255856
 21
-53.69219498903407
 31
0.0
 12
130.0014129839993
 22
-62.30328041265908
 32
0.0
 13
130.0014129839993
 23
-62.30328041265908
 33
0.0
  0
SOLID
  5
CA
330
4B
100
AcDbEntity
  8
LAYER_3
 62
   253
100
AcDbTrace
 10
130.0014129839993
 20
-62.30328041265908
 30
0.0
 11
129.9772252255856
 21
-53.69219498903407
 31
0.0
 12
130.0014129839993
 22
-54.20234385149026
 32
0.0
 13
130.0014129839993
 23
-54.20234385149026
 33
0.0
  0
SOLID
  5
CB
330
4B
100
AcDbEntity
  8
LAYER_3
 62
   253
100
AcDbTrace
 10
130.0014129839993
 20
-62.30328041265908
 30
0.0
 11
130.0014129839993
 21
-54.20234385149026
 31
0.0
 12
130.003916797865
 22
-61.57273425556993
 32
0.0
 13
130.003916797865
 23
-61.57273425556993
 33
0.0
  0
SOLID
  5
CC
330
4B
100
AcDbEntity
  8
LAYER_3
 62
   253
100
AcDbTrace
 10
130.003916797865
 20
-61.57273425556993
 30
0.0
 11
130.0014129839993
 21
-54.20234385149026
 31
0.0
 12
130.003916797865
 22
-54.25515229175811
 32
0.0
 13
130.003916797865
 23
-54.25515229175811
 33
0.0
  0
ENDBLK
  5
CE
330
4B
100
AcDbEntity
  8
0
100
AcDbBlockEnd
  0
ENDSEC
  0
SECTION
  2
ENTITIES
  0
SPLINE
  5
43
330
1F
100
AcDbEntity
  8
LAYER_3
 62
     7
100
AcDbSpline
210
0.0
220
0.0
230
1.0
 70
    11
 71
     3
 72
   269
 73
   265
 74
     0
 42
0.0000000001
 43
0.0000000001
 12
1.0
 22
0.0
 32
0.0
 13
1.0
 23
0.0
 33
0.0
 40
0.0
 40
0.0
 40
0.0
 40
0.0
 40
1.0
 40
1.0
 40
1.0
 40
2.0
 40
2.0
 40
2.0
 40
3.0
 40
3.0
 40
3.0
 40
4.0
 40
4.0
 40
4.0
 40
5.0
 40
5.0
 40
5.0
 40
6.0
 40
6.0
 40
6.0
 40
7.0
 40
7.0
 40
7.0
 40
8.0
 40
8.0
 40
8.0
 40
9.0
 40
9.0
 40
9.0
 40
10.0
 40
10.0
 40
10.0
 40
11.0
 40
11.0
 40
11.0
 40
12.0
 40
12.0
 40
12.0
 40
13.0
 40
13.0
 40
13.0
 40
14.0
 40
14.0
 40
14.0
 40
15.0
 40
15.0
 40
15.0
 40
16.0
 40
16.0
 40
16.0
 40
17.0
 40
17.0
 40
17.0
 40
18.0
 40
18.0
 40
18.0
 40
19.0
 40
19.0
 40
19.0
 40
20.0
 40
20.0
 40
20.0
 40
21.0
 40
21.0
 40
21.0
 40
22.0
 40
22.0
 40
22.0
 40
23.0
 40
23.0
 40
23.0
 40
24.0
 40
24.0
 40
24.0
 40
25.0
 40
25.0
 40
25.0
 40
26.0
 40
26.0
 40
26.0
 40
27.0
 40
27.0
 40
27.0
 40
28.0
 40
28.0
 40
28.0
 40
29.0
 40
29.0
 40
29.0
 40
30.0
 40
30.0
 40
30.0
 40
31.0
 40
31.0
 40
31.0
 40
32.0
 40
32.0
 40
32.0
 40
33.0
 40
33.0
 40
33.0
 40
34.0
 40
34.0
 40
34.0
 40
35.0
 40
35.0
 40
35.0
 40
36.0
 40
36.0
 40
36.0
 40
37.0
 40
37.0
 40
37.0
 40
38.0
 40
38.0
 40
38.0
 40
39.0
 40
39.0
 40
39.0
 40
40.0
 40
40.0
 40
40.0
 40
41.0
 40
41.0
 40
41.0
 40
42.0
 40
42.0
 40
42.0
 40
43.0
 40
43.0
 40
43.0
 40
44.0
 40
44.0
 40
44.0
 40
45.0
 40
45.0
 40
45.0
 40
46.0
 40
46.0
 40
46.0
 40
47.0
 40
47.0
 40
47.0
 40
48.0
 40
48.0
 40
48.0
 40
49.0
 40
49.0
 40
49.0
 40
50.0
 40
50.0
 40
50.0
 40
51.0
 40
51.0
 40
51.0
 40
52.0
 40
52.0
 40
52.0
 40
53.0
 40
53.0
 40
53.0
 40
54.0
 40
54.0
 40
54.0
 40
55.0
 40
55.0
 40
55.0
 40
56.0
 40
56.0
 40
56.0
 40
57.0
 40
57.0
 40
57.0
 40
58.0
 40
58.0
 40
58.0
 40
59.0
 40
59.0
 40
59.0
 40
60.0
 40
60.0
 40
60.0
 40
61.0
 40
61.0
 40
61.0
 40
62.0
 40
62.0
 40
62.0
 40
63.0
 40
63.0
 40
63.0
 40
64.0
 40
64.0
 40
64.0
 40
65.0
 40
65.0
 40
65.0
 40
66.0
 40
66.0
 40
66.0
 40
67.0
 40
67.0
 40
67.0
 40
68.0
 40
68.0
 40
68.0
 40
69.0
 40
69.0
 40
69.0
 40
70.0
 40
70.0
 40
70.0
 40
71.0
 40
71.0
 40
71.0
 40
72.0
 40
72.0
 40
72.0
 40
73.0
 40
73.0
 40
73.0
 40
74.0
 40
74.0
 40
74.0
 40
75.0
 40
75.0
 40
75.0
 40
76.0
 40
76.0
 40
76.0
 40
77.0
 40
77.0
 40
77.0
 40
78.0
 40
78.0
 40
78.0
 40
79.0
 40
79.0
 40
79.0
 40
80.0
 40
80.0
 40
80.0
 40
81.0
 40
81.0
 40
81.0
 40
82.0
 40
82.0
 40
82.0
 40
83.0
 40
83.0
 40
83.0
 40
84.0
 40
84.0
 40
84.0
 40
85.0
 40
85.0
 40
85.0
 40
86.0
 40
86.0
 40
86.0
 40
87.0
 40
87.0
 40
87.0
 40
88.0
 40
88.0
 40
88.0
 40
88.0
 10
44.51262401556491
 20
-57.67916665224688
 30
0.0
 10
45.45614931871825
 20
-56.90678599272857
 30
0.0
 10
46.60769699686301
 20
-56.01257701917105
 30
0.0
 10
47.94350686651755
 20
-55.03911456376775
 30
0.0
 10
49.27931673617177
 20
-54.06565210836443
 30
0.0
 10
50.79938879733575
 20
-53.01293617111468
 30
0.0
 10
52.47996286652786
 20
-51.92354158421188
 30
0.0
 10
54.16053693571998
 20
-50.83414699730876
 30
0.0
 10
56.00161301294022
 20
-49.70807376075227
 30
0.0
 10
57.97943091470695
 20
-48.58789670673517
 30
0.0
 10
59.95724881647399
 20
-47.46771965271775
 30
0.0
 10
62.07180854278752
 20
-46.35343878123972
 30
0.0
 10
64.2993499101662
 20
-45.28762892449353
 30
0.0
 10
66.52689127754489
 20
-44.22181906774732
 30
0.0
 10
68.86741428598873
 20
-43.20448022573294
 30
0.0
 10
71.29715875201641
 20
-42.27818723064314
 30
0.0
 10
73.72690321804345
 20
-41.35189423555335
 30
0.0
 10
76.24586914165431
 20
-40.5166470873878
 30
0.0
 10
78.83029633936704
 20
-39.8150206183396
 30
0.0
 10
81.41472353707977
 20
-39.1133941492914
 30
0.0
 10
84.06461200889437
 20
-38.54538835936021
 30
0.0
 10
86.75620157132951
 20
-38.15357808073912
 30
0.0
 10
89.44779113376529
 20
-37.7617678021177
 30
0.0
 10
92.18108178682098
 20
-37.54615303480638
 30
0.0
 10
94.93231334701524
 20
-37.54930861099727
 30
0.0
 10
97.27813967111724
 20
-37.55199920011511
 30
0.0
 10
99.58550321811279
 20
-37.80665903603972
 30
0.0
 10
101.8273661459653
 20
-38.25025376661487
 30
0.0
 10
104.0692290738177
 20
-38.69384849718969
 30
0.0
 10
106.2455913825265
 20
-39.32637812241504
 30
0.0
 10
108.3294152300542
 20
-40.08480829013338
 30
0.0
 10
110.413239077582
 20
-40.84323845785173
 30
0.0
 10
112.4045244639288
 20
-41.72756916806403
 30
0.0
 10
114.276233547056
 20
-42.67476606861275
 30
0.0
 10
116.1479426301839
 20
-43.6219629691618
 30
0.0
 10
117.900075410093
 20
-44.63202606004727
 30
0.0
 10
119.5055940447459
 20
-45.64192098911324
 30
0.0
 10
121.1111126793987
 20
-46.6518159181792
 30
0.0
 10
122.5700171687949
 20
-47.66154268542503
 30
0.0
 10
123.8552696708969
 20
-48.60806693869446
 30
0.0
 10
125.140522172999
 20
-49.55459119196356
 30
0.0
 10
126.2521226878077
 20
-50.43791293125627
 30
0.0
 10
127.1630333732845
 20
-51.19499780441601
 30
0.0
 10
128.0739440587612
 20
-51.95208267757576
 30
0.0
 10
128.7841649149061
 20
-52.5829306846019
 30
0.0
 10
129.2666580996823
 20
-53.0245074733385
 30
0.0
 10
129.7491512844586
 20
-53.46608426207511
 30
0.0
 10
130.003916797865
 20
-53.71838983252153
 30
0.0
 10
130.003916797865
 20
-53.71838983252153
 30
0.0
 10
130.003916797865
 20
-53.71838983252153
 30
0.0
 10
130.003916797865
 20
-54.79191475099469
 30
0.0
 10
130.003916797865
 20
-54.79191475099469
 30
0.0
 10
130.003916797865
 20
-54.79191475099469
 30
0.0
 10
130.003916797865
 20
-55.86543966946785
 30
0.0
 10
130.003916797865
 20
-55.86543966946785
 30
0.0
 10
130.003916797865
 20
-55.86543966946785
 30
0.0
 10
130.003916797865
 20
-56.93896458794133
 30
0.0
 10
130.003916797865
 20
-56.93896458794133
 30
0.0
 10
130.003916797865
 20
-56.93896458794133
 30
0.0
 10
130.003916797865
 20
-58.01248950641448
 30
0.0
 10
130.003916797865
 20
-58.01248950641448
 30
0.0
 10
130.003916797865
 20
-58.01248950641448
 30
0.0
 10
130.003916797865
 20
-59.08601442488764
 30
0.0
 10
130.003916797865
 20
-59.08601442488764
 30
0.0
 10
130.003916797865
 20
-59.08601442488764
 30
0.0
 10
130.003916797865
 20
-60.15953934336112
 30
0.0
 10
130.003916797865
 20
-60.15953934336112
 30
0.0
 10
130.003916797865
 20
-60.15953934336112
 30
0.0
 10
130.003916797865
 20
-61.23306426183428
 30
0.0
 10
130.003916797865
 20
-61.23306426183428
 30
0.0
 10
130.003916797865
 20
-61.23306426183428
 30
0.0
 10
130.003916797865
 20
-62.30658918030744
 30
0.0
 10
130.003916797865
 20
-62.30658918030744
 30
0.0
 10
130.003916797865
 20
-62.30658918030744
 30
0.0
 10
129.7899969646969
 20
-62.02278725454276
 30
0.0
 10
129.3746876964292
 20
-61.52496355205156
 30
0.0
 10
128.9593784281615
 20
-61.02713984956069
 30
0.0
 10
128.3426797247949
 20
-60.31529437034332
 30
0.0
 10
127.5371219843974
 20
-59.45920726343794
 30
0.0
 10
126.731564244
 20
-58.60312015653289
 30
0.0
 10
125.737147466573
 20
-57.60279142193983
 30
0.0
 10
124.5664020501856
 20
-56.52800120869728
 30
0.0
 10
123.3956566337977
 20
-55.45321099545473
 30
0.0
 10
122.0485825784488
 20
-54.30395930356269
 30
0.0
 10
120.5377102822083
 20
-53.15002628205965
 30
0.0
 10
119.0268379859678
 20
-51.99609326055629
 30
0.0
 10
117.3521674488357
 20
-50.83747890944225
 30
0.0
 10
115.5262290688812
 20
-49.74396337775541
 30
0.0
 10
113.7002906889261
 20
-48.65044784606857
 30
0.0
 10
111.7230844661493
 20
-47.62203113380892
 30
0.0
 10
109.6071407986189
 20
-46.72849339001529
 30
0.0
 10
107.4911971310884
 20
-45.83495564622166
 30
0.0
 10
105.2365160188043
 20
-45.07629687089339
 30
0.0
 10
102.8556278598364
 20
-44.52229721306966
 30
0.0
 10
100.4747397008679
 20
-43.96829755524591
 30
0.0
 10
97.96764449521567
 20
-43.61895701492669
 30
0.0
 10
95.346872640949
 20
-43.54405574114953
 30
0.0
 10
93.12691484836179
 20
-43.48060967424917
 30
0.0
 10
90.90194687838608
 20
-43.56448932883882
 30
0.0
 10
88.68637065211387
 20
-43.78030645699204
 30
0.0
 10
86.47079442584163
 20
-43.99612358514527
 30
0.0
 10
84.26460994327351
 20
-44.34387818686142
 30
0.0
 10
82.08221912550275
 20
-44.80818201421504
 30
0.0
 10
79.89982830773135
 20
-45.27248584156866
 30
0.0
 10
77.74123115475794
 20
-45.85333889455942
 30
0.0
 10
75.62082958767449
 20
-46.53535292526057
 30
0.0
 10
73.50042802059106
 20
-47.21736695596203
 30
0.0
 10
71.41822203939822
 20
-48.00054196437388
 30
0.0
 10
69.38861356518858
 20
-48.86948970257032
 30
0.0
 10
67.35900509097958
 20
-49.73843744076676
 30
0.0
 10
65.3819941237538
 20
-50.69315790874715
 30
0.0
 10
63.47198258460446
 20
-51.71826285858602
 30
0.0
 10
61.56197104545544
 20
-52.74336780842457
 30
0.0
 10
59.7189589343832
 20
-53.83885724012128
 30
0.0
 10
57.95734817248098
 20
-54.98934290574939
 30
0.0
 10
56.19573741057843
 20
-56.13982857137782
 30
0.0
 10
54.51552799784622
 20
-57.34531047093733
 30
0.0
 10
52.93112185537663
 20
-58.59040035650246
 30
0.0
 10
51.34671571290705
 20
-59.83549024206758
 30
0.0
 10
49.85811284070072
 20
-61.12018811363767
 30
0.0
 10
48.4797151598509
 20
-62.42910572328694
 30
0.0
 10
47.91285834582131
 20
-62.96738932339793
 30
0.0
 10
47.3578387904109
 20
-63.45122450323538
 30
0.0
 10
46.81533192085633
 20
-63.8858126866159
 30
0.0
 10
46.27282505130143
 20
-64.32040086999642
 30
0.0
 10
45.74283086760238
 20
-64.70574205692033
 30
0.0
 10
45.22602479699612
 20
-65.04703767120328
 30
0.0
 10
44.70921872638987
 20
-65.3883332854869
 30
0.0
 10
44.20560076887578
 20
-65.68558332713017
 30
0.0
 10
43.71584635169146
 20
-65.94398921995008
 30
0.0
 10
43.22609193450715
 20
-66.20239511276935
 30
0.0
 10
42.75020105765228
 20
-66.42195685676525
 30
0.0
 10
42.28884914836384
 20
-66.60787587575406
 30
0.0
 10
41.82749723907541
 20
-66.79379489474289
 30
0.0
 10
41.38068429735306
 20
-66.94607118872462
 30
0.0
 10
40.94908575043444
 20
-67.06990618151687
 30
0.0
 10
40.51748720351549
 20
-67.19374117430847
 30
0.0
 10
40.10110305139994
 20
-67.28913486590993
 30
0.0
 10
39.70060872132442
 20
-67.36128868013819
 30
0.0
 10
39.30011439124891
 20
-67.43344249436645
 30
0.0
 10
38.91550988321343
 20
-67.48235643122023
 30
0.0
 10
38.54747062445497
 20
-67.51323191451773
 30
0.0
 10
38.17943136569682
 20
-67.5441073978146
 30
0.0
 10
37.82795735621537
 20
-67.55694442755521
 30
0.0
 10
37.49372402324789
 20
-67.55694442755521
 30
0.0
 10
37.07593235703862
 20
-67.55694442755521
 30
0.0
 10
36.68282553510146
 20
-67.5481216798672
 30
0.0
 10
36.31036913666146
 20
-67.52758354299998
 30
0.0
 10
35.93791273822178
 20
-67.50704540613341
 30
0.0
 10
35.58610676327959
 20
-67.47479188008766
 30
0.0
 10
35.25091679106061
 20
-67.42793032337349
 30
0.0
 10
34.91572681884131
 20
-67.38106876665933
 30
0.0
 10
34.59715284934553
 20
-67.31959917927608
 30
0.0
 10
34.29116046179869
 20
-67.24062891973325
 30
0.0
 10
33.98516807425184
 20
-67.16165866019107
 30
0.0
 10
33.69175726865359
 20
-67.06518772848929
 30
0.0
 10
33.40689362422999
 20
-66.94832348313741
 30
0.0
 10
33.1220299798067
 20
-66.83145923778554
 30
0.0
 10
32.84571349655742
 20
-66.69420167878484
 30
0.0
 10
32.57390975370848
 20
-66.53365816464286
 30
0.0
 10
32.30210601085955
 20
-66.37311465050152
 30
0.0
 10
32.03481500841065
 20
-66.18928518122019
 30
0.0
 10
31.76800232558751
 20
-65.97927711530835
 30
0.0
 10
31.50118964276469
 20
-65.76926904939651
 30
0.0
 10
31.2348552795673
 20
-65.53308238685354
 30
0.0
 10
30.96496481522138
 20
-65.26782448619079
 30
0.0
 10
30.69507435087577
 20
-65.00256658552806
 30
0.0
 10
30.42162778538099
 20
-64.70823744674429
 30
0.0
 10
30.14059069796372
 20
-64.38194442834896
 30
0.0
 10
29.72279903175414
 20
-63.89687498402579
 30
0.0
 10
29.31545215720021
 20
-63.36219616471501
 30
0.0
 10
28.92246687117227
 20
-62.79788952423109
 30
0.0
 10
28.529481585144
 20
-62.23358288374716
 30
0.0
 10
28.15085788764172
 20
-61.63964842209009
 30
0.0
 10
27.79051257553636
 20
-61.03606769307432
 30
0.0
 10
27.43016726343068
 20
-60.43248696405855
 30
0.0
 10
27.08810033672194
 20
-59.81925996768408
 30
0.0
 10
26.76822859228012
 20
-59.21636825776535
 30
0.0
 10
26.44835684783894
 20
-58.61347654784663
 30
0.0
 10
26.15068028566469
 20
-58.02092012438366
 30
0.0
 10
25.87911570262863
 20
-57.45868054119089
 30
0.0
 10
25.60755111959257
 20
-56.89644095799812
 30
0.0
 10
25.36209851569472
 20
-56.36451821507554
 30
0.0
 10
25.14667468780538
 20
-55.88289386623761
 30
0.0
 10
24.93125085991603
 20
-55.40126951739968
 30
0.0
 10
24.74585580803585
 20
-54.96994356264641
 30
0.0
 10
24.59440632903512
 20
-54.60889755579223
 30
0.0
 10
24.44295685003408
 20
-54.24785154893804
 30
0.0
 10
24.3254529439125
 20
-53.95708548998295
 30
0.0
 10
24.24581140754135
 20
-53.75658093274141
 30
0.0
 10
24.16616987117019
 20
-53.55607637549987
 30
0.0
 10
24.12439070454946
 20
-53.44583331997188
 30
0.0
 10
24.12439070454946
 20
-53.44583331997188
 30
0.0
 10
24.12439070454946
 20
-53.44583331997188
 30
0.0
 10
24.17346981342948
 20
-53.49764891403624
 30
0.0
 10
24.26510267494999
 20
-53.59287355994322
 30
0.0
 10
24.3567355364705
 20
-53.6880982058502
 30
0.0
 10
24.49092215063084
 20
-53.82673190360013
 30
0.0
 10
24.66113716119149
 20
-54.00036811097159
 30
0.0
 10
24.83135217175213
 20
-54.17400431834336
 30
0.0
 10
25.03759557871308
 20
-54.38264303533667
 30
0.0
 10
25.27334202583446
 20
-54.61787771973041
 30
0.0
 10
25.50908847295552
 20
-54.85311240412415
 30
0.0
 10
25.77433796023702
 20
-55.114943055918
 30
0.0
 10
26.06256513143845
 20
-55.39496313289119
 30
0.0
 10
26.35079230263988
 20
-55.67498320986438
 30
0.0
 10
26.6619971577619
 20
-55.97319271201659
 30
0.0
 10
26.98965434056397
 20
-56.28118509712672
 30
0.0
 10
27.31731152336605
 20
-56.58917748223653
 30
0.0
 10
27.6614210338482
 20
-56.90695275030459
 30
0.0
 10
28.01545751577088
 20
-57.22610435910915
 30
0.0
 10
28.36949399769356
 20
-57.54525596791371
 30
0.0
 10
28.73345745105645
 20
-57.86578391745478
 30
0.0
 10
29.10082251961969
 20
-58.17928166551126
 30
0.0
 10
29.46818758818292
 20
-58.49277941356775
 30
0.0
 10
29.83895427194651
 20
-58.79924696013932
 30
0.0
 10
30.20659721467057
 20
-59.09027776300521
 30
0.0
 10
30.20659721467057
 20
-59.09027776300521
 30
0.0
 10
30.24916955944535
 20
-59.12314879022698
 30
0.0
 10
30.33007954339926
 20
-59.18099244048132
 30
0.0
 10
30.41098952735285
 20
-59.23883609073534
 30
0.0
 10
30.53023715048559
 20
-59.32165236402193
 30
0.0
 10
30.68358770720121
 20
-59.42154285615159
 30
0.0
 10
30.83693826391682
 20
-59.52143334828125
 30
0.0
 10
31.024391754215
 20
-59.63839805925333
 30
0.0
 10
31.24171347250075
 20
-59.76453858487928
 30
0.0
 10
31.45903519078618
 20
-59.89067911050523
 30
0.0
 10
31.70622513705855
 20
-60.02599545078473
 30
0.0
 10
31.97904860572222
 20
-60.16258920152828
 30
0.0
 10
32.25187207438589
 20
-60.29918295227181
 30
0.0
 10
32.55032906544056
 20
-60.4370541134794
 30
0.0
 10
32.87018487329026
 20
-60.56830428096151
 30
0.0
 10
33.19004068113997
 20
-60.69955444844362
 30
0.0
 10
33.53129530578472
 20
-60.82418362220058
 30
0.0
 10
33.88971404162888
 20
-60.93429339804256
 30
0.0
 10
34.24813277747305
 20
-61.04440317388453
 30
0.0
 10
34.623715624516
 20
-61.13999355181152
 30
0.0
 10
35.01222787716242
 20
-61.21316612763466
 30
0.0
 10
35.40074012980883
 20
-61.28633870345748
 30
0.0
 10
35.80218178805872
 20
-61.33709347717612
 30
0.0
 10
36.2123181463155
 20
-61.35753204460108
 30
0.0
 10
36.55957550496594
 20
-61.37483712569347
 30
0.0
 10
36.89964445826471
 20
-61.37132636273049
 30
0.0
 10
37.23515450443215
 20
-61.34681021414968
 30
0.0
 10
37.57066455059991
 20
-61.32229406556886
 30
0.0
 10
37.90161568963633
 20
-61.27677253137023
 30
0.0
 10
38.23063741976334
 20
-61.21005606999167
 30
0.0
 10
38.55965914989035
 20
-61.1433396086131
 30
0.0
 10
38.88675147110732
 20
-61.05542822005395
 30
0.0
 10
39.21454388163584
 20
-60.94613236275276
 30
0.0
 10
39.54233629216404
 20
-60.83683650545123
 30
0.0
 10
39.87082879200381
 20
-60.70615617940733
 30
0.0
 10
40.20265087937641
 20
-60.55390184305862
 30
0.0
 10
40.53447296674902
 20
-60.40164750670991
 30
0.0
 10
40.86962464165384
 20
-60.22781916005638
 30
0.0
 10
41.21073540231247
 20
-60.03222726153527
 30
0.0
 10
41.55184616297141
 20
-59.83663536301449
 30
0.0
 10
41.89891600938353
 20
-59.61927991262645
 30
0.0
 10
42.25457443977106
 20
-59.37997136880841
 30
0.0
 10
42.6102328701586
 20
-59.14066282499068
 30
0.0
 10
42.97447988452092
 20
-58.87940118774326
 30
0.0
 10
43.34994498107962
 20
-58.59599691550371
 30
0.0
 10
43.72541007763833
 20
-58.31259264326416
 30
0.0
 10
44.11209325639278
 20
-58.00704573603281
 30
0.0
 10
44.51262401556491
 20
-57.67916665224688
 30
0.0
  0
INSERT
  5
44
330
1F
100
AcDbEntity
  8
LAYER_3
 62
   253
100
AcDbBlockReference
  2
*U1
 10
0.0
 20
0.0
 30
0.0
1001
ACAD
1002
{
1000
R14_HATCH_DATA
1000
44
1011
1.0
1021
0.0
1031
0.0
1011
0.0
1021
1.0
1031
0.0
1011
0.0
1021
0.0
1031
1.0
1040
0.0
1010
0.0
1020
0.0
1030
1.0
1000
SOLID
1070
     1
1070
     1
1071
        1
1071
        1
1071
        1
1070
     4
1070
     3
1070
     0
1070
     1
1071
      269
1071
      265
1040
0.0
1040
0.0
1040
0.0
1040
0.0
1040
1.0
1040
1.0
1040
1.0
1040
2.0
1040
2.0
1040
2.0
1040
3.0
1040
3.0
1040
3.0
1040
4.0
1040
4.0
1040
4.0
1040
5.0
1040
5.0
1040
5.0
1040
6.0
1040
6.0
1040
6.0
1040
7.0
1040
7.0
1040
7.0
1040
8.0
1040
8.0
1040
8.0
1040
9.0
1040
9.0
1040
9.0
1040
10.0
1040
10.0
1040
10.0
1040
11.0
1040
11.0
1040
11.0
1040
12.0
1040
12.0
1040
12.0
1040
13.0
1040
13.0
1040
13.0
1040
14.0
1040
14.0
1040
14.0
1040
15.0
1040
15.0
1040
15.0
1040
16.0
1040
16.0
1040
16.0
1040
17.0
1040
17.0
1040
17.0
1040
18.0
1040
18.0
1040
18.0
1040
19.0
1040
19.0
1040
19.0
1040
20.0
1040
20.0
1040
20.0
1040
21.0
1040
21.0
1040
21.0
1040
22.0
1040
22.0
1040
22.0
1040
23.0
1040
23.0
1040
23.0
1040
24.0
1040
24.0
1040
24.0
1040
25.0
1040
25.0
1040
25.0
1040
26.0
1040
26.0
1040
26.0
1040
27.0
1040
27.0
1040
27.0
1040
28.0
1040
28.0
1040
28.0
1040
29.0
1040
29.0
1040
29.0
1040
30.0
1040
30.0
1040
30.0
1040
31.0
1040
31.0
1040
31.0
1040
32.0
1040
32.0
1040
32.0
1040
33.0
1040
33.0
1040
33.0
1040
34.0
1040
34.0
1040
34.0
1040
35.0
1040
35.0
1040
35.0
1040
36.0
1040
36.0
1040
36.0
1040
37.0
1040
37.0
1040
37.0
1040
38.0
1040
38.0
1040
38.0
1040
39.0
1040
39.0
1040
39.0
1040
40.0
1040
40.0
1040
40.0
1040
41.0
1040
41.0
1040
41.0
1040
42.0
1040
42.0
1040
42.0
1040
43.0
1040
43.0
1040
43.0
1040
44.0
1040
44.0
1040
44.0
1040
45.0
1040
45.0
1040
45.0
1040
46.0
1040
46.0
1040
46.0
1040
47.0
1040
47.0
1040
47.0
1040
48.0
1040
48.0
1040
48.0
1040
49.0
1040
49.0
1040
49.0
1040
50.0
1040
50.0
1040
50.0
1040
51.0
1040
51.0
1040
51.0
1040
52.0
1040
52.0
1040
52.0
1040
53.0
1040
53.0
1040
53.0
1040
54.0
1040
54.0
1040
54.0
1040
55.0
1040
55.0
1040
55.0
1040
56.0
1040
56.0
1040
56.0
1040
57.0
1040
57.0
1040
57.0
1040
58.0
1040
58.0
1040
58.0
1040
59.0
1040
59.0
1040
59.0
1040
60.0
1040
60.0
1040
60.0
1040
61.0
1040
61.0
1040
61.0
1040
62.0
1040
62.0
1040
62.0
1040
63.0
1040
63.0
1040
63.0
1040
64.0
1040
64.0
1040
64.0
1040
65.0
1040
65.0
1040
65.0
1040
66.0
1040
66.0
1040
66.0
1040
67.0
1040
67.0
1040
67.0
1040
68.0
1040
68.0
1040
68.0
1040
69.0
1040
69.0
1040
69.0
1040
70.0
1040
70.0
1040
70.0
1040
71.0
1040
71.0
1040
71.0
1040
72.0
1040
72.0
1040
72.0
1040
73.0
1040
73.0
1040
73.0
1040
74.0
1040
74.0
1040
74.0
1040
75.0
1040
75.0
1040
75.0
1040
76.0
1040
76.0
1040
76.0
1040
77.0
1040
77.0
1040
77.0
1040
78.0
1040
78.0
1040
78.0
1040
79.0
1040
79.0
1040
79.0
1040
80.0
1040
80.0
1040
80.0
1040
81.0
1040
81.0
1040
81.0
1040
82.0
1040
82.0
1040
82.0
1040
83.0
1040
83.0
1040
83.0
1040
84.0
1040
84.0
1040
84.0
1040
85.0
1040
85.0
1040
85.0
1040
86.0
1040
86.0
1040
86.0
1040
87.0
1040
87.0
1040
87.0
1040
88.0
1040
88.0
1040
88.0
1040
88.0
1040
44.51262401556491
1040
-57.67916665224688
1040
45.45614931871825
1040
-56.90678599272857
1040
46.60769699686301
1040
-56.01257701917105
1040
47.94350686651755
1040
-55.03911456376775
1040
49.27931673617177
1040
-54.06565210836443
1040
50.79938879733575
1040
-53.01293617111468
1040
52.47996286652786
1040
-51.92354158421188
1040
54.16053693571998
1040
-50.83414699730876
1040
56.00161301294022
1040
-49.70807376075227
1040
57.97943091470695
1040
-48.58789670673517
1040
59.95724881647399
1040
-47.46771965271775
1040
62.07180854278752
1040
-46.35343878123972
1040
64.2993499101662
1040
-45.28762892449353
1040
66.52689127754489
1040
-44.22181906774732
1040
68.86741428598873
1040
-43.20448022573294
1040
71.29715875201641
1040
-42.27818723064314
1040
73.72690321804345
1040
-41.35189423555335
1040
76.24586914165431
1040
-40.5166470873878
1040
78.83029633936704
1040
-39.8150206183396
1040
81.41472353707977
1040
-39.1133941492914
1040
84.06461200889437
1040
-38.54538835936021
1040
86.75620157132951
1040
-38.15357808073912
1040
89.44779113376529
1040
-37.7617678021177
1040
92.18108178682098
1040
-37.54615303480638
1040
94.93231334701524
1040
-37.54930861099727
1040
97.27813967111724
1040
-37.55199920011511
1040
99.58550321811279
1040
-37.80665903603972
1040
101.8273661459653
1040
-38.25025376661487
1040
104.0692290738177
1040
-38.69384849718969
1040
106.2455913825265
1040
-39.32637812241504
1040
108.3294152300542
1040
-40.08480829013338
1040
110.413239077582
1040
-40.84323845785173
1040
112.4045244639288
1040
-41.72756916806403
1040
114.276233547056
1040
-42.67476606861275
1040
116.1479426301839
1040
-43.6219629691618
1040
117.900075410093
1040
-44.63202606004727
1040
119.5055940447459
1040
-45.64192098911324
1040
121.1111126793987
1040
-46.6518159181792
1040
122.5700171687949
1040
-47.66154268542503
1040
123.8552696708969
1040
-48.60806693869446
1040
125.140522172999
1040
-49.55459119196356
1040
126.2521226878077
1040
-50.43791293125627
1040
127.1630333732845
1040
-51.19499780441601
1040
128.0739440587612
1040
-51.95208267757576
1040
128.7841649149061
1040
-52.5829306846019
1040
129.2666580996823
1040
-53.0245074733385
1040
129.7491512844586
1040
-53.46608426207511
1040
130.003916797865
1040
-53.71838983252153
1040
130.003916797865
1040
-53.71838983252153
1040
130.003916797865
1040
-53.71838983252153
1040
130.003916797865
1040
-54.79191475099469
1040
130.003916797865
1040
-54.79191475099469
1040
130.003916797865
1040
-54.79191475099469
1040
130.003916797865
1040
-55.86543966946785
1040
130.003916797865
1040
-55.86543966946785
1040
130.003916797865
1040
-55.86543966946785
1040
130.003916797865
1040
-56.93896458794133
1040
130.003916797865
1040
-56.93896458794133
1040
130.003916797865
1040
-56.93896458794133
1040
130.003916797865
1040
-58.01248950641448
1040
130.003916797865
1040
-58.01248950641448
1040
130.003916797865
1040
-58.01248950641448
1040
130.003916797865
1040
-59.08601442488764
1040
130.003916797865
1040
-59.08601442488764
1040
130.003916797865
1040
-59.08601442488764
1040
130.003916797865
1040
-60.15953934336112
1040
130.003916797865
1040
-60.15953934336112
1040
130.003916797865
1040
-60.15953934336112
1040
130.003916797865
1040
-61.23306426183428
1040
130.003916797865
1040
-61.23306426183428
1040
130.003916797865
1040
-61.23306426183428
1040
130.003916797865
1040
-62.30658918030744
1040
130.003916797865
1040
-62.30658918030744
1040
130.003916797865
1040
-62.30658918030744
1040
129.7899969646969
1040
-62.02278725454276
1040
129.3746876964292
1040
-61.52496355205156
1040
128.9593784281615
1040
-61.02713984956069
1040
128.3426797247949
1040
-60.31529437034332
1040
127.5371219843974
1040
-59.45920726343794
1040
126.731564244
1040
-58.60312015653289
1040
125.737147466573
1040
-57.60279142193983
1040
124.5664020501856
1040
-56.52800120869728
1040
123.3956566337977
1040
-55.45321099545473
1040
122.0485825784488
1040
-54.30395930356269
1040
120.5377102822083
1040
-53.15002628205965
1040
119.0268379859678
1040
-51.99609326055629
1040
117.3521674488357
1040
-50.83747890944225
1040
115.5262290688812
1040
-49.74396337775541
1040
113.7002906889261
1040
-48.65044784606857
1040
111.7230844661493
1040
-47.62203113380892
1040
109.6071407986189
1040
-46.72849339001529
1040
107.4911971310884
1040
-45.83495564622166
1040
105.2365160188043
1040
-45.07629687089339
1040
102.8556278598364
1040
-44.52229721306966
1040
100.4747397008679
1040
-43.96829755524591
1040
97.96764449521567
1040
-43.61895701492669
1040
95.346872640949
1040
-43.54405574114953
1040
93.12691484836179
1040
-43.48060967424917
1040
90.90194687838608
1040
-43.56448932883882
1040
88.68637065211387
1040
-43.78030645699204
1040
86.47079442584163
1040
-43.99612358514527
1040
84.26460994327351
1040
-44.34387818686142
1040
82.08221912550275
1040
-44.80818201421504
1040
79.89982830773135
1040
-45.27248584156866
1040
77.74123115475794
1040
-45.85333889455942
1040
75.62082958767449
1040
-46.53535292526057
1040
73.50042802059106
1040
-47.21736695596203
1040
71.41822203939822
1040
-48.00054196437388
1040
69.38861356518858
1040
-48.86948970257032
1040
67.35900509097958
1040
-49.73843744076676
1040
65.3819941237538
1040
-50.69315790874715
1040
63.47198258460446
1040
-51.71826285858602
1040
61.56197104545544
1040
-52.74336780842457
1040
59.7189589343832
1040
-53.83885724012128
1040
57.95734817248098
1040
-54.98934290574939
1040
56.19573741057843
1040
-56.13982857137782
1040
54.51552799784622
1040
-57.34531047093733
1040
52.93112185537663
1040
-58.59040035650246
1040
51.34671571290705
1040
-59.83549024206758
1040
49.85811284070072
1040
-61.12018811363767
1040
48.4797151598509
1040
-62.42910572328694
1040
47.91285834582131
1040
-62.96738932339793
1040
47.3578387904109
1040
-63.45122450323538
1040
46.81533192085633
1040
-63.8858126866159
1040
46.27282505130143
1040
-64.32040086999642
1040
45.74283086760238
1040
-64.70574205692033
1040
45.22602479699612
1040
-65.04703767120328
1040
44.70921872638987
1040
-65.3883332854869
1040
44.20560076887578
1040
-65.68558332713017
1040
43.71584635169146
1040
-65.94398921995008
1040
43.22609193450715
1040
-66.20239511276935
1040
42.75020105765228
1040
-66.42195685676525
1040
42.28884914836384
1040
-66.60787587575406
1040
41.82749723907541
1040
-66.79379489474289
1040
41.38068429735306
1040
-66.94607118872462
1040
40.94908575043444
1040
-67.06990618151687
1040
40.51748720351549
1040
-67.19374117430847
1040
40.10110305139994
1040
-67.28913486590993
1040
39.70060872132442
1040
-67.36128868013819
1040
39.30011439124891
1040
-67.43344249436645
1040
38.91550988321343
1040
-67.48235643122023
1040
38.54747062445497
1040
-67.51323191451773
1040
38.17943136569682
1040
-67.5441073978146
1040
37.82795735621537
1040
-67.55694442755521
1040
37.49372402324789
1040
-67.55694442755521
1040
37.07593235703862
1040
-67.55694442755521
1040
36.68282553510146
1040
-67.5481216798672
1040
36.31036913666146
1040
-67.52758354299998
1040
35.93791273822178
1040
-67.50704540613341
1040
35.58610676327959
1040
-67.47479188008766
1040
35.25091679106061
1040
-67.42793032337349
1040
34.91572681884131
1040
-67.38106876665933
1040
34.59715284934553
1040
-67.31959917927608
1040
34.29116046179869
1040
-67.24062891973325
1040
33.98516807425184
1040
-67.16165866019107
1040
33.69175726865359
1040
-67.06518772848929
1040
33.40689362422999
1040
-66.94832348313741
1040
33.1220299798067
1040
-66.83145923778554
1040
32.84571349655742
1040
-66.69420167878484
1040
32.57390975370848
1040
-66.53365816464286
1040
32.30210601085955
1040
-66.37311465050152
1040
32.03481500841065
1040
-66.18928518122019
1040
31.76800232558751
1040
-65.97927711530835
1040
31.50118964276469
1040
-65.76926904939651
1040
31.2348552795673
1040
-65.53308238685354
1040
30.96496481522138
1040
-65.26782448619079
1040
30.69507435087577
1040
-65.00256658552806
1040
30.42162778538099
1040
-64.70823744674429
1040
30.14059069796372
1040
-64.38194442834896
1040
29.72279903175414
1040
-63.89687498402579
1040
29.31545215720021
1040
-63.36219616471501
1040
28.92246687117227
1040
-62.79788952423109
1040
28.529481585144
1040
-62.23358288374716
1040
28.15085788764172
1040
-61.63964842209009
1040
27.79051257553636
1040
-61.03606769307432
1040
27.43016726343068
1040
-60.43248696405855
1040
27.08810033672194
1040
-59.81925996768408
1040
26.76822859228012
1040
-59.21636825776535
1040
26.44835684783894
1040
-58.61347654784663
1040
26.15068028566469
1040
-58.02092012438366
1040
25.87911570262863
1040
-57.45868054119089
1040
25.60755111959257
1040
-56.89644095799812
1040
25.36209851569472
1040
-56.36451821507554
1040
25.14667468780538
1040
-55.88289386623761
1040
24.93125085991603
1040
-55.40126951739968
1040
24.74585580803585
1040
-54.96994356264641
1040
24.59440632903512
1040
-54.60889755579223
1040
24.44295685003408
1040
-54.24785154893804
1040
24.3254529439125
1040
-53.95708548998295
1040
24.24581140754135
1040
-53.75658093274141
1040
24.16616987117019
1040
-53.55607637549987
1040
24.12439070454946
1040
-53.44583331997188
1040
24.12439070454946
1040
-53.44583331997188
1040
24.12439070454946
1040
-53.44583331997188
1040
24.17346981342948
1040
-53.49764891403624
1040
24.26510267494999
1040
-53.59287355994322
1040
24.3567355364705
1040
-53.6880982058502
1040
24.49092215063084
1040
-53.82673190360013
1040
24.66113716119149
1040
-54.00036811097159
1040
24.83135217175213
1040
-54.17400431834336
1040
25.03759557871308
1040
-54.38264303533667
1040
25.27334202583446
1040
-54.61787771973041
1040
25.50908847295552
1040
-54.85311240412415
1040
25.77433796023702
1040
-55.114943055918
1040
26.06256513143845
1040
-55.39496313289119
1040
26.35079230263988
1040
-55.67498320986438
1040
26.6619971577619
1040
-55.97319271201659
1040
26.98965434056397
1040
-56.28118509712672
1040
27.31731152336605
1040
-56.58917748223653
1040
27.6614210338482
1040
-56.90695275030459
1040
28.01545751577088
1040
-57.22610435910915
1040
28.36949399769356
1040
-57.54525596791371
1040
28.73345745105645
1040
-57.86578391745478
1040
29.10082251961969
1040
-58.17928166551126
1040
29.46818758818292
1040
-58.49277941356775
1040
29.83895427194651
1040
-58.79924696013932
1040
30.20659721467057
1040
-59.09027776300521
1040
30.20659721467057
1040
-59.09027776300521
1040
30.24916955944535
1040
-59.12314879022698
1040
30.33007954339926
1040
-59.18099244048132
1040
30.41098952735285
1040
-59.23883609073534
1040
30.53023715048559
1040
-59.32165236402193
1040
30.68358770720121
1040
-59.42154285615159
1040
30.83693826391682
1040
-59.52143334828125
1040
31.024391754215
1040
-59.63839805925333
1040
31.24171347250075
1040
-59.76453858487928
1040
31.45903519078618
1040
-59.89067911050523
1040
31.70622513705855
1040
-60.02599545078473
1040
31.97904860572222
1040
-60.16258920152828
1040
32.25187207438589
1040
-60.29918295227181
1040
32.55032906544056
1040
-60.4370541134794
1040
32.87018487329026
1040
-60.56830428096151
1040
33.19004068113997
1040
-60.69955444844362
1040
33.53129530578472
1040
-60.82418362220058
1040
33.88971404162888
1040
-60.93429339804256
1040
34.24813277747305
1040
-61.04440317388453
1040
34.623715624516
1040
-61.13999355181152
1040
35.01222787716242
1040
-61.21316612763466
1040
35.40074012980883
1040
-61.28633870345748
1040
35.80218178805872
1040
-61.33709347717612
1040
36.2123181463155
1040
-61.35753204460108
1040
36.55957550496594
1040
-61.37483712569347
1040
36.89964445826471
1040
-61.37132636273049
1040
37.23515450443215
1040
-61.34681021414968
1040
37.57066455059991
1040
-61.32229406556886
1040
37.90161568963633
1040
-61.27677253137023
1040
38.23063741976334
1040
-61.21005606999167
1040
38.55965914989035
1040
-61.1433396086131
1040
38.88675147110732
1040
-61.05542822005395
1040
39.21454388163584
1040
-60.94613236275276
1040
39.54233629216404
1040
-60.83683650545123
1040
39.87082879200381
1040
-60.70615617940733
1040
40.20265087937641
1040
-60.55390184305862
1040
40.53447296674902
1040
-60.40164750670991
1040
40.86962464165384
1040
-60.22781916005638
1040
41.21073540231247
1040
-60.03222726153527
1040
41.55184616297141
1040
-59.83663536301449
1040
41.89891600938353
1040
-59.61927991262645
1040
42.25457443977106
1040
-59.37997136880841
1040
42.6102328701586
1040
-59.14066282499068
1040
42.97447988452092
1040
-58.87940118774326
1040
43.34994498107962
1040
-58.59599691550371
1040
43.72541007763833
1040
-58.31259264326416
1040
44.11209325639278
1040
-58.00704573603281
1040
44.51262401556491
1040
-57.67916665224688
1071
        0
1070
     2
1070
     1
1071
        0
1002
}
  0
ENDSEC
  0
SECTION
  2
OBJECTS
  0
DICTIONARY
  5
C
330
0
100
AcDbDictionary
  3
ACAD_GROUP
350
D
  3
ACAD_LAYOUT
350
1A
  3
ACAD_MATERIAL
350
3B
  3
ACAD_MLEADERSTYLE
350
48
  3
ACAD_MLINESTYLE
350
17
  3
ACAD_PLOTSETTINGS
350
19
  3
ACAD_VISUALSTYLE
350
2A
  3
ACDBVARIABLEDICTIONARY
350
46
1001
ACAD
1000
TREAT_AS_HARD
1070
     0
  0
DICTIONARY
  5
D
102
{ACAD_REACTORS
330
C
102
}
330
C
100
AcDbDictionary
1001
ACAD
1000
TREAT_AS_HARD
1070
     0
  0
DICTIONARY
  5
1A
102
{ACAD_REACTORS
330
C
102
}
330
C
100
AcDbDictionary
1001
ACAD
1000
TREAT_AS_HARD
1070
     0
  0
DICTIONARY
  5
3B
102
{ACAD_REACTORS
330
C
102
}
330
C
100
AcDbDictionary
  3
BYBLOCK
350
3D
  3
BYLAYER
350
3C
  3
GLOBAL
350
3E
1001
ACAD
1000
TREAT_AS_HARD
1070
     0
  0
DICTIONARY
  5
48
102
{ACAD_REACTORS
330
C
102
}
330
C
100
AcDbDictionary
1001
ACAD
1000
TREAT_AS_HARD
1070
     0
  0
DICTIONARY
  5
17
102
{ACAD_REACTORS
330
C
102
}
330
C
100
AcDbDictionary
  3
STANDARD
350
18
1001
ACAD
1000
TREAT_AS_HARD
1070
     0
  0
DICTIONARY
  5
19
102
{ACAD_REACTORS
330
C
102
}
330
C
100
AcDbDictionary
1001
ACAD
1000
TREAT_AS_HARD
1070
     0
  0
DICTIONARY
  5
2A
102
{ACAD_REACTORS
330
C
102
}
330
C
100
AcDbDictionary
  3
2DWIREFRAME
350
2F
  3
3DWIREFRAME
350
30
  3
3D_HIDDEN
350
31
  3
BASIC
350
32
  3
BRIGHTEN
350
36
  3
COLORCHANGE
350
3A
  3
CONCEPTUAL
350
34
  3
DIM
350
35
  3
FACEPATTERN
350
39
  3
FLAT
350
2B
  3
FLATWITHEDGES
350
2C
  3
GOURAUD
350
2D
  3
GOURAUDWITHEDGES
350
2E
  3
LINEPATTERN
350
38
  3
REALISTIC
350
33
  3
THICKEN
350
37
1001
ACAD
1000
TREAT_AS_HARD
1070
     0
  0
DICTIONARY
  5
46
102
{ACAD_REACTORS
330
C
102
}
330
C
100
AcDbDictionary
  3
DIMASSOC
350
49
  3
HIDETEXT
350
4A
1001
ACAD
1000
TREAT_AS_HARD
1070
     0
  0
MATERIAL
  5
3D
102
{ACAD_REACTORS
330
3B
102
}
102
{ACAD_XDICTIONARY
360
D1
102
}
330
3B
100
AcDbMaterial
  1
ByBlock
  0
MATERIAL
  5
3C
102
{ACAD_REACTORS
330
3B
102
}
102
{ACAD_XDICTIONARY
360
CF
102
}
330
3B
100
AcDbMaterial
  1
ByLayer
  0
MATERIAL
  5
3E
102
{ACAD_REACTORS
330
3B
102
}
102
{ACAD_XDICTIONARY
360
D3
102
}
330
3B
100
AcDbMaterial
  1
Global
  0
MLINESTYLE
  5
18
102
{ACAD_REACTORS
330
17
102
}
330
17
100
AcDbMlineStyle
  2
Standard
 70
     0
  3

 62
   256
 51
90.0
 52
90.0
 71
     2
 49
0.5
 62
   256
  6
BYLAYER
 49
-0.5
 62
   256
  6
BYLAYER
  0
ACAD_PROXY_OBJECT
  5
2F
102
{ACAD_REACTORS
330
2A
102
}
330
2A
100
AcDbZombieObject
 90
      499
 91
      501
 93
      436
310
42CC9915DA5C99599C985B595049028333333333333E3BF0000000000000FB0107901411070040501600405405064090741402480A0340
1001
ACAD
1000
AcDbSavedByObjectVersion
1070
     0
  0
ACAD_PROXY_OBJECT
  5
30
102
{ACAD_REACTORS
330
2A
102
}
330
2A
100
AcDbZombieObject
 90
      499
 91
      501
 93
      436
310
42CCD915DA5C99599C985B595059028333333333333E3BF0000000000000FB0107901411070040501600405405064090741402480A0340
1001
ACAD
1000
AcDbSavedByObjectVersion
1070
     0
  0
ACAD_PROXY_OBJECT
  5
31
102
{ACAD_REACTORS
330
2A
102
}
330
2A
100
AcDbZombieObject
 90
      499
 91
      501
 93
      500
310
424CD108121A5919195B90640502408333333333333E3BF0000000000000FB01079024090700405020000000000001110200405405064090740C02480A0340
1001
ACAD
1000
AcDbSavedByObjectVersion
1070
     0
  0
ACAD_PROXY_OBJECT
  5
32
102
{ACAD_REACTORS
330
2A
102
}
330
2A
100
AcDbZombieObject
 90
      499
 91
      501
 93
      388
310
4150985CDA58D07406404333333333333E3BF0000000000000FB0107A41107004050150841D405064090741402480A0350
1001
ACAD
1000
AcDbSavedByObjectVersion
1070
     0
  0
ACAD_PROXY_OBJECT
  5
36
102
{ACAD_REACTORS
330
2A
102
}
330
2A
100
AcDbZombieObject
 90
      499
 91
      501
 93
      428
310
42109C9A59DA1D195B90C409028333333333333E3BF0000000000000FB010790141107004050150841D405064090741402480A029950
1001
ACAD
1000
AcDbSavedByObjectVersion
1070
     0
  0
ACAD_PROXY_OBJECT
  5
3A
102
{ACAD_REACTORS
330
2A
102
}
330
2A
100
AcDbZombieObject
 90
      499
 91
      501
 93
      452
310
42D0DBDB1BDC90DA185B99D95104090240C333333333333E3BF0000000000000FB0108901411070040501508421405064090741402480A0350
1001
ACAD
1000
AcDbSavedByObjectVersion
1070
     0
  0
ACAD_PROXY_OBJECT
  5
34
102
{ACAD_REACTORS
330
2A
102
}
330
2A
100
AcDbZombieObject
 90
      499
 91
      501
 93
      500
310
4290DBDB98D95C1D1D585B10940D028333333333333E3BF0000000000000FB0107902409070040501000000000000111010841D405064090740C02480A0340
1001
ACAD
1000
AcDbSavedByObjectVersion
1070
     0
  0
ACAD_PROXY_OBJECT
  5
35
102
{ACAD_REACTORS
330
2A
102
}
330
2A
100
AcDbZombieObject
 90
      499
 91
      501
 93
      412
310
40D11A5B50B409028333333333333E3BF0000000000000FB010790141107004050150841D405064090741402480A02677FFFFFD0
1001
ACAD
1000
AcDbSavedByObjectVersion
1070
     0
  0
ACAD_PROXY_OBJECT
  5
39
102
{ACAD_REACTORS
330
2A
102
}
330
2A
100
AcDbZombieObject
 90
      499
 91
      501
 93
      444
310
42D19858D95C185D1D195C9B90F409028333333333333E3BF0000000000000FB010790141107004050150841D405064090741402480A0350
1001
ACAD
1000
AcDbSavedByObjectVersion
1070
     0
  0
ACAD_PROXY_OBJECT
  5
2B
102
{ACAD_REACTORS
330
2A
102
}
330
2A
100
AcDbZombieObject
 90
      499
 91
      501
 93
      388
310
41119B185D240901404333333333333E3BF0000000000000F9010740A41107004050150841D405064090741402480A1B50
1001
ACAD
1000
AcDbSavedByObjectVersion
1070
     0
  0
ACAD_PROXY_OBJECT
  5
2C
102
{ACAD_REACTORS
330
2A
102
}
330
2A
100
AcDbZombieObject
 90
      499
 91
      501
 93
      476
310
43519B185D15DA5D1A115919D95CD0140901404333333333333E3BF0000000000000F9010740901411070040501600405405064090741402480A1B50
1001
ACAD
1000
AcDbSavedByObjectVersion
1070
     0
  0
ACAD_PROXY_OBJECT
  5
2D
102
{ACAD_REACTORS
330
2A
102
}
330
2A
100
AcDbZombieObject
 90
      499
 91
      501
 93
      412
310
41D1DBDD5C985D5910240902404333333333333E3BF0000000000000F9010740A411070040501641D405064090741402480A1B50
1001
ACAD
1000
AcDbSavedByObjectVersion
1070
     0
  0
ACAD_PROXY_OBJECT
  5
2E
102
{ACAD_REACTORS
330
2A
102
}
330
2A
100
AcDbZombieObject
 90
      499
 91
      501
 93
      500
310
4411DBDD5C985D5915DA5D1A115919D95CD0340902404333333333333E3BF0000000000000F9010740901411070040501600405405064090741402480A1B50
1001
ACAD
1000
AcDbSavedByObjectVersion
1070
     0
  0
ACAD_PROXY_OBJECT
  5
38
102
{ACAD_REACTORS
330
2A
102
}
330
2A
100
AcDbZombieObject
 90
      499
 91
      501
 93
      444
310
42D31A5B995C185D1D195C9B90E409028333333333333E3BF0000000000000FB010790141107004050750841D405064090741402483A0350
1001
ACAD
1000
AcDbSavedByObjectVersion
1070
     0
  0
ACAD_PROXY_OBJECT
  5
33
102
{ACAD_REACTORS
330
2A
102
}
330
2A
100
AcDbZombieObject
 90
      499
 91
      501
 93
      420
310
425499585B1A5CDD1A58D08409028333333333333E3BF0000000000000FB01079019070040501508421405064090741402480A1B40
1001
ACAD
1000
AcDbSavedByObjectVersion
1070
     0
  0
ACAD_PROXY_OBJECT
  5
37
102
{ACAD_REACTORS
330
2A
102
}
330
2A
100
AcDbZombieObject
 90
      499
 91
      501
 93
      412
310
41D51A1A58DAD95B90D409028333333333333E3BF0000000000000FB010790141107004050150C41D405064090741402480A0350
1001
ACAD
1000
AcDbSavedByObjectVersion
1070
     0
  0
DICTIONARYVAR
  5
49
102
{ACAD_REACTORS
330
46
102
}
330
46
100
DictionaryVariables
280
     0
  1
2
  0
DICTIONARYVAR
  5
4A
102
{ACAD_REACTORS
330
46
102
}
330
46
100
DictionaryVariables
280
     0
  1
1
  0
DICTIONARY
  5
D1
330
3D
100
AcDbDictionary
  3
ACAD_XREC_ROUNDTRIP
360
D2
1001
ACAD
1000
TREAT_AS_HARD
1070
     1
  0
DICTIONARY
  5
CF
330
3C
100
AcDbDictionary
  3
ACAD_XREC_ROUNDTRIP
360
D0
1001
ACAD
1000
TREAT_AS_HARD
1070
     1
  0
DICTIONARY
  5
D3
330
3E
100
AcDbDictionary
  3
ACAD_XREC_ROUNDTRIP
360
D4
1001
ACAD
1000
TREAT_AS_HARD
1070
     1
  0
XRECORD
  5
D2
102
{ACAD_REACTORS
330
D1
102
}
330
D1
100
AcDbXrecord
102
MATERIAL
148
0.0
149
0.0
149
0.0
 93
        0
 94
      127
282
     0
 72
     1
 77
     1
171
     1
175
     1
179
     1
273
     0
  0
XRECORD
  5
D0
102
{ACAD_REACTORS
330
CF
102
}
330
CF
100
AcDbXrecord
102
MATERIAL
148
0.0
149
0.0
149
0.0
 93
        0
 94
      127
282
     0
 72
     1
 77
     1
171
     1
175
     1
179
     1
273
     0
  0
XRECORD
  5
D4
102
{ACAD_REACTORS
330
D3
102
}
330
D3
100
AcDbXrecord
102
MATERIAL
148
0.0
149
0.0
149
0.0
 93
        0
 94
      127
282
     0
 72
     1
 77
     1
171
     1
175
     1
179
     1
273
     0
  0
ENDSEC
  0
EOF
