  0
SECTION
  2
HEADER
  9
$ACADVER
  1
AC1012
  9
$DWGCODEPAGE
  3
undefined
  9
$INSBASE
 10
0.0
 20
0.0
 30
0.0
  9
$EXTMIN
 10
1.000000000000000E+20
 20
1.000000000000000E+20
 30
1.000000000000000E+20
  9
$EXTMAX
 10
-1.000000000000000E+20
 20
-1.000000000000000E+20
 30
-1.000000000000000E+20
  9
$LIMMIN
 10
0.0
 20
0.0
  9
$LIMMAX
 10
12.0
 20
9.0
  9
$ORTHOMODE
 70
     0
  9
$REGENMODE
 70
     1
  9
$FILLMODE
 70
     1
  9
$QTEXTMODE
 70
     0
  9
$MIRRTEXT
 70
     1
  9
$DRAGMODE
 70
     2
  9
$LTSCALE
 40
1.0
  9
$OSMODE
 70
    37
  9
$ATTMODE
 70
     1
  9
$TEXTSIZE
 40
0.2
  9
$TRACEWID
 40
0.05
  9
$TEXTSTYLE
  7
STANDARD
  9
$CLAYER
  8
0
  9
$CELTYPE
  6
BYLAYER
  9
$CECOLOR
 62
   256
  9
$CELTSCALE
 40
1.0
  9
$DELOBJ
 70
     1
  9
$DISPSILH
 70
     0
  9
$DIMSCALE
 40
1.0
  9
$DIMASZ
 40
0.18
  9
$DIMEXO
 40
0.0625
  9
$DIMDLI
 40
0.38
  9
$DIMRND
 40
0.0
  9
$DIMDLE
 40
0.0
  9
$DIMEXE
 40
0.18
  9
$DIMTP
 40
0.0
  9
$DIMTM
 40
0.0
  9
$DIMTXT
 40
0.18
  9
$DIMCEN
 40
0.09
  9
$DIMTSZ
 40
0.0
  9
$DIMTOL
 70
     0
  9
$DIMLIM
 70
     0
  9
$DIMTIH
 70
     1
  9
$DIMTOH
 70
     1
  9
$DIMSE1
 70
     0
  9
$DIMSE2
 70
     0
  9
$DIMTAD
 70
     0
  9
$DIMZIN
 70
     0
  9
$DIMBLK
  1

  9
$DIMASO
 70
     1
  9
$DIMSHO
 70
     1
  9
$DIMPOST
  1

  9
$DIMAPOST
  1

  9
$DIMALT
 70
     0
  9
$DIMALTD
 70
     2
  9
$DIMALTF
 40
25.4
  9
$DIMLFAC
 40
1.0
  9
$DIMTOFL
 70
     0
  9
$DIMTVP
 40
0.0
  9
$DIMTIX
 70
     0
  9
$DIMSOXD
 70
     0
  9
$DIMSAH
 70
     0
  9
$DIMBLK1
  1

  9
$DIMBLK2
  1

  9
$DIMSTYLE
  2
STANDARD
  9
$DIMCLRD
 70
     0
  9
$DIMCLRE
 70
     0
  9
$DIMCLRT
 70
     0
  9
$DIMTFAC
 40
1.0
  9
$DIMGAP
 40
0.09
  9
$DIMJUST
 70
     0
  9
$DIMSD1
 70
     0
  9
$DIMSD2
 70
     0
  9
$DIMTOLJ
 70
     1
  9
$DIMTZIN
 70
     0
  9
$DIMALTZ
 70
     0
  9
$DIMALTTZ
 70
     0
  9
$DIMFIT
 70
     3
  9
$DIMUPT
 70
     0
  9
$DIMUNIT
 70
     2
  9
$DIMDEC
 70
     4
  9
$DIMTDEC
 70
     4
  9
$DIMALTU
 70
     2
  9
$DIMALTTD
 70
     2
  9
$DIMTXSTY
  7
STANDARD
  9
$DIMAUNIT
 70
     0
  9
$LUNITS
 70
     2
  9
$LUPREC
 70
     4
  9
$SKETCHINC
 40
0.1
  9
$FILLETRAD
 40
0.5
  9
$AUNITS
 70
     0
  9
$AUPREC
 70
     0
  9
$MENU
  1
.
  9
$ELEVATION
 40
0.0
  9
$PELEVATION
 40
0.0
  9
$THICKNESS
 40
0.0
  9
$LIMCHECK
 70
     0
  9
$CHAMFERA
 40
0.5
  9
$CHAMFERB
 40
0.5
  9
$CHAMFERC
 40
1.0
  9
$CHAMFERD
 40
0.0
  9
$SKPOLY
 70
     0
  9
$TDCREATE
 40
2458817.042604155
  9
$TDUPDATE
 40
2458817.042604155
  9
$TDINDWG
 40
0.0000000116
  9
$TDUSRTIMER
 40
0.0000000116
  9
$USRTIMER
 70
     1
  9
$ANGBASE
 50
0.0
  9
$ANGDIR
 70
     0
  9
$PDMODE
 70
     0
  9
$PDSIZE
 40
0.0
  9
$PLINEWID
 40
0.0
  9
$COORDS
 70
     1
  9
$SPLFRAME
 70
     0
  9
$SPLINETYPE
 70
     6
  9
$SPLINESEGS
 70
     8
  9
$ATTDIA
 70
     0
  9
$ATTREQ
 70
     1
  9
$HANDLING
 70
     1
  9
$HANDSEED
  5
D9
  9
$SURFTAB1
 70
     6
  9
$SURFTAB2
 70
     6
  9
$SURFTYPE
 70
     6
  9
$SURFU
 70
     6
  9
$SURFV
 70
     6
  9
$UCSNAME
  2

  9
$UCSORG
 10
0.0
 20
0.0
 30
0.0
  9
$UCSXDIR
 10
1.0
 20
0.0
 30
0.0
  9
$UCSYDIR
 10
0.0
 20
1.0
 30
0.0
  9
$PUCSNAME
  2

  9
$PUCSORG
 10
0.0
 20
0.0
 30
0.0
  9
$PUCSXDIR
 10
1.0
 20
0.0
 30
0.0
  9
$PUCSYDIR
 10
0.0
 20
1.0
 30
0.0
  9
$USERI1
 70
     0
  9
$USERI2
 70
     0
  9
$USERI3
 70
     0
  9
$USERI4
 70
     0
  9
$USERI5
 70
     0
  9
$USERR1
 40
0.0
  9
$USERR2
 40
0.0
  9
$USERR3
 40
0.0
  9
$USERR4
 40
0.0
  9
$USERR5
 40
0.0
  9
$WORLDVIEW
 70
     1
  9
$SHADEDGE
 70
     3
  9
$SHADEDIF
 70
    70
  9
$TILEMODE
 70
     1
  9
$MAXACTVP
 70
    64
  9
$PINSBASE
 10
0.0
 20
0.0
 30
0.0
  9
$PLIMCHECK
 70
     0
  9
$PEXTMIN
 10
1.000000000000000E+20
 20
1.000000000000000E+20
 30
1.000000000000000E+20
  9
$PEXTMAX
 10
-1.000000000000000E+20
 20
-1.000000000000000E+20
 30
-1.000000000000000E+20
  9
$PLIMMIN
 10
0.0
 20
0.0
  9
$PLIMMAX
 10
12.0
 20
9.0
  9
$UNITMODE
 70
     0
  9
$VISRETAIN
 70
     1
  9
$PLINEGEN
 70
     0
  9
$PSLTSCALE
 70
     1
  9
$TREEDEPTH
 70
  3020
  9
$PICKSTYLE
 70
     1
  9
$CMLSTYLE
  2
STANDARD
  9
$CMLJUST
 70
     0
  9
$CMLSCALE
 40
1.0
  9
$SAVEIMAGES
 70
     1
  0
ENDSEC
  0
SECTION
  2
CLASSES
  0
CLASS
  1
ACDBDICTIONARYWDFLT
  2
AcDbDictionaryWithDefault
  3
ObjectDBX Classes
 90
    32768
280
     0
281
     0
  0
CLASS
  1
VISUALSTYLE
  2
AcDbVisualStyle
  3
ObjectDBX Classes
 90
     4095
280
     0
281
     0
  0
CLASS
  1
MATERIAL
  2
AcDbMaterial
  3
ObjectDBX Classes
 90
     1153
280
     0
281
     0
  0
CLASS
  1
SUN
  2
AcDbSun
  3
SCENEOE
 90
     1024
280
     0
281
     0
  0
CLASS
  1
DICTIONARYVAR
  2
AcDbDictionaryVar
  3
ObjectDBX Classes
 90
        0
280
     0
281
     0
  0
CLASS
  1
XRECORD
  2
AcDbXrecord
  3
AutoCAD 2000
 90
    32768
280
     0
281
     0
  0
CLASS
  1
LWPOLYLINE
  2
AcDbPolyline
  3
AutoCAD 2000
 90
    32768
280
     0
281
     1
  0
CLASS
  1
HATCH
  2
AcDbHatch
  3
AutoCAD 2000
 90
    32768
280
     0
281
     1
  0
CLASS
  1
ACDBPLACEHOLDER
  2
AcDbPlaceHolder
  3
ObjectDBX Classes
 90
        0
280
     0
281
     0
  0
CLASS
  1
LAYOUT
  2
AcDbLayout
  3
ObjectDBX Classes
 90
        0
280
     0
281
     0
  0
ENDSEC
  0
SECTION
  2
TABLES
  0
TABLE
  2
VPORT
  5
8
330
0
100
AcDbSymbolTable
 70
     1
  0
VPORT
  5
29
330
8
100
AcDbSymbolTableRecord
100
AcDbViewportTableRecord
  2
*ACTIVE
 70
     0
 10
0.0
 20
0.0
 11
1.0
 21
1.0
 12
0.0
 22
0.0
 13
0.0
 23
0.0
 14
0.5
 24
0.5
 15
0.5
 25
0.5
 16
0.0
 26
0.0
 36
1.0
 17
64.34389976604898
 27
-63.91503266375991
 37
0.0
 40
66.54357296811368
 41
2.422037422037413
 42
50.0
 43
0.0
 44
0.0
 50
0.0
 51
0.0
 71
     0
 72
   100
 73
     1
 74
     3
 75
     0
 76
     0
 77
     0
 78
     0
  0
ENDTAB
  0
TABLE
  2
LTYPE
  5
5
330
0
100
AcDbSymbolTable
 70
     1
  0
LTYPE
  5
14
330
5
100
AcDbSymbolTableRecord
100
AcDbLinetypeTableRecord
  2
BYBLOCK
 70
     0
  3

 72
    65
 73
     0
 40
0.0
  0
LTYPE
  5
15
330
5
100
AcDbSymbolTableRecord
100
AcDbLinetypeTableRecord
  2
BYLAYER
 70
     0
  3

 72
    65
 73
     0
 40
0.0
  0
LTYPE
  5
16
330
5
100
AcDbSymbolTableRecord
100
AcDbLinetypeTableRecord
  2
CONTINUOUS
 70
     0
  3
Solid line
 72
    65
 73
     0
 40
0.0
  0
ENDTAB
  0
TABLE
  2
LAYER
  5
2
330
0
100
AcDbSymbolTable
 70
     5
  0
LAYER
  5
10
330
2
100
AcDbSymbolTableRecord
100
AcDbLayerTableRecord
  2
0
 70
     0
 62
     7
  6
CONTINUOUS
  0
LAYER
  5
40
330
2
100
AcDbSymbolTableRecord
100
AcDbLayerTableRecord
  2
LAYER_1
 70
     0
 62
     7
  6
CONTINUOUS
  0
LAYER
  5
41
330
2
100
AcDbSymbolTableRecord
100
AcDbLayerTableRecord
  2
LAYER_2
 70
     0
 62
     7
  6
CONTINUOUS
  0
LAYER
  5
42
330
2
100
AcDbSymbolTableRecord
100
AcDbLayerTableRecord
  2
LAYER_3
 70
     0
 62
     7
  6
CONTINUOUS
  0
LAYER
  5
45
330
2
100
AcDbSymbolTableRecord
100
AcDbLayerTableRecord
  2
LAYER_4
 70
     1
 62
     7
  6
CONTINUOUS
  0
ENDTAB
  0
TABLE
  2
STYLE
  5
3
330
0
100
AcDbSymbolTable
 70
     1
  0
STYLE
  5
11
330
3
100
AcDbSymbolTableRecord
100
AcDbTextStyleTableRecord
  2
STANDARD
 70
     0
 40
0.0
 41
1.0
 50
0.0
 71
     0
 42
0.2
  3
txt
  4

  0
ENDTAB
  0
TABLE
  2
VIEW
  5
6
330
0
100
AcDbSymbolTable
 70
     0
  0
ENDTAB
  0
TABLE
  2
UCS
  5
7
330
0
100
AcDbSymbolTable
 70
     0
  0
ENDTAB
  0
TABLE
  2
APPID
  5
9
330
0
100
AcDbSymbolTable
 70
     1
  0
APPID
  5
12
330
9
100
AcDbSymbolTableRecord
100
AcDbRegAppTableRecord
  2
ACAD
 70
     0
  0
ENDTAB
  0
TABLE
  2
DIMSTYLE
  5
A
330
0
100
AcDbSymbolTable
 70
     1
  0
DIMSTYLE
105
27
330
A
100
AcDbSymbolTableRecord
100
AcDbDimStyleTableRecord
  2
STANDARD
 70
     0
  3

  4

  5

  6

  7

 40
1.0
 41
0.18
 42
0.0625
 43
0.38
 44
0.18
 45
0.0
 46
0.0
 47
0.0
 48
0.0
140
0.18
141
0.09
142
0.0
143
25.4
144
1.0
145
0.0
146
1.0
147
0.09
 71
     0
 72
     0
 73
     1
 74
     1
 75
     0
 76
     0
 77
     0
 78
     0
170
     0
171
     2
172
     0
173
     0
174
     0
175
     0
176
     0
177
     0
178
     0
270
     2
271
     4
272
     4
273
     2
274
     2
340
11
275
     0
280
     0
281
     0
282
     0
283
     1
284
     0
285
     0
286
     0
287
     3
288
     0
  0
ENDTAB
  0
TABLE
  2
BLOCK_RECORD
  5
1
330
0
100
AcDbSymbolTable
 70
     2
  0
BLOCK_RECORD
  5
1F
330
1
100
AcDbSymbolTableRecord
100
AcDbBlockTableRecord
  2
*MODEL_SPACE
  0
BLOCK_RECORD
  5
1B
330
1
100
AcDbSymbolTableRecord
100
AcDbBlockTableRecord
  2
*PAPER_SPACE
  0
BLOCK_RECORD
  5
4B
330
1
100
AcDbSymbolTableRecord
100
AcDbBlockTableRecord
  2
*U1
  0
ENDTAB
  0
ENDSEC
  0
SECTION
  2
BLOCKS
  0
BLOCK
  5
20
330
1F
100
AcDbEntity
  8
0
100
AcDbBlockBegin
  2
*MODEL_SPACE
 70
     0
 10
0.0
 20
0.0
 30
0.0
  3
*MODEL_SPACE
  1

  0
ENDBLK
  5
21
330
1F
100
AcDbEntity
  8
0
100
AcDbBlockEnd
  0
BLOCK
  5
1C
330
1B
100
AcDbEntity
 67
     1
  8
0
100
AcDbBlockBegin
  2
*PAPER_SPACE
 70
     0
 10
0.0
 20
0.0
 30
0.0
  3
*PAPER_SPACE
  1

  0
ENDBLK
  5
1D
330
1B
100
AcDbEntity
 67
     1
  8
0
100
AcDbBlockEnd
  0
BLOCK
  5
D1
330
4B
100
AcDbEntity
  8
0
100
AcDbBlockBegin
  2
*U1
 70
     1
 10
0.0
 20
0.0
 30
0.0
  3
*U1
  1

  0
SOLID
  5
4C
330
4B
100
AcDbEntity
  8
LAYER_3
 62
   253
100
AcDbTrace
 10
24.82639184193205
 20
-54.52573675373686
 30
0.0
 11
24.82439064513893
 21
-54.52056250063745
 31
0.0
 12
24.82639184193205
 22
-54.46336079720486
 32
0.0
 13
24.82639184193205
 23
-54.46336079720486
 33
0.0
  0
SOLID
  5
4D
330
4B
100
AcDbEntity
  8
LAYER_3
 62
   253
100
AcDbTrace
 10
24.82639184193205
 20
-54.52573675373686
 30
0.0
 11
24.82639184193205
 21
-54.46336079720486
 31
0.0
 12
25.09292801189774
 22
-55.21488717027324
 32
0.0
 13
25.09292801189774
 23
-55.21488717027324
 33
0.0
  0
SOLID
  5
4E
330
4B
100
AcDbEntity
  8
LAYER_3
 62
   253
100
AcDbTrace
 10
25.09292801189774
 20
-55.21488717027324
 30
0.0
 11
24.82639184193205
 21
-54.46336079720486
 31
0.0
 12
25.09292801189774
 22
-54.78182393600334
 32
0.0
 13
25.09292801189774
 23
-54.78182393600334
 33
0.0
  0
SOLID
  5
4F
330
4B
100
AcDbEntity
  8
LAYER_3
 62
   253
100
AcDbTrace
 10
25.09292801189774
 20
-55.21488717027324
 30
0.0
 11
25.09292801189774
 21
-54.78182393600334
 31
0.0
 12
25.17122542712895
 22
-55.39334044622397
 32
0.0
 13
25.17122542712895
 23
-55.39334044622397
 33
0.0
  0
SOLID
  5
50
330
4B
100
AcDbEntity
  8
LAYER_3
 62
   253
100
AcDbTrace
 10
25.17122542712895
 20
-55.39334044622397
 30
0.0
 11
25.09292801189774
 21
-54.78182393600334
 31
0.0
 12
25.17122542712895
 22
-54.87537536888222
 32
0.0
 13
25.17122542712895
 23
-54.87537536888222
 33
0.0
  0
SOLID
  5
51
330
4B
100
AcDbEntity
  8
LAYER_3
 62
   253
100
AcDbTrace
 10
25.17122542712895
 20
-55.39334044622397
 30
0.0
 11
25.17122542712895
 21
-54.87537536888222
 31
0.0
 12
25.63795203545252
 22
-56.45709066049058
 32
0.0
 13
25.63795203545252
 23
-56.45709066049058
 33
0.0
  0
SOLID
  5
52
330
4B
100
AcDbEntity
  8
LAYER_3
 62
   253
100
AcDbTrace
 10
25.63795203545252
 20
-56.45709066049058
 30
0.0
 11
25.17122542712895
 21
-54.87537536888222
 31
0.0
 12
25.63795203545252
 22
-55.38647310932549
 32
0.0
 13
25.63795203545252
 23
-55.38647310932549
 33
0.0
  0
SOLID
  5
53
330
4B
100
AcDbEntity
  8
LAYER_3
 62
   253
100
AcDbTrace
 10
25.63795203545252
 20
-56.45709066049058
 30
0.0
 11
25.63795203545252
 21
-55.38647310932549
 31
0.0
 12
26.47942953114011
 22
-58.128889210788
 32
0.0
 13
26.47942953114011
 23
-58.128889210788
 33
0.0
  0
SOLID
  5
54
330
4B
100
AcDbEntity
  8
LAYER_3
 62
   253
100
AcDbTrace
 10
26.47942953114011
 20
-58.128889210788
 30
0.0
 11
25.63795203545252
 21
-55.38647310932549
 31
0.0
 12
26.47942953114011
 22
-56.30794884910511
 32
0.0
 13
26.47942953114011
 23
-56.30794884910511
 33
0.0
  0
SOLID
  5
55
330
4B
100
AcDbEntity
  8
LAYER_3
 62
   253
100
AcDbTrace
 10
26.47942953114011
 20
-58.128889210788
 30
0.0
 11
26.47942953114011
 21
-56.30794884910511
 31
0.0
 12
26.76922087261227
 22
-58.62520941455833
 32
0.0
 13
26.76922087261227
 23
-58.62520941455833
 33
0.0
  0
SOLID
  5
56
330
4B
100
AcDbEntity
  8
LAYER_3
 62
   253
100
AcDbTrace
 10
26.76922087261227
 20
-58.62520941455833
 30
0.0
 11
26.47942953114011
 21
-56.30794884910511
 31
0.0
 12
26.76922087261227
 22
-56.62529030164935
 32
0.0
 13
26.76922087261227
 23
-56.62529030164935
 33
0.0
  0
SOLID
  5
57
330
4B
100
AcDbEntity
  8
LAYER_3
 62
   253
100
AcDbTrace
 10
26.76922087261227
 20
-58.62520941455833
 30
0.0
 11
26.76922087261227
 21
-56.62529030164935
 31
0.0
 12
27.63732731429734
 22
-60.11199906066253
 32
0.0
 13
27.63732731429734
 23
-60.11199906066253
 33
0.0
  0
SOLID
  5
58
330
4B
100
AcDbEntity
  8
LAYER_3
 62
   253
100
AcDbTrace
 10
27.63732731429734
 20
-60.11199906066253
 30
0.0
 11
26.76922087261227
 21
-56.62529030164935
 31
0.0
 12
27.63732731429734
 22
-57.4364070528181
 32
0.0
 13
27.63732731429734
 23
-57.4364070528181
 33
0.0
  0
SOLID
  5
59
330
4B
100
AcDbEntity
  8
LAYER_3
 62
   253
100
AcDbTrace
 10
27.63732731429734
 20
-60.11199906066253
 30
0.0
 11
27.63732731429734
 21
-57.4364070528181
 31
0.0
 12
29.13161220026052
 22
-62.28813644961321
 32
0.0
 13
29.13161220026052
 23
-62.28813644961321
 33
0.0
  0
SOLID
  5
5A
330
4B
100
AcDbEntity
  8
LAYER_3
 62
   253
100
AcDbTrace
 10
29.13161220026052
 20
-62.28813644961321
 30
0.0
 11
27.63732731429734
 21
-57.4364070528181
 31
0.0
 12
29.13161220026052
 22
-58.83259471348142
 32
0.0
 13
29.13161220026052
 23
-58.83259471348142
 33
0.0
  0
SOLID
  5
5B
330
4B
100
AcDbEntity
  8
LAYER_3
 62
   253
100
AcDbTrace
 10
29.13161220026052
 20
-62.28813644961321
 30
0.0
 11
29.13161220026052
 21
-58.83259471348142
 31
0.0
 12
29.27061110775825
 22
-62.46815034727567
 32
0.0
 13
29.27061110775825
 23
-62.46815034727567
 33
0.0
  0
SOLID
  5
5C
330
4B
100
AcDbEntity
  8
LAYER_3
 62
   253
100
AcDbTrace
 10
29.27061110775825
 20
-62.46815034727567
 30
0.0
 11
29.13161220026052
 21
-58.83259471348142
 31
0.0
 12
29.27061110775825
 22
-58.9624685824585
 32
0.0
 13
29.27061110775825
 23
-58.9624685824585
 33
0.0
  0
SOLID
  5
5D
330
4B
100
AcDbEntity
  8
LAYER_3
 62
   253
100
AcDbTrace
 10
29.27061110775825
 20
-62.46815034727567
 30
0.0
 11
29.27061110775825
 21
-58.9624685824585
 31
0.0
 12
29.82230351929469
 22
-63.18263295076734
 32
0.0
 13
29.82230351929469
 23
-63.18263295076734
 33
0.0
  0
SOLID
  5
5E
330
4B
100
AcDbEntity
  8
LAYER_3
 62
   253
100
AcDbTrace
 10
29.82230351929469
 20
-63.18263295076734
 30
0.0
 11
29.27061110775825
 21
-58.9624685824585
 31
0.0
 12
29.82230351929469
 22
-59.34263470712008
 32
0.0
 13
29.82230351929469
 23
-59.34263470712008
 33
0.0
  0
SOLID
  5
5F
330
4B
100
AcDbEntity
  8
LAYER_3
 62
   253
100
AcDbTrace
 10
29.82230351929469
 20
-63.18263295076734
 30
0.0
 11
29.82230351929469
 21
-59.34263470712008
 31
0.0
 12
30.2945598592299
 22
-63.77752735596912
 32
0.0
 13
30.2945598592299
 23
-63.77752735596912
 33
0.0
  0
SOLID
  5
60
330
4B
100
AcDbEntity
  8
LAYER_3
 62
   253
100
AcDbTrace
 10
30.2945598592299
 20
-63.77752735596912
 30
0.0
 11
29.82230351929469
 21
-59.34263470712008
 31
0.0
 12
30.2945598592299
 22
-59.66806217149291
 32
0.0
 13
30.2945598592299
 23
-59.66806217149291
 33
0.0
  0
SOLID
  5
61
330
4B
100
AcDbEntity
  8
LAYER_3
 62
   253
100
AcDbTrace
 10
30.2945598592299
 20
-63.77752735596912
 30
0.0
 11
30.2945598592299
 21
-59.66806217149291
 31
0.0
 12
31.67836304337979
 22
-65.13772967219197
 32
0.0
 13
31.67836304337979
 23
-65.13772967219197
 33
0.0
  0
SOLID
  5
62
330
4B
100
AcDbEntity
  8
LAYER_3
 62
   253
100
AcDbTrace
 10
31.67836304337979
 20
-65.13772967219197
 30
0.0
 11
30.2945598592299
 21
-59.66806217149291
 31
0.0
 12
31.67836304337979
 22
-60.6216281129702
 32
0.0
 13
31.67836304337979
 23
-60.6216281129702
 33
0.0
  0
SOLID
  5
63
330
4B
100
AcDbEntity
  8
LAYER_3
 62
   253
100
AcDbTrace
 10
31.67836304337979
 20
-65.13772967219197
 30
0.0
 11
31.67836304337979
 21
-60.6216281129702
 31
0.0
 12
32.28559867543509
 22
-65.734608854633
 32
0.0
 13
32.28559867543509
 23
-65.734608854633
 33
0.0
  0
SOLID
  5
64
330
4B
100
AcDbEntity
  8
LAYER_3
 62
   253
100
AcDbTrace
 10
32.28559867543509
 20
-65.734608854633
 30
0.0
 11
31.67836304337979
 21
-60.6216281129702
 31
0.0
 12
32.28559867543509
 22
-60.86130736864472
 32
0.0
 13
32.28559867543509
 23
-60.86130736864472
 33
0.0
  0
SOLID
  5
65
330
4B
100
AcDbEntity
  8
LAYER_3
 62
   253
100
AcDbTrace
 10
32.28559867543509
 20
-65.734608854633
 30
0.0
 11
32.28559867543509
 21
-60.86130736864472
 31
0.0
 12
33.59535209528757
 22
-66.42896258120359
 32
0.0
 13
33.59535209528757
 23
-66.42896258120359
 33
0.0
  0
SOLID
  5
66
330
4B
100
AcDbEntity
  8
LAYER_3
 62
   253
100
AcDbTrace
 10
33.59535209528757
 20
-66.42896258120359
 30
0.0
 11
32.28559867543509
 21
-60.86130736864472
 31
0.0
 12
33.59535209528757
 22
-61.37827427278519
 32
0.0
 13
33.59535209528757
 23
-61.37827427278519
 33
0.0
  0
SOLID
  5
67
330
4B
100
AcDbEntity
  8
LAYER_3
 62
   253
100
AcDbTrace
 10
33.59535209528757
 20
-66.42896258120359
 30
0.0
 11
33.59535209528757
 21
-61.37827427278519
 31
0.0
 12
34.07778442546606
 22
-66.56464849993466
 32
0.0
 13
34.07778442546606
 23
-66.56464849993466
 33
0.0
  0
SOLID
  5
68
330
4B
100
AcDbEntity
  8
LAYER_3
 62
   253
100
AcDbTrace
 10
34.07778442546606
 20
-66.56464849993466
 30
0.0
 11
33.59535209528757
 21
-61.37827427278519
 31
0.0
 12
34.07778442546606
 22
-61.5686929763437
 32
0.0
 13
34.07778442546606
 23
-61.5686929763437
 33
0.0
  0
SOLID
  5
69
330
4B
100
AcDbEntity
  8
LAYER_3
 62
   253
100
AcDbTrace
 10
34.07778442546606
 20
-66.56464849993466
 30
0.0
 11
34.07778442546606
 21
-61.5686929763437
 31
0.0
 12
35.30737652325666
 22
-66.91047593109262
 32
0.0
 13
35.30737652325666
 23
-66.91047593109262
 33
0.0
  0
SOLID
  5
6A
330
4B
100
AcDbEntity
  8
LAYER_3
 62
   253
100
AcDbTrace
 10
35.30737652325666
 20
-66.91047593109262
 30
0.0
 11
34.07778442546606
 21
-61.5686929763437
 31
0.0
 12
35.30737652325666
 22
-61.73531022726154
 32
0.0
 13
35.30737652325666
 23
-61.73531022726154
 33
0.0
  0
SOLID
  5
6B
330
4B
100
AcDbEntity
  8
LAYER_3
 62
   253
100
AcDbTrace
 10
35.30737652325666
 20
-66.91047593109262
 30
0.0
 11
35.30737652325666
 21
-61.73531022726154
 31
0.0
 12
36.35140047240762
 22
-67.02654761871555
 32
0.0
 13
36.35140047240762
 23
-67.02654761871555
 33
0.0
  0
SOLID
  5
6C
330
4B
100
AcDbEntity
  8
LAYER_3
 62
   253
100
AcDbTrace
 10
36.35140047240762
 20
-67.02654761871555
 30
0.0
 11
35.30737652325666
 21
-61.73531022726154
 31
0.0
 12
36.35140047240762
 22
-61.87678185888026
 32
0.0
 13
36.35140047240762
 23
-61.87678185888026
 33
0.0
  0
SOLID
  5
6D
330
4B
100
AcDbEntity
  8
LAYER_3
 62
   253
100
AcDbTrace
 10
36.35140047240762
 20
-67.02654761871555
 30
0.0
 11
36.35140047240762
 21
-61.87678185888026
 31
0.0
 12
37.56625820955444
 22
-67.16161213317147
 32
0.0
 13
37.56625820955444
 23
-67.16161213317147
 33
0.0
  0
SOLID
  5
6E
330
4B
100
AcDbEntity
  8
LAYER_3
 62
   253
100
AcDbTrace
 10
37.56625820955444
 20
-67.16161213317147
 30
0.0
 11
36.35140047240762
 21
-61.87678185888026
 31
0.0
 12
37.56625820955444
 22
-61.67690464181253
 32
0.0
 13
37.56625820955444
 23
-61.67690464181253
 33
0.0
  0
SOLID
  5
6F
330
4B
100
AcDbEntity
  8
LAYER_3
 62
   253
100
AcDbTrace
 10
37.56625820955444
 20
-67.16161213317147
 30
0.0
 11
37.56625820955444
 21
-61.67690464181253
 31
0.0
 12
39.50048228504635
 22
-67.06611514855373
 32
0.0
 13
39.50048228504635
 23
-67.06611514855373
 33
0.0
  0
SOLID
  5
70
330
4B
100
AcDbEntity
  8
LAYER_3
 62
   253
100
AcDbTrace
 10
39.50048228504635
 20
-67.06611514855373
 30
0.0
 11
37.56625820955444
 21
-61.67690464181253
 31
0.0
 12
39.50048228504635
 22
-61.35867205080751
 32
0.0
 13
39.50048228504635
 23
-61.35867205080751
 33
0.0
  0
SOLID
  5
71
330
4B
100
AcDbEntity
  8
LAYER_3
 62
   253
100
AcDbTrace
 10
39.50048228504635
 20
-67.06611514855373
 30
0.0
 11
39.50048228504635
 21
-61.35867205080751
 31
0.0
 12
39.54392830919392
 22
-67.04989370596357
 32
0.0
 13
39.54392830919392
 23
-67.04989370596357
 33
0.0
  0
SOLID
  5
72
330
4B
100
AcDbEntity
  8
LAYER_3
 62
   253
100
AcDbTrace
 10
39.54392830919392
 20
-67.04989370596357
 30
0.0
 11
39.50048228504635
 21
-61.35867205080751
 31
0.0
 12
39.54392830919392
 22
-61.35152399541489
 32
0.0
 13
39.54392830919392
 23
-61.35152399541489
 33
0.0
  0
SOLID
  5
73
330
4B
100
AcDbEntity
  8
LAYER_3
 62
   253
100
AcDbTrace
 10
39.54392830919392
 20
-67.04989370596357
 30
0.0
 11
39.54392830919392
 21
-61.35152399541489
 31
0.0
 12
42.41816100394522
 22
-65.97674140806139
 32
0.0
 13
42.41816100394522
 23
-65.97674140806139
 33
0.0
  0
SOLID
  5
74
330
4B
100
AcDbEntity
  8
LAYER_3
 62
   253
100
AcDbTrace
 10
42.41816100394522
 20
-65.97674140806139
 30
0.0
 11
39.54392830919392
 21
-61.35152399541489
 31
0.0
 12
42.41816100394522
 22
-59.95214782335461
 32
0.0
 13
42.41816100394522
 23
-59.95214782335461
 33
0.0
  0
SOLID
  5
75
330
4B
100
AcDbEntity
  8
LAYER_3
 62
   253
100
AcDbTrace
 10
42.41816100394522
 20
-65.97674140806139
 30
0.0
 11
42.41816100394522
 21
-59.95214782335461
 31
0.0
 12
43.25866551739944
 22
-65.66292222715174
 32
0.0
 13
43.25866551739944
 23
-65.66292222715174
 33
0.0
  0
SOLID
  5
76
330
4B
100
AcDbEntity
  8
LAYER_3
 62
   253
100
AcDbTrace
 10
43.25866551739944
 20
-65.66292222715174
 30
0.0
 11
42.41816100394522
 21
-59.95214782335461
 31
0.0
 12
43.25866551739944
 22
-59.35165049001186
 32
0.0
 13
43.25866551739944
 23
-59.35165049001186
 33
0.0
  0
SOLID
  5
77
330
4B
100
AcDbEntity
  8
LAYER_3
 62
   253
100
AcDbTrace
 10
43.25866551739944
 20
-65.66292222715174
 30
0.0
 11
43.25866551739944
 21
-59.35165049001186
 31
0.0
 12
45.41299722717922
 22
-64.14231277187524
 32
0.0
 13
45.41299722717922
 23
-64.14231277187524
 33
0.0
  0
SOLID
  5
78
330
4B
100
AcDbEntity
  8
LAYER_3
 62
   253
100
AcDbTrace
 10
45.41299722717922
 20
-64.14231277187524
 30
0.0
 11
43.25866551739944
 21
-59.35165049001186
 31
0.0
 12
45.41299722717922
 22
-57.81249106118035
 32
0.0
 13
45.41299722717922
 23
-57.81249106118035
 33
0.0
  0
SOLID
  5
79
330
4B
100
AcDbEntity
  8
LAYER_3
 62
   253
100
AcDbTrace
 10
45.41299722717922
 20
-64.14231277187524
 30
0.0
 11
45.41299722717922
 21
-57.81249106118035
 31
0.0
 12
47.30109481733302
 22
-62.80962150848287
 32
0.0
 13
47.30109481733302
 23
-62.80962150848287
 33
0.0
  0
SOLID
  5
7A
330
4B
100
AcDbEntity
  8
LAYER_3
 62
   253
100
AcDbTrace
 10
47.30109481733302
 20
-62.80962150848287
 30
0.0
 11
45.41299722717922
 21
-57.81249106118035
 31
0.0
 12
47.30109481733302
 22
-56.39225851019557
 32
0.0
 13
47.30109481733302
 23
-56.39225851019557
 33
0.0
  0
SOLID
  5
7B
330
4B
100
AcDbEntity
  8
LAYER_3
 62
   253
100
AcDbTrace
 10
47.30109481733302
 20
-62.80962150848287
 30
0.0
 11
47.30109481733302
 21
-56.39225851019557
 31
0.0
 12
47.57566257140957
 22
-62.57871143567456
 32
0.0
 13
47.57566257140957
 23
-62.57871143567456
 33
0.0
  0
SOLID
  5
7C
330
4B
100
AcDbEntity
  8
LAYER_3
 62
   253
100
AcDbTrace
 10
47.57566257140957
 20
-62.57871143567456
 30
0.0
 11
47.30109481733302
 21
-56.39225851019557
 31
0.0
 12
47.57566257140957
 22
-56.18572783941678
 32
0.0
 13
47.57566257140957
 23
-56.18572783941678
 33
0.0
  0
SOLID
  5
7D
330
4B
100
AcDbEntity
  8
LAYER_3
 62
   253
100
AcDbTrace
 10
47.57566257140957
 20
-62.57871143567456
 30
0.0
 11
47.57566257140957
 21
-56.18572783941678
 31
0.0
 12
48.39184196669105
 22
-61.89230875076006
 32
0.0
 13
48.39184196669105
 23
-61.89230875076006
 33
0.0
  0
SOLID
  5
7E
330
4B
100
AcDbEntity
  8
LAYER_3
 62
   253
100
AcDbTrace
 10
48.39184196669105
 20
-61.89230875076006
 30
0.0
 11
47.57566257140957
 21
-56.18572783941678
 31
0.0
 12
48.39184196669105
 22
-55.59297155592477
 32
0.0
 13
48.39184196669105
 23
-55.59297155592477
 33
0.0
  0
SOLID
  5
7F
330
4B
100
AcDbEntity
  8
LAYER_3
 62
   253
100
AcDbTrace
 10
48.39184196669105
 20
-61.89230875076006
 30
0.0
 11
48.39184196669105
 21
-55.59297155592477
 31
0.0
 12
48.95251143285521
 22
-61.40512514700638
 32
0.0
 13
48.95251143285521
 23
-61.40512514700638
 33
0.0
  0
SOLID
  5
80
330
4B
100
AcDbEntity
  8
LAYER_3
 62
   253
100
AcDbTrace
 10
48.95251143285521
 20
-61.40512514700638
 30
0.0
 11
48.39184196669105
 21
-55.59297155592477
 31
0.0
 12
48.95251143285521
 22
-55.18578123606095
 32
0.0
 13
48.95251143285521
 23
-55.18578123606095
 33
0.0
  0
SOLID
  5
81
330
4B
100
AcDbEntity
  8
LAYER_3
 62
   253
100
AcDbTrace
 10
48.95251143285521
 20
-61.40512514700638
 30
0.0
 11
48.95251143285521
 21
-55.18578123606095
 31
0.0
 12
49.23693064363585
 22
-61.15456627052821
 32
0.0
 13
49.23693064363585
 23
-61.15456627052821
 33
0.0
  0
SOLID
  5
82
330
4B
100
AcDbEntity
  8
LAYER_3
 62
   253
100
AcDbTrace
 10
49.23693064363585
 20
-61.15456627052821
 30
0.0
 11
48.95251143285521
 21
-55.18578123606095
 31
0.0
 12
49.23693064363585
 22
-54.97921969418581
 32
0.0
 13
49.23693064363585
 23
-54.97921969418581
 33
0.0
  0
SOLID
  5
83
330
4B
100
AcDbEntity
  8
LAYER_3
 62
   253
100
AcDbTrace
 10
49.23693064363585
 20
-61.15456627052821
 30
0.0
 11
49.23693064363585
 21
-54.97921969418581
 31
0.0
 12
49.82376473721946
 22
-60.63850812736515
 32
0.0
 13
49.82376473721946
 23
-60.63850812736515
 33
0.0
  0
SOLID
  5
84
330
4B
100
AcDbEntity
  8
LAYER_3
 62
   253
100
AcDbTrace
 10
49.82376473721946
 20
-60.63850812736515
 30
0.0
 11
49.23693064363585
 21
-54.97921969418581
 31
0.0
 12
49.82376473721946
 22
-54.55302712138868
 32
0.0
 13
49.82376473721946
 23
-54.55302712138868
 33
0.0
  0
SOLID
  5
85
330
4B
100
AcDbEntity
  8
LAYER_3
 62
   253
100
AcDbTrace
 10
49.82376473721946
 20
-60.63850812736515
 30
0.0
 11
49.82376473721946
 21
-54.55302712138868
 31
0.0
 12
50.21591989395345
 22
-60.33124808466554
 32
0.0
 13
50.21591989395345
 23
-60.33124808466554
 33
0.0
  0
SOLID
  5
86
330
4B
100
AcDbEntity
  8
LAYER_3
 62
   253
100
AcDbTrace
 10
50.21591989395345
 20
-60.33124808466554
 30
0.0
 11
49.82376473721946
 21
-54.55302712138868
 31
0.0
 12
50.21591989395345
 22
-54.26822155707067
 32
0.0
 13
50.21591989395345
 23
-54.26822155707067
 33
0.0
  0
SOLID
  5
87
330
4B
100
AcDbEntity
  8
LAYER_3
 62
   253
100
AcDbTrace
 10
50.21591989395345
 20
-60.33124808466554
 30
0.0
 11
50.21591989395345
 21
-54.26822155707067
 31
0.0
 12
53.30441873619918
 22
-57.91135822767752
 32
0.0
 13
53.30441873619918
 23
-57.91135822767752
 33
0.0
  0
SOLID
  5
88
330
4B
100
AcDbEntity
  8
LAYER_3
 62
   253
100
AcDbTrace
 10
53.30441873619918
 20
-57.91135822767752
 30
0.0
 11
50.21591989395345
 21
-54.26822155707067
 31
0.0
 12
53.30441873619918
 22
-52.14627536111657
 32
0.0
 13
53.30441873619918
 23
-52.14627536111657
 33
0.0
  0
SOLID
  5
89
330
4B
100
AcDbEntity
  8
LAYER_3
 62
   253
100
AcDbTrace
 10
53.30441873619918
 20
-57.91135822767752
 30
0.0
 11
53.30441873619918
 21
-52.14627536111657
 31
0.0
 12
55.93171163176223
 22
-55.85283084785608
 32
0.0
 13
55.93171163176223
 23
-55.85283084785608
 33
0.0
  0
SOLID
  5
8A
330
4B
100
AcDbEntity
  8
LAYER_3
 62
   253
100
AcDbTrace
 10
55.93171163176223
 20
-55.85283084785608
 30
0.0
 11
53.30441873619918
 21
-52.14627536111657
 31
0.0
 12
55.93171163176223
 22
-50.46828853465048
 32
0.0
 13
55.93171163176223
 23
-50.46828853465048
 33
0.0
  0
SOLID
  5
8B
330
4B
100
AcDbEntity
  8
LAYER_3
 62
   253
100
AcDbTrace
 10
55.93171163176223
 20
-55.85283084785608
 30
0.0
 11
55.93171163176223
 21
-50.46828853465048
 31
0.0
 12
56.81180863953511
 22
-55.30130041713006
 32
0.0
 13
56.81180863953511
 23
-55.30130041713006
 33
0.0
  0
SOLID
  5
8C
330
4B
100
AcDbEntity
  8
LAYER_3
 62
   253
100
AcDbTrace
 10
56.81180863953511
 20
-55.30130041713006
 30
0.0
 11
55.93171163176223
 21
-50.46828853465048
 31
0.0
 12
56.81180863953511
 22
-49.90619239852911
 32
0.0
 13
56.81180863953511
 23
-49.90619239852911
 33
0.0
  0
SOLID
  5
8D
330
4B
100
AcDbEntity
  8
LAYER_3
 62
   253
100
AcDbTrace
 10
56.81180863953511
 20
-55.30130041713006
 30
0.0
 11
56.81180863953511
 21
-49.90619239852911
 31
0.0
 12
62.90313337234401
 22
-51.48404967782844
 32
0.0
 13
62.90313337234401
 23
-51.48404967782844
 33
0.0
  0
SOLID
  5
8E
330
4B
100
AcDbEntity
  8
LAYER_3
 62
   253
100
AcDbTrace
 10
62.90313337234401
 20
-51.48404967782844
 30
0.0
 11
56.81180863953511
 21
-49.90619239852911
 31
0.0
 12
62.90313337234401
 22
-46.55250093446909
 32
0.0
 13
62.90313337234401
 23
-46.55250093446909
 33
0.0
  0
SOLID
  5
8F
330
4B
100
AcDbEntity
  8
LAYER_3
 62
   253
100
AcDbTrace
 10
62.90313337234401
 20
-51.48404967782844
 30
0.0
 11
62.90313337234401
 21
-46.55250093446909
 31
0.0
 12
64.96585979503148
 22
-50.49733062160437
 32
0.0
 13
64.96585979503148
 23
-50.49733062160437
 33
0.0
  0
SOLID
  5
90
330
4B
100
AcDbEntity
  8
LAYER_3
 62
   253
100
AcDbTrace
 10
64.96585979503148
 20
-50.49733062160437
 30
0.0
 11
62.90313337234401
 21
-46.55250093446909
 31
0.0
 12
64.96585979503148
 22
-45.41682876135413
 32
0.0
 13
64.96585979503148
 23
-45.41682876135413
 33
0.0
  0
SOLID
  5
91
330
4B
100
AcDbEntity
  8
LAYER_3
 62
   253
100
AcDbTrace
 10
64.96585979503148
 20
-50.49733062160437
 30
0.0
 11
64.96585979503148
 21
-45.41682876135413
 31
0.0
 12
70.63176919227278
 22
-47.78700475792871
 32
0.0
 13
70.63176919227278
 23
-47.78700475792871
 33
0.0
  0
SOLID
  5
92
330
4B
100
AcDbEntity
  8
LAYER_3
 62
   253
100
AcDbTrace
 10
70.63176919227278
 20
-47.78700475792871
 30
0.0
 11
64.96585979503148
 21
-45.41682876135413
 31
0.0
 12
70.63176919227278
 22
-43.06957281380753
 32
0.0
 13
70.63176919227278
 23
-43.06957281380753
 33
0.0
  0
SOLID
  5
93
330
4B
100
AcDbEntity
  8
LAYER_3
 62
   253
100
AcDbTrace
 10
70.63176919227278
 20
-47.78700475792871
 30
0.0
 11
70.63176919227278
 21
-43.06957281380753
 31
0.0
 12
74.44326969154883
 22
-46.52684247372686
 32
0.0
 13
74.44326969154883
 23
-46.52684247372686
 33
0.0
  0
SOLID
  5
94
330
4B
100
AcDbEntity
  8
LAYER_3
 62
   253
100
AcDbTrace
 10
74.44326969154883
 20
-46.52684247372686
 30
0.0
 11
70.63176919227278
 21
-43.06957281380753
 31
0.0
 12
74.44326969154883
 22
-41.49055582134404
 32
0.0
 13
74.44326969154883
 23
-41.49055582134404
 33
0.0
  0
SOLID
  5
95
330
4B
100
AcDbEntity
  8
LAYER_3
 62
   253
100
AcDbTrace
 10
74.44326969154883
 20
-46.52684247372686
 30
0.0
 11
74.44326969154883
 21
-41.49055582134404
 31
0.0
 12
79.01135832485654
 22
-45.01653622880339
 32
0.0
 13
79.01135832485654
 23
-45.01653622880339
 33
0.0
  0
SOLID
  5
96
330
4B
100
AcDbEntity
  8
LAYER_3
 62
   253
100
AcDbTrace
 10
79.01135832485654
 20
-45.01653622880339
 30
0.0
 11
74.44326969154883
 21
-41.49055582134404
 31
0.0
 12
79.01135832485654
 22
-40.130976791717
 32
0.0
 13
79.01135832485654
 23
-40.130976791717
 33
0.0
  0
SOLID
  5
97
330
4B
100
AcDbEntity
  8
LAYER_3
 62
   253
100
AcDbTrace
 10
79.01135832485654
 20
-45.01653622880339
 30
0.0
 11
79.01135832485654
 21
-40.130976791717
 31
0.0
 12
79.6048580211621
 22
-44.91085804516666
 32
0.0
 13
79.6048580211621
 23
-44.91085804516666
 33
0.0
  0
SOLID
  5
98
330
4B
100
AcDbEntity
  8
LAYER_3
 62
   253
100
AcDbTrace
 10
79.6048580211621
 20
-44.91085804516666
 30
0.0
 11
79.01135832485654
 21
-40.130976791717
 31
0.0
 12
79.6048580211621
 22
-39.95433623021311
 32
0.0
 13
79.6048580211621
 23
-39.95433623021311
 33
0.0
  0
SOLID
  5
99
330
4B
100
AcDbEntity
  8
LAYER_3
 62
   253
100
AcDbTrace
 10
79.6048580211621
 20
-44.91085804516666
 30
0.0
 11
79.6048580211621
 21
-39.95433623021311
 31
0.0
 12
85.00923466019641
 22
-43.94855813084985
 32
0.0
 13
85.00923466019641
 23
-43.94855813084985
 33
0.0
  0
SOLID
  5
9A
330
4B
100
AcDbEntity
  8
LAYER_3
 62
   253
100
AcDbTrace
 10
85.00923466019641
 20
-43.94855813084985
 30
0.0
 11
79.6048580211621
 21
-39.95433623021311
 31
0.0
 12
85.00923466019641
 22
-38.81779875429778
 32
0.0
 13
85.00923466019641
 23
-38.81779875429778
 33
0.0
  0
SOLID
  5
9B
330
4B
100
AcDbEntity
  8
LAYER_3
 62
   253
100
AcDbTrace
 10
85.00923466019641
 20
-43.94855813084985
 30
0.0
 11
85.00923466019641
 21
-38.81779875429778
 31
0.0
 12
87.93564000340331
 22
-43.42748423109894
 32
0.0
 13
87.93564000340331
 23
-43.42748423109894
 33
0.0
  0
SOLID
  5
9C
330
4B
100
AcDbEntity
  8
LAYER_3
 62
   253
100
AcDbTrace
 10
87.93564000340331
 20
-43.42748423109894
 30
0.0
 11
85.00923466019641
 21
-38.81779875429778
 31
0.0
 12
87.93564000340331
 22
-38.47891617322972
 32
0.0
 13
87.93564000340331
 23
-38.47891617322972
 33
0.0
  0
SOLID
  5
9D
330
4B
100
AcDbEntity
  8
LAYER_3
 62
   253
100
AcDbTrace
 10
87.93564000340331
 20
-43.42748423109894
 30
0.0
 11
87.93564000340331
 21
-38.47891617322972
 31
0.0
 12
90.62704915003908
 22
-43.26956313050309
 32
0.0
 13
90.62704915003908
 23
-43.26956313050309
 33
0.0
  0
SOLID
  5
9E
330
4B
100
AcDbEntity
  8
LAYER_3
 62
   253
100
AcDbTrace
 10
90.62704915003908
 20
-43.26956313050309
 30
0.0
 11
87.93564000340331
 21
-38.47891617322972
 31
0.0
 12
90.62704915003908
 22
-38.16724654057294
 32
0.0
 13
90.62704915003908
 23
-38.16724654057294
 33
0.0
  0
SOLID
  5
9F
330
4B
100
AcDbEntity
  8
LAYER_3
 62
   253
100
AcDbTrace
 10
90.62704915003908
 20
-43.26956313050309
 30
0.0
 11
90.62704915003908
 21
-38.16724654057294
 31
0.0
 12
92.56883405782155
 22
-43.15562697548158
 32
0.0
 13
92.56883405782155
 23
-43.15562697548158
 33
0.0
  0
SOLID
  5
A0
330
4B
100
AcDbEntity
  8
LAYER_3
 62
   253
100
AcDbTrace
 10
92.56883405782155
 20
-43.15562697548158
 30
0.0
 11
90.62704915003908
 21
-38.16724654057294
 31
0.0
 12
92.56883405782155
 22
-38.14055768599697
 32
0.0
 13
92.56883405782155
 23
-38.14055768599697
 33
0.0
  0
SOLID
  5
A1
330
4B
100
AcDbEntity
  8
LAYER_3
 62
   253
100
AcDbTrace
 10
92.56883405782155
 20
-43.15562697548158
 30
0.0
 11
92.56883405782155
 21
-38.14055768599697
 31
0.0
 12
96.10533047643872
 22
-43.27857138911242
 32
0.0
 13
96.10533047643872
 23
-43.27857138911242
 33
0.0
  0
SOLID
  5
A2
330
4B
100
AcDbEntity
  8
LAYER_3
 62
   253
100
AcDbTrace
 10
96.10533047643872
 20
-43.27857138911242
 30
0.0
 11
92.56883405782155
 21
-38.14055768599697
 31
0.0
 12
96.10533047643872
 22
-38.09195032570354
 32
0.0
 13
96.10533047643872
 23
-38.09195032570354
 33
0.0
  0
SOLID
  5
A3
330
4B
100
AcDbEntity
  8
LAYER_3
 62
   253
100
AcDbTrace
 10
96.10533047643872
 20
-43.27857138911242
 30
0.0
 11
96.10533047643872
 21
-38.09195032570354
 31
0.0
 12
97.50477952001751
 22
-43.32722248943965
 32
0.0
 13
97.50477952001751
 23
-43.32722248943965
 33
0.0
  0
SOLID
  5
A4
330
4B
100
AcDbEntity
  8
LAYER_3
 62
   253
100
AcDbTrace
 10
97.50477952001751
 20
-43.32722248943965
 30
0.0
 11
96.10533047643872
 21
-38.09195032570354
 31
0.0
 12
97.50477952001751
 22
-38.252894646227
 32
0.0
 13
97.50477952001751
 23
-38.252894646227
 33
0.0
  0
SOLID
  5
A5
330
4B
100
AcDbEntity
  8
LAYER_3
 62
   253
100
AcDbTrace
 10
97.50477952001751
 20
-43.32722248943965
 30
0.0
 11
97.50477952001751
 21
-38.252894646227
 31
0.0
 12
100.9452126382678
 22
-43.89932296351451
 32
0.0
 13
100.9452126382678
 23
-43.89932296351451
 33
0.0
  0
SOLID
  5
A6
330
4B
100
AcDbEntity
  8
LAYER_3
 62
   253
100
AcDbTrace
 10
100.9452126382678
 20
-43.89932296351451
 30
0.0
 11
97.50477952001751
 21
-38.252894646227
 31
0.0
 12
100.9452126382678
 22
-38.64856333674766
 32
0.0
 13
100.9452126382678
 23
-38.64856333674766
 33
0.0
  0
SOLID
  5
A7
330
4B
100
AcDbEntity
  8
LAYER_3
 62
   253
100
AcDbTrace
 10
100.9452126382678
 20
-43.89932296351451
 30
0.0
 11
100.9452126382678
 21
-38.64856333674766
 31
0.0
 12
102.4254376136093
 22
-44.14546563829525
 32
0.0
 13
102.4254376136093
 23
-44.14546563829525
 33
0.0
  0
SOLID
  5
A8
330
4B
100
AcDbEntity
  8
LAYER_3
 62
   253
100
AcDbTrace
 10
102.4254376136093
 20
-44.14546563829525
 30
0.0
 11
100.9452126382678
 21
-38.64856333674766
 31
0.0
 12
102.4254376136093
 22
-38.99852490496681
 32
0.0
 13
102.4254376136093
 23
-38.99852490496681
 33
0.0
  0
SOLID
  5
A9
330
4B
100
AcDbEntity
  8
LAYER_3
 62
   253
100
AcDbTrace
 10
102.4254376136093
 20
-44.14546563829525
 30
0.0
 11
102.4254376136093
 21
-38.99852490496681
 31
0.0
 12
105.5641250465805
 22
-45.07429556620061
 32
0.0
 13
105.5641250465805
 23
-45.07429556620061
 33
0.0
  0
SOLID
  5
AA
330
4B
100
AcDbEntity
  8
LAYER_3
 62
   253
100
AcDbTrace
 10
105.5641250465805
 20
-45.07429556620061
 30
0.0
 11
102.4254376136093
 21
-38.99852490496681
 31
0.0
 12
105.5641250465805
 22
-39.74058776330961
 32
0.0
 13
105.5641250465805
 23
-39.74058776330961
 33
0.0
  0
SOLID
  5
AB
330
4B
100
AcDbEntity
  8
LAYER_3
 62
   253
100
AcDbTrace
 10
105.5641250465805
 20
-45.07429556620061
 30
0.0
 11
105.5641250465805
 21
-39.74058776330961
 31
0.0
 12
107.047806438365
 22
-45.51336052873535
 32
0.0
 13
107.047806438365
 23
-45.51336052873535
 33
0.0
  0
SOLID
  5
AC
330
4B
100
AcDbEntity
  8
LAYER_3
 62
   253
100
AcDbTrace
 10
107.047806438365
 20
-45.51336052873535
 30
0.0
 11
105.5641250465805
 21
-39.74058776330961
 31
0.0
 12
107.047806438365
 22
-40.25451594092208
 32
0.0
 13
107.047806438365
 23
-40.25451594092208
 33
0.0
  0
SOLID
  5
AD
330
4B
100
AcDbEntity
  8
LAYER_3
 62
   253
100
AcDbTrace
 10
107.047806438365
 20
-45.51336052873535
 30
0.0
 11
107.047806438365
 21
-40.25451594092208
 31
0.0
 12
109.9153084176796
 22
-46.70780039083247
 32
0.0
 13
109.9153084176796
 23
-46.70780039083247
 33
0.0
  0
SOLID
  5
AE
330
4B
100
AcDbEntity
  8
LAYER_3
 62
   253
100
AcDbTrace
 10
109.9153084176796
 20
-46.70780039083247
 30
0.0
 11
107.047806438365
 21
-40.25451594092208
 31
0.0
 12
109.9153084176796
 22
-41.24778179617202
 32
0.0
 13
109.9153084176796
 23
-41.24778179617202
 33
0.0
  0
SOLID
  5
AF
330
4B
100
AcDbEntity
  8
LAYER_3
 62
   253
100
AcDbTrace
 10
109.9153084176796
 20
-46.70780039083247
 30
0.0
 11
109.9153084176796
 21
-41.24778179617202
 31
0.0
 12
111.3371742091515
 22
-47.30006961754535
 32
0.0
 13
111.3371742091515
 23
-47.30006961754535
 33
0.0
  0
SOLID
  5
B0
330
4B
100
AcDbEntity
  8
LAYER_3
 62
   253
100
AcDbTrace
 10
111.3371742091515
 20
-47.30006961754535
 30
0.0
 11
109.9153084176796
 21
-41.24778179617202
 31
0.0
 12
111.3371742091515
 22
-41.88255240683358
 32
0.0
 13
111.3371742091515
 23
-41.88255240683358
 33
0.0
  0
SOLID
  5
B1
330
4B
100
AcDbEntity
  8
LAYER_3
 62
   253
100
AcDbTrace
 10
111.3371742091515
 20
-47.30006961754535
 30
0.0
 11
111.3371742091515
 21
-41.88255240683358
 31
0.0
 12
113.9520034678695
 22
-48.68340116518693
 32
0.0
 13
113.9520034678695
 23
-48.68340116518693
 33
0.0
  0
SOLID
  5
B2
330
4B
100
AcDbEntity
  8
LAYER_3
 62
   253
100
AcDbTrace
 10
113.9520034678695
 20
-48.68340116518693
 30
0.0
 11
111.3371742091515
 21
-41.88255240683358
 31
0.0
 12
113.9520034678695
 22
-43.04990362611701
 32
0.0
 13
113.9520034678695
 23
-43.04990362611701
 33
0.0
  0
SOLID
  5
B3
330
4B
100
AcDbEntity
  8
LAYER_3
 62
   253
100
AcDbTrace
 10
113.9520034678695
 20
-48.68340116518693
 30
0.0
 11
113.9520034678695
 21
-43.04990362611701
 31
0.0
 12
115.2588291408371
 22
-49.37475536151039
 32
0.0
 13
115.2588291408371
 23
-49.37475536151039
 33
0.0
  0
SOLID
  5
B4
330
4B
100
AcDbEntity
  8
LAYER_3
 62
   253
100
AcDbTrace
 10
115.2588291408371
 20
-49.37475536151039
 30
0.0
 11
113.9520034678695
 21
-43.04990362611701
 31
0.0
 12
115.2588291408371
 22
-43.80432101869392
 32
0.0
 13
115.2588291408371
 23
-43.80432101869392
 33
0.0
  0
SOLID
  5
B5
330
4B
100
AcDbEntity
  8
LAYER_3
 62
   253
100
AcDbTrace
 10
115.2588291408371
 20
-49.37475536151039
 30
0.0
 11
115.2588291408371
 21
-43.80432101869392
 31
0.0
 12
118.7780594482877
 22
-51.60658021741633
 32
0.0
 13
118.7780594482877
 23
-51.60658021741633
 33
0.0
  0
SOLID
  5
B6
330
4B
100
AcDbEntity
  8
LAYER_3
 62
   253
100
AcDbTrace
 10
118.7780594482877
 20
-51.60658021741633
 30
0.0
 11
115.2588291408371
 21
-43.80432101869392
 31
0.0
 12
118.7780594482877
 22
-45.83593748242279
 32
0.0
 13
118.7780594482877
 23
-45.83593748242279
 33
0.0
  0
SOLID
  5
B7
330
4B
100
AcDbEntity
  8
LAYER_3
 62
   253
100
AcDbTrace
 10
118.7780594482877
 20
-51.60658021741633
 30
0.0
 11
118.7780594482877
 21
-45.83593748242279
 31
0.0
 12
120.8948914707337
 22
-53.15749802993536
 32
0.0
 13
120.8948914707337
 23
-53.15749802993536
 33
0.0
  0
SOLID
  5
B8
330
4B
100
AcDbEntity
  8
LAYER_3
 62
   253
100
AcDbTrace
 10
120.8948914707337
 20
-53.15749802993536
 30
0.0
 11
118.7780594482877
 21
-45.83593748242279
 31
0.0
 12
120.8948914707337
 22
-47.05796344038438
 32
0.0
 13
120.8948914707337
 23
-47.05796344038438
 33
0.0
  0
SOLID
  5
B9
330
4B
100
AcDbEntity
  8
LAYER_3
 62
   253
100
AcDbTrace
 10
120.8948914707337
 20
-53.15749802993536
 30
0.0
 11
120.8948914707337
 21
-47.05796344038438
 31
0.0
 12
121.8601533463701
 22
-53.86470664204816
 32
0.0
 13
121.8601533463701
 23
-53.86470664204816
 33
0.0
  0
SOLID
  5
BA
330
4B
100
AcDbEntity
  8
LAYER_3
 62
   253
100
AcDbTrace
 10
121.8601533463701
 20
-53.86470664204816
 30
0.0
 11
120.8948914707337
 21
-47.05796344038438
 31
0.0
 12
121.8601533463701
 22
-47.73247385567512
 32
0.0
 13
121.8601533463701
 23
-47.73247385567512
 33
0.0
  0
SOLID
  5
BB
330
4B
100
AcDbEntity
  8
LAYER_3
 62
   253
100
AcDbTrace
 10
121.8601533463701
 20
-53.86470664204816
 30
0.0
 11
121.8601533463701
 21
-47.73247385567512
 31
0.0
 12
123.7075658560156
 22
-55.38891945189518
 32
0.0
 13
123.7075658560156
 23
-55.38891945189518
 33
0.0
  0
SOLID
  5
BC
330
4B
100
AcDbEntity
  8
LAYER_3
 62
   253
100
AcDbTrace
 10
123.7075658560156
 20
-55.38891945189518
 30
0.0
 11
121.8601533463701
 21
-47.73247385567512
 31
0.0
 12
123.7075658560156
 22
-49.02341780627172
 32
0.0
 13
123.7075658560156
 23
-49.02341780627172
 33
0.0
  0
SOLID
  5
BD
330
4B
100
AcDbEntity
  8
LAYER_3
 62
   253
100
AcDbTrace
 10
123.7075658560156
 20
-55.38891945189518
 30
0.0
 11
123.7075658560156
 21
-49.02341780627172
 31
0.0
 12
124.4703990499523
 22
-56.01829709219159
 32
0.0
 13
124.4703990499523
 23
-56.01829709219159
 33
0.0
  0
SOLID
  5
BE
330
4B
100
AcDbEntity
  8
LAYER_3
 62
   253
100
AcDbTrace
 10
124.4703990499523
 20
-56.01829709219159
 30
0.0
 11
123.7075658560156
 21
-49.02341780627172
 31
0.0
 12
124.4703990499523
 22
-49.61074333689352
 32
0.0
 13
124.4703990499523
 23
-49.61074333689352
 33
0.0
  0
SOLID
  5
BF
330
4B
100
AcDbEntity
  8
LAYER_3
 62
   253
100
AcDbTrace
 10
124.4703990499523
 20
-56.01829709219159
 30
0.0
 11
124.4703990499523
 21
-49.61074333689352
 31
0.0
 12
126.0187147856016
 22
-57.43010752902416
 32
0.0
 13
126.0187147856016
 23
-57.43010752902416
 33
0.0
  0
SOLID
  5
C0
330
4B
100
AcDbEntity
  8
LAYER_3
 62
   253
100
AcDbTrace
 10
126.0187147856016
 20
-57.43010752902416
 30
0.0
 11
124.4703990499523
 21
-49.61074333689352
 31
0.0
 12
126.0187147856016
 22
-50.80283273237125
 32
0.0
 13
126.0187147856016
 23
-50.80283273237125
 33
0.0
  0
SOLID
  5
C1
330
4B
100
AcDbEntity
  8
LAYER_3
 62
   253
100
AcDbTrace
 10
126.0187147856016
 20
-57.43010752902416
 30
0.0
 11
126.0187147856016
 21
-50.80283273237125
 31
0.0
 12
126.5740847739009
 22
-57.93651402463188
 32
0.0
 13
126.5740847739009
 23
-57.93651402463188
 33
0.0
  0
SOLID
  5
C2
330
4B
100
AcDbEntity
  8
LAYER_3
 62
   253
100
AcDbTrace
 10
126.5740847739009
 20
-57.93651402463188
 30
0.0
 11
126.0187147856016
 21
-50.80283273237125
 31
0.0
 12
126.5740847739009
 22
-51.2669264711641
 32
0.0
 13
126.5740847739009
 23
-51.2669264711641
 33
0.0
  0
SOLID
  5
C3
330
4B
100
AcDbEntity
  8
LAYER_3
 62
   253
100
AcDbTrace
 10
126.5740847739009
 20
-57.93651402463188
 30
0.0
 11
126.5740847739009
 21
-51.2669264711641
 31
0.0
 12
127.7815789757955
 22
-59.13596445206633
 32
0.0
 13
127.7815789757955
 23
-59.13596445206633
 33
0.0
  0
SOLID
  5
C4
330
4B
100
AcDbEntity
  8
LAYER_3
 62
   253
100
AcDbTrace
 10
127.7815789757955
 20
-59.13596445206633
 30
0.0
 11
126.5740847739009
 21
-51.2669264711641
 31
0.0
 12
127.7815789757955
 22
-52.27596640946557
 32
0.0
 13
127.7815789757955
 23
-52.27596640946557
 33
0.0
  0
SOLID
  5
C5
330
4B
100
AcDbEntity
  8
LAYER_3
 62
   253
100
AcDbTrace
 10
127.7815789757955
 20
-59.13596445206633
 30
0.0
 11
127.7815789757955
 21
-52.27596640946557
 31
0.0
 12
128.1364987330825
 22
-59.48851989615447
 32
0.0
 13
128.1364987330825
 23
-59.48851989615447
 33
0.0
  0
SOLID
  5
C6
330
4B
100
AcDbEntity
  8
LAYER_3
 62
   253
100
AcDbTrace
 10
128.1364987330825
 20
-59.48851989615447
 30
0.0
 11
127.7815789757955
 21
-52.27596640946557
 31
0.0
 12
128.1364987330825
 22
-52.59404859136911
 32
0.0
 13
128.1364987330825
 23
-52.59404859136911
 33
0.0
  0
SOLID
  5
C7
330
4B
100
AcDbEntity
  8
LAYER_3
 62
   253
100
AcDbTrace
 10
128.1364987330825
 20
-59.48851989615447
 30
0.0
 11
128.1364987330825
 21
-52.59404859136911
 31
0.0
 12
128.9493991429009
 22
-60.35789211636639
 32
0.0
 13
128.9493991429009
 23
-60.35789211636639
 33
0.0
  0
SOLID
  5
C8
330
4B
100
AcDbEntity
  8
LAYER_3
 62
   253
100
AcDbTrace
 10
128.9493991429009
 20
-60.35789211636639
 30
0.0
 11
128.1364987330825
 21
-52.59404859136911
 31
0.0
 12
128.9493991429009
 22
-53.32257702833699
 32
0.0
 13
128.9493991429009
 23
-53.32257702833699
 33
0.0
  0
SOLID
  5
C9
330
4B
100
AcDbEntity
  8
LAYER_3
 62
   253
100
AcDbTrace
 10
128.9493991429009
 20
-60.35789211636639
 30
0.0
 11
128.9493991429009
 21
-53.32257702833699
 31
0.0
 12
129.122929142365
 22
-60.54347716354479
 32
0.0
 13
129.122929142365
 23
-60.54347716354479
 33
0.0
  0
SOLID
  5
CA
330
4B
100
AcDbEntity
  8
LAYER_3
 62
   253
100
AcDbTrace
 10
129.122929142365
 20
-60.54347716354479
 30
0.0
 11
128.9493991429009
 21
-53.32257702833699
 31
0.0
 12
129.122929142365
 22
-53.48747332638532
 32
0.0
 13
129.122929142365
 23
-53.48747332638532
 33
0.0
  0
SOLID
  5
CB
330
4B
100
AcDbEntity
  8
LAYER_3
 62
   253
100
AcDbTrace
 10
129.122929142365
 20
-60.54347716354479
 30
0.0
 11
129.122929142365
 21
-53.48747332638532
 31
0.0
 12
129.4754160032217
 22
-60.94412370623765
 32
0.0
 13
129.4754160032217
 23
-60.94412370623765
 33
0.0
  0
SOLID
  5
CC
330
4B
100
AcDbEntity
  8
LAYER_3
 62
   253
100
AcDbTrace
 10
129.4754160032217
 20
-60.94412370623765
 30
0.0
 11
129.122929142365
 21
-53.48747332638532
 31
0.0
 12
129.4754160032217
 22
-53.82242277976774
 32
0.0
 13
129.4754160032217
 23
-53.82242277976774
 33
0.0
  0
SOLID
  5
CD
330
4B
100
AcDbEntity
  8
LAYER_3
 62
   253
100
AcDbTrace
 10
129.4754160032217
 20
-60.94412370623765
 30
0.0
 11
129.4754160032217
 21
-53.82242277976774
 31
0.0
 12
129.4986642166148
 22
-60.97054828358811
 32
0.0
 13
129.4986642166148
 23
-60.97054828358811
 33
0.0
  0
SOLID
  5
CE
330
4B
100
AcDbEntity
  8
LAYER_3
 62
   253
100
AcDbTrace
 10
129.4986642166148
 20
-60.97054828358811
 30
0.0
 11
129.4754160032217
 21
-53.82242277976774
 31
0.0
 12
129.4986642166148
 22
-54.24478620581518
 32
0.0
 13
129.4986642166148
 23
-54.24478620581518
 33
0.0
  0
SOLID
  5
CF
330
4B
100
AcDbEntity
  8
LAYER_3
 62
   253
100
AcDbTrace
 10
129.4986642166148
 20
-60.97054828358811
 30
0.0
 11
129.4986642166148
 21
-54.24478620581518
 31
0.0
 12
129.501339881345
 22
-60.36483296129571
 32
0.0
 13
129.501339881345
 23
-60.36483296129571
 33
0.0
  0
SOLID
  5
D0
330
4B
100
AcDbEntity
  8
LAYER_3
 62
   253
100
AcDbTrace
 10
129.501339881345
 20
-60.36483296129571
 30
0.0
 11
129.4986642166148
 21
-54.24478620581518
 31
0.0
 12
129.501339881345
 22
-54.29339651850087
 32
0.0
 13
129.501339881345
 23
-54.29339651850087
 33
0.0
  0
ENDBLK
  5
D2
330
4B
100
AcDbEntity
  8
0
100
AcDbBlockEnd
  0
ENDSEC
  0
SECTION
  2
ENTITIES
  0
SPLINE
  5
43
330
1F
100
AcDbEntity
  8
LAYER_3
 62
     7
100
AcDbSpline
210
0.0
220
0.0
230
1.0
 70
    11
 71
     3
 72
   269
 73
   265
 74
     0
 42
0.0000000001
 43
0.0000000001
 12
1.0
 22
0.0
 32
0.0
 13
1.0
 23
0.0
 33
0.0
 40
0.0
 40
0.0
 40
0.0
 40
0.0
 40
1.0
 40
1.0
 40
1.0
 40
2.0
 40
2.0
 40
2.0
 40
3.0
 40
3.0
 40
3.0
 40
4.0
 40
4.0
 40
4.0
 40
5.0
 40
5.0
 40
5.0
 40
6.0
 40
6.0
 40
6.0
 40
7.0
 40
7.0
 40
7.0
 40
8.0
 40
8.0
 40
8.0
 40
9.0
 40
9.0
 40
9.0
 40
10.0
 40
10.0
 40
10.0
 40
11.0
 40
11.0
 40
11.0
 40
12.0
 40
12.0
 40
12.0
 40
13.0
 40
13.0
 40
13.0
 40
14.0
 40
14.0
 40
14.0
 40
15.0
 40
15.0
 40
15.0
 40
16.0
 40
16.0
 40
16.0
 40
17.0
 40
17.0
 40
17.0
 40
18.0
 40
18.0
 40
18.0
 40
19.0
 40
19.0
 40
19.0
 40
20.0
 40
20.0
 40
20.0
 40
21.0
 40
21.0
 40
21.0
 40
22.0
 40
22.0
 40
22.0
 40
23.0
 40
23.0
 40
23.0
 40
24.0
 40
24.0
 40
24.0
 40
25.0
 40
25.0
 40
25.0
 40
26.0
 40
26.0
 40
26.0
 40
27.0
 40
27.0
 40
27.0
 40
28.0
 40
28.0
 40
28.0
 40
29.0
 40
29.0
 40
29.0
 40
30.0
 40
30.0
 40
30.0
 40
31.0
 40
31.0
 40
31.0
 40
32.0
 40
32.0
 40
32.0
 40
33.0
 40
33.0
 40
33.0
 40
34.0
 40
34.0
 40
34.0
 40
35.0
 40
35.0
 40
35.0
 40
36.0
 40
36.0
 40
36.0
 40
37.0
 40
37.0
 40
37.0
 40
38.0
 40
38.0
 40
38.0
 40
39.0
 40
39.0
 40
39.0
 40
40.0
 40
40.0
 40
40.0
 40
41.0
 40
41.0
 40
41.0
 40
42.0
 40
42.0
 40
42.0
 40
43.0
 40
43.0
 40
43.0
 40
44.0
 40
44.0
 40
44.0
 40
45.0
 40
45.0
 40
45.0
 40
46.0
 40
46.0
 40
46.0
 40
47.0
 40
47.0
 40
47.0
 40
48.0
 40
48.0
 40
48.0
 40
49.0
 40
49.0
 40
49.0
 40
50.0
 40
50.0
 40
50.0
 40
51.0
 40
51.0
 40
51.0
 40
52.0
 40
52.0
 40
52.0
 40
53.0
 40
53.0
 40
53.0
 40
54.0
 40
54.0
 40
54.0
 40
55.0
 40
55.0
 40
55.0
 40
56.0
 40
56.0
 40
56.0
 40
57.0
 40
57.0
 40
57.0
 40
58.0
 40
58.0
 40
58.0
 40
59.0
 40
59.0
 40
59.0
 40
60.0
 40
60.0
 40
60.0
 40
61.0
 40
61.0
 40
61.0
 40
62.0
 40
62.0
 40
62.0
 40
63.0
 40
63.0
 40
63.0
 40
64.0
 40
64.0
 40
64.0
 40
65.0
 40
65.0
 40
65.0
 40
66.0
 40
66.0
 40
66.0
 40
67.0
 40
67.0
 40
67.0
 40
68.0
 40
68.0
 40
68.0
 40
69.0
 40
69.0
 40
69.0
 40
70.0
 40
70.0
 40
70.0
 40
71.0
 40
71.0
 40
71.0
 40
72.0
 40
72.0
 40
72.0
 40
73.0
 40
73.0
 40
73.0
 40
74.0
 40
74.0
 40
74.0
 40
75.0
 40
75.0
 40
75.0
 40
76.0
 40
76.0
 40
76.0
 40
77.0
 40
77.0
 40
77.0
 40
78.0
 40
78.0
 40
78.0
 40
79.0
 40
79.0
 40
79.0
 40
80.0
 40
80.0
 40
80.0
 40
81.0
 40
81.0
 40
81.0
 40
82.0
 40
82.0
 40
82.0
 40
83.0
 40
83.0
 40
83.0
 40
84.0
 40
84.0
 40
84.0
 40
85.0
 40
85.0
 40
85.0
 40
86.0
 40
86.0
 40
86.0
 40
87.0
 40
87.0
 40
87.0
 40
88.0
 40
88.0
 40
88.0
 40
88.0
 10
45.41299722717922
 20
-57.81249106118035
 30
0.0
 10
46.34103886057054
 20
-57.10818852745238
 30
0.0
 10
47.44783705574276
 20
-56.2709330610319
 30
0.0
 10
48.71833803377341
 20
-55.34498933635045
 30
0.0
 10
49.98883901180406
 20
-54.41904561166901
 30
0.0
 10
51.42304277269315
 20
-53.40441362872659
 30
0.0
 10
53.00589553751854
 20
-52.34535806195413
 30
0.0
 10
54.58874830234393
 20
-51.28630249518167
 30
0.0
 10
56.32025007110561
 20
-50.18282334457948
 30
0.0
 10
58.18534706488081
 20
-49.07918528457881
 30
0.0
 10
60.05044405865665
 20
-47.97554722457846
 30
0.0
 10
62.049136277446
 20
-46.87175025517931
 30
0.0
 10
64.16636994232738
 20
-45.81205905081324
 30
0.0
 10
66.28360360720875
 20
-44.75236784644717
 30
0.0
 10
68.5193787181815
 20
-43.73678240711418
 30
0.0
 10
70.85864149632349
 20
-42.80956740724518
 30
0.0
 10
73.19790427446546
 20
-41.88235240737619
 30
0.0
 10
75.64065471977797
 20
-41.04350784697183
 30
0.0
 10
78.17183905333692
 20
-40.33729840046304
 30
0.0
 10
80.70302338689588
 20
-39.63108895395425
 30
0.0
 10
83.32264160870257
 20
-39.05751462134101
 30
0.0
 10
86.01563993983422
 20
-38.66084007705491
 30
0.0
 10
88.70863827096522
 20
-38.2641655327688
 30
0.0
 10
91.47501671142119
 20
-38.04439077680949
 30
0.0
 10
94.2997214822806
 20
-38.04578048360888
 30
0.0
 10
96.72155825782085
 20
-38.04697198619306
 30
0.0
 10
99.0879611269616
 20
-38.29477594726617
 30
0.0
 10
101.3749473666849
 20
-38.72752063497822
 30
0.0
 10
103.6619336064082
 20
-39.16026532269026
 30
0.0
 10
105.869503216714
 20
-39.77795073704124
 30
0.0
 10
107.9736734745838
 20
-40.51890514618114
 30
0.0
 10
110.0778437324535
 20
-41.25985955532105
 30
0.0
 10
112.0786146378885
 20
-42.12408295924989
 30
0.0
 10
113.9520034678695
 20
-43.04990362611701
 30
0.0
 10
115.8253922978504
 20
-43.97572429298414
 30
0.0
 10
117.571399052378
 20
-44.96314222279019
 30
0.0
 10
119.1660410084342
 20
-45.95048568368453
 30
0.0
 10
120.7606829644911
 20
-46.93782914457888
 30
0.0
 10
122.203960122076
 20
-47.92509813656183
 30
0.0
 10
123.4718897581722
 20
-48.85062092778307
 30
0.0
 10
124.7398193942677
 20
-49.77614371900431
 30
0.0
 10
125.8324015088746
 20
-50.63992030946384
 30
0.0
 10
126.7256533789743
 20
-51.38027896731165
 30
0.0
 10
127.6189052490739
 20
-52.12063762515947
 30
0.0
 10
128.3128268746663
 20
-52.73757835039557
 30
0.0
 10
128.7834355327341
 20
-53.16942941116964
 30
0.0
 10
129.2540441908019
 20
-53.60128047194371
 30
0.0
 10
129.501339881345
 20
-53.84804186825574
 30
0.0
 10
129.501339881345
 20
-53.84804186825574
 30
0.0
 10
129.501339881345
 20
-53.84804186825574
 30
0.0
 10
129.501339881345
 20
-54.73875116874601
 30
0.0
 10
129.501339881345
 20
-54.73875116874601
 30
0.0
 10
129.501339881345
 20
-54.73875116874601
 30
0.0
 10
129.501339881345
 20
-55.62946046923626
 30
0.0
 10
129.501339881345
 20
-55.62946046923626
 30
0.0
 10
129.501339881345
 20
-55.62946046923626
 30
0.0
 10
129.501339881345
 20
-56.52016976972653
 30
0.0
 10
129.501339881345
 20
-56.52016976972653
 30
0.0
 10
129.501339881345
 20
-56.52016976972653
 30
0.0
 10
129.501339881345
 20
-57.41087907021679
 30
0.0
 10
129.501339881345
 20
-57.41087907021679
 30
0.0
 10
129.501339881345
 20
-57.41087907021679
 30
0.0
 10
129.501339881345
 20
-58.30158837070704
 30
0.0
 10
129.501339881345
 20
-58.30158837070704
 30
0.0
 10
129.501339881345
 20
-58.30158837070704
 30
0.0
 10
129.501339881345
 20
-59.19229767119731
 30
0.0
 10
129.501339881345
 20
-59.19229767119731
 30
0.0
 10
129.501339881345
 20
-59.19229767119731
 30
0.0
 10
129.501339881345
 20
-60.08300697168757
 30
0.0
 10
129.501339881345
 20
-60.08300697168757
 30
0.0
 10
129.501339881345
 20
-60.08300697168757
 30
0.0
 10
129.501339881345
 20
-60.97371627217751
 30
0.0
 10
129.501339881345
 20
-60.97371627217751
 30
0.0
 10
129.501339881345
 20
-60.97371627217751
 30
0.0
 10
129.2726455829002
 20
-60.70198319883878
 30
0.0
 10
128.8330605762816
 20
-60.22562331023867
 30
0.0
 10
128.3934755696629
 20
-59.74926342163855
 30
0.0
 10
127.7429998548705
 20
-59.06827671777674
 30
0.0
 10
126.899437022176
 20
-58.24976945673153
 30
0.0
 10
126.0558741894808
 20
-57.43126219568632
 30
0.0
 10
125.019224238883
 20
-56.47523437745708
 30
0.0
 10
123.8072907606541
 20
-55.44879226012148
 30
0.0
 10
122.5953572824246
 20
-54.42235014278587
 30
0.0
 10
121.2081402765635
 20
-53.32549372634423
 30
0.0
 10
119.6634433333424
 20
-52.22532926887357
 30
0.0
 10
118.1187463901213
 20
-51.1251648114029
 30
0.0
 10
116.416569509539
 20
-50.02169231290322
 30
0.0
 10
114.5747162818672
 20
-48.98201803145251
 30
0.0
 10
112.7328630541954
 20
-47.94234375000181
 30
0.0
 10
110.7513334794341
 20
-46.96646768559975
 30
0.0
 10
108.647931147855
 20
-46.1214960963237
 30
0.0
 10
106.5445288162759
 20
-45.27652450704765
 30
0.0
 10
104.3192537278777
 20
-44.56245739289825
 30
0.0
 10
101.9899094729321
 20
-44.04640101195187
 30
0.0
 10
99.66056521798654
 20
-43.53034463100614
 30
0.0
 10
97.22715179649362
 20
-43.21229898326344
 30
0.0
 10
94.7074727987244
 20
-43.15937032680239
 30
0.0
 10
92.4160873076082
 20
-43.11123722905984
 30
0.0
 10
90.15653883878858
 20
-43.20605465086981
 30
0.0
 10
87.93564000340331
 20
-43.42748423109894
 30
0.0
 10
85.71474116801804
 20
-43.64891381132807
 30
0.0
 10
83.53249196606711
 20
-43.99695554997637
 30
0.0
 10
81.39570500868834
 20
-44.45527108591047
 30
0.0
 10
79.25891805130956
 20
-44.91358662184457
 30
0.0
 10
77.16759333850293
 20
-45.48217595506447
 30
0.0
 10
75.1285434814062
 20
-46.14470072443682
 30
0.0
 10
73.08949362430947
 20
-46.80722549380916
 30
0.0
 10
71.10271862292265
 20
-47.56368569933395
 30
0.0
 10
69.17503108838353
 20
-48.39774297987783
 30
0.0
 10
67.24734355384442
 20
-49.23180026042171
 30
0.0
 10
65.37874348615298
 20
-50.14345461598468
 30
0.0
 10
63.57604349644704
 20
-51.11636768543337
 30
0.0
 10
61.77334350674109
 20
-52.08928075488207
 30
0.0
 10
60.03654359502062
 20
-53.12345253821649
 30
0.0
 10
58.3724563724234
 20
-54.20254467430328
 30
0.0
 10
56.70836914982618
 20
-55.28163681039008
 30
0.0
 10
55.11699461635221
 20
-56.40564929922924
 30
0.0
 10
53.60514538313928
 20
-57.55824377968742
 30
0.0
 10
52.09329614992635
 20
-58.71083826014559
 30
0.0
 10
50.66097221697445
 20
-59.89201473222277
 30
0.0
 10
49.31498619542136
 20
-61.08543483478561
 30
0.0
 10
48.75917454136347
 20
-61.57824565089742
 30
0.0
 10
48.21940004831653
 20
-62.04527804125999
 30
0.0
 10
47.69321952006409
 20
-62.48498703766969
 30
0.0
 10
47.16703899181196
 20
-62.92469603407971
 30
0.0
 10
46.65445242835402
 20
-63.33708163653685
 30
0.0
 10
46.15301663347413
 20
-63.72059887683845
 30
0.0
 10
45.65158083859455
 20
-64.10411611714005
 30
0.0
 10
45.16129581229271
 20
-64.45876499528578
 30
0.0
 10
44.67971835835247
 20
-64.78300054307265
 30
0.0
 10
44.1981409044119
 20
-65.10723609085886
 30
0.0
 10
43.72527102283325
 20
-65.40105830828688
 30
0.0
 10
43.25866551739944
 20
-65.66292222715174
 30
0.0
 10
42.79206001196562
 20
-65.9247861460166
 30
0.0
 10
42.33171888267695
 20
-66.1546917663196
 30
0.0
 10
41.87519893331665
 20
-66.35109411985712
 30
0.0
 10
41.41867898395667
 20
-66.54749647339399
 30
0.0
 10
40.96598021452476
 20
-66.71039556016537
 30
0.0
 10
40.51465942880541
 20
-66.83824641196826
 30
0.0
 10
40.06333864308574
 20
-66.96609726377115
 30
0.0
 10
39.613395841078
 20
-67.05889988060491
 30
0.0
 10
39.16238782656605
 20
-67.11510929426656
 30
0.0
 10
38.7113798120541
 20
-67.17131870792883
 30
0.0
 10
38.25930658503763
 20
-67.19093491841771
 30
0.0
 10
37.80372494930018
 20
-67.1724129575321
 30
0.0
 10
37.16276453794971
 20
-67.1463543047308
 30
0.0
 10
36.58391654207981
 20
-67.0983004412751
 30
0.0
 10
36.05791121962824
 20
-67.02937568807829
 30
0.0
 10
35.53190589717667
 20
-66.96045093488213
 30
0.0
 10
35.05874324814312
 20
-66.87065529194486
 30
0.0
 10
34.62915353046566
 20
-66.76111308018167
 30
0.0
 10
34.19956381278821
 20
-66.6515708684185
 30
0.0
 10
33.81354702646686
 20
-66.52228208782815
 30
0.0
 10
33.46183342943905
 20
-66.37437105932517
 30
0.0
 10
33.11011983241156
 20
-66.2264600308222
 30
0.0
 10
32.79270942467793
 20
-66.0599267544066
 30
0.0
 10
32.50033246417561
 20
-65.87589555099169
 30
0.0
 10
32.2079555036733
 20
-65.69186434757741
 30
0.0
 10
31.9406119904026
 20
-65.49033521716444
 30
0.0
 10
31.68903218230162
 20
-65.27243248066607
 30
0.0
 10
31.43745237420032
 20
-65.05452974416771
 30
0.0
 10
31.20163627126873
 20
-64.82025340158457
 30
0.0
 10
30.97231413144398
 20
-64.5707277738306
 30
0.0
 10
30.74299199161954
 20
-64.32120214607662
 30
0.0
 10
30.52016381490226
 20
-64.05642723315117
 30
0.0
 10
30.2945598592299
 20
-63.77752735596912
 30
0.0
 10
30.06895590355754
 20
-63.49862747878644
 30
0.0
 10
29.84057616893042
 20
-63.20560263734716
 30
0.0
 10
29.60015091328598
 20
-62.89957715256426
 30
0.0
 10
29.17177175153759
 20
-62.35431438350325
 30
0.0
 10
28.7752867529394
 20
-61.81279681079828
 30
0.0
 10
28.40941580110606
 20
-61.28260786612717
 30
0.0
 10
28.04354484927303
 20
-60.75241892145574
 30
0.0
 10
27.70828794420484
 20
-60.23355860481816
 30
0.0
 10
27.40236496951613
 20
-59.73361034789196
 30
0.0
 10
27.09644199482742
 20
-59.23366209096576
 30
0.0
 10
26.81985295051883
 20
-58.75262589375028
 30
0.0
 10
26.57131772020435
 20
-58.29808518792402
 30
0.0
 10
26.32278248988987
 20
-57.84354448209774
 30
0.0
 10
26.10230107357015
 20
-57.41549926766003
 30
0.0
 10
25.9085933548595
 20
-57.02153297628839
 30
0.0
 10
25.71488563614885
 20
-56.62756668491675
 30
0.0
 10
25.54795161504792
 20
-56.26767931661183
 30
0.0
 10
25.40651117517037
 20
-55.94945430305049
 30
0.0
 10
25.26507073529347
 20
-55.63122928948946
 30
0.0
 10
25.14912387663997
 20
-55.35466663067203
 30
0.0
 10
25.05739048282577
 20
-55.12734975827632
 30
0.0
 10
24.96565708901157
 20
-54.90003288588062
 30
0.0
 10
24.89813716003604
 20
-54.72196179990601
 30
0.0
 10
24.85355057951383
 20
-54.60071993203065
 30
0.0
 10
24.80896399899193
 20
-54.47947806415496
 30
0.0
 10
24.78731076692366
 20
-54.41506541437852
 30
0.0
 10
24.78731076692366
 20
-54.41506541437852
 30
0.0
 10
24.78731076692366
 20
-54.41506541437852
 30
0.0
 10
24.82127644895661
 20
-54.45757424581592
 30
0.0
 10
24.88624862249872
 20
-54.53636740584786
 30
0.0
 10
24.95122079604081
 20
-54.61516056587947
 30
0.0
 10
25.04719946109238
 20
-54.73023805450531
 30
0.0
 10
25.17122542712895
 20
-54.87537536888222
 30
0.0
 10
25.29525139316552
 20
-55.02051268325911
 30
0.0
 10
25.44732466018775
 20
-55.19570982338708
 30
0.0
 10
25.62448603767117
 20
-55.39474228642261
 30
0.0
 10
25.80164741515491
 20
-55.59377474945845
 30
0.0
 10
26.00389690309985
 20
-55.81664253540156
 30
0.0
 10
26.22827531098282
 20
-56.0571211414097
 30
0.0
 10
26.45265371886579
 20
-56.29759974741786
 30
0.0
 10
26.69916104668646
 20
-56.55568917349009
 30
0.0
 10
26.96483810392134
 20
-56.82516491678356
 30
0.0
 10
27.2305151611559
 20
-57.09464066007735
 30
0.0
 10
27.51536194780468
 20
-57.37550272059238
 30
0.0
 10
27.81641927334322
 20
-57.66152659548516
 30
0.0
 10
28.11747659888175
 20
-57.94755047037795
 30
0.0
 10
28.43474446331069
 20
-58.2387361596488
 30
0.0
 10
28.7652636761059
 20
-58.52885916045456
 30
0.0
 10
29.09578288890142
 20
-58.81898216126
 30
0.0
 10
29.4395534500629
 20
-59.10804247360034
 30
0.0
 10
29.79361616906714
 20
-59.38981559463242
 30
0.0
 10
30.06021275804724
 20
-59.60198069674927
 30
0.0
 10
30.33390002014613
 20
-59.80111487350578
 30
0.0
 10
30.61270530686599
 20
-59.98700788691719
 30
0.0
 10
30.89151059358585
 20
-60.17290090032892
 30
0.0
 10
31.17543390492668
 20
-60.34555275039586
 30
0.0
 10
31.46250259239099
 20
-60.50475319913422
 30
0.0
 10
31.74957127985563
 20
-60.66395364787225
 30
0.0
 10
32.03978534344343
 20
-60.80970269528203
 30
0.0
 10
32.33117213465689
 20
-60.94179010337972
 30
0.0
 10
32.62255892587035
 20
-61.07387751147676
 30
0.0
 10
32.9151184447098
 20
-61.19230328026173
 30
0.0
 10
33.20687804267711
 20
-61.2968571717505
 30
0.0
 10
33.49863764064474
 20
-61.40141106323926
 30
0.0
 10
33.78959731774022
 20
-61.49209307743149
 30
0.0
 10
34.07778442546606
 20
-61.5686929763437
 30
0.0
 10
34.3659715331919
 20
-61.64529287525593
 30
0.0
 10
34.65138607154843
 20
-61.70781065888813
 30
0.0
 10
34.93205539203751
 20
-61.75603608925586
 30
0.0
 10
35.21272471252659
 20
-61.80426151962392
 30
0.0
 10
35.48864881514853
 20
-61.83819459672783
 30
0.0
 10
35.75785505140554
 20
-61.85762508258411
 30
0.0
 10
36.02706128766221
 20
-61.87705556844039
 30
0.0
 10
36.28954965755428
 20
-61.88198346304871
 30
0.0
 10
36.54334751258358
 20
-61.87219852842495
 30
0.0
 10
36.98854955561072
 20
-61.8550341875961
 30
0.0
 10
37.41179463075674
 20
-61.81610045422913
 30
0.0
 10
37.81777128980902
 20
-61.75643631285464
 30
0.0
 10
38.2237479488613
 20
-61.69677217148047
 30
0.0
 10
38.61245619181984
 20
-61.61637762209877
 30
0.0
 10
38.98858457047201
 20
-61.51629164924143
 30
0.0
 10
39.36471294912419
 20
-61.41620567638409
 30
0.0
 10
39.72826146347
 20
-61.29642828005078
 30
0.0
 10
40.08391866529681
 20
-61.15799844477304
 30
0.0
 10
40.4395758671233
 20
-61.019568609495
 30
0.0
 10
40.78734175643081
 20
-60.86248633527253
 30
0.0
 10
41.13190488500668
 20
-60.6877906066372
 30
0.0
 10
41.47646801358256
 20
-60.51309487800187
 30
0.0
 10
41.8178283814265
 20
-60.32078569495304
 30
0.0
 10
42.16067454032587
 20
-60.11190204202226
 30
0.0
 10
42.50352069922557
 20
-59.90301838909148
 30
0.0
 10
42.84785264918069
 20
-59.67756026627875
 30
0.0
 10
43.19835894197863
 20
-59.43656665811562
 30
0.0
 10
43.54886523477656
 20
-59.19557304995249
 30
0.0
 10
43.90554587041762
 20
-58.93904395643864
 30
0.0
 10
44.27308940068854
 20
-58.66801836210563
 30
0.0
 10
44.64063293095978
 20
-58.39699276777262
 30
0.0
 10
45.01903935586088
 20
-58.11147067262045
 30
0.0
 10
45.41299722717922
 20
-57.81249106118035
 30
0.0
  0
INSERT
  5
44
330
1F
100
AcDbEntity
  8
LAYER_3
 62
   253
100
AcDbBlockReference
  2
*U1
 10
0.0
 20
0.0
 30
0.0
1001
ACAD
1002
{
1000
R14_HATCH_DATA
1000
44
1011
1.0
1021
0.0
1031
0.0
1011
0.0
1021
1.0
1031
0.0
1011
0.0
1021
0.0
1031
1.0
1040
0.0
1010
0.0
1020
0.0
1030
1.0
1000
SOLID
1070
     1
1070
     1
1071
        1
1071
        1
1071
        1
1070
     4
1070
     3
1070
     0
1070
     1
1071
      269
1071
      265
1040
0.0
1040
0.0
1040
0.0
1040
0.0
1040
1.0
1040
1.0
1040
1.0
1040
2.0
1040
2.0
1040
2.0
1040
3.0
1040
3.0
1040
3.0
1040
4.0
1040
4.0
1040
4.0
1040
5.0
1040
5.0
1040
5.0
1040
6.0
1040
6.0
1040
6.0
1040
7.0
1040
7.0
1040
7.0
1040
8.0
1040
8.0
1040
8.0
1040
9.0
1040
9.0
1040
9.0
1040
10.0
1040
10.0
1040
10.0
1040
11.0
1040
11.0
1040
11.0
1040
12.0
1040
12.0
1040
12.0
1040
13.0
1040
13.0
1040
13.0
1040
14.0
1040
14.0
1040
14.0
1040
15.0
1040
15.0
1040
15.0
1040
16.0
1040
16.0
1040
16.0
1040
17.0
1040
17.0
1040
17.0
1040
18.0
1040
18.0
1040
18.0
1040
19.0
1040
19.0
1040
19.0
1040
20.0
1040
20.0
1040
20.0
1040
21.0
1040
21.0
1040
21.0
1040
22.0
1040
22.0
1040
22.0
1040
23.0
1040
23.0
1040
23.0
1040
24.0
1040
24.0
1040
24.0
1040
25.0
1040
25.0
1040
25.0
1040
26.0
1040
26.0
1040
26.0
1040
27.0
1040
27.0
1040
27.0
1040
28.0
1040
28.0
1040
28.0
1040
29.0
1040
29.0
1040
29.0
1040
30.0
1040
30.0
1040
30.0
1040
31.0
1040
31.0
1040
31.0
1040
32.0
1040
32.0
1040
32.0
1040
33.0
1040
33.0
1040
33.0
1040
34.0
1040
34.0
1040
34.0
1040
35.0
1040
35.0
1040
35.0
1040
36.0
1040
36.0
1040
36.0
1040
37.0
1040
37.0
1040
37.0
1040
38.0
1040
38.0
1040
38.0
1040
39.0
1040
39.0
1040
39.0
1040
40.0
1040
40.0
1040
40.0
1040
41.0
1040
41.0
1040
41.0
1040
42.0
1040
42.0
1040
42.0
1040
43.0
1040
43.0
1040
43.0
1040
44.0
1040
44.0
1040
44.0
1040
45.0
1040
45.0
1040
45.0
1040
46.0
1040
46.0
1040
46.0
1040
47.0
1040
47.0
1040
47.0
1040
48.0
1040
48.0
1040
48.0
1040
49.0
1040
49.0
1040
49.0
1040
50.0
1040
50.0
1040
50.0
1040
51.0
1040
51.0
1040
51.0
1040
52.0
1040
52.0
1040
52.0
1040
53.0
1040
53.0
1040
53.0
1040
54.0
1040
54.0
1040
54.0
1040
55.0
1040
55.0
1040
55.0
1040
56.0
1040
56.0
1040
56.0
1040
57.0
1040
57.0
1040
57.0
1040
58.0
1040
58.0
1040
58.0
1040
59.0
1040
59.0
1040
59.0
1040
60.0
1040
60.0
1040
60.0
1040
61.0
1040
61.0
1040
61.0
1040
62.0
1040
62.0
1040
62.0
1040
63.0
1040
63.0
1040
63.0
1040
64.0
1040
64.0
1040
64.0
1040
65.0
1040
65.0
1040
65.0
1040
66.0
1040
66.0
1040
66.0
1040
67.0
1040
67.0
1040
67.0
1040
68.0
1040
68.0
1040
68.0
1040
69.0
1040
69.0
1040
69.0
1040
70.0
1040
70.0
1040
70.0
1040
71.0
1040
71.0
1040
71.0
1040
72.0
1040
72.0
1040
72.0
1040
73.0
1040
73.0
1040
73.0
1040
74.0
1040
74.0
1040
74.0
1040
75.0
1040
75.0
1040
75.0
1040
76.0
1040
76.0
1040
76.0
1040
77.0
1040
77.0
1040
77.0
1040
78.0
1040
78.0
1040
78.0
1040
79.0
1040
79.0
1040
79.0
1040
80.0
1040
80.0
1040
80.0
1040
81.0
1040
81.0
1040
81.0
1040
82.0
1040
82.0
1040
82.0
1040
83.0
1040
83.0
1040
83.0
1040
84.0
1040
84.0
1040
84.0
1040
85.0
1040
85.0
1040
85.0
1040
86.0
1040
86.0
1040
86.0
1040
87.0
1040
87.0
1040
87.0
1040
88.0
1040
88.0
1040
88.0
1040
88.0
1040
45.41299722717922
1040
-57.81249106118035
1040
46.34103886057054
1040
-57.10818852745238
1040
47.44783705574276
1040
-56.2709330610319
1040
48.71833803377341
1040
-55.34498933635045
1040
49.98883901180406
1040
-54.41904561166901
1040
51.42304277269315
1040
-53.40441362872659
1040
53.00589553751854
1040
-52.34535806195413
1040
54.58874830234393
1040
-51.28630249518167
1040
56.32025007110561
1040
-50.18282334457948
1040
58.18534706488081
1040
-49.07918528457881
1040
60.05044405865665
1040
-47.97554722457846
1040
62.049136277446
1040
-46.87175025517931
1040
64.16636994232738
1040
-45.81205905081324
1040
66.28360360720875
1040
-44.75236784644717
1040
68.5193787181815
1040
-43.73678240711418
1040
70.85864149632349
1040
-42.80956740724518
1040
73.19790427446546
1040
-41.88235240737619
1040
75.64065471977797
1040
-41.04350784697183
1040
78.17183905333692
1040
-40.33729840046304
1040
80.70302338689588
1040
-39.63108895395425
1040
83.32264160870257
1040
-39.05751462134101
1040
86.01563993983422
1040
-38.66084007705491
1040
88.70863827096522
1040
-38.2641655327688
1040
91.47501671142119
1040
-38.04439077680949
1040
94.2997214822806
1040
-38.04578048360888
1040
96.72155825782085
1040
-38.04697198619306
1040
99.0879611269616
1040
-38.29477594726617
1040
101.3749473666849
1040
-38.72752063497822
1040
103.6619336064082
1040
-39.16026532269026
1040
105.869503216714
1040
-39.77795073704124
1040
107.9736734745838
1040
-40.51890514618114
1040
110.0778437324535
1040
-41.25985955532105
1040
112.0786146378885
1040
-42.12408295924989
1040
113.9520034678695
1040
-43.04990362611701
1040
115.8253922978504
1040
-43.97572429298414
1040
117.571399052378
1040
-44.96314222279019
1040
119.1660410084342
1040
-45.95048568368453
1040
120.7606829644911
1040
-46.93782914457888
1040
122.203960122076
1040
-47.92509813656183
1040
123.4718897581722
1040
-48.85062092778307
1040
124.7398193942677
1040
-49.77614371900431
1040
125.8324015088746
1040
-50.63992030946384
1040
126.7256533789743
1040
-51.38027896731165
1040
127.6189052490739
1040
-52.12063762515947
1040
128.3128268746663
1040
-52.73757835039557
1040
128.7834355327341
1040
-53.16942941116964
1040
129.2540441908019
1040
-53.60128047194371
1040
129.501339881345
1040
-53.84804186825574
1040
129.501339881345
1040
-53.84804186825574
1040
129.501339881345
1040
-53.84804186825574
1040
129.501339881345
1040
-54.73875116874601
1040
129.501339881345
1040
-54.73875116874601
1040
129.501339881345
1040
-54.73875116874601
1040
129.501339881345
1040
-55.62946046923626
1040
129.501339881345
1040
-55.62946046923626
1040
129.501339881345
1040
-55.62946046923626
1040
129.501339881345
1040
-56.52016976972653
1040
129.501339881345
1040
-56.52016976972653
1040
129.501339881345
1040
-56.52016976972653
1040
129.501339881345
1040
-57.41087907021679
1040
129.501339881345
1040
-57.41087907021679
1040
129.501339881345
1040
-57.41087907021679
1040
129.501339881345
1040
-58.30158837070704
1040
129.501339881345
1040
-58.30158837070704
1040
129.501339881345
1040
-58.30158837070704
1040
129.501339881345
1040
-59.19229767119731
1040
129.501339881345
1040
-59.19229767119731
1040
129.501339881345
1040
-59.19229767119731
1040
129.501339881345
1040
-60.08300697168757
1040
129.501339881345
1040
-60.08300697168757
1040
129.501339881345
1040
-60.08300697168757
1040
129.501339881345
1040
-60.97371627217751
1040
129.501339881345
1040
-60.97371627217751
1040
129.501339881345
1040
-60.97371627217751
1040
129.2726455829002
1040
-60.70198319883878
1040
128.8330605762816
1040
-60.22562331023867
1040
128.3934755696629
1040
-59.74926342163855
1040
127.7429998548705
1040
-59.06827671777674
1040
126.899437022176
1040
-58.24976945673153
1040
126.0558741894808
1040
-57.43126219568632
1040
125.019224238883
1040
-56.47523437745708
1040
123.8072907606541
1040
-55.44879226012148
1040
122.5953572824246
1040
-54.42235014278587
1040
121.2081402765635
1040
-53.32549372634423
1040
119.6634433333424
1040
-52.22532926887357
1040
118.1187463901213
1040
-51.1251648114029
1040
116.416569509539
1040
-50.02169231290322
1040
114.5747162818672
1040
-48.98201803145251
1040
112.7328630541954
1040
-47.94234375000181
1040
110.7513334794341
1040
-46.96646768559975
1040
108.647931147855
1040
-46.1214960963237
1040
106.5445288162759
1040
-45.27652450704765
1040
104.3192537278777
1040
-44.56245739289825
1040
101.9899094729321
1040
-44.04640101195187
1040
99.66056521798654
1040
-43.53034463100614
1040
97.22715179649362
1040
-43.21229898326344
1040
94.7074727987244
1040
-43.15937032680239
1040
92.4160873076082
1040
-43.11123722905984
1040
90.15653883878858
1040
-43.20605465086981
1040
87.93564000340331
1040
-43.42748423109894
1040
85.71474116801804
1040
-43.64891381132807
1040
83.53249196606711
1040
-43.99695554997637
1040
81.39570500868834
1040
-44.45527108591047
1040
79.25891805130956
1040
-44.91358662184457
1040
77.16759333850293
1040
-45.48217595506447
1040
75.1285434814062
1040
-46.14470072443682
1040
73.08949362430947
1040
-46.80722549380916
1040
71.10271862292265
1040
-47.56368569933395
1040
69.17503108838353
1040
-48.39774297987783
1040
67.24734355384442
1040
-49.23180026042171
1040
65.37874348615298
1040
-50.14345461598468
1040
63.57604349644704
1040
-51.11636768543337
1040
61.77334350674109
1040
-52.08928075488207
1040
60.03654359502062
1040
-53.12345253821649
1040
58.3724563724234
1040
-54.20254467430328
1040
56.70836914982618
1040
-55.28163681039008
1040
55.11699461635221
1040
-56.40564929922924
1040
53.60514538313928
1040
-57.55824377968742
1040
52.09329614992635
1040
-58.71083826014559
1040
50.66097221697445
1040
-59.89201473222277
1040
49.31498619542136
1040
-61.08543483478561
1040
48.75917454136347
1040
-61.57824565089742
1040
48.21940004831653
1040
-62.04527804125999
1040
47.69321952006409
1040
-62.48498703766969
1040
47.16703899181196
1040
-62.92469603407971
1040
46.65445242835402
1040
-63.33708163653685
1040
46.15301663347413
1040
-63.72059887683845
1040
45.65158083859455
1040
-64.10411611714005
1040
45.16129581229271
1040
-64.45876499528578
1040
44.67971835835247
1040
-64.78300054307265
1040
44.1981409044119
1040
-65.10723609085886
1040
43.72527102283325
1040
-65.40105830828688
1040
43.25866551739944
1040
-65.66292222715174
1040
42.79206001196562
1040
-65.9247861460166
1040
42.33171888267695
1040
-66.1546917663196
1040
41.87519893331665
1040
-66.35109411985712
1040
41.41867898395667
1040
-66.54749647339399
1040
40.96598021452476
1040
-66.71039556016537
1040
40.51465942880541
1040
-66.83824641196826
1040
40.06333864308574
1040
-66.96609726377115
1040
39.613395841078
1040
-67.05889988060491
1040
39.16238782656605
1040
-67.11510929426656
1040
38.7113798120541
1040
-67.17131870792883
1040
38.25930658503763
1040
-67.19093491841771
1040
37.80372494930018
1040
-67.1724129575321
1040
37.16276453794971
1040
-67.1463543047308
1040
36.58391654207981
1040
-67.0983004412751
1040
36.05791121962824
1040
-67.02937568807829
1040
35.53190589717667
1040
-66.96045093488213
1040
35.05874324814312
1040
-66.87065529194486
1040
34.62915353046566
1040
-66.76111308018167
1040
34.19956381278821
1040
-66.6515708684185
1040
33.81354702646686
1040
-66.52228208782815
1040
33.46183342943905
1040
-66.37437105932517
1040
33.11011983241156
1040
-66.2264600308222
1040
32.79270942467793
1040
-66.0599267544066
1040
32.50033246417561
1040
-65.87589555099169
1040
32.2079555036733
1040
-65.69186434757741
1040
31.9406119904026
1040
-65.49033521716444
1040
31.68903218230162
1040
-65.27243248066607
1040
31.43745237420032
1040
-65.05452974416771
1040
31.20163627126873
1040
-64.82025340158457
1040
30.97231413144398
1040
-64.5707277738306
1040
30.74299199161954
1040
-64.32120214607662
1040
30.52016381490226
1040
-64.05642723315117
1040
30.2945598592299
1040
-63.77752735596912
1040
30.06895590355754
1040
-63.49862747878644
1040
29.84057616893042
1040
-63.20560263734716
1040
29.60015091328598
1040
-62.89957715256426
1040
29.17177175153759
1040
-62.35431438350325
1040
28.7752867529394
1040
-61.81279681079828
1040
28.40941580110606
1040
-61.28260786612717
1040
28.04354484927303
1040
-60.75241892145574
1040
27.70828794420484
1040
-60.23355860481816
1040
27.40236496951613
1040
-59.73361034789196
1040
27.09644199482742
1040
-59.23366209096576
1040
26.81985295051883
1040
-58.75262589375028
1040
26.57131772020435
1040
-58.29808518792402
1040
26.32278248988987
1040
-57.84354448209774
1040
26.10230107357015
1040
-57.41549926766003
1040
25.9085933548595
1040
-57.02153297628839
1040
25.71488563614885
1040
-56.62756668491675
1040
25.54795161504792
1040
-56.26767931661183
1040
25.40651117517037
1040
-55.94945430305049
1040
25.26507073529347
1040
-55.63122928948946
1040
25.14912387663997
1040
-55.35466663067203
1040
25.05739048282577
1040
-55.12734975827632
1040
24.96565708901157
1040
-54.90003288588062
1040
24.89813716003604
1040
-54.72196179990601
1040
24.85355057951383
1040
-54.60071993203065
1040
24.80896399899193
1040
-54.47947806415496
1040
24.78731076692366
1040
-54.41506541437852
1040
24.78731076692366
1040
-54.41506541437852
1040
24.78731076692366
1040
-54.41506541437852
1040
24.82127644895661
1040
-54.45757424581592
1040
24.88624862249872
1040
-54.53636740584786
1040
24.95122079604081
1040
-54.61516056587947
1040
25.04719946109238
1040
-54.73023805450531
1040
25.17122542712895
1040
-54.87537536888222
1040
25.29525139316552
1040
-55.02051268325911
1040
25.44732466018775
1040
-55.19570982338708
1040
25.62448603767117
1040
-55.39474228642261
1040
25.80164741515491
1040
-55.59377474945845
1040
26.00389690309985
1040
-55.81664253540156
1040
26.22827531098282
1040
-56.0571211414097
1040
26.45265371886579
1040
-56.29759974741786
1040
26.69916104668646
1040
-56.55568917349009
1040
26.96483810392134
1040
-56.82516491678356
1040
27.2305151611559
1040
-57.09464066007735
1040
27.51536194780468
1040
-57.37550272059238
1040
27.81641927334322
1040
-57.66152659548516
1040
28.11747659888175
1040
-57.94755047037795
1040
28.43474446331069
1040
-58.2387361596488
1040
28.7652636761059
1040
-58.52885916045456
1040
29.09578288890142
1040
-58.81898216126
1040
29.4395534500629
1040
-59.10804247360034
1040
29.79361616906714
1040
-59.38981559463242
1040
30.06021275804724
1040
-59.60198069674927
1040
30.33390002014613
1040
-59.80111487350578
1040
30.61270530686599
1040
-59.98700788691719
1040
30.89151059358585
1040
-60.17290090032892
1040
31.17543390492668
1040
-60.34555275039586
1040
31.46250259239099
1040
-60.50475319913422
1040
31.74957127985563
1040
-60.66395364787225
1040
32.03978534344343
1040
-60.80970269528203
1040
32.33117213465689
1040
-60.94179010337972
1040
32.62255892587035
1040
-61.07387751147676
1040
32.9151184447098
1040
-61.19230328026173
1040
33.20687804267711
1040
-61.2968571717505
1040
33.49863764064474
1040
-61.40141106323926
1040
33.78959731774022
1040
-61.49209307743149
1040
34.07778442546606
1040
-61.5686929763437
1040
34.3659715331919
1040
-61.64529287525593
1040
34.65138607154843
1040
-61.70781065888813
1040
34.93205539203751
1040
-61.75603608925586
1040
35.21272471252659
1040
-61.80426151962392
1040
35.48864881514853
1040
-61.83819459672783
1040
35.75785505140554
1040
-61.85762508258411
1040
36.02706128766221
1040
-61.87705556844039
1040
36.28954965755428
1040
-61.88198346304871
1040
36.54334751258358
1040
-61.87219852842495
1040
36.98854955561072
1040
-61.8550341875961
1040
37.41179463075674
1040
-61.81610045422913
1040
37.81777128980902
1040
-61.75643631285464
1040
38.2237479488613
1040
-61.69677217148047
1040
38.61245619181984
1040
-61.61637762209877
1040
38.98858457047201
1040
-61.51629164924143
1040
39.36471294912419
1040
-61.41620567638409
1040
39.72826146347
1040
-61.29642828005078
1040
40.08391866529681
1040
-61.15799844477304
1040
40.4395758671233
1040
-61.019568609495
1040
40.78734175643081
1040
-60.86248633527253
1040
41.13190488500668
1040
-60.6877906066372
1040
41.47646801358256
1040
-60.51309487800187
1040
41.8178283814265
1040
-60.32078569495304
1040
42.16067454032587
1040
-60.11190204202226
1040
42.50352069922557
1040
-59.90301838909148
1040
42.84785264918069
1040
-59.67756026627875
1040
43.19835894197863
1040
-59.43656665811562
1040
43.54886523477656
1040
-59.19557304995249
1040
43.90554587041762
1040
-58.93904395643864
1040
44.27308940068854
1040
-58.66801836210563
1040
44.64063293095978
1040
-58.39699276777262
1040
45.01903935586088
1040
-58.11147067262045
1040
45.41299722717922
1040
-57.81249106118035
1071
        0
1070
     2
1070
     1
1071
        0
1002
}
  0
ENDSEC
  0
SECTION
  2
OBJECTS
  0
DICTIONARY
  5
C
330
0
100
AcDbDictionary
  3
ACAD_GROUP
350
D
  3
ACAD_LAYOUT
350
1A
  3
ACAD_MATERIAL
350
3B
  3
ACAD_MLEADERSTYLE
350
48
  3
ACAD_MLINESTYLE
350
17
  3
ACAD_PLOTSETTINGS
350
19
  3
ACAD_VISUALSTYLE
350
2A
  3
ACDBVARIABLEDICTIONARY
350
46
1001
ACAD
1000
TREAT_AS_HARD
1070
     0
  0
DICTIONARY
  5
D
102
{ACAD_REACTORS
330
C
102
}
330
C
100
AcDbDictionary
1001
ACAD
1000
TREAT_AS_HARD
1070
     0
  0
DICTIONARY
  5
1A
102
{ACAD_REACTORS
330
C
102
}
330
C
100
AcDbDictionary
1001
ACAD
1000
TREAT_AS_HARD
1070
     0
  0
DICTIONARY
  5
3B
102
{ACAD_REACTORS
330
C
102
}
330
C
100
AcDbDictionary
  3
BYBLOCK
350
3D
  3
BYLAYER
350
3C
  3
GLOBAL
350
3E
1001
ACAD
1000
TREAT_AS_HARD
1070
     0
  0
DICTIONARY
  5
48
102
{ACAD_REACTORS
330
C
102
}
330
C
100
AcDbDictionary
1001
ACAD
1000
TREAT_AS_HARD
1070
     0
  0
DICTIONARY
  5
17
102
{ACAD_REACTORS
330
C
102
}
330
C
100
AcDbDictionary
  3
STANDARD
350
18
1001
ACAD
1000
TREAT_AS_HARD
1070
     0
  0
DICTIONARY
  5
19
102
{ACAD_REACTORS
330
C
102
}
330
C
100
AcDbDictionary
1001
ACAD
1000
TREAT_AS_HARD
1070
     0
  0
DICTIONARY
  5
2A
102
{ACAD_REACTORS
330
C
102
}
330
C
100
AcDbDictionary
  3
2DWIREFRAME
350
2F
  3
3DWIREFRAME
350
30
  3
3D_HIDDEN
350
31
  3
BASIC
350
32
  3
BRIGHTEN
350
36
  3
COLORCHANGE
350
3A
  3
CONCEPTUAL
350
34
  3
DIM
350
35
  3
FACEPATTERN
350
39
  3
FLAT
350
2B
  3
FLATWITHEDGES
350
2C
  3
GOURAUD
350
2D
  3
GOURAUDWITHEDGES
350
2E
  3
LINEPATTERN
350
38
  3
REALISTIC
350
33
  3
THICKEN
350
37
1001
ACAD
1000
TREAT_AS_HARD
1070
     0
  0
DICTIONARY
  5
46
102
{ACAD_REACTORS
330
C
102
}
330
C
100
AcDbDictionary
  3
DIMASSOC
350
49
  3
HIDETEXT
350
4A
1001
ACAD
1000
TREAT_AS_HARD
1070
     0
  0
MATERIAL
  5
3D
102
{ACAD_REACTORS
330
3B
102
}
102
{ACAD_XDICTIONARY
360
D5
102
}
330
3B
100
AcDbMaterial
  1
ByBlock
  0
MATERIAL
  5
3C
102
{ACAD_REACTORS
330
3B
102
}
102
{ACAD_XDICTIONARY
360
D3
102
}
330
3B
100
AcDbMaterial
  1
ByLayer
  0
MATERIAL
  5
3E
102
{ACAD_REACTORS
330
3B
102
}
102
{ACAD_XDICTIONARY
360
D7
102
}
330
3B
100
AcDbMaterial
  1
Global
  0
MLINESTYLE
  5
18
102
{ACAD_REACTORS
330
17
102
}
330
17
100
AcDbMlineStyle
  2
Standard
 70
     0
  3

 62
   256
 51
90.0
 52
90.0
 71
     2
 49
0.5
 62
   256
  6
BYLAYER
 49
-0.5
 62
   256
  6
BYLAYER
  0
ACAD_PROXY_OBJECT
  5
2F
102
{ACAD_REACTORS
330
2A
102
}
330
2A
100
AcDbZombieObject
 90
      499
 91
      501
 93
      436
310
42CC9915DA5C99599C985B595049028333333333333E3BF0000000000000FB0107901411070040501600405405064090741402480A0340
1001
ACAD
1000
AcDbSavedByObjectVersion
1070
     0
  0
ACAD_PROXY_OBJECT
  5
30
102
{ACAD_REACTORS
330
2A
102
}
330
2A
100
AcDbZombieObject
 90
      499
 91
      501
 93
      436
310
42CCD915DA5C99599C985B595059028333333333333E3BF0000000000000FB0107901411070040501600405405064090741402480A0340
1001
ACAD
1000
AcDbSavedByObjectVersion
1070
     0
  0
ACAD_PROXY_OBJECT
  5
31
102
{ACAD_REACTORS
330
2A
102
}
330
2A
100
AcDbZombieObject
 90
      499
 91
      501
 93
      500
310
424CD108121A5919195B90640502408333333333333E3BF0000000000000FB01079024090700405020000000000001110200405405064090740C02480A0340
1001
ACAD
1000
AcDbSavedByObjectVersion
1070
     0
  0
ACAD_PROXY_OBJECT
  5
32
102
{ACAD_REACTORS
330
2A
102
}
330
2A
100
AcDbZombieObject
 90
      499
 91
      501
 93
      388
310
4150985CDA58D07406404333333333333E3BF0000000000000FB0107A41107004050150841D405064090741402480A0350
1001
ACAD
1000
AcDbSavedByObjectVersion
1070
     0
  0
ACAD_PROXY_OBJECT
  5
36
102
{ACAD_REACTORS
330
2A
102
}
330
2A
100
AcDbZombieObject
 90
      499
 91
      501
 93
      428
310
42109C9A59DA1D195B90C409028333333333333E3BF0000000000000FB010790141107004050150841D405064090741402480A029950
1001
ACAD
1000
AcDbSavedByObjectVersion
1070
     0
  0
ACAD_PROXY_OBJECT
  5
3A
102
{ACAD_REACTORS
330
2A
102
}
330
2A
100
AcDbZombieObject
 90
      499
 91
      501
 93
      452
310
42D0DBDB1BDC90DA185B99D95104090240C333333333333E3BF0000000000000FB0108901411070040501508421405064090741402480A0350
1001
ACAD
1000
AcDbSavedByObjectVersion
1070
     0
  0
ACAD_PROXY_OBJECT
  5
34
102
{ACAD_REACTORS
330
2A
102
}
330
2A
100
AcDbZombieObject
 90
      499
 91
      501
 93
      500
310
4290DBDB98D95C1D1D585B10940D028333333333333E3BF0000000000000FB0107902409070040501000000000000111010841D405064090740C02480A0340
1001
ACAD
1000
AcDbSavedByObjectVersion
1070
     0
  0
ACAD_PROXY_OBJECT
  5
35
102
{ACAD_REACTORS
330
2A
102
}
330
2A
100
AcDbZombieObject
 90
      499
 91
      501
 93
      412
310
40D11A5B50B409028333333333333E3BF0000000000000FB010790141107004050150841D405064090741402480A02677FFFFFD0
1001
ACAD
1000
AcDbSavedByObjectVersion
1070
     0
  0
ACAD_PROXY_OBJECT
  5
39
102
{ACAD_REACTORS
330
2A
102
}
330
2A
100
AcDbZombieObject
 90
      499
 91
      501
 93
      444
310
42D19858D95C185D1D195C9B90F409028333333333333E3BF0000000000000FB010790141107004050150841D405064090741402480A0350
1001
ACAD
1000
AcDbSavedByObjectVersion
1070
     0
  0
ACAD_PROXY_OBJECT
  5
2B
102
{ACAD_REACTORS
330
2A
102
}
330
2A
100
AcDbZombieObject
 90
      499
 91
      501
 93
      388
310
41119B185D240901404333333333333E3BF0000000000000F9010740A41107004050150841D405064090741402480A1B50
1001
ACAD
1000
AcDbSavedByObjectVersion
1070
     0
  0
ACAD_PROXY_OBJECT
  5
2C
102
{ACAD_REACTORS
330
2A
102
}
330
2A
100
AcDbZombieObject
 90
      499
 91
      501
 93
      476
310
43519B185D15DA5D1A115919D95CD0140901404333333333333E3BF0000000000000F9010740901411070040501600405405064090741402480A1B50
1001
ACAD
1000
AcDbSavedByObjectVersion
1070
     0
  0
ACAD_PROXY_OBJECT
  5
2D
102
{ACAD_REACTORS
330
2A
102
}
330
2A
100
AcDbZombieObject
 90
      499
 91
      501
 93
      412
310
41D1DBDD5C985D5910240902404333333333333E3BF0000000000000F9010740A411070040501641D405064090741402480A1B50
1001
ACAD
1000
AcDbSavedByObjectVersion
1070
     0
  0
ACAD_PROXY_OBJECT
  5
2E
102
{ACAD_REACTORS
330
2A
102
}
330
2A
100
AcDbZombieObject
 90
      499
 91
      501
 93
      500
310
4411DBDD5C985D5915DA5D1A115919D95CD0340902404333333333333E3BF0000000000000F9010740901411070040501600405405064090741402480A1B50
1001
ACAD
1000
AcDbSavedByObjectVersion
1070
     0
  0
ACAD_PROXY_OBJECT
  5
38
102
{ACAD_REACTORS
330
2A
102
}
330
2A
100
AcDbZombieObject
 90
      499
 91
      501
 93
      444
310
42D31A5B995C185D1D195C9B90E409028333333333333E3BF0000000000000FB010790141107004050750841D405064090741402483A0350
1001
ACAD
1000
AcDbSavedByObjectVersion
1070
     0
  0
ACAD_PROXY_OBJECT
  5
33
102
{ACAD_REACTORS
330
2A
102
}
330
2A
100
AcDbZombieObject
 90
      499
 91
      501
 93
      420
310
425499585B1A5CDD1A58D08409028333333333333E3BF0000000000000FB01079019070040501508421405064090741402480A1B40
1001
ACAD
1000
AcDbSavedByObjectVersion
1070
     0
  0
ACAD_PROXY_OBJECT
  5
37
102
{ACAD_REACTORS
330
2A
102
}
330
2A
100
AcDbZombieObject
 90
      499
 91
      501
 93
      412
310
41D51A1A58DAD95B90D409028333333333333E3BF0000000000000FB010790141107004050150C41D405064090741402480A0350
1001
ACAD
1000
AcDbSavedByObjectVersion
1070
     0
  0
DICTIONARYVAR
  5
49
102
{ACAD_REACTORS
330
46
102
}
330
46
100
DictionaryVariables
280
     0
  1
2
  0
DICTIONARYVAR
  5
4A
102
{ACAD_REACTORS
330
46
102
}
330
46
100
DictionaryVariables
280
     0
  1
1
  0
DICTIONARY
  5
D5
330
3D
100
AcDbDictionary
  3
ACAD_XREC_ROUNDTRIP
360
D6
1001
ACAD
1000
TREAT_AS_HARD
1070
     1
  0
DICTIONARY
  5
D3
330
3C
100
AcDbDictionary
  3
ACAD_XREC_ROUNDTRIP
360
D4
1001
ACAD
1000
TREAT_AS_HARD
1070
     1
  0
DICTIONARY
  5
D7
330
3E
100
AcDbDictionary
  3
ACAD_XREC_ROUNDTRIP
360
D8
1001
ACAD
1000
TREAT_AS_HARD
1070
     1
  0
XRECORD
  5
D6
102
{ACAD_REACTORS
330
D5
102
}
330
D5
100
AcDbXrecord
102
MATERIAL
148
0.0
149
0.0
149
0.0
 93
        0
 94
      127
282
     0
 72
     1
 77
     1
171
     1
175
     1
179
     1
273
     0
  0
XRECORD
  5
D4
102
{ACAD_REACTORS
330
D3
102
}
330
D3
100
AcDbXrecord
102
MATERIAL
148
0.0
149
0.0
149
0.0
 93
        0
 94
      127
282
     0
 72
     1
 77
     1
171
     1
175
     1
179
     1
273
     0
  0
XRECORD
  5
D8
102
{ACAD_REACTORS
330
D7
102
}
330
D7
100
AcDbXrecord
102
MATERIAL
148
0.0
149
0.0
149
0.0
 93
        0
 94
      127
282
     0
 72
     1
 77
     1
171
     1
175
     1
179
     1
273
     0
  0
ENDSEC
  0
EOF
