  0
SECTION
  2
HEADER
  9
$ACADVER
  1
AC1012
  9
$DWGCODEPAGE
  3
undefined
  9
$INSBASE
 10
0.0
 20
0.0
 30
0.0
  9
$EXTMIN
 10
1.000000000000000E+20
 20
1.000000000000000E+20
 30
1.000000000000000E+20
  9
$EXTMAX
 10
-1.000000000000000E+20
 20
-1.000000000000000E+20
 30
-1.000000000000000E+20
  9
$LIMMIN
 10
0.0
 20
0.0
  9
$LIMMAX
 10
12.0
 20
9.0
  9
$ORTHOMODE
 70
     0
  9
$REGENMODE
 70
     1
  9
$FILLMODE
 70
     1
  9
$QTEXTMODE
 70
     0
  9
$MIRRTEXT
 70
     1
  9
$DRAGMODE
 70
     2
  9
$LTSCALE
 40
1.0
  9
$OSMODE
 70
    37
  9
$ATTMODE
 70
     1
  9
$TEXTSIZE
 40
0.2
  9
$TRACEWID
 40
0.05
  9
$TEXTSTYLE
  7
STANDARD
  9
$CLAYER
  8
0
  9
$CELTYPE
  6
BYLAYER
  9
$CECOLOR
 62
   256
  9
$CELTSCALE
 40
1.0
  9
$DELOBJ
 70
     1
  9
$DISPSILH
 70
     0
  9
$DIMSCALE
 40
1.0
  9
$DIMASZ
 40
0.18
  9
$DIMEXO
 40
0.0625
  9
$DIMDLI
 40
0.38
  9
$DIMRND
 40
0.0
  9
$DIMDLE
 40
0.0
  9
$DIMEXE
 40
0.18
  9
$DIMTP
 40
0.0
  9
$DIMTM
 40
0.0
  9
$DIMTXT
 40
0.18
  9
$DIMCEN
 40
0.09
  9
$DIMTSZ
 40
0.0
  9
$DIMTOL
 70
     0
  9
$DIMLIM
 70
     0
  9
$DIMTIH
 70
     1
  9
$DIMTOH
 70
     1
  9
$DIMSE1
 70
     0
  9
$DIMSE2
 70
     0
  9
$DIMTAD
 70
     0
  9
$DIMZIN
 70
     0
  9
$DIMBLK
  1

  9
$DIMASO
 70
     1
  9
$DIMSHO
 70
     1
  9
$DIMPOST
  1

  9
$DIMAPOST
  1

  9
$DIMALT
 70
     0
  9
$DIMALTD
 70
     2
  9
$DIMALTF
 40
25.4
  9
$DIMLFAC
 40
1.0
  9
$DIMTOFL
 70
     0
  9
$DIMTVP
 40
0.0
  9
$DIMTIX
 70
     0
  9
$DIMSOXD
 70
     0
  9
$DIMSAH
 70
     0
  9
$DIMBLK1
  1

  9
$DIMBLK2
  1

  9
$DIMSTYLE
  2
STANDARD
  9
$DIMCLRD
 70
     0
  9
$DIMCLRE
 70
     0
  9
$DIMCLRT
 70
     0
  9
$DIMTFAC
 40
1.0
  9
$DIMGAP
 40
0.09
  9
$DIMJUST
 70
     0
  9
$DIMSD1
 70
     0
  9
$DIMSD2
 70
     0
  9
$DIMTOLJ
 70
     1
  9
$DIMTZIN
 70
     0
  9
$DIMALTZ
 70
     0
  9
$DIMALTTZ
 70
     0
  9
$DIMFIT
 70
     3
  9
$DIMUPT
 70
     0
  9
$DIMUNIT
 70
     2
  9
$DIMDEC
 70
     4
  9
$DIMTDEC
 70
     4
  9
$DIMALTU
 70
     2
  9
$DIMALTTD
 70
     2
  9
$DIMTXSTY
  7
STANDARD
  9
$DIMAUNIT
 70
     0
  9
$LUNITS
 70
     2
  9
$LUPREC
 70
     4
  9
$SKETCHINC
 40
0.1
  9
$FILLETRAD
 40
0.5
  9
$AUNITS
 70
     0
  9
$AUPREC
 70
     0
  9
$MENU
  1
.
  9
$ELEVATION
 40
0.0
  9
$PELEVATION
 40
0.0
  9
$THICKNESS
 40
0.0
  9
$LIMCHECK
 70
     0
  9
$CHAMFERA
 40
0.5
  9
$CHAMFERB
 40
0.5
  9
$CHAMFERC
 40
1.0
  9
$CHAMFERD
 40
0.0
  9
$SKPOLY
 70
     0
  9
$TDCREATE
 40
2458821.553796285
  9
$TDUPDATE
 40
2458821.553796285
  9
$TDINDWG
 40
0.0000000116
  9
$TDUSRTIMER
 40
0.0000000116
  9
$USRTIMER
 70
     1
  9
$ANGBASE
 50
0.0
  9
$ANGDIR
 70
     0
  9
$PDMODE
 70
     0
  9
$PDSIZE
 40
0.0
  9
$PLINEWID
 40
0.0
  9
$COORDS
 70
     1
  9
$SPLFRAME
 70
     0
  9
$SPLINETYPE
 70
     6
  9
$SPLINESEGS
 70
     8
  9
$ATTDIA
 70
     0
  9
$ATTREQ
 70
     1
  9
$HANDLING
 70
     1
  9
$HANDSEED
  5
53
  9
$SURFTAB1
 70
     6
  9
$SURFTAB2
 70
     6
  9
$SURFTYPE
 70
     6
  9
$SURFU
 70
     6
  9
$SURFV
 70
     6
  9
$UCSNAME
  2

  9
$UCSORG
 10
0.0
 20
0.0
 30
0.0
  9
$UCSXDIR
 10
1.0
 20
0.0
 30
0.0
  9
$UCSYDIR
 10
0.0
 20
1.0
 30
0.0
  9
$PUCSNAME
  2

  9
$PUCSORG
 10
0.0
 20
0.0
 30
0.0
  9
$PUCSXDIR
 10
1.0
 20
0.0
 30
0.0
  9
$PUCSYDIR
 10
0.0
 20
1.0
 30
0.0
  9
$USERI1
 70
     0
  9
$USERI2
 70
     0
  9
$USERI3
 70
     0
  9
$USERI4
 70
     0
  9
$USERI5
 70
     0
  9
$USERR1
 40
0.0
  9
$USERR2
 40
0.0
  9
$USERR3
 40
0.0
  9
$USERR4
 40
0.0
  9
$USERR5
 40
0.0
  9
$WORLDVIEW
 70
     1
  9
$SHADEDGE
 70
     3
  9
$SHADEDIF
 70
    70
  9
$TILEMODE
 70
     1
  9
$MAXACTVP
 70
    64
  9
$PINSBASE
 10
0.0
 20
0.0
 30
0.0
  9
$PLIMCHECK
 70
     0
  9
$PEXTMIN
 10
1.000000000000000E+20
 20
1.000000000000000E+20
 30
1.000000000000000E+20
  9
$PEXTMAX
 10
-1.000000000000000E+20
 20
-1.000000000000000E+20
 30
-1.000000000000000E+20
  9
$PLIMMIN
 10
0.0
 20
0.0
  9
$PLIMMAX
 10
12.0
 20
9.0
  9
$UNITMODE
 70
     0
  9
$VISRETAIN
 70
     1
  9
$PLINEGEN
 70
     0
  9
$PSLTSCALE
 70
     1
  9
$TREEDEPTH
 70
  3020
  9
$PICKSTYLE
 70
     1
  9
$CMLSTYLE
  2
STANDARD
  9
$CMLJUST
 70
     0
  9
$CMLSCALE
 40
1.0
  9
$SAVEIMAGES
 70
     1
  0
ENDSEC
  0
SECTION
  2
CLASSES
  0
CLASS
  1
ACDBDICTIONARYWDFLT
  2
AcDbDictionaryWithDefault
  3
ObjectDBX Classes
 90
    32768
280
     0
281
     0
  0
CLASS
  1
VISUALSTYLE
  2
AcDbVisualStyle
  3
ObjectDBX Classes
 90
     4095
280
     0
281
     0
  0
CLASS
  1
MATERIAL
  2
AcDbMaterial
  3
ObjectDBX Classes
 90
     1153
280
     0
281
     0
  0
CLASS
  1
SUN
  2
AcDbSun
  3
SCENEOE
 90
     1024
280
     0
281
     0
  0
CLASS
  1
DICTIONARYVAR
  2
AcDbDictionaryVar
  3
ObjectDBX Classes
 90
        0
280
     0
281
     0
  0
CLASS
  1
XRECORD
  2
AcDbXrecord
  3
AutoCAD 2000
 90
    32768
280
     0
281
     0
  0
CLASS
  1
LWPOLYLINE
  2
AcDbPolyline
  3
AutoCAD 2000
 90
    32768
280
     0
281
     1
  0
CLASS
  1
HATCH
  2
AcDbHatch
  3
AutoCAD 2000
 90
    32768
280
     0
281
     1
  0
CLASS
  1
ACDBPLACEHOLDER
  2
AcDbPlaceHolder
  3
ObjectDBX Classes
 90
        0
280
     0
281
     0
  0
CLASS
  1
LAYOUT
  2
AcDbLayout
  3
ObjectDBX Classes
 90
        0
280
     0
281
     0
  0
ENDSEC
  0
SECTION
  2
TABLES
  0
TABLE
  2
VPORT
  5
8
330
0
100
AcDbSymbolTable
 70
     1
  0
VPORT
  5
29
330
8
100
AcDbSymbolTableRecord
100
AcDbViewportTableRecord
  2
*ACTIVE
 70
     0
 10
0.0
 20
0.0
 11
1.0
 21
1.0
 12
0.0
 22
0.0
 13
0.0
 23
0.0
 14
0.5
 24
0.5
 15
0.5
 25
0.5
 16
0.0
 26
0.0
 36
1.0
 17
64.34389976604898
 27
-63.91503266375991
 37
0.0
 40
66.54357296811368
 41
2.422037422037413
 42
50.0
 43
0.0
 44
0.0
 50
0.0
 51
0.0
 71
     0
 72
   100
 73
     1
 74
     3
 75
     0
 76
     0
 77
     0
 78
     0
  0
ENDTAB
  0
TABLE
  2
LTYPE
  5
5
330
0
100
AcDbSymbolTable
 70
     1
  0
LTYPE
  5
14
330
5
100
AcDbSymbolTableRecord
100
AcDbLinetypeTableRecord
  2
BYBLOCK
 70
     0
  3

 72
    65
 73
     0
 40
0.0
  0
LTYPE
  5
15
330
5
100
AcDbSymbolTableRecord
100
AcDbLinetypeTableRecord
  2
BYLAYER
 70
     0
  3

 72
    65
 73
     0
 40
0.0
  0
LTYPE
  5
16
330
5
100
AcDbSymbolTableRecord
100
AcDbLinetypeTableRecord
  2
CONTINUOUS
 70
     0
  3
Solid line
 72
    65
 73
     0
 40
0.0
  0
ENDTAB
  0
TABLE
  2
LAYER
  5
2
330
0
100
AcDbSymbolTable
 70
     8
  0
LAYER
  5
10
330
2
100
AcDbSymbolTableRecord
100
AcDbLayerTableRecord
  2
0
 70
     0
 62
     7
  6
CONTINUOUS
  0
LAYER
  5
40
330
2
100
AcDbSymbolTableRecord
100
AcDbLayerTableRecord
  2
LAYER_1
 70
     0
 62
     7
  6
CONTINUOUS
  0
LAYER
  5
42
330
2
100
AcDbSymbolTableRecord
100
AcDbLayerTableRecord
  2
LAYER_2
 70
     0
 62
     7
  6
CONTINUOUS
  0
LAYER
  5
43
330
2
100
AcDbSymbolTableRecord
100
AcDbLayerTableRecord
  2
LAYER_3
 70
     0
 62
     7
  6
CONTINUOUS
  0
LAYER
  5
44
330
2
100
AcDbSymbolTableRecord
100
AcDbLayerTableRecord
  2
LAYER_4
 70
     0
 62
     7
  6
CONTINUOUS
  0
LAYER
  5
45
330
2
100
AcDbSymbolTableRecord
100
AcDbLayerTableRecord
  2
LAYER_5
 70
     0
 62
     7
  6
CONTINUOUS
  0
LAYER
  5
46
330
2
100
AcDbSymbolTableRecord
100
AcDbLayerTableRecord
  2
LAYER_6
 70
     0
 62
     7
  6
CONTINUOUS
  0
LAYER
  5
47
330
2
100
AcDbSymbolTableRecord
100
AcDbLayerTableRecord
  2
LAYER_7
 70
     1
 62
     7
  6
CONTINUOUS
  0
ENDTAB
  0
TABLE
  2
STYLE
  5
3
330
0
100
AcDbSymbolTable
 70
     1
  0
STYLE
  5
11
330
3
100
AcDbSymbolTableRecord
100
AcDbTextStyleTableRecord
  2
STANDARD
 70
     0
 40
0.0
 41
1.0
 50
0.0
 71
     0
 42
0.2
  3
txt
  4

  0
ENDTAB
  0
TABLE
  2
VIEW
  5
6
330
0
100
AcDbSymbolTable
 70
     0
  0
ENDTAB
  0
TABLE
  2
UCS
  5
7
330
0
100
AcDbSymbolTable
 70
     0
  0
ENDTAB
  0
TABLE
  2
APPID
  5
9
330
0
100
AcDbSymbolTable
 70
     1
  0
APPID
  5
12
330
9
100
AcDbSymbolTableRecord
100
AcDbRegAppTableRecord
  2
ACAD
 70
     0
  0
ENDTAB
  0
TABLE
  2
DIMSTYLE
  5
A
330
0
100
AcDbSymbolTable
 70
     1
  0
DIMSTYLE
105
27
330
A
100
AcDbSymbolTableRecord
100
AcDbDimStyleTableRecord
  2
STANDARD
 70
     0
  3

  4

  5

  6

  7

 40
1.0
 41
0.18
 42
0.0625
 43
0.38
 44
0.18
 45
0.0
 46
0.0
 47
0.0
 48
0.0
140
0.18
141
0.09
142
0.0
143
25.4
144
1.0
145
0.0
146
1.0
147
0.09
 71
     0
 72
     0
 73
     1
 74
     1
 75
     0
 76
     0
 77
     0
 78
     0
170
     0
171
     2
172
     0
173
     0
174
     0
175
     0
176
     0
177
     0
178
     0
270
     2
271
     4
272
     4
273
     2
274
     2
340
11
275
     0
280
     0
281
     0
282
     0
283
     1
284
     0
285
     0
286
     0
287
     3
288
     0
  0
ENDTAB
  0
TABLE
  2
BLOCK_RECORD
  5
1
330
0
100
AcDbSymbolTable
 70
     1
  0
BLOCK_RECORD
  5
1F
330
1
100
AcDbSymbolTableRecord
100
AcDbBlockTableRecord
  2
*MODEL_SPACE
  0
BLOCK_RECORD
  5
1B
330
1
100
AcDbSymbolTableRecord
100
AcDbBlockTableRecord
  2
*PAPER_SPACE
  0
ENDTAB
  0
ENDSEC
  0
SECTION
  2
BLOCKS
  0
BLOCK
  5
20
330
1F
100
AcDbEntity
  8
0
100
AcDbBlockBegin
  2
*MODEL_SPACE
 70
     0
 10
0.0
 20
0.0
 30
0.0
  3
*MODEL_SPACE
  1

  0
ENDBLK
  5
21
330
1F
100
AcDbEntity
  8
0
100
AcDbBlockEnd
  0
BLOCK
  5
1C
330
1B
100
AcDbEntity
 67
     1
  8
0
100
AcDbBlockBegin
  2
*PAPER_SPACE
 70
     0
 10
0.0
 20
0.0
 30
0.0
  3
*PAPER_SPACE
  1

  0
ENDBLK
  5
1D
330
1B
100
AcDbEntity
 67
     1
  8
0
100
AcDbBlockEnd
  0
ENDSEC
  0
SECTION
  2
ENTITIES
  0
SPLINE
  5
41
330
1F
100
AcDbEntity
  8
LAYER_1
 62
     7
100
AcDbSpline
210
0.0
220
0.0
230
1.0
 70
    11
 71
     3
 72
   389
 73
   385
 74
     0
 42
0.0000000001
 43
0.0000000001
 12
1.0
 22
0.0
 32
0.0
 13
1.0
 23
0.0
 33
0.0
 40
0.0
 40
0.0
 40
0.0
 40
0.0
 40
1.0
 40
1.0
 40
1.0
 40
2.0
 40
2.0
 40
2.0
 40
3.0
 40
3.0
 40
3.0
 40
4.0
 40
4.0
 40
4.0
 40
5.0
 40
5.0
 40
5.0
 40
6.0
 40
6.0
 40
6.0
 40
7.0
 40
7.0
 40
7.0
 40
8.0
 40
8.0
 40
8.0
 40
9.0
 40
9.0
 40
9.0
 40
10.0
 40
10.0
 40
10.0
 40
11.0
 40
11.0
 40
11.0
 40
12.0
 40
12.0
 40
12.0
 40
13.0
 40
13.0
 40
13.0
 40
14.0
 40
14.0
 40
14.0
 40
15.0
 40
15.0
 40
15.0
 40
16.0
 40
16.0
 40
16.0
 40
17.0
 40
17.0
 40
17.0
 40
18.0
 40
18.0
 40
18.0
 40
19.0
 40
19.0
 40
19.0
 40
20.0
 40
20.0
 40
20.0
 40
21.0
 40
21.0
 40
21.0
 40
22.0
 40
22.0
 40
22.0
 40
23.0
 40
23.0
 40
23.0
 40
24.0
 40
24.0
 40
24.0
 40
25.0
 40
25.0
 40
25.0
 40
26.0
 40
26.0
 40
26.0
 40
27.0
 40
27.0
 40
27.0
 40
28.0
 40
28.0
 40
28.0
 40
29.0
 40
29.0
 40
29.0
 40
30.0
 40
30.0
 40
30.0
 40
31.0
 40
31.0
 40
31.0
 40
32.0
 40
32.0
 40
32.0
 40
33.0
 40
33.0
 40
33.0
 40
34.0
 40
34.0
 40
34.0
 40
35.0
 40
35.0
 40
35.0
 40
36.0
 40
36.0
 40
36.0
 40
37.0
 40
37.0
 40
37.0
 40
38.0
 40
38.0
 40
38.0
 40
39.0
 40
39.0
 40
39.0
 40
40.0
 40
40.0
 40
40.0
 40
41.0
 40
41.0
 40
41.0
 40
42.0
 40
42.0
 40
42.0
 40
43.0
 40
43.0
 40
43.0
 40
44.0
 40
44.0
 40
44.0
 40
45.0
 40
45.0
 40
45.0
 40
46.0
 40
46.0
 40
46.0
 40
47.0
 40
47.0
 40
47.0
 40
48.0
 40
48.0
 40
48.0
 40
49.0
 40
49.0
 40
49.0
 40
50.0
 40
50.0
 40
50.0
 40
51.0
 40
51.0
 40
51.0
 40
52.0
 40
52.0
 40
52.0
 40
53.0
 40
53.0
 40
53.0
 40
54.0
 40
54.0
 40
54.0
 40
55.0
 40
55.0
 40
55.0
 40
56.0
 40
56.0
 40
56.0
 40
57.0
 40
57.0
 40
57.0
 40
58.0
 40
58.0
 40
58.0
 40
59.0
 40
59.0
 40
59.0
 40
60.0
 40
60.0
 40
60.0
 40
61.0
 40
61.0
 40
61.0
 40
62.0
 40
62.0
 40
62.0
 40
63.0
 40
63.0
 40
63.0
 40
64.0
 40
64.0
 40
64.0
 40
65.0
 40
65.0
 40
65.0
 40
66.0
 40
66.0
 40
66.0
 40
67.0
 40
67.0
 40
67.0
 40
68.0
 40
68.0
 40
68.0
 40
69.0
 40
69.0
 40
69.0
 40
70.0
 40
70.0
 40
70.0
 40
71.0
 40
71.0
 40
71.0
 40
72.0
 40
72.0
 40
72.0
 40
73.0
 40
73.0
 40
73.0
 40
74.0
 40
74.0
 40
74.0
 40
75.0
 40
75.0
 40
75.0
 40
76.0
 40
76.0
 40
76.0
 40
77.0
 40
77.0
 40
77.0
 40
78.0
 40
78.0
 40
78.0
 40
79.0
 40
79.0
 40
79.0
 40
80.0
 40
80.0
 40
80.0
 40
81.0
 40
81.0
 40
81.0
 40
82.0
 40
82.0
 40
82.0
 40
83.0
 40
83.0
 40
83.0
 40
84.0
 40
84.0
 40
84.0
 40
85.0
 40
85.0
 40
85.0
 40
86.0
 40
86.0
 40
86.0
 40
87.0
 40
87.0
 40
87.0
 40
88.0
 40
88.0
 40
88.0
 40
89.0
 40
89.0
 40
89.0
 40
90.0
 40
90.0
 40
90.0
 40
91.0
 40
91.0
 40
91.0
 40
92.0
 40
92.0
 40
92.0
 40
93.0
 40
93.0
 40
93.0
 40
94.0
 40
94.0
 40
94.0
 40
95.0
 40
95.0
 40
95.0
 40
96.0
 40
96.0
 40
96.0
 40
97.0
 40
97.0
 40
97.0
 40
98.0
 40
98.0
 40
98.0
 40
99.0
 40
99.0
 40
99.0
 40
100.0
 40
100.0
 40
100.0
 40
101.0
 40
101.0
 40
101.0
 40
102.0
 40
102.0
 40
102.0
 40
103.0
 40
103.0
 40
103.0
 40
104.0
 40
104.0
 40
104.0
 40
105.0
 40
105.0
 40
105.0
 40
106.0
 40
106.0
 40
106.0
 40
107.0
 40
107.0
 40
107.0
 40
108.0
 40
108.0
 40
108.0
 40
109.0
 40
109.0
 40
109.0
 40
110.0
 40
110.0
 40
110.0
 40
111.0
 40
111.0
 40
111.0
 40
112.0
 40
112.0
 40
112.0
 40
113.0
 40
113.0
 40
113.0
 40
114.0
 40
114.0
 40
114.0
 40
115.0
 40
115.0
 40
115.0
 40
116.0
 40
116.0
 40
116.0
 40
117.0
 40
117.0
 40
117.0
 40
118.0
 40
118.0
 40
118.0
 40
119.0
 40
119.0
 40
119.0
 40
120.0
 40
120.0
 40
120.0
 40
121.0
 40
121.0
 40
121.0
 40
122.0
 40
122.0
 40
122.0
 40
123.0
 40
123.0
 40
123.0
 40
124.0
 40
124.0
 40
124.0
 40
125.0
 40
125.0
 40
125.0
 40
126.0
 40
126.0
 40
126.0
 40
127.0
 40
127.0
 40
127.0
 40
128.0
 40
128.0
 40
128.0
 40
128.0
 10
130.003916797865
 20
-67.85338618292143
 30
0.0
 10
130.003916797865
 20
-67.85338618292143
 30
0.0
 10
129.9928781130156
 20
-67.87456331429696
 30
0.0
 10
129.9706978460408
 20
-67.91559400633646
 30
0.0
 10
129.948517579066
 20
-67.95662469837659
 30
0.0
 10
129.915195729966
 20
-68.01750895108
 30
0.0
 10
129.8706294014642
 20
-68.09692319373768
 30
0.0
 10
129.8260630729623
 20
-68.17633743639534
 30
0.0
 10
129.7702522650588
 20
-68.27428166900597
 30
0.0
 10
129.703094080477
 20
-68.38943232085924
 30
0.0
 10
129.6359358958952
 20
-68.50458297271251
 30
0.0
 10
129.5574303346352
 20
-68.63694004380777
 30
0.0
 10
129.4674744994211
 20
-68.78517996343469
 30
0.0
 10
129.377518664207
 20
-68.93341988306226
 30
0.0
 10
129.2761125550389
 20
-69.0975426512202
 30
0.0
 10
129.1631532746403
 20
-69.27622469719947
 30
0.0
 10
129.0501939942411
 20
-69.45490674317874
 30
0.0
 10
128.925681542612
 20
-69.64814806697807
 30
0.0
 10
128.7895130224759
 20
-69.85462509788775
 30
0.0
 10
128.6533445023398
 20
-70.06110212879743
 30
0.0
 10
128.5055199136967
 20
-70.28081486681619
 30
0.0
 10
128.3459363592709
 20
-70.51243974123305
 30
0.0
 10
128.186352804845
 20
-70.74406461565056
 30
0.0
 10
128.0150102846364
 20
-70.98760162646617
 30
0.0
 10
127.8318059013678
 20
-71.2417272029702
 30
0.0
 10
127.6486015180993
 20
-71.49585277947423
 30
0.0
 10
127.4535352717721
 20
-71.76056692166539
 30
0.0
 10
127.2465042651092
 20
-72.03454605883336
 30
0.0
 10
127.0394732584463
 20
-72.30852519600131
 30
0.0
 10
126.8204774914477
 20
-72.59176932814609
 30
0.0
 10
126.5894140668376
 20
-72.88295488455668
 30
0.0
 10
126.3583506422274
 20
-73.17414044096728
 30
0.0
 10
126.1152195600051
 20
-73.47326742164306
 30
0.0
 10
125.8599179228948
 20
-73.77901225587435
 30
0.0
 10
125.6046162857844
 20
-74.08475709010564
 30
0.0
 10
125.3371440937861
 20
-74.39711977789115
 30
0.0
 10
125.0573984496239
 20
-74.71477674852053
 30
0.0
 10
124.7776528054618
 20
-75.03243371914994
 30
0.0
 10
124.4856337091345
 20
-75.35538497262385
 30
0.0
 10
124.1812382633676
 20
-75.68230693823004
 30
0.0
 10
123.8768428176
 20
-76.00922890383688
 30
0.0
 10
123.5600710223921
 20
-76.340121581576
 30
0.0
 10
123.2308199804675
 20
-76.67366140073705
 30
0.0
 10
122.9015689385429
 20
-77.0072012198981
 30
0.0
 10
122.5598386499015
 20
-77.3433881804811
 30
0.0
 10
122.2055262172669
 20
-77.68089871177507
 30
0.0
 10
121.8512137846329
 20
-78.01840924306904
 30
0.0
 10
121.4843192080051
 20
-78.35724334507398
 30
0.0
 10
121.1047395901083
 20
-78.69607744707828
 30
0.0
 10
120.7251599722114
 20
-79.03491154908258
 30
0.0
 10
120.3328953130455
 20
-79.37374565108753
 30
0.0
 10
119.9278427153341
 20
-79.7112561823815
 30
0.0
 10
119.5227901176221
 20
-80.04876671367546
 30
0.0
 10
119.1049495813645
 20
-80.38495367425847
 30
0.0
 10
118.6742182092856
 20
-80.71849349341952
 30
0.0
 10
118.2434868372067
 20
-81.05203331258058
 30
0.0
 10
117.7998646293059
 20
-81.38292599031969
 30
0.0
 10
117.3432486883072
 20
-81.70984795592652
 30
0.0
 10
116.886632747308
 20
-82.03676992153272
 30
0.0
 10
116.4170230732109
 20
-82.35972117500664
 30
0.0
 10
115.9343167687395
 20
-82.67737814563603
 30
0.0
 10
115.4516104642682
 20
-82.99503511626543
 30
0.0
 10
114.955807529422
 20
-83.30739780405094
 30
0.0
 10
114.4468050669257
 20
-83.61314263828221
 30
0.0
 10
113.9378026044294
 20
-83.9188874725135
 30
0.0
 10
113.415600614283
 20
-84.2180144531893
 30
0.0
 10
112.8800961992088
 20
-84.5092000095999
 30
0.0
 10
112.3445917841352
 20
-84.80038556601049
 30
0.0
 10
111.7957849441351
 20
-85.08362969815525
 30
0.0
 10
111.2335727819314
 20
-85.35760883532322
 30
0.0
 10
110.6713606197276
 20
-85.63158797249118
 30
0.0
 10
110.0957431353209
 20
-85.89630211468234
 30
0.0
 10
109.5066174314353
 20
-86.15042769118637
 30
0.0
 10
108.9174917275497
 20
-86.4045532676904
 30
0.0
 10
108.314857804184
 20
-86.648090278506
 30
0.0
 10
107.698612764063
 20
-86.87971515292351
 30
0.0
 10
107.0823677239421
 20
-87.11134002734038
 30
0.0
 10
106.4525115670658
 20
-87.33105276535913
 30
0.0
 10
105.8089413961578
 20
-87.53752979626881
 30
0.0
 10
105.1653712252491
 20
-87.74400682717851
 30
0.0
 10
104.5080870403087
 20
-87.93724815097782
 30
0.0
 10
103.8369859440607
 20
-88.1159301969571
 30
0.0
 10
103.1658848478127
 20
-88.29461224293637
 30
0.0
 10
102.4809668402565
 20
-88.45873501109432
 30
0.0
 10
101.7821290241155
 20
-88.60697493072188
 30
0.0
 10
101.0832912079747
 20
-88.7552148503488
 30
0.0
 10
100.3705335832497
 20
-88.88757192144406
 30
0.0
 10
99.64375325266363
 20
-89.00272257329733
 30
0.0
 10
98.91697292207819
 20
-89.11787322515059
 30
0.0
 10
98.1761698856316
 20
-89.21581745776123
 30
0.0
 10
97.42124124604868
 20
-89.2952317004189
 30
0.0
 10
96.66631260646577
 20
-89.37464594307656
 30
0.0
 10
95.89725836374589
 20
-89.43553019577999
 30
0.0
 10
95.11397562061258
 20
-89.47656088782011
 30
0.0
 10
94.3306928774799
 20
-89.5175915798596
 30
0.0
 10
93.53318163393381
 20
-89.53876871123515
 30
0.0
 10
92.72133899269781
 20
-89.53876871123515
 30
0.0
 10
91.90949635146181
 20
-89.53876871123515
 30
0.0
 10
91.10345644187066
 20
-89.5175915798596
 30
0.0
 10
90.30364940827583
 20
-89.47656088782011
 30
0.0
 10
89.50384237468099
 20
-89.43553019577999
 30
0.0
 10
88.71026821708179
 20
-89.37464594307656
 30
0.0
 10
87.92335707983031
 20
-89.2952317004189
 30
0.0
 10
87.13644594257885
 20
-89.21581745776123
 30
0.0
 10
86.3561978256751
 20
-89.11787322515059
 30
0.0
 10
85.58304287346985
 20
-89.00272257329733
 30
0.0
 10
84.80988792126526
 20
-88.88757192144406
 30
0.0
 10
84.04382613375982
 20
-88.7552148503488
 30
0.0
 10
83.28528765530497
 20
-88.60697493072188
 30
0.0
 10
82.52674917685012
 20
-88.45873501109432
 30
0.0
 10
81.77573400744585
 20
-88.29461224293637
 30
0.0
 10
81.03267229144359
 20
-88.1159301969571
 30
0.0
 10
80.28961057544198
 20
-87.93724815097782
 30
0.0
 10
79.55450231284173
 20
-87.74400682717851
 30
0.0
 10
78.82777764799559
 20
-87.53752979626881
 30
0.0
 10
78.10105298314944
 20
-87.33105276535913
 30
0.0
 10
77.38271191605739
 20
-87.11134002734038
 30
0.0
 10
76.67318459107021
 20
-86.87971515292351
 30
0.0
 10
75.96365726608367
 20
-86.648090278506
 30
0.0
 10
75.26294368320201
 20
-86.4045532676904
 30
0.0
 10
74.57147398677729
 20
-86.15042769118637
 30
0.0
 10
73.88000429035259
 20
-85.89630211468234
 30
0.0
 10
73.19777848038483
 20
-85.63158797249118
 30
0.0
 10
72.52522670122546
 20
-85.35760883532322
 30
0.0
 10
71.85267492206545
 20
-85.08362969815525
 30
0.0
 10
71.18979717371445
 20
-84.80038556601049
 30
0.0
 10
70.53702360052391
 20
-84.5092000095999
 30
0.0
 10
69.88425002733338
 20
-84.2180144531893
 30
0.0
 10
69.241580629302
 20
-83.9188874725135
 30
0.0
 10
68.60944555078252
 20
-83.61314263828221
 30
0.0
 10
67.97731047226304
 20
-83.30739780405094
 30
0.0
 10
67.35570971325545
 20
-82.99503511626543
 30
0.0
 10
66.74507341811054
 20
-82.67737814563603
 30
0.0
 10
66.13443712296562
 20
-82.35972117500664
 30
0.0
 10
65.53476529168402
 20
-82.03676992153272
 30
0.0
 10
64.94648806861717
 20
-81.70984795592652
 30
0.0
 10
64.35821084555032
 20
-81.38292599031969
 30
0.0
 10
63.78132823069758
 20
-81.05203331258058
 30
0.0
 10
63.21627036841133
 20
-80.71849349341952
 30
0.0
 10
62.65121250612508
 20
-80.38495367425847
 30
0.0
 10
62.09797939640534
 20
-80.04876671367546
 30
0.0
 10
61.55700118360321
 20
-79.7112561823815
 30
0.0
 10
61.01602297080075
 20
-79.37374565108753
 30
0.0
 10
60.48729965491655
 20
-79.03491154908258
 30
0.0
 10
59.97126138030139
 20
-78.69607744707828
 30
0.0
 10
59.45522310568623
 20
-78.35724334507398
 30
0.0
 10
58.95186987234043
 20
-78.01840924306904
 30
0.0
 10
58.46163182461575
 20
-77.68089871177507
 30
0.0
 10
57.97139377689075
 20
-77.3433881804811
 30
0.0
 10
57.49427091478654
 20
-77.0072012198981
 30
0.0
 10
57.03069338265487
 20
-76.67366140073705
 30
0.0
 10
56.56711585052289
 20
-76.340121581576
 30
0.0
 10
56.11708364836377
 20
-76.00922890383688
 30
0.0
 10
55.6810269205283
 20
-75.68230693823004
 30
0.0
 10
55.24497019269285
 20
-75.35538497262385
 30
0.0
 10
54.82288893918168
 20
-75.03243371914994
 30
0.0
 10
54.4152133043456
 20
-74.71477674852053
 30
0.0
 10
54.00753766950952
 20
-74.39711977789115
 30
0.0
 10
53.61426765334917
 20
-74.08475709010564
 30
0.0
 10
53.23583340021598
 20
-73.77901225587435
 30
0.0
 10
52.85739914708279
 20
-73.47326742164306
 30
0.0
 10
52.49380065697676
 20
-73.17414044096728
 30
0.0
 10
52.145468074249
 20
-72.88295488455668
 30
0.0
 10
51.79713549152124
 20
-72.59176932814609
 30
0.0
 10
51.46406881617239
 20
-72.30852519600131
 30
0.0
 10
51.14669819255356
 20
-72.03454605883336
 30
0.0
 10
50.82932756893474
 20
-71.76056692166539
 30
0.0
 10
50.52765299704593
 20
-71.49585277947423
 30
0.0
 10
50.24210462123923
 20
-71.2417272029702
 30
0.0
 10
49.95655624543252
 20
-70.98760162646617
 30
0.0
 10
49.68713406570726
 20
-70.74406461565056
 30
0.0
 10
49.43426822641521
 20
-70.51243974123305
 30
0.0
 10
49.18140238712316
 20
-70.28081486681619
 30
0.0
 10
48.94509288826463
 20
-70.06110212879743
 30
0.0
 10
48.72576987419074
 20
-69.85462509788775
 30
0.0
 10
48.50644686011717
 20
-69.64814806697807
 30
0.0
 10
48.30411033082824
 20
-69.45490674317874
 30
0.0
 10
48.11919043067537
 20
-69.27622469719947
 30
0.0
 10
47.93427053052282
 20
-69.0975426512202
 30
0.0
 10
47.76676725950667
 20
-68.93341988306226
 30
0.0
 10
47.61711076197833
 20
-68.78517996343469
 30
0.0
 10
47.46745426444999
 20
-68.63694004380777
 30
0.0
 10
47.3356445404098
 20
-68.50458297271251
 30
0.0
 10
47.22211173420884
 20
-68.38943232085924
 30
0.0
 10
47.1085789280079
 20
-68.27428166900597
 30
0.0
 10
47.01332303964652
 20
-68.17633743639534
 30
0.0
 10
46.93677421347615
 20
-68.09692319373768
 30
0.0
 10
46.86022538730577
 20
-68.01750895108
 30
0.0
 10
46.8023836233264
 20
-67.95662469837659
 30
0.0
 10
46.76367906588978
 20
-67.91559400633646
 30
0.0
 10
46.72497450845317
 20
-67.87456331429696
 30
0.0
 10
46.70540715755898
 20
-67.85338618292143
 30
0.0
 10
46.70540715755898
 20
-67.85338618292143
 30
0.0
 10
46.70540715755898
 20
-67.85338618292143
 30
0.0
 10
46.72497450845317
 20
-67.83220905154587
 30
0.0
 10
46.76367906588978
 20
-67.79117835950639
 30
0.0
 10
46.8023836233264
 20
-67.75014766746627
 30
0.0
 10
46.86022538730577
 20
-67.68926341476283
 30
0.0
 10
46.93677421347615
 20
-67.60984917210517
 30
0.0
 10
47.01332303964652
 20
-67.5304349294475
 30
0.0
 10
47.1085789280079
 20
-67.43249069683687
 30
0.0
 10
47.22211173420884
 20
-67.3173400449836
 30
0.0
 10
47.3356445404098
 20
-67.20218939313033
 30
0.0
 10
47.46745426444999
 20
-67.06983232203507
 30
0.0
 10
47.61711076197833
 20
-66.92159240240815
 30
0.0
 10
47.76676725950667
 20
-66.77335248278058
 30
0.0
 10
47.93427053052282
 20
-66.60922971462264
 30
0.0
 10
48.11919043067537
 20
-66.43054766864337
 30
0.0
 10
48.30411033082824
 20
-66.2518656226641
 30
0.0
 10
48.50644686011717
 20
-66.05862429886477
 30
0.0
 10
48.72576987419074
 20
-65.85214726795509
 30
0.0
 10
48.94509288826463
 20
-65.64567023704541
 30
0.0
 10
49.18140238712316
 20
-65.42595749902665
 30
0.0
 10
49.43426822641521
 20
-65.19433262460979
 30
0.0
 10
49.68713406570726
 20
-64.96270775019228
 30
0.0
 10
49.95655624543252
 20
-64.71917073937666
 30
0.0
 10
50.24210462123923
 20
-64.46504516287264
 30
0.0
 10
50.52765299704593
 20
-64.21091958636862
 30
0.0
 10
50.82932756893474
 20
-63.94620544417745
 30
0.0
 10
51.14669819255356
 20
-63.67222630700949
 30
0.0
 10
51.46406881617239
 20
-63.39824716984153
 30
0.0
 10
51.79713549152124
 20
-63.11500303769676
 30
0.0
 10
52.145468074249
 20
-62.82381748128616
 30
0.0
 10
52.49380065697676
 20
-62.53263192487557
 30
0.0
 10
52.85739914708279
 20
-62.23350494419946
 30
0.0
 10
53.23583340021598
 20
-61.92776010996849
 30
0.0
 10
53.61426765334917
 20
-61.62201527573752
 30
0.0
 10
54.00753766950952
 20
-61.3096525879517
 30
0.0
 10
54.4152133043456
 20
-60.9919956173223
 30
0.0
 10
54.82288893918168
 20
-60.67433864669292
 30
0.0
 10
55.24497019269285
 20
-60.35138739321931
 30
0.0
 10
55.6810269205283
 20
-60.02446542761312
 30
0.0
 10
56.11708364836377
 20
-59.6975434620066
 30
0.0
 10
56.56711585052289
 20
-59.36665078426749
 30
0.0
 10
57.03069338265487
 20
-59.03311096510644
 30
0.0
 10
57.49427091478654
 20
-58.69957114594538
 30
0.0
 10
57.97139377689075
 20
-58.36338418536238
 30
0.0
 10
58.46163182461575
 20
-58.02587365406841
 30
0.0
 10
58.95186987234043
 20
-57.68836312277444
 30
0.0
 10
59.45522310568623
 20
-57.3495290207695
 30
0.0
 10
59.97126138030139
 20
-57.01069491876488
 30
0.0
 10
60.48729965491655
 20
-56.67186081676026
 30
0.0
 10
61.01602297080075
 20
-56.33302671475531
 30
0.0
 10
61.55700118360321
 20
-55.99551618346135
 30
0.0
 10
62.09797939640534
 20
-55.65800565216738
 30
0.0
 10
62.65121250612508
 20
-55.32181869158438
 30
0.0
 10
63.21627036841133
 20
-54.98827887242332
 30
0.0
 10
63.78132823069758
 20
-54.65473905326227
 30
0.0
 10
64.35821084555032
 20
-54.32384637552315
 30
0.0
 10
64.94648806861717
 20
-53.99692440991664
 30
0.0
 10
65.53476529168402
 20
-53.67000244431044
 30
0.0
 10
66.13443712296562
 20
-53.34705119083684
 30
0.0
 10
66.74507341811054
 20
-53.02939422020745
 30
0.0
 10
67.35570971325545
 20
-52.71173724957806
 30
0.0
 10
67.97731047226304
 20
-52.39937456179223
 30
0.0
 10
68.60944555078252
 20
-52.09362972756126
 30
0.0
 10
69.241580629302
 20
-51.7878848933303
 30
0.0
 10
69.88425002733338
 20
-51.48875791265419
 30
0.0
 10
70.53702360052391
 20
-51.19757235624359
 30
0.0
 10
71.18979717371445
 20
-50.90638679983299
 30
0.0
 10
71.85267492206545
 20
-50.62314266768823
 30
0.0
 10
72.52522670122546
 20
-50.34916353052026
 30
0.0
 10
73.19777848038483
 20
-50.0751843933523
 30
0.0
 10
73.88000429035259
 20
-49.81047025116114
 30
0.0
 10
74.57147398677729
 20
-49.55634467465743
 30
0.0
 10
75.26294368320201
 20
-49.30221909815373
 30
0.0
 10
75.96365726608367
 20
-49.05868208733779
 30
0.0
 10
76.67318459107021
 20
-48.82705721292061
 30
0.0
 10
77.38271191605739
 20
-48.5954323385031
 30
0.0
 10
78.10105298314944
 20
-48.37571960048435
 30
0.0
 10
78.82777764799559
 20
-48.16924256957498
 30
0.0
 10
79.55450231284173
 20
-47.96276553866562
 30
0.0
 10
80.28961057544198
 20
-47.76952421486598
 30
0.0
 10
81.03267229144359
 20
-47.59084216888702
 30
0.0
 10
81.77573400744585
 20
-47.41216012290775
 30
0.0
 10
82.52674917685012
 20
-47.24803735474917
 30
0.0
 10
83.28528765530497
 20
-47.09979743512193
 30
0.0
 10
84.04382613375982
 20
-46.95155751549468
 30
0.0
 10
84.80988792126526
 20
-46.8192004443991
 30
0.0
 10
85.58304287346985
 20
-46.70404979254584
 30
0.0
 10
86.3561978256751
 20
-46.58889914069257
 30
0.0
 10
87.13644594257885
 20
-46.49095490808161
 30
0.0
 10
87.92335707983031
 20
-46.41154066542427
 30
0.0
 10
88.71026821708179
 20
-46.33212642276692
 30
0.0
 10
89.50384237468099
 20
-46.27124217006286
 30
0.0
 10
90.30364940827583
 20
-46.23021147802337
 30
0.0
 10
91.10345644187066
 20
-46.18918078598357
 30
0.0
 10
91.90949635146181
 20
-46.16800365460833
 30
0.0
 10
92.72133899269781
 20
-46.16800365460833
 30
0.0
 10
93.53318163393381
 20
-46.16800365460833
 30
0.0
 10
94.3306928774799
 20
-46.18918078598357
 30
0.0
 10
95.11397562061258
 20
-46.23021147802337
 30
0.0
 10
95.89725836374589
 20
-46.27124217006286
 30
0.0
 10
96.66631260646577
 20
-46.33212642276692
 30
0.0
 10
97.42124124604868
 20
-46.41154066542427
 30
0.0
 10
98.1761698856316
 20
-46.49095490808161
 30
0.0
 10
98.91697292207819
 20
-46.58889914069257
 30
0.0
 10
99.64375325266363
 20
-46.70404979254584
 30
0.0
 10
100.3705335832497
 20
-46.8192004443991
 30
0.0
 10
101.0832912079747
 20
-46.95155751549468
 30
0.0
 10
101.7821290241155
 20
-47.09979743512193
 30
0.0
 10
102.4809668402565
 20
-47.24803735474917
 30
0.0
 10
103.1658848478127
 20
-47.41216012290775
 30
0.0
 10
103.8369859440607
 20
-47.59084216888702
 30
0.0
 10
104.5080870403087
 20
-47.76952421486598
 30
0.0
 10
105.1653712252491
 20
-47.96276553866562
 30
0.0
 10
105.8089413961578
 20
-48.16924256957498
 30
0.0
 10
106.4525115670658
 20
-48.37571960048435
 30
0.0
 10
107.0823677239421
 20
-48.5954323385031
 30
0.0
 10
107.698612764063
 20
-48.82705721292061
 30
0.0
 10
108.314857804184
 20
-49.05868208733779
 30
0.0
 10
108.9174917275497
 20
-49.30221909815373
 30
0.0
 10
109.5066174314353
 20
-49.55634467465743
 30
0.0
 10
110.0957431353209
 20
-49.81047025116114
 30
0.0
 10
110.6713606197276
 20
-50.0751843933523
 30
0.0
 10
111.2335727819314
 20
-50.34916353052026
 30
0.0
 10
111.7957849441351
 20
-50.62314266768823
 30
0.0
 10
112.3445917841352
 20
-50.90638679983299
 30
0.0
 10
112.8800961992088
 20
-51.19757235624359
 30
0.0
 10
113.415600614283
 20
-51.48875791265419
 30
0.0
 10
113.9378026044294
 20
-51.7878848933303
 30
0.0
 10
114.4468050669257
 20
-52.09362972756126
 30
0.0
 10
114.955807529422
 20
-52.39937456179223
 30
0.0
 10
115.4516104642682
 20
-52.71173724957806
 30
0.0
 10
115.9343167687395
 20
-53.02939422020745
 30
0.0
 10
116.4170230732109
 20
-53.34705119083684
 30
0.0
 10
116.886632747308
 20
-53.67000244431044
 30
0.0
 10
117.3432486883072
 20
-53.99692440991664
 30
0.0
 10
117.7998646293059
 20
-54.32384637552315
 30
0.0
 10
118.2434868372067
 20
-54.65473905326227
 30
0.0
 10
118.6742182092856
 20
-54.98827887242332
 30
0.0
 10
119.1049495813645
 20
-55.32181869158438
 30
0.0
 10
119.5227901176221
 20
-55.65800565216738
 30
0.0
 10
119.9278427153341
 20
-55.99551618346135
 30
0.0
 10
120.3328953130455
 20
-56.33302671475531
 30
0.0
 10
120.7251599722114
 20
-56.67186081676026
 30
0.0
 10
121.1047395901083
 20
-57.01069491876488
 30
0.0
 10
121.4843192080051
 20
-57.3495290207695
 30
0.0
 10
121.8512137846329
 20
-57.68836312277444
 30
0.0
 10
122.2055262172669
 20
-58.02587365406841
 30
0.0
 10
122.5598386499015
 20
-58.36338418536238
 30
0.0
 10
122.9015689385429
 20
-58.69957114594538
 30
0.0
 10
123.2308199804675
 20
-59.03311096510644
 30
0.0
 10
123.5600710223921
 20
-59.36665078426749
 30
0.0
 10
123.8768428176
 20
-59.6975434620066
 30
0.0
 10
124.1812382633676
 20
-60.02446542761312
 30
0.0
 10
124.4856337091345
 20
-60.35138739321931
 30
0.0
 10
124.7776528054618
 20
-60.67433864669292
 30
0.0
 10
125.0573984496239
 20
-60.9919956173223
 30
0.0
 10
125.3371440937861
 20
-61.3096525879517
 30
0.0
 10
125.6046162857844
 20
-61.62201527573752
 30
0.0
 10
125.8599179228948
 20
-61.92776010996849
 30
0.0
 10
126.1152195600051
 20
-62.23350494419946
 30
0.0
 10
126.3583506422274
 20
-62.53263192487557
 30
0.0
 10
126.5894140668376
 20
-62.82381748128616
 30
0.0
 10
126.8204774914477
 20
-63.11500303769676
 30
0.0
 10
127.0394732584463
 20
-63.39824716984153
 30
0.0
 10
127.2465042651092
 20
-63.67222630700949
 30
0.0
 10
127.4535352717721
 20
-63.94620544417745
 30
0.0
 10
127.6486015180993
 20
-64.21091958636862
 30
0.0
 10
127.8318059013678
 20
-64.46504516287264
 30
0.0
 10
128.0150102846364
 20
-64.71917073937666
 30
0.0
 10
128.186352804845
 20
-64.96270775019228
 30
0.0
 10
128.3459363592709
 20
-65.19433262460979
 30
0.0
 10
128.5055199136967
 20
-65.42595749902665
 30
0.0
 10
128.6533445023398
 20
-65.64567023704541
 30
0.0
 10
128.7895130224759
 20
-65.85214726795509
 30
0.0
 10
128.925681542612
 20
-66.05862429886477
 30
0.0
 10
129.0501939942411
 20
-66.2518656226641
 30
0.0
 10
129.1631532746403
 20
-66.43054766864337
 30
0.0
 10
129.2761125550389
 20
-66.60922971462264
 30
0.0
 10
129.377518664207
 20
-66.77335248278058
 30
0.0
 10
129.4674744994211
 20
-66.92159240240815
 30
0.0
 10
129.5574303346352
 20
-67.06983232203507
 30
0.0
 10
129.6359358958952
 20
-67.20218939313033
 30
0.0
 10
129.703094080477
 20
-67.3173400449836
 30
0.0
 10
129.7702522650588
 20
-67.43249069683687
 30
0.0
 10
129.8260630729623
 20
-67.5304349294475
 30
0.0
 10
129.8706294014642
 20
-67.60984917210517
 30
0.0
 10
129.915195729966
 20
-67.68926341476283
 30
0.0
 10
129.948517579066
 20
-67.75014766746627
 30
0.0
 10
129.9706978460408
 20
-67.79117835950639
 30
0.0
 10
129.9928781130156
 20
-67.83220905154587
 30
0.0
 10
130.003916797865
 20
-67.85338618292143
 30
0.0
 10
130.003916797865
 20
-67.85338618292143
 30
0.0
  0
ENDSEC
  0
SECTION
  2
OBJECTS
  0
DICTIONARY
  5
C
330
0
100
AcDbDictionary
  3
ACAD_GROUP
350
D
  3
ACAD_LAYOUT
350
1A
  3
ACAD_MATERIAL
350
3B
  3
ACAD_MLEADERSTYLE
350
4A
  3
ACAD_MLINESTYLE
350
17
  3
ACAD_PLOTSETTINGS
350
19
  3
ACAD_VISUALSTYLE
350
2A
  3
ACDBVARIABLEDICTIONARY
350
48
1001
ACAD
1000
TREAT_AS_HARD
1070
     0
  0
DICTIONARY
  5
D
102
{ACAD_REACTORS
330
C
102
}
330
C
100
AcDbDictionary
1001
ACAD
1000
TREAT_AS_HARD
1070
     0
  0
DICTIONARY
  5
1A
102
{ACAD_REACTORS
330
C
102
}
330
C
100
AcDbDictionary
1001
ACAD
1000
TREAT_AS_HARD
1070
     0
  0
DICTIONARY
  5
3B
102
{ACAD_REACTORS
330
C
102
}
330
C
100
AcDbDictionary
  3
BYBLOCK
350
3D
  3
BYLAYER
350
3C
  3
GLOBAL
350
3E
1001
ACAD
1000
TREAT_AS_HARD
1070
     0
  0
DICTIONARY
  5
4A
102
{ACAD_REACTORS
330
C
102
}
330
C
100
AcDbDictionary
1001
ACAD
1000
TREAT_AS_HARD
1070
     0
  0
DICTIONARY
  5
17
102
{ACAD_REACTORS
330
C
102
}
330
C
100
AcDbDictionary
  3
STANDARD
350
18
1001
ACAD
1000
TREAT_AS_HARD
1070
     0
  0
DICTIONARY
  5
19
102
{ACAD_REACTORS
330
C
102
}
330
C
100
AcDbDictionary
1001
ACAD
1000
TREAT_AS_HARD
1070
     0
  0
DICTIONARY
  5
2A
102
{ACAD_REACTORS
330
C
102
}
330
C
100
AcDbDictionary
  3
2DWIREFRAME
350
2F
  3
3DWIREFRAME
350
30
  3
3D_HIDDEN
350
31
  3
BASIC
350
32
  3
BRIGHTEN
350
36
  3
COLORCHANGE
350
3A
  3
CONCEPTUAL
350
34
  3
DIM
350
35
  3
FACEPATTERN
350
39
  3
FLAT
350
2B
  3
FLATWITHEDGES
350
2C
  3
GOURAUD
350
2D
  3
GOURAUDWITHEDGES
350
2E
  3
LINEPATTERN
350
38
  3
REALISTIC
350
33
  3
THICKEN
350
37
1001
ACAD
1000
TREAT_AS_HARD
1070
     0
  0
DICTIONARY
  5
48
102
{ACAD_REACTORS
330
C
102
}
330
C
100
AcDbDictionary
  3
DIMASSOC
350
4B
  3
HIDETEXT
350
4C
1001
ACAD
1000
TREAT_AS_HARD
1070
     0
  0
MATERIAL
  5
3D
102
{ACAD_REACTORS
330
3B
102
}
102
{ACAD_XDICTIONARY
360
4F
102
}
330
3B
100
AcDbMaterial
  1
ByBlock
  0
MATERIAL
  5
3C
102
{ACAD_REACTORS
330
3B
102
}
102
{ACAD_XDICTIONARY
360
4D
102
}
330
3B
100
AcDbMaterial
  1
ByLayer
  0
MATERIAL
  5
3E
102
{ACAD_REACTORS
330
3B
102
}
102
{ACAD_XDICTIONARY
360
51
102
}
330
3B
100
AcDbMaterial
  1
Global
  0
MLINESTYLE
  5
18
102
{ACAD_REACTORS
330
17
102
}
330
17
100
AcDbMlineStyle
  2
Standard
 70
     0
  3

 62
   256
 51
90.0
 52
90.0
 71
     2
 49
0.5
 62
   256
  6
BYLAYER
 49
-0.5
 62
   256
  6
BYLAYER
  0
ACAD_PROXY_OBJECT
  5
2F
102
{ACAD_REACTORS
330
2A
102
}
330
2A
100
AcDbZombieObject
 90
      499
 91
      501
 93
      436
310
42CC9915DA5C99599C985B595049028333333333333E3BF0000000000000FB0107901411070040501600405405064090741402480A0340
1001
ACAD
1000
AcDbSavedByObjectVersion
1070
     0
  0
ACAD_PROXY_OBJECT
  5
30
102
{ACAD_REACTORS
330
2A
102
}
330
2A
100
AcDbZombieObject
 90
      499
 91
      501
 93
      436
310
42CCD915DA5C99599C985B595059028333333333333E3BF0000000000000FB0107901411070040501600405405064090741402480A0340
1001
ACAD
1000
AcDbSavedByObjectVersion
1070
     0
  0
ACAD_PROXY_OBJECT
  5
31
102
{ACAD_REACTORS
330
2A
102
}
330
2A
100
AcDbZombieObject
 90
      499
 91
      501
 93
      500
310
424CD108121A5919195B90640502408333333333333E3BF0000000000000FB01079024090700405020000000000001110200405405064090740C02480A0340
1001
ACAD
1000
AcDbSavedByObjectVersion
1070
     0
  0
ACAD_PROXY_OBJECT
  5
32
102
{ACAD_REACTORS
330
2A
102
}
330
2A
100
AcDbZombieObject
 90
      499
 91
      501
 93
      388
310
4150985CDA58D07406404333333333333E3BF0000000000000FB0107A41107004050150841D405064090741402480A0350
1001
ACAD
1000
AcDbSavedByObjectVersion
1070
     0
  0
ACAD_PROXY_OBJECT
  5
36
102
{ACAD_REACTORS
330
2A
102
}
330
2A
100
AcDbZombieObject
 90
      499
 91
      501
 93
      428
310
42109C9A59DA1D195B90C409028333333333333E3BF0000000000000FB010790141107004050150841D405064090741402480A029950
1001
ACAD
1000
AcDbSavedByObjectVersion
1070
     0
  0
ACAD_PROXY_OBJECT
  5
3A
102
{ACAD_REACTORS
330
2A
102
}
330
2A
100
AcDbZombieObject
 90
      499
 91
      501
 93
      452
310
42D0DBDB1BDC90DA185B99D95104090240C333333333333E3BF0000000000000FB0108901411070040501508421405064090741402480A0350
1001
ACAD
1000
AcDbSavedByObjectVersion
1070
     0
  0
ACAD_PROXY_OBJECT
  5
34
102
{ACAD_REACTORS
330
2A
102
}
330
2A
100
AcDbZombieObject
 90
      499
 91
      501
 93
      500
310
4290DBDB98D95C1D1D585B10940D028333333333333E3BF0000000000000FB0107902409070040501000000000000111010841D405064090740C02480A0340
1001
ACAD
1000
AcDbSavedByObjectVersion
1070
     0
  0
ACAD_PROXY_OBJECT
  5
35
102
{ACAD_REACTORS
330
2A
102
}
330
2A
100
AcDbZombieObject
 90
      499
 91
      501
 93
      412
310
40D11A5B50B409028333333333333E3BF0000000000000FB010790141107004050150841D405064090741402480A02677FFFFFD0
1001
ACAD
1000
AcDbSavedByObjectVersion
1070
     0
  0
ACAD_PROXY_OBJECT
  5
39
102
{ACAD_REACTORS
330
2A
102
}
330
2A
100
AcDbZombieObject
 90
      499
 91
      501
 93
      444
310
42D19858D95C185D1D195C9B90F409028333333333333E3BF0000000000000FB010790141107004050150841D405064090741402480A0350
1001
ACAD
1000
AcDbSavedByObjectVersion
1070
     0
  0
ACAD_PROXY_OBJECT
  5
2B
102
{ACAD_REACTORS
330
2A
102
}
330
2A
100
AcDbZombieObject
 90
      499
 91
      501
 93
      388
310
41119B185D240901404333333333333E3BF0000000000000F9010740A41107004050150841D405064090741402480A1B50
1001
ACAD
1000
AcDbSavedByObjectVersion
1070
     0
  0
ACAD_PROXY_OBJECT
  5
2C
102
{ACAD_REACTORS
330
2A
102
}
330
2A
100
AcDbZombieObject
 90
      499
 91
      501
 93
      476
310
43519B185D15DA5D1A115919D95CD0140901404333333333333E3BF0000000000000F9010740901411070040501600405405064090741402480A1B50
1001
ACAD
1000
AcDbSavedByObjectVersion
1070
     0
  0
ACAD_PROXY_OBJECT
  5
2D
102
{ACAD_REACTORS
330
2A
102
}
330
2A
100
AcDbZombieObject
 90
      499
 91
      501
 93
      412
310
41D1DBDD5C985D5910240902404333333333333E3BF0000000000000F9010740A411070040501641D405064090741402480A1B50
1001
ACAD
1000
AcDbSavedByObjectVersion
1070
     0
  0
ACAD_PROXY_OBJECT
  5
2E
102
{ACAD_REACTORS
330
2A
102
}
330
2A
100
AcDbZombieObject
 90
      499
 91
      501
 93
      500
310
4411DBDD5C985D5915DA5D1A115919D95CD0340902404333333333333E3BF0000000000000F9010740901411070040501600405405064090741402480A1B50
1001
ACAD
1000
AcDbSavedByObjectVersion
1070
     0
  0
ACAD_PROXY_OBJECT
  5
38
102
{ACAD_REACTORS
330
2A
102
}
330
2A
100
AcDbZombieObject
 90
      499
 91
      501
 93
      444
310
42D31A5B995C185D1D195C9B90E409028333333333333E3BF0000000000000FB010790141107004050750841D405064090741402483A0350
1001
ACAD
1000
AcDbSavedByObjectVersion
1070
     0
  0
ACAD_PROXY_OBJECT
  5
33
102
{ACAD_REACTORS
330
2A
102
}
330
2A
100
AcDbZombieObject
 90
      499
 91
      501
 93
      420
310
425499585B1A5CDD1A58D08409028333333333333E3BF0000000000000FB01079019070040501508421405064090741402480A1B40
1001
ACAD
1000
AcDbSavedByObjectVersion
1070
     0
  0
ACAD_PROXY_OBJECT
  5
37
102
{ACAD_REACTORS
330
2A
102
}
330
2A
100
AcDbZombieObject
 90
      499
 91
      501
 93
      412
310
41D51A1A58DAD95B90D409028333333333333E3BF0000000000000FB010790141107004050150C41D405064090741402480A0350
1001
ACAD
1000
AcDbSavedByObjectVersion
1070
     0
  0
DICTIONARYVAR
  5
4B
102
{ACAD_REACTORS
330
48
102
}
330
48
100
DictionaryVariables
280
     0
  1
2
  0
DICTIONARYVAR
  5
4C
102
{ACAD_REACTORS
330
48
102
}
330
48
100
DictionaryVariables
280
     0
  1
1
  0
DICTIONARY
  5
4F
330
3D
100
AcDbDictionary
  3
ACAD_XREC_ROUNDTRIP
360
50
1001
ACAD
1000
TREAT_AS_HARD
1070
     1
  0
DICTIONARY
  5
4D
330
3C
100
AcDbDictionary
  3
ACAD_XREC_ROUNDTRIP
360
4E
1001
ACAD
1000
TREAT_AS_HARD
1070
     1
  0
DICTIONARY
  5
51
330
3E
100
AcDbDictionary
  3
ACAD_XREC_ROUNDTRIP
360
52
1001
ACAD
1000
TREAT_AS_HARD
1070
     1
  0
XRECORD
  5
50
102
{ACAD_REACTORS
330
4F
102
}
330
4F
100
AcDbXrecord
102
MATERIAL
148
0.0
149
0.0
149
0.0
 93
        0
 94
      127
282
     0
 72
     1
 77
     1
171
     1
175
     1
179
     1
273
     0
  0
XRECORD
  5
4E
102
{ACAD_REACTORS
330
4D
102
}
330
4D
100
AcDbXrecord
102
MATERIAL
148
0.0
149
0.0
149
0.0
 93
        0
 94
      127
282
     0
 72
     1
 77
     1
171
     1
175
     1
179
     1
273
     0
  0
XRECORD
  5
52
102
{ACAD_REACTORS
330
51
102
}
330
51
100
AcDbXrecord
102
MATERIAL
148
0.0
149
0.0
149
0.0
 93
        0
 94
      127
282
     0
 72
     1
 77
     1
171
     1
175
     1
179
     1
273
     0
  0
ENDSEC
  0
EOF
