  0
SECTION
  2
HEADER
  9
$ACADVER
  1
AC1012
  9
$DWGCODEPAGE
  3
undefined
  9
$INSBASE
 10
0.0
 20
0.0
 30
0.0
  9
$EXTMIN
 10
1.000000000000000E+20
 20
1.000000000000000E+20
 30
1.000000000000000E+20
  9
$EXTMAX
 10
-1.000000000000000E+20
 20
-1.000000000000000E+20
 30
-1.000000000000000E+20
  9
$LIMMIN
 10
0.0
 20
0.0
  9
$LIMMAX
 10
12.0
 20
9.0
  9
$ORTHOMODE
 70
     0
  9
$REGENMODE
 70
     1
  9
$FILLMODE
 70
     1
  9
$QTEXTMODE
 70
     0
  9
$MIRRTEXT
 70
     1
  9
$DRAGMODE
 70
     2
  9
$LTSCALE
 40
1.0
  9
$OSMODE
 70
    37
  9
$ATTMODE
 70
     1
  9
$TEXTSIZE
 40
0.2
  9
$TRACEWID
 40
0.05
  9
$TEXTSTYLE
  7
STANDARD
  9
$CLAYER
  8
0
  9
$CELTYPE
  6
BYLAYER
  9
$CECOLOR
 62
   256
  9
$CELTSCALE
 40
1.0
  9
$DELOBJ
 70
     1
  9
$DISPSILH
 70
     0
  9
$DIMSCALE
 40
1.0
  9
$DIMASZ
 40
0.18
  9
$DIMEXO
 40
0.0625
  9
$DIMDLI
 40
0.38
  9
$DIMRND
 40
0.0
  9
$DIMDLE
 40
0.0
  9
$DIMEXE
 40
0.18
  9
$DIMTP
 40
0.0
  9
$DIMTM
 40
0.0
  9
$DIMTXT
 40
0.18
  9
$DIMCEN
 40
0.09
  9
$DIMTSZ
 40
0.0
  9
$DIMTOL
 70
     0
  9
$DIMLIM
 70
     0
  9
$DIMTIH
 70
     1
  9
$DIMTOH
 70
     1
  9
$DIMSE1
 70
     0
  9
$DIMSE2
 70
     0
  9
$DIMTAD
 70
     0
  9
$DIMZIN
 70
     0
  9
$DIMBLK
  1

  9
$DIMASO
 70
     1
  9
$DIMSHO
 70
     1
  9
$DIMPOST
  1

  9
$DIMAPOST
  1

  9
$DIMALT
 70
     0
  9
$DIMALTD
 70
     2
  9
$DIMALTF
 40
25.4
  9
$DIMLFAC
 40
1.0
  9
$DIMTOFL
 70
     0
  9
$DIMTVP
 40
0.0
  9
$DIMTIX
 70
     0
  9
$DIMSOXD
 70
     0
  9
$DIMSAH
 70
     0
  9
$DIMBLK1
  1

  9
$DIMBLK2
  1

  9
$DIMSTYLE
  2
STANDARD
  9
$DIMCLRD
 70
     0
  9
$DIMCLRE
 70
     0
  9
$DIMCLRT
 70
     0
  9
$DIMTFAC
 40
1.0
  9
$DIMGAP
 40
0.09
  9
$DIMJUST
 70
     0
  9
$DIMSD1
 70
     0
  9
$DIMSD2
 70
     0
  9
$DIMTOLJ
 70
     1
  9
$DIMTZIN
 70
     0
  9
$DIMALTZ
 70
     0
  9
$DIMALTTZ
 70
     0
  9
$DIMFIT
 70
     3
  9
$DIMUPT
 70
     0
  9
$DIMUNIT
 70
     2
  9
$DIMDEC
 70
     4
  9
$DIMTDEC
 70
     4
  9
$DIMALTU
 70
     2
  9
$DIMALTTD
 70
     2
  9
$DIMTXSTY
  7
STANDARD
  9
$DIMAUNIT
 70
     0
  9
$LUNITS
 70
     2
  9
$LUPREC
 70
     4
  9
$SKETCHINC
 40
0.1
  9
$FILLETRAD
 40
0.5
  9
$AUNITS
 70
     0
  9
$AUPREC
 70
     0
  9
$MENU
  1
.
  9
$ELEVATION
 40
0.0
  9
$PELEVATION
 40
0.0
  9
$THICKNESS
 40
0.0
  9
$LIMCHECK
 70
     0
  9
$CHAMFERA
 40
0.5
  9
$CHAMFERB
 40
0.5
  9
$CHAMFERC
 40
1.0
  9
$CHAMFERD
 40
0.0
  9
$SKPOLY
 70
     0
  9
$TDCREATE
 40
2458821.564259248
  9
$TDUPDATE
 40
2458821.564259248
  9
$TDINDWG
 40
0.0000000116
  9
$TDUSRTIMER
 40
0.0000000116
  9
$USRTIMER
 70
     1
  9
$ANGBASE
 50
0.0
  9
$ANGDIR
 70
     0
  9
$PDMODE
 70
     0
  9
$PDSIZE
 40
0.0
  9
$PLINEWID
 40
0.0
  9
$COORDS
 70
     1
  9
$SPLFRAME
 70
     0
  9
$SPLINETYPE
 70
     6
  9
$SPLINESEGS
 70
     8
  9
$ATTDIA
 70
     0
  9
$ATTREQ
 70
     1
  9
$HANDLING
 70
     1
  9
$HANDSEED
  5
64
  9
$SURFTAB1
 70
     6
  9
$SURFTAB2
 70
     6
  9
$SURFTYPE
 70
     6
  9
$SURFU
 70
     6
  9
$SURFV
 70
     6
  9
$UCSNAME
  2

  9
$UCSORG
 10
0.0
 20
0.0
 30
0.0
  9
$UCSXDIR
 10
1.0
 20
0.0
 30
0.0
  9
$UCSYDIR
 10
0.0
 20
1.0
 30
0.0
  9
$PUCSNAME
  2

  9
$PUCSORG
 10
0.0
 20
0.0
 30
0.0
  9
$PUCSXDIR
 10
1.0
 20
0.0
 30
0.0
  9
$PUCSYDIR
 10
0.0
 20
1.0
 30
0.0
  9
$USERI1
 70
     0
  9
$USERI2
 70
     0
  9
$USERI3
 70
     0
  9
$USERI4
 70
     0
  9
$USERI5
 70
     0
  9
$USERR1
 40
0.0
  9
$USERR2
 40
0.0
  9
$USERR3
 40
0.0
  9
$USERR4
 40
0.0
  9
$USERR5
 40
0.0
  9
$WORLDVIEW
 70
     1
  9
$SHADEDGE
 70
     3
  9
$SHADEDIF
 70
    70
  9
$TILEMODE
 70
     1
  9
$MAXACTVP
 70
    64
  9
$PINSBASE
 10
0.0
 20
0.0
 30
0.0
  9
$PLIMCHECK
 70
     0
  9
$PEXTMIN
 10
1.000000000000000E+20
 20
1.000000000000000E+20
 30
1.000000000000000E+20
  9
$PEXTMAX
 10
-1.000000000000000E+20
 20
-1.000000000000000E+20
 30
-1.000000000000000E+20
  9
$PLIMMIN
 10
0.0
 20
0.0
  9
$PLIMMAX
 10
12.0
 20
9.0
  9
$UNITMODE
 70
     0
  9
$VISRETAIN
 70
     1
  9
$PLINEGEN
 70
     0
  9
$PSLTSCALE
 70
     1
  9
$TREEDEPTH
 70
  3020
  9
$PICKSTYLE
 70
     1
  9
$CMLSTYLE
  2
STANDARD
  9
$CMLJUST
 70
     0
  9
$CMLSCALE
 40
1.0
  9
$SAVEIMAGES
 70
     1
  0
ENDSEC
  0
SECTION
  2
CLASSES
  0
CLASS
  1
ACDBDICTIONARYWDFLT
  2
AcDbDictionaryWithDefault
  3
ObjectDBX Classes
 90
    32768
280
     0
281
     0
  0
CLASS
  1
VISUALSTYLE
  2
AcDbVisualStyle
  3
ObjectDBX Classes
 90
     4095
280
     0
281
     0
  0
CLASS
  1
MATERIAL
  2
AcDbMaterial
  3
ObjectDBX Classes
 90
     1153
280
     0
281
     0
  0
CLASS
  1
SUN
  2
AcDbSun
  3
SCENEOE
 90
     1024
280
     0
281
     0
  0
CLASS
  1
DICTIONARYVAR
  2
AcDbDictionaryVar
  3
ObjectDBX Classes
 90
        0
280
     0
281
     0
  0
CLASS
  1
XRECORD
  2
AcDbXrecord
  3
AutoCAD 2000
 90
    32768
280
     0
281
     0
  0
CLASS
  1
LWPOLYLINE
  2
AcDbPolyline
  3
AutoCAD 2000
 90
    32768
280
     0
281
     1
  0
CLASS
  1
HATCH
  2
AcDbHatch
  3
AutoCAD 2000
 90
    32768
280
     0
281
     1
  0
CLASS
  1
ACDBPLACEHOLDER
  2
AcDbPlaceHolder
  3
ObjectDBX Classes
 90
        0
280
     0
281
     0
  0
CLASS
  1
LAYOUT
  2
AcDbLayout
  3
ObjectDBX Classes
 90
        0
280
     0
281
     0
  0
ENDSEC
  0
SECTION
  2
TABLES
  0
TABLE
  2
VPORT
  5
8
330
0
100
AcDbSymbolTable
 70
     1
  0
VPORT
  5
29
330
8
100
AcDbSymbolTableRecord
100
AcDbViewportTableRecord
  2
*ACTIVE
 70
     0
 10
0.0
 20
0.0
 11
1.0
 21
1.0
 12
0.0
 22
0.0
 13
0.0
 23
0.0
 14
0.5
 24
0.5
 15
0.5
 25
0.5
 16
0.0
 26
0.0
 36
1.0
 17
64.34389976604898
 27
-63.91503266375991
 37
0.0
 40
66.54357296811368
 41
2.422037422037413
 42
50.0
 43
0.0
 44
0.0
 50
0.0
 51
0.0
 71
     0
 72
   100
 73
     1
 74
     3
 75
     0
 76
     0
 77
     0
 78
     0
  0
ENDTAB
  0
TABLE
  2
LTYPE
  5
5
330
0
100
AcDbSymbolTable
 70
     1
  0
LTYPE
  5
14
330
5
100
AcDbSymbolTableRecord
100
AcDbLinetypeTableRecord
  2
BYBLOCK
 70
     0
  3

 72
    65
 73
     0
 40
0.0
  0
LTYPE
  5
15
330
5
100
AcDbSymbolTableRecord
100
AcDbLinetypeTableRecord
  2
BYLAYER
 70
     0
  3

 72
    65
 73
     0
 40
0.0
  0
LTYPE
  5
16
330
5
100
AcDbSymbolTableRecord
100
AcDbLinetypeTableRecord
  2
CONTINUOUS
 70
     0
  3
Solid line
 72
    65
 73
     0
 40
0.0
  0
ENDTAB
  0
TABLE
  2
LAYER
  5
2
330
0
100
AcDbSymbolTable
 70
     8
  0
LAYER
  5
10
330
2
100
AcDbSymbolTableRecord
100
AcDbLayerTableRecord
  2
0
 70
     0
 62
     7
  6
CONTINUOUS
  0
LAYER
  5
40
330
2
100
AcDbSymbolTableRecord
100
AcDbLayerTableRecord
  2
LAYER_1
 70
     4
 62
     7
  6
CONTINUOUS
  0
LAYER
  5
41
330
2
100
AcDbSymbolTableRecord
100
AcDbLayerTableRecord
  2
LAYER_2
 70
     4
 62
     7
  6
CONTINUOUS
  0
LAYER
  5
42
330
2
100
AcDbSymbolTableRecord
100
AcDbLayerTableRecord
  2
LAYER_3
 70
     4
 62
     7
  6
CONTINUOUS
  0
LAYER
  5
43
330
2
100
AcDbSymbolTableRecord
100
AcDbLayerTableRecord
  2
LAYER_4
 70
     4
 62
     7
  6
CONTINUOUS
  0
LAYER
  5
44
330
2
100
AcDbSymbolTableRecord
100
AcDbLayerTableRecord
  2
LAYER_5
 70
     0
 62
     7
  6
CONTINUOUS
  0
LAYER
  5
57
330
2
100
AcDbSymbolTableRecord
100
AcDbLayerTableRecord
  2
LAYER_6
 70
     1
 62
     7
  6
CONTINUOUS
  0
LAYER
  5
58
330
2
100
AcDbSymbolTableRecord
100
AcDbLayerTableRecord
  2
LAYER_7
 70
     1
 62
     7
  6
CONTINUOUS
  0
ENDTAB
  0
TABLE
  2
STYLE
  5
3
330
0
100
AcDbSymbolTable
 70
     1
  0
STYLE
  5
11
330
3
100
AcDbSymbolTableRecord
100
AcDbTextStyleTableRecord
  2
STANDARD
 70
     0
 40
0.0
 41
1.0
 50
0.0
 71
     0
 42
0.2
  3
txt
  4

  0
ENDTAB
  0
TABLE
  2
VIEW
  5
6
330
0
100
AcDbSymbolTable
 70
     0
  0
ENDTAB
  0
TABLE
  2
UCS
  5
7
330
0
100
AcDbSymbolTable
 70
     0
  0
ENDTAB
  0
TABLE
  2
APPID
  5
9
330
0
100
AcDbSymbolTable
 70
     1
  0
APPID
  5
12
330
9
100
AcDbSymbolTableRecord
100
AcDbRegAppTableRecord
  2
ACAD
 70
     0
  0
ENDTAB
  0
TABLE
  2
DIMSTYLE
  5
A
330
0
100
AcDbSymbolTable
 70
     1
  0
DIMSTYLE
105
27
330
A
100
AcDbSymbolTableRecord
100
AcDbDimStyleTableRecord
  2
STANDARD
 70
     0
  3

  4

  5

  6

  7

 40
1.0
 41
0.18
 42
0.0625
 43
0.38
 44
0.18
 45
0.0
 46
0.0
 47
0.0
 48
0.0
140
0.18
141
0.09
142
0.0
143
25.4
144
1.0
145
0.0
146
1.0
147
0.09
 71
     0
 72
     0
 73
     1
 74
     1
 75
     0
 76
     0
 77
     0
 78
     0
170
     0
171
     2
172
     0
173
     0
174
     0
175
     0
176
     0
177
     0
178
     0
270
     2
271
     4
272
     4
273
     2
274
     2
340
11
275
     0
280
     0
281
     0
282
     0
283
     1
284
     0
285
     0
286
     0
287
     3
288
     0
  0
ENDTAB
  0
TABLE
  2
BLOCK_RECORD
  5
1
330
0
100
AcDbSymbolTable
 70
     1
  0
BLOCK_RECORD
  5
1F
330
1
100
AcDbSymbolTableRecord
100
AcDbBlockTableRecord
  2
*MODEL_SPACE
  0
BLOCK_RECORD
  5
1B
330
1
100
AcDbSymbolTableRecord
100
AcDbBlockTableRecord
  2
*PAPER_SPACE
  0
ENDTAB
  0
ENDSEC
  0
SECTION
  2
BLOCKS
  0
BLOCK
  5
20
330
1F
100
AcDbEntity
  8
0
100
AcDbBlockBegin
  2
*MODEL_SPACE
 70
     0
 10
0.0
 20
0.0
 30
0.0
  3
*MODEL_SPACE
  1

  0
ENDBLK
  5
21
330
1F
100
AcDbEntity
  8
0
100
AcDbBlockEnd
  0
BLOCK
  5
1C
330
1B
100
AcDbEntity
 67
     1
  8
0
100
AcDbBlockBegin
  2
*PAPER_SPACE
 70
     0
 10
0.0
 20
0.0
 30
0.0
  3
*PAPER_SPACE
  1

  0
ENDBLK
  5
1D
330
1B
100
AcDbEntity
 67
     1
  8
0
100
AcDbBlockEnd
  0
ENDSEC
  0
SECTION
  2
ENTITIES
  0
SPLINE
  5
45
330
1F
100
AcDbEntity
  8
LAYER_5
 62
   250
100
AcDbSpline
210
0.0
220
0.0
230
1.0
 70
     8
 71
     3
 72
   101
 73
    97
 74
     0
 42
0.0000000001
 43
0.0000000001
 12
1.0
 22
0.0
 32
0.0
 13
1.0
 23
0.0
 33
0.0
 40
0.0
 40
0.0
 40
0.0
 40
0.0
 40
1.0
 40
1.0
 40
1.0
 40
2.0
 40
2.0
 40
2.0
 40
3.0
 40
3.0
 40
3.0
 40
4.0
 40
4.0
 40
4.0
 40
5.0
 40
5.0
 40
5.0
 40
6.0
 40
6.0
 40
6.0
 40
7.0
 40
7.0
 40
7.0
 40
8.0
 40
8.0
 40
8.0
 40
9.0
 40
9.0
 40
9.0
 40
10.0
 40
10.0
 40
10.0
 40
11.0
 40
11.0
 40
11.0
 40
12.0
 40
12.0
 40
12.0
 40
13.0
 40
13.0
 40
13.0
 40
14.0
 40
14.0
 40
14.0
 40
15.0
 40
15.0
 40
15.0
 40
16.0
 40
16.0
 40
16.0
 40
17.0
 40
17.0
 40
17.0
 40
18.0
 40
18.0
 40
18.0
 40
19.0
 40
19.0
 40
19.0
 40
20.0
 40
20.0
 40
20.0
 40
21.0
 40
21.0
 40
21.0
 40
22.0
 40
22.0
 40
22.0
 40
23.0
 40
23.0
 40
23.0
 40
24.0
 40
24.0
 40
24.0
 40
25.0
 40
25.0
 40
25.0
 40
26.0
 40
26.0
 40
26.0
 40
27.0
 40
27.0
 40
27.0
 40
28.0
 40
28.0
 40
28.0
 40
29.0
 40
29.0
 40
29.0
 40
30.0
 40
30.0
 40
30.0
 40
31.0
 40
31.0
 40
31.0
 40
32.0
 40
32.0
 40
32.0
 40
32.0
 10
-13.60078803663337
 20
-70.35736020360494
 30
0.0
 10
-13.60078803663337
 20
-70.35736020360494
 30
0.0
 10
-13.50304564501077
 20
-70.35620806477071
 30
0.0
 10
-13.32963636418929
 20
-70.35413620301082
 30
0.0
 10
-13.1562270833675
 20
-70.35206434125095
 30
0.0
 10
-12.90715091334682
 20
-70.34907275656543
 30
0.0
 10
-12.60448335654971
 20
-70.34539386486091
 30
0.0
 10
-12.3018157997526
 20
-70.34171497315705
 30
0.0
 10
-11.94555685617969
 20
-70.33734877443483
 30
0.0
 10
-11.55778202825406
 20
-70.33252768460285
 30
0.0
 10
-11.17000720032843
 20
-70.32770659477025
 30
0.0
 10
-10.75071648805009
 20
-70.32243061382852
 30
0.0
 10
-10.3219853938421
 20
-70.31693215768368
 30
0.0
 10
-9.893254299634123
 20
-70.31143370153885
 30
0.0
 10
-9.455082823496824
 20
-70.30571277019219
 30
0.0
 10
-9.029546467853288
 20
-70.30000177955166
 30
0.0
 10
-8.604010112209753
 20
-70.2942907889105
 30
0.0
 10
-8.191108877059659
 20
-70.28858973897547
 30
0.0
 10
-7.81291826482673
 20
-70.28313104565386
 30
0.0
 10
-7.43472765259348
 20
-70.27767235233225
 30
0.0
 10
-7.091247663277394
 20
-70.27245601562471
 30
0.0
 10
-6.804553799301873
 20
-70.26771445143919
 30
0.0
 10
-6.51785993532571
 20
-70.26297288725303
 30
0.0
 10
-6.287952196690112
 20
-70.25870609558888
 30
0.0
 10
-6.136906085818159
 20
-70.25514649235403
 30
0.0
 10
-5.683767465103814
 20
-70.24446767586035
 30
0.0
 10
-5.164728431031222
 20
-70.24015356332683
 30
0.0
 10
-4.594086341723352
 20
-70.24847939623625
 30
0.0
 10
-4.023444252415483
 20
-70.25680522914568
 30
0.0
 10
-3.401199107872015
 20
-70.27777100749871
 30
0.0
 10
-2.741648266216241
 20
-70.31765197277879
 30
0.0
 10
-2.082097424560467
 20
-70.35753293805887
 30
0.0
 10
-1.385240885792387
 20
-70.41632909026598
 30
0.0
 10
-0.6653760080346502
 20
-70.50031567088358
 30
0.0
 10
0.0544888697227659
 20
-70.58430225150181
 30
0.0
 10
0.7973620864698387
 20
-70.6934792605299
 30
0.0
 10
1.548946284083277
 20
-70.8341219394532
 30
0.0
 10
2.300530481696715
 20
-70.97476461837584
 30
0.0
 10
3.060825660176838
 20
-71.14687296719308
 30
0.0
 10
3.815534461400036
 20
-71.3567222273883
 30
0.0
 10
4.570243262623555
 20
-71.56657148758289
 30
0.0
 10
5.319365686590468
 20
-71.81416165915614
 30
0.0
 10
6.048604375177805
 20
-72.10576798359084
 30
0.0
 10
6.777843063765142
 20
-72.39737430802553
 30
0.0
 10
7.487198016973224
 20
-72.73299678532233
 30
0.0
 10
8.162371876678758
 20
-73.11891065696466
 30
0.0
 10
8.837545736384294
 20
-73.50482452860635
 30
0.0
 10
9.478538502587282
 20
-73.94102979459358
 30
0.0
 10
10.07105281716475
 20
-74.43380169640915
 30
0.0
 10
10.75483941550545
 20
-75.00248132863169
 30
0.0
 10
11.38797769234092
 20
-75.55600713036307
 30
0.0
 10
11.9890834242264
 20
-76.09004371229962
 30
0.0
 10
12.59018915611188
 20
-76.62408029423617
 30
0.0
 10
13.15926234304738
 20
-77.13862765637919
 30
0.0
 10
13.7149187615878
 20
-77.62935040942627
 30
0.0
 10
14.27057518012821
 20
-78.12007316247336
 30
0.0
 10
14.81281483027323
 20
-78.58697130642518
 30
0.0
 10
15.36025348857841
 20
-79.02570945197934
 30
0.0
 10
15.90769214688326
 20
-79.46444759753287
 30
0.0
 10
16.46032981334795
 20
-79.87502574468874
 30
0.0
 10
17.03678226452739
 20
-80.25310850414587
 30
0.0
 10
17.61323471570682
 20
-80.631191263603
 30
0.0
 10
18.21350195160068
 20
-80.9767786353601
 30
0.0
 10
18.85619974876452
 20
-81.2855352301161
 30
0.0
 10
19.49889754592804
 20
-81.59429182487207
 30
0.0
 10
20.18402590436121
 20
-81.86621764262695
 30
0.0
 10
20.93020060061864
 20
-82.09697729407833
 30
0.0
 10
21.67637529687606
 20
-82.3277369455297
 30
0.0
 10
22.48359633095805
 20
-82.51733043067759
 30
0.0
 10
23.37047947941921
 20
-82.66142236022088
 30
0.0
 10
24.25736262788036
 20
-82.80551428976418
 30
0.0
 10
25.22390789072067
 20
-82.90410466370162
 30
0.0
 10
26.28873104449538
 20
-82.95285809273273
 30
0.0
 10
26.75567757200002
 20
-82.97423745916497
 30
0.0
 10
27.69789947767049
 20
-82.992870010121
 30
0.0
 10
29.00635363350603
 20
-83.00907034302176
 30
0.0
 10
30.31480778934126
 20
-83.02527067592187
 30
0.0
 10
31.98949419534155
 20
-83.03903879076607
 30
0.0
 10
33.92136972350615
 20
-83.05068928497337
 30
0.0
 10
35.85324525167076
 20
-83.06233977918069
 30
0.0
 10
38.04230990199935
 20
-83.0718726527511
 30
0.0
 10
40.37952054649212
 20
-83.07960250310491
 30
0.0
 10
42.71673119098458
 20
-83.08733235345873
 30
0.0
 10
45.20208782964091
 20
-83.09325918059533
 30
0.0
 10
47.72654733446034
 20
-83.09769758193433
 30
0.0
 10
50.25100683927946
 20
-83.10213598327334
 30
0.0
 10
52.81456921026199
 20
-83.10508595881478
 30
0.0
 10
55.3081913194072
 20
-83.10686210597831
 30
0.0
 10
57.80181342855208
 20
-83.10863825314183
 30
0.0
 10
60.22549527585964
 20
-83.1092405719268
 30
0.0
 10
62.47019373332908
 20
-83.10898365975353
 30
0.0
 10
64.71489219079854
 20
-83.10872674758025
 30
0.0
 10
66.7806072584299
 20
-83.10761060444872
 30
0.0
 10
68.5582958082224
 20
-83.10594982777732
 30
0.0
 10
70.33598435801554
 20
-83.10428905110658
 30
0.0
 10
71.82564638996918
 20
-83.10208364089658
 30
0.0
 10
72.91823877608384
 20
-83.09964819456766
 30
0.0
  0
SPLINE
  5
46
330
1F
100
AcDbEntity
  8
LAYER_5
 62
   250
100
AcDbSpline
210
0.0
220
0.0
230
1.0
 70
     8
 71
     3
 72
   101
 73
    97
 74
     0
 42
0.0000000001
 43
0.0000000001
 12
1.0
 22
0.0
 32
0.0
 13
1.0
 23
0.0
 33
0.0
 40
0.0
 40
0.0
 40
0.0
 40
0.0
 40
1.0
 40
1.0
 40
1.0
 40
2.0
 40
2.0
 40
2.0
 40
3.0
 40
3.0
 40
3.0
 40
4.0
 40
4.0
 40
4.0
 40
5.0
 40
5.0
 40
5.0
 40
6.0
 40
6.0
 40
6.0
 40
7.0
 40
7.0
 40
7.0
 40
8.0
 40
8.0
 40
8.0
 40
9.0
 40
9.0
 40
9.0
 40
10.0
 40
10.0
 40
10.0
 40
11.0
 40
11.0
 40
11.0
 40
12.0
 40
12.0
 40
12.0
 40
13.0
 40
13.0
 40
13.0
 40
14.0
 40
14.0
 40
14.0
 40
15.0
 40
15.0
 40
15.0
 40
16.0
 40
16.0
 40
16.0
 40
17.0
 40
17.0
 40
17.0
 40
18.0
 40
18.0
 40
18.0
 40
19.0
 40
19.0
 40
19.0
 40
20.0
 40
20.0
 40
20.0
 40
21.0
 40
21.0
 40
21.0
 40
22.0
 40
22.0
 40
22.0
 40
23.0
 40
23.0
 40
23.0
 40
24.0
 40
24.0
 40
24.0
 40
25.0
 40
25.0
 40
25.0
 40
26.0
 40
26.0
 40
26.0
 40
27.0
 40
27.0
 40
27.0
 40
28.0
 40
28.0
 40
28.0
 40
29.0
 40
29.0
 40
29.0
 40
30.0
 40
30.0
 40
30.0
 40
31.0
 40
31.0
 40
31.0
 40
32.0
 40
32.0
 40
32.0
 40
32.0
 10
-13.60078803663337
 20
-68.5666056966157
 30
0.0
 10
-13.60078803663337
 20
-68.5666056966157
 30
0.0
 10
-13.50304564501077
 20
-68.5654535577821
 30
0.0
 10
-13.32963636418929
 20
-68.56338169602158
 30
0.0
 10
-13.1562270833675
 20
-68.5613098342617
 30
0.0
 10
-12.90715091334682
 20
-68.55831824957554
 30
0.0
 10
-12.60448335654971
 20
-68.55463935787166
 30
0.0
 10
-12.3018157997526
 20
-68.5509604661678
 30
0.0
 10
-11.94555685617969
 20
-68.54659426744558
 30
0.0
 10
-11.55778202825406
 20
-68.5417731776136
 30
0.0
 10
-11.17000720032843
 20
-68.53695208778164
 30
0.0
 10
-10.75071648805009
 20
-68.53167610683862
 30
0.0
 10
-10.3219853938421
 20
-68.52617765069442
 30
0.0
 10
-9.893254299634123
 20
-68.52067919455024
 30
0.0
 10
-9.455082823496824
 20
-68.51495826320358
 30
0.0
 10
-9.029546467853288
 20
-68.50924727256242
 30
0.0
 10
-8.604010112209753
 20
-68.50353628192126
 30
0.0
 10
-8.191108877059659
 20
-68.49783523198622
 30
0.0
 10
-7.81291826482673
 20
-68.49237653866462
 30
0.0
 10
-7.43472765259348
 20
-68.48691784534364
 30
0.0
 10
-7.091247663277394
 20
-68.4817015086361
 30
0.0
 10
-6.804553799301873
 20
-68.47695994444994
 30
0.0
 10
-6.51785993532571
 20
-68.47221838026377
 30
0.0
 10
-6.287952196690112
 20
-68.46795158859962
 30
0.0
 10
-6.136906085818159
 20
-68.46439198536478
 30
0.0
 10
-5.683767465103814
 20
-68.4537131688711
 30
0.0
 10
-5.164728431031222
 20
-68.44939905633693
 30
0.0
 10
-4.594086341723352
 20
-68.457724889247
 30
0.0
 10
-4.023444252415483
 20
-68.46605072215644
 30
0.0
 10
-3.401199107872015
 20
-68.48701650050947
 30
0.0
 10
-2.741648266216241
 20
-68.52689746578955
 30
0.0
 10
-2.082097424560467
 20
-68.56677843106961
 30
0.0
 10
-1.385240885792387
 20
-68.62557458327673
 30
0.0
 10
-0.6653760080346502
 20
-68.70956116389432
 30
0.0
 10
0.0544888697227659
 20
-68.79354774451257
 30
0.0
 10
0.7973620864698387
 20
-68.90272475354065
 30
0.0
 10
1.548946284083277
 20
-69.04336743246331
 30
0.0
 10
2.300530481696715
 20
-69.1840101113866
 30
0.0
 10
3.060825660176838
 20
-69.35611846020318
 30
0.0
 10
3.815534461400036
 20
-69.56596772039842
 30
0.0
 10
4.570243262623555
 20
-69.77581698059365
 30
0.0
 10
5.319365686590468
 20
-70.02340715216754
 30
0.0
 10
6.048604375177805
 20
-70.31501347660223
 30
0.0
 10
6.777843063765142
 20
-70.60661980103693
 30
0.0
 10
7.487198016973224
 20
-70.94224227833308
 30
0.0
 10
8.162371876678758
 20
-71.32815614997477
 30
0.0
 10
8.837545736384294
 20
-71.71407002161646
 30
0.0
 10
9.478538502587282
 20
-72.15027528760369
 30
0.0
 10
10.07105281716475
 20
-72.6430471894199
 30
0.0
 10
10.75483941550545
 20
-73.21172682164244
 30
0.0
 10
11.38797769234092
 20
-73.76525262337319
 30
0.0
 10
11.9890834242264
 20
-74.29928920530973
 30
0.0
 10
12.59018915611188
 20
-74.83332578724628
 30
0.0
 10
13.15926234304738
 20
-75.34787314938929
 30
0.0
 10
13.7149187615878
 20
-75.83859590243702
 30
0.0
 10
14.27057518012821
 20
-76.32931865548412
 30
0.0
 10
14.81281483027323
 20
-76.79621679943592
 30
0.0
 10
15.36025348857841
 20
-77.23495494498945
 30
0.0
 10
15.90769214688326
 20
-77.67369309054362
 30
0.0
 10
16.46032981334795
 20
-78.08427123770014
 30
0.0
 10
17.03678226452739
 20
-78.46235399715663
 30
0.0
 10
17.61323471570682
 20
-78.84043675661312
 30
0.0
 10
18.21350195160068
 20
-79.18602412837086
 30
0.0
 10
18.85619974876452
 20
-79.49478072312685
 30
0.0
 10
19.49889754592804
 20
-79.80353731788219
 30
0.0
 10
20.18402590436121
 20
-80.07546313563707
 30
0.0
 10
20.93020060061864
 20
-80.30622278708843
 30
0.0
 10
21.67637529687606
 20
-80.53698243853981
 30
0.0
 10
22.48359633095805
 20
-80.72657592368769
 30
0.0
 10
23.37047947941921
 20
-80.870667853231
 30
0.0
 10
24.25736262788036
 20
-81.01475978277429
 30
0.0
 10
25.22390789072067
 20
-81.11335015671236
 30
0.0
 10
26.28873104449538
 20
-81.16210358574348
 30
0.0
 10
26.70008028921631
 20
-81.18093740442826
 30
0.0
 10
27.48026478734672
 20
-81.19763956970019
 30
0.0
 10
28.55473774610115
 20
-81.21242515452134
 30
0.0
 10
29.62921070485591
 20
-81.2272107393425
 30
0.0
 10
30.99797212423437
 20
-81.24007974371418
 30
0.0
 10
32.58647521145142
 20
-81.2512472405985
 30
0.0
 10
34.17497829866847
 20
-81.26241473748283
 30
0.0
 10
35.9832230537241
 20
-81.27188072688043
 30
0.0
 10
37.93666268383256
 20
-81.27986028175407
 30
0.0
 10
39.89010231394101
 20
-81.28783983662773
 30
0.0
 10
41.9887368191026
 20
-81.29433295697741
 30
0.0
 10
44.15801940653156
 20
-81.29955471576655
 30
0.0
 10
46.32730199396052
 20
-81.30477647455568
 30
0.0
 10
48.56723266365653
 20
-81.30872687178424
 30
0.0
 10
50.80326462283478
 20
-81.31162098041503
 30
0.0
 10
53.03929658201272
 20
-81.31451508904581
 30
0.0
 10
55.27142983067289
 20
-81.31635290907879
 30
0.0
 10
57.42511757602924
 20
-81.31734951347737
 30
0.0
 10
59.57880532138557
 20
-81.31834611787596
 30
0.0
 10
61.65404756343807
 20
-81.3185015066395
 30
0.0
 10
63.5762975094016
 20
-81.31803075273206
 30
0.0
 10
65.49854745536513
 20
-81.3175599988246
 30
0.0
 10
67.26780510523905
 20
-81.31646310224552
 30
0.0
 10
68.80952366623823
 20
-81.3149551359582
 30
0.0
  0
SPLINE
  5
47
330
1F
100
AcDbEntity
  8
LAYER_5
 62
   250
100
AcDbSpline
210
0.0
220
0.0
230
1.0
 70
     8
 71
     3
 72
   101
 73
    97
 74
     0
 42
0.0000000001
 43
0.0000000001
 12
1.0
 22
0.0
 32
0.0
 13
1.0
 23
0.0
 33
0.0
 40
0.0
 40
0.0
 40
0.0
 40
0.0
 40
1.0
 40
1.0
 40
1.0
 40
2.0
 40
2.0
 40
2.0
 40
3.0
 40
3.0
 40
3.0
 40
4.0
 40
4.0
 40
4.0
 40
5.0
 40
5.0
 40
5.0
 40
6.0
 40
6.0
 40
6.0
 40
7.0
 40
7.0
 40
7.0
 40
8.0
 40
8.0
 40
8.0
 40
9.0
 40
9.0
 40
9.0
 40
10.0
 40
10.0
 40
10.0
 40
11.0
 40
11.0
 40
11.0
 40
12.0
 40
12.0
 40
12.0
 40
13.0
 40
13.0
 40
13.0
 40
14.0
 40
14.0
 40
14.0
 40
15.0
 40
15.0
 40
15.0
 40
16.0
 40
16.0
 40
16.0
 40
17.0
 40
17.0
 40
17.0
 40
18.0
 40
18.0
 40
18.0
 40
19.0
 40
19.0
 40
19.0
 40
20.0
 40
20.0
 40
20.0
 40
21.0
 40
21.0
 40
21.0
 40
22.0
 40
22.0
 40
22.0
 40
23.0
 40
23.0
 40
23.0
 40
24.0
 40
24.0
 40
24.0
 40
25.0
 40
25.0
 40
25.0
 40
26.0
 40
26.0
 40
26.0
 40
27.0
 40
27.0
 40
27.0
 40
28.0
 40
28.0
 40
28.0
 40
29.0
 40
29.0
 40
29.0
 40
30.0
 40
30.0
 40
30.0
 40
31.0
 40
31.0
 40
31.0
 40
32.0
 40
32.0
 40
32.0
 40
32.0
 10
-13.60078803663337
 20
-66.77585118962645
 30
0.0
 10
-13.60078803663337
 20
-66.77585118962645
 30
0.0
 10
-13.50304564501077
 20
-66.77469905079221
 30
0.0
 10
-13.32963636418929
 20
-66.77262718903233
 30
0.0
 10
-13.1562270833675
 20
-66.77055532727246
 30
0.0
 10
-12.90715091334682
 20
-66.76756374258693
 30
0.0
 10
-12.60448335654971
 20
-66.76388485088242
 30
0.0
 10
-12.3018157997526
 20
-66.76020595917855
 30
0.0
 10
-11.94555685617969
 20
-66.75583976045634
 30
0.0
 10
-11.55778202825406
 20
-66.75101867062436
 30
0.0
 10
-11.17000720032843
 20
-66.74619758079174
 30
0.0
 10
-10.75071648805009
 20
-66.74092159985001
 30
0.0
 10
-10.3219853938421
 20
-66.73542314370518
 30
0.0
 10
-9.893254299634123
 20
-66.72992468756034
 30
0.0
 10
-9.455082823496824
 20
-66.7242037562137
 30
0.0
 10
-9.029546467853288
 20
-66.71849276557317
 30
0.0
 10
-8.604010112209753
 20
-66.71278177493201
 30
0.0
 10
-8.191108877059659
 20
-66.70708072499697
 30
0.0
 10
-7.81291826482673
 20
-66.70162203167537
 30
0.0
 10
-7.43472765259348
 20
-66.69616333835376
 30
0.0
 10
-7.091247663277394
 20
-66.69094700164622
 30
0.0
 10
-6.804553799301873
 20
-66.6862054374607
 30
0.0
 10
-6.51785993532571
 20
-66.68146387327452
 30
0.0
 10
-6.287952196690112
 20
-66.67719708161037
 30
0.0
 10
-6.136906085818159
 20
-66.67363747837554
 30
0.0
 10
-5.683767465103814
 20
-66.66295866188186
 30
0.0
 10
-5.164728431031222
 20
-66.65864454934832
 30
0.0
 10
-4.594086341723352
 20
-66.66697038225776
 30
0.0
 10
-4.023444252415483
 20
-66.6752962151672
 30
0.0
 10
-3.401199107872015
 20
-66.69626199352022
 30
0.0
 10
-2.741648266216241
 20
-66.73614295880029
 30
0.0
 10
-2.082097424560467
 20
-66.77602392408036
 30
0.0
 10
-1.385240885792387
 20
-66.83482007628749
 30
0.0
 10
-0.6653760080346502
 20
-66.91880665690508
 30
0.0
 10
0.0544888697227659
 20
-67.00279323752332
 30
0.0
 10
0.7973620864698387
 20
-67.11197024655141
 30
0.0
 10
1.548946284083277
 20
-67.25261292547471
 30
0.0
 10
2.300530481696715
 20
-67.39325560439735
 30
0.0
 10
3.060825660176838
 20
-67.56536395321457
 30
0.0
 10
3.815534461400036
 20
-67.77521321340981
 30
0.0
 10
4.570243262623555
 20
-67.9850624736044
 30
0.0
 10
5.319365686590468
 20
-68.23265264517765
 30
0.0
 10
6.048604375177805
 20
-68.52425896961235
 30
0.0
 10
6.777843063765142
 20
-68.81586529404704
 30
0.0
 10
7.487198016973224
 20
-69.15148777134384
 30
0.0
 10
8.162371876678758
 20
-69.53740164298617
 30
0.0
 10
8.837545736384294
 20
-69.92331551462786
 30
0.0
 10
9.478538502587282
 20
-70.35952078061509
 30
0.0
 10
10.07105281716475
 20
-70.85229268243066
 30
0.0
 10
10.75483941550545
 20
-71.4209723146532
 30
0.0
 10
11.38797769234092
 20
-71.97449811638458
 30
0.0
 10
11.9890834242264
 20
-72.50853469832113
 30
0.0
 10
12.59018915611188
 20
-73.04257128025768
 30
0.0
 10
13.15926234304738
 20
-73.55711864240068
 30
0.0
 10
13.7149187615878
 20
-74.04784139544778
 30
0.0
 10
14.27057518012821
 20
-74.53856414849487
 30
0.0
 10
14.81281483027323
 20
-75.00546229244668
 30
0.0
 10
15.36025348857841
 20
-75.44420043800085
 30
0.0
 10
15.90769214688326
 20
-75.88293858355438
 30
0.0
 10
16.46032981334795
 20
-76.29351673071025
 30
0.0
 10
17.03678226452739
 20
-76.67159949016738
 30
0.0
 10
17.61323471570682
 20
-77.04968224962451
 30
0.0
 10
18.21350195160068
 20
-77.39526962138162
 30
0.0
 10
18.85619974876452
 20
-77.70402621613759
 30
0.0
 10
19.49889754592804
 20
-78.01278281089358
 30
0.0
 10
20.18402590436121
 20
-78.28470862864846
 30
0.0
 10
20.93020060061864
 20
-78.51546828009982
 30
0.0
 10
21.67637529687606
 20
-78.7462279315512
 30
0.0
 10
22.48359633095805
 20
-78.93582141669908
 30
0.0
 10
23.37047947941921
 20
-79.07991334624239
 30
0.0
 10
24.25736262788036
 20
-79.22400527578569
 30
0.0
 10
25.22390789072067
 20
-79.32259564972311
 30
0.0
 10
26.28873104449538
 20
-79.37134907875422
 30
0.0
 10
26.66693349089386
 20
-79.38866525568417
 30
0.0
 10
27.35692414350363
 20
-79.4041794779798
 30
0.0
 10
28.30076415482073
 20
-79.41805890346598
 30
0.0
 10
29.24460416613783
 20
-79.43193832895152
 30
0.0
 10
30.44229353616164
 20
-79.44418295762698
 30
0.0
 10
31.8358934173879
 20
-79.45495994731532
 30
0.0
 10
33.22949329861416
 20
-79.46573693700302
 30
0.0
 10
34.81900369104287
 20
-79.47504628770425
 30
0.0
 10
36.54648574716882
 20
-79.48305515724131
 30
0.0
 10
38.27396780329478
 20
-79.49106402677837
 30
0.0
 10
40.13942152311861
 20
-79.49777241515129
 30
0.0
 10
42.08490805913512
 20
-79.50334748018301
 30
0.0
 10
44.03039459515163
 20
-79.50892254521473
 30
0.0
 10
46.05591394736081
 20
-79.51336428690655
 30
0.0
 10
48.1035272682584
 20
-79.51683986308076
 30
0.0
 10
50.15114058915568
 20
-79.52031543925435
 30
0.0
 10
52.22084787874106
 20
-79.52282484991098
 30
0.0
 10
54.25471028950997
 20
-79.52453525287298
 30
0.0
 10
56.28857270027888
 20
-79.52624565583564
 30
0.0
 10
58.28659023223131
 20
-79.52715705110302
 30
0.0
 10
60.19082403786207
 20
-79.52743659650001
 30
0.0
 10
62.09505784349314
 20
-79.527716141897
 30
0.0
 10
63.90550792280286
 20
-79.52736383742234
 30
0.0
 10
65.56423542828632
 20
-79.52654684090025
 30
0.0
  0
SPLINE
  5
48
330
1F
100
AcDbEntity
  8
LAYER_5
 62
   250
100
AcDbSpline
210
0.0
220
0.0
230
1.0
 70
     8
 71
     3
 72
   101
 73
    97
 74
     0
 42
0.0000000001
 43
0.0000000001
 12
1.0
 22
0.0
 32
0.0
 13
1.0
 23
0.0
 33
0.0
 40
0.0
 40
0.0
 40
0.0
 40
0.0
 40
1.0
 40
1.0
 40
1.0
 40
2.0
 40
2.0
 40
2.0
 40
3.0
 40
3.0
 40
3.0
 40
4.0
 40
4.0
 40
4.0
 40
5.0
 40
5.0
 40
5.0
 40
6.0
 40
6.0
 40
6.0
 40
7.0
 40
7.0
 40
7.0
 40
8.0
 40
8.0
 40
8.0
 40
9.0
 40
9.0
 40
9.0
 40
10.0
 40
10.0
 40
10.0
 40
11.0
 40
11.0
 40
11.0
 40
12.0
 40
12.0
 40
12.0
 40
13.0
 40
13.0
 40
13.0
 40
14.0
 40
14.0
 40
14.0
 40
15.0
 40
15.0
 40
15.0
 40
16.0
 40
16.0
 40
16.0
 40
17.0
 40
17.0
 40
17.0
 40
18.0
 40
18.0
 40
18.0
 40
19.0
 40
19.0
 40
19.0
 40
20.0
 40
20.0
 40
20.0
 40
21.0
 40
21.0
 40
21.0
 40
22.0
 40
22.0
 40
22.0
 40
23.0
 40
23.0
 40
23.0
 40
24.0
 40
24.0
 40
24.0
 40
25.0
 40
25.0
 40
25.0
 40
26.0
 40
26.0
 40
26.0
 40
27.0
 40
27.0
 40
27.0
 40
28.0
 40
28.0
 40
28.0
 40
29.0
 40
29.0
 40
29.0
 40
30.0
 40
30.0
 40
30.0
 40
31.0
 40
31.0
 40
31.0
 40
32.0
 40
32.0
 40
32.0
 40
32.0
 10
-13.60078803663337
 20
-64.98509668263719
 30
0.0
 10
-13.60078803663337
 20
-64.98509668263719
 30
0.0
 10
-13.50304564501077
 20
-64.9839445438036
 30
0.0
 10
-13.32963636418929
 20
-64.98187268204309
 30
0.0
 10
-13.1562270833675
 20
-64.97980082028322
 30
0.0
 10
-12.90715091334682
 20
-64.97680923559705
 30
0.0
 10
-12.60448335654971
 20
-64.97313034389317
 30
0.0
 10
-12.3018157997526
 20
-64.9694514521893
 30
0.0
 10
-11.94555685617969
 20
-64.9650852534671
 30
0.0
 10
-11.55778202825406
 20
-64.96026416363512
 30
0.0
 10
-11.17000720032843
 20
-64.95544307380314
 30
0.0
 10
-10.75071648805009
 20
-64.95016709286013
 30
0.0
 10
-10.3219853938421
 20
-64.94466863671593
 30
0.0
 10
-9.893254299634123
 20
-64.93917018057174
 30
0.0
 10
-9.455082823496824
 20
-64.93344924922509
 30
0.0
 10
-9.029546467853288
 20
-64.92773825858393
 30
0.0
 10
-8.604010112209753
 20
-64.92202726794277
 30
0.0
 10
-8.191108877059659
 20
-64.91632621800773
 30
0.0
 10
-7.81291826482673
 20
-64.91086752468611
 30
0.0
 10
-7.43472765259348
 20
-64.90540883136515
 30
0.0
 10
-7.091247663277394
 20
-64.90019249465762
 30
0.0
 10
-6.804553799301873
 20
-64.89545093047144
 30
0.0
 10
-6.51785993532571
 20
-64.89070936628528
 30
0.0
 10
-6.287952196690112
 20
-64.88644257462113
 30
0.0
 10
-6.136906085818159
 20
-64.8828829713863
 30
0.0
 10
-5.683767465103814
 20
-64.87220415489261
 30
0.0
 10
-5.164728431031222
 20
-64.86789004235844
 30
0.0
 10
-4.594086341723352
 20
-64.87621587526851
 30
0.0
 10
-4.023444252415483
 20
-64.88454170817795
 30
0.0
 10
-3.401199107872015
 20
-64.90550748653098
 30
0.0
 10
-2.741648266216241
 20
-64.94538845181104
 30
0.0
 10
-2.082097424560467
 20
-64.98526941709112
 30
0.0
 10
-1.385240885792387
 20
-65.04406556929824
 30
0.0
 10
-0.6653760080346502
 20
-65.12805214991583
 30
0.0
 10
0.0544888697227659
 20
-65.21203873053408
 30
0.0
 10
0.7973620864698387
 20
-65.32121573956216
 30
0.0
 10
1.548946284083277
 20
-65.46185841848481
 30
0.0
 10
2.300530481696715
 20
-65.60250109740811
 30
0.0
 10
3.060825660176838
 20
-65.77460944622469
 30
0.0
 10
3.815534461400036
 20
-65.98445870641991
 30
0.0
 10
4.570243262623555
 20
-66.19430796661516
 30
0.0
 10
5.319365686590468
 20
-66.44189813818905
 30
0.0
 10
6.048604375177805
 20
-66.73350446262374
 30
0.0
 10
6.777843063765142
 20
-67.02511078705844
 30
0.0
 10
7.487198016973224
 20
-67.3607332643546
 30
0.0
 10
8.162371876678758
 20
-67.74664713599628
 30
0.0
 10
8.837545736384294
 20
-68.13256100763797
 30
0.0
 10
9.478538502587282
 20
-68.5687662736252
 30
0.0
 10
10.07105281716475
 20
-69.06153817544141
 30
0.0
 10
10.75483941550545
 20
-69.63021780766395
 30
0.0
 10
11.38797769234092
 20
-70.18374360939468
 30
0.0
 10
11.9890834242264
 20
-70.71778019133123
 30
0.0
 10
12.59018915611188
 20
-71.25181677326779
 30
0.0
 10
13.15926234304738
 20
-71.7663641354108
 30
0.0
 10
13.7149187615878
 20
-72.25708688845853
 30
0.0
 10
14.27057518012821
 20
-72.74780964150563
 30
0.0
 10
14.81281483027323
 20
-73.21470778545743
 30
0.0
 10
15.36025348857841
 20
-73.65344593101096
 30
0.0
 10
15.90769214688326
 20
-74.09218407656513
 30
0.0
 10
16.46032981334795
 20
-74.50276222372165
 30
0.0
 10
17.03678226452739
 20
-74.88084498317814
 30
0.0
 10
17.61323471570682
 20
-75.25892774263461
 30
0.0
 10
18.21350195160068
 20
-75.60451511439237
 30
0.0
 10
18.85619974876452
 20
-75.91327170914835
 30
0.0
 10
19.49889754592804
 20
-76.2220283039037
 30
0.0
 10
20.18402590436121
 20
-76.49395412165856
 30
0.0
 10
20.93020060061864
 20
-76.72471377310994
 30
0.0
 10
21.67637529687606
 20
-76.95547342456132
 30
0.0
 10
22.48359633095805
 20
-77.1450669097092
 30
0.0
 10
23.37047947941921
 20
-77.2891588392525
 30
0.0
 10
24.25736262788036
 20
-77.4332507687958
 30
0.0
 10
25.22390789072067
 20
-77.53184114273387
 30
0.0
 10
26.28873104449538
 20
-77.58059457176498
 30
0.0
 10
26.640864195548
 20
-77.59671715374321
 30
0.0
 10
27.26328414993741
 20
-77.61127763507815
 30
0.0
 10
28.10922626825756
 20
-77.62441093518231
 30
0.0
 10
28.95516838657772
 20
-77.63754423528647
 30
0.0
 10
30.02463266882862
 20
-77.64925035415983
 30
0.0
 10
31.27085447560553
 20
-77.65966421121686
 30
0.0
 10
32.51707628238212
 20
-77.6700780682739
 30
0.0
 10
33.94005561368439
 20
-77.67919966351394
 30
0.0
 10
35.49302783010631
 20
-77.6871639163508
 30
0.0
 10
37.04600004652823
 20
-77.69512816918765
 30
0.0
 10
38.72896514807044
 20
-77.70193507962132
 30
0.0
 10
40.4951584953269
 20
-77.70771956706497
 30
0.0
 10
42.26135184258305
 20
-77.7135040545086
 30
0.0
 10
44.1107734355541
 20
-77.71826611896286
 30
0.0
 10
45.99665863483369
 20
-77.72214067984089
 30
0.0
 10
47.88254383411361
 20
-77.72601524071828
 30
0.0
 10
49.80489263970208
 20
-77.72900229802072
 30
0.0
 10
51.71694041219433
 20
-77.73123677115944
 30
0.0
 10
53.62898818468627
 20
-77.73347124429883
 30
0.0
 10
55.53073492408169
 20
-77.73495313327577
 30
0.0
 10
57.37541599097487
 20
-77.7358173575028
 30
0.0
 10
59.22009705786805
 20
-77.73668158173047
 30
0.0
 10
61.007712452259
 20
-77.73692814120886
 30
0.0
 10
62.69149753474233
 20
-77.73669195535179
 30
0.0
  0
SPLINE
  5
49
330
1F
100
AcDbEntity
  8
LAYER_5
 62
   250
100
AcDbSpline
210
0.0
220
0.0
230
1.0
 70
     8
 71
     3
 72
   101
 73
    97
 74
     0
 42
0.0000000001
 43
0.0000000001
 12
1.0
 22
0.0
 32
0.0
 13
1.0
 23
0.0
 33
0.0
 40
0.0
 40
0.0
 40
0.0
 40
0.0
 40
1.0
 40
1.0
 40
1.0
 40
2.0
 40
2.0
 40
2.0
 40
3.0
 40
3.0
 40
3.0
 40
4.0
 40
4.0
 40
4.0
 40
5.0
 40
5.0
 40
5.0
 40
6.0
 40
6.0
 40
6.0
 40
7.0
 40
7.0
 40
7.0
 40
8.0
 40
8.0
 40
8.0
 40
9.0
 40
9.0
 40
9.0
 40
10.0
 40
10.0
 40
10.0
 40
11.0
 40
11.0
 40
11.0
 40
12.0
 40
12.0
 40
12.0
 40
13.0
 40
13.0
 40
13.0
 40
14.0
 40
14.0
 40
14.0
 40
15.0
 40
15.0
 40
15.0
 40
16.0
 40
16.0
 40
16.0
 40
17.0
 40
17.0
 40
17.0
 40
18.0
 40
18.0
 40
18.0
 40
19.0
 40
19.0
 40
19.0
 40
20.0
 40
20.0
 40
20.0
 40
21.0
 40
21.0
 40
21.0
 40
22.0
 40
22.0
 40
22.0
 40
23.0
 40
23.0
 40
23.0
 40
24.0
 40
24.0
 40
24.0
 40
25.0
 40
25.0
 40
25.0
 40
26.0
 40
26.0
 40
26.0
 40
27.0
 40
27.0
 40
27.0
 40
28.0
 40
28.0
 40
28.0
 40
29.0
 40
29.0
 40
29.0
 40
30.0
 40
30.0
 40
30.0
 40
31.0
 40
31.0
 40
31.0
 40
32.0
 40
32.0
 40
32.0
 40
32.0
 10
-13.60078803663337
 20
-63.19434217564795
 30
0.0
 10
-13.60078803663337
 20
-63.19434217564795
 30
0.0
 10
-13.50304564501077
 20
-63.19319003681404
 30
0.0
 10
-13.32963636418929
 20
-63.19111817505416
 30
0.0
 10
-13.1562270833675
 20
-63.18904631329396
 30
0.0
 10
-12.90715091334682
 20
-63.18605472860812
 30
0.0
 10
-12.60448335654971
 20
-63.18237583690393
 30
0.0
 10
-12.3018157997526
 20
-63.17869694520006
 30
0.0
 10
-11.94555685617969
 20
-63.17433074647784
 30
0.0
 10
-11.55778202825406
 20
-63.16950965664587
 30
0.0
 10
-11.17000720032843
 20
-63.16468856681357
 30
0.0
 10
-10.75071648805009
 20
-63.1594125858712
 30
0.0
 10
-10.3219853938421
 20
-63.15391412972669
 30
0.0
 10
-9.893254299634123
 20
-63.14841567358217
 30
0.0
 10
-9.455082823496824
 20
-63.14269474223553
 30
0.0
 10
-9.029546467853288
 20
-63.13698375159468
 30
0.0
 10
-8.604010112209753
 20
-63.13127276095383
 30
0.0
 10
-8.191108877059659
 20
-63.12557171101848
 30
0.0
 10
-7.81291826482673
 20
-63.12011301769719
 30
0.0
 10
-7.43472765259348
 20
-63.11465432437591
 30
0.0
 10
-7.091247663277394
 20
-63.10943798766804
 30
0.0
 10
-6.804553799301873
 20
-63.1046964234822
 30
0.0
 10
-6.51785993532571
 20
-63.09995485929603
 30
0.0
 10
-6.287952196690112
 20
-63.09568806763188
 30
0.0
 10
-6.136906085818159
 20
-63.09212846439704
 30
0.0
 10
-5.683767465103814
 20
-63.08144964790336
 30
0.0
 10
-5.164728431031222
 20
-63.07713553536983
 30
0.0
 10
-4.594086341723352
 20
-63.08546136827926
 30
0.0
 10
-4.023444252415483
 20
-63.09378720118902
 30
0.0
 10
-3.401199107872015
 20
-63.11475297954173
 30
0.0
 10
-2.741648266216241
 20
-63.1546339448218
 30
0.0
 10
-2.082097424560467
 20
-63.19451491010187
 30
0.0
 10
-1.385240885792387
 20
-63.25331106230899
 30
0.0
 10
-0.6653760080346502
 20
-63.33729764292691
 30
0.0
 10
0.0544888697227659
 20
-63.4212842235445
 30
0.0
 10
0.7973620864698387
 20
-63.53046123257291
 30
0.0
 10
1.548946284083277
 20
-63.67110391149588
 30
0.0
 10
2.300530481696715
 20
-63.81174659041886
 30
0.0
 10
3.060825660176838
 20
-63.98385493923608
 30
0.0
 10
3.815534461400036
 20
-64.19370419943067
 30
0.0
 10
4.570243262623555
 20
-64.40355345962591
 30
0.0
 10
5.319365686590468
 20
-64.65114363119915
 30
0.0
 10
6.048604375177805
 20
-64.94274995563384
 30
0.0
 10
6.777843063765142
 20
-65.23435628006855
 30
0.0
 10
7.487198016973224
 20
-65.56997875736535
 30
0.0
 10
8.162371876678758
 20
-65.95589262900768
 30
0.0
 10
8.837545736384294
 20
-66.34180650064937
 30
0.0
 10
9.478538502587282
 20
-66.7780117666366
 30
0.0
 10
10.07105281716475
 20
-67.27078366845215
 30
0.0
 10
10.75483941550545
 20
-67.83946330067471
 30
0.0
 10
11.38797769234092
 20
-68.39298910240608
 30
0.0
 10
11.9890834242264
 20
-68.92702568434262
 30
0.0
 10
12.59018915611188
 20
-69.46106226627919
 30
0.0
 10
13.15926234304738
 20
-69.97560962842219
 30
0.0
 10
13.7149187615878
 20
-70.46633238146929
 30
0.0
 10
14.27057518012821
 20
-70.95705513451638
 30
0.0
 10
14.81281483027323
 20
-71.42395327846819
 30
0.0
 10
15.36025348857841
 20
-71.86269142402236
 30
0.0
 10
15.90769214688326
 20
-72.30142956957587
 30
0.0
 10
16.46032981334795
 20
-72.71200771673175
 30
0.0
 10
17.03678226452739
 20
-73.09009047618888
 30
0.0
 10
17.61323471570682
 20
-73.468173235646
 30
0.0
 10
18.21350195160068
 20
-73.81376060740311
 30
0.0
 10
18.85619974876452
 20
-74.1225172021591
 30
0.0
 10
19.49889754592804
 20
-74.4312737969151
 30
0.0
 10
20.18402590436121
 20
-74.70319961466996
 30
0.0
 10
20.93020060061864
 20
-74.93395926612133
 30
0.0
 10
21.67637529687606
 20
-75.16471891757271
 30
0.0
 10
22.48359633095805
 20
-75.3543124027206
 30
0.0
 10
23.37047947941921
 20
-75.49840433226389
 30
0.0
 10
24.25736262788036
 20
-75.6424962618072
 30
0.0
 10
25.22390789072067
 20
-75.74108663574462
 30
0.0
 10
26.28873104449538
 20
-75.78984006477573
 30
0.0
 10
26.61678803998554
 20
-75.80486030864532
 30
0.0
 10
27.1794351039944
 20
-75.81852475825332
 30
0.0
 10
27.93885892085817
 20
-75.8309425077869
 30
0.0
 10
28.69828273772194
 20
-75.8433602573205
 30
0.0
 10
29.6544833074406
 20
-75.85453130677968
 30
0.0
 10
30.76964731435003
 20
-75.86456475035422
 30
0.0
 10
31.88481132125947
 20
-75.87459819392811
 30
0.0
 10
33.15893876535966
 20
-75.88349403161672
 30
0.0
 10
34.55421633098714
 20
-75.89136135760721
 30
0.0
 10
35.94949389661429
 20
-75.89922868359835
 30
0.0
 10
37.46592158376841
 20
-75.90606749789204
 30
0.0
 10
39.06568607678565
 20
-75.91198689467609
 30
0.0
 10
40.66545056980291
 20
-75.91790629146014
 30
0.0
 10
42.34855186868298
 20
-75.9229062707352
 30
0.0
 10
44.07717665776207
 20
-75.9270959266891
 30
0.0
 10
45.80580144684115
 20
-75.93128558264365
 30
0.0
 10
47.57994972611957
 20
-75.93466491527704
 30
0.0
 10
49.36180817993286
 20
-75.9373430187771
 30
0.0
 10
51.14366663374584
 20
-75.94002112227716
 30
0.0
 10
52.93323526209433
 20
-75.94199799664517
 30
0.0
 10
54.69270074931389
 20
-75.94338273606833
 30
0.0
 10
56.45216623653345
 20
-75.94476747549085
 30
0.0
 10
58.18152858262408
 20
-75.9455600799698
 30
0.0
 10
59.84297447192163
 20
-75.94586964369235
 30
0.0
  0
SPLINE
  5
4A
330
1F
100
AcDbEntity
  8
LAYER_5
 62
   250
100
AcDbSpline
210
0.0
220
0.0
230
1.0
 70
     8
 71
     3
 72
   101
 73
    97
 74
     0
 42
0.0000000001
 43
0.0000000001
 12
1.0
 22
0.0
 32
0.0
 13
1.0
 23
0.0
 33
0.0
 40
0.0
 40
0.0
 40
0.0
 40
0.0
 40
1.0
 40
1.0
 40
1.0
 40
2.0
 40
2.0
 40
2.0
 40
3.0
 40
3.0
 40
3.0
 40
4.0
 40
4.0
 40
4.0
 40
5.0
 40
5.0
 40
5.0
 40
6.0
 40
6.0
 40
6.0
 40
7.0
 40
7.0
 40
7.0
 40
8.0
 40
8.0
 40
8.0
 40
9.0
 40
9.0
 40
9.0
 40
10.0
 40
10.0
 40
10.0
 40
11.0
 40
11.0
 40
11.0
 40
12.0
 40
12.0
 40
12.0
 40
13.0
 40
13.0
 40
13.0
 40
14.0
 40
14.0
 40
14.0
 40
15.0
 40
15.0
 40
15.0
 40
16.0
 40
16.0
 40
16.0
 40
17.0
 40
17.0
 40
17.0
 40
18.0
 40
18.0
 40
18.0
 40
19.0
 40
19.0
 40
19.0
 40
20.0
 40
20.0
 40
20.0
 40
21.0
 40
21.0
 40
21.0
 40
22.0
 40
22.0
 40
22.0
 40
23.0
 40
23.0
 40
23.0
 40
24.0
 40
24.0
 40
24.0
 40
25.0
 40
25.0
 40
25.0
 40
26.0
 40
26.0
 40
26.0
 40
27.0
 40
27.0
 40
27.0
 40
28.0
 40
28.0
 40
28.0
 40
29.0
 40
29.0
 40
29.0
 40
30.0
 40
30.0
 40
30.0
 40
31.0
 40
31.0
 40
31.0
 40
32.0
 40
32.0
 40
32.0
 40
32.0
 10
-13.60078803663337
 20
-61.4035876686587
 30
0.0
 10
-13.60078803663337
 20
-61.4035876686587
 30
0.0
 10
-13.50304564501077
 20
-61.40243552982479
 30
0.0
 10
-13.32963636418929
 20
-61.40036366806491
 30
0.0
 10
-13.1562270833675
 20
-61.39829180630471
 30
0.0
 10
-12.90715091334682
 20
-61.39530022161887
 30
0.0
 10
-12.60448335654971
 20
-61.39162132991468
 30
0.0
 10
-12.3018157997526
 20
-61.38794243821081
 30
0.0
 10
-11.94555685617969
 20
-61.3835762394886
 30
0.0
 10
-11.55778202825406
 20
-61.37875514965662
 30
0.0
 10
-11.17000720032843
 20
-61.37393405982433
 30
0.0
 10
-10.75071648805009
 20
-61.36865807888195
 30
0.0
 10
-10.3219853938421
 20
-61.36315962273744
 30
0.0
 10
-9.893254299634123
 20
-61.35766116659293
 30
0.0
 10
-9.455082823496824
 20
-61.35194023524627
 30
0.0
 10
-9.029546467853288
 20
-61.34622924460543
 30
0.0
 10
-8.604010112209753
 20
-61.34051825396459
 30
0.0
 10
-8.191108877059659
 20
-61.33481720402923
 30
0.0
 10
-7.81291826482673
 20
-61.32935851070794
 30
0.0
 10
-7.43472765259348
 20
-61.32389981738665
 30
0.0
 10
-7.091247663277394
 20
-61.3186834806788
 30
0.0
 10
-6.804553799301873
 20
-61.31394191649295
 30
0.0
 10
-6.51785993532571
 20
-61.30920035230679
 30
0.0
 10
-6.287952196690112
 20
-61.30493356064263
 30
0.0
 10
-6.136906085818159
 20
-61.3013739574078
 30
0.0
 10
-5.683767465103814
 20
-61.29069514091411
 30
0.0
 10
-5.164728431031222
 20
-61.28638102838059
 30
0.0
 10
-4.594086341723352
 20
-61.29470686129002
 30
0.0
 10
-4.023444252415483
 20
-61.30303269419977
 30
0.0
 10
-3.401199107872015
 20
-61.32399847255247
 30
0.0
 10
-2.741648266216241
 20
-61.36387943783255
 30
0.0
 10
-2.082097424560467
 20
-61.40376040311262
 30
0.0
 10
-1.385240885792387
 20
-61.46255655531974
 30
0.0
 10
-0.6653760080346502
 20
-61.54654313593766
 30
0.0
 10
0.0544888697227659
 20
-61.63052971655526
 30
0.0
 10
0.7973620864698387
 20
-61.73970672558367
 30
0.0
 10
1.548946284083277
 20
-61.88034940450664
 30
0.0
 10
2.300530481696715
 20
-62.02099208342961
 30
0.0
 10
3.060825660176838
 20
-62.19310043224652
 30
0.0
 10
3.815534461400036
 20
-62.40294969244174
 30
0.0
 10
4.570243262623555
 20
-62.61279895263698
 30
0.0
 10
5.319365686590468
 20
-62.8603891242099
 30
0.0
 10
6.048604375177805
 20
-63.15199544864493
 30
0.0
 10
6.777843063765142
 20
-63.44360177307994
 30
0.0
 10
7.487198016973224
 20
-63.7792242503761
 30
0.0
 10
8.162371876678758
 20
-64.16513812201778
 30
0.0
 10
8.837545736384294
 20
-64.55105199365947
 30
0.0
 10
9.478538502587282
 20
-64.9872572596467
 30
0.0
 10
10.07105281716475
 20
-65.48002916146291
 30
0.0
 10
10.75483941550545
 20
-66.04870879368545
 30
0.0
 10
11.38797769234092
 20
-66.60223459541619
 30
0.0
 10
11.9890834242264
 20
-67.13627117735274
 30
0.0
 10
12.59018915611188
 20
-67.67030775928929
 30
0.0
 10
13.15926234304738
 20
-68.1848551214323
 30
0.0
 10
13.7149187615878
 20
-68.67557787448004
 30
0.0
 10
14.27057518012821
 20
-69.16630062752712
 30
0.0
 10
14.81281483027323
 20
-69.63319877147894
 30
0.0
 10
15.36025348857841
 20
-70.07193691703246
 30
0.0
 10
15.90769214688326
 20
-70.51067506258663
 30
0.0
 10
16.46032981334795
 20
-70.92125320974314
 30
0.0
 10
17.03678226452739
 20
-71.29933596919963
 30
0.0
 10
17.61323471570682
 20
-71.67741872865612
 30
0.0
 10
18.21350195160068
 20
-72.02300610041387
 30
0.0
 10
18.85619974876452
 20
-72.33176269516986
 30
0.0
 10
19.49889754592804
 20
-72.6405192899252
 30
0.0
 10
20.18402590436121
 20
-72.91244510768007
 30
0.0
 10
20.93020060061864
 20
-73.14320475913145
 30
0.0
 10
21.67637529687606
 20
-73.37396441058281
 30
0.0
 10
22.48359633095805
 20
-73.56355789573071
 30
0.0
 10
23.37047947941921
 20
-73.707649825274
 30
0.0
 10
24.25736262788036
 20
-73.8517417548173
 30
0.0
 10
25.22390789072067
 20
-73.95033212875538
 30
0.0
 10
26.28873104449538
 20
-73.99908555778649
 30
0.0
 10
26.59666251192342
 20
-74.01318434488593
 30
0.0
 10
27.11128383365488
 20
-74.02608858474717
 30
0.0
 10
27.80132276427016
 20
-74.03788850009086
 30
0.0
 10
28.49136169488576
 20
-74.04968841543389
 30
0.0
 10
29.3568182343852
 20
-74.06038400626068
 30
0.0
 10
30.36642013734984
 20
-74.07006549528994
 30
0.0
 10
31.37602204031447
 20
-74.07974698431985
 30
0.0
 10
32.52976930674367
 20
-74.08841437155353
 30
0.0
 10
33.79638969121882
 20
-74.09615787971097
 30
0.0
 10
35.06301007569397
 20
-74.10390138786843
 30
0.0
 10
36.44250357821441
 20
-74.11072101695098
 30
0.0
 10
37.90359795336185
 20
-74.1167069896786
 30
0.0
 10
39.36469232850929
 20
-74.12269296240623
 30
0.0
 10
40.90738757628309
 20
-74.12784527877962
 30
0.0
 10
42.50041145126399
 20
-74.1322541615194
 30
0.0
 10
44.0934353262452
 20
-74.13666304425918
 30
0.0
 10
45.7367878284335
 20
-74.14032849336601
 30
0.0
 10
47.39919671240996
 20
-74.14334073155929
 30
0.0
 10
49.06160559638641
 20
-74.14635296975256
 30
0.0
 10
50.74307086215101
 20
-74.1487119970342
 30
0.0
 10
52.4123202642845
 20
-74.15050803612357
 30
0.0
 10
54.08156966641799
 20
-74.15230407521295
 30
0.0
 10
55.73860320492037
 20
-74.15353712611136
 30
0.0
 10
57.35214863437204
 20
-74.15429741153818
 30
0.0
  0
SPLINE
  5
4B
330
1F
100
AcDbEntity
  8
LAYER_5
 62
   250
100
AcDbSpline
210
0.0
220
0.0
230
1.0
 70
     8
 71
     3
 72
   101
 73
    97
 74
     0
 42
0.0000000001
 43
0.0000000001
 12
1.0
 22
0.0
 32
0.0
 13
1.0
 23
0.0
 33
0.0
 40
0.0
 40
0.0
 40
0.0
 40
0.0
 40
1.0
 40
1.0
 40
1.0
 40
2.0
 40
2.0
 40
2.0
 40
3.0
 40
3.0
 40
3.0
 40
4.0
 40
4.0
 40
4.0
 40
5.0
 40
5.0
 40
5.0
 40
6.0
 40
6.0
 40
6.0
 40
7.0
 40
7.0
 40
7.0
 40
8.0
 40
8.0
 40
8.0
 40
9.0
 40
9.0
 40
9.0
 40
10.0
 40
10.0
 40
10.0
 40
11.0
 40
11.0
 40
11.0
 40
12.0
 40
12.0
 40
12.0
 40
13.0
 40
13.0
 40
13.0
 40
14.0
 40
14.0
 40
14.0
 40
15.0
 40
15.0
 40
15.0
 40
16.0
 40
16.0
 40
16.0
 40
17.0
 40
17.0
 40
17.0
 40
18.0
 40
18.0
 40
18.0
 40
19.0
 40
19.0
 40
19.0
 40
20.0
 40
20.0
 40
20.0
 40
21.0
 40
21.0
 40
21.0
 40
22.0
 40
22.0
 40
22.0
 40
23.0
 40
23.0
 40
23.0
 40
24.0
 40
24.0
 40
24.0
 40
25.0
 40
25.0
 40
25.0
 40
26.0
 40
26.0
 40
26.0
 40
27.0
 40
27.0
 40
27.0
 40
28.0
 40
28.0
 40
28.0
 40
29.0
 40
29.0
 40
29.0
 40
30.0
 40
30.0
 40
30.0
 40
31.0
 40
31.0
 40
31.0
 40
32.0
 40
32.0
 40
32.0
 40
32.0
 10
-13.60078803663337
 20
-59.61283316166946
 30
0.0
 10
-13.60078803663337
 20
-59.61283316166946
 30
0.0
 10
-13.50304564501077
 20
-59.61168102283555
 30
0.0
 10
-13.32963636418929
 20
-59.60960916107567
 30
0.0
 10
-13.1562270833675
 20
-59.60753729931547
 30
0.0
 10
-12.90715091334682
 20
-59.60454571462962
 30
0.0
 10
-12.60448335654971
 20
-59.60086682292543
 30
0.0
 10
-12.3018157997526
 20
-59.59718793122156
 30
0.0
 10
-11.94555685617969
 20
-59.59282173249935
 30
0.0
 10
-11.55778202825406
 20
-59.58800064266737
 30
0.0
 10
-11.17000720032843
 20
-59.58317955283508
 30
0.0
 10
-10.75071648805009
 20
-59.5779035718927
 30
0.0
 10
-10.3219853938421
 20
-59.57240511574819
 30
0.0
 10
-9.893254299634123
 20
-59.56690665960368
 30
0.0
 10
-9.455082823496824
 20
-59.56118572825703
 30
0.0
 10
-9.029546467853288
 20
-59.55547473761619
 30
0.0
 10
-8.604010112209753
 20
-59.54976374697534
 30
0.0
 10
-8.191108877059659
 20
-59.54406269703998
 30
0.0
 10
-7.81291826482673
 20
-59.5386040037187
 30
0.0
 10
-7.43472765259348
 20
-59.53314531039741
 30
0.0
 10
-7.091247663277394
 20
-59.52792897368955
 30
0.0
 10
-6.804553799301873
 20
-59.52318740950371
 30
0.0
 10
-6.51785993532571
 20
-59.51844584531754
 30
0.0
 10
-6.287952196690112
 20
-59.51417905365339
 30
0.0
 10
-6.136906085818159
 20
-59.51061945041855
 30
0.0
 10
-5.683767465103814
 20
-59.49994063392487
 30
0.0
 10
-5.164728431031222
 20
-59.49562652139134
 30
0.0
 10
-4.594086341723352
 20
-59.50395235430077
 30
0.0
 10
-4.023444252415483
 20
-59.51227818721052
 30
0.0
 10
-3.401199107872015
 20
-59.53324396556323
 30
0.0
 10
-2.741648266216241
 20
-59.57312493084331
 30
0.0
 10
-2.082097424560467
 20
-59.61300589612338
 30
0.0
 10
-1.385240885792387
 20
-59.67180204833049
 30
0.0
 10
-0.6653760080346502
 20
-59.75578862894841
 30
0.0
 10
0.0544888697227659
 20
-59.83977520956601
 30
0.0
 10
0.7973620864698387
 20
-59.94895221859441
 30
0.0
 10
1.548946284083277
 20
-60.08959489751739
 30
0.0
 10
2.300530481696715
 20
-60.23023757644037
 30
0.0
 10
3.060825660176838
 20
-60.40234592525726
 30
0.0
 10
3.815534461400036
 20
-60.6121951854525
 30
0.0
 10
4.570243262623555
 20
-60.82204444564773
 30
0.0
 10
5.319365686590468
 20
-61.06963461722066
 30
0.0
 10
6.048604375177805
 20
-61.36124094165567
 30
0.0
 10
6.777843063765142
 20
-61.6528472660907
 30
0.0
 10
7.487198016973224
 20
-61.98846974338685
 30
0.0
 10
8.162371876678758
 20
-62.37438361502886
 30
0.0
 10
8.837545736384294
 20
-62.76029748667055
 30
0.0
 10
9.478538502587282
 20
-63.19650275265746
 30
0.0
 10
10.07105281716475
 20
-63.68927465447366
 30
0.0
 10
10.75483941550545
 20
-64.2579542866962
 30
0.0
 10
11.38797769234092
 20
-64.81148008842759
 30
0.0
 10
11.9890834242264
 20
-65.34551667036413
 30
0.0
 10
12.59018915611188
 20
-65.87955325230068
 30
0.0
 10
13.15926234304738
 20
-66.3941006144437
 30
0.0
 10
13.7149187615878
 20
-66.88482336749078
 30
0.0
 10
14.27057518012821
 20
-67.37554612053788
 30
0.0
 10
14.81281483027323
 20
-67.8424442644897
 30
0.0
 10
15.36025348857841
 20
-68.28118241004385
 30
0.0
 10
15.90769214688326
 20
-68.71992055559738
 30
0.0
 10
16.46032981334795
 20
-69.13049870275326
 30
0.0
 10
17.03678226452739
 20
-69.50858146221039
 30
0.0
 10
17.61323471570682
 20
-69.88666422166752
 30
0.0
 10
18.21350195160068
 20
-70.23225159342462
 30
0.0
 10
18.85619974876452
 20
-70.54100818818061
 30
0.0
 10
19.49889754592804
 20
-70.84976478293659
 30
0.0
 10
20.18402590436121
 20
-71.12169060069147
 30
0.0
 10
20.93020060061864
 20
-71.35245025214284
 30
0.0
 10
21.67637529687606
 20
-71.58320990359421
 30
0.0
 10
22.48359633095805
 20
-71.7728033887421
 30
0.0
 10
23.37047947941921
 20
-71.9168953182854
 30
0.0
 10
24.25736262788036
 20
-72.06098724782869
 30
0.0
 10
25.22390789072067
 20
-72.15957762176613
 30
0.0
 10
26.28873104449538
 20
-72.20833105079724
 30
0.0
 10
26.5778811298444
 20
-72.22156992348211
 30
0.0
 10
27.05478922552035
 20
-72.23375552102446
 30
0.0
 10
27.69218522017385
 20
-72.24496254395405
 30
0.0
 10
28.32958121482767
 20
-72.25616956688235
 30
0.0
 10
29.12746510845904
 20
-72.26639801519788
 30
0.0
 10
30.05856678971827
 20
-72.2757225894298
 30
0.0
 10
30.98966847097749
 20
-72.28504716366172
 30
0.0
 10
32.05398793986522
 20
-72.29346786380871
 30
0.0
 10
33.22425508503174
 20
-72.3010593904025
 30
0.0
 10
34.39452223019794
 20
-72.30865091699499
 30
0.0
 10
35.67073705164294
 20
-72.31541327003427
 30
0.0
 10
37.02562943801705
 20
-72.32142115004756
 30
0.0
 10
38.38052182439116
 20
-72.32742903006083
 30
0.0
 10
39.81409177569437
 20
-72.33268243705001
 30
0.0
 10
41.29906918057763
 20
-72.33725607154295
 30
0.0
 10
42.78404658546089
 20
-72.34182970603655
 30
0.0
 10
44.32043144392388
 20
-72.34572356803389
 30
0.0
 10
45.88095364461722
 20
-72.34901235806542
 30
0.0
 10
47.44147584531024
 20
-72.35230114809694
 30
0.0
 10
49.02613538823394
 20
-72.35498486616328
 30
0.0
 10
50.60766216203829
 20
-72.35713821279228
 30
0.0
 10
52.18918893584232
 20
-72.35929155942192
 30
0.0
 10
53.76758294052765
 20
-72.36091453461488
 30
0.0
 10
55.31557406474393
 20
-72.36208183890089
 30
0.0
  0
SPLINE
  5
4C
330
1F
100
AcDbEntity
  8
LAYER_5
 62
   250
100
AcDbSpline
210
0.0
220
0.0
230
1.0
 70
     8
 71
     3
 72
   101
 73
    97
 74
     0
 42
0.0000000001
 43
0.0000000001
 12
1.0
 22
0.0
 32
0.0
 13
1.0
 23
0.0
 33
0.0
 40
0.0
 40
0.0
 40
0.0
 40
0.0
 40
1.0
 40
1.0
 40
1.0
 40
2.0
 40
2.0
 40
2.0
 40
3.0
 40
3.0
 40
3.0
 40
4.0
 40
4.0
 40
4.0
 40
5.0
 40
5.0
 40
5.0
 40
6.0
 40
6.0
 40
6.0
 40
7.0
 40
7.0
 40
7.0
 40
8.0
 40
8.0
 40
8.0
 40
9.0
 40
9.0
 40
9.0
 40
10.0
 40
10.0
 40
10.0
 40
11.0
 40
11.0
 40
11.0
 40
12.0
 40
12.0
 40
12.0
 40
13.0
 40
13.0
 40
13.0
 40
14.0
 40
14.0
 40
14.0
 40
15.0
 40
15.0
 40
15.0
 40
16.0
 40
16.0
 40
16.0
 40
17.0
 40
17.0
 40
17.0
 40
18.0
 40
18.0
 40
18.0
 40
19.0
 40
19.0
 40
19.0
 40
20.0
 40
20.0
 40
20.0
 40
21.0
 40
21.0
 40
21.0
 40
22.0
 40
22.0
 40
22.0
 40
23.0
 40
23.0
 40
23.0
 40
24.0
 40
24.0
 40
24.0
 40
25.0
 40
25.0
 40
25.0
 40
26.0
 40
26.0
 40
26.0
 40
27.0
 40
27.0
 40
27.0
 40
28.0
 40
28.0
 40
28.0
 40
29.0
 40
29.0
 40
29.0
 40
30.0
 40
30.0
 40
30.0
 40
31.0
 40
31.0
 40
31.0
 40
32.0
 40
32.0
 40
32.0
 40
32.0
 10
-13.60078803663337
 20
-57.82207865468021
 30
0.0
 10
-13.60078803663337
 20
-57.82207865468021
 30
0.0
 10
-13.50304564501077
 20
-57.8209265158463
 30
0.0
 10
-13.32963636418929
 20
-57.81885465408642
 30
0.0
 10
-13.1562270833675
 20
-57.81678279232622
 30
0.0
 10
-12.90715091334682
 20
-57.81379120764038
 30
0.0
 10
-12.60448335654971
 20
-57.81011231593619
 30
0.0
 10
-12.3018157997526
 20
-57.80643342423232
 30
0.0
 10
-11.94555685617969
 20
-57.8020672255101
 30
0.0
 10
-11.55778202825406
 20
-57.79724613567813
 30
0.0
 10
-11.17000720032843
 20
-57.79242504584583
 30
0.0
 10
-10.75071648805009
 20
-57.78714906490346
 30
0.0
 10
-10.3219853938421
 20
-57.78165060875894
 30
0.0
 10
-9.893254299634123
 20
-57.77615215261443
 30
0.0
 10
-9.455082823496824
 20
-57.77043122126778
 30
0.0
 10
-9.029546467853288
 20
-57.76472023062693
 30
0.0
 10
-8.604010112209753
 20
-57.75900923998609
 30
0.0
 10
-8.191108877059659
 20
-57.75330819005074
 30
0.0
 10
-7.81291826482673
 20
-57.74784949672945
 30
0.0
 10
-7.43472765259348
 20
-57.74239080340816
 30
0.0
 10
-7.091247663277394
 20
-57.7371744667003
 30
0.0
 10
-6.804553799301873
 20
-57.73243290251446
 30
0.0
 10
-6.51785993532571
 20
-57.72769133832829
 30
0.0
 10
-6.287952196690112
 20
-57.72342454666414
 30
0.0
 10
-6.136906085818159
 20
-57.7198649434293
 30
0.0
 10
-5.683767465103814
 20
-57.70918612693562
 30
0.0
 10
-5.164728431031222
 20
-57.70487201440209
 30
0.0
 10
-4.594086341723352
 20
-57.71319784731152
 30
0.0
 10
-4.023444252415483
 20
-57.72152368022127
 30
0.0
 10
-3.401199107872015
 20
-57.74248945857398
 30
0.0
 10
-2.741648266216241
 20
-57.78237042385405
 30
0.0
 10
-2.082097424560467
 20
-57.82225138913413
 30
0.0
 10
-1.385240885792387
 20
-57.88104754134125
 30
0.0
 10
-0.6653760080346502
 20
-57.96503412195916
 30
0.0
 10
0.0544888697227659
 20
-58.04902070257676
 30
0.0
 10
0.7973620864698387
 20
-58.15819771160517
 30
0.0
 10
1.548946284083277
 20
-58.29884039052814
 30
0.0
 10
2.300530481696715
 20
-58.43948306945111
 30
0.0
 10
3.060825660176838
 20
-58.61159141826802
 30
0.0
 10
3.815534461400036
 20
-58.82144067846325
 30
0.0
 10
4.570243262623555
 20
-59.03128993865849
 30
0.0
 10
5.319365686590468
 20
-59.27888011023141
 30
0.0
 10
6.048604375177805
 20
-59.57048643466643
 30
0.0
 10
6.777843063765142
 20
-59.86209275910145
 30
0.0
 10
7.487198016973224
 20
-60.1977152363976
 30
0.0
 10
8.162371876678758
 20
-60.58362910803961
 30
0.0
 10
8.837545736384294
 20
-60.9695429796813
 30
0.0
 10
9.478538502587282
 20
-61.40574824566821
 30
0.0
 10
10.07105281716475
 20
-61.89852014748442
 30
0.0
 10
10.75483941550545
 20
-62.46719977970696
 30
0.0
 10
11.38797769234092
 20
-63.02072558143769
 30
0.0
 10
11.9890834242264
 20
-63.55476216337425
 30
0.0
 10
12.59018915611188
 20
-64.0887987453108
 30
0.0
 10
13.15926234304738
 20
-64.6033461074538
 30
0.0
 10
13.7149187615878
 20
-65.09406886050154
 30
0.0
 10
14.27057518012821
 20
-65.58479161354863
 30
0.0
 10
14.81281483027323
 20
-66.05168975750045
 30
0.0
 10
15.36025348857841
 20
-66.49042790305397
 30
0.0
 10
15.90769214688326
 20
-66.92916604860814
 30
0.0
 10
16.46032981334795
 20
-67.33974419576465
 30
0.0
 10
17.03678226452739
 20
-67.71782695522114
 30
0.0
 10
17.61323471570682
 20
-68.09590971467763
 30
0.0
 10
18.21350195160068
 20
-68.44149708643538
 30
0.0
 10
18.85619974876452
 20
-68.75025368119137
 30
0.0
 10
19.49889754592804
 20
-69.0590102759467
 30
0.0
 10
20.18402590436121
 20
-69.33093609370158
 30
0.0
 10
20.93020060061864
 20
-69.56169574515295
 30
0.0
 10
21.67637529687606
 20
-69.79245539660432
 30
0.0
 10
22.48359633095805
 20
-69.9820488817522
 30
0.0
 10
23.37047947941921
 20
-70.12614081129551
 30
0.0
 10
24.25736262788036
 20
-70.27023274083881
 30
0.0
 10
25.22390789072067
 20
-70.36882311477687
 30
0.0
 10
26.28873104449538
 20
-70.417576543808
 30
0.0
 10
26.81806061028089
 20
-70.44181214699498
 30
0.0
 10
27.61555794883543
 20
-70.46279422951207
 30
0.0
 10
28.60802291915192
 20
-70.4809120081556
 30
0.0
 10
29.60048788946842
 20
-70.49902978679847
 30
0.0
 10
30.78792049154687
 20
-70.5142832615678
 30
0.0
 10
32.09712058438053
 20
-70.5270616492586
 30
0.0
 10
33.4063206772142
 20
-70.53984003694939
 30
0.0
 10
34.83728826080306
 20
-70.55014333756294
 30
0.0
 10
36.3168231941404
 20
-70.5583607678943
 30
0.0
 10
37.79635812747805
 20
-70.566578198225
 30
0.0
 10
39.32446041056352
 20
-70.57270975827478
 30
0.0
 10
40.82792990239103
 20
-70.57714466483806
 30
0.0
 10
42.33139939421822
 20
-70.58157957140132
 30
0.0
 10
43.81023609478712
 20
-70.58431782447934
 30
0.0
 10
45.19123986309067
 20
-70.5857486408678
 30
0.0
 10
46.57224363139453
 20
-70.58717945725627
 30
0.0
 10
47.85541446743272
 20
-70.58730283695454
 30
0.0
 10
48.96755223019913
 20
-70.58650799675956
 30
0.0
 10
50.07968999296553
 20
-70.58571315656458
 30
0.0
 10
51.02079468245984
 20
-70.58400009647637
 30
0.0
 10
51.71766615767529
 20
-70.58175803328996
 30
0.0
 10
52.41453763289106
 20
-70.5795159701042
 30
0.0
 10
52.86717589382734
 20
-70.57674490382087
 30
0.0
 10
53.00238079947834
 20
-70.5738340512363
 30
0.0
  0
SPLINE
  5
4D
330
1F
100
AcDbEntity
  8
LAYER_5
 62
   250
100
AcDbSpline
210
0.0
220
0.0
230
1.0
 70
     8
 71
     3
 72
   101
 73
    97
 74
     0
 42
0.0000000001
 43
0.0000000001
 12
1.0
 22
0.0
 32
0.0
 13
1.0
 23
0.0
 33
0.0
 40
0.0
 40
0.0
 40
0.0
 40
0.0
 40
1.0
 40
1.0
 40
1.0
 40
2.0
 40
2.0
 40
2.0
 40
3.0
 40
3.0
 40
3.0
 40
4.0
 40
4.0
 40
4.0
 40
5.0
 40
5.0
 40
5.0
 40
6.0
 40
6.0
 40
6.0
 40
7.0
 40
7.0
 40
7.0
 40
8.0
 40
8.0
 40
8.0
 40
9.0
 40
9.0
 40
9.0
 40
10.0
 40
10.0
 40
10.0
 40
11.0
 40
11.0
 40
11.0
 40
12.0
 40
12.0
 40
12.0
 40
13.0
 40
13.0
 40
13.0
 40
14.0
 40
14.0
 40
14.0
 40
15.0
 40
15.0
 40
15.0
 40
16.0
 40
16.0
 40
16.0
 40
17.0
 40
17.0
 40
17.0
 40
18.0
 40
18.0
 40
18.0
 40
19.0
 40
19.0
 40
19.0
 40
20.0
 40
20.0
 40
20.0
 40
21.0
 40
21.0
 40
21.0
 40
22.0
 40
22.0
 40
22.0
 40
23.0
 40
23.0
 40
23.0
 40
24.0
 40
24.0
 40
24.0
 40
25.0
 40
25.0
 40
25.0
 40
26.0
 40
26.0
 40
26.0
 40
27.0
 40
27.0
 40
27.0
 40
28.0
 40
28.0
 40
28.0
 40
29.0
 40
29.0
 40
29.0
 40
30.0
 40
30.0
 40
30.0
 40
31.0
 40
31.0
 40
31.0
 40
32.0
 40
32.0
 40
32.0
 40
32.0
 10
-13.60078803663337
 20
-56.03132414769096
 30
0.0
 10
-13.60078803663337
 20
-56.03132414769096
 30
0.0
 10
-13.50304564501077
 20
-56.03017200885705
 30
0.0
 10
-13.32963636418929
 20
-56.02810014709717
 30
0.0
 10
-13.1562270833675
 20
-56.02602828533698
 30
0.0
 10
-12.90715091334682
 20
-56.02303670065113
 30
0.0
 10
-12.60448335654971
 20
-56.01935780894694
 30
0.0
 10
-12.3018157997526
 20
-56.01567891724306
 30
0.0
 10
-11.94555685617969
 20
-56.01131271852086
 30
0.0
 10
-11.55778202825406
 20
-56.00649162868888
 30
0.0
 10
-11.17000720032843
 20
-56.00167053885659
 30
0.0
 10
-10.75071648805009
 20
-55.99639455791421
 30
0.0
 10
-10.3219853938421
 20
-55.9908961017697
 30
0.0
 10
-9.893254299634123
 20
-55.98539764562518
 30
0.0
 10
-9.455082823496824
 20
-55.97967671427853
 30
0.0
 10
-9.029546467853288
 20
-55.97396572363769
 30
0.0
 10
-8.604010112209753
 20
-55.96825473299685
 30
0.0
 10
-8.191108877059659
 20
-55.96255368306149
 30
0.0
 10
-7.81291826482673
 20
-55.9570949897402
 30
0.0
 10
-7.43472765259348
 20
-55.95163629641891
 30
0.0
 10
-7.091247663277394
 20
-55.94641995971106
 30
0.0
 10
-6.804553799301873
 20
-55.94167839552521
 30
0.0
 10
-6.51785993532571
 20
-55.93693683133905
 30
0.0
 10
-6.287952196690112
 20
-55.93267003967489
 30
0.0
 10
-6.136906085818159
 20
-55.92911043644006
 30
0.0
 10
-5.683767465103814
 20
-55.91843161994637
 30
0.0
 10
-5.164728431031222
 20
-55.91411750741285
 30
0.0
 10
-4.594086341723352
 20
-55.92244334032227
 30
0.0
 10
-4.023444252415483
 20
-55.93076917323203
 30
0.0
 10
-3.401199107872015
 20
-55.95173495158473
 30
0.0
 10
-2.741648266216241
 20
-55.99161591686481
 30
0.0
 10
-2.082097424560467
 20
-56.03149688214488
 30
0.0
 10
-1.385240885792387
 20
-56.09029303435199
 30
0.0
 10
-0.6653760080346502
 20
-56.17427961496992
 30
0.0
 10
0.0544888697227659
 20
-56.25826619558752
 30
0.0
 10
0.7973620864698387
 20
-56.36744320461592
 30
0.0
 10
1.548946284083277
 20
-56.5080858835389
 30
0.0
 10
2.300530481696715
 20
-56.64872856246187
 30
0.0
 10
3.060825660176838
 20
-56.82083691127878
 30
0.0
 10
3.815534461400036
 20
-57.030686171474
 30
0.0
 10
4.570243262623555
 20
-57.24053543166924
 30
0.0
 10
5.319365686590468
 20
-57.48812560324216
 30
0.0
 10
6.048604375177805
 20
-57.77973192767718
 30
0.0
 10
6.777843063765142
 20
-58.0713382521122
 30
0.0
 10
7.487198016973224
 20
-58.40696072940835
 30
0.0
 10
8.162371876678758
 20
-58.79287460105036
 30
0.0
 10
8.837545736384294
 20
-59.17878847269206
 30
0.0
 10
9.478538502587282
 20
-59.61499373867896
 30
0.0
 10
10.07105281716475
 20
-60.10776564049517
 30
0.0
 10
10.75483941550545
 20
-60.67644527271771
 30
0.0
 10
11.38797769234092
 20
-61.22997107444845
 30
0.0
 10
11.9890834242264
 20
-61.76400765638532
 30
0.0
 10
12.59018915611188
 20
-62.29804423832219
 30
0.0
 10
13.15926234304738
 20
-62.8125916004652
 30
0.0
 10
13.7149187615878
 20
-63.30331435351229
 30
0.0
 10
14.27057518012821
 20
-63.79403710655939
 30
0.0
 10
14.81281483027323
 20
-64.26093525051056
 30
0.0
 10
15.36025348857841
 20
-64.69967339606472
 30
0.0
 10
15.90769214688326
 20
-65.1384115416189
 30
0.0
 10
16.46032981334795
 20
-65.54898968877477
 30
0.0
 10
17.03678226452739
 20
-65.9270724482319
 30
0.0
 10
17.61323471570682
 20
-66.30515520768903
 30
0.0
 10
18.21350195160068
 20
-66.65074257944613
 30
0.0
 10
18.85619974876452
 20
-66.95949917420211
 30
0.0
 10
19.49889754592804
 20
-67.2682557689581
 30
0.0
 10
20.18402590436121
 20
-67.54018158671298
 30
0.0
 10
20.93020060061864
 20
-67.77094123816434
 30
0.0
 10
21.67637529687606
 20
-68.00170088961572
 30
0.0
 10
22.48359633095805
 20
-68.1912943747636
 30
0.0
 10
23.37047947941921
 20
-68.33538630430691
 30
0.0
 10
24.25736262788036
 20
-68.4794782338502
 30
0.0
 10
25.22390789072067
 20
-68.57806860778763
 30
0.0
 10
26.28873104449538
 20
-68.62682203681874
 30
0.0
 10
26.71259621510621
 20
-68.64622890305849
 30
0.0
 10
27.31601459174987
 20
-68.66337242486841
 30
0.0
 10
28.05987950904366
 20
-68.6784879103614
 30
0.0
 10
28.80374442633777
 20
-68.69360339585502
 30
0.0
 10
29.68805588428233
 20
-68.70669084503172
 30
0.0
 10
30.67370721749562
 20
-68.71798556600373
 30
0.0
 10
31.65935855070923
 20
-68.72928028697574
 30
0.0
 10
32.74634975919123
 20
-68.73878227974436
 30
0.0
 10
33.89557417756055
 20
-68.74672685242182
 30
0.0
 10
35.04479859592986
 20
-68.75467142509927
 30
0.0
 10
36.25625622418584
 20
-68.76105857768559
 30
0.0
 10
37.49084039694739
 20
-68.76612361829301
 30
0.0
 10
38.72542456970894
 20
-68.77118865890043
 30
0.0
 10
39.98313528697575
 20
-68.77493158753023
 30
0.0
 10
41.22486588336574
 20
-68.77758771229404
 30
0.0
 10
42.46659647975575
 20
-68.78024383705782
 30
0.0
 10
43.69234695526895
 20
-68.78181315795563
 30
0.0
 10
44.86301064452425
 20
-68.78253098310158
 30
0.0
 10
46.03367433377956
 20
-68.78324880824755
 30
0.0
 10
47.14925123677633
 20
-68.7831151376404
 30
0.0
 10
48.17063468813283
 20
-68.78236527939303
 30
0.0
 10
49.19201813948932
 20
-68.7816154211463
 30
0.0
 10
50.11920813920555
 20
-68.78024937525936
 30
0.0
 10
50.9130980219001
 20
-68.77850244984508
 30
0.0
  0
SPLINE
  5
4E
330
1F
100
AcDbEntity
  8
LAYER_5
 62
   250
100
AcDbSpline
210
0.0
220
0.0
230
1.0
 70
     8
 71
     3
 72
   101
 73
    97
 74
     0
 42
0.0000000001
 43
0.0000000001
 12
1.0
 22
0.0
 32
0.0
 13
1.0
 23
0.0
 33
0.0
 40
0.0
 40
0.0
 40
0.0
 40
0.0
 40
1.0
 40
1.0
 40
1.0
 40
2.0
 40
2.0
 40
2.0
 40
3.0
 40
3.0
 40
3.0
 40
4.0
 40
4.0
 40
4.0
 40
5.0
 40
5.0
 40
5.0
 40
6.0
 40
6.0
 40
6.0
 40
7.0
 40
7.0
 40
7.0
 40
8.0
 40
8.0
 40
8.0
 40
9.0
 40
9.0
 40
9.0
 40
10.0
 40
10.0
 40
10.0
 40
11.0
 40
11.0
 40
11.0
 40
12.0
 40
12.0
 40
12.0
 40
13.0
 40
13.0
 40
13.0
 40
14.0
 40
14.0
 40
14.0
 40
15.0
 40
15.0
 40
15.0
 40
16.0
 40
16.0
 40
16.0
 40
17.0
 40
17.0
 40
17.0
 40
18.0
 40
18.0
 40
18.0
 40
19.0
 40
19.0
 40
19.0
 40
20.0
 40
20.0
 40
20.0
 40
21.0
 40
21.0
 40
21.0
 40
22.0
 40
22.0
 40
22.0
 40
23.0
 40
23.0
 40
23.0
 40
24.0
 40
24.0
 40
24.0
 40
25.0
 40
25.0
 40
25.0
 40
26.0
 40
26.0
 40
26.0
 40
27.0
 40
27.0
 40
27.0
 40
28.0
 40
28.0
 40
28.0
 40
29.0
 40
29.0
 40
29.0
 40
30.0
 40
30.0
 40
30.0
 40
31.0
 40
31.0
 40
31.0
 40
32.0
 40
32.0
 40
32.0
 40
32.0
 10
-13.60078803663337
 20
-54.24056964070171
 30
0.0
 10
-13.60078803663337
 20
-54.24056964070171
 30
0.0
 10
-13.50304564501077
 20
-54.23941750186781
 30
0.0
 10
-13.32963636418929
 20
-54.23734564010793
 30
0.0
 10
-13.1562270833675
 20
-54.23527377834773
 30
0.0
 10
-12.90715091334682
 20
-54.23228219366188
 30
0.0
 10
-12.60448335654971
 20
-54.22860330195769
 30
0.0
 10
-12.3018157997526
 20
-54.22492441025382
 30
0.0
 10
-11.94555685617969
 20
-54.2205582115316
 30
0.0
 10
-11.55778202825406
 20
-54.21573712169963
 30
0.0
 10
-11.17000720032843
 20
-54.21091603186733
 30
0.0
 10
-10.75071648805009
 20
-54.20564005092496
 30
0.0
 10
-10.3219853938421
 20
-54.20014159478045
 30
0.0
 10
-9.893254299634123
 20
-54.19464313863594
 30
0.0
 10
-9.455082823496824
 20
-54.18892220728929
 30
0.0
 10
-9.029546467853288
 20
-54.18321121664844
 30
0.0
 10
-8.604010112209753
 20
-54.1775002260076
 30
0.0
 10
-8.191108877059659
 20
-54.17179917607224
 30
0.0
 10
-7.81291826482673
 20
-54.16634048275095
 30
0.0
 10
-7.43472765259348
 20
-54.16088178942967
 30
0.0
 10
-7.091247663277394
 20
-54.15566545272181
 30
0.0
 10
-6.804553799301873
 20
-54.15092388853596
 30
0.0
 10
-6.51785993532571
 20
-54.14618232434979
 30
0.0
 10
-6.287952196690112
 20
-54.14191553268564
 30
0.0
 10
-6.136906085818159
 20
-54.13835592945081
 30
0.0
 10
-5.683767465103814
 20
-54.12767711295712
 30
0.0
 10
-5.164728431031222
 20
-54.12336300042359
 30
0.0
 10
-4.594086341723352
 20
-54.13168883333303
 30
0.0
 10
-4.023444252415483
 20
-54.14001466624278
 30
0.0
 10
-3.401199107872015
 20
-54.16098044459549
 30
0.0
 10
-2.741648266216241
 20
-54.20086140987556
 30
0.0
 10
-2.082097424560467
 20
-54.24074237515563
 30
0.0
 10
-1.385240885792387
 20
-54.29953852736275
 30
0.0
 10
-0.6653760080346502
 20
-54.38352510798067
 30
0.0
 10
0.0544888697227659
 20
-54.46751168859827
 30
0.0
 10
0.7973620864698387
 20
-54.57668869762667
 30
0.0
 10
1.548946284083277
 20
-54.71733137654965
 30
0.0
 10
2.300530481696715
 20
-54.85797405547262
 30
0.0
 10
3.060825660176838
 20
-55.03008240428952
 30
0.0
 10
3.815534461400036
 20
-55.23993166448476
 30
0.0
 10
4.570243262623555
 20
-55.44978092467999
 30
0.0
 10
5.319365686590468
 20
-55.69737109625292
 30
0.0
 10
6.048604375177805
 20
-55.98897742068793
 30
0.0
 10
6.777843063765142
 20
-56.28058374512295
 30
0.0
 10
7.487198016973224
 20
-56.61620622241911
 30
0.0
 10
8.162371876678758
 20
-57.00212009406112
 30
0.0
 10
8.837545736384294
 20
-57.38803396570281
 30
0.0
 10
9.478538502587282
 20
-57.82423923168972
 30
0.0
 10
10.07105281716475
 20
-58.31701113350592
 30
0.0
 10
10.75483941550545
 20
-58.88569076572847
 30
0.0
 10
11.38797769234092
 20
-59.4392165674592
 30
0.0
 10
11.9890834242264
 20
-59.97325314939607
 30
0.0
 10
12.59018915611188
 20
-60.50728973133295
 30
0.0
 10
13.15926234304738
 20
-61.02183709347595
 30
0.0
 10
13.7149187615878
 20
-61.51255984652305
 30
0.0
 10
14.27057518012821
 20
-62.00328259957013
 30
0.0
 10
14.81281483027323
 20
-62.47018074352195
 30
0.0
 10
15.36025348857841
 20
-62.9089188890758
 30
0.0
 10
15.90769214688326
 20
-63.34765703462964
 30
0.0
 10
16.46032981334795
 20
-63.75823518178584
 30
0.0
 10
17.03678226452739
 20
-64.13631794124265
 30
0.0
 10
17.61323471570682
 20
-64.51440070069913
 30
0.0
 10
18.21350195160068
 20
-64.85998807245689
 30
0.0
 10
18.85619974876452
 20
-65.16874466721286
 30
0.0
 10
19.49889754592804
 20
-65.47750126196821
 30
0.0
 10
20.18402590436121
 20
-65.74942707972308
 30
0.0
 10
20.93020060061864
 20
-65.98018673117446
 30
0.0
 10
21.67637529687606
 20
-66.21094638262583
 30
0.0
 10
22.48359633095805
 20
-66.40053986777372
 30
0.0
 10
23.37047947941921
 20
-66.54463179731701
 30
0.0
 10
24.25736262788036
 20
-66.68872372686032
 30
0.0
 10
25.22390789072067
 20
-66.78731410079838
 30
0.0
 10
26.28873104449538
 20
-66.83606752982949
 30
0.0
 10
26.68327724973516
 20
-66.85413201344656
 30
0.0
 10
27.22237186844534
 20
-66.87023543685892
 30
0.0
 10
27.87723101235404
 20
-66.88456757870152
 30
0.0
 10
28.53209015626242
 20
-66.89889972054348
 30
0.0
 10
29.30271382536932
 20
-66.91146058081569
 30
0.0
 10
30.16031813140255
 20
-66.92243993815242
 30
0.0
 10
31.01792243743578
 20
-66.93341929548917
 30
0.0
 10
31.96250738039567
 20
-66.94281714988982
 30
0.0
 10
32.96528907201001
 20
-66.95082327998995
 30
0.0
 10
33.96807076362403
 20
-66.95882941009008
 30
0.0
 10
35.02904920389251
 20
-66.96544381588969
 30
0.0
 10
36.11944050454391
 20
-66.97085627602307
 30
0.0
 10
37.2098318051953
 20
-66.97626873615646
 30
0.0
 10
38.32963596622928
 20
-66.98047925062363
 30
0.0
 10
39.45006909937366
 20
-66.98367759805951
 30
0.0
 10
40.57050223251805
 20
-66.98687594549476
 30
0.0
 10
41.69156433777347
 20
-66.98906212589873
 30
0.0
 10
42.7844715268671
 20
-66.99042591790635
 30
0.0
 10
43.87737871596105
 20
-66.99178970991333
 30
0.0
 10
44.94213098889384
 20
-66.99233111352333
 30
0.0
 10
45.9499444573933
 20
-66.9922399073713
 30
0.0
 10
46.95775792589276
 20
-66.9921487012199
 30
0.0
 10
47.90863258995887
 20
-66.99142488530582
 30
0.0
 10
48.77378456132009
 20
-66.990258238264
 30
0.0
  0
SPLINE
  5
4F
330
1F
100
AcDbEntity
  8
LAYER_5
 62
   250
100
AcDbSpline
210
0.0
220
0.0
230
1.0
 70
     8
 71
     3
 72
   101
 73
    97
 74
     0
 42
0.0000000001
 43
0.0000000001
 12
1.0
 22
0.0
 32
0.0
 13
1.0
 23
0.0
 33
0.0
 40
0.0
 40
0.0
 40
0.0
 40
0.0
 40
1.0
 40
1.0
 40
1.0
 40
2.0
 40
2.0
 40
2.0
 40
3.0
 40
3.0
 40
3.0
 40
4.0
 40
4.0
 40
4.0
 40
5.0
 40
5.0
 40
5.0
 40
6.0
 40
6.0
 40
6.0
 40
7.0
 40
7.0
 40
7.0
 40
8.0
 40
8.0
 40
8.0
 40
9.0
 40
9.0
 40
9.0
 40
10.0
 40
10.0
 40
10.0
 40
11.0
 40
11.0
 40
11.0
 40
12.0
 40
12.0
 40
12.0
 40
13.0
 40
13.0
 40
13.0
 40
14.0
 40
14.0
 40
14.0
 40
15.0
 40
15.0
 40
15.0
 40
16.0
 40
16.0
 40
16.0
 40
17.0
 40
17.0
 40
17.0
 40
18.0
 40
18.0
 40
18.0
 40
19.0
 40
19.0
 40
19.0
 40
20.0
 40
20.0
 40
20.0
 40
21.0
 40
21.0
 40
21.0
 40
22.0
 40
22.0
 40
22.0
 40
23.0
 40
23.0
 40
23.0
 40
24.0
 40
24.0
 40
24.0
 40
25.0
 40
25.0
 40
25.0
 40
26.0
 40
26.0
 40
26.0
 40
27.0
 40
27.0
 40
27.0
 40
28.0
 40
28.0
 40
28.0
 40
29.0
 40
29.0
 40
29.0
 40
30.0
 40
30.0
 40
30.0
 40
31.0
 40
31.0
 40
31.0
 40
32.0
 40
32.0
 40
32.0
 40
32.0
 10
-13.60078803663337
 20
-52.44981513371247
 30
0.0
 10
-13.60078803663337
 20
-52.44981513371247
 30
0.0
 10
-13.50304564501077
 20
-52.44866299487855
 30
0.0
 10
-13.32963636418929
 20
-52.44659113311868
 30
0.0
 10
-13.1562270833675
 20
-52.44451927135848
 30
0.0
 10
-12.90715091334682
 20
-52.44152768667264
 30
0.0
 10
-12.60448335654971
 20
-52.43784879496845
 30
0.0
 10
-12.3018157997526
 20
-52.43416990326457
 30
0.0
 10
-11.94555685617969
 20
-52.42980370454236
 30
0.0
 10
-11.55778202825406
 20
-52.42498261471039
 30
0.0
 10
-11.17000720032843
 20
-52.42016152487809
 30
0.0
 10
-10.75071648805009
 20
-52.41488554393572
 30
0.0
 10
-10.3219853938421
 20
-52.4093870877912
 30
0.0
 10
-9.893254299634123
 20
-52.40388863164669
 30
0.0
 10
-9.455082823496824
 20
-52.39816770030004
 30
0.0
 10
-9.029546467853288
 20
-52.39245670965919
 30
0.0
 10
-8.604010112209753
 20
-52.38674571901835
 30
0.0
 10
-8.191108877059659
 20
-52.381044669083
 30
0.0
 10
-7.81291826482673
 20
-52.37558597576171
 30
0.0
 10
-7.43472765259348
 20
-52.37012728244042
 30
0.0
 10
-7.091247663277394
 20
-52.36491094573256
 30
0.0
 10
-6.804553799301873
 20
-52.36016938154672
 30
0.0
 10
-6.51785993532571
 20
-52.35542781736055
 30
0.0
 10
-6.287952196690112
 20
-52.3511610256964
 30
0.0
 10
-6.136906085818159
 20
-52.34760142246156
 30
0.0
 10
-5.683767465103814
 20
-52.33692260596788
 30
0.0
 10
-5.164728431031222
 20
-52.33260849343435
 30
0.0
 10
-4.594086341723352
 20
-52.34093432634378
 30
0.0
 10
-4.023444252415483
 20
-52.34926015925353
 30
0.0
 10
-3.401199107872015
 20
-52.37022593760624
 30
0.0
 10
-2.741648266216241
 20
-52.41010690288631
 30
0.0
 10
-2.082097424560467
 20
-52.44998786816639
 30
0.0
 10
-1.385240885792387
 20
-52.5087840203735
 30
0.0
 10
-0.6653760080346502
 20
-52.59277060099142
 30
0.0
 10
0.0544888697227659
 20
-52.67675718160902
 30
0.0
 10
0.7973620864698387
 20
-52.78593419063743
 30
0.0
 10
1.548946284083277
 20
-52.9265768695604
 30
0.0
 10
2.300530481696715
 20
-53.06721954848337
 30
0.0
 10
3.060825660176838
 20
-53.23932789730028
 30
0.0
 10
3.815534461400036
 20
-53.44917715749551
 30
0.0
 10
4.570243262623555
 20
-53.65902641769075
 30
0.0
 10
5.319365686590468
 20
-53.90661658926367
 30
0.0
 10
6.048604375177805
 20
-54.19822291369869
 30
0.0
 10
6.777843063765142
 20
-54.48982923813371
 30
0.0
 10
7.487198016973224
 20
-54.82545171542986
 30
0.0
 10
8.162371876678758
 20
-55.21136558707187
 30
0.0
 10
8.837545736384294
 20
-55.59727945871356
 30
0.0
 10
9.478538502587282
 20
-56.03348472470046
 30
0.0
 10
10.07105281716475
 20
-56.52625662651668
 30
0.0
 10
10.75483941550545
 20
-57.09493625873922
 30
0.0
 10
11.38797769234092
 20
-57.64846206046995
 30
0.0
 10
11.9890834242264
 20
-58.18249864240683
 30
0.0
 10
12.59018915611188
 20
-58.71653522434369
 30
0.0
 10
13.15926234304738
 20
-59.23108258648671
 30
0.0
 10
13.7149187615878
 20
-59.72180533953379
 30
0.0
 10
14.27057518012821
 20
-60.21252809258089
 30
0.0
 10
14.81281483027323
 20
-60.67942623653271
 30
0.0
 10
15.36025348857841
 20
-61.11816438208655
 30
0.0
 10
15.90769214688326
 20
-61.5569025276404
 30
0.0
 10
16.46032981334795
 20
-61.96748067479659
 30
0.0
 10
17.03678226452739
 20
-62.3455634342534
 30
0.0
 10
17.61323471570682
 20
-62.72364619371021
 30
0.0
 10
18.21350195160068
 20
-63.06923356546763
 30
0.0
 10
18.85619974876452
 20
-63.37799016022362
 30
0.0
 10
19.49889754592804
 20
-63.68674675497961
 30
0.0
 10
20.18402590436121
 20
-63.95867257273447
 30
0.0
 10
20.93020060061864
 20
-64.18943222418585
 30
0.0
 10
21.67637529687606
 20
-64.42019187563723
 30
0.0
 10
22.48359633095805
 20
-64.60978536078511
 30
0.0
 10
23.37047947941921
 20
-64.7538772903284
 30
0.0
 10
24.25736262788036
 20
-64.89796921987171
 30
0.0
 10
25.22390789072067
 20
-64.99655959380914
 30
0.0
 10
26.28873104449538
 20
-65.04531302284025
 30
0.0
 10
26.62801799901597
 20
-65.06084743566674
 30
0.0
 10
27.09337539163356
 20
-65.07493164312595
 30
0.0
 10
27.66199000277882
 20
-65.08768633074334
 30
0.0
 10
28.23060461392471
 20
-65.10044101836138
 30
0.0
 10
28.90247644359827
 20
-65.1118661861376
 30
0.0
 10
29.6547922722324
 20
-65.1220825195988
 30
0.0
 10
30.40710810086653
 20
-65.13229885306065
 30
0.0
 10
31.2398679284606
 20
-65.14130635220745
 30
0.0
 10
32.13025853544656
 20
-65.14922570256664
 30
0.0
 10
33.02064914243219
 20
-65.15714505292583
 30
0.0
 10
33.96867052880971
 20
-65.16397625449738
 30
0.0
 10
34.95150947501106
 20
-65.16983999280747
 30
0.0
 10
35.93434842121243
 20
-65.17570373111754
 30
0.0
 10
36.95200492723698
 20
-65.18060000616612
 30
0.0
 10
37.98166577351668
 20
-65.18464950348061
 30
0.0
 10
39.01132661979671
 20
-65.18869900079513
 30
0.0
 10
40.05299180633187
 20
-65.19190172037554
 30
0.0
 10
41.08384811355382
 20
-65.19437834774801
 30
0.0
 10
42.11470442077577
 20
-65.19685497511985
 30
0.0
 10
43.13475184868481
 20
-65.19860551028502
 30
0.0
 10
44.12117717771259
 20
-65.19975063876836
 30
0.0
 10
45.10760250674004
 20
-65.20089576725171
 30
0.0
 10
46.06040573688655
 20
-65.20143548905452
 30
0.0
 10
46.95677364858341
 20
-65.20149048970356
 30
0.0
  0
SPLINE
  5
50
330
1F
100
AcDbEntity
  8
LAYER_5
 62
   250
100
AcDbSpline
210
0.0
220
0.0
230
1.0
 70
     8
 71
     3
 72
   101
 73
    97
 74
     0
 42
0.0000000001
 43
0.0000000001
 12
1.0
 22
0.0
 32
0.0
 13
1.0
 23
0.0
 33
0.0
 40
0.0
 40
0.0
 40
0.0
 40
0.0
 40
1.0
 40
1.0
 40
1.0
 40
2.0
 40
2.0
 40
2.0
 40
3.0
 40
3.0
 40
3.0
 40
4.0
 40
4.0
 40
4.0
 40
5.0
 40
5.0
 40
5.0
 40
6.0
 40
6.0
 40
6.0
 40
7.0
 40
7.0
 40
7.0
 40
8.0
 40
8.0
 40
8.0
 40
9.0
 40
9.0
 40
9.0
 40
10.0
 40
10.0
 40
10.0
 40
11.0
 40
11.0
 40
11.0
 40
12.0
 40
12.0
 40
12.0
 40
13.0
 40
13.0
 40
13.0
 40
14.0
 40
14.0
 40
14.0
 40
15.0
 40
15.0
 40
15.0
 40
16.0
 40
16.0
 40
16.0
 40
17.0
 40
17.0
 40
17.0
 40
18.0
 40
18.0
 40
18.0
 40
19.0
 40
19.0
 40
19.0
 40
20.0
 40
20.0
 40
20.0
 40
21.0
 40
21.0
 40
21.0
 40
22.0
 40
22.0
 40
22.0
 40
23.0
 40
23.0
 40
23.0
 40
24.0
 40
24.0
 40
24.0
 40
25.0
 40
25.0
 40
25.0
 40
26.0
 40
26.0
 40
26.0
 40
27.0
 40
27.0
 40
27.0
 40
28.0
 40
28.0
 40
28.0
 40
29.0
 40
29.0
 40
29.0
 40
30.0
 40
30.0
 40
30.0
 40
31.0
 40
31.0
 40
31.0
 40
32.0
 40
32.0
 40
32.0
 40
32.0
 10
-13.60078803663337
 20
-50.65906062672322
 30
0.0
 10
-13.60078803663337
 20
-50.65906062672322
 30
0.0
 10
-13.50304564501077
 20
-50.65790848788931
 30
0.0
 10
-13.32963636418929
 20
-50.65583662612943
 30
0.0
 10
-13.1562270833675
 20
-50.65376476436924
 30
0.0
 10
-12.90715091334682
 20
-50.65077317968338
 30
0.0
 10
-12.60448335654971
 20
-50.64709428797919
 30
0.0
 10
-12.3018157997526
 20
-50.64341539627533
 30
0.0
 10
-11.94555685617969
 20
-50.63904919755311
 30
0.0
 10
-11.55778202825406
 20
-50.63422810772114
 30
0.0
 10
-11.17000720032843
 20
-50.62940701788884
 30
0.0
 10
-10.75071648805009
 20
-50.62413103694647
 30
0.0
 10
-10.3219853938421
 20
-50.61863258080196
 30
0.0
 10
-9.893254299634123
 20
-50.61313412465744
 30
0.0
 10
-9.455082823496824
 20
-50.60741319331079
 30
0.0
 10
-9.029546467853288
 20
-50.60170220266995
 30
0.0
 10
-8.604010112209753
 20
-50.59599121202911
 30
0.0
 10
-8.191108877059659
 20
-50.59029016209374
 30
0.0
 10
-7.81291826482673
 20
-50.58483146877246
 30
0.0
 10
-7.43472765259348
 20
-50.57937277545117
 30
0.0
 10
-7.091247663277394
 20
-50.57415643874332
 30
0.0
 10
-6.804553799301873
 20
-50.56941487455747
 30
0.0
 10
-6.51785993532571
 20
-50.5646733103713
 30
0.0
 10
-6.287952196690112
 20
-50.56040651870715
 30
0.0
 10
-6.136906085818159
 20
-50.55684691547231
 30
0.0
 10
-5.683767465103814
 20
-50.54616809897863
 30
0.0
 10
-5.164728431031222
 20
-50.5418539864451
 30
0.0
 10
-4.594086341723352
 20
-50.55017981935453
 30
0.0
 10
-4.023444252415483
 20
-50.55850565226429
 30
0.0
 10
-3.401199107872015
 20
-50.57947143061699
 30
0.0
 10
-2.741648266216241
 20
-50.61935239589707
 30
0.0
 10
-2.082097424560467
 20
-50.65923336117714
 30
0.0
 10
-1.385240885792387
 20
-50.71802951338425
 30
0.0
 10
-0.6653760080346502
 20
-50.80201609400218
 30
0.0
 10
0.0544888697227659
 20
-50.88600267461977
 30
0.0
 10
0.7973620864698387
 20
-50.99517968364818
 30
0.0
 10
1.548946284083277
 20
-51.13582236257115
 30
0.0
 10
2.300530481696715
 20
-51.27646504149413
 30
0.0
 10
3.060825660176838
 20
-51.44857339031103
 30
0.0
 10
3.815534461400036
 20
-51.65842265050626
 30
0.0
 10
4.570243262623555
 20
-51.86827191070149
 30
0.0
 10
5.319365686590468
 20
-52.11586208227442
 30
0.0
 10
6.048604375177805
 20
-52.40746840670944
 30
0.0
 10
6.777843063765142
 20
-52.69907473114446
 30
0.0
 10
7.487198016973224
 20
-53.03469720844061
 30
0.0
 10
8.162371876678758
 20
-53.42061108008262
 30
0.0
 10
8.837545736384294
 20
-53.80652495172431
 30
0.0
 10
9.478538502587282
 20
-54.24273021771122
 30
0.0
 10
10.07105281716475
 20
-54.73550211952742
 30
0.0
 10
10.75483941550545
 20
-55.30418175174997
 30
0.0
 10
11.38797769234092
 20
-55.85770755348071
 30
0.0
 10
11.9890834242264
 20
-56.39174413541758
 30
0.0
 10
12.59018915611188
 20
-56.92578071735445
 30
0.0
 10
13.15926234304738
 20
-57.44032807949746
 30
0.0
 10
13.7149187615878
 20
-57.93105083254455
 30
0.0
 10
14.27057518012821
 20
-58.42177358559164
 30
0.0
 10
14.81281483027323
 20
-58.88867172954346
 30
0.0
 10
15.36025348857841
 20
-59.3274098750973
 30
0.0
 10
15.90769214688326
 20
-59.76614802065114
 30
0.0
 10
16.46032981334795
 20
-60.17672616780734
 30
0.0
 10
17.03678226452739
 20
-60.55480892726415
 30
0.0
 10
17.61323471570682
 20
-60.93289168672096
 30
0.0
 10
18.21350195160068
 20
-61.27847905847838
 30
0.0
 10
18.85619974876452
 20
-61.58723565323437
 30
0.0
 10
19.49889754592804
 20
-61.89599224799036
 30
0.0
 10
20.18402590436121
 20
-62.16791806574491
 30
0.0
 10
20.93020060061864
 20
-62.39867771719629
 30
0.0
 10
21.67637529687606
 20
-62.62943736864766
 30
0.0
 10
22.48359633095805
 20
-62.81903085379587
 30
0.0
 10
23.37047947941921
 20
-62.96312278333884
 30
0.0
 10
24.25736262788036
 20
-63.10721471288182
 30
0.0
 10
25.22390789072067
 20
-63.20580508681989
 30
0.0
 10
26.28873104449538
 20
-63.254558515851
 30
0.0
 10
26.59913452520644
 20
-63.26877048524148
 30
0.0
 10
27.01685445753952
 20
-63.2817686512296
 30
0.0
 10
27.52377631687869
 20
-63.29364542689679
 30
0.0
 10
28.03069817621786
 20
-63.30552220256429
 30
0.0
 10
28.62682196256281
 20
-63.31627758791087
 30
0.0
 10
29.29403315129823
 20
-63.32600399601856
 30
0.0
 10
29.96124434003364
 20
-63.33573040412656
 30
0.0
 10
30.69954293115922
 20
-63.34442783499537
 30
0.0
 10
31.49081440005934
 20
-63.35218870170702
 30
0.0
 10
32.28208586895946
 20
-63.35994956841899
 30
0.0
 10
33.12633021563411
 20
-63.36677387097382
 30
0.0
 10
34.00543291546771
 20
-63.37275402245353
 30
0.0
 10
34.88453561530098
 20
-63.37873417393325
 30
0.0
 10
35.7984966682935
 20
-63.38387017433755
 30
0.0
 10
36.72920154982869
 20
-63.38825443674847
 30
0.0
 10
37.65990643136421
 20
-63.3926386991594
 30
0.0
 10
38.60735514144239
 20
-63.39627122357695
 30
0.0
 10
39.55343315544829
 20
-63.39924442308319
 30
0.0
 10
40.49951116945418
 20
-63.40221762258943
 30
0.0
 10
41.44421848738746
 20
-63.40453149718402
 30
0.0
 10
42.36944058463218
 20
-63.40627845994903
 30
0.0
 10
43.29466268187691
 20
-63.40802542271372
 30
0.0
 10
44.20039955843308
 20
-63.40920547364882
 30
0.0
 10
45.06853668968541
 20
-63.40991102583607
 30
0.0
  0
SPLINE
  5
51
330
1F
100
AcDbEntity
  8
LAYER_5
 62
   250
100
AcDbSpline
210
0.0
220
0.0
230
1.0
 70
     8
 71
     3
 72
   101
 73
    97
 74
     0
 42
0.0000000001
 43
0.0000000001
 12
1.0
 22
0.0
 32
0.0
 13
1.0
 23
0.0
 33
0.0
 40
0.0
 40
0.0
 40
0.0
 40
0.0
 40
1.0
 40
1.0
 40
1.0
 40
2.0
 40
2.0
 40
2.0
 40
3.0
 40
3.0
 40
3.0
 40
4.0
 40
4.0
 40
4.0
 40
5.0
 40
5.0
 40
5.0
 40
6.0
 40
6.0
 40
6.0
 40
7.0
 40
7.0
 40
7.0
 40
8.0
 40
8.0
 40
8.0
 40
9.0
 40
9.0
 40
9.0
 40
10.0
 40
10.0
 40
10.0
 40
11.0
 40
11.0
 40
11.0
 40
12.0
 40
12.0
 40
12.0
 40
13.0
 40
13.0
 40
13.0
 40
14.0
 40
14.0
 40
14.0
 40
15.0
 40
15.0
 40
15.0
 40
16.0
 40
16.0
 40
16.0
 40
17.0
 40
17.0
 40
17.0
 40
18.0
 40
18.0
 40
18.0
 40
19.0
 40
19.0
 40
19.0
 40
20.0
 40
20.0
 40
20.0
 40
21.0
 40
21.0
 40
21.0
 40
22.0
 40
22.0
 40
22.0
 40
23.0
 40
23.0
 40
23.0
 40
24.0
 40
24.0
 40
24.0
 40
25.0
 40
25.0
 40
25.0
 40
26.0
 40
26.0
 40
26.0
 40
27.0
 40
27.0
 40
27.0
 40
28.0
 40
28.0
 40
28.0
 40
29.0
 40
29.0
 40
29.0
 40
30.0
 40
30.0
 40
30.0
 40
31.0
 40
31.0
 40
31.0
 40
32.0
 40
32.0
 40
32.0
 40
32.0
 10
-13.60078803663337
 20
-48.86830611973397
 30
0.0
 10
-13.60078803663337
 20
-48.86830611973397
 30
0.0
 10
-13.50304564501077
 20
-48.86715398090006
 30
0.0
 10
-13.32963636418929
 20
-48.86508211914018
 30
0.0
 10
-13.1562270833675
 20
-48.86301025737998
 30
0.0
 10
-12.90715091334682
 20
-48.86001867269414
 30
0.0
 10
-12.60448335654971
 20
-48.85633978098995
 30
0.0
 10
-12.3018157997526
 20
-48.85266088928608
 30
0.0
 10
-11.94555685617969
 20
-48.84829469056386
 30
0.0
 10
-11.55778202825406
 20
-48.84347360073189
 30
0.0
 10
-11.17000720032843
 20
-48.83865251089959
 30
0.0
 10
-10.75071648805009
 20
-48.83337652995722
 30
0.0
 10
-10.3219853938421
 20
-48.82787807381271
 30
0.0
 10
-9.893254299634123
 20
-48.8223796176682
 30
0.0
 10
-9.455082823496824
 20
-48.81665868632155
 30
0.0
 10
-9.029546467853288
 20
-48.8109476956807
 30
0.0
 10
-8.604010112209753
 20
-48.80523670503986
 30
0.0
 10
-8.191108877059659
 20
-48.7995356551045
 30
0.0
 10
-7.81291826482673
 20
-48.79407696178321
 30
0.0
 10
-7.43472765259348
 20
-48.78861826846192
 30
0.0
 10
-7.091247663277394
 20
-48.78340193175406
 30
0.0
 10
-6.804553799301873
 20
-48.77866036756822
 30
0.0
 10
-6.51785993532571
 20
-48.77391880338205
 30
0.0
 10
-6.287952196690112
 20
-48.7696520117179
 30
0.0
 10
-6.136906085818159
 20
-48.76609240848307
 30
0.0
 10
-5.683767465103814
 20
-48.75541359198938
 30
0.0
 10
-5.164728431031222
 20
-48.75109947945585
 30
0.0
 10
-4.594086341723352
 20
-48.75942531236529
 30
0.0
 10
-4.023444252415483
 20
-48.76775114527504
 30
0.0
 10
-3.401199107872015
 20
-48.78871692362775
 30
0.0
 10
-2.741648266216241
 20
-48.82859788890782
 30
0.0
 10
-2.082097424560467
 20
-48.86847885418789
 30
0.0
 10
-1.385240885792387
 20
-48.92727500639501
 30
0.0
 10
-0.6653760080346502
 20
-49.01126158701292
 30
0.0
 10
0.0544888697227659
 20
-49.09524816763053
 30
0.0
 10
0.7973620864698387
 20
-49.20442517665893
 30
0.0
 10
1.548946284083277
 20
-49.34506785558191
 30
0.0
 10
2.300530481696715
 20
-49.48571053450488
 30
0.0
 10
3.060825660176838
 20
-49.65781888332178
 30
0.0
 10
3.815534461400036
 20
-49.86766814351702
 30
0.0
 10
4.570243262623555
 20
-50.07751740371225
 30
0.0
 10
5.319365686590468
 20
-50.32510757528517
 30
0.0
 10
6.048604375177805
 20
-50.61671389972019
 30
0.0
 10
6.777843063765142
 20
-50.90832022415521
 30
0.0
 10
7.487198016973224
 20
-51.24394270145137
 30
0.0
 10
8.162371876678758
 20
-51.62985657309338
 30
0.0
 10
8.837545736384294
 20
-52.01577044473507
 30
0.0
 10
9.478538502587282
 20
-52.45197571072197
 30
0.0
 10
10.07105281716475
 20
-52.94474761253818
 30
0.0
 10
10.75483941550545
 20
-53.51342724476073
 30
0.0
 10
11.38797769234092
 20
-54.06695304649146
 30
0.0
 10
11.9890834242264
 20
-54.60098962842833
 30
0.0
 10
12.59018915611188
 20
-55.1350262103652
 30
0.0
 10
13.15926234304738
 20
-55.64957357250821
 30
0.0
 10
13.7149187615878
 20
-56.1402963255553
 30
0.0
 10
14.27057518012821
 20
-56.63101907860239
 30
0.0
 10
14.81281483027323
 20
-57.09791722255421
 30
0.0
 10
15.36025348857841
 20
-57.53665536810806
 30
0.0
 10
15.90769214688326
 20
-57.9753935136619
 30
0.0
 10
16.46032981334795
 20
-58.38597166081809
 30
0.0
 10
17.03678226452739
 20
-58.7640544202749
 30
0.0
 10
17.61323471570682
 20
-59.14213717973171
 30
0.0
 10
18.21350195160068
 20
-59.48772455148914
 30
0.0
 10
18.85619974876452
 20
-59.79648114624513
 30
0.0
 10
19.49889754592804
 20
-60.10523774100111
 30
0.0
 10
20.18402590436121
 20
-60.37716355875566
 30
0.0
 10
20.93020060061864
 20
-60.60792321020703
 30
0.0
 10
21.67637529687606
 20
-60.83868286165841
 30
0.0
 10
22.48359633095805
 20
-61.02827634680661
 30
0.0
 10
23.37047947941921
 20
-61.17236827634959
 30
0.0
 10
24.25736262788036
 20
-61.31646020589257
 30
0.0
 10
25.22390789072067
 20
-61.41505057983064
 30
0.0
 10
26.28873104449538
 20
-61.46380400886176
 30
0.0
 10
26.57819256483708
 20
-61.47705714074483
 30
0.0
 10
26.96241577266466
 20
-61.48925472736017
 30
0.0
 10
27.42618969555175
 20
-61.50047171087058
 30
0.0
 10
27.88996361843884
 20
-61.511688694381
 30
0.0
 10
28.43328825638512
 20
-61.52192507478618
 30
0.0
 10
29.04095263696356
 20
-61.53125579424925
 30
0.0
 10
29.64861701754232
 20
-61.54058651371202
 30
0.0
 10
30.32062114075293
 20
-61.54901157223269
 30
0.0
 10
31.04175403416933
 20
-61.5566059119741
 30
0.0
 10
31.76288692758541
 20
-61.56420025171519
 30
0.0
 10
32.53314859120697
 20
-61.5709638726767
 30
0.0
 10
33.33732805260697
 20
-61.57697171702145
 30
0.0
 10
34.1415075140073
 20
-61.58297956136653
 30
0.0
 10
34.97960477318576
 20
-61.58823162909452
 30
0.0
 10
35.83640885771566
 20
-61.59280286236859
 30
0.0
 10
36.69321294224556
 20
-61.59737409564266
 30
0.0
 10
37.56872385212721
 20
-61.60126449446281
 30
0.0
 10
38.44773061493329
 20
-61.60454900099186
 30
0.0
 10
39.32673737773969
 20
-61.60783350752091
 30
0.0
 10
40.20923999347051
 20
-61.61051212175822
 30
0.0
 10
41.08002748969873
 20
-61.61265978586726
 30
0.0
 10
41.95081498592727
 20
-61.6148074499763
 30
0.0
 10
42.80988736265353
 20
-61.61642416395706
 30
0.0
 10
43.64203364745051
 20
-61.61758486997207
 30
0.0
  0
SPLINE
  5
52
330
1F
100
AcDbEntity
  8
LAYER_5
 62
   250
100
AcDbSpline
210
0.0
220
0.0
230
1.0
 70
     8
 71
     3
 72
   101
 73
    97
 74
     0
 42
0.0000000001
 43
0.0000000001
 12
1.0
 22
0.0
 32
0.0
 13
1.0
 23
0.0
 33
0.0
 40
0.0
 40
0.0
 40
0.0
 40
0.0
 40
1.0
 40
1.0
 40
1.0
 40
2.0
 40
2.0
 40
2.0
 40
3.0
 40
3.0
 40
3.0
 40
4.0
 40
4.0
 40
4.0
 40
5.0
 40
5.0
 40
5.0
 40
6.0
 40
6.0
 40
6.0
 40
7.0
 40
7.0
 40
7.0
 40
8.0
 40
8.0
 40
8.0
 40
9.0
 40
9.0
 40
9.0
 40
10.0
 40
10.0
 40
10.0
 40
11.0
 40
11.0
 40
11.0
 40
12.0
 40
12.0
 40
12.0
 40
13.0
 40
13.0
 40
13.0
 40
14.0
 40
14.0
 40
14.0
 40
15.0
 40
15.0
 40
15.0
 40
16.0
 40
16.0
 40
16.0
 40
17.0
 40
17.0
 40
17.0
 40
18.0
 40
18.0
 40
18.0
 40
19.0
 40
19.0
 40
19.0
 40
20.0
 40
20.0
 40
20.0
 40
21.0
 40
21.0
 40
21.0
 40
22.0
 40
22.0
 40
22.0
 40
23.0
 40
23.0
 40
23.0
 40
24.0
 40
24.0
 40
24.0
 40
25.0
 40
25.0
 40
25.0
 40
26.0
 40
26.0
 40
26.0
 40
27.0
 40
27.0
 40
27.0
 40
28.0
 40
28.0
 40
28.0
 40
29.0
 40
29.0
 40
29.0
 40
30.0
 40
30.0
 40
30.0
 40
31.0
 40
31.0
 40
31.0
 40
32.0
 40
32.0
 40
32.0
 40
32.0
 10
-13.60078803663337
 20
-47.07755161274473
 30
0.0
 10
-13.60078803663337
 20
-47.07755161274473
 30
0.0
 10
-13.50304564501077
 20
-47.07639947391081
 30
0.0
 10
-13.32963636418929
 20
-47.07432761215094
 30
0.0
 10
-13.1562270833675
 20
-47.07225575039074
 30
0.0
 10
-12.90715091334682
 20
-47.06926416570489
 30
0.0
 10
-12.60448335654971
 20
-47.0655852740007
 30
0.0
 10
-12.3018157997526
 20
-47.06190638229683
 30
0.0
 10
-11.94555685617969
 20
-47.05754018357462
 30
0.0
 10
-11.55778202825406
 20
-47.05271909374265
 30
0.0
 10
-11.17000720032843
 20
-47.04789800391035
 30
0.0
 10
-10.75071648805009
 20
-47.04262202296798
 30
0.0
 10
-10.3219853938421
 20
-47.03712356682346
 30
0.0
 10
-9.893254299634123
 20
-47.03162511067895
 30
0.0
 10
-9.455082823496824
 20
-47.0259041793323
 30
0.0
 10
-9.029546467853288
 20
-47.02019318869146
 30
0.0
 10
-8.604010112209753
 20
-47.01448219805061
 30
0.0
 10
-8.191108877059659
 20
-47.00878114811525
 30
0.0
 10
-7.81291826482673
 20
-47.00332245479397
 30
0.0
 10
-7.43472765259348
 20
-46.99786376147268
 30
0.0
 10
-7.091247663277394
 20
-46.99264742476482
 30
0.0
 10
-6.804553799301873
 20
-46.98790586057898
 30
0.0
 10
-6.51785993532571
 20
-46.98316429639281
 30
0.0
 10
-6.287952196690112
 20
-46.97889750472866
 30
0.0
 10
-6.136906085818159
 20
-46.97533790149382
 30
0.0
 10
-5.683767465103814
 20
-46.96465908500014
 30
0.0
 10
-5.164728431031222
 20
-46.96034497246661
 30
0.0
 10
-4.594086341723352
 20
-46.96867080537604
 30
0.0
 10
-4.023444252415483
 20
-46.97699663828579
 30
0.0
 10
-3.401199107872015
 20
-46.9979624166385
 30
0.0
 10
-2.741648266216241
 20
-47.03784338191857
 30
0.0
 10
-2.082097424560467
 20
-47.07772434719865
 30
0.0
 10
-1.385240885792387
 20
-47.13652049940576
 30
0.0
 10
-0.6653760080346502
 20
-47.22050708002368
 30
0.0
 10
0.0544888697227659
 20
-47.30449366064128
 30
0.0
 10
0.7973620864698387
 20
-47.41367066966968
 30
0.0
 10
1.548946284083277
 20
-47.55431334859266
 30
0.0
 10
2.300530481696715
 20
-47.69495602751564
 30
0.0
 10
3.060825660176838
 20
-47.86706437633254
 30
0.0
 10
3.815534461400036
 20
-48.07691363652777
 30
0.0
 10
4.570243262623555
 20
-48.286762896723
 30
0.0
 10
5.319365686590468
 20
-48.53435306829593
 30
0.0
 10
6.048604375177805
 20
-48.82595939273094
 30
0.0
 10
6.777843063765142
 20
-49.11756571716597
 30
0.0
 10
7.487198016973224
 20
-49.45318819446211
 30
0.0
 10
8.162371876678758
 20
-49.83910206610413
 30
0.0
 10
8.837545736384294
 20
-50.22501593774582
 30
0.0
 10
9.478538502587282
 20
-50.66122120373272
 30
0.0
 10
10.07105281716475
 20
-51.15399310554893
 30
0.0
 10
10.75483941550545
 20
-51.72267273777148
 30
0.0
 10
11.38797769234092
 20
-52.27619853950221
 30
0.0
 10
11.9890834242264
 20
-52.81023512143909
 30
0.0
 10
12.59018915611188
 20
-53.34427170337595
 30
0.0
 10
13.15926234304738
 20
-53.85881906551896
 30
0.0
 10
13.7149187615878
 20
-54.34954181856606
 30
0.0
 10
14.27057518012821
 20
-54.84026457161315
 30
0.0
 10
14.81281483027323
 20
-55.30716271556496
 30
0.0
 10
15.36025348857841
 20
-55.74590086111881
 30
0.0
 10
15.90769214688326
 20
-56.18463900667265
 30
0.0
 10
16.46032981334795
 20
-56.59521715382885
 30
0.0
 10
17.03678226452739
 20
-56.97329991328566
 30
0.0
 10
17.61323471570682
 20
-57.35138267274247
 30
0.0
 10
18.21350195160068
 20
-57.69697004449989
 30
0.0
 10
18.85619974876452
 20
-58.00572663925588
 30
0.0
 10
19.49889754592804
 20
-58.31448323401187
 30
0.0
 10
20.18402590436121
 20
-58.58640905176641
 30
0.0
 10
20.93020060061864
 20
-58.81716870321779
 30
0.0
 10
21.67637529687606
 20
-59.04792835466917
 30
0.0
 10
22.48359633095805
 20
-59.23752183981737
 30
0.0
 10
23.37047947941921
 20
-59.38161376936034
 30
0.0
 10
24.25736262788036
 20
-59.52570569890332
 30
0.0
 10
25.22390789072067
 20
-59.6242960728414
 30
0.0
 10
26.28873104449538
 20
-59.67304950187251
 30
0.0
 10
26.55339579583756
 20
-59.68516730202153
 30
0.0
 10
26.89908998982779
 20
-59.69640265768218
 30
0.0
 10
27.31353713453187
 20
-59.70681285399923
 30
0.0
 10
27.72798427923628
 20
-59.7172230503166
 30
0.0
 10
28.21118437465485
 20
-59.72680808729071
 30
0.0
 10
28.75086092885434
 20
-59.73562525006697
 30
0.0
 10
29.29053748305382
 20
-59.74444241284322
 30
0.0
 10
29.88669049603424
 20
-59.75249170142196
 30
0.0
 10
30.527043475862
 20
-59.75983040094796
 30
0.0
 10
31.16739645568977
 20
-59.76716910047428
 30
0.0
 10
31.8519494023652
 20
-59.7737972109482
 30
0.0
 10
32.56842582395411
 20
-59.77977201751544
 30
0.0
 10
33.28490224554301
 20
-59.78574682408269
 30
0.0
 10
34.03330214204634
 20
-59.79106832674295
 30
0.0
 10
34.80134902152988
 20
-59.79579381064197
 30
0.0
 10
35.56939590101343
 20
-59.800519294541
 30
0.0
 10
36.35708976347751
 20
-59.80464875967879
 30
0.0
 10
37.15215411698856
 20
-59.80823949120078
 30
0.0
 10
37.94721847049994
 20
-59.81183022272277
 30
0.0
 10
38.74965331505829
 20
-59.81488222062863
 30
0.0
 10
39.54718215873036
 20
-59.81745277006411
 30
0.0
 10
40.34471100240211
 20
-59.82002331949992
 30
0.0
 10
41.13733384518758
 20
-59.82211242046503
 30
0.0
 10
41.91277419515352
 20
-59.82377735810518
 30
0.0
  0
SPLINE
  5
53
330
1F
100
AcDbEntity
  8
LAYER_5
 62
   250
100
AcDbSpline
210
0.0
220
0.0
230
1.0
 70
     8
 71
     3
 72
   101
 73
    97
 74
     0
 42
0.0000000001
 43
0.0000000001
 12
1.0
 22
0.0
 32
0.0
 13
1.0
 23
0.0
 33
0.0
 40
0.0
 40
0.0
 40
0.0
 40
0.0
 40
1.0
 40
1.0
 40
1.0
 40
2.0
 40
2.0
 40
2.0
 40
3.0
 40
3.0
 40
3.0
 40
4.0
 40
4.0
 40
4.0
 40
5.0
 40
5.0
 40
5.0
 40
6.0
 40
6.0
 40
6.0
 40
7.0
 40
7.0
 40
7.0
 40
8.0
 40
8.0
 40
8.0
 40
9.0
 40
9.0
 40
9.0
 40
10.0
 40
10.0
 40
10.0
 40
11.0
 40
11.0
 40
11.0
 40
12.0
 40
12.0
 40
12.0
 40
13.0
 40
13.0
 40
13.0
 40
14.0
 40
14.0
 40
14.0
 40
15.0
 40
15.0
 40
15.0
 40
16.0
 40
16.0
 40
16.0
 40
17.0
 40
17.0
 40
17.0
 40
18.0
 40
18.0
 40
18.0
 40
19.0
 40
19.0
 40
19.0
 40
20.0
 40
20.0
 40
20.0
 40
21.0
 40
21.0
 40
21.0
 40
22.0
 40
22.0
 40
22.0
 40
23.0
 40
23.0
 40
23.0
 40
24.0
 40
24.0
 40
24.0
 40
25.0
 40
25.0
 40
25.0
 40
26.0
 40
26.0
 40
26.0
 40
27.0
 40
27.0
 40
27.0
 40
28.0
 40
28.0
 40
28.0
 40
29.0
 40
29.0
 40
29.0
 40
30.0
 40
30.0
 40
30.0
 40
31.0
 40
31.0
 40
31.0
 40
32.0
 40
32.0
 40
32.0
 40
32.0
 10
-13.60078803663337
 20
-45.28679710575548
 30
0.0
 10
-13.60078803663337
 20
-45.28679710575548
 30
0.0
 10
-13.50304564501077
 20
-45.28564496692157
 30
0.0
 10
-13.32963636418929
 20
-45.28357310516169
 30
0.0
 10
-13.1562270833675
 20
-45.28150124340149
 30
0.0
 10
-12.90715091334682
 20
-45.27850965871564
 30
0.0
 10
-12.60448335654971
 20
-45.27483076701145
 30
0.0
 10
-12.3018157997526
 20
-45.27115187530759
 30
0.0
 10
-11.94555685617969
 20
-45.26678567658537
 30
0.0
 10
-11.55778202825406
 20
-45.26196458675339
 30
0.0
 10
-11.17000720032843
 20
-45.2571434969211
 30
0.0
 10
-10.75071648805009
 20
-45.25186751597872
 30
0.0
 10
-10.3219853938421
 20
-45.24636905983422
 30
0.0
 10
-9.893254299634123
 20
-45.2408706036897
 30
0.0
 10
-9.455082823496824
 20
-45.23514967234305
 30
0.0
 10
-9.029546467853288
 20
-45.22943868170221
 30
0.0
 10
-8.604010112209753
 20
-45.22372769106136
 30
0.0
 10
-8.191108877059659
 20
-45.218026641126
 30
0.0
 10
-7.81291826482673
 20
-45.21256794780471
 30
0.0
 10
-7.43472765259348
 20
-45.20710925448343
 30
0.0
 10
-7.091247663277394
 20
-45.20189291777557
 30
0.0
 10
-6.804553799301873
 20
-45.19715135358972
 30
0.0
 10
-6.51785993532571
 20
-45.19240978940356
 30
0.0
 10
-6.287952196690112
 20
-45.18814299773941
 30
0.0
 10
-6.136906085818159
 20
-45.18458339450457
 30
0.0
 10
-5.683767465103814
 20
-45.17390457801089
 30
0.0
 10
-5.164728431031222
 20
-45.16959046547736
 30
0.0
 10
-4.594086341723352
 20
-45.17791629838679
 30
0.0
 10
-4.023444252415483
 20
-45.18624213129655
 30
0.0
 10
-3.401199107872015
 20
-45.20720790964926
 30
0.0
 10
-2.741648266216241
 20
-45.24708887492933
 30
0.0
 10
-2.082097424560467
 20
-45.28696984020939
 30
0.0
 10
-1.385240885792387
 20
-45.34576599241651
 30
0.0
 10
-0.6653760080346502
 20
-45.42975257303443
 30
0.0
 10
0.0544888697227659
 20
-45.51373915365203
 30
0.0
 10
0.7973620864698387
 20
-45.62291616268044
 30
0.0
 10
1.548946284083277
 20
-45.76355884160341
 30
0.0
 10
2.300530481696715
 20
-45.90420152052639
 30
0.0
 10
3.060825660176838
 20
-46.07630986934329
 30
0.0
 10
3.815534461400036
 20
-46.28615912953852
 30
0.0
 10
4.570243262623555
 20
-46.49600838973375
 30
0.0
 10
5.319365686590468
 20
-46.74359856130668
 30
0.0
 10
6.048604375177805
 20
-47.0352048857417
 30
0.0
 10
6.777843063765142
 20
-47.32681121017671
 30
0.0
 10
7.487198016973224
 20
-47.66243368747287
 30
0.0
 10
8.162371876678758
 20
-48.04834755911488
 30
0.0
 10
8.837545736384294
 20
-48.43426143075657
 30
0.0
 10
9.478538502587282
 20
-48.87046669674348
 30
0.0
 10
10.07105281716475
 20
-49.36323859855968
 30
0.0
 10
10.75483941550545
 20
-49.93191823078223
 30
0.0
 10
11.38797769234092
 20
-50.48544403251297
 30
0.0
 10
11.9890834242264
 20
-51.01948061444983
 30
0.0
 10
12.59018915611188
 20
-51.55351719638671
 30
0.0
 10
13.15926234304738
 20
-52.06806455852972
 30
0.0
 10
13.7149187615878
 20
-52.55878731157681
 30
0.0
 10
14.27057518012821
 20
-53.0495100646239
 30
0.0
 10
14.81281483027323
 20
-53.51640820857572
 30
0.0
 10
15.36025348857841
 20
-53.95514635412956
 30
0.0
 10
15.90769214688326
 20
-54.39388449968341
 30
0.0
 10
16.46032981334795
 20
-54.8044626468396
 30
0.0
 10
17.03678226452739
 20
-55.18254540629641
 30
0.0
 10
17.61323471570682
 20
-55.56062816575322
 30
0.0
 10
18.21350195160068
 20
-55.90621553751064
 30
0.0
 10
18.85619974876452
 20
-56.21497213226663
 30
0.0
 10
19.49889754592804
 20
-56.52372872702261
 30
0.0
 10
20.18402590436121
 20
-56.79565454477716
 30
0.0
 10
20.93020060061864
 20
-57.02641419622854
 30
0.0
 10
21.67637529687606
 20
-57.25717384767992
 30
0.0
 10
22.48359633095805
 20
-57.44676733282812
 30
0.0
 10
23.37047947941921
 20
-57.5908592623711
 30
0.0
 10
24.25736262788036
 20
-57.73495119191408
 30
0.0
 10
25.22390789072067
 20
-57.83354156585215
 30
0.0
 10
26.28873104449538
 20
-57.88229499488326
 30
0.0
 10
26.53684721114514
 20
-57.89365511029713
 30
0.0
 10
26.85751214558099
 20
-57.90423968373133
 30
0.0
 10
27.24012585822307
 20
-57.91409591267449
 30
0.0
 10
27.62273957086547
 20
-57.92395214161797
 30
0.0
 10
28.06730206171411
 20
-57.93308002607073
 30
0.0
 10
28.56321334119075
 20
-57.94152676352138
 30
0.0
 10
29.05912462066707
 20
-57.94997350097236
 30
0.0
 10
29.60638468877074
 20
-57.95773909142154
 30
0.0
 10
30.19439355592289
 20
-57.9648707323582
 30
0.0
 10
30.78240242307504
 20
-57.97200237329454
 30
0.0
 10
31.41116008927535
 20
-57.97850006471835
 30
0.0
 10
32.07006656494493
 20
-57.98441100411858
 30
0.0
 10
32.72897304061451
 20
-57.99032194351848
 30
0.0
 10
33.41802832575305
 20
-57.99564613089512
 30
0.0
 10
34.12663243078134
 20
-58.00043076373679
 30
0.0
 10
34.83523653580963
 20
-58.00521539657846
 30
0.0
 10
35.56338946072831
 20
-58.00946047488581
 30
0.0
 10
36.30049121595722
 20
-58.01321319614711
 30
0.0
 10
37.03759297118614
 20
-58.01696591740842
 30
0.0
 10
37.78364355672625
 20
-58.02022628162435
 30
0.0
 10
38.5280429829977
 20
-58.02304148628382
 30
0.0
 10
39.27244240926884
 20
-58.02585669094297
 30
0.0
 10
40.01519067627197
 20
-58.02822673604566
 30
0.0
 10
40.74568779442725
 20
-58.03019881908052
 30
0.0
  0
SPLINE
  5
54
330
1F
100
AcDbEntity
  8
LAYER_5
 62
   250
100
AcDbSpline
210
0.0
220
0.0
230
1.0
 70
     8
 71
     3
 72
   101
 73
    97
 74
     0
 42
0.0000000001
 43
0.0000000001
 12
1.0
 22
0.0
 32
0.0
 13
1.0
 23
0.0
 33
0.0
 40
0.0
 40
0.0
 40
0.0
 40
0.0
 40
1.0
 40
1.0
 40
1.0
 40
2.0
 40
2.0
 40
2.0
 40
3.0
 40
3.0
 40
3.0
 40
4.0
 40
4.0
 40
4.0
 40
5.0
 40
5.0
 40
5.0
 40
6.0
 40
6.0
 40
6.0
 40
7.0
 40
7.0
 40
7.0
 40
8.0
 40
8.0
 40
8.0
 40
9.0
 40
9.0
 40
9.0
 40
10.0
 40
10.0
 40
10.0
 40
11.0
 40
11.0
 40
11.0
 40
12.0
 40
12.0
 40
12.0
 40
13.0
 40
13.0
 40
13.0
 40
14.0
 40
14.0
 40
14.0
 40
15.0
 40
15.0
 40
15.0
 40
16.0
 40
16.0
 40
16.0
 40
17.0
 40
17.0
 40
17.0
 40
18.0
 40
18.0
 40
18.0
 40
19.0
 40
19.0
 40
19.0
 40
20.0
 40
20.0
 40
20.0
 40
21.0
 40
21.0
 40
21.0
 40
22.0
 40
22.0
 40
22.0
 40
23.0
 40
23.0
 40
23.0
 40
24.0
 40
24.0
 40
24.0
 40
25.0
 40
25.0
 40
25.0
 40
26.0
 40
26.0
 40
26.0
 40
27.0
 40
27.0
 40
27.0
 40
28.0
 40
28.0
 40
28.0
 40
29.0
 40
29.0
 40
29.0
 40
30.0
 40
30.0
 40
30.0
 40
31.0
 40
31.0
 40
31.0
 40
32.0
 40
32.0
 40
32.0
 40
32.0
 10
-13.60078803663337
 20
-43.49604259876623
 30
0.0
 10
-13.60078803663337
 20
-43.49604259876623
 30
0.0
 10
-13.50304564501077
 20
-43.49489045993232
 30
0.0
 10
-13.32963636418929
 20
-43.49281859817244
 30
0.0
 10
-13.1562270833675
 20
-43.49074673641224
 30
0.0
 10
-12.90715091334682
 20
-43.4877551517264
 30
0.0
 10
-12.60448335654971
 20
-43.48407626002221
 30
0.0
 10
-12.3018157997526
 20
-43.48039736831834
 30
0.0
 10
-11.94555685617969
 20
-43.47603116959613
 30
0.0
 10
-11.55778202825406
 20
-43.47121007976415
 30
0.0
 10
-11.17000720032843
 20
-43.46638898993185
 30
0.0
 10
-10.75071648805009
 20
-43.46111300898948
 30
0.0
 10
-10.3219853938421
 20
-43.45561455284496
 30
0.0
 10
-9.893254299634123
 20
-43.45011609670046
 30
0.0
 10
-9.455082823496824
 20
-43.4443951653538
 30
0.0
 10
-9.029546467853288
 20
-43.43868417471296
 30
0.0
 10
-8.604010112209753
 20
-43.43297318407212
 30
0.0
 10
-8.191108877059659
 20
-43.42727213413676
 30
0.0
 10
-7.81291826482673
 20
-43.42181344081547
 30
0.0
 10
-7.43472765259348
 20
-43.41635474749418
 30
0.0
 10
-7.091247663277394
 20
-43.41113841078632
 30
0.0
 10
-6.804553799301873
 20
-43.40639684660048
 30
0.0
 10
-6.51785993532571
 20
-43.40165528241431
 30
0.0
 10
-6.287952196690112
 20
-43.39738849075016
 30
0.0
 10
-6.136906085818159
 20
-43.39382888751533
 30
0.0
 10
-5.683767465103814
 20
-43.38315007102164
 30
0.0
 10
-5.164728431031222
 20
-43.37883595848811
 30
0.0
 10
-4.594086341723352
 20
-43.38716179139755
 30
0.0
 10
-4.023444252415483
 20
-43.39548762430729
 30
0.0
 10
-3.401199107872015
 20
-43.41645340266
 30
0.0
 10
-2.741648266216241
 20
-43.45633436794008
 30
0.0
 10
-2.082097424560467
 20
-43.49621533322015
 30
0.0
 10
-1.385240885792387
 20
-43.55501148542726
 30
0.0
 10
-0.6653760080346502
 20
-43.63899806604518
 30
0.0
 10
0.0544888697227659
 20
-43.72298464666279
 30
0.0
 10
0.7973620864698387
 20
-43.83216165569119
 30
0.0
 10
1.548946284083277
 20
-43.97280433461417
 30
0.0
 10
2.300530481696715
 20
-44.11344701353714
 30
0.0
 10
3.060825660176838
 20
-44.28555536235404
 30
0.0
 10
3.815534461400036
 20
-44.49540462254927
 30
0.0
 10
4.570243262623555
 20
-44.70525388274451
 30
0.0
 10
5.319365686590468
 20
-44.95284405431743
 30
0.0
 10
6.048604375177805
 20
-45.24445037875245
 30
0.0
 10
6.777843063765142
 20
-45.53605670318747
 30
0.0
 10
7.487198016973224
 20
-45.87167918048362
 30
0.0
 10
8.162371876678758
 20
-46.25759305212564
 30
0.0
 10
8.837545736384294
 20
-46.64350692376733
 30
0.0
 10
9.478538502587282
 20
-47.07971218975423
 30
0.0
 10
10.07105281716475
 20
-47.57248409157044
 30
0.0
 10
10.75483941550545
 20
-48.14116372379299
 30
0.0
 10
11.38797769234092
 20
-48.69468952552371
 30
0.0
 10
11.9890834242264
 20
-49.22872610746059
 30
0.0
 10
12.59018915611188
 20
-49.76276268939746
 30
0.0
 10
13.15926234304738
 20
-50.27731005154047
 30
0.0
 10
13.7149187615878
 20
-50.76803280458756
 30
0.0
 10
14.27057518012821
 20
-51.25875555763465
 30
0.0
 10
14.81281483027323
 20
-51.72565370158647
 30
0.0
 10
15.36025348857841
 20
-52.16439184714032
 30
0.0
 10
15.90769214688326
 20
-52.60312999269416
 30
0.0
 10
16.46032981334795
 20
-53.01370813985035
 30
0.0
 10
17.03678226452739
 20
-53.39179089930716
 30
0.0
 10
17.61323471570682
 20
-53.76987365876397
 30
0.0
 10
18.21350195160068
 20
-54.1154610305214
 30
0.0
 10
18.85619974876452
 20
-54.42421762527739
 30
0.0
 10
19.49889754592804
 20
-54.73297422003337
 30
0.0
 10
20.18402590436121
 20
-55.00490003778792
 30
0.0
 10
20.93020060061864
 20
-55.23565968923929
 30
0.0
 10
21.67637529687606
 20
-55.46641934069067
 30
0.0
 10
22.48359633095805
 20
-55.65601282583887
 30
0.0
 10
23.37047947941921
 20
-55.80010475538185
 30
0.0
 10
24.25736262788036
 20
-55.94419668492483
 30
0.0
 10
25.22390789072067
 20
-56.0427870588629
 30
0.0
 10
26.28873104449538
 20
-56.09154048789402
 30
0.0
 10
26.51846346002688
 20
-56.1020588946144
 30
0.0
 10
26.81196529796624
 20
-56.11191242673264
 30
0.0
 10
27.16025411905936
 20
-56.12113854880086
 30
0.0
 10
27.50854294015216
 20
-56.13036467086877
 30
0.0
 10
27.91161874439808
 20
-56.13896338288665
 30
0.0
 10
28.36049909254205
 20
-56.14697214940632
 30
0.0
 10
28.80937944068602
 20
-56.15498091592599
 30
0.0
 10
29.30406433272836
 20
-56.16239973694712
 30
0.0
 10
29.83557132941304
 20
-56.16926607702217
 30
0.0
 10
30.36707832609771
 20
-56.17613241709721
 30
0.0
 10
30.93540742742537
 20
-56.18244627622585
 30
0.0
 10
31.53157619414094
 20
-56.18824511895988
 30
0.0
 10
32.12774496085619
 20
-56.19404396169391
 30
0.0
 10
32.75175339295936
 20
-56.19932778803398
 30
0.0
 10
33.39461905119472
 20
-56.20413406253094
 30
0.0
 10
34.03748470943041
 20
-56.20894033702854
 30
0.0
 10
34.69920759379862
 20
-56.21326905968301
 30
0.0
 10
35.37080526504429
 20
-56.21715769504746
 30
0.0
 10
36.04240293628995
 20
-56.22104633041159
 30
0.0
 10
36.72387539441307
 20
-56.22449487848505
 30
0.0
 10
37.40624020015826
 20
-56.22754080382028
 30
0.0
 10
38.08860500590377
 20
-56.23058672915519
 30
0.0
 10
38.77186215927134
 20
-56.23323003175156
 30
0.0
 10
39.44702922100591
 20
-56.23550817616087
 30
0.0
  0
SPLINE
  5
55
330
1F
100
AcDbEntity
  8
LAYER_5
 62
   250
100
AcDbSpline
210
0.0
220
0.0
230
1.0
 70
     8
 71
     3
 72
   101
 73
    97
 74
     0
 42
0.0000000001
 43
0.0000000001
 12
1.0
 22
0.0
 32
0.0
 13
1.0
 23
0.0
 33
0.0
 40
0.0
 40
0.0
 40
0.0
 40
0.0
 40
1.0
 40
1.0
 40
1.0
 40
2.0
 40
2.0
 40
2.0
 40
3.0
 40
3.0
 40
3.0
 40
4.0
 40
4.0
 40
4.0
 40
5.0
 40
5.0
 40
5.0
 40
6.0
 40
6.0
 40
6.0
 40
7.0
 40
7.0
 40
7.0
 40
8.0
 40
8.0
 40
8.0
 40
9.0
 40
9.0
 40
9.0
 40
10.0
 40
10.0
 40
10.0
 40
11.0
 40
11.0
 40
11.0
 40
12.0
 40
12.0
 40
12.0
 40
13.0
 40
13.0
 40
13.0
 40
14.0
 40
14.0
 40
14.0
 40
15.0
 40
15.0
 40
15.0
 40
16.0
 40
16.0
 40
16.0
 40
17.0
 40
17.0
 40
17.0
 40
18.0
 40
18.0
 40
18.0
 40
19.0
 40
19.0
 40
19.0
 40
20.0
 40
20.0
 40
20.0
 40
21.0
 40
21.0
 40
21.0
 40
22.0
 40
22.0
 40
22.0
 40
23.0
 40
23.0
 40
23.0
 40
24.0
 40
24.0
 40
24.0
 40
25.0
 40
25.0
 40
25.0
 40
26.0
 40
26.0
 40
26.0
 40
27.0
 40
27.0
 40
27.0
 40
28.0
 40
28.0
 40
28.0
 40
29.0
 40
29.0
 40
29.0
 40
30.0
 40
30.0
 40
30.0
 40
31.0
 40
31.0
 40
31.0
 40
32.0
 40
32.0
 40
32.0
 40
32.0
 10
-13.60078803663337
 20
-41.70528809177699
 30
0.0
 10
-13.60078803663337
 20
-41.70528809177699
 30
0.0
 10
-13.50304564501077
 20
-41.70413595294307
 30
0.0
 10
-13.32963636418929
 20
-41.7020640911832
 30
0.0
 10
-13.1562270833675
 20
-41.699992229423
 30
0.0
 10
-12.90715091334682
 20
-41.69700064473715
 30
0.0
 10
-12.60448335654971
 20
-41.69332175303296
 30
0.0
 10
-12.3018157997526
 20
-41.68964286132909
 30
0.0
 10
-11.94555685617969
 20
-41.68527666260687
 30
0.0
 10
-11.55778202825406
 20
-41.6804555727749
 30
0.0
 10
-11.17000720032843
 20
-41.67563448294261
 30
0.0
 10
-10.75071648805009
 20
-41.67035850200023
 30
0.0
 10
-10.3219853938421
 20
-41.66486004585572
 30
0.0
 10
-9.893254299634123
 20
-41.6593615897112
 30
0.0
 10
-9.455082823496824
 20
-41.65364065836456
 30
0.0
 10
-9.029546467853288
 20
-41.64792966772372
 30
0.0
 10
-8.604010112209753
 20
-41.64221867708287
 30
0.0
 10
-8.191108877059659
 20
-41.63651762714751
 30
0.0
 10
-7.81291826482673
 20
-41.63105893382622
 30
0.0
 10
-7.43472765259348
 20
-41.62560024050494
 30
0.0
 10
-7.091247663277394
 20
-41.62038390379708
 30
0.0
 10
-6.804553799301873
 20
-41.61564233961123
 30
0.0
 10
-6.51785993532571
 20
-41.61090077542507
 30
0.0
 10
-6.287952196690112
 20
-41.60663398376091
 30
0.0
 10
-6.136906085818159
 20
-41.60307438052608
 30
0.0
 10
-5.683767465103814
 20
-41.59239556403239
 30
0.0
 10
-5.164728431031222
 20
-41.58808145149887
 30
0.0
 10
-4.594086341723352
 20
-41.59640728440829
 30
0.0
 10
-4.023444252415483
 20
-41.60473311731805
 30
0.0
 10
-3.401199107872015
 20
-41.62569889567076
 30
0.0
 10
-2.741648266216241
 20
-41.66557986095083
 30
0.0
 10
-2.082097424560467
 20
-41.7054608262309
 30
0.0
 10
-1.385240885792387
 20
-41.76425697843802
 30
0.0
 10
-0.6653760080346502
 20
-41.84824355905594
 30
0.0
 10
0.0544888697227659
 20
-41.93223013967354
 30
0.0
 10
0.7973620864698387
 20
-42.04140714870194
 30
0.0
 10
1.548946284083277
 20
-42.18204982762492
 30
0.0
 10
2.300530481696715
 20
-42.3226925065479
 30
0.0
 10
3.060825660176838
 20
-42.49480085536479
 30
0.0
 10
3.815534461400036
 20
-42.70465011556003
 30
0.0
 10
4.570243262623555
 20
-42.91449937575526
 30
0.0
 10
5.319365686590468
 20
-43.16208954732819
 30
0.0
 10
6.048604375177805
 20
-43.4536958717632
 30
0.0
 10
6.777843063765142
 20
-43.74530219619822
 30
0.0
 10
7.487198016973224
 20
-44.08092467349437
 30
0.0
 10
8.162371876678758
 20
-44.46683854513638
 30
0.0
 10
8.837545736384294
 20
-44.85275241677807
 30
0.0
 10
9.478538502587282
 20
-45.28895768276498
 30
0.0
 10
10.07105281716475
 20
-45.78172958458119
 30
0.0
 10
10.75483941550545
 20
-46.35040921680373
 30
0.0
 10
11.38797769234092
 20
-46.90393501853447
 30
0.0
 10
11.9890834242264
 20
-47.43797160047134
 30
0.0
 10
12.59018915611188
 20
-47.97200818240822
 30
0.0
 10
13.15926234304738
 20
-48.48655554455122
 30
0.0
 10
13.7149187615878
 20
-48.97727829759832
 30
0.0
 10
14.27057518012821
 20
-49.46800105064541
 30
0.0
 10
14.81281483027323
 20
-49.93489919459722
 30
0.0
 10
15.36025348857841
 20
-50.37363734015106
 30
0.0
 10
15.90769214688326
 20
-50.81237548570491
 30
0.0
 10
16.46032981334795
 20
-51.22295363286111
 30
0.0
 10
17.03678226452739
 20
-51.60103639231792
 30
0.0
 10
17.61323471570682
 20
-51.97911915177473
 30
0.0
 10
18.21350195160068
 20
-52.32470652353215
 30
0.0
 10
18.85619974876452
 20
-52.63346311828813
 30
0.0
 10
19.49889754592804
 20
-52.94221971304412
 30
0.0
 10
20.18402590436121
 20
-53.21414553079867
 30
0.0
 10
20.93020060061864
 20
-53.44490518225005
 30
0.0
 10
21.67637529687606
 20
-53.67566483370143
 30
0.0
 10
22.48359633095805
 20
-53.86525831884963
 30
0.0
 10
23.37047947941921
 20
-54.0093502483926
 30
0.0
 10
24.25736262788036
 20
-54.15344217793558
 30
0.0
 10
25.22390789072067
 20
-54.25203255187365
 30
0.0
 10
26.28873104449538
 20
-54.30078598090476
 30
0.0
 10
26.49739665432571
 20
-54.31033983401544
 30
0.0
 10
26.76060161687838
 20
-54.31934516147303
 30
0.0
 10
27.0709241190616
 20
-54.32783003740963
 30
0.0
 10
27.38124662124483
 20
-54.33631491334656
 30
0.0
 10
27.73868666305861
 20
-54.34427933776251
 30
0.0
 10
28.13582243141149
 20
-54.35175138478993
 30
0.0
 10
28.53295819976438
 20
-54.35922343181735
 30
0.0
 10
28.96978969465604
 20
-54.36620310145623
 30
0.0
 10
29.43889510299503
 20
-54.37271846783903
 30
0.0
 10
29.90800051133402
 20
-54.3792338342215
 30
0.0
 10
30.40937983312033
 20
-54.38528489734821
 30
0.0
 10
30.9356112552625
 20
-54.39089973135096
 30
0.0
 10
31.46184267740468
 20
-54.3965145653537
 30
0.0
 10
32.0129261999024
 20
-54.40169317023248
 30
0.0
 10
32.58144000966421
 20
-54.40646362011973
 30
0.0
 10
33.14995381942634
 20
-54.41123407000699
 30
0.0
 10
33.73589791645191
 20
-54.41559636490305
 30
0.0
 10
34.33185048765043
 20
-54.41957857893938
 30
0.0
 10
34.92780305884895
 20
-54.42356079297571
 30
0.0
 10
35.53376410421978
 20
-54.42716292615297
 30
0.0
 10
36.14231181067115
 20
-54.4304130526036
 30
0.0
 10
36.75085951712283
 20
-54.4336631790539
 30
0.0
 10
37.36199388465504
 20
-54.43656129877725
 30
0.0
 10
37.96829310017664
 20
-54.43913548590609
 30
0.0
  0
SPLINE
  5
56
330
1F
100
AcDbEntity
  8
LAYER_5
 62
   250
100
AcDbSpline
210
0.0
220
0.0
230
1.0
 70
     8
 71
     3
 72
   101
 73
    97
 74
     0
 42
0.0000000001
 43
0.0000000001
 12
1.0
 22
0.0
 32
0.0
 13
1.0
 23
0.0
 33
0.0
 40
0.0
 40
0.0
 40
0.0
 40
0.0
 40
1.0
 40
1.0
 40
1.0
 40
2.0
 40
2.0
 40
2.0
 40
3.0
 40
3.0
 40
3.0
 40
4.0
 40
4.0
 40
4.0
 40
5.0
 40
5.0
 40
5.0
 40
6.0
 40
6.0
 40
6.0
 40
7.0
 40
7.0
 40
7.0
 40
8.0
 40
8.0
 40
8.0
 40
9.0
 40
9.0
 40
9.0
 40
10.0
 40
10.0
 40
10.0
 40
11.0
 40
11.0
 40
11.0
 40
12.0
 40
12.0
 40
12.0
 40
13.0
 40
13.0
 40
13.0
 40
14.0
 40
14.0
 40
14.0
 40
15.0
 40
15.0
 40
15.0
 40
16.0
 40
16.0
 40
16.0
 40
17.0
 40
17.0
 40
17.0
 40
18.0
 40
18.0
 40
18.0
 40
19.0
 40
19.0
 40
19.0
 40
20.0
 40
20.0
 40
20.0
 40
21.0
 40
21.0
 40
21.0
 40
22.0
 40
22.0
 40
22.0
 40
23.0
 40
23.0
 40
23.0
 40
24.0
 40
24.0
 40
24.0
 40
25.0
 40
25.0
 40
25.0
 40
26.0
 40
26.0
 40
26.0
 40
27.0
 40
27.0
 40
27.0
 40
28.0
 40
28.0
 40
28.0
 40
29.0
 40
29.0
 40
29.0
 40
30.0
 40
30.0
 40
30.0
 40
31.0
 40
31.0
 40
31.0
 40
32.0
 40
32.0
 40
32.0
 40
32.0
 10
-13.60078803663337
 20
-39.91453358478806
 30
0.0
 10
-13.60078803663337
 20
-39.91453358478806
 30
0.0
 10
-13.50304564501077
 20
-39.91338144595414
 30
0.0
 10
-13.32963636418929
 20
-39.91130958419394
 30
0.0
 10
-13.1562270833675
 20
-39.90923772243407
 30
0.0
 10
-12.90715091334682
 20
-39.90624613774823
 30
0.0
 10
-12.60448335654971
 20
-39.90256724604404
 30
0.0
 10
-12.3018157997526
 20
-39.89888835433985
 30
0.0
 10
-11.94555685617969
 20
-39.89452215561795
 30
0.0
 10
-11.55778202825406
 20
-39.88970106578565
 30
0.0
 10
-11.17000720032843
 20
-39.88487997595336
 30
0.0
 10
-10.75071648805009
 20
-39.87960399501098
 30
0.0
 10
-10.3219853938421
 20
-39.87410553886647
 30
0.0
 10
-9.893254299634123
 20
-39.86860708272196
 30
0.0
 10
-9.455082823496824
 20
-39.86288615137531
 30
0.0
 10
-9.029546467853288
 20
-39.85717516073446
 30
0.0
 10
-8.604010112209753
 20
-39.85146417009362
 30
0.0
 10
-8.191108877059659
 20
-39.84576312015826
 30
0.0
 10
-7.81291826482673
 20
-39.84030442683697
 30
0.0
 10
-7.43472765259348
 20
-39.83484573351569
 30
0.0
 10
-7.091247663277394
 20
-39.82962939680815
 30
0.0
 10
-6.804553799301873
 20
-39.82488783262198
 30
0.0
 10
-6.51785993532571
 20
-39.82014626843614
 30
0.0
 10
-6.287952196690112
 20
-39.81587947677167
 30
0.0
 10
-6.136906085818159
 20
-39.81231987353715
 30
0.0
 10
-5.683767465103814
 20
-39.80164105704379
 30
0.0
 10
-5.164728431031222
 20
-39.79732694450994
 30
0.0
 10
-4.594086341723352
 20
-39.80565277741937
 30
0.0
 10
-4.023444252415483
 20
-39.81397861032912
 30
0.0
 10
-3.401199107872015
 20
-39.83494438868215
 30
0.0
 10
-2.741648266216241
 20
-39.87482535396222
 30
0.0
 10
-2.082097424560467
 20
-39.9147063192423
 30
0.0
 10
-1.385240885792387
 20
-39.97350247144909
 30
0.0
 10
-0.6653760080346502
 20
-40.05748905206701
 30
0.0
 10
0.0544888697227659
 20
-40.14147563268461
 30
0.0
 10
0.7973620864698387
 20
-40.25065264171334
 30
0.0
 10
1.548946284083277
 20
-40.39129532063599
 30
0.0
 10
2.300530481696715
 20
-40.53193799955864
 30
0.0
 10
3.060825660176838
 20
-40.70404634837587
 30
0.0
 10
3.815534461400036
 20
-40.9138956085711
 30
0.0
 10
4.570243262623555
 20
-41.12374486876633
 30
0.0
 10
5.319365686590468
 20
-41.37133504033958
 30
0.0
 10
6.048604375177805
 20
-41.66294136477428
 30
0.0
 10
6.777843063765142
 20
-41.95454768920897
 30
0.0
 10
7.487198016973224
 20
-42.29017016650577
 30
0.0
 10
8.162371876678758
 20
-42.67608403814746
 30
0.0
 10
8.837545736384294
 20
-43.06199790978915
 30
0.0
 10
9.478538502587282
 20
-43.49820317577637
 30
0.0
 10
10.07105281716475
 20
-43.99097507759227
 30
0.0
 10
10.75483941550545
 20
-44.55965470981513
 30
0.0
 10
11.38797769234092
 20
-45.11318051154554
 30
0.0
 10
11.9890834242264
 20
-45.64721709348242
 30
0.0
 10
12.59018915611188
 20
-46.18125367541897
 30
0.0
 10
13.15926234304738
 20
-46.69580103756198
 30
0.0
 10
13.7149187615878
 20
-47.18652379060907
 30
0.0
 10
14.27057518012821
 20
-47.67724654365616
 30
0.0
 10
14.81281483027323
 20
-48.14414468760798
 30
0.0
 10
15.36025348857841
 20
-48.58288283316182
 30
0.0
 10
15.90769214688326
 20
-49.02162097871567
 30
0.0
 10
16.46032981334795
 20
-49.43219912587185
 30
0.0
 10
17.03678226452739
 20
-49.81028188532866
 30
0.0
 10
17.61323471570682
 20
-50.18836464478547
 30
0.0
 10
18.21350195160068
 20
-50.53395201654291
 30
0.0
 10
18.85619974876452
 20
-50.84270861129889
 30
0.0
 10
19.49889754592804
 20
-51.15146520605487
 30
0.0
 10
20.18402590436121
 20
-51.42339102380942
 30
0.0
 10
20.93020060061864
 20
-51.6541506752608
 30
0.0
 10
21.67637529687606
 20
-51.88491032671249
 30
0.0
 10
22.48359633095805
 20
-52.0745038118607
 30
0.0
 10
23.37047947941921
 20
-52.21859574140367
 30
0.0
 10
24.25736262788036
 20
-52.36268767094698
 30
0.0
 10
25.22390789072067
 20
-52.46127804488505
 30
0.0
 10
26.28873104449538
 20
-52.51003147391584
 30
0.0
 10
26.4814746941285
 20
-52.51885633258868
 30
0.0
 10
26.72237033314861
 20
-52.52721318103617
 30
0.0
 10
27.00498476498226
 20
-52.53512414480152
 30
0.0
 10
27.28759919681624
 20
-52.5430351085672
 30
0.0
 10
27.61193242146377
 20
-52.55050018765073
 30
0.0
 10
27.97155124235207
 20
-52.557541507595
 30
0.0
 10
28.33117006324006
 20
-52.5645828275396
 30
0.0
 10
28.72607448036849
 20
-52.57120038834527
 30
0.0
 10
29.14983129716394
 20
-52.57741631555488
 30
0.0
 10
29.5735881139594
 20
-52.58363224276448
 30
0.0
 10
30.0261973304222
 20
-52.58944653637836
 30
0.0
 10
30.50122574997861
 20
-52.59488132193972
 30
0.0
 10
30.97625416953501
 20
-52.60031610750107
 30
0.0
 10
31.47370179218503
 20
-52.60537138500957
 30
0.0
 10
31.98713542135586
 20
-52.61006928000843
 30
0.0
 10
32.50056905052636
 20
-52.61476717500761
 30
0.0
 10
33.02998868621737
 20
-52.61910768749684
 30
0.0
 10
33.56896113185545
 20
-52.62311294301962
 30
0.0
 10
34.10793357749353
 20
-52.62711819854272
 30
0.0
 10
34.65645883307869
 20
-52.63078819709906
 30
0.0
 10
35.20810370203782
 20
-52.63414506423218
 30
0.0
 10
35.75974857099663
 20
-52.63750193136529
 30
0.0
 10
36.31451305332973
 20
-52.64054566707517
 30
0.0
 10
36.86596395246274
 20
-52.6432983969047
 30
0.0
  0
ENDSEC
  0
SECTION
  2
OBJECTS
  0
DICTIONARY
  5
C
330
0
100
AcDbDictionary
  3
ACAD_GROUP
350
D
  3
ACAD_LAYOUT
350
1A
  3
ACAD_MATERIAL
350
3B
  3
ACAD_MLEADERSTYLE
350
5B
  3
ACAD_MLINESTYLE
350
17
  3
ACAD_PLOTSETTINGS
350
19
  3
ACAD_VISUALSTYLE
350
2A
  3
ACDBVARIABLEDICTIONARY
350
59
1001
ACAD
1000
TREAT_AS_HARD
1070
     0
  0
DICTIONARY
  5
D
102
{ACAD_REACTORS
330
C
102
}
330
C
100
AcDbDictionary
1001
ACAD
1000
TREAT_AS_HARD
1070
     0
  0
DICTIONARY
  5
1A
102
{ACAD_REACTORS
330
C
102
}
330
C
100
AcDbDictionary
1001
ACAD
1000
TREAT_AS_HARD
1070
     0
  0
DICTIONARY
  5
3B
102
{ACAD_REACTORS
330
C
102
}
330
C
100
AcDbDictionary
  3
BYBLOCK
350
3D
  3
BYLAYER
350
3C
  3
GLOBAL
350
3E
1001
ACAD
1000
TREAT_AS_HARD
1070
     0
  0
DICTIONARY
  5
5B
102
{ACAD_REACTORS
330
C
102
}
330
C
100
AcDbDictionary
1001
ACAD
1000
TREAT_AS_HARD
1070
     0
  0
DICTIONARY
  5
17
102
{ACAD_REACTORS
330
C
102
}
330
C
100
AcDbDictionary
  3
STANDARD
350
18
1001
ACAD
1000
TREAT_AS_HARD
1070
     0
  0
DICTIONARY
  5
19
102
{ACAD_REACTORS
330
C
102
}
330
C
100
AcDbDictionary
1001
ACAD
1000
TREAT_AS_HARD
1070
     0
  0
DICTIONARY
  5
2A
102
{ACAD_REACTORS
330
C
102
}
330
C
100
AcDbDictionary
  3
2DWIREFRAME
350
2F
  3
3DWIREFRAME
350
30
  3
3D_HIDDEN
350
31
  3
BASIC
350
32
  3
BRIGHTEN
350
36
  3
COLORCHANGE
350
3A
  3
CONCEPTUAL
350
34
  3
DIM
350
35
  3
FACEPATTERN
350
39
  3
FLAT
350
2B
  3
FLATWITHEDGES
350
2C
  3
GOURAUD
350
2D
  3
GOURAUDWITHEDGES
350
2E
  3
LINEPATTERN
350
38
  3
REALISTIC
350
33
  3
THICKEN
350
37
1001
ACAD
1000
TREAT_AS_HARD
1070
     0
  0
DICTIONARY
  5
59
102
{ACAD_REACTORS
330
C
102
}
330
C
100
AcDbDictionary
  3
DIMASSOC
350
5C
  3
HIDETEXT
350
5D
1001
ACAD
1000
TREAT_AS_HARD
1070
     0
  0
MATERIAL
  5
3D
102
{ACAD_REACTORS
330
3B
102
}
102
{ACAD_XDICTIONARY
360
60
102
}
330
3B
100
AcDbMaterial
  1
ByBlock
  0
MATERIAL
  5
3C
102
{ACAD_REACTORS
330
3B
102
}
102
{ACAD_XDICTIONARY
360
5E
102
}
330
3B
100
AcDbMaterial
  1
ByLayer
  0
MATERIAL
  5
3E
102
{ACAD_REACTORS
330
3B
102
}
102
{ACAD_XDICTIONARY
360
62
102
}
330
3B
100
AcDbMaterial
  1
Global
  0
MLINESTYLE
  5
18
102
{ACAD_REACTORS
330
17
102
}
330
17
100
AcDbMlineStyle
  2
Standard
 70
     0
  3

 62
   256
 51
90.0
 52
90.0
 71
     2
 49
0.5
 62
   256
  6
BYLAYER
 49
-0.5
 62
   256
  6
BYLAYER
  0
ACAD_PROXY_OBJECT
  5
2F
102
{ACAD_REACTORS
330
2A
102
}
330
2A
100
AcDbZombieObject
 90
      499
 91
      501
 93
      436
310
42CC9915DA5C99599C985B595049028333333333333E3BF0000000000000FB0107901411070040501600405405064090741402480A0340
1001
ACAD
1000
AcDbSavedByObjectVersion
1070
     0
  0
ACAD_PROXY_OBJECT
  5
30
102
{ACAD_REACTORS
330
2A
102
}
330
2A
100
AcDbZombieObject
 90
      499
 91
      501
 93
      436
310
42CCD915DA5C99599C985B595059028333333333333E3BF0000000000000FB0107901411070040501600405405064090741402480A0340
1001
ACAD
1000
AcDbSavedByObjectVersion
1070
     0
  0
ACAD_PROXY_OBJECT
  5
31
102
{ACAD_REACTORS
330
2A
102
}
330
2A
100
AcDbZombieObject
 90
      499
 91
      501
 93
      500
310
424CD108121A5919195B90640502408333333333333E3BF0000000000000FB01079024090700405020000000000001110200405405064090740C02480A0340
1001
ACAD
1000
AcDbSavedByObjectVersion
1070
     0
  0
ACAD_PROXY_OBJECT
  5
32
102
{ACAD_REACTORS
330
2A
102
}
330
2A
100
AcDbZombieObject
 90
      499
 91
      501
 93
      388
310
4150985CDA58D07406404333333333333E3BF0000000000000FB0107A41107004050150841D405064090741402480A0350
1001
ACAD
1000
AcDbSavedByObjectVersion
1070
     0
  0
ACAD_PROXY_OBJECT
  5
36
102
{ACAD_REACTORS
330
2A
102
}
330
2A
100
AcDbZombieObject
 90
      499
 91
      501
 93
      428
310
42109C9A59DA1D195B90C409028333333333333E3BF0000000000000FB010790141107004050150841D405064090741402480A029950
1001
ACAD
1000
AcDbSavedByObjectVersion
1070
     0
  0
ACAD_PROXY_OBJECT
  5
3A
102
{ACAD_REACTORS
330
2A
102
}
330
2A
100
AcDbZombieObject
 90
      499
 91
      501
 93
      452
310
42D0DBDB1BDC90DA185B99D95104090240C333333333333E3BF0000000000000FB0108901411070040501508421405064090741402480A0350
1001
ACAD
1000
AcDbSavedByObjectVersion
1070
     0
  0
ACAD_PROXY_OBJECT
  5
34
102
{ACAD_REACTORS
330
2A
102
}
330
2A
100
AcDbZombieObject
 90
      499
 91
      501
 93
      500
310
4290DBDB98D95C1D1D585B10940D028333333333333E3BF0000000000000FB0107902409070040501000000000000111010841D405064090740C02480A0340
1001
ACAD
1000
AcDbSavedByObjectVersion
1070
     0
  0
ACAD_PROXY_OBJECT
  5
35
102
{ACAD_REACTORS
330
2A
102
}
330
2A
100
AcDbZombieObject
 90
      499
 91
      501
 93
      412
310
40D11A5B50B409028333333333333E3BF0000000000000FB010790141107004050150841D405064090741402480A02677FFFFFD0
1001
ACAD
1000
AcDbSavedByObjectVersion
1070
     0
  0
ACAD_PROXY_OBJECT
  5
39
102
{ACAD_REACTORS
330
2A
102
}
330
2A
100
AcDbZombieObject
 90
      499
 91
      501
 93
      444
310
42D19858D95C185D1D195C9B90F409028333333333333E3BF0000000000000FB010790141107004050150841D405064090741402480A0350
1001
ACAD
1000
AcDbSavedByObjectVersion
1070
     0
  0
ACAD_PROXY_OBJECT
  5
2B
102
{ACAD_REACTORS
330
2A
102
}
330
2A
100
AcDbZombieObject
 90
      499
 91
      501
 93
      388
310
41119B185D240901404333333333333E3BF0000000000000F9010740A41107004050150841D405064090741402480A1B50
1001
ACAD
1000
AcDbSavedByObjectVersion
1070
     0
  0
ACAD_PROXY_OBJECT
  5
2C
102
{ACAD_REACTORS
330
2A
102
}
330
2A
100
AcDbZombieObject
 90
      499
 91
      501
 93
      476
310
43519B185D15DA5D1A115919D95CD0140901404333333333333E3BF0000000000000F9010740901411070040501600405405064090741402480A1B50
1001
ACAD
1000
AcDbSavedByObjectVersion
1070
     0
  0
ACAD_PROXY_OBJECT
  5
2D
102
{ACAD_REACTORS
330
2A
102
}
330
2A
100
AcDbZombieObject
 90
      499
 91
      501
 93
      412
310
41D1DBDD5C985D5910240902404333333333333E3BF0000000000000F9010740A411070040501641D405064090741402480A1B50
1001
ACAD
1000
AcDbSavedByObjectVersion
1070
     0
  0
ACAD_PROXY_OBJECT
  5
2E
102
{ACAD_REACTORS
330
2A
102
}
330
2A
100
AcDbZombieObject
 90
      499
 91
      501
 93
      500
310
4411DBDD5C985D5915DA5D1A115919D95CD0340902404333333333333E3BF0000000000000F9010740901411070040501600405405064090741402480A1B50
1001
ACAD
1000
AcDbSavedByObjectVersion
1070
     0
  0
ACAD_PROXY_OBJECT
  5
38
102
{ACAD_REACTORS
330
2A
102
}
330
2A
100
AcDbZombieObject
 90
      499
 91
      501
 93
      444
310
42D31A5B995C185D1D195C9B90E409028333333333333E3BF0000000000000FB010790141107004050750841D405064090741402483A0350
1001
ACAD
1000
AcDbSavedByObjectVersion
1070
     0
  0
ACAD_PROXY_OBJECT
  5
33
102
{ACAD_REACTORS
330
2A
102
}
330
2A
100
AcDbZombieObject
 90
      499
 91
      501
 93
      420
310
425499585B1A5CDD1A58D08409028333333333333E3BF0000000000000FB01079019070040501508421405064090741402480A1B40
1001
ACAD
1000
AcDbSavedByObjectVersion
1070
     0
  0
ACAD_PROXY_OBJECT
  5
37
102
{ACAD_REACTORS
330
2A
102
}
330
2A
100
AcDbZombieObject
 90
      499
 91
      501
 93
      412
310
41D51A1A58DAD95B90D409028333333333333E3BF0000000000000FB010790141107004050150C41D405064090741402480A0350
1001
ACAD
1000
AcDbSavedByObjectVersion
1070
     0
  0
DICTIONARYVAR
  5
5C
102
{ACAD_REACTORS
330
59
102
}
330
59
100
DictionaryVariables
280
     0
  1
2
  0
DICTIONARYVAR
  5
5D
102
{ACAD_REACTORS
330
59
102
}
330
59
100
DictionaryVariables
280
     0
  1
1
  0
DICTIONARY
  5
60
330
3D
100
AcDbDictionary
  3
ACAD_XREC_ROUNDTRIP
360
61
1001
ACAD
1000
TREAT_AS_HARD
1070
     1
  0
DICTIONARY
  5
5E
330
3C
100
AcDbDictionary
  3
ACAD_XREC_ROUNDTRIP
360
5F
1001
ACAD
1000
TREAT_AS_HARD
1070
     1
  0
DICTIONARY
  5
62
330
3E
100
AcDbDictionary
  3
ACAD_XREC_ROUNDTRIP
360
63
1001
ACAD
1000
TREAT_AS_HARD
1070
     1
  0
XRECORD
  5
61
102
{ACAD_REACTORS
330
60
102
}
330
60
100
AcDbXrecord
102
MATERIAL
148
0.0
149
0.0
149
0.0
 93
        0
 94
      127
282
     0
 72
     1
 77
     1
171
     1
175
     1
179
     1
273
     0
  0
XRECORD
  5
5F
102
{ACAD_REACTORS
330
5E
102
}
330
5E
100
AcDbXrecord
102
MATERIAL
148
0.0
149
0.0
149
0.0
 93
        0
 94
      127
282
     0
 72
     1
 77
     1
171
     1
175
     1
179
     1
273
     0
  0
XRECORD
  5
63
102
{ACAD_REACTORS
330
62
102
}
330
62
100
AcDbXrecord
102
MATERIAL
148
0.0
149
0.0
149
0.0
 93
        0
 94
      127
282
     0
 72
     1
 77
     1
171
     1
175
     1
179
     1
273
     0
  0
ENDSEC
  0
EOF
