  0
SECTION
  2
HEADER
  9
$ACADVER
  1
AC1012
  9
$DWGCODEPAGE
  3
undefined
  9
$INSBASE
 10
0.0
 20
0.0
 30
0.0
  9
$EXTMIN
 10
1.000000000000000E+20
 20
1.000000000000000E+20
 30
1.000000000000000E+20
  9
$EXTMAX
 10
-1.000000000000000E+20
 20
-1.000000000000000E+20
 30
-1.000000000000000E+20
  9
$LIMMIN
 10
0.0
 20
0.0
  9
$LIMMAX
 10
12.0
 20
9.0
  9
$ORTHOMODE
 70
     0
  9
$REGENMODE
 70
     1
  9
$FILLMODE
 70
     1
  9
$QTEXTMODE
 70
     0
  9
$MIRRTEXT
 70
     1
  9
$DRAGMODE
 70
     2
  9
$LTSCALE
 40
1.0
  9
$OSMODE
 70
    37
  9
$ATTMODE
 70
     1
  9
$TEXTSIZE
 40
0.2
  9
$TRACEWID
 40
0.05
  9
$TEXTSTYLE
  7
STANDARD
  9
$CLAYER
  8
0
  9
$CELTYPE
  6
BYLAYER
  9
$CECOLOR
 62
   256
  9
$CELTSCALE
 40
1.0
  9
$DELOBJ
 70
     1
  9
$DISPSILH
 70
     0
  9
$DIMSCALE
 40
1.0
  9
$DIMASZ
 40
0.18
  9
$DIMEXO
 40
0.0625
  9
$DIMDLI
 40
0.38
  9
$DIMRND
 40
0.0
  9
$DIMDLE
 40
0.0
  9
$DIMEXE
 40
0.18
  9
$DIMTP
 40
0.0
  9
$DIMTM
 40
0.0
  9
$DIMTXT
 40
0.18
  9
$DIMCEN
 40
0.09
  9
$DIMTSZ
 40
0.0
  9
$DIMTOL
 70
     0
  9
$DIMLIM
 70
     0
  9
$DIMTIH
 70
     1
  9
$DIMTOH
 70
     1
  9
$DIMSE1
 70
     0
  9
$DIMSE2
 70
     0
  9
$DIMTAD
 70
     0
  9
$DIMZIN
 70
     0
  9
$DIMBLK
  1

  9
$DIMASO
 70
     1
  9
$DIMSHO
 70
     1
  9
$DIMPOST
  1

  9
$DIMAPOST
  1

  9
$DIMALT
 70
     0
  9
$DIMALTD
 70
     2
  9
$DIMALTF
 40
25.4
  9
$DIMLFAC
 40
1.0
  9
$DIMTOFL
 70
     0
  9
$DIMTVP
 40
0.0
  9
$DIMTIX
 70
     0
  9
$DIMSOXD
 70
     0
  9
$DIMSAH
 70
     0
  9
$DIMBLK1
  1

  9
$DIMBLK2
  1

  9
$DIMSTYLE
  2
STANDARD
  9
$DIMCLRD
 70
     0
  9
$DIMCLRE
 70
     0
  9
$DIMCLRT
 70
     0
  9
$DIMTFAC
 40
1.0
  9
$DIMGAP
 40
0.09
  9
$DIMJUST
 70
     0
  9
$DIMSD1
 70
     0
  9
$DIMSD2
 70
     0
  9
$DIMTOLJ
 70
     1
  9
$DIMTZIN
 70
     0
  9
$DIMALTZ
 70
     0
  9
$DIMALTTZ
 70
     0
  9
$DIMFIT
 70
     3
  9
$DIMUPT
 70
     0
  9
$DIMUNIT
 70
     2
  9
$DIMDEC
 70
     4
  9
$DIMTDEC
 70
     4
  9
$DIMALTU
 70
     2
  9
$DIMALTTD
 70
     2
  9
$DIMTXSTY
  7
STANDARD
  9
$DIMAUNIT
 70
     0
  9
$LUNITS
 70
     2
  9
$LUPREC
 70
     4
  9
$SKETCHINC
 40
0.1
  9
$FILLETRAD
 40
0.5
  9
$AUNITS
 70
     0
  9
$AUPREC
 70
     0
  9
$MENU
  1
.
  9
$ELEVATION
 40
0.0
  9
$PELEVATION
 40
0.0
  9
$THICKNESS
 40
0.0
  9
$LIMCHECK
 70
     0
  9
$CHAMFERA
 40
0.5
  9
$CHAMFERB
 40
0.5
  9
$CHAMFERC
 40
1.0
  9
$CHAMFERD
 40
0.0
  9
$SKPOLY
 70
     0
  9
$TDCREATE
 40
2458816.925787026
  9
$TDUPDATE
 40
2458816.925787026
  9
$TDINDWG
 40
0.0000000116
  9
$TDUSRTIMER
 40
0.0000000116
  9
$USRTIMER
 70
     1
  9
$ANGBASE
 50
0.0
  9
$ANGDIR
 70
     0
  9
$PDMODE
 70
     0
  9
$PDSIZE
 40
0.0
  9
$PLINEWID
 40
0.0
  9
$COORDS
 70
     1
  9
$SPLFRAME
 70
     0
  9
$SPLINETYPE
 70
     6
  9
$SPLINESEGS
 70
     8
  9
$ATTDIA
 70
     0
  9
$ATTREQ
 70
     1
  9
$HANDLING
 70
     1
  9
$HANDSEED
  5
52
  9
$SURFTAB1
 70
     6
  9
$SURFTAB2
 70
     6
  9
$SURFTYPE
 70
     6
  9
$SURFU
 70
     6
  9
$SURFV
 70
     6
  9
$UCSNAME
  2

  9
$UCSORG
 10
0.0
 20
0.0
 30
0.0
  9
$UCSXDIR
 10
1.0
 20
0.0
 30
0.0
  9
$UCSYDIR
 10
0.0
 20
1.0
 30
0.0
  9
$PUCSNAME
  2

  9
$PUCSORG
 10
0.0
 20
0.0
 30
0.0
  9
$PUCSXDIR
 10
1.0
 20
0.0
 30
0.0
  9
$PUCSYDIR
 10
0.0
 20
1.0
 30
0.0
  9
$USERI1
 70
     0
  9
$USERI2
 70
     0
  9
$USERI3
 70
     0
  9
$USERI4
 70
     0
  9
$USERI5
 70
     0
  9
$USERR1
 40
0.0
  9
$USERR2
 40
0.0
  9
$USERR3
 40
0.0
  9
$USERR4
 40
0.0
  9
$USERR5
 40
0.0
  9
$WORLDVIEW
 70
     1
  9
$SHADEDGE
 70
     3
  9
$SHADEDIF
 70
    70
  9
$TILEMODE
 70
     1
  9
$MAXACTVP
 70
    64
  9
$PINSBASE
 10
0.0
 20
0.0
 30
0.0
  9
$PLIMCHECK
 70
     0
  9
$PEXTMIN
 10
1.000000000000000E+20
 20
1.000000000000000E+20
 30
1.000000000000000E+20
  9
$PEXTMAX
 10
-1.000000000000000E+20
 20
-1.000000000000000E+20
 30
-1.000000000000000E+20
  9
$PLIMMIN
 10
0.0
 20
0.0
  9
$PLIMMAX
 10
12.0
 20
9.0
  9
$UNITMODE
 70
     0
  9
$VISRETAIN
 70
     1
  9
$PLINEGEN
 70
     0
  9
$PSLTSCALE
 70
     1
  9
$TREEDEPTH
 70
  3020
  9
$PICKSTYLE
 70
     1
  9
$CMLSTYLE
  2
STANDARD
  9
$CMLJUST
 70
     0
  9
$CMLSCALE
 40
1.0
  9
$SAVEIMAGES
 70
     1
  0
ENDSEC
  0
SECTION
  2
CLASSES
  0
CLASS
  1
ACDBDICTIONARYWDFLT
  2
AcDbDictionaryWithDefault
  3
ObjectDBX Classes
 90
    32768
280
     0
281
     0
  0
CLASS
  1
VISUALSTYLE
  2
AcDbVisualStyle
  3
ObjectDBX Classes
 90
     4095
280
     0
281
     0
  0
CLASS
  1
MATERIAL
  2
AcDbMaterial
  3
ObjectDBX Classes
 90
     1153
280
     0
281
     0
  0
CLASS
  1
SUN
  2
AcDbSun
  3
SCENEOE
 90
     1024
280
     0
281
     0
  0
CLASS
  1
DICTIONARYVAR
  2
AcDbDictionaryVar
  3
ObjectDBX Classes
 90
        0
280
     0
281
     0
  0
CLASS
  1
XRECORD
  2
AcDbXrecord
  3
AutoCAD 2000
 90
    32768
280
     0
281
     0
  0
CLASS
  1
LWPOLYLINE
  2
AcDbPolyline
  3
AutoCAD 2000
 90
    32768
280
     0
281
     1
  0
CLASS
  1
HATCH
  2
AcDbHatch
  3
AutoCAD 2000
 90
    32768
280
     0
281
     1
  0
CLASS
  1
ACDBPLACEHOLDER
  2
AcDbPlaceHolder
  3
ObjectDBX Classes
 90
        0
280
     0
281
     0
  0
CLASS
  1
LAYOUT
  2
AcDbLayout
  3
ObjectDBX Classes
 90
        0
280
     0
281
     0
  0
ENDSEC
  0
SECTION
  2
TABLES
  0
TABLE
  2
VPORT
  5
8
330
0
100
AcDbSymbolTable
 70
     1
  0
VPORT
  5
29
330
8
100
AcDbSymbolTableRecord
100
AcDbViewportTableRecord
  2
*ACTIVE
 70
     0
 10
0.0
 20
0.0
 11
1.0
 21
1.0
 12
0.0
 22
0.0
 13
0.0
 23
0.0
 14
0.5
 24
0.5
 15
0.5
 25
0.5
 16
0.0
 26
0.0
 36
1.0
 17
0.0
 27
0.0
 37
0.0
 40
68.43888887177917
 41
2.337628865979382
 42
50.0
 43
0.0
 44
0.0
 50
0.0
 51
0.0
 71
     0
 72
   100
 73
     1
 74
     3
 75
     0
 76
     0
 77
     0
 78
     0
  0
ENDTAB
  0
TABLE
  2
LTYPE
  5
5
330
0
100
AcDbSymbolTable
 70
     1
  0
LTYPE
  5
14
330
5
100
AcDbSymbolTableRecord
100
AcDbLinetypeTableRecord
  2
BYBLOCK
 70
     0
  3

 72
    65
 73
     0
 40
0.0
  0
LTYPE
  5
15
330
5
100
AcDbSymbolTableRecord
100
AcDbLinetypeTableRecord
  2
BYLAYER
 70
     0
  3

 72
    65
 73
     0
 40
0.0
  0
LTYPE
  5
16
330
5
100
AcDbSymbolTableRecord
100
AcDbLinetypeTableRecord
  2
CONTINUOUS
 70
     0
  3
Solid line
 72
    65
 73
     0
 40
0.0
  0
ENDTAB
  0
TABLE
  2
LAYER
  5
2
330
0
100
AcDbSymbolTable
 70
     5
  0
LAYER
  5
10
330
2
100
AcDbSymbolTableRecord
100
AcDbLayerTableRecord
  2
0
 70
     0
 62
     7
  6
CONTINUOUS
  0
LAYER
  5
40
330
2
100
AcDbSymbolTableRecord
100
AcDbLayerTableRecord
  2
DIMENSION
 70
     0
 62
     7
  6
CONTINUOUS
  0
LAYER
  5
44
330
2
100
AcDbSymbolTableRecord
100
AcDbLayerTableRecord
  2
LAYER_3
 70
     0
 62
     7
  6
CONTINUOUS
  0
LAYER
  5
45
330
2
100
AcDbSymbolTableRecord
100
AcDbLayerTableRecord
  2
LAYER_1
 70
     0
 62
     7
  6
CONTINUOUS
  0
LAYER
  5
46
330
2
100
AcDbSymbolTableRecord
100
AcDbLayerTableRecord
  2
LAYER_4
 70
     0
 62
     7
  6
CONTINUOUS
  0
ENDTAB
  0
TABLE
  2
STYLE
  5
3
330
0
100
AcDbSymbolTable
 70
     1
  0
STYLE
  5
11
330
3
100
AcDbSymbolTableRecord
100
AcDbTextStyleTableRecord
  2
STANDARD
 70
     0
 40
0.0
 41
1.0
 50
0.0
 71
     0
 42
0.2
  3
txt
  4

  0
ENDTAB
  0
TABLE
  2
VIEW
  5
6
330
0
100
AcDbSymbolTable
 70
     0
  0
ENDTAB
  0
TABLE
  2
UCS
  5
7
330
0
100
AcDbSymbolTable
 70
     0
  0
ENDTAB
  0
TABLE
  2
APPID
  5
9
330
0
100
AcDbSymbolTable
 70
     1
  0
APPID
  5
12
330
9
100
AcDbSymbolTableRecord
100
AcDbRegAppTableRecord
  2
ACAD
 70
     0
  0
ENDTAB
  0
TABLE
  2
DIMSTYLE
  5
A
330
0
100
AcDbSymbolTable
 70
     1
  0
DIMSTYLE
105
27
330
A
100
AcDbSymbolTableRecord
100
AcDbDimStyleTableRecord
  2
STANDARD
 70
     0
  3

  4

  5

  6

  7

 40
1.0
 41
0.18
 42
0.0625
 43
0.38
 44
0.18
 45
0.0
 46
0.0
 47
0.0
 48
0.0
140
0.18
141
0.09
142
0.0
143
25.4
144
1.0
145
0.0
146
1.0
147
0.09
 71
     0
 72
     0
 73
     1
 74
     1
 75
     0
 76
     0
 77
     0
 78
     0
170
     0
171
     2
172
     0
173
     0
174
     0
175
     0
176
     0
177
     0
178
     0
270
     2
271
     4
272
     4
273
     2
274
     2
340
11
275
     0
280
     0
281
     0
282
     0
283
     1
284
     0
285
     0
286
     0
287
     3
288
     0
  0
ENDTAB
  0
TABLE
  2
BLOCK_RECORD
  5
1
330
0
100
AcDbSymbolTable
 70
     1
  0
BLOCK_RECORD
  5
1F
330
1
100
AcDbSymbolTableRecord
100
AcDbBlockTableRecord
  2
*MODEL_SPACE
  0
BLOCK_RECORD
  5
1B
330
1
100
AcDbSymbolTableRecord
100
AcDbBlockTableRecord
  2
*PAPER_SPACE
  0
ENDTAB
  0
ENDSEC
  0
SECTION
  2
BLOCKS
  0
BLOCK
  5
20
330
1F
100
AcDbEntity
  8
0
100
AcDbBlockBegin
  2
*MODEL_SPACE
 70
     0
 10
0.0
 20
0.0
 30
0.0
  3
*MODEL_SPACE
  1

  0
ENDBLK
  5
21
330
1F
100
AcDbEntity
  8
0
100
AcDbBlockEnd
  0
BLOCK
  5
1C
330
1B
100
AcDbEntity
 67
     1
  8
0
100
AcDbBlockBegin
  2
*PAPER_SPACE
 70
     0
 10
0.0
 20
0.0
 30
0.0
  3
*PAPER_SPACE
  1

  0
ENDBLK
  5
1D
330
1B
100
AcDbEntity
 67
     1
  8
0
100
AcDbBlockEnd
  0
ENDSEC
  0
SECTION
  2
ENTITIES
  0
SPLINE
  5
41
330
1F
100
AcDbEntity
  8
DIMENSION
 62
   250
100
AcDbSpline
210
0.0
220
0.0
230
1.0
 70
    11
 71
     3
 72
   341
 73
   337
 74
     0
 42
0.0000000001
 43
0.0000000001
 12
1.0
 22
0.0
 32
0.0
 13
1.0
 23
0.0
 33
0.0
 40
0.0
 40
0.0
 40
0.0
 40
0.0
 40
1.0
 40
1.0
 40
1.0
 40
2.0
 40
2.0
 40
2.0
 40
3.0
 40
3.0
 40
3.0
 40
4.0
 40
4.0
 40
4.0
 40
5.0
 40
5.0
 40
5.0
 40
6.0
 40
6.0
 40
6.0
 40
7.0
 40
7.0
 40
7.0
 40
8.0
 40
8.0
 40
8.0
 40
9.0
 40
9.0
 40
9.0
 40
10.0
 40
10.0
 40
10.0
 40
11.0
 40
11.0
 40
11.0
 40
12.0
 40
12.0
 40
12.0
 40
13.0
 40
13.0
 40
13.0
 40
14.0
 40
14.0
 40
14.0
 40
15.0
 40
15.0
 40
15.0
 40
16.0
 40
16.0
 40
16.0
 40
17.0
 40
17.0
 40
17.0
 40
18.0
 40
18.0
 40
18.0
 40
19.0
 40
19.0
 40
19.0
 40
20.0
 40
20.0
 40
20.0
 40
21.0
 40
21.0
 40
21.0
 40
22.0
 40
22.0
 40
22.0
 40
23.0
 40
23.0
 40
23.0
 40
24.0
 40
24.0
 40
24.0
 40
25.0
 40
25.0
 40
25.0
 40
26.0
 40
26.0
 40
26.0
 40
27.0
 40
27.0
 40
27.0
 40
28.0
 40
28.0
 40
28.0
 40
29.0
 40
29.0
 40
29.0
 40
30.0
 40
30.0
 40
30.0
 40
31.0
 40
31.0
 40
31.0
 40
32.0
 40
32.0
 40
32.0
 40
33.0
 40
33.0
 40
33.0
 40
34.0
 40
34.0
 40
34.0
 40
35.0
 40
35.0
 40
35.0
 40
36.0
 40
36.0
 40
36.0
 40
37.0
 40
37.0
 40
37.0
 40
38.0
 40
38.0
 40
38.0
 40
39.0
 40
39.0
 40
39.0
 40
40.0
 40
40.0
 40
40.0
 40
41.0
 40
41.0
 40
41.0
 40
42.0
 40
42.0
 40
42.0
 40
43.0
 40
43.0
 40
43.0
 40
44.0
 40
44.0
 40
44.0
 40
45.0
 40
45.0
 40
45.0
 40
46.0
 40
46.0
 40
46.0
 40
47.0
 40
47.0
 40
47.0
 40
48.0
 40
48.0
 40
48.0
 40
49.0
 40
49.0
 40
49.0
 40
50.0
 40
50.0
 40
50.0
 40
51.0
 40
51.0
 40
51.0
 40
52.0
 40
52.0
 40
52.0
 40
53.0
 40
53.0
 40
53.0
 40
54.0
 40
54.0
 40
54.0
 40
55.0
 40
55.0
 40
55.0
 40
56.0
 40
56.0
 40
56.0
 40
57.0
 40
57.0
 40
57.0
 40
58.0
 40
58.0
 40
58.0
 40
59.0
 40
59.0
 40
59.0
 40
60.0
 40
60.0
 40
60.0
 40
61.0
 40
61.0
 40
61.0
 40
62.0
 40
62.0
 40
62.0
 40
63.0
 40
63.0
 40
63.0
 40
64.0
 40
64.0
 40
64.0
 40
65.0
 40
65.0
 40
65.0
 40
66.0
 40
66.0
 40
66.0
 40
67.0
 40
67.0
 40
67.0
 40
68.0
 40
68.0
 40
68.0
 40
69.0
 40
69.0
 40
69.0
 40
70.0
 40
70.0
 40
70.0
 40
71.0
 40
71.0
 40
71.0
 40
72.0
 40
72.0
 40
72.0
 40
73.0
 40
73.0
 40
73.0
 40
74.0
 40
74.0
 40
74.0
 40
75.0
 40
75.0
 40
75.0
 40
76.0
 40
76.0
 40
76.0
 40
77.0
 40
77.0
 40
77.0
 40
78.0
 40
78.0
 40
78.0
 40
79.0
 40
79.0
 40
79.0
 40
80.0
 40
80.0
 40
80.0
 40
81.0
 40
81.0
 40
81.0
 40
82.0
 40
82.0
 40
82.0
 40
83.0
 40
83.0
 40
83.0
 40
84.0
 40
84.0
 40
84.0
 40
85.0
 40
85.0
 40
85.0
 40
86.0
 40
86.0
 40
86.0
 40
87.0
 40
87.0
 40
87.0
 40
88.0
 40
88.0
 40
88.0
 40
89.0
 40
89.0
 40
89.0
 40
90.0
 40
90.0
 40
90.0
 40
91.0
 40
91.0
 40
91.0
 40
92.0
 40
92.0
 40
92.0
 40
93.0
 40
93.0
 40
93.0
 40
94.0
 40
94.0
 40
94.0
 40
95.0
 40
95.0
 40
95.0
 40
96.0
 40
96.0
 40
96.0
 40
97.0
 40
97.0
 40
97.0
 40
98.0
 40
98.0
 40
98.0
 40
99.0
 40
99.0
 40
99.0
 40
100.0
 40
100.0
 40
100.0
 40
101.0
 40
101.0
 40
101.0
 40
102.0
 40
102.0
 40
102.0
 40
103.0
 40
103.0
 40
103.0
 40
104.0
 40
104.0
 40
104.0
 40
105.0
 40
105.0
 40
105.0
 40
106.0
 40
106.0
 40
106.0
 40
107.0
 40
107.0
 40
107.0
 40
108.0
 40
108.0
 40
108.0
 40
109.0
 40
109.0
 40
109.0
 40
110.0
 40
110.0
 40
110.0
 40
111.0
 40
111.0
 40
111.0
 40
112.0
 40
112.0
 40
112.0
 40
112.0
 10
-75.34745368486674
 20
11.75844312513001
 30
0.0
 10
-75.34745368486674
 20
11.75844312513001
 30
0.0
 10
-75.34745368486674
 20
9.762597685211318
 30
0.0
 10
-75.34745368486674
 20
9.762597685211318
 30
0.0
 10
-75.34745368486674
 20
9.762597685211318
 30
0.0
 10
-75.34745368486674
 20
7.766752245292304
 30
0.0
 10
-75.34745368486674
 20
7.766752245292304
 30
0.0
 10
-75.34745368486674
 20
7.766752245292304
 30
0.0
 10
-75.34745368486674
 20
5.770906805373291
 30
0.0
 10
-75.34745368486674
 20
5.770906805373291
 30
0.0
 10
-75.34745368486674
 20
5.770906805373291
 30
0.0
 10
-75.34745368486674
 20
3.775061365454599
 30
0.0
 10
-75.34745368486674
 20
3.775061365454599
 30
0.0
 10
-75.34745368486674
 20
3.775061365454599
 30
0.0
 10
-75.34745368486674
 20
1.779215925535906
 30
0.0
 10
-75.34745368486674
 20
1.779215925535906
 30
0.0
 10
-75.34745368486674
 20
1.779215925535906
 30
0.0
 10
-75.34745368486674
 20
-0.2166295143831076
 30
0.0
 10
-75.34745368486674
 20
-0.2166295143831076
 30
0.0
 10
-75.34745368486674
 20
-0.2166295143831076
 30
0.0
 10
-75.34745368486674
 20
-2.212474954302121
 30
0.0
 10
-75.34745368486674
 20
-2.212474954302121
 30
0.0
 10
-75.34745368486674
 20
-2.212474954302121
 30
0.0
 10
-75.34745368486674
 20
-4.208320394220814
 30
0.0
 10
-75.34745368486674
 20
-4.208320394220814
 30
0.0
 10
-75.34745368486674
 20
-4.383670802248226
 30
0.0
 10
-75.3296849858801
 20
-4.554871108259087
 30
0.0
 10
-75.29584991252797
 20
-4.720218987631617
 30
0.0
 10
-75.26201483917583
 20
-4.885566867004147
 30
0.0
 10
-75.21211339145853
 20
-5.045062319738985
 30
0.0
 10
-75.14784789399687
 20
-5.197003021214352
 30
0.0
 10
-75.08358239653522
 20
-5.348943722689717
 30
0.0
 10
-75.0049528493292
 20
-5.493329672905932
 30
0.0
 10
-74.91366157700061
 20
-5.628458547241533
 30
0.0
 10
-74.82237030467171
 20
-5.763587421577455
 30
0.0
 10
-74.71841730722022
 20
-5.889459220032764
 30
0.0
 10
-74.60350490926666
 20
-6.004371617985999
 30
0.0
 10
-74.48859251131312
 20
-6.119284015939234
 30
0.0
 10
-74.3627207128578
 20
-6.223237013391036
 30
0.0
 10
-74.2275918385222
 20
-6.314528285719945
 30
0.0
 10
-74.0924629641866
 20
-6.405819558048854
 30
0.0
 10
-73.9480770139707
 20
-6.484449105254548
 30
0.0
 10
-73.79613631249502
 20
-6.548714602716208
 30
0.0
 10
-73.64419561101965
 20
-6.612980100177868
 30
0.0
 10
-73.48470015828514
 20
-6.662881547895494
 30
0.0
 10
-73.3193522789126
 20
-6.696716621247304
 30
0.0
 10
-73.15400439953976
 20
-6.730551694599435
 30
0.0
 10
-72.98280409352921
 20
-6.74832039358607
 30
0.0
 10
-72.8074536855018
 20
-6.74832039358607
 30
0.0
 10
-72.8074536855018
 20
-6.74832039358607
 30
0.0
 10
-65.31544623750442
 20
-6.74832039358607
 30
0.0
 10
-65.31544623750442
 20
-6.74832039358607
 30
0.0
 10
-65.31544623750442
 20
-6.74832039358607
 30
0.0
 10
-57.82343878950704
 20
-6.74832039358607
 30
0.0
 10
-57.82343878950704
 20
-6.74832039358607
 30
0.0
 10
-57.82343878950704
 20
-6.74832039358607
 30
0.0
 10
-50.33143134150966
 20
-6.74832039358607
 30
0.0
 10
-50.33143134150966
 20
-6.74832039358607
 30
0.0
 10
-50.33143134150966
 20
-6.74832039358607
 30
0.0
 10
-42.83942389351229
 20
-6.74832039358607
 30
0.0
 10
-42.83942389351229
 20
-6.74832039358607
 30
0.0
 10
-42.83942389351229
 20
-6.74832039358607
 30
0.0
 10
-35.34741644551491
 20
-6.74832039358607
 30
0.0
 10
-35.34741644551491
 20
-6.74832039358607
 30
0.0
 10
-35.34741644551491
 20
-6.74832039358607
 30
0.0
 10
-27.85540899751753
 20
-6.74832039358607
 30
0.0
 10
-27.85540899751753
 20
-6.74832039358607
 30
0.0
 10
-27.85540899751753
 20
-6.74832039358607
 30
0.0
 10
-20.36340154952015
 20
-6.74832039358607
 30
0.0
 10
-20.36340154952015
 20
-6.74832039358607
 30
0.0
 10
-20.36340154952015
 20
-6.74832039358607
 30
0.0
 10
-12.8713941015231
 20
-6.74832039358607
 30
0.0
 10
-12.8713941015231
 20
-6.74832039358607
 30
0.0
 10
-12.79457314085868
 20
-6.74832039358607
 30
0.0
 10
-12.71810218694617
 20
-6.751807205866837
 30
0.0
 10
-12.64218853221869
 20
-6.758697033070985
 30
0.0
 10
-12.56627487749121
 20
-6.765586860275134
 30
0.0
 10
-12.49091852194876
 20
-6.775879702402984
 30
0.0
 10
-12.41632675802417
 20
-6.789491762097474
 30
0.0
 10
-12.34173499409958
 20
-6.803103821791963
 30
0.0
 10
-12.26790782179315
 20
-6.820035099053091
 30
0.0
 10
-12.19505253353739
 20
-6.840201796523794
 30
0.0
 10
-12.12219724528163
 20
-6.860368493994819
 30
0.0
 10
-12.05031384107686
 20
-6.883770611675097
 30
0.0
 10
-11.97960961335589
 20
-6.910324352208526
 30
0.0
 10
-11.90890538563491
 20
-6.936878092741957
 30
0.0
 10
-11.83938033439773
 20
-6.966583456127577
 30
0.0
 10
-11.77124175207781
 20
-6.999356645009287
 30
0.0
 10
-11.70310316975757
 20
-7.032129833890676
 30
0.0
 10
-11.63635105635426
 20
-7.067970848267832
 30
0.0
 10
-11.5711927043007
 20
-7.106795890783693
 30
0.0
 10
-11.50603435224714
 20
-7.145620933299553
 30
0.0
 10
-11.44246976154365
 20
-7.187430003954118
 30
0.0
 10
-11.38070622462272
 20
-7.232139305390322
 30
0.0
 10
-11.31894268770179
 20
-7.276848606826848
 30
0.0
 10
-11.25898020456375
 20
-7.324458139044693
 30
0.0
 10
-11.2010260676414
 20
-7.374884104687434
 30
0.0
 10
-10.74093886257314
 20
-7.77520654631991
 30
0.0
 10
-10.05875318947273
 20
-8.350344485157038
 30
0.0
 10
-9.16958633632373
 20
-9.050339008747303
 30
0.0
 10
-8.280419483174727
 20
-9.750333532337567
 30
0.0
 10
-7.184271449976809
 20
-10.57518464068065
 30
0.0
 10
-5.896259524712889
 20
-11.47493342132535
 30
0.0
 10
-4.608247599449291
 20
-12.37468220196973
 30
0.0
 10
-3.12837178211937
 20
-13.34932865491542
 30
0.0
 10
-1.471749360706684
 20
-14.34891386771089
 30
0.0
 10
0.1848730607063233
 20
-15.34849908050604
 30
0.0
 10
2.018242086202096
 20
-16.37302305315129
 30
0.0
 10
4.01324042779804
 20
-17.37252687319418
 30
0.0
 10
6.008238769393985
 20
-18.37203069323706
 30
0.0
 10
8.16486642708978
 20
-19.34651436067822
 30
0.0
 10
10.46800611290283
 20
-20.24601896306517
 30
0.0
 10
12.77114579871621
 20
-21.14552356545244
 30
0.0
 10
15.22079751264652
 20
-21.97004910278615
 30
0.0
 10
17.80184396671117
 20
-22.66963666261413
 30
0.0
 10
20.38289042077615
 20
-23.36922422244212
 30
0.0
 10
23.09533161497514
 20
-23.94387380476502
 30
0.0
 10
25.92405026132525
 20
-24.34362649713101
 30
0.0
 10
28.75276890767567
 20
-24.74337918949668
 30
0.0
 10
31.6977650061772
 20
-24.96823499190543
 30
0.0
 10
34.74392126884756
 20
-24.96823499190543
 30
0.0
 10
37.81765886570755
 20
-24.96823499190543
 30
0.0
 10
40.71611257383547
 20
-24.68606589181212
 30
0.0
 10
43.43995625337219
 20
-24.18498823834564
 30
0.0
 10
46.1637999329086
 20
-23.68391058487915
 30
0.0
 10
48.71303358385379
 20
-22.96392437803949
 30
0.0
 10
51.088331066348
 20
-22.0882901645471
 30
0.0
 10
53.46362854884222
 20
-21.21265595105472
 30
0.0
 10
55.66498986288512
 20
-20.18137373090898
 30
0.0
 10
57.69308886861726
 20
-19.05770405083065
 30
0.0
 10
59.72118787434972
 20
-17.93403437075233
 30
0.0
 10
61.57602457177077
 20
-16.71797723074141
 30
0.0
 10
63.2582728210219
 20
-15.47279317751741
 30
0.0
 10
64.94052107027304
 20
-14.22760912429341
 30
0.0
 10
66.45018087135361
 20
-12.95329815785696
 30
0.0
 10
67.78792608440385
 20
-11.71312082492787
 30
0.0
 10
69.12567129745409
 20
-10.47294349199911
 30
0.0
 10
70.291501922474
 20
-9.266899792577385
 30
0.0
 10
71.2860918196041
 20
-8.158250273383485
 30
0.0
 10
72.2806817167342
 20
-7.049600754189584
 30
0.0
 10
73.1040308859745
 20
-6.038345415223505
 30
0.0
 10
73.75681318746553
 20
-5.187744803205061
 30
0.0
 10
74.40959548895593
 20
-4.337144191186617
 30
0.0
 10
74.89181092269769
 20
-3.647198306115809
 30
0.0
 10
75.20413334882944
 20
-3.181167694713092
 30
0.0
 10
75.23927530465556
 20
-3.128730771235817
 30
0.0
 10
75.272368375739
 20
-3.075169228700334
 30
0.0
 10
75.30337569020631
 20
-3.020597242659545
 30
0.0
 10
75.33438300467427
 20
-2.966025256618756
 30
0.0
 10
75.36330456252479
 20
-2.91044282707202
 30
0.0
 10
75.39010349188577
 20
-2.853964129571596
 30
0.0
 10
75.41690242124673
 20
-2.797485432071173
 30
0.0
 10
75.44157872211686
 20
-2.740110466616742
 30
0.0
 10
75.46409552262205
 20
-2.681953408760565
 30
0.0
 10
75.48661232312723
 20
-2.623796350904067
 30
0.0
 10
75.50696962326748
 20
-2.564857200645823
 30
0.0
 10
75.52513055116937
 20
-2.505250133537772
 30
0.0
 10
75.54329147907126
 20
-2.44564306642972
 30
0.0
 10
75.55925603473348
 20
-2.385368082471222
 30
0.0
 10
75.57298734628198
 20
-2.324539357215177
 30
0.0
 10
75.58671865783047
 20
-2.263710631958811
 30
0.0
 10
75.59821672526652
 20
-2.202328165404258
 30
0.0
 10
75.60744467671411
 20
-2.140506133103779
 30
0.0
 10
75.6166726281617
 20
-2.078684100803299
 30
0.0
 10
75.6236304636221
 20
-2.016422502756253
 30
0.0
 10
75.62828131122
 20
-1.953835514515219
 30
0.0
 10
75.63293215881787
 20
-1.891248526274185
 30
0.0
 10
75.63527601855448
 20
-1.828336147838844
 30
0.0
 10
75.63527601855448
 20
-1.765212554761137
 30
0.0
 10
75.63527601855448
 20
-1.765212554761137
 30
0.0
 10
75.63527601855448
 20
0.0138076268009618
 30
0.0
 10
75.63527601855448
 20
0.0138076268009618
 30
0.0
 10
75.63527601855448
 20
0.0138076268009618
 30
0.0
 10
75.63527601855448
 20
1.792827808362739
 30
0.0
 10
75.63527601855448
 20
1.792827808362739
 30
0.0
 10
75.63527601855448
 20
1.792827808362739
 30
0.0
 10
75.63527601855448
 20
3.571847989924517
 30
0.0
 10
75.63527601855448
 20
3.571847989924517
 30
0.0
 10
75.63527601855448
 20
3.571847989924517
 30
0.0
 10
75.63527601855448
 20
5.350868171486615
 30
0.0
 10
75.63527601855448
 20
5.350868171486615
 30
0.0
 10
75.63527601855448
 20
5.350868171486615
 30
0.0
 10
75.63527601855448
 20
7.129888353048714
 30
0.0
 10
75.63527601855448
 20
7.129888353048714
 30
0.0
 10
75.63527601855448
 20
7.129888353048714
 30
0.0
 10
75.63527601855448
 20
8.908908534610491
 30
0.0
 10
75.63527601855448
 20
8.908908534610491
 30
0.0
 10
75.63527601855448
 20
8.908908534610491
 30
0.0
 10
75.63527601855448
 20
10.68792871617227
 30
0.0
 10
75.63527601855448
 20
10.68792871617227
 30
0.0
 10
75.63527601855448
 20
10.68792871617227
 30
0.0
 10
75.63527601855448
 20
12.46694889773437
 30
0.0
 10
75.63527601855448
 20
12.46694889773437
 30
0.0
 10
75.63527601855448
 20
12.55280676671363
 30
0.0
 10
75.63095979359969
 20
12.63816608260436
 30
0.0
 10
75.62244470969685
 20
12.72274528997683
 30
0.0
 10
75.61392962579336
 20
12.8073244973493
 30
0.0
 10
75.60121568294183
 20
12.8911235962032
 30
0.0
 10
75.58442024714832
 20
12.97386103110879
 30
0.0
 10
75.5676248113548
 20
13.05659846601438
 30
0.0
 10
75.54674788261933
 20
13.13827423697167
 30
0.0
 10
75.52190682694798
 20
13.21860678855062
 30
0.0
 10
75.49706577127662
 20
13.29893934012956
 30
0.0
 10
75.46826058867003
 20
13.37792867233017
 30
0.0
 10
75.43560864513366
 20
13.45529322972271
 30
0.0
 10
75.40295670159729
 20
13.53265778711525
 30
0.0
 10
75.36645799713112
 20
13.60839756969941
 30
0.0
 10
75.32622989774255
 20
13.68223102204578
 30
0.0
 10
75.28600179835396
 20
13.75606447439215
 30
0.0
 10
75.2420443040417
 20
13.82799159650041
 30
0.0
 10
75.1944747808131
 20
13.89773083294053
 30
0.0
 10
75.14690525758449
 20
13.96747006938065
 30
0.0
 10
75.09572370543957
 20
14.03502142015294
 30
0.0
 10
75.04104749038376
 20
14.10010332982735
 30
0.0
 10
74.98637127532795
 20
14.16518523950145
 30
0.0
 10
74.92820039736192
 20
14.227797708078
 30
0.0
 10
74.86665222249108
 20
14.28765918012664
 30
0.0
 10
74.44380137786271
 20
14.69892196850112
 30
0.0
 10
73.84912764497085
 20
15.25546597215333
 30
0.0
 10
73.08921005046001
 20
15.914588575308
 30
0.0
 10
72.32929245594853
 20
16.57371117846234
 30
0.0
 10
71.40413099981875
 20
17.33541238111881
 30
0.0
 10
70.32030470871328
 20
18.15698956750214
 30
0.0
 10
69.2364784176078
 20
18.97856675388514
 30
0.0
 10
67.99398729152664
 20
19.86001992399469
 30
0.0
 10
66.59941035711432
 20
20.75864646205486
 30
0.0
 10
65.20483342270202
 20
21.65727300011536
 30
0.0
 10
63.65817067995825
 20
22.57307290612615
 30
0.0
 10
61.96600115552661
 20
23.46334356431198
 30
0.0
 10
60.27383163109496
 20
24.35361422249781
 30
0.0
 10
58.43615532497545
 20
25.21835563285899
 30
0.0
 10
56.45955126381229
 20
26.01486517961898
 30
0.0
 10
54.48294720264913
 20
26.81137472637928
 30
0.0
 10
52.36741538644169
 20
27.5396524095387
 30
0.0
 10
50.11953484183418
 20
28.15699561332164
 30
0.0
 10
47.87165429722668
 20
28.77433881710427
 30
0.0
 10
45.49142502421911
 20
29.28074754151075
 30
0.0
 10
42.98542604945476
 20
29.63351917076515
 30
0.0
 10
40.47942707469073
 20
29.98629080001924
 30
0.0
 10
37.84765839817022
 20
30.18542533412126
 30
0.0
 10
35.09669904653715
 20
30.18822015729531
 30
0.0
 10
32.93677040522191
 20
30.19041452582265
 30
0.0
 10
30.75955296399908
 20
30.05123242975549
 30
0.0
 10
28.58440860673442
 20
29.79434272524146
 30
0.0
 10
26.40926424946976
 20
29.53745302072744
 30
0.0
 10
24.23619297616357
 20
29.16285570776654
 30
0.0
 10
22.08455667068128
 20
28.69421964250608
 30
0.0
 10
19.93292036519898
 20
28.22558357724562
 30
0.0
 10
17.80271902754057
 20
27.66290875968592
 30
0.0
 10
15.71331454157242
 20
27.02986404597429
 30
0.0
 10
13.62391005560395
 20
26.39681933226233
 30
0.0
 10
11.57530242132574
 20
25.69340472239877
 30
0.0
 10
9.58685352260288
 20
24.94328907253059
 30
0.0
 10
7.59840462388002
 20
24.1931734226624
 30
0.0
 10
5.670114460713151
 20
23.3963567327896
 30
0.0
 10
3.821344916967362
 20
22.57650785906013
 30
0.0
 10
1.972575373221894
 20
21.75665898533065
 30
0.0
 10
0.2033264488975056
 20
20.91377792774387
 30
0.0
 10
-1.467039972139109
 20
20.07153354244772
 30
0.0
 10
-3.137406393175723
 20
19.22928915715158
 30
0.0
 10
-4.708890310925206
 20
18.38768144414575
 30
0.0
 10
-6.162129841521505
 20
17.57037925957788
 30
0.0
 10
-7.615369372117804
 20
16.75307707501032
 30
0.0
 10
-8.95036451556092
 20
15.9600804188804
 30
0.0
 10
-10.14775338798512
 20
15.21505814733573
 30
0.0
 10
-10.19750962783938
 20
15.18409952754774
 30
0.0
 10
-10.24822906154724
 20
15.15496806225899
 30
0.0
 10
-10.29980906095955
 20
15.12768271891428
 30
0.0
 10
-10.35138906037187
 20
15.10039737556988
 30
0.0
 10
-10.40382962548926
 20
15.07495815416953
 30
0.0
 10
-10.45702812816258
 20
15.05138402215833
 30
0.0
 10
-10.51022663083589
 20
15.02780989014746
 30
0.0
 10
-10.56418307106513
 20
15.00610084752543
 30
0.0
 10
-10.61879482070175
 20
14.98627586173768
 30
0.0
 10
-10.67340657033804
 20
14.96645087595026
 30
0.0
 10
-10.72867362938173
 20
14.94850994699649
 30
0.0
 10
-10.78449336968396
 20
14.93247204232245
 30
0.0
 10
-10.84031310998618
 20
14.91643413764808
 30
0.0
 10
-10.89668553154695
 20
14.90229925725281
 30
0.0
 10
-10.9535080062174
 20
14.89008636858176
 30
0.0
 10
-11.01033048088818
 20
14.87787347991071
 30
0.0
 10
-11.06760300866832
 20
14.86758258296355
 30
0.0
 10
-11.12522296140963
 20
14.85923264518573
 30
0.0
 10
-11.18284291415094
 20
14.85088270740792
 30
0.0
 10
-11.2408102918534
 20
14.84447372879913
 30
0.0
 10
-11.29902246636786
 20
14.84002467680448
 30
0.0
 10
-11.35723464088232
 20
14.83557562480951
 30
0.0
 10
-11.41569161220909
 20
14.83308649942869
 30
0.0
 10
-11.47429075219965
 20
14.83257626810714
 30
0.0
 10
-11.47429075219965
 20
14.83257626810714
 30
0.0
 10
-19.14370053322199
 20
14.76579759030282
 30
0.0
 10
-19.14370053322199
 20
14.76579759030282
 30
0.0
 10
-19.14370053322199
 20
14.76579759030282
 30
0.0
 10
-26.81311031424401
 20
14.69901891249849
 30
0.0
 10
-26.81311031424401
 20
14.69901891249849
 30
0.0
 10
-26.81311031424401
 20
14.69901891249849
 30
0.0
 10
-34.48252009526604
 20
14.63224023469385
 30
0.0
 10
-34.48252009526604
 20
14.63224023469385
 30
0.0
 10
-34.48252009526604
 20
14.63224023469385
 30
0.0
 10
-42.15192987628806
 20
14.56546155688952
 30
0.0
 10
-42.15192987628806
 20
14.56546155688952
 30
0.0
 10
-42.15192987628806
 20
14.56546155688952
 30
0.0
 10
-49.82133965731008
 20
14.49868287908519
 30
0.0
 10
-49.82133965731008
 20
14.49868287908519
 30
0.0
 10
-49.82133965731008
 20
14.49868287908519
 30
0.0
 10
-57.4907494383321
 20
14.43190420128055
 30
0.0
 10
-57.4907494383321
 20
14.43190420128055
 30
0.0
 10
-57.4907494383321
 20
14.43190420128055
 30
0.0
 10
-65.16015921935413
 20
14.36512552347622
 30
0.0
 10
-65.16015921935413
 20
14.36512552347622
 30
0.0
 10
-65.16015921935413
 20
14.36512552347622
 30
0.0
 10
-72.82956900037615
 20
14.29834684567189
 30
0.0
 10
-72.82956900037615
 20
14.29834684567189
 30
0.0
 10
-73.00383418883152
 20
14.29682949307177
 30
0.0
 10
-73.17387502836789
 20
14.27778945726753
 30
0.0
 10
-73.33802471264595
 20
14.24290812091024
 30
0.0
 10
-73.50217439692399
 20
14.20802678455231
 30
0.0
 10
-73.6604329259431
 20
14.15730414764134
 30
0.0
 10
-73.81113349336424
 20
14.09242159282711
 30
0.0
 10
-73.96183406078507
 20
14.02753903801287
 30
0.0
 10
-74.1049766666073
 20
13.9484965652957
 30
0.0
 10
-74.2388945044913
 20
13.85697555732568
 30
0.0
 10
-74.37281234237498
 20
13.76545454935598
 30
0.0
 10
-74.49750541232012
 20
13.66145500613345
 30
0.0
 10
-74.61130690798709
 20
13.5466583103085
 30
0.0
 10
-74.72510840365405
 20
13.43186161448356
 30
0.0
 10
-74.82801832504218
 20
13.30626776605651
 30
0.0
 10
-74.91836986581218
 20
13.17155814767748
 30
0.0
 10
-75.00872140658218
 20
13.03684852929877
 30
0.0
 10
-75.08651456673405
 20
12.89302314096807
 30
0.0
 10
-75.15008253992718
 20
12.7417633653358
 30
0.0
 10
-75.21365051312033
 20
12.59050358970354
 30
0.0
 10
-75.26299329935537
 20
12.43180942677034
 30
0.0
 10
-75.29644409229205
 20
12.26736225918569
 30
0.0
 10
-75.32989488522841
 20
12.10291509160136
 30
0.0
 10
-75.34745368486674
 20
11.93271491936588
 30
0.0
 10
-75.34745368486674
 20
11.75844312513001
 30
0.0
  0
SPLINE
  5
42
330
1F
100
AcDbEntity
  8
DIMENSION
 62
   250
100
AcDbSpline
210
0.0
220
0.0
230
1.0
 70
    11
 71
     3
 72
   101
 73
    97
 74
     0
 42
0.0000000001
 43
0.0000000001
 12
1.0
 22
0.0
 32
0.0
 13
1.0
 23
0.0
 33
0.0
 40
0.0
 40
0.0
 40
0.0
 40
0.0
 40
1.0
 40
1.0
 40
1.0
 40
2.0
 40
2.0
 40
2.0
 40
3.0
 40
3.0
 40
3.0
 40
4.0
 40
4.0
 40
4.0
 40
5.0
 40
5.0
 40
5.0
 40
6.0
 40
6.0
 40
6.0
 40
7.0
 40
7.0
 40
7.0
 40
8.0
 40
8.0
 40
8.0
 40
9.0
 40
9.0
 40
9.0
 40
10.0
 40
10.0
 40
10.0
 40
11.0
 40
11.0
 40
11.0
 40
12.0
 40
12.0
 40
12.0
 40
13.0
 40
13.0
 40
13.0
 40
14.0
 40
14.0
 40
14.0
 40
15.0
 40
15.0
 40
15.0
 40
16.0
 40
16.0
 40
16.0
 40
17.0
 40
17.0
 40
17.0
 40
18.0
 40
18.0
 40
18.0
 40
19.0
 40
19.0
 40
19.0
 40
20.0
 40
20.0
 40
20.0
 40
21.0
 40
21.0
 40
21.0
 40
22.0
 40
22.0
 40
22.0
 40
23.0
 40
23.0
 40
23.0
 40
24.0
 40
24.0
 40
24.0
 40
25.0
 40
25.0
 40
25.0
 40
26.0
 40
26.0
 40
26.0
 40
27.0
 40
27.0
 40
27.0
 40
28.0
 40
28.0
 40
28.0
 40
29.0
 40
29.0
 40
29.0
 40
30.0
 40
30.0
 40
30.0
 40
31.0
 40
31.0
 40
31.0
 40
32.0
 40
32.0
 40
32.0
 40
32.0
 10
42.48273639786562
 20
-19.99797274974584
 30
0.0
 10
44.27547159953896
 20
-19.23718391321146
 30
0.0
 10
45.94083565398597
 20
-18.22143724122947
 30
0.0
 10
47.43046818471503
 20
-16.99605513016574
 30
0.0
 10
48.92010071544409
 20
-15.770673019102
 30
0.0
 10
50.23400172245519
 20
-14.33565546895653
 30
0.0
 10
51.32381082925737
 20
-12.73632487609582
 30
0.0
 10
52.41361993605922
 20
-11.13699428323513
 30
0.0
 10
53.27933714265215
 20
-9.373350647659521
 30
0.0
 10
53.87260207254421
 20
-7.490716365734563
 30
0.0
 10
54.4658670024366
 20
-5.608082083809926
 30
0.0
 10
54.78667965562843
 20
-3.606457155535936
 30
0.0
 10
54.78667965562843
 20
-1.531163977279751
 30
0.0
 10
54.78667965562843
 20
0.5145735347925383
 30
0.0
 10
54.48004791417333
 20
2.499031345648283
 30
0.0
 10
53.91027575397759
 20
4.373082466514585
 30
0.0
 10
53.34050359378185
 20
6.247133587381208
 30
0.0
 10
52.50759101484547
 20
8.010778018258069
 30
0.0
 10
51.45502933988259
 20
9.61488877037227
 30
0.0
 10
50.4024676649197
 20
11.21899952248679
 30
0.0
 10
49.13025689393096
 20
12.66357659583833
 30
0.0
 10
47.6818883496305
 20
13.89949300165399
 30
0.0
 10
46.23351980532973
 20
15.13540940746966
 30
0.0
 10
44.60899348771724
 20
16.16266514574944
 30
0.0
 10
42.85180071950781
 20
16.93213322771981
 30
0.0
 10
42.71438711901242
 20
16.99230612480998
 30
0.0
 10
42.62979446220786
 20
17.07855436418205
 30
0.0
 10
42.58894837847181
 20
17.17255373496975
 30
0.0
 10
42.54810229473607
 20
17.26655310575746
 30
0.0
 10
42.55100278406884
 20
17.36830360796111
 30
0.0
 10
42.58857547584876
 20
17.45948103071478
 30
0.0
 10
42.62614816762869
 20
17.55065845346812
 30
0.0
 10
42.69839306185545
 20
17.63126279677179
 30
0.0
 10
42.79623578790737
 20
17.68296984975984
 30
0.0
 10
42.89407851395929
 20
17.73467690274758
 30
0.0
 10
43.01751907183638
 20
17.75748666541969
 30
0.0
 10
43.15748309091695
 20
17.73307492691057
 30
0.0
 10
44.41965109253409
 20
17.51293466934677
 30
0.0
 10
45.76671089702942
 20
17.23090002617262
 30
0.0
 10
47.15678141175958
 20
16.8696544570884
 30
0.0
 10
48.54685192648974
 20
16.50840888800385
 30
0.0
 10
49.97993315145442
 20
16.06795239300923
 30
0.0
 10
51.41414399401058
 20
15.5309684318032
 30
0.0
 10
52.84835483656642
 20
14.99398447059717
 30
0.0
 10
54.28369529671375
 20
14.36047304318038
 30
0.0
 10
55.67828428180889
 20
13.61311760925213
 30
0.0
 10
57.07287326690403
 20
12.86576217532356
 30
0.0
 10
58.42671077694699
 20
12.00456273488354
 30
0.0
 10
59.69791571929473
 20
11.01220274763169
 30
0.0
 10
62.18470983572517
 20
9.070898953514764
 30
0.0
 10
64.17113691018046
 20
7.314866297464459
 30
0.0
 10
65.751955831371
 20
5.77280069757945
 30
0.0
 10
67.33277475256155
 20
4.230735097694442
 30
0.0
 10
68.50798552048798
 20
2.902636553974729
 30
0.0
 10
69.37234702386004
 20
1.817200984519953
 30
0.0
 10
70.2367085272321
 20
0.7317654150651768
 30
0.0
 10
70.79022076605108
 20
-0.111007180125305
 30
0.0
 10
71.12764262902608
 20
-0.6824208829521728
 30
0.0
 10
71.46506449200173
 20
-1.25383458577872
 30
0.0
 10
71.58639597913404
 20
-1.553889396241653
 30
0.0
 10
71.58639597913404
 20
-1.553889396241653
 30
0.0
 10
71.58639597913404
 20
-1.553889396241653
 30
0.0
 10
71.31856610238805
 20
-2.007752625318981
 30
0.0
 10
70.79050070567268
 20
-2.775821338895974
 30
0.0
 10
70.26243530895731
 20
-3.543890052473289
 30
0.0
 10
69.47413439227253
 20
-4.626164250549947
 30
0.0
 10
68.43319231239433
 20
-5.882986188548928
 30
0.0
 10
67.39225023251613
 20
-7.13980812654791
 30
0.0
 10
66.0986669894445
 20
-8.571177804469214
 30
0.0
 10
64.560036939956
 20
-10.03743747773486
 30
0.0
 10
63.02140689046817
 20
-11.5036971510005
 30
0.0
 10
61.23773003456284
 20
-13.00484681961112
 30
0.0
 10
59.21660072901727
 20
-14.40122873898875
 30
0.0
 10
58.16636225456669
 20
-15.12682930065523
 30
0.0
 10
57.21106774478157
 20
-15.75736104483003
 30
0.0
 10
56.21897552670081
 20
-16.33261107877017
 30
0.0
 10
55.22688330862005
 20
-16.90786111271031
 30
0.0
 10
54.19799338224429
 20
-17.42782943641579
 30
0.0
 10
53.00056407461209
 20
-17.93230315714364
 30
0.0
 10
51.8031347669799
 20
-18.43677687787148
 30
0.0
 10
50.43716607809192
 20
-18.925755995622
 30
0.0
 10
48.77091633498704
 20
-19.43902761765224
 30
0.0
 10
47.10466659188215
 20
-19.95229923968215
 30
0.0
 10
45.13813579456101
 20
-20.48986336599176
 30
0.0
 10
42.73958227006217
 20
-21.09150710383778
 30
0.0
 10
42.59008061049148
 20
-21.12900751246319
 30
0.0
 10
42.45942171323173
 20
-21.09632529998569
 30
0.0
 10
42.35749185096643
 20
-21.02197963133249
 30
0.0
 10
42.25556198870115
 20
-20.94763396267896
 30
0.0
 10
42.18236116143
 20
-20.83162483785005
 30
0.0
 10
42.14777564183622
 20
-20.70247142177263
 30
0.0
 10
42.11319012224244
 20
-20.57331800569553
 30
0.0
 10
42.11721991032601
 20
-20.4310202983696
 30
0.0
 10
42.16975127876984
 20
-20.30409746472268
 30
0.0
 10
42.22228264721399
 20
-20.17717463107577
 30
0.0
 10
42.32331559601806
 20
-20.06562667110786
 30
0.0
 10
42.48273639786562
 20
-19.99797274974584
 30
0.0
  0
SPLINE
  5
43
330
1F
100
AcDbEntity
  8
DIMENSION
 62
   250
100
AcDbSpline
210
0.0
220
0.0
230
1.0
 70
    11
 71
     3
 72
   101
 73
    97
 74
     0
 42
0.0000000001
 43
0.0000000001
 12
1.0
 22
0.0
 32
0.0
 13
1.0
 23
0.0
 33
0.0
 40
0.0
 40
0.0
 40
0.0
 40
0.0
 40
1.0
 40
1.0
 40
1.0
 40
2.0
 40
2.0
 40
2.0
 40
3.0
 40
3.0
 40
3.0
 40
4.0
 40
4.0
 40
4.0
 40
5.0
 40
5.0
 40
5.0
 40
6.0
 40
6.0
 40
6.0
 40
7.0
 40
7.0
 40
7.0
 40
8.0
 40
8.0
 40
8.0
 40
9.0
 40
9.0
 40
9.0
 40
10.0
 40
10.0
 40
10.0
 40
11.0
 40
11.0
 40
11.0
 40
12.0
 40
12.0
 40
12.0
 40
13.0
 40
13.0
 40
13.0
 40
14.0
 40
14.0
 40
14.0
 40
15.0
 40
15.0
 40
15.0
 40
16.0
 40
16.0
 40
16.0
 40
17.0
 40
17.0
 40
17.0
 40
18.0
 40
18.0
 40
18.0
 40
19.0
 40
19.0
 40
19.0
 40
20.0
 40
20.0
 40
20.0
 40
21.0
 40
21.0
 40
21.0
 40
22.0
 40
22.0
 40
22.0
 40
23.0
 40
23.0
 40
23.0
 40
24.0
 40
24.0
 40
24.0
 40
25.0
 40
25.0
 40
25.0
 40
26.0
 40
26.0
 40
26.0
 40
27.0
 40
27.0
 40
27.0
 40
28.0
 40
28.0
 40
28.0
 40
29.0
 40
29.0
 40
29.0
 40
30.0
 40
30.0
 40
30.0
 40
31.0
 40
31.0
 40
31.0
 40
32.0
 40
32.0
 40
32.0
 40
32.0
 10
26.82767323404493
 20
-19.99797275039075
 30
0.0
 10
25.03493803240559
 20
-19.23718391377616
 30
0.0
 10
23.36957397800414
 20
-18.22143724171909
 30
0.0
 10
21.87994144733027
 20
-16.9960551305883
 30
0.0
 10
20.39030891665639
 20
-15.77067301945782
 30
0.0
 10
19.07640790970946
 20
-14.33565546925363
 30
0.0
 10
17.98659880297948
 20
-12.73632487634384
 30
0.0
 10
16.89678969624949
 20
-11.13699428343437
 30
0.0
 10
16.03107248973582
 20
-9.373350647819624
 30
0.0
 10
15.43780755992782
 20
-7.490716365868357
 30
0.0
 10
14.84454263012014
 20
-5.60808208391709
 30
0.0
 10
14.52372997701814
 20
-3.606457155628983
 30
0.0
 10
14.52372997711118
 20
-1.531163977372798
 30
0.0
 10
14.52372997720295
 20
0.514573534699492
 30
0.0
 10
14.83036171874692
 20
2.499031345541761
 30
0.0
 10
15.40013387902705
 20
4.373082466382395
 30
0.0
 10
15.96990603930685
 20
6.247133587223351
 30
0.0
 10
16.80281861832249
 20
8.010778018062991
 30
0.0
 10
17.85538029335724
 20
9.614888770130028
 30
0.0
 10
18.90794196839199
 20
11.21899952219674
 30
0.0
 10
20.18015273944554
 20
12.66357659549149
 30
0.0
 10
21.62852128380183
 20
13.89949300124202
 30
0.0
 10
23.07688982815779
 20
15.13540940699255
 30
0.0
 10
24.70141614581616
 20
16.16266514519951
 30
0.0
 10
26.45860891406025
 20
16.93213322709159
 30
0.0
 10
26.5960225145582
 20
16.99230612417599
 30
0.0
 10
26.68061517136661
 20
17.07855436354388
 30
0.0
 10
26.72146125510683
 20
17.17255373432998
 30
0.0
 10
26.76230733884706
 20
17.26655310511576
 30
0.0
 10
26.7594068495191
 20
17.36830360731941
 30
0.0
 10
26.72183415774335
 20
17.45948103007468
 30
0.0
 10
26.68426146596759
 20
17.55065845282963
 30
0.0
 10
26.61201657174469
 20
17.63126279613651
 30
0.0
 10
26.51417384569501
 20
17.68296984912873
 30
0.0
 10
26.41633111964533
 20
17.73467690212128
 30
0.0
 10
26.29289056176954
 20
17.75748666479885
 30
0.0
 10
26.15292654268768
 20
17.73307492629582
 30
0.0
 10
24.89075854106027
 20
17.51293466878849
 30
0.0
 10
23.56077964252867
 20
17.214524433815
 30
0.0
 10
22.18604382287406
 20
16.84484224972473
 30
0.0
 10
20.81130800321946
 20
16.47516006563445
 30
0.0
 10
19.39181526244217
 20
16.03420593242739
 30
0.0
 10
17.95061957632434
 20
15.52897787845323
 30
0.0
 10
16.50942389020651
 20
15.02374982447907
 30
0.0
 10
15.04652525874815
 20
14.45424784973814
 30
0.0
 10
13.58497765773108
 20
13.82746998257981
 30
0.0
 10
12.123430056714
 20
13.2006921154218
 30
0.0
 10
10.66323348613854
 20
12.51663835584606
 30
0.0
 10
9.227441921786522
 20
11.78230673220293
 30
0.0
 10
6.286553310462335
 20
10.27819738755547
 30
0.0
 10
3.567698248734374
 20
8.692630457245588
 30
0.0
 10
1.143665500012026
 20
7.160341568144314
 30
0.0
 10
-1.28036724871
 20
5.62805267904336
 30
0.0
 10
-3.409577684426413
 20
4.149041831151338
 30
0.0
 10
-5.171177043727504
 20
2.858044651340248
 30
0.0
 10
-6.932776403028593
 20
1.567047471528837
 30
0.0
 10
-8.32676468591404
 20
0.4640639597986796
 30
0.0
 10
-9.280353128974454
 20
-0.316170256978545
 30
0.0
 10
-10.23394157203455
 20
-1.096404473756091
 30
0.0
 10
-10.74713017526961
 20
-1.553889395580703
 30
0.0
 10
-10.74713017526961
 20
-1.553889395580703
 30
0.0
 10
-10.74713017526961
 20
-1.553889395580703
 30
0.0
 10
-10.06548132543766
 20
-2.143264577608167
 30
0.0
 10
-8.887780590047372
 20
-3.098772544517436
 30
0.0
 10
-7.710079854657402
 20
-4.054280511426384
 30
0.0
 10
-6.03632723370909
 20
-5.375921263216815
 30
0.0
 10
-4.052119691476361
 20
-6.840452402742429
 30
0.0
 10
-2.067912149243632
 20
-8.30498354226772
 30
0.0
 10
0.2267503142738347
 20
-9.912405069528514
 30
0.0
 10
2.646270734801792
 20
-11.43947458737819
 30
0.0
 10
5.065791155329749
 20
-12.96654410522754
 30
0.0
 10
7.610169532868518
 20
-14.41326161366609
 30
0.0
 10
10.09380890314417
 20
-15.55638471554722
 30
0.0
 10
11.25474715687042
 20
-16.09071967318005
 30
0.0
 10
12.28840049185298
 20
-16.58212790626576
 30
0.0
 10
13.330010057391
 20
-17.0491029409852
 30
0.0
 10
14.37161962292934
 20
-17.51607797570465
 30
0.0
 10
15.42118541902314
 20
-17.95861981205815
 30
0.0
 10
16.6139485949722
 20
-18.3952219762269
 30
0.0
 10
17.80671177092126
 20
-18.83182414039565
 30
0.0
 10
19.14267232672558
 20
-19.26248663237964
 30
0.0
 10
20.75707141168431
 20
-19.70570297836006
 30
0.0
 10
22.37147049664304
 20
-20.14891932434048
 30
0.0
 10
24.26430811075651
 20
-20.60468952431733
 30
0.0
 10
26.57082540332386
 20
-21.09150710447178
 30
0.0
 10
26.72163589742986
 20
-21.12333743153598
 30
0.0
 10
26.85294933436392
 20
-21.08782017828044
 30
0.0
 10
26.95512478671501
 20
-21.01241136933768
 30
0.0
 10
27.05730023906643
 20
-20.93700256039523
 30
0.0
 10
27.13033770683485
 20
-20.82170219576556
 30
0.0
 10
27.16459626260989
 20
-20.6939663000815
 30
0.0
 10
27.19885481838493
 20
-20.56623040439743
 30
0.0
 10
27.19433446216562
 20
-20.42605897765928
 30
0.0
 10
27.14139426654187
 20
-20.30090804449988
 30
0.0
 10
27.08845407091811
 20
-20.17575711134048
 30
0.0
 10
26.98709403588927
 20
-20.06562667175983
 30
0.0
 10
26.82767323404493
 20
-19.99797275039075
 30
0.0
  0
ENDSEC
  0
SECTION
  2
OBJECTS
  0
DICTIONARY
  5
C
330
0
100
AcDbDictionary
  3
ACAD_GROUP
350
D
  3
ACAD_LAYOUT
350
1A
  3
ACAD_MATERIAL
350
3B
  3
ACAD_MLEADERSTYLE
350
49
  3
ACAD_MLINESTYLE
350
17
  3
ACAD_PLOTSETTINGS
350
19
  3
ACAD_VISUALSTYLE
350
2A
  3
ACDBVARIABLEDICTIONARY
350
47
1001
ACAD
1000
TREAT_AS_HARD
1070
     0
  0
DICTIONARY
  5
D
102
{ACAD_REACTORS
330
C
102
}
330
C
100
AcDbDictionary
1001
ACAD
1000
TREAT_AS_HARD
1070
     0
  0
DICTIONARY
  5
1A
102
{ACAD_REACTORS
330
C
102
}
330
C
100
AcDbDictionary
1001
ACAD
1000
TREAT_AS_HARD
1070
     0
  0
DICTIONARY
  5
3B
102
{ACAD_REACTORS
330
C
102
}
330
C
100
AcDbDictionary
  3
BYBLOCK
350
3D
  3
BYLAYER
350
3C
  3
GLOBAL
350
3E
1001
ACAD
1000
TREAT_AS_HARD
1070
     0
  0
DICTIONARY
  5
49
102
{ACAD_REACTORS
330
C
102
}
330
C
100
AcDbDictionary
1001
ACAD
1000
TREAT_AS_HARD
1070
     0
  0
DICTIONARY
  5
17
102
{ACAD_REACTORS
330
C
102
}
330
C
100
AcDbDictionary
  3
STANDARD
350
18
1001
ACAD
1000
TREAT_AS_HARD
1070
     0
  0
DICTIONARY
  5
19
102
{ACAD_REACTORS
330
C
102
}
330
C
100
AcDbDictionary
1001
ACAD
1000
TREAT_AS_HARD
1070
     0
  0
DICTIONARY
  5
2A
102
{ACAD_REACTORS
330
C
102
}
330
C
100
AcDbDictionary
  3
2DWIREFRAME
350
2F
  3
3DWIREFRAME
350
30
  3
3D_HIDDEN
350
31
  3
BASIC
350
32
  3
BRIGHTEN
350
36
  3
COLORCHANGE
350
3A
  3
CONCEPTUAL
350
34
  3
DIM
350
35
  3
FACEPATTERN
350
39
  3
FLAT
350
2B
  3
FLATWITHEDGES
350
2C
  3
GOURAUD
350
2D
  3
GOURAUDWITHEDGES
350
2E
  3
LINEPATTERN
350
38
  3
REALISTIC
350
33
  3
THICKEN
350
37
1001
ACAD
1000
TREAT_AS_HARD
1070
     0
  0
DICTIONARY
  5
47
102
{ACAD_REACTORS
330
C
102
}
330
C
100
AcDbDictionary
  3
DIMASSOC
350
4A
  3
HIDETEXT
350
4B
1001
ACAD
1000
TREAT_AS_HARD
1070
     0
  0
MATERIAL
  5
3D
102
{ACAD_REACTORS
330
3B
102
}
102
{ACAD_XDICTIONARY
360
4E
102
}
330
3B
100
AcDbMaterial
  1
ByBlock
  0
MATERIAL
  5
3C
102
{ACAD_REACTORS
330
3B
102
}
102
{ACAD_XDICTIONARY
360
4C
102
}
330
3B
100
AcDbMaterial
  1
ByLayer
  0
MATERIAL
  5
3E
102
{ACAD_REACTORS
330
3B
102
}
102
{ACAD_XDICTIONARY
360
50
102
}
330
3B
100
AcDbMaterial
  1
Global
  0
MLINESTYLE
  5
18
102
{ACAD_REACTORS
330
17
102
}
330
17
100
AcDbMlineStyle
  2
Standard
 70
     0
  3

 62
   256
 51
90.0
 52
90.0
 71
     2
 49
0.5
 62
   256
  6
BYLAYER
 49
-0.5
 62
   256
  6
BYLAYER
  0
ACAD_PROXY_OBJECT
  5
2F
102
{ACAD_REACTORS
330
2A
102
}
330
2A
100
AcDbZombieObject
 90
      499
 91
      501
 93
      436
310
42CC9915DA5C99599C985B595049028333333333333E3BF0000000000000FB0107901411070040501600405405064090741402480A0340
1001
ACAD
1000
AcDbSavedByObjectVersion
1070
     0
  0
ACAD_PROXY_OBJECT
  5
30
102
{ACAD_REACTORS
330
2A
102
}
330
2A
100
AcDbZombieObject
 90
      499
 91
      501
 93
      436
310
42CCD915DA5C99599C985B595059028333333333333E3BF0000000000000FB0107901411070040501600405405064090741402480A0340
1001
ACAD
1000
AcDbSavedByObjectVersion
1070
     0
  0
ACAD_PROXY_OBJECT
  5
31
102
{ACAD_REACTORS
330
2A
102
}
330
2A
100
AcDbZombieObject
 90
      499
 91
      501
 93
      500
310
424CD108121A5919195B90640502408333333333333E3BF0000000000000FB01079024090700405020000000000001110200405405064090740C02480A0340
1001
ACAD
1000
AcDbSavedByObjectVersion
1070
     0
  0
ACAD_PROXY_OBJECT
  5
32
102
{ACAD_REACTORS
330
2A
102
}
330
2A
100
AcDbZombieObject
 90
      499
 91
      501
 93
      388
310
4150985CDA58D07406404333333333333E3BF0000000000000FB0107A41107004050150841D405064090741402480A0350
1001
ACAD
1000
AcDbSavedByObjectVersion
1070
     0
  0
ACAD_PROXY_OBJECT
  5
36
102
{ACAD_REACTORS
330
2A
102
}
330
2A
100
AcDbZombieObject
 90
      499
 91
      501
 93
      428
310
42109C9A59DA1D195B90C409028333333333333E3BF0000000000000FB010790141107004050150841D405064090741402480A029950
1001
ACAD
1000
AcDbSavedByObjectVersion
1070
     0
  0
ACAD_PROXY_OBJECT
  5
3A
102
{ACAD_REACTORS
330
2A
102
}
330
2A
100
AcDbZombieObject
 90
      499
 91
      501
 93
      452
310
42D0DBDB1BDC90DA185B99D95104090240C333333333333E3BF0000000000000FB0108901411070040501508421405064090741402480A0350
1001
ACAD
1000
AcDbSavedByObjectVersion
1070
     0
  0
ACAD_PROXY_OBJECT
  5
34
102
{ACAD_REACTORS
330
2A
102
}
330
2A
100
AcDbZombieObject
 90
      499
 91
      501
 93
      500
310
4290DBDB98D95C1D1D585B10940D028333333333333E3BF0000000000000FB0107902409070040501000000000000111010841D405064090740C02480A0340
1001
ACAD
1000
AcDbSavedByObjectVersion
1070
     0
  0
ACAD_PROXY_OBJECT
  5
35
102
{ACAD_REACTORS
330
2A
102
}
330
2A
100
AcDbZombieObject
 90
      499
 91
      501
 93
      412
310
40D11A5B50B409028333333333333E3BF0000000000000FB010790141107004050150841D405064090741402480A02677FFFFFD0
1001
ACAD
1000
AcDbSavedByObjectVersion
1070
     0
  0
ACAD_PROXY_OBJECT
  5
39
102
{ACAD_REACTORS
330
2A
102
}
330
2A
100
AcDbZombieObject
 90
      499
 91
      501
 93
      444
310
42D19858D95C185D1D195C9B90F409028333333333333E3BF0000000000000FB010790141107004050150841D405064090741402480A0350
1001
ACAD
1000
AcDbSavedByObjectVersion
1070
     0
  0
ACAD_PROXY_OBJECT
  5
2B
102
{ACAD_REACTORS
330
2A
102
}
330
2A
100
AcDbZombieObject
 90
      499
 91
      501
 93
      388
310
41119B185D240901404333333333333E3BF0000000000000F9010740A41107004050150841D405064090741402480A1B50
1001
ACAD
1000
AcDbSavedByObjectVersion
1070
     0
  0
ACAD_PROXY_OBJECT
  5
2C
102
{ACAD_REACTORS
330
2A
102
}
330
2A
100
AcDbZombieObject
 90
      499
 91
      501
 93
      476
310
43519B185D15DA5D1A115919D95CD0140901404333333333333E3BF0000000000000F9010740901411070040501600405405064090741402480A1B50
1001
ACAD
1000
AcDbSavedByObjectVersion
1070
     0
  0
ACAD_PROXY_OBJECT
  5
2D
102
{ACAD_REACTORS
330
2A
102
}
330
2A
100
AcDbZombieObject
 90
      499
 91
      501
 93
      412
310
41D1DBDD5C985D5910240902404333333333333E3BF0000000000000F9010740A411070040501641D405064090741402480A1B50
1001
ACAD
1000
AcDbSavedByObjectVersion
1070
     0
  0
ACAD_PROXY_OBJECT
  5
2E
102
{ACAD_REACTORS
330
2A
102
}
330
2A
100
AcDbZombieObject
 90
      499
 91
      501
 93
      500
310
4411DBDD5C985D5915DA5D1A115919D95CD0340902404333333333333E3BF0000000000000F9010740901411070040501600405405064090741402480A1B50
1001
ACAD
1000
AcDbSavedByObjectVersion
1070
     0
  0
ACAD_PROXY_OBJECT
  5
38
102
{ACAD_REACTORS
330
2A
102
}
330
2A
100
AcDbZombieObject
 90
      499
 91
      501
 93
      444
310
42D31A5B995C185D1D195C9B90E409028333333333333E3BF0000000000000FB010790141107004050750841D405064090741402483A0350
1001
ACAD
1000
AcDbSavedByObjectVersion
1070
     0
  0
ACAD_PROXY_OBJECT
  5
33
102
{ACAD_REACTORS
330
2A
102
}
330
2A
100
AcDbZombieObject
 90
      499
 91
      501
 93
      420
310
425499585B1A5CDD1A58D08409028333333333333E3BF0000000000000FB01079019070040501508421405064090741402480A1B40
1001
ACAD
1000
AcDbSavedByObjectVersion
1070
     0
  0
ACAD_PROXY_OBJECT
  5
37
102
{ACAD_REACTORS
330
2A
102
}
330
2A
100
AcDbZombieObject
 90
      499
 91
      501
 93
      412
310
41D51A1A58DAD95B90D409028333333333333E3BF0000000000000FB010790141107004050150C41D405064090741402480A0350
1001
ACAD
1000
AcDbSavedByObjectVersion
1070
     0
  0
DICTIONARYVAR
  5
4A
102
{ACAD_REACTORS
330
47
102
}
330
47
100
DictionaryVariables
280
     0
  1
2
  0
DICTIONARYVAR
  5
4B
102
{ACAD_REACTORS
330
47
102
}
330
47
100
DictionaryVariables
280
     0
  1
1
  0
DICTIONARY
  5
4E
330
3D
100
AcDbDictionary
  3
ACAD_XREC_ROUNDTRIP
360
4F
1001
ACAD
1000
TREAT_AS_HARD
1070
     1
  0
DICTIONARY
  5
4C
330
3C
100
AcDbDictionary
  3
ACAD_XREC_ROUNDTRIP
360
4D
1001
ACAD
1000
TREAT_AS_HARD
1070
     1
  0
DICTIONARY
  5
50
330
3E
100
AcDbDictionary
  3
ACAD_XREC_ROUNDTRIP
360
51
1001
ACAD
1000
TREAT_AS_HARD
1070
     1
  0
XRECORD
  5
4F
102
{ACAD_REACTORS
330
4E
102
}
330
4E
100
AcDbXrecord
102
MATERIAL
148
0.0
149
0.0
149
0.0
 93
        0
 94
      127
282
     0
 72
     1
 77
     1
171
     1
175
     1
179
     1
273
     0
  0
XRECORD
  5
4D
102
{ACAD_REACTORS
330
4C
102
}
330
4C
100
AcDbXrecord
102
MATERIAL
148
0.0
149
0.0
149
0.0
 93
        0
 94
      127
282
     0
 72
     1
 77
     1
171
     1
175
     1
179
     1
273
     0
  0
XRECORD
  5
51
102
{ACAD_REACTORS
330
50
102
}
330
50
100
AcDbXrecord
102
MATERIAL
148
0.0
149
0.0
149
0.0
 93
        0
 94
      127
282
     0
 72
     1
 77
     1
171
     1
175
     1
179
     1
273
     0
  0
ENDSEC
  0
EOF
