  0
SECTION
  2
HEADER
  9
$ACADVER
  1
AC1012
  9
$DWGCODEPAGE
  3
undefined
  9
$INSBASE
 10
0.0
 20
0.0
 30
0.0
  9
$EXTMIN
 10
1.000000000000000E+20
 20
1.000000000000000E+20
 30
1.000000000000000E+20
  9
$EXTMAX
 10
-1.000000000000000E+20
 20
-1.000000000000000E+20
 30
-1.000000000000000E+20
  9
$LIMMIN
 10
0.0
 20
0.0
  9
$LIMMAX
 10
12.0
 20
9.0
  9
$ORTHOMODE
 70
     0
  9
$REGENMODE
 70
     1
  9
$FILLMODE
 70
     1
  9
$QTEXTMODE
 70
     0
  9
$MIRRTEXT
 70
     1
  9
$DRAGMODE
 70
     2
  9
$LTSCALE
 40
1.0
  9
$OSMODE
 70
    37
  9
$ATTMODE
 70
     1
  9
$TEXTSIZE
 40
0.2
  9
$TRACEWID
 40
0.05
  9
$TEXTSTYLE
  7
STANDARD
  9
$CLAYER
  8
0
  9
$CELTYPE
  6
BYLAYER
  9
$CECOLOR
 62
   256
  9
$CELTSCALE
 40
1.0
  9
$DELOBJ
 70
     1
  9
$DISPSILH
 70
     0
  9
$DIMSCALE
 40
1.0
  9
$DIMASZ
 40
0.18
  9
$DIMEXO
 40
0.0625
  9
$DIMDLI
 40
0.38
  9
$DIMRND
 40
0.0
  9
$DIMDLE
 40
0.0
  9
$DIMEXE
 40
0.18
  9
$DIMTP
 40
0.0
  9
$DIMTM
 40
0.0
  9
$DIMTXT
 40
0.18
  9
$DIMCEN
 40
0.09
  9
$DIMTSZ
 40
0.0
  9
$DIMTOL
 70
     0
  9
$DIMLIM
 70
     0
  9
$DIMTIH
 70
     1
  9
$DIMTOH
 70
     1
  9
$DIMSE1
 70
     0
  9
$DIMSE2
 70
     0
  9
$DIMTAD
 70
     0
  9
$DIMZIN
 70
     0
  9
$DIMBLK
  1

  9
$DIMASO
 70
     1
  9
$DIMSHO
 70
     1
  9
$DIMPOST
  1

  9
$DIMAPOST
  1

  9
$DIMALT
 70
     0
  9
$DIMALTD
 70
     2
  9
$DIMALTF
 40
25.4
  9
$DIMLFAC
 40
1.0
  9
$DIMTOFL
 70
     0
  9
$DIMTVP
 40
0.0
  9
$DIMTIX
 70
     0
  9
$DIMSOXD
 70
     0
  9
$DIMSAH
 70
     0
  9
$DIMBLK1
  1

  9
$DIMBLK2
  1

  9
$DIMSTYLE
  2
STANDARD
  9
$DIMCLRD
 70
     0
  9
$DIMCLRE
 70
     0
  9
$DIMCLRT
 70
     0
  9
$DIMTFAC
 40
1.0
  9
$DIMGAP
 40
0.09
  9
$DIMJUST
 70
     0
  9
$DIMSD1
 70
     0
  9
$DIMSD2
 70
     0
  9
$DIMTOLJ
 70
     1
  9
$DIMTZIN
 70
     0
  9
$DIMALTZ
 70
     0
  9
$DIMALTTZ
 70
     0
  9
$DIMFIT
 70
     3
  9
$DIMUPT
 70
     0
  9
$DIMUNIT
 70
     2
  9
$DIMDEC
 70
     4
  9
$DIMTDEC
 70
     4
  9
$DIMALTU
 70
     2
  9
$DIMALTTD
 70
     2
  9
$DIMTXSTY
  7
STANDARD
  9
$DIMAUNIT
 70
     0
  9
$LUNITS
 70
     2
  9
$LUPREC
 70
     4
  9
$SKETCHINC
 40
0.1
  9
$FILLETRAD
 40
0.5
  9
$AUNITS
 70
     0
  9
$AUPREC
 70
     0
  9
$MENU
  1
.
  9
$ELEVATION
 40
0.0
  9
$PELEVATION
 40
0.0
  9
$THICKNESS
 40
0.0
  9
$LIMCHECK
 70
     0
  9
$CHAMFERA
 40
0.5
  9
$CHAMFERB
 40
0.5
  9
$CHAMFERC
 40
1.0
  9
$CHAMFERD
 40
0.0
  9
$SKPOLY
 70
     0
  9
$TDCREATE
 40
2458817.034733785
  9
$TDUPDATE
 40
2458817.034733785
  9
$TDINDWG
 40
0.0000000116
  9
$TDUSRTIMER
 40
0.0000000116
  9
$USRTIMER
 70
     1
  9
$ANGBASE
 50
0.0
  9
$ANGDIR
 70
     0
  9
$PDMODE
 70
     0
  9
$PDSIZE
 40
0.0
  9
$PLINEWID
 40
0.0
  9
$COORDS
 70
     1
  9
$SPLFRAME
 70
     0
  9
$SPLINETYPE
 70
     6
  9
$SPLINESEGS
 70
     8
  9
$ATTDIA
 70
     0
  9
$ATTREQ
 70
     1
  9
$HANDLING
 70
     1
  9
$HANDSEED
  5
52
  9
$SURFTAB1
 70
     6
  9
$SURFTAB2
 70
     6
  9
$SURFTYPE
 70
     6
  9
$SURFU
 70
     6
  9
$SURFV
 70
     6
  9
$UCSNAME
  2

  9
$UCSORG
 10
0.0
 20
0.0
 30
0.0
  9
$UCSXDIR
 10
1.0
 20
0.0
 30
0.0
  9
$UCSYDIR
 10
0.0
 20
1.0
 30
0.0
  9
$PUCSNAME
  2

  9
$PUCSORG
 10
0.0
 20
0.0
 30
0.0
  9
$PUCSXDIR
 10
1.0
 20
0.0
 30
0.0
  9
$PUCSYDIR
 10
0.0
 20
1.0
 30
0.0
  9
$USERI1
 70
     0
  9
$USERI2
 70
     0
  9
$USERI3
 70
     0
  9
$USERI4
 70
     0
  9
$USERI5
 70
     0
  9
$USERR1
 40
0.0
  9
$USERR2
 40
0.0
  9
$USERR3
 40
0.0
  9
$USERR4
 40
0.0
  9
$USERR5
 40
0.0
  9
$WORLDVIEW
 70
     1
  9
$SHADEDGE
 70
     3
  9
$SHADEDIF
 70
    70
  9
$TILEMODE
 70
     1
  9
$MAXACTVP
 70
    64
  9
$PINSBASE
 10
0.0
 20
0.0
 30
0.0
  9
$PLIMCHECK
 70
     0
  9
$PEXTMIN
 10
1.000000000000000E+20
 20
1.000000000000000E+20
 30
1.000000000000000E+20
  9
$PEXTMAX
 10
-1.000000000000000E+20
 20
-1.000000000000000E+20
 30
-1.000000000000000E+20
  9
$PLIMMIN
 10
0.0
 20
0.0
  9
$PLIMMAX
 10
12.0
 20
9.0
  9
$UNITMODE
 70
     0
  9
$VISRETAIN
 70
     1
  9
$PLINEGEN
 70
     0
  9
$PSLTSCALE
 70
     1
  9
$TREEDEPTH
 70
  3020
  9
$PICKSTYLE
 70
     1
  9
$CMLSTYLE
  2
STANDARD
  9
$CMLJUST
 70
     0
  9
$CMLSCALE
 40
1.0
  9
$SAVEIMAGES
 70
     1
  0
ENDSEC
  0
SECTION
  2
CLASSES
  0
CLASS
  1
ACDBDICTIONARYWDFLT
  2
AcDbDictionaryWithDefault
  3
ObjectDBX Classes
 90
    32768
280
     0
281
     0
  0
CLASS
  1
VISUALSTYLE
  2
AcDbVisualStyle
  3
ObjectDBX Classes
 90
     4095
280
     0
281
     0
  0
CLASS
  1
MATERIAL
  2
AcDbMaterial
  3
ObjectDBX Classes
 90
     1153
280
     0
281
     0
  0
CLASS
  1
SUN
  2
AcDbSun
  3
SCENEOE
 90
     1024
280
     0
281
     0
  0
CLASS
  1
DICTIONARYVAR
  2
AcDbDictionaryVar
  3
ObjectDBX Classes
 90
        0
280
     0
281
     0
  0
CLASS
  1
XRECORD
  2
AcDbXrecord
  3
AutoCAD 2000
 90
    32768
280
     0
281
     0
  0
CLASS
  1
LWPOLYLINE
  2
AcDbPolyline
  3
AutoCAD 2000
 90
    32768
280
     0
281
     1
  0
CLASS
  1
HATCH
  2
AcDbHatch
  3
AutoCAD 2000
 90
    32768
280
     0
281
     1
  0
CLASS
  1
ACDBPLACEHOLDER
  2
AcDbPlaceHolder
  3
ObjectDBX Classes
 90
        0
280
     0
281
     0
  0
CLASS
  1
LAYOUT
  2
AcDbLayout
  3
ObjectDBX Classes
 90
        0
280
     0
281
     0
  0
ENDSEC
  0
SECTION
  2
TABLES
  0
TABLE
  2
VPORT
  5
8
330
0
100
AcDbSymbolTable
 70
     1
  0
VPORT
  5
29
330
8
100
AcDbSymbolTableRecord
100
AcDbViewportTableRecord
  2
*ACTIVE
 70
     0
 10
0.0
 20
0.0
 11
1.0
 21
1.0
 12
0.0
 22
0.0
 13
0.0
 23
0.0
 14
0.5
 24
0.5
 15
0.5
 25
0.5
 16
0.0
 26
0.0
 36
1.0
 17
64.34389976604898
 27
-63.91503266375991
 37
0.0
 40
66.54357296811368
 41
2.422037422037413
 42
50.0
 43
0.0
 44
0.0
 50
0.0
 51
0.0
 71
     0
 72
   100
 73
     1
 74
     3
 75
     0
 76
     0
 77
     0
 78
     0
  0
ENDTAB
  0
TABLE
  2
LTYPE
  5
5
330
0
100
AcDbSymbolTable
 70
     1
  0
LTYPE
  5
14
330
5
100
AcDbSymbolTableRecord
100
AcDbLinetypeTableRecord
  2
BYBLOCK
 70
     0
  3

 72
    65
 73
     0
 40
0.0
  0
LTYPE
  5
15
330
5
100
AcDbSymbolTableRecord
100
AcDbLinetypeTableRecord
  2
BYLAYER
 70
     0
  3

 72
    65
 73
     0
 40
0.0
  0
LTYPE
  5
16
330
5
100
AcDbSymbolTableRecord
100
AcDbLinetypeTableRecord
  2
CONTINUOUS
 70
     0
  3
Solid line
 72
    65
 73
     0
 40
0.0
  0
ENDTAB
  0
TABLE
  2
LAYER
  5
2
330
0
100
AcDbSymbolTable
 70
     5
  0
LAYER
  5
10
330
2
100
AcDbSymbolTableRecord
100
AcDbLayerTableRecord
  2
0
 70
     0
 62
     7
  6
CONTINUOUS
  0
LAYER
  5
40
330
2
100
AcDbSymbolTableRecord
100
AcDbLayerTableRecord
  2
LAYER_1
 70
     0
 62
     7
  6
CONTINUOUS
  0
LAYER
  5
41
330
2
100
AcDbSymbolTableRecord
100
AcDbLayerTableRecord
  2
LAYER_2
 70
     0
 62
     7
  6
CONTINUOUS
  0
LAYER
  5
45
330
2
100
AcDbSymbolTableRecord
100
AcDbLayerTableRecord
  2
LAYER_3
 70
     0
 62
     7
  6
CONTINUOUS
  0
LAYER
  5
46
330
2
100
AcDbSymbolTableRecord
100
AcDbLayerTableRecord
  2
LAYER_4
 70
     1
 62
     7
  6
CONTINUOUS
  0
ENDTAB
  0
TABLE
  2
STYLE
  5
3
330
0
100
AcDbSymbolTable
 70
     1
  0
STYLE
  5
11
330
3
100
AcDbSymbolTableRecord
100
AcDbTextStyleTableRecord
  2
STANDARD
 70
     0
 40
0.0
 41
1.0
 50
0.0
 71
     0
 42
0.2
  3
txt
  4

  0
ENDTAB
  0
TABLE
  2
VIEW
  5
6
330
0
100
AcDbSymbolTable
 70
     0
  0
ENDTAB
  0
TABLE
  2
UCS
  5
7
330
0
100
AcDbSymbolTable
 70
     0
  0
ENDTAB
  0
TABLE
  2
APPID
  5
9
330
0
100
AcDbSymbolTable
 70
     1
  0
APPID
  5
12
330
9
100
AcDbSymbolTableRecord
100
AcDbRegAppTableRecord
  2
ACAD
 70
     0
  0
ENDTAB
  0
TABLE
  2
DIMSTYLE
  5
A
330
0
100
AcDbSymbolTable
 70
     1
  0
DIMSTYLE
105
27
330
A
100
AcDbSymbolTableRecord
100
AcDbDimStyleTableRecord
  2
STANDARD
 70
     0
  3

  4

  5

  6

  7

 40
1.0
 41
0.18
 42
0.0625
 43
0.38
 44
0.18
 45
0.0
 46
0.0
 47
0.0
 48
0.0
140
0.18
141
0.09
142
0.0
143
25.4
144
1.0
145
0.0
146
1.0
147
0.09
 71
     0
 72
     0
 73
     1
 74
     1
 75
     0
 76
     0
 77
     0
 78
     0
170
     0
171
     2
172
     0
173
     0
174
     0
175
     0
176
     0
177
     0
178
     0
270
     2
271
     4
272
     4
273
     2
274
     2
340
11
275
     0
280
     0
281
     0
282
     0
283
     1
284
     0
285
     0
286
     0
287
     3
288
     0
  0
ENDTAB
  0
TABLE
  2
BLOCK_RECORD
  5
1
330
0
100
AcDbSymbolTable
 70
     1
  0
BLOCK_RECORD
  5
1F
330
1
100
AcDbSymbolTableRecord
100
AcDbBlockTableRecord
  2
*MODEL_SPACE
  0
BLOCK_RECORD
  5
1B
330
1
100
AcDbSymbolTableRecord
100
AcDbBlockTableRecord
  2
*PAPER_SPACE
  0
ENDTAB
  0
ENDSEC
  0
SECTION
  2
BLOCKS
  0
BLOCK
  5
20
330
1F
100
AcDbEntity
  8
0
100
AcDbBlockBegin
  2
*MODEL_SPACE
 70
     0
 10
0.0
 20
0.0
 30
0.0
  3
*MODEL_SPACE
  1

  0
ENDBLK
  5
21
330
1F
100
AcDbEntity
  8
0
100
AcDbBlockEnd
  0
BLOCK
  5
1C
330
1B
100
AcDbEntity
 67
     1
  8
0
100
AcDbBlockBegin
  2
*PAPER_SPACE
 70
     0
 10
0.0
 20
0.0
 30
0.0
  3
*PAPER_SPACE
  1

  0
ENDBLK
  5
1D
330
1B
100
AcDbEntity
 67
     1
  8
0
100
AcDbBlockEnd
  0
ENDSEC
  0
SECTION
  2
ENTITIES
  0
SPLINE
  5
42
330
1F
100
AcDbEntity
  8
LAYER_2
 62
   250
100
AcDbSpline
210
0.0
220
0.0
230
1.0
 70
    11
 71
     3
 72
   677
 73
   673
 74
     0
 42
0.0000000001
 43
0.0000000001
 12
1.0
 22
0.0
 32
0.0
 13
1.0
 23
0.0
 33
0.0
 40
0.0
 40
0.0
 40
0.0
 40
0.0
 40
1.0
 40
1.0
 40
1.0
 40
2.0
 40
2.0
 40
2.0
 40
3.0
 40
3.0
 40
3.0
 40
4.0
 40
4.0
 40
4.0
 40
5.0
 40
5.0
 40
5.0
 40
6.0
 40
6.0
 40
6.0
 40
7.0
 40
7.0
 40
7.0
 40
8.0
 40
8.0
 40
8.0
 40
9.0
 40
9.0
 40
9.0
 40
10.0
 40
10.0
 40
10.0
 40
11.0
 40
11.0
 40
11.0
 40
12.0
 40
12.0
 40
12.0
 40
13.0
 40
13.0
 40
13.0
 40
14.0
 40
14.0
 40
14.0
 40
15.0
 40
15.0
 40
15.0
 40
16.0
 40
16.0
 40
16.0
 40
17.0
 40
17.0
 40
17.0
 40
18.0
 40
18.0
 40
18.0
 40
19.0
 40
19.0
 40
19.0
 40
20.0
 40
20.0
 40
20.0
 40
21.0
 40
21.0
 40
21.0
 40
22.0
 40
22.0
 40
22.0
 40
23.0
 40
23.0
 40
23.0
 40
24.0
 40
24.0
 40
24.0
 40
25.0
 40
25.0
 40
25.0
 40
26.0
 40
26.0
 40
26.0
 40
27.0
 40
27.0
 40
27.0
 40
28.0
 40
28.0
 40
28.0
 40
29.0
 40
29.0
 40
29.0
 40
30.0
 40
30.0
 40
30.0
 40
31.0
 40
31.0
 40
31.0
 40
32.0
 40
32.0
 40
32.0
 40
33.0
 40
33.0
 40
33.0
 40
34.0
 40
34.0
 40
34.0
 40
35.0
 40
35.0
 40
35.0
 40
36.0
 40
36.0
 40
36.0
 40
37.0
 40
37.0
 40
37.0
 40
38.0
 40
38.0
 40
38.0
 40
39.0
 40
39.0
 40
39.0
 40
40.0
 40
40.0
 40
40.0
 40
41.0
 40
41.0
 40
41.0
 40
42.0
 40
42.0
 40
42.0
 40
43.0
 40
43.0
 40
43.0
 40
44.0
 40
44.0
 40
44.0
 40
45.0
 40
45.0
 40
45.0
 40
46.0
 40
46.0
 40
46.0
 40
47.0
 40
47.0
 40
47.0
 40
48.0
 40
48.0
 40
48.0
 40
49.0
 40
49.0
 40
49.0
 40
50.0
 40
50.0
 40
50.0
 40
51.0
 40
51.0
 40
51.0
 40
52.0
 40
52.0
 40
52.0
 40
53.0
 40
53.0
 40
53.0
 40
54.0
 40
54.0
 40
54.0
 40
55.0
 40
55.0
 40
55.0
 40
56.0
 40
56.0
 40
56.0
 40
57.0
 40
57.0
 40
57.0
 40
58.0
 40
58.0
 40
58.0
 40
59.0
 40
59.0
 40
59.0
 40
60.0
 40
60.0
 40
60.0
 40
61.0
 40
61.0
 40
61.0
 40
62.0
 40
62.0
 40
62.0
 40
63.0
 40
63.0
 40
63.0
 40
64.0
 40
64.0
 40
64.0
 40
65.0
 40
65.0
 40
65.0
 40
66.0
 40
66.0
 40
66.0
 40
67.0
 40
67.0
 40
67.0
 40
68.0
 40
68.0
 40
68.0
 40
69.0
 40
69.0
 40
69.0
 40
70.0
 40
70.0
 40
70.0
 40
71.0
 40
71.0
 40
71.0
 40
72.0
 40
72.0
 40
72.0
 40
73.0
 40
73.0
 40
73.0
 40
74.0
 40
74.0
 40
74.0
 40
75.0
 40
75.0
 40
75.0
 40
76.0
 40
76.0
 40
76.0
 40
77.0
 40
77.0
 40
77.0
 40
78.0
 40
78.0
 40
78.0
 40
79.0
 40
79.0
 40
79.0
 40
80.0
 40
80.0
 40
80.0
 40
81.0
 40
81.0
 40
81.0
 40
82.0
 40
82.0
 40
82.0
 40
83.0
 40
83.0
 40
83.0
 40
84.0
 40
84.0
 40
84.0
 40
85.0
 40
85.0
 40
85.0
 40
86.0
 40
86.0
 40
86.0
 40
87.0
 40
87.0
 40
87.0
 40
88.0
 40
88.0
 40
88.0
 40
89.0
 40
89.0
 40
89.0
 40
90.0
 40
90.0
 40
90.0
 40
91.0
 40
91.0
 40
91.0
 40
92.0
 40
92.0
 40
92.0
 40
93.0
 40
93.0
 40
93.0
 40
94.0
 40
94.0
 40
94.0
 40
95.0
 40
95.0
 40
95.0
 40
96.0
 40
96.0
 40
96.0
 40
97.0
 40
97.0
 40
97.0
 40
98.0
 40
98.0
 40
98.0
 40
99.0
 40
99.0
 40
99.0
 40
100.0
 40
100.0
 40
100.0
 40
101.0
 40
101.0
 40
101.0
 40
102.0
 40
102.0
 40
102.0
 40
103.0
 40
103.0
 40
103.0
 40
104.0
 40
104.0
 40
104.0
 40
105.0
 40
105.0
 40
105.0
 40
106.0
 40
106.0
 40
106.0
 40
107.0
 40
107.0
 40
107.0
 40
108.0
 40
108.0
 40
108.0
 40
109.0
 40
109.0
 40
109.0
 40
110.0
 40
110.0
 40
110.0
 40
111.0
 40
111.0
 40
111.0
 40
112.0
 40
112.0
 40
112.0
 40
113.0
 40
113.0
 40
113.0
 40
114.0
 40
114.0
 40
114.0
 40
115.0
 40
115.0
 40
115.0
 40
116.0
 40
116.0
 40
116.0
 40
117.0
 40
117.0
 40
117.0
 40
118.0
 40
118.0
 40
118.0
 40
119.0
 40
119.0
 40
119.0
 40
120.0
 40
120.0
 40
120.0
 40
121.0
 40
121.0
 40
121.0
 40
122.0
 40
122.0
 40
122.0
 40
123.0
 40
123.0
 40
123.0
 40
124.0
 40
124.0
 40
124.0
 40
125.0
 40
125.0
 40
125.0
 40
126.0
 40
126.0
 40
126.0
 40
127.0
 40
127.0
 40
127.0
 40
128.0
 40
128.0
 40
128.0
 40
129.0
 40
129.0
 40
129.0
 40
130.0
 40
130.0
 40
130.0
 40
131.0
 40
131.0
 40
131.0
 40
132.0
 40
132.0
 40
132.0
 40
133.0
 40
133.0
 40
133.0
 40
134.0
 40
134.0
 40
134.0
 40
135.0
 40
135.0
 40
135.0
 40
136.0
 40
136.0
 40
136.0
 40
137.0
 40
137.0
 40
137.0
 40
138.0
 40
138.0
 40
138.0
 40
139.0
 40
139.0
 40
139.0
 40
140.0
 40
140.0
 40
140.0
 40
141.0
 40
141.0
 40
141.0
 40
142.0
 40
142.0
 40
142.0
 40
143.0
 40
143.0
 40
143.0
 40
144.0
 40
144.0
 40
144.0
 40
145.0
 40
145.0
 40
145.0
 40
146.0
 40
146.0
 40
146.0
 40
147.0
 40
147.0
 40
147.0
 40
148.0
 40
148.0
 40
148.0
 40
149.0
 40
149.0
 40
149.0
 40
150.0
 40
150.0
 40
150.0
 40
151.0
 40
151.0
 40
151.0
 40
152.0
 40
152.0
 40
152.0
 40
153.0
 40
153.0
 40
153.0
 40
154.0
 40
154.0
 40
154.0
 40
155.0
 40
155.0
 40
155.0
 40
156.0
 40
156.0
 40
156.0
 40
157.0
 40
157.0
 40
157.0
 40
158.0
 40
158.0
 40
158.0
 40
159.0
 40
159.0
 40
159.0
 40
160.0
 40
160.0
 40
160.0
 40
161.0
 40
161.0
 40
161.0
 40
162.0
 40
162.0
 40
162.0
 40
163.0
 40
163.0
 40
163.0
 40
164.0
 40
164.0
 40
164.0
 40
165.0
 40
165.0
 40
165.0
 40
166.0
 40
166.0
 40
166.0
 40
167.0
 40
167.0
 40
167.0
 40
168.0
 40
168.0
 40
168.0
 40
169.0
 40
169.0
 40
169.0
 40
170.0
 40
170.0
 40
170.0
 40
171.0
 40
171.0
 40
171.0
 40
172.0
 40
172.0
 40
172.0
 40
173.0
 40
173.0
 40
173.0
 40
174.0
 40
174.0
 40
174.0
 40
175.0
 40
175.0
 40
175.0
 40
176.0
 40
176.0
 40
176.0
 40
177.0
 40
177.0
 40
177.0
 40
178.0
 40
178.0
 40
178.0
 40
179.0
 40
179.0
 40
179.0
 40
180.0
 40
180.0
 40
180.0
 40
181.0
 40
181.0
 40
181.0
 40
182.0
 40
182.0
 40
182.0
 40
183.0
 40
183.0
 40
183.0
 40
184.0
 40
184.0
 40
184.0
 40
185.0
 40
185.0
 40
185.0
 40
186.0
 40
186.0
 40
186.0
 40
187.0
 40
187.0
 40
187.0
 40
188.0
 40
188.0
 40
188.0
 40
189.0
 40
189.0
 40
189.0
 40
190.0
 40
190.0
 40
190.0
 40
191.0
 40
191.0
 40
191.0
 40
192.0
 40
192.0
 40
192.0
 40
193.0
 40
193.0
 40
193.0
 40
194.0
 40
194.0
 40
194.0
 40
195.0
 40
195.0
 40
195.0
 40
196.0
 40
196.0
 40
196.0
 40
197.0
 40
197.0
 40
197.0
 40
198.0
 40
198.0
 40
198.0
 40
199.0
 40
199.0
 40
199.0
 40
200.0
 40
200.0
 40
200.0
 40
201.0
 40
201.0
 40
201.0
 40
202.0
 40
202.0
 40
202.0
 40
203.0
 40
203.0
 40
203.0
 40
204.0
 40
204.0
 40
204.0
 40
205.0
 40
205.0
 40
205.0
 40
206.0
 40
206.0
 40
206.0
 40
207.0
 40
207.0
 40
207.0
 40
208.0
 40
208.0
 40
208.0
 40
209.0
 40
209.0
 40
209.0
 40
210.0
 40
210.0
 40
210.0
 40
211.0
 40
211.0
 40
211.0
 40
212.0
 40
212.0
 40
212.0
 40
213.0
 40
213.0
 40
213.0
 40
214.0
 40
214.0
 40
214.0
 40
215.0
 40
215.0
 40
215.0
 40
216.0
 40
216.0
 40
216.0
 40
217.0
 40
217.0
 40
217.0
 40
218.0
 40
218.0
 40
218.0
 40
219.0
 40
219.0
 40
219.0
 40
220.0
 40
220.0
 40
220.0
 40
221.0
 40
221.0
 40
221.0
 40
222.0
 40
222.0
 40
222.0
 40
223.0
 40
223.0
 40
223.0
 40
224.0
 40
224.0
 40
224.0
 40
224.0
 10
-11.58287036747455
 20
-54.56377908051166
 30
0.0
 10
-11.58287036747455
 20
-54.56377908051166
 30
0.0
 10
-11.58287036747455
 20
-55.56170180047101
 30
0.0
 10
-11.58287036747455
 20
-55.56170180047101
 30
0.0
 10
-11.58287036747455
 20
-55.56170180047101
 30
0.0
 10
-11.58287036747455
 20
-56.55962452043035
 30
0.0
 10
-11.58287036747455
 20
-56.55962452043035
 30
0.0
 10
-11.58287036747455
 20
-56.55962452043035
 30
0.0
 10
-11.58287036747455
 20
-57.5575472403897
 30
0.0
 10
-11.58287036747455
 20
-57.5575472403897
 30
0.0
 10
-11.58287036747455
 20
-57.5575472403897
 30
0.0
 10
-11.58287036747455
 20
-58.55546996034936
 30
0.0
 10
-11.58287036747455
 20
-58.55546996034936
 30
0.0
 10
-11.58287036747455
 20
-58.55546996034936
 30
0.0
 10
-11.58287036747455
 20
-59.55339268030903
 30
0.0
 10
-11.58287036747455
 20
-59.55339268030903
 30
0.0
 10
-11.58287036747455
 20
-59.55339268030903
 30
0.0
 10
-11.58287036747455
 20
-60.55131540026838
 30
0.0
 10
-11.58287036747455
 20
-60.55131540026838
 30
0.0
 10
-11.58287036747455
 20
-60.55131540026838
 30
0.0
 10
-11.58287036747455
 20
-61.54923812022773
 30
0.0
 10
-11.58287036747455
 20
-61.54923812022773
 30
0.0
 10
-11.58287036747455
 20
-61.54923812022773
 30
0.0
 10
-11.58287036747455
 20
-62.54716084018707
 30
0.0
 10
-11.58287036747455
 20
-62.54716084018707
 30
0.0
 10
-11.58287036747455
 20
-62.54716084018707
 30
0.0
 10
-11.58287036747455
 20
-63.54508356014642
 30
0.0
 10
-11.58287036747455
 20
-63.54508356014642
 30
0.0
 10
-11.58287036747455
 20
-63.54508356014642
 30
0.0
 10
-11.58287036747455
 20
-64.54300628010576
 30
0.0
 10
-11.58287036747455
 20
-64.54300628010576
 30
0.0
 10
-11.58287036747455
 20
-64.54300628010576
 30
0.0
 10
-11.58287036747455
 20
-65.5409290000651
 30
0.0
 10
-11.58287036747455
 20
-65.5409290000651
 30
0.0
 10
-11.58287036747455
 20
-65.5409290000651
 30
0.0
 10
-11.58287036747455
 20
-66.53885172002445
 30
0.0
 10
-11.58287036747455
 20
-66.53885172002445
 30
0.0
 10
-11.58287036747455
 20
-66.53885172002445
 30
0.0
 10
-11.58287036747455
 20
-67.5367744399838
 30
0.0
 10
-11.58287036747455
 20
-67.5367744399838
 30
0.0
 10
-11.58287036747455
 20
-67.5367744399838
 30
0.0
 10
-11.58287036747455
 20
-68.53469715994315
 30
0.0
 10
-11.58287036747455
 20
-68.53469715994315
 30
0.0
 10
-11.58287036747455
 20
-68.53469715994315
 30
0.0
 10
-11.58287036747455
 20
-69.53261987990314
 30
0.0
 10
-11.58287036747455
 20
-69.53261987990314
 30
0.0
 10
-11.58287036747455
 20
-69.53261987990314
 30
0.0
 10
-11.58287036747455
 20
-70.53054259986249
 30
0.0
 10
-11.58287036747455
 20
-70.53054259986249
 30
0.0
 10
-11.58287036747455
 20
-70.61821780387587
 30
0.0
 10
-11.57866170421638
 20
-70.70485548238592
 30
0.0
 10
-11.57044598253065
 20
-70.79024284481346
 30
0.0
 10
-11.56223026084491
 20
-70.87563020724102
 30
0.0
 10
-11.55000748073161
 20
-70.95976725358734
 30
0.0
 10
-11.53397924702069
 20
-71.04244119327329
 30
0.0
 10
-11.51795101330977
 20
-71.12511513295924
 30
0.0
 10
-11.49811732600124
 20
-71.20632596598607
 30
0.0
 10
-11.47467978992568
 20
-71.28586090177593
 30
0.0
 10
-11.45124225385013
 20
-71.36539583756579
 30
0.0
 10
-11.42420086900724
 20
-71.44325487611866
 30
0.0
 10
-11.3937572402276
 20
-71.51922522685602
 30
0.0
 10
-11.36331361144796
 20
-71.59519557759339
 30
0.0
 10
-11.32946773873157
 20
-71.66927724051652
 30
0.0
 10
-11.29242122690808
 20
-71.7412574250469
 30
0.0
 10
-11.2553747150849
 20
-71.81323760957729
 30
0.0
 10
-11.21512756415494
 20
-71.88311631571491
 30
0.0
 10
-11.17188137894845
 20
-71.9506807528832
 30
0.0
 10
-11.12863519374229
 20
-72.01824519005149
 30
0.0
 10
-11.08238997425929
 20
-72.08349535824914
 30
0.0
 10
-11.03334732533069
 20
-72.1462184668989
 30
0.0
 10
-10.98430467640178
 20
-72.20894157554868
 30
0.0
 10
-10.93246459802661
 20
-72.26913762465057
 30
0.0
 10
-10.87802869503581
 20
-72.32659382362735
 30
0.0
 10
-10.823592792045
 20
-72.38405002260413
 30
0.0
 10
-10.76656106443823
 20
-72.43876637145578
 30
0.0
 10
-10.70713511704576
 20
-72.4905300796038
 30
0.0
 10
-10.64770916965362
 20
-72.54229378775182
 30
0.0
 10
-10.58588900247578
 20
-72.59110485519749
 30
0.0
 10
-10.52187622034253
 20
-72.63675049136161
 30
0.0
 10
-10.45786343820927
 20
-72.68239612752575
 30
0.0
 10
-10.39165804112092
 20
-72.72487633240964
 30
0.0
 10
-10.32346163390743
 20
-72.76397831543477
 30
0.0
 10
-10.25526522669394
 20
-72.80308029845989
 30
0.0
 10
-10.1850778093553
 20
-72.83880405962688
 30
0.0
 10
-10.1131009867218
 20
-72.87093680835788
 30
0.0
 10
-10.0411241640883
 20
-72.90306955708887
 30
0.0
 10
-9.967357936160248
 20
-72.93161129338385
 30
0.0
 10
-9.892003907767606
 20
-72.95634922666494
 30
0.0
 10
-9.816649879374964
 20
-72.98108715994603
 30
0.0
 10
-9.739708050517729
 20
-73.00202129021324
 30
0.0
 10
-9.661380026026174
 20
-73.0189388268893
 30
0.0
 10
-9.583052001534622
 20
-73.03585636356472
 30
0.0
 10
-9.503337781409071
 20
-73.04875730664965
 30
0.0
 10
-9.422438970479478
 20
-73.05742886556557
 30
0.0
 10
-9.341540159549885
 20
-73.06610042448084
 30
0.0
 10
-9.259456757816247
 20
-73.07054259922774
 30
0.0
 10
-9.176390370108841
 20
-73.07054259922774
 30
0.0
 10
-9.176390370108841
 20
-73.07054259922774
 30
0.0
 10
-5.627302561402309
 20
-73.07054259922774
 30
0.0
 10
-5.627302561402309
 20
-73.07054259922774
 30
0.0
 10
-5.627302561402309
 20
-73.07054259922774
 30
0.0
 10
-2.078214752696098
 20
-73.07054259922774
 30
0.0
 10
-2.078214752696098
 20
-73.07054259922774
 30
0.0
 10
-2.078214752696098
 20
-73.07054259922774
 30
0.0
 10
1.470873056010114
 20
-73.07054259922774
 30
0.0
 10
1.470873056010114
 20
-73.07054259922774
 30
0.0
 10
1.470873056010114
 20
-73.07054259922774
 30
0.0
 10
5.019960864716325
 20
-73.07054259922774
 30
0.0
 10
5.019960864716325
 20
-73.07054259922774
 30
0.0
 10
5.019960864716325
 20
-73.07054259922774
 30
0.0
 10
8.569048673422536
 20
-73.07054259922774
 30
0.0
 10
8.569048673422536
 20
-73.07054259922774
 30
0.0
 10
8.569048673422536
 20
-73.07054259922774
 30
0.0
 10
12.11813648212907
 20
-73.07054259922774
 30
0.0
 10
12.11813648212907
 20
-73.07054259922774
 30
0.0
 10
12.11813648212907
 20
-73.07054259922774
 30
0.0
 10
15.6672242908356
 20
-73.07054259922774
 30
0.0
 10
15.6672242908356
 20
-73.07054259922774
 30
0.0
 10
15.6672242908356
 20
-73.07054259922774
 30
0.0
 10
19.21631209954181
 20
-73.07054259922774
 30
0.0
 10
19.21631209954181
 20
-73.07054259922774
 30
0.0
 10
19.21631209954181
 20
-73.07054259922774
 30
0.0
 10
22.76539990824802
 20
-73.07054259922774
 30
0.0
 10
22.76539990824802
 20
-73.07054259922774
 30
0.0
 10
22.76539990824802
 20
-73.07054259922774
 30
0.0
 10
26.31448771695423
 20
-73.07054259922774
 30
0.0
 10
26.31448771695423
 20
-73.07054259922774
 30
0.0
 10
26.31448771695423
 20
-73.07054259922774
 30
0.0
 10
29.86357552566044
 20
-73.07054259922774
 30
0.0
 10
29.86357552566044
 20
-73.07054259922774
 30
0.0
 10
29.86357552566044
 20
-73.07054259922774
 30
0.0
 10
33.41266333436698
 20
-73.07054259922774
 30
0.0
 10
33.41266333436698
 20
-73.07054259922774
 30
0.0
 10
33.41266333436698
 20
-73.07054259922774
 30
0.0
 10
36.96175114307351
 20
-73.07054259922774
 30
0.0
 10
36.96175114307351
 20
-73.07054259922774
 30
0.0
 10
36.96175114307351
 20
-73.07054259922774
 30
0.0
 10
40.51083895177972
 20
-73.07054259922774
 30
0.0
 10
40.51083895177972
 20
-73.07054259922774
 30
0.0
 10
40.51083895177972
 20
-73.07054259922774
 30
0.0
 10
44.05992676048593
 20
-73.07054259922774
 30
0.0
 10
44.05992676048593
 20
-73.07054259922774
 30
0.0
 10
44.05992676048593
 20
-73.07054259922774
 30
0.0
 10
47.60901456919214
 20
-73.07054259922774
 30
0.0
 10
47.60901456919214
 20
-73.07054259922774
 30
0.0
 10
47.64540592849597
 20
-73.07054259922774
 30
0.0
 10
47.681714385807
 20
-73.07141430229794
 30
0.0
 10
47.71791539166178
 20
-73.07314723376864
 30
0.0
 10
47.75411639751655
 20
-73.07488016523935
 30
0.0
 10
47.79020995191539
 20
-73.07747432511059
 30
0.0
 10
47.82617150539451
 20
-73.08091923871265
 30
0.0
 10
47.86213305887362
 20
-73.08436415231473
 30
0.0
 10
47.89796261143366
 20
-73.08865981964765
 30
0.0
 10
47.9336356136105
 20
-73.09379576604238
 30
0.0
 10
47.96930861578766
 20
-73.09893171243647
 30
0.0
 10
48.00482506758227
 20
-73.10490793789174
 30
0.0
 10
48.04016041953055
 20
-73.11171396773915
 30
0.0
 10
48.07549577147883
 20
-73.11851999758655
 30
0.0
 10
48.11065002358109
 20
-73.12615583182546
 30
0.0
 10
48.14559862637418
 20
-73.13461099578619
 30
0.0
 10
48.18054722916728
 20
-73.14306615974691
 30
0.0
 10
48.21529018265122
 20
-73.15234065343076
 30
0.0
 10
48.24980293736252
 20
-73.1624240021661
 30
0.0
 10
48.28431569207383
 20
-73.17250735090145
 30
0.0
 10
48.3185982480125
 20
-73.1833995546896
 30
0.0
 10
48.3526260557154
 20
-73.19509013886022
 30
0.0
 10
48.38665386341862
 20
-73.20678072303086
 30
0.0
 10
48.42042692288574
 20
-73.21926968758396
 30
0.0
 10
48.45392068465394
 20
-73.23254655785051
 30
0.0
 10
48.48741444642214
 20
-73.24582342811708
 30
0.0
 10
48.5206289104911
 20
-73.25988820409708
 30
0.0
 10
48.55353952739799
 20
-73.27473041112022
 30
0.0
 10
48.58645014430456
 20
-73.28957261814335
 30
0.0
 10
48.61905691404873
 20
-73.30519225620962
 30
0.0
 10
48.6513352871677
 20
-73.32157885065064
 30
0.0
 10
48.68361366028635
 20
-73.33796544509165
 30
0.0
 10
48.71556363677946
 20
-73.35511899590612
 30
0.0
 10
48.74716066718388
 20
-73.37302902842504
 30
0.0
 10
48.77875769758798
 20
-73.39093906094394
 30
0.0
 10
48.81000178190341
 20
-73.40960557516728
 30
0.0
 10
48.84086837066669
 20
-73.42901809642537
 30
0.0
 10
48.87173495942996
 20
-73.44843061768346
 30
0.0
 10
48.90222405264109
 20
-73.4685891459763
 30
0.0
 10
48.9323111008366
 20
-73.4894832066336
 30
0.0
 10
48.96239814903243
 20
-73.51037726729088
 30
0.0
 10
48.99208315221233
 20
-73.53200686031388
 30
0.0
 10
49.0213415609141
 20
-73.55436151103231
 30
0.0
 10
49.05059996961555
 20
-73.57671616175074
 30
0.0
 10
49.07943178383825
 20
-73.59979587016393
 30
0.0
 10
49.10781245411935
 20
-73.6235901616035
 30
0.0
 10
49.13619312440014
 20
-73.64738445304242
 30
0.0
 10
49.16412265073902
 20
-73.67189332750773
 30
0.0
 10
49.19157648367283
 20
-73.6971063103291
 30
0.0
 10
49.40952740027078
 20
-73.8972675311455
 30
0.0
 10
49.68008417522515
 20
-74.14113262626275
 30
0.0
 10
50.00145648121454
 20
-74.42245673162479
 30
0.0
 10
50.32282878720392
 20
-74.70378083698684
 30
0.0
 10
50.69501662422896
 20
-75.02256395259369
 30
0.0
 10
51.11622966496886
 20
-75.37256121438865
 30
0.0
 10
51.53744270570877
 20
-75.72255847618362
 30
0.0
 10
52.00768095016355
 20
-76.10376988416736
 30
0.0
 10
52.52515407101276
 20
-76.50995057428254
 30
0.0
 10
53.04262719186165
 20
-76.91613126439772
 30
0.0
 10
53.60733518910496
 20
-77.34728123664435
 30
0.0
 10
54.21748773542224
 20
-77.79715562696703
 30
0.0
 10
54.82764028173951
 20
-78.24703001728905
 30
0.0
 10
55.48323737713012
 20
-78.7156288256865
 30
0.0
 10
56.18248869427392
 20
-79.19670718810265
 30
0.0
 10
56.88174001141805
 20
-79.67778555051946
 30
0.0
 10
57.62464555031472
 20
-80.17134346695434
 30
0.0
 10
58.40941498364447
 20
-80.67113607335256
 30
0.0
 10
59.1941844169742
 20
-81.17092867975013
 30
0.0
 10
60.02081774473604
 20
-81.67695597611039
 30
0.0
 10
60.88752463961018
 20
-82.18297309837602
 30
0.0
 10
61.75423153448398
 20
-82.6889902206423
 30
0.0
 10
62.66101199647008
 20
-83.19499716881457
 30
0.0
 10
63.60607569824737
 20
-83.69474907883553
 30
0.0
 10
64.55113940002467
 20
-84.19450098885649
 30
0.0
 10
65.53448634159315
 20
-84.68799786072742
 30
0.0
 10
66.55432619563301
 20
-85.16899483039164
 30
0.0
 10
67.57416604967224
 20
-85.64999180005586
 30
0.0
 10
68.63049881618221
 20
-86.11848886751336
 30
0.0
 10
69.72153416784246
 20
-86.56824116870685
 30
0.0
 10
70.81256951950272
 20
-87.01799346990032
 30
0.0
 10
71.93830745631325
 20
-87.44900100483041
 30
0.0
 10
73.09695765095299
 20
-87.85501890944106
 30
0.0
 10
74.25560784559336
 20
-88.26103681405107
 30
0.0
 10
75.44717029806293
 20
-88.64206508834165
 30
0.0
 10
76.66985468104124
 20
-88.99185886825613
 30
0.0
 10
77.89253906401954
 20
-89.34165264816995
 30
0.0
 10
79.14634537750723
 20
-89.66021193370769
 30
0.0
 10
80.42948329418321
 20
-89.94129186081261
 30
0.0
 10
81.71262121085918
 20
-90.22237178791754
 30
0.0
 10
83.02509073072343
 20
-90.46597235658969
 30
0.0
 10
84.36510152645553
 20
-90.66584870277237
 30
0.0
 10
85.70511232218762
 20
-90.86572504895568
 30
0.0
 10
87.07266439378755
 20
-91.02187717264889
 30
0.0
 10
88.46596741393485
 20
-91.12806020979721
 30
0.0
 10
89.85927043408215
 20
-91.23424324694491
 30
0.0
 10
91.27832440277683
 20
-91.2904571975471
 30
0.0
 10
92.72133899269781
 20
-91.2904571975471
 30
0.0
 10
94.17741931668328
 20
-91.2904571975471
 30
0.0
 10
95.59198220245945
 20
-91.2199149225237
 30
0.0
 10
96.96510745470015
 20
-91.08673794081754
 30
0.0
 10
98.33823270694086
 20
-90.95356095911073
 30
0.0
 10
99.66992032564482
 20
-90.75774927072055
 30
0.0
 10
100.9602501154866
 20
-90.50721044398763
 30
0.0
 10
102.2505799053283
 20
-90.25667161725471
 30
0.0
 10
103.4995518663066
 20
-89.95140565217777
 30
0.0
 10
104.7072458030939
 20
-89.59932011709812
 30
0.0
 10
105.9149397398819
 20
-89.24723458201846
 30
0.0
 10
107.081355652479
 20
-88.84832947693545
 30
0.0
 10
108.2065733455591
 20
-88.4105123701891
 30
0.0
 10
109.3317910386391
 20
-87.97269526344274
 30
0.0
 10
110.4158105122002
 20
-87.49596615503306
 30
0.0
 10
111.4587115709169
 20
-86.98823261330068
 30
0.0
 10
112.5016126296336
 20
-86.48049907156766
 30
0.0
 10
113.5033952735058
 20
-85.94176109651133
 30
0.0
 10
114.4641393072049
 20
-85.37992625647233
 30
0.0
 10
115.424883340904
 20
-84.81809141643332
 30
0.0
 10
116.3445887644306
 20
-84.233159711411
 30
0.0
 10
117.223335382458
 20
-83.6330387097454
 30
0.0
 10
118.1020820004847
 20
-83.03291770807981
 30
0.0
 10
118.9398698130122
 20
-82.41760740977092
 30
0.0
 10
119.736778624713
 20
-81.79501538315876
 30
0.0
 10
120.5336874364132
 20
-81.1724233565466
 30
0.0
 10
121.2897172472867
 20
-80.5425496016318
 30
0.0
 10
122.0049478620055
 20
-79.91330168675375
 30
0.0
 10
122.7201784767243
 20
-79.28405377187507
 30
0.0
 10
123.3946098952891
 20
-78.6554316970344
 30
0.0
 10
124.0283219223723
 20
-78.03534303056986
 30
0.0
 10
124.6620339494556
 20
-77.41525436410532
 30
0.0
 10
125.2550265850568
 20
-76.80369910601753
 30
0.0
 10
125.8073796338491
 20
-76.20858482464718
 30
0.0
 10
126.359732682642
 20
-75.61347054327616
 30
0.0
 10
126.8714461446254
 20
-75.03479723862259
 30
0.0
 10
127.3425998244725
 20
-74.48047247902515
 30
0.0
 10
127.8137535043203
 20
-73.92614771942772
 30
0.0
 10
128.2443474020311
 20
-73.39617150488773
 30
0.0
 10
128.6344613222789
 20
-72.89845140374518
 30
0.0
 10
129.0245752425261
 20
-72.400731302602
 30
0.0
 10
129.3742091853101
 20
-71.93526731485628
 30
0.0
 10
129.6834429553031
 20
-71.50996700884673
 30
0.0
 10
129.9926767252961
 20
-71.08466670283718
 30
0.0
 10
130.2615103224981
 20
-70.69953007856512
 30
0.0
 10
130.4900235515827
 20
-70.36246470436988
 30
0.0
 10
130.7185367806661
 20
-70.02539933017403
 30
0.0
 10
130.9067296416323
 20
-69.73640520605628
 30
0.0
 10
131.0546819391525
 20
-69.50338990035476
 30
0.0
 10
131.0713292647007
 20
-69.47717143861612
 30
0.0
 10
131.0874912949586
 20
-69.45067182211278
 30
0.0
 10
131.1031636632215
 20
-69.42390532278898
 30
0.0
 10
131.1188360314843
 20
-69.3971388234652
 30
0.0
 10
131.1340187377533
 20
-69.37010544132161
 30
0.0
 10
131.1487074153237
 20
-69.34281944830121
 30
0.0
 10
131.163396092894
 20
-69.31553345528081
 30
0.0
 10
131.1775907417657
 20
-69.28799485138362
 30
0.0
 10
131.1912869952346
 20
-69.26021790855452
 30
0.0
 10
131.2049832487034
 20
-69.23244096572543
 30
0.0
 10
131.21818110677
 20
-69.2044256839638
 30
0.0
 10
131.2308762027289
 20
-69.17618633521326
 30
0.0
 10
131.2435712986878
 20
-69.14794698646273
 30
0.0
 10
131.2557636325402
 20
-69.11948357072458
 30
0.0
 10
131.267448837582
 20
-69.09081035994116
 30
0.0
 10
131.2791340426238
 20
-69.06213714915837
 30
0.0
 10
131.2903121188537
 20
-69.03325414333032
 30
0.0
 10
131.3009786995694
 20
-69.00417561440256
 30
0.0
 10
131.311645280285
 20
-68.97509708547479
 30
0.0
 10
131.3218003654852
 20
-68.94582303344602
 30
0.0
 10
131.3314395884662
 20
-68.91636773026053
 30
0.0
 10
131.3410788114473
 20
-68.88691242707569
 30
0.0
 10
131.3502021722093
 20
-68.8572758727341
 30
0.0
 10
131.3588053040474
 20
-68.82747233917944
 30
0.0
 10
131.3674084358855
 20
-68.79766880562478
 30
0.0
 10
131.3754913388009
 20
-68.7676982928583
 30
0.0
 10
131.3830496460883
 20
-68.73757507282365
 30
0.0
 10
131.3906079533762
 20
-68.70745185278834
 30
0.0
 10
131.397641665036
 20
-68.67717592548487
 30
0.0
 10
131.4041464143642
 20
-68.64676156285685
 30
0.0
 10
131.4106511636923
 20
-68.61634720022883
 30
0.0
 10
131.4166269506894
 20
-68.58579440227561
 30
0.0
 10
131.4220694086505
 20
-68.55511744094277
 30
0.0
 10
131.4275118666117
 20
-68.52444047960928
 30
0.0
 10
131.4324209955369
 20
-68.49363935489552
 30
0.0
 10
131.4367924287221
 20
-68.46272833874512
 30
0.0
 10
131.4411638619072
 20
-68.43181732259536
 30
0.0
 10
131.4449975993529
 20
-68.40079641500833
 30
0.0
 10
131.4482892743542
 20
-68.36967988792891
 30
0.0
 10
131.4515809493561
 20
-68.3385633608495
 30
0.0
 10
131.4543305619131
 20
-68.30735121427709
 30
0.0
 10
131.4565337453222
 20
-68.27605772015657
 30
0.0
 10
131.4587369287313
 20
-68.24476422603605
 30
0.0
 10
131.4603936829924
 20
-68.21338938436743
 30
0.0
 10
131.4614996414009
 20
-68.18194746709372
 30
0.0
 10
131.46260559981
 20
-68.15050554982
 30
0.0
 10
131.4631607623663
 20
-68.11899655694182
 30
0.0
 10
131.4631607623663
 20
-68.0874347604028
 30
0.0
 10
131.4631607623663
 20
-68.0874347604028
 30
0.0
 10
131.4631607623663
 20
-67.19792466962176
 30
0.0
 10
131.4631607623663
 20
-67.19792466962176
 30
0.0
 10
131.4631607623663
 20
-67.19792466962176
 30
0.0
 10
131.4631607623663
 20
-66.30841457884071
 30
0.0
 10
131.4631607623663
 20
-66.30841457884071
 30
0.0
 10
131.4631607623663
 20
-66.30841457884071
 30
0.0
 10
131.4631607623663
 20
-65.41890448805965
 30
0.0
 10
131.4631607623663
 20
-65.41890448805965
 30
0.0
 10
131.4631607623663
 20
-65.41890448805965
 30
0.0
 10
131.4631607623663
 20
-64.52939439727861
 30
0.0
 10
131.4631607623663
 20
-64.52939439727861
 30
0.0
 10
131.4631607623663
 20
-64.52939439727861
 30
0.0
 10
131.4631607623663
 20
-63.63988430649756
 30
0.0
 10
131.4631607623663
 20
-63.63988430649756
 30
0.0
 10
131.4631607623663
 20
-63.63988430649756
 30
0.0
 10
131.4631607623663
 20
-62.75037421571683
 30
0.0
 10
131.4631607623663
 20
-62.75037421571683
 30
0.0
 10
131.4631607623663
 20
-62.75037421571683
 30
0.0
 10
131.4631607623663
 20
-61.86086412493611
 30
0.0
 10
131.4631607623663
 20
-61.86086412493611
 30
0.0
 10
131.4631607623663
 20
-61.86086412493611
 30
0.0
 10
131.4631607623663
 20
-60.97135403415506
 30
0.0
 10
131.4631607623663
 20
-60.97135403415506
 30
0.0
 10
131.4631607623663
 20
-60.97135403415506
 30
0.0
 10
131.4631607623663
 20
-60.081843943374
 30
0.0
 10
131.4631607623663
 20
-60.081843943374
 30
0.0
 10
131.4631607623663
 20
-60.081843943374
 30
0.0
 10
131.4631607623663
 20
-59.19233385259296
 30
0.0
 10
131.4631607623663
 20
-59.19233385259296
 30
0.0
 10
131.4631607623663
 20
-59.19233385259296
 30
0.0
 10
131.4631607623663
 20
-58.30282376181191
 30
0.0
 10
131.4631607623663
 20
-58.30282376181191
 30
0.0
 10
131.4631607623663
 20
-58.30282376181191
 30
0.0
 10
131.4631607623663
 20
-57.41331367103118
 30
0.0
 10
131.4631607623663
 20
-57.41331367103118
 30
0.0
 10
131.4631607623663
 20
-57.41331367103118
 30
0.0
 10
131.4631607623663
 20
-56.52380358025045
 30
0.0
 10
131.4631607623663
 20
-56.52380358025045
 30
0.0
 10
131.4631607623663
 20
-56.52380358025045
 30
0.0
 10
131.4631607623663
 20
-55.6342934894694
 30
0.0
 10
131.4631607623663
 20
-55.6342934894694
 30
0.0
 10
131.4631607623663
 20
-55.6342934894694
 30
0.0
 10
131.4631607623663
 20
-54.74478339868836
 30
0.0
 10
131.4631607623663
 20
-54.74478339868836
 30
0.0
 10
131.4631607623663
 20
-54.74478339868836
 30
0.0
 10
131.4631607623663
 20
-53.8552733079073
 30
0.0
 10
131.4631607623663
 20
-53.8552733079073
 30
0.0
 10
131.4631607623663
 20
-53.81234437341767
 30
0.0
 10
131.4621384288015
 20
-53.76954007720025
 30
0.0
 10
131.4601076612261
 20
-53.72689561368356
 30
0.0
 10
131.4580768936507
 20
-53.68425115016687
 30
0.0
 10
131.455037692064
 20
-53.64176651935123
 30
0.0
 10
131.451003956022
 20
-53.59947691566484
 30
0.0
 10
131.4469702199801
 20
-53.55718731197844
 30
0.0
 10
131.4419419494822
 20
-53.51509273542193
 30
0.0
 10
131.4359330440827
 20
-53.47322838042382
 30
0.0
 10
131.4299241386825
 20
-53.43136402542571
 30
0.0
 10
131.4229345983818
 20
-53.38972989198568
 30
0.0
 10
131.4149783227328
 20
-53.34836117453288
 30
0.0
 10
131.4070220470839
 20
-53.30699245708009
 30
0.0
 10
131.3980990360886
 20
-53.26588915561452
 30
0.0
 10
131.3882231893005
 20
-53.2250864645644
 30
0.0
 10
131.3783473425118
 20
-53.18428377351459
 30
0.0
 10
131.3675186599314
 20
-53.14378169288052
 30
0.0
 10
131.3557510411117
 20
-53.10361541709105
 30
0.0
 10
131.3439834222927
 20
-53.06344914130158
 30
0.0
 10
131.3312768672356
 20
-53.02361867035669
 30
0.0
 10
131.3176452754938
 20
-52.98415919868523
 30
0.0
 10
131.3040136837528
 20
-52.94469972701344
 30
0.0
 10
131.2894570553277
 20
-52.90561125461507
 30
0.0
 10
131.2739892897742
 20
-52.86692897591896
 30
0.0
 10
131.2585215242206
 20
-52.82824669722285
 30
0.0
 10
131.2421426215365
 20
-52.78997061222835
 30
0.0
 10
131.2248664812788
 20
-52.75213591536527
 30
0.0
 10
131.2075903410203
 20
-52.71430121850155
 30
0.0
 10
131.1894169631868
 20
-52.67690790976923
 30
0.0
 10
131.1703602473337
 20
-52.63999118359589
 30
0.0
 10
131.1513035314805
 20
-52.60307445742254
 30
0.0
 10
131.1313634776064
 20
-52.56663431380912
 30
0.0
 10
131.1105539852669
 20
-52.53070594718351
 30
0.0
 10
131.0897444929273
 20
-52.49477758055821
 30
0.0
 10
131.0680655621216
 20
-52.45936099092136
 30
0.0
 10
131.0455310924044
 20
-52.42449137270114
 30
0.0
 10
131.0229966226873
 20
-52.38962175448092
 30
0.0
 10
130.9996066140588
 20
-52.35529910767798
 30
0.0
 10
130.9753749660731
 20
-52.32155862672051
 30
0.0
 10
130.951143318088
 20
-52.28781814576304
 30
0.0
 10
130.926070030745
 20
-52.25465983065168
 30
0.0
 10
130.9001690036001
 20
-52.22211887581432
 30
0.0
 10
130.8742679764553
 20
-52.18957792097726
 30
0.0
 10
130.8475392095079
 20
-52.15765432641452
 30
0.0
 10
130.8199966023122
 20
-52.12638328655525
 30
0.0
 10
130.7924539951165
 20
-52.09511224669565
 30
0.0
 10
130.7640975476731
 20
-52.06449376153919
 30
0.0
 10
130.7349411595361
 20
-52.03456302551503
 30
0.0
 10
130.534629722583
 20
-51.82893163132795
 30
0.0
 10
130.2936206139958
 20
-51.5869799333212
 30
0.0
 10
130.0126929822017
 20
-51.31404575846684
 30
0.0
 10
129.731765350407
 20
-51.0411115836128
 30
0.0
 10
129.4109191954055
 20
-50.73719493191116
 30
0.0
 10
129.0509336656233
 20
-50.40763363033368
 30
0.0
 10
128.6909481358412
 20
-50.07807232875651
 30
0.0
 10
128.2918232312777
 20
-49.7228663773038
 30
0.0
 10
127.8543381003604
 20
-49.34735360294732
 30
0.0
 10
127.4168529694423
 20
-48.97184082859115
 30
0.0
 10
126.9410076121704
 20
-48.5760212313312
 30
0.0
 10
126.4275811769707
 20
-48.16523263813954
 30
0.0
 10
125.9141547417711
 20
-47.75444404494819
 30
0.0
 10
125.3631472286423
 20
-47.32868645582481
 30
0.0
 10
124.7753377860132
 20
-46.89329769774211
 30
0.0
 10
124.1875283433828
 20
-46.4579089396594
 30
0.0
 10
123.562916971252
 20
-46.01288901261673
 30
0.0
 10
122.9022828180451
 20
-45.5635757435868
 30
0.0
 10
122.2416486648381
 20
-45.11426247455656
 30
0.0
 10
121.5449917305563
 20
-44.66065586353874
 30
0.0
 10
120.8130911636257
 20
-44.20809373750541
 30
0.0
 10
120.0811905966951
 20
-43.75553161147176
 30
0.0
 10
119.3140463971151
 20
-43.3040139704226
 30
0.0
 10
118.5124377133131
 20
-42.85887864132969
 30
0.0
 10
117.710829029511
 20
-42.41374331223678
 30
0.0
 10
116.8747558614864
 20
-41.9749902951001
 30
0.0
 10
116.0049973576659
 20
-41.54795741689141
 30
0.0
 10
115.1352388538453
 20
-41.12092453868306
 30
0.0
 10
114.2317950142283
 20
-40.70561179940268
 30
0.0
 10
113.2954449872421
 20
-40.30735702602269
 30
0.0
 10
112.3590949602559
 20
-39.90910225264238
 30
0.0
 10
111.3898387459
 20
-39.52790544516245
 30
0.0
 10
110.3884554926005
 20
-39.16910443055497
 30
0.0
 10
109.3870722393015
 20
-38.81030341594717
 30
0.0
 10
108.353561947059
 20
-38.4738981942115
 30
0.0
 10
107.2887037642989
 20
-38.16522659232002
 30
0.0
 10
106.2238455815395
 20
-37.85655499042887
 30
0.0
 10
105.1276395082633
 20
-37.5756170083816
 30
0.0
 10
104.0008646928962
 20
-37.32775047315027
 30
0.0
 10
102.8740898775299
 20
-37.07988393791894
 30
0.0
 10
101.7167463200721
 20
-36.86508884950356
 30
0.0
 10
100.529613168951
 20
-36.68870303487652
 30
0.0
 10
99.34248001782989
 20
-36.51231722024947
 30
0.0
 10
98.1255572730448
 20
-36.37434067941044
 30
0.0
 10
96.87962408302121
 20
-36.2801112393315
 30
0.0
 10
95.63369089299827
 20
-36.18588179925224
 30
0.0
 10
94.35874725773749
 20
-36.13539945993339
 30
0.0
 10
93.05557232566561
 20
-36.13400204834637
 30
0.0
 10
92.032378413783
 20
-36.13290486408269
 30
0.0
 10
91.00508950670712
 20
-36.16715179596765
 30
0.0
 10
89.97599861557246
 20
-36.23378423698269
 30
0.0
 10
88.94690772443715
 20
-36.30041667799773
 30
0.0
 10
87.9160148492424
 20
-36.39943462814319
 30
0.0
 10
86.8856130011227
 20
-36.5278794804002
 30
0.0
 10
85.85521115300236
 20
-36.65632433265722
 30
0.0
 10
84.82530033195769
 20
-36.81419608702579
 30
0.0
 10
83.79817354912127
 20
-36.99853613648803
 30
0.0
 10
82.77104676628484
 20
-37.18287618594994
 30
0.0
 10
81.74670402165792
 20
-37.3936845305052
 30
0.0
 10
80.72743832637371
 20
-37.62800256313559
 30
0.0
 10
79.7081726310895
 20
-37.86232059576598
 30
0.0
 10
78.69398398514865
 20
-38.12014831647086
 30
0.0
 10
77.68716539968497
 20
-38.39852711823234
 30
0.0
 10
76.6803468142213
 20
-38.67690591999381
 30
0.0
 10
75.68089828923479
 20
-38.97583580281157
 30
0.0
 10
74.69111283585931
 20
-39.29235815966739
 30
0.0
 10
73.70132738248384
 20
-39.60888051652352
 30
0.0
 10
72.72120500072
 20
-39.9429953474174
 30
0.0
 10
71.75303870170168
 20
-40.29174404533081
 30
0.0
 10
70.78487240268335
 20
-40.64049274324422
 30
0.0
 10
69.82866218641051
 20
-41.00387530817715
 30
0.0
 10
68.88670106401763
 20
-41.37893313311108
 30
0.0
 10
67.94473994162476
 20
-41.75399095804502
 30
0.0
 10
67.0170279131112
 20
-42.14072404298058
 30
0.0
 10
66.10585798961209
 20
-42.53617378089829
 30
0.0
 10
65.19468806611235
 20
-42.93162351881632
 30
0.0
 10
64.30006024762639
 20
-43.33578990971681
 30
0.0
 10
63.42426754528903
 20
-43.74571434658154
 30
0.0
 10
62.54847484295168
 20
-44.15563878344628
 30
0.0
 10
61.69151725676195
 20
-44.57132126627526
 30
0.0
 10
60.85568779785466
 20
-44.98980318805028
 30
0.0
 10
60.01985833894705
 20
-45.40828510982498
 30
0.0
 10
59.20515700732186
 20
-45.82956647054603
 30
0.0
 10
58.41387681411293
 20
-46.25068866319395
 30
0.0
 10
57.62259662090401
 20
-46.67181085584185
 30
0.0
 10
56.85473756611167
 20
-47.09277388041759
 30
0.0
 10
56.11259266086942
 20
-47.51061912990197
 30
0.0
 10
55.3704477556275
 20
-47.92846437938635
 30
0.0
 10
54.65401699993566
 20
-48.34319185378001
 30
0.0
 10
53.96559340492873
 20
-48.75184294606379
 30
0.0
 10
53.27716980992179
 20
-49.16049403834757
 30
0.0
 10
52.61675337559942
 20
-49.56306874852178
 30
0.0
 10
51.98663711309578
 20
-49.95660846956853
 30
0.0
 10
51.35652085059246
 20
-50.35014819061496
 30
0.0
 10
50.75670475990754
 20
-50.73465292253361
 30
0.0
 10
50.18948185217582
 20
-51.10716405830594
 30
0.0
 10
50.16591149863584
 20
-51.12264336819977
 30
0.0
 10
50.14211300466852
 20
-51.1376658894692
 30
0.0
 10
50.11809852443642
 20
-51.1522292511829
 30
0.0
 10
50.09408404420433
 20
-51.16679261289659
 30
0.0
 10
50.06985357770746
 20
-51.1808968150552
 30
0.0
 10
50.04541927910874
 20
-51.19453948672739
 30
0.0
 10
50.02098498051001
 20
-51.20818215839959
 30
0.0
 10
49.99634684980973
 20
-51.2213632995857
 30
0.0
 10
49.97151704116985
 20
-51.23408053935535
 30
0.0
 10
49.94668723253029
 20
-51.24679777912501
 30
0.0
 10
49.92166574595112
 20
-51.25905111747758
 30
0.0
 10
49.89646473559589
 20
-51.27083818348333
 30
0.0
 10
49.87126372524066
 20
-51.28262524948877
 30
0.0
 10
49.84588319110872
 20
-51.29394604314708
 30
0.0
 10
49.82033528736362
 20
-51.30479819352725
 30
0.0
 10
49.7947873836182
 20
-51.31565034390775
 30
0.0
 10
49.76907211025897
 20
-51.32603385101012
 30
0.0
 10
49.74320162144916
 20
-51.33594634390398
 30
0.0
 10
49.71733113263934
 20
-51.34585883679753
 30
0.0
 10
49.69130542837863
 20
-51.35530031548291
 30
0.0
 10
49.6651366628296
 20
-51.36426840902912
 30
0.0
 10
49.63896789728088
 20
-51.37323650257533
 30
0.0
 10
49.61265607044383
 20
-51.38173121098237
 30
0.0
 10
49.58621333648136
 20
-51.38975016331922
 30
0.0
 10
49.5597706025189
 20
-51.3977691156564
 30
0.0
 10
49.53319696143134
 20
-51.40531231192373
 30
0.0
 10
49.50650456738092
 20
-51.41237738119085
 30
0.0
 10
49.4798121733302
 20
-51.41944245045796
 30
0.0
 10
49.45300102631726
 20
-51.42602939272454
 30
0.0
 10
49.42608328050439
 20
-51.43213583705991
 30
0.0
 10
49.39916553469152
 20
-51.43824228139528
 30
0.0
 10
49.3721411900787
 20
-51.44386822780007
 30
0.0
 10
49.34502240082885
 20
-51.44901130534297
 30
0.0
 10
49.31790361157899
 20
-51.45415438288587
 30
0.0
 10
49.29069037769177
 20
-51.45881459156687
 30
0.0
 10
49.26339485333042
 20
-51.46298956045594
 30
0.0
 10
49.23609932896905
 20
-51.46716452934501
 30
0.0
 10
49.20872151413324
 20
-51.47085425844149
 30
0.0
 10
49.18127356298587
 20
-51.47405637681537
 30
0.0
 10
49.1538256118388
 20
-51.47725849518893
 30
0.0
 10
49.12630752437987
 20
-51.47997300283986
 30
0.0
 10
49.09873145477195
 20
-51.48219752883719
 30
0.0
 10
49.07115538516403
 20
-51.48442205483451
 30
0.0
 10
49.04352133340778
 20
-51.48615659917854
 30
0.0
 10
49.01584145366481
 20
-51.48739879093827
 30
0.0
 10
48.98816157392216
 20
-51.488640982698
 30
0.0
 10
48.96043586619342
 20
-51.48939082187375
 30
0.0
 10
48.93267648464119
 20
-51.48964593753453
 30
0.0
 10
48.93267648464119
 20
-51.48964593753453
 30
0.0
 10
45.29955025742772
 20
-51.52303527643653
 30
0.0
 10
45.29955025742772
 20
-51.52303527643653
 30
0.0
 10
45.29955025742772
 20
-51.52303527643653
 30
0.0
 10
41.66642403021425
 20
-51.55642461533886
 30
0.0
 10
41.66642403021425
 20
-51.55642461533886
 30
0.0
 10
41.66642403021425
 20
-51.55642461533886
 30
0.0
 10
38.03329780300078
 20
-51.58981395424117
 30
0.0
 10
38.03329780300078
 20
-51.58981395424117
 30
0.0
 10
38.03329780300078
 20
-51.58981395424117
 30
0.0
 10
34.40017157578698
 20
-51.62320329314318
 30
0.0
 10
34.40017157578698
 20
-51.62320329314318
 30
0.0
 10
34.40017157578698
 20
-51.62320329314318
 30
0.0
 10
30.76704534857319
 20
-51.6565926320455
 30
0.0
 10
30.76704534857319
 20
-51.6565926320455
 30
0.0
 10
30.76704534857319
 20
-51.6565926320455
 30
0.0
 10
27.13391912135972
 20
-51.68998197094783
 30
0.0
 10
27.13391912135972
 20
-51.68998197094783
 30
0.0
 10
27.13391912135972
 20
-51.68998197094783
 30
0.0
 10
23.50079289414625
 20
-51.72337130984982
 30
0.0
 10
23.50079289414625
 20
-51.72337130984982
 30
0.0
 10
23.50079289414625
 20
-51.72337130984982
 30
0.0
 10
19.86766666693278
 20
-51.75676064875215
 30
0.0
 10
19.86766666693278
 20
-51.75676064875215
 30
0.0
 10
19.86766666693278
 20
-51.75676064875215
 30
0.0
 10
16.23454043971931
 20
-51.79014998765447
 30
0.0
 10
16.23454043971931
 20
-51.79014998765447
 30
0.0
 10
16.23454043971931
 20
-51.79014998765447
 30
0.0
 10
12.60141421250584
 20
-51.82353932655648
 30
0.0
 10
12.60141421250584
 20
-51.82353932655648
 30
0.0
 10
12.60141421250584
 20
-51.82353932655648
 30
0.0
 10
8.968287985292363
 20
-51.8569286654588
 30
0.0
 10
8.968287985292363
 20
-51.8569286654588
 30
0.0
 10
8.968287985292363
 20
-51.8569286654588
 30
0.0
 10
5.335161758078571
 20
-51.89031800436112
 30
0.0
 10
5.335161758078571
 20
-51.89031800436112
 30
0.0
 10
5.335161758078571
 20
-51.89031800436112
 30
0.0
 10
1.702035530864778
 20
-51.92370734326312
 30
0.0
 10
1.702035530864778
 20
-51.92370734326312
 30
0.0
 10
1.702035530864778
 20
-51.92370734326312
 30
0.0
 10
-1.931090696348694
 20
-51.95709668216545
 30
0.0
 10
-1.931090696348694
 20
-51.95709668216545
 30
0.0
 10
-1.931090696348694
 20
-51.95709668216545
 30
0.0
 10
-5.564216923562165
 20
-51.99048602106777
 30
0.0
 10
-5.564216923562165
 20
-51.99048602106777
 30
0.0
 10
-5.564216923562165
 20
-51.99048602106777
 30
0.0
 10
-9.197343150775637
 20
-52.02387535996977
 30
0.0
 10
-9.197343150775637
 20
-52.02387535996977
 30
0.0
 10
-9.279895452027457
 20
-52.02463403626984
 30
0.0
 10
-9.361447181313286
 20
-52.02977338337077
 30
0.0
 10
-9.441800940201652
 20
-52.03908322844175
 30
0.0
 10
-9.522154699090018
 20
-52.04839307351241
 30
0.0
 10
-9.601310487581245
 20
-52.06187341655279
 30
0.0
 10
-9.679070907244183
 20
-52.07931408473143
 30
0.0
 10
-9.756831326907122
 20
-52.09675475291039
 30
0.0
 10
-9.833196377741771
 20
-52.11815574622761
 30
0.0
 10
-9.907968661317307
 20
-52.14330689185196
 30
0.0
 10
-9.982740944892843
 20
-52.16845803747599
 30
0.0
 10
-10.05592046120894
 20
-52.19735933540745
 30
0.0
 10
-10.1273098118351
 20
-52.22980061281456
 30
0.0
 10
-10.19869916246126
 20
-52.26224189022168
 30
0.0
 10
-10.26829834739716
 20
-52.29822314710445
 30
0.0
 10
-10.33590996821197
 20
-52.33753421063174
 30
0.0
 10
-10.40352158902646
 20
-52.37684527415902
 30
0.0
 10
-10.46914564572018
 20
-52.41948614433083
 30
0.0
 10
-10.53258473986167
 20
-52.46524664831599
 30
0.0
 10
-10.59602383400315
 20
-52.51100715230084
 30
0.0
 10
-10.6572779655924
 20
-52.55988729009906
 30
0.0
 10
-10.71614973619859
 20
-52.61167688887886
 30
0.0
 10
-10.77502150680478
 20
-52.66346648765866
 30
0.0
 10
-10.83151091642758
 20
-52.7181655474207
 30
0.0
 10
-10.8854205666365
 20
-52.77556389533316
 30
0.0
 10
-10.93933021684541
 20
-52.83296224324564
 30
0.0
 10
-10.99066010764012
 20
-52.89305987930856
 30
0.0
 10
-11.03921284058979
 20
-52.95564663069078
 30
0.0
 10
-11.08776557353914
 20
-53.01823338207299
 30
0.0
 10
-11.13354114864377
 20
-53.08330924877483
 30
0.0
 10
-11.17634216747222
 20
-53.15066405796419
 30
0.0
 10
-11.21914318630067
 20
-53.21801886715355
 30
0.0
 10
-11.25896964885294
 20
-53.28765261883106
 30
0.0
 10
-11.29562415669852
 20
-53.35935514016494
 30
0.0
 10
-11.33227866454377
 20
-53.43105766149883
 30
0.0
 10
-11.36576121768202
 20
-53.50482895248973
 30
0.0
 10
-11.39587441768211
 20
-53.58045884030587
 30
0.0
 10
-11.4259876176822
 20
-53.656088728122
 30
0.0
 10
-11.45273146454445
 20
-53.73357721276336
 30
0.0
 10
-11.4759085598374
 20
-53.81271412139882
 30
0.0
 10
-11.49908565513035
 20
-53.89185103003427
 30
0.0
 10
-11.51869599885431
 20
-53.97263636266381
 30
0.0
 10
-11.53454219257846
 20
-54.05485994645598
 30
0.0
 10
-11.55038838630261
 20
-54.13708353024815
 30
0.0
 10
-11.56247043002631
 20
-54.22074536520294
 30
0.0
 10
-11.57059092531938
 20
-54.30563527848953
 30
0.0
 10
-11.57871142061244
 20
-54.39052519177581
 30
0.0
 10
-11.58287036747455
 20
-54.47664318339388
 30
0.0
 10
-11.58287036747455
 20
-54.56377908051166
 30
0.0
  0
SPLINE
  5
43
330
1F
100
AcDbEntity
  8
LAYER_2
 62
   250
100
AcDbSpline
210
0.0
220
0.0
230
1.0
 70
    11
 71
     3
 72
   101
 73
    97
 74
     0
 42
0.0000000001
 43
0.0000000001
 12
1.0
 22
0.0
 32
0.0
 13
1.0
 23
0.0
 33
0.0
 40
0.0
 40
0.0
 40
0.0
 40
0.0
 40
1.0
 40
1.0
 40
1.0
 40
2.0
 40
2.0
 40
2.0
 40
3.0
 40
3.0
 40
3.0
 40
4.0
 40
4.0
 40
4.0
 40
5.0
 40
5.0
 40
5.0
 40
6.0
 40
6.0
 40
6.0
 40
7.0
 40
7.0
 40
7.0
 40
8.0
 40
8.0
 40
8.0
 40
9.0
 40
9.0
 40
9.0
 40
10.0
 40
10.0
 40
10.0
 40
11.0
 40
11.0
 40
11.0
 40
12.0
 40
12.0
 40
12.0
 40
13.0
 40
13.0
 40
13.0
 40
14.0
 40
14.0
 40
14.0
 40
15.0
 40
15.0
 40
15.0
 40
16.0
 40
16.0
 40
16.0
 40
17.0
 40
17.0
 40
17.0
 40
18.0
 40
18.0
 40
18.0
 40
19.0
 40
19.0
 40
19.0
 40
20.0
 40
20.0
 40
20.0
 40
21.0
 40
21.0
 40
21.0
 40
22.0
 40
22.0
 40
22.0
 40
23.0
 40
23.0
 40
23.0
 40
24.0
 40
24.0
 40
24.0
 40
25.0
 40
25.0
 40
25.0
 40
26.0
 40
26.0
 40
26.0
 40
27.0
 40
27.0
 40
27.0
 40
28.0
 40
28.0
 40
28.0
 40
29.0
 40
29.0
 40
29.0
 40
30.0
 40
30.0
 40
30.0
 40
31.0
 40
31.0
 40
31.0
 40
32.0
 40
32.0
 40
32.0
 40
32.0
 10
100.0533483690561
 20
-86.32019495538752
 30
0.0
 10
102.1928758533375
 20
-85.49891357246173
 30
0.0
 10
104.0455683414856
 20
-84.45292062728436
 30
0.0
 10
105.6211228638008
 20
-83.2161961637722
 30
0.0
 10
107.196677386116
 20
-81.97947170026004
 30
0.0
 10
108.495093942597
 20
-80.55201571841373
 30
0.0
 10
109.5260695635437
 20
-78.96780826215071
 30
0.0
 10
110.5570451844903
 20
-77.38360080588835
 30
0.0
 10
111.3205798699013
 20
-75.64264187520864
 30
0.0
 10
111.8263706500758
 20
-73.77891151403159
 30
0.0
 10
112.3321614302503
 20
-71.9151811528539
 30
0.0
 10
112.5802083051883
 20
-69.9286793611776
 30
0.0
 10
112.5802083051883
 20
-67.85338618292143
 30
0.0
 10
112.5802083051883
 20
-65.80764867084913
 30
0.0
 10
112.2353391779076
 20
-63.82319085999339
 30
0.0
 10
111.6139840782928
 20
-61.94913973912708
 30
0.0
 10
110.9926289786787
 20
-60.07508861826046
 30
0.0
 10
110.0947879067318
 20
-58.3114441873836
 30
0.0
 10
108.9888440173987
 20
-56.7073334352694
 30
0.0
 10
107.8829001280657
 20
-55.10322268315488
 30
0.0
 10
106.5688534213479
 20
-53.65864560980334
 30
0.0
 10
105.1150870521925
 20
-52.42272920398768
 30
0.0
 10
103.6613206830371
 20
-51.18681279817201
 30
0.0
 10
102.0678346514441
 20
-50.15955705989223
 30
0.0
 10
100.4030121123616
 20
-49.39008897792186
 30
0.0
 10
100.2728219229753
 20
-49.32991608083169
 30
0.0
 10
100.1926760424336
 20
-49.24366784145962
 30
0.0
 10
100.1539771119195
 20
-49.14966847067191
 30
0.0
 10
100.1152781814054
 20
-49.05566909988421
 30
0.0
 10
100.1180262009189
 20
-48.95391859768056
 30
0.0
 10
100.1536238116422
 20
-48.8627411749269
 30
0.0
 10
100.1892214223655
 20
-48.77156375217355
 30
0.0
 10
100.2576686242999
 20
-48.69095940886988
 30
0.0
 10
100.3503680586271
 20
-48.63925235588182
 30
0.0
 10
100.4430674929537
 20
-48.58754530289409
 30
0.0
 10
100.5600191596743
 20
-48.56473554022197
 30
0.0
 10
100.6926256999707
 20
-48.5891472787311
 30
0.0
 10
101.8884454046815
 20
-48.8092875362949
 30
0.0
 10
103.182475871264
 20
-49.12919394545583
 30
0.0
 10
104.5217014722018
 20
-49.54329137480002
 30
0.0
 10
105.860927073139
 20
-49.95738880414452
 30
0.0
 10
107.2453478084316
 20
-50.46567725367228
 30
0.0
 10
108.6219480505627
 20
-51.0625815919707
 30
0.0
 10
109.9985482926944
 20
-51.65948593026911
 30
0.0
 10
111.3673280416653
 20
-52.34500615733753
 30
0.0
 10
112.6752716699585
 20
-53.11356714176337
 30
0.0
 10
113.9832152982524
 20
-53.88212812618921
 30
0.0
 10
115.2303228058692
 20
-54.73372986797246
 30
0.0
 10
116.3635785652927
 20
-55.66279723569956
 30
0.0
 10
118.7244352762365
 20
-57.59827818232426
 30
0.0
 10
120.6088348411453
 20
-59.32935080352316
 30
0.0
 10
122.1074522886033
 20
-60.8372517028449
 30
0.0
 10
123.6060697360607
 20
-62.34515260216696
 30
0.0
 10
124.7189050660674
 20
-63.62988177961184
 30
0.0
 10
125.5366333072062
 20
-64.67267583872848
 30
0.0
 10
126.3543615483451
 20
-65.71546989784511
 30
0.0
 10
126.8769827006163
 20
-66.51632883863415
 30
0.0
 10
127.1951717926021
 20
-67.05648926464322
 30
0.0
 10
127.5133608845879
 20
-67.59664969065292
 30
0.0
 10
127.6271179162895
 20
-67.87611160188332
 30
0.0
 10
127.6271179162895
 20
-67.87611160188332
 30
0.0
 10
127.6271179162895
 20
-67.87611160188332
 30
0.0
 10
127.4490702686537
 20
-68.30367922989034
 30
0.0
 10
127.050547155955
 20
-69.03600681114735
 30
0.0
 10
126.6520240432562
 20
-69.76833439240434
 30
0.0
 10
126.0330254654946
 20
-70.80542192691134
 30
0.0
 10
125.1511236052434
 20
-72.0244617399113
 30
0.0
 10
124.2692217449923
 20
-73.24350155291125
 30
0.0
 10
123.1244166022524
 20
-74.6444936444029
 30
0.0
 10
121.6742803595953
 20
-76.10463033963111
 30
0.0
 10
120.2241441169388
 20
-77.5647670348587
 30
0.0
 10
118.4686767743658
 20
-79.08404833382158
 30
0.0
 10
116.3654505144497
 20
-80.53966656176273
 30
0.0
 10
115.5267928656297
 20
-81.12009168477037
 30
0.0
 10
114.6448881393087
 20
-81.69304643900148
 30
0.0
 10
113.6583455393326
 20
-82.26271116225652
 30
0.0
 10
112.6718029393578
 20
-82.8323758855122
 30
0.0
 10
111.5806224657278
 20
-83.3987505777918
 30
0.0
 10
110.323413322291
 20
-83.96601557689577
 30
0.0
 10
109.0662041788542
 20
-84.53328057599974
 30
0.0
 10
107.6429663656105
 20
-85.10143588192871
 30
0.0
 10
105.9923090864056
 20
-85.67466183248314
 30
0.0
 10
104.3416518072021
 20
-86.24788778303692
 30
0.0
 10
102.4635750620374
 20
-86.82618437821614
 30
0.0
 10
100.2966880547598
 20
-87.41373195582126
 30
0.0
 10
100.1552739763184
 20
-87.45207613295108
 30
0.0
 10
100.0307312450754
 20
-87.41772954715222
 30
0.0
 10
99.93311930775015
 20
-87.34093422177759
 30
0.0
 10
99.83550737042488
 20
-87.26413889640297
 30
0.0
 10
99.76482622701799
 20
-87.14489483145258
 30
0.0
 10
99.73113532424937
 20
-87.0134440502787
 30
0.0
 10
99.69744442148074
 20
-86.8819932691048
 30
0.0
 10
99.70074375935039
 20
-86.7383357717087
 30
0.0
 10
99.7510927845782
 20
-86.61271358144263
 30
0.0
 10
99.80144180980604
 20
-86.48709139117594
 30
0.0
 10
99.89884052239202
 20
-86.37950450804057
 30
0.0
 10
100.0533483690561
 20
-86.32019495538752
 30
0.0
  0
SPLINE
  5
44
330
1F
100
AcDbEntity
  8
LAYER_2
 62
   250
100
AcDbSpline
210
0.0
220
0.0
230
1.0
 70
    11
 71
     3
 72
   101
 73
    97
 74
     0
 42
0.0000000001
 43
0.0000000001
 12
1.0
 22
0.0
 32
0.0
 13
1.0
 23
0.0
 33
0.0
 40
0.0
 40
0.0
 40
0.0
 40
0.0
 40
1.0
 40
1.0
 40
1.0
 40
2.0
 40
2.0
 40
2.0
 40
3.0
 40
3.0
 40
3.0
 40
4.0
 40
4.0
 40
4.0
 40
5.0
 40
5.0
 40
5.0
 40
6.0
 40
6.0
 40
6.0
 40
7.0
 40
7.0
 40
7.0
 40
8.0
 40
8.0
 40
8.0
 40
9.0
 40
9.0
 40
9.0
 40
10.0
 40
10.0
 40
10.0
 40
11.0
 40
11.0
 40
11.0
 40
12.0
 40
12.0
 40
12.0
 40
13.0
 40
13.0
 40
13.0
 40
14.0
 40
14.0
 40
14.0
 40
15.0
 40
15.0
 40
15.0
 40
16.0
 40
16.0
 40
16.0
 40
17.0
 40
17.0
 40
17.0
 40
18.0
 40
18.0
 40
18.0
 40
19.0
 40
19.0
 40
19.0
 40
20.0
 40
20.0
 40
20.0
 40
21.0
 40
21.0
 40
21.0
 40
22.0
 40
22.0
 40
22.0
 40
23.0
 40
23.0
 40
23.0
 40
24.0
 40
24.0
 40
24.0
 40
25.0
 40
25.0
 40
25.0
 40
26.0
 40
26.0
 40
26.0
 40
27.0
 40
27.0
 40
27.0
 40
28.0
 40
28.0
 40
28.0
 40
29.0
 40
29.0
 40
29.0
 40
30.0
 40
30.0
 40
30.0
 40
31.0
 40
31.0
 40
31.0
 40
32.0
 40
32.0
 40
32.0
 40
32.0
 10
85.22122381368166
 20
-86.32019495603242
 30
0.0
 10
83.18195629806338
 20
-85.48788926739277
 30
0.0
 10
81.38965264715581
 20
-84.43638416932414
 30
0.0
 10
79.84828514833596
 20
-83.19759264843869
 30
0.0
 10
78.30691764951676
 20
-81.95880112755324
 30
0.0
 10
77.01648630278399
 20
-80.53272318385227
 30
0.0
 10
75.98096339551529
 20
-78.95127180394857
 30
0.0
 10
74.94544048824659
 20
-77.36982042404489
 30
0.0
 10
74.16482602044132
 20
-75.63299560793978
 30
0.0
 10
73.64309227947523
 20
-73.77271034224606
 30
0.0
 10
73.12135853850847
 20
-71.91242507655234
 30
0.0
 10
72.85850552438151
 20
-69.92867936127065
 30
0.0
 10
72.85850552446942
 20
-67.85338618301446
 30
0.0
 10
72.85850552455669
 20
-65.80764867094217
 30
0.0
 10
73.19311579903851
 20
-63.82319086009991
 30
0.0
 10
73.79908261940743
 20
-61.94913973925927
 30
0.0
 10
74.40504943977636
 20
-60.07508861841832
 30
0.0
 10
75.28237280603241
 20
-58.31144418757868
 30
0.0
 10
76.36779898966624
 20
-56.70733343551164
 30
0.0
 10
77.45322517330007
 20
-55.10322268344493
 30
0.0
 10
78.74675417431297
 20
-53.65864561015017
 30
0.0
 10
80.18513226419623
 20
-52.42272920439964
 30
0.0
 10
81.62351035407883
 20
-51.18681279864911
 30
0.0
 10
83.20673753283181
 20
-50.15955706044216
 30
0.0
 10
84.87156007194709
 20
-49.39008897855008
 30
0.0
 10
85.00175026133529
 20
-49.32991608146568
 30
0.0
 10
85.0818961418808
 20
-49.24366784209779
 30
0.0
 10
85.12059507239876
 20
-49.14966847131169
 30
0.0
 10
85.15929400291735
 20
-49.05566910052591
 30
0.0
 10
85.15654598340839
 20
-48.95391859832225
 30
0.0
 10
85.1209483726883
 20
-48.86274117556699
 30
0.0
 10
85.08535076196885
 20
-48.77156375281204
 30
0.0
 10
85.01690356003827
 20
-48.69095940950516
 30
0.0
 10
84.92420412571363
 20
-48.63925235651293
 30
0.0
 10
84.83150469138899
 20
-48.58754530352039
 30
0.0
 10
84.71455302466964
 20
-48.56473554084282
 30
0.0
 10
84.58194648437265
 20
-48.58914727934585
 30
0.0
 10
83.38612677965214
 20
-48.80928753685318
 30
0.0
 10
82.12606078869273
 20
-49.10769777182666
 30
0.0
 10
80.82359061054795
 20
-49.47737995591694
 30
0.0
 10
79.52112043240318
 20
-49.84706214000722
 30
0.0
 10
78.17624606707243
 20
-50.28801627321428
 30
0.0
 10
76.81080961360797
 20
-50.79324432718844
 30
0.0
 10
75.44537316014352
 20
-51.2984723811626
 30
0.0
 10
74.05937461854602
 20
-51.86797435590353
 30
0.0
 10
72.6746560878671
 20
-52.49475222306186
 30
0.0
 10
71.2899375571882
 20
-53.12153009021987
 30
0.0
 10
69.90649903742788
 20
-53.80558384979561
 30
0.0
 10
68.54618262763908
 20
-54.53991547343873
 30
0.0
 10
65.759887501891
 20
-56.04402481808619
 30
0.0
 10
63.20600291479924
 20
-57.62959174839608
 30
0.0
 10
60.94246704239545
 20
-59.16188063749735
 30
0.0
 10
58.67893116999166
 20
-60.69416952659831
 30
0.0
 10
56.70574401227552
 20
-62.17318037449033
 30
0.0
 10
55.08084374527806
 20
-63.46417755430142
 30
0.0
 10
53.45594347828028
 20
-64.75517473411283
 30
0.0
 10
52.17933010200148
 20
-65.85815824584299
 30
0.0
 10
51.30894179247205
 20
-66.63839246262022
 30
0.0
 10
50.4385534829423
 20
-67.41862667939809
 30
0.0
 10
49.97439024016224
 20
-67.87611160122238
 30
0.0
 10
49.97439024016224
 20
-67.87611160122238
 30
0.0
 10
49.97439024016224
 20
-67.87611160122238
 30
0.0
 10
50.59710979828181
 20
-68.45048993736292
 30
0.0
 10
51.67825676505609
 20
-69.3835026354418
 30
0.0
 10
52.75940373183005
 20
-70.3165153335207
 30
0.0
 10
54.29897810725903
 20
-71.60816239353665
 30
0.0
 10
56.13268774187721
 20
-73.04269984128874
 30
0.0
 10
57.96639737649572
 20
-74.47723728904019
 30
0.0
 10
60.09424227030374
 20
-76.05466512452715
 30
0.0
 10
62.35193027383641
 20
-77.55923937354612
 30
0.0
 10
64.60961827736908
 20
-79.06381362256573
 30
0.0
 10
66.99714939062608
 20
-80.49553428511672
 30
0.0
 10
69.35023146414285
 20
-81.63865738699818
 30
0.0
 10
70.45014275802754
 20
-82.17299234463133
 30
0.0
 10
71.50721646039865
 20
-82.67718239283245
 30
0.0
 10
72.59152936948688
 20
-83.1638839079191
 30
0.0
 10
73.67584227857576
 20
-83.6505854230051
 30
0.0
 10
74.78739439438111
 20
-84.11979840497663
 30
0.0
 10
75.99626251513492
 20
-84.58417923014804
 30
0.0
 10
77.20513063588872
 20
-85.04856005531944
 30
0.0
 10
78.51131476159097
 20
-85.508108723692
 30
0.0
 10
79.9848916904717
 20
-85.97548161158072
 30
0.0
 10
81.45846861935243
 20
-86.44285449947006
 30
0.0
 10
83.09943835141229
 20
-86.91805160687555
 30
0.0
 10
84.97787768488196
 20
-87.41372931011345
 30
0.0
 10
85.11941815852266
 20
-87.4510786434878
 30
0.0
 10
85.2437048261078
 20
-87.41704213559147
 30
0.0
 10
85.3409414866333
 20
-87.34106969308722
 30
0.0
 10
85.43817814715945
 20
-87.26509725058231
 30
0.0
 10
85.50836480062597
 20
-87.1471888734695
 30
0.0
 10
85.54170524603072
 20
-87.01679446841217
 30
0.0
 10
85.57504569143546
 20
-86.88640006335486
 30
0.0
 10
85.57153992877716
 20
-86.74351963035238
 30
0.0
 10
85.52139175705368
 20
-86.61760307606816
 30
0.0
 10
85.47124358532955
 20
-86.49168652178395
 30
0.0
 10
85.37445300454023
 20
-86.38273384621799
 30
0.0
 10
85.22122381368166
 20
-86.32019495603242
 30
0.0
  0
ENDSEC
  0
SECTION
  2
OBJECTS
  0
DICTIONARY
  5
C
330
0
100
AcDbDictionary
  3
ACAD_GROUP
350
D
  3
ACAD_LAYOUT
350
1A
  3
ACAD_MATERIAL
350
3B
  3
ACAD_MLEADERSTYLE
350
49
  3
ACAD_MLINESTYLE
350
17
  3
ACAD_PLOTSETTINGS
350
19
  3
ACAD_VISUALSTYLE
350
2A
  3
ACDBVARIABLEDICTIONARY
350
47
1001
ACAD
1000
TREAT_AS_HARD
1070
     0
  0
DICTIONARY
  5
D
102
{ACAD_REACTORS
330
C
102
}
330
C
100
AcDbDictionary
1001
ACAD
1000
TREAT_AS_HARD
1070
     0
  0
DICTIONARY
  5
1A
102
{ACAD_REACTORS
330
C
102
}
330
C
100
AcDbDictionary
1001
ACAD
1000
TREAT_AS_HARD
1070
     0
  0
DICTIONARY
  5
3B
102
{ACAD_REACTORS
330
C
102
}
330
C
100
AcDbDictionary
  3
BYBLOCK
350
3D
  3
BYLAYER
350
3C
  3
GLOBAL
350
3E
1001
ACAD
1000
TREAT_AS_HARD
1070
     0
  0
DICTIONARY
  5
49
102
{ACAD_REACTORS
330
C
102
}
330
C
100
AcDbDictionary
1001
ACAD
1000
TREAT_AS_HARD
1070
     0
  0
DICTIONARY
  5
17
102
{ACAD_REACTORS
330
C
102
}
330
C
100
AcDbDictionary
  3
STANDARD
350
18
1001
ACAD
1000
TREAT_AS_HARD
1070
     0
  0
DICTIONARY
  5
19
102
{ACAD_REACTORS
330
C
102
}
330
C
100
AcDbDictionary
1001
ACAD
1000
TREAT_AS_HARD
1070
     0
  0
DICTIONARY
  5
2A
102
{ACAD_REACTORS
330
C
102
}
330
C
100
AcDbDictionary
  3
2DWIREFRAME
350
2F
  3
3DWIREFRAME
350
30
  3
3D_HIDDEN
350
31
  3
BASIC
350
32
  3
BRIGHTEN
350
36
  3
COLORCHANGE
350
3A
  3
CONCEPTUAL
350
34
  3
DIM
350
35
  3
FACEPATTERN
350
39
  3
FLAT
350
2B
  3
FLATWITHEDGES
350
2C
  3
GOURAUD
350
2D
  3
GOURAUDWITHEDGES
350
2E
  3
LINEPATTERN
350
38
  3
REALISTIC
350
33
  3
THICKEN
350
37
1001
ACAD
1000
TREAT_AS_HARD
1070
     0
  0
DICTIONARY
  5
47
102
{ACAD_REACTORS
330
C
102
}
330
C
100
AcDbDictionary
  3
DIMASSOC
350
4A
  3
HIDETEXT
350
4B
1001
ACAD
1000
TREAT_AS_HARD
1070
     0
  0
MATERIAL
  5
3D
102
{ACAD_REACTORS
330
3B
102
}
102
{ACAD_XDICTIONARY
360
4E
102
}
330
3B
100
AcDbMaterial
  1
ByBlock
  0
MATERIAL
  5
3C
102
{ACAD_REACTORS
330
3B
102
}
102
{ACAD_XDICTIONARY
360
4C
102
}
330
3B
100
AcDbMaterial
  1
ByLayer
  0
MATERIAL
  5
3E
102
{ACAD_REACTORS
330
3B
102
}
102
{ACAD_XDICTIONARY
360
50
102
}
330
3B
100
AcDbMaterial
  1
Global
  0
MLINESTYLE
  5
18
102
{ACAD_REACTORS
330
17
102
}
330
17
100
AcDbMlineStyle
  2
Standard
 70
     0
  3

 62
   256
 51
90.0
 52
90.0
 71
     2
 49
0.5
 62
   256
  6
BYLAYER
 49
-0.5
 62
   256
  6
BYLAYER
  0
ACAD_PROXY_OBJECT
  5
2F
102
{ACAD_REACTORS
330
2A
102
}
330
2A
100
AcDbZombieObject
 90
      499
 91
      501
 93
      436
310
42CC9915DA5C99599C985B595049028333333333333E3BF0000000000000FB0107901411070040501600405405064090741402480A0340
1001
ACAD
1000
AcDbSavedByObjectVersion
1070
     0
  0
ACAD_PROXY_OBJECT
  5
30
102
{ACAD_REACTORS
330
2A
102
}
330
2A
100
AcDbZombieObject
 90
      499
 91
      501
 93
      436
310
42CCD915DA5C99599C985B595059028333333333333E3BF0000000000000FB0107901411070040501600405405064090741402480A0340
1001
ACAD
1000
AcDbSavedByObjectVersion
1070
     0
  0
ACAD_PROXY_OBJECT
  5
31
102
{ACAD_REACTORS
330
2A
102
}
330
2A
100
AcDbZombieObject
 90
      499
 91
      501
 93
      500
310
424CD108121A5919195B90640502408333333333333E3BF0000000000000FB01079024090700405020000000000001110200405405064090740C02480A0340
1001
ACAD
1000
AcDbSavedByObjectVersion
1070
     0
  0
ACAD_PROXY_OBJECT
  5
32
102
{ACAD_REACTORS
330
2A
102
}
330
2A
100
AcDbZombieObject
 90
      499
 91
      501
 93
      388
310
4150985CDA58D07406404333333333333E3BF0000000000000FB0107A41107004050150841D405064090741402480A0350
1001
ACAD
1000
AcDbSavedByObjectVersion
1070
     0
  0
ACAD_PROXY_OBJECT
  5
36
102
{ACAD_REACTORS
330
2A
102
}
330
2A
100
AcDbZombieObject
 90
      499
 91
      501
 93
      428
310
42109C9A59DA1D195B90C409028333333333333E3BF0000000000000FB010790141107004050150841D405064090741402480A029950
1001
ACAD
1000
AcDbSavedByObjectVersion
1070
     0
  0
ACAD_PROXY_OBJECT
  5
3A
102
{ACAD_REACTORS
330
2A
102
}
330
2A
100
AcDbZombieObject
 90
      499
 91
      501
 93
      452
310
42D0DBDB1BDC90DA185B99D95104090240C333333333333E3BF0000000000000FB0108901411070040501508421405064090741402480A0350
1001
ACAD
1000
AcDbSavedByObjectVersion
1070
     0
  0
ACAD_PROXY_OBJECT
  5
34
102
{ACAD_REACTORS
330
2A
102
}
330
2A
100
AcDbZombieObject
 90
      499
 91
      501
 93
      500
310
4290DBDB98D95C1D1D585B10940D028333333333333E3BF0000000000000FB0107902409070040501000000000000111010841D405064090740C02480A0340
1001
ACAD
1000
AcDbSavedByObjectVersion
1070
     0
  0
ACAD_PROXY_OBJECT
  5
35
102
{ACAD_REACTORS
330
2A
102
}
330
2A
100
AcDbZombieObject
 90
      499
 91
      501
 93
      412
310
40D11A5B50B409028333333333333E3BF0000000000000FB010790141107004050150841D405064090741402480A02677FFFFFD0
1001
ACAD
1000
AcDbSavedByObjectVersion
1070
     0
  0
ACAD_PROXY_OBJECT
  5
39
102
{ACAD_REACTORS
330
2A
102
}
330
2A
100
AcDbZombieObject
 90
      499
 91
      501
 93
      444
310
42D19858D95C185D1D195C9B90F409028333333333333E3BF0000000000000FB010790141107004050150841D405064090741402480A0350
1001
ACAD
1000
AcDbSavedByObjectVersion
1070
     0
  0
ACAD_PROXY_OBJECT
  5
2B
102
{ACAD_REACTORS
330
2A
102
}
330
2A
100
AcDbZombieObject
 90
      499
 91
      501
 93
      388
310
41119B185D240901404333333333333E3BF0000000000000F9010740A41107004050150841D405064090741402480A1B50
1001
ACAD
1000
AcDbSavedByObjectVersion
1070
     0
  0
ACAD_PROXY_OBJECT
  5
2C
102
{ACAD_REACTORS
330
2A
102
}
330
2A
100
AcDbZombieObject
 90
      499
 91
      501
 93
      476
310
43519B185D15DA5D1A115919D95CD0140901404333333333333E3BF0000000000000F9010740901411070040501600405405064090741402480A1B50
1001
ACAD
1000
AcDbSavedByObjectVersion
1070
     0
  0
ACAD_PROXY_OBJECT
  5
2D
102
{ACAD_REACTORS
330
2A
102
}
330
2A
100
AcDbZombieObject
 90
      499
 91
      501
 93
      412
310
41D1DBDD5C985D5910240902404333333333333E3BF0000000000000F9010740A411070040501641D405064090741402480A1B50
1001
ACAD
1000
AcDbSavedByObjectVersion
1070
     0
  0
ACAD_PROXY_OBJECT
  5
2E
102
{ACAD_REACTORS
330
2A
102
}
330
2A
100
AcDbZombieObject
 90
      499
 91
      501
 93
      500
310
4411DBDD5C985D5915DA5D1A115919D95CD0340902404333333333333E3BF0000000000000F9010740901411070040501600405405064090741402480A1B50
1001
ACAD
1000
AcDbSavedByObjectVersion
1070
     0
  0
ACAD_PROXY_OBJECT
  5
38
102
{ACAD_REACTORS
330
2A
102
}
330
2A
100
AcDbZombieObject
 90
      499
 91
      501
 93
      444
310
42D31A5B995C185D1D195C9B90E409028333333333333E3BF0000000000000FB010790141107004050750841D405064090741402483A0350
1001
ACAD
1000
AcDbSavedByObjectVersion
1070
     0
  0
ACAD_PROXY_OBJECT
  5
33
102
{ACAD_REACTORS
330
2A
102
}
330
2A
100
AcDbZombieObject
 90
      499
 91
      501
 93
      420
310
425499585B1A5CDD1A58D08409028333333333333E3BF0000000000000FB01079019070040501508421405064090741402480A1B40
1001
ACAD
1000
AcDbSavedByObjectVersion
1070
     0
  0
ACAD_PROXY_OBJECT
  5
37
102
{ACAD_REACTORS
330
2A
102
}
330
2A
100
AcDbZombieObject
 90
      499
 91
      501
 93
      412
310
41D51A1A58DAD95B90D409028333333333333E3BF0000000000000FB010790141107004050150C41D405064090741402480A0350
1001
ACAD
1000
AcDbSavedByObjectVersion
1070
     0
  0
DICTIONARYVAR
  5
4A
102
{ACAD_REACTORS
330
47
102
}
330
47
100
DictionaryVariables
280
     0
  1
2
  0
DICTIONARYVAR
  5
4B
102
{ACAD_REACTORS
330
47
102
}
330
47
100
DictionaryVariables
280
     0
  1
1
  0
DICTIONARY
  5
4E
330
3D
100
AcDbDictionary
  3
ACAD_XREC_ROUNDTRIP
360
4F
1001
ACAD
1000
TREAT_AS_HARD
1070
     1
  0
DICTIONARY
  5
4C
330
3C
100
AcDbDictionary
  3
ACAD_XREC_ROUNDTRIP
360
4D
1001
ACAD
1000
TREAT_AS_HARD
1070
     1
  0
DICTIONARY
  5
50
330
3E
100
AcDbDictionary
  3
ACAD_XREC_ROUNDTRIP
360
51
1001
ACAD
1000
TREAT_AS_HARD
1070
     1
  0
XRECORD
  5
4F
102
{ACAD_REACTORS
330
4E
102
}
330
4E
100
AcDbXrecord
102
MATERIAL
148
0.0
149
0.0
149
0.0
 93
        0
 94
      127
282
     0
 72
     1
 77
     1
171
     1
175
     1
179
     1
273
     0
  0
XRECORD
  5
4D
102
{ACAD_REACTORS
330
4C
102
}
330
4C
100
AcDbXrecord
102
MATERIAL
148
0.0
149
0.0
149
0.0
 93
        0
 94
      127
282
     0
 72
     1
 77
     1
171
     1
175
     1
179
     1
273
     0
  0
XRECORD
  5
51
102
{ACAD_REACTORS
330
50
102
}
330
50
100
AcDbXrecord
102
MATERIAL
148
0.0
149
0.0
149
0.0
 93
        0
 94
      127
282
     0
 72
     1
 77
     1
171
     1
175
     1
179
     1
273
     0
  0
ENDSEC
  0
EOF
