  0
SECTION
  2
HEADER
  9
$ACADVER
  1
AC1012
  9
$DWGCODEPAGE
  3
undefined
  9
$INSBASE
 10
0.0
 20
0.0
 30
0.0
  9
$EXTMIN
 10
1.000000000000000E+20
 20
1.000000000000000E+20
 30
1.000000000000000E+20
  9
$EXTMAX
 10
-1.000000000000000E+20
 20
-1.000000000000000E+20
 30
-1.000000000000000E+20
  9
$LIMMIN
 10
0.0
 20
0.0
  9
$LIMMAX
 10
12.0
 20
9.0
  9
$ORTHOMODE
 70
     0
  9
$REGENMODE
 70
     1
  9
$FILLMODE
 70
     1
  9
$QTEXTMODE
 70
     0
  9
$MIRRTEXT
 70
     1
  9
$DRAGMODE
 70
     2
  9
$LTSCALE
 40
1.0
  9
$OSMODE
 70
    37
  9
$ATTMODE
 70
     1
  9
$TEXTSIZE
 40
0.2
  9
$TRACEWID
 40
0.05
  9
$TEXTSTYLE
  7
STANDARD
  9
$CLAYER
  8
0
  9
$CELTYPE
  6
BYLAYER
  9
$CECOLOR
 62
   256
  9
$CELTSCALE
 40
1.0
  9
$DELOBJ
 70
     1
  9
$DISPSILH
 70
     0
  9
$DIMSCALE
 40
1.0
  9
$DIMASZ
 40
0.18
  9
$DIMEXO
 40
0.0625
  9
$DIMDLI
 40
0.38
  9
$DIMRND
 40
0.0
  9
$DIMDLE
 40
0.0
  9
$DIMEXE
 40
0.18
  9
$DIMTP
 40
0.0
  9
$DIMTM
 40
0.0
  9
$DIMTXT
 40
0.18
  9
$DIMCEN
 40
0.09
  9
$DIMTSZ
 40
0.0
  9
$DIMTOL
 70
     0
  9
$DIMLIM
 70
     0
  9
$DIMTIH
 70
     1
  9
$DIMTOH
 70
     1
  9
$DIMSE1
 70
     0
  9
$DIMSE2
 70
     0
  9
$DIMTAD
 70
     0
  9
$DIMZIN
 70
     0
  9
$DIMBLK
  1

  9
$DIMASO
 70
     1
  9
$DIMSHO
 70
     1
  9
$DIMPOST
  1

  9
$DIMAPOST
  1

  9
$DIMALT
 70
     0
  9
$DIMALTD
 70
     2
  9
$DIMALTF
 40
25.4
  9
$DIMLFAC
 40
1.0
  9
$DIMTOFL
 70
     0
  9
$DIMTVP
 40
0.0
  9
$DIMTIX
 70
     0
  9
$DIMSOXD
 70
     0
  9
$DIMSAH
 70
     0
  9
$DIMBLK1
  1

  9
$DIMBLK2
  1

  9
$DIMSTYLE
  2
STANDARD
  9
$DIMCLRD
 70
     0
  9
$DIMCLRE
 70
     0
  9
$DIMCLRT
 70
     0
  9
$DIMTFAC
 40
1.0
  9
$DIMGAP
 40
0.09
  9
$DIMJUST
 70
     0
  9
$DIMSD1
 70
     0
  9
$DIMSD2
 70
     0
  9
$DIMTOLJ
 70
     1
  9
$DIMTZIN
 70
     0
  9
$DIMALTZ
 70
     0
  9
$DIMALTTZ
 70
     0
  9
$DIMFIT
 70
     3
  9
$DIMUPT
 70
     0
  9
$DIMUNIT
 70
     2
  9
$DIMDEC
 70
     4
  9
$DIMTDEC
 70
     4
  9
$DIMALTU
 70
     2
  9
$DIMALTTD
 70
     2
  9
$DIMTXSTY
  7
STANDARD
  9
$DIMAUNIT
 70
     0
  9
$LUNITS
 70
     2
  9
$LUPREC
 70
     4
  9
$SKETCHINC
 40
0.1
  9
$FILLETRAD
 40
0.5
  9
$AUNITS
 70
     0
  9
$AUPREC
 70
     0
  9
$MENU
  1
.
  9
$ELEVATION
 40
0.0
  9
$PELEVATION
 40
0.0
  9
$THICKNESS
 40
0.0
  9
$LIMCHECK
 70
     0
  9
$CHAMFERA
 40
0.5
  9
$CHAMFERB
 40
0.5
  9
$CHAMFERC
 40
1.0
  9
$CHAMFERD
 40
0.0
  9
$SKPOLY
 70
     0
  9
$TDCREATE
 40
2458816.952766192
  9
$TDUPDATE
 40
2458816.952766192
  9
$TDINDWG
 40
0.0000000116
  9
$TDUSRTIMER
 40
0.0000000116
  9
$USRTIMER
 70
     1
  9
$ANGBASE
 50
0.0
  9
$ANGDIR
 70
     0
  9
$PDMODE
 70
     0
  9
$PDSIZE
 40
0.0
  9
$PLINEWID
 40
0.0
  9
$COORDS
 70
     1
  9
$SPLFRAME
 70
     0
  9
$SPLINETYPE
 70
     6
  9
$SPLINESEGS
 70
     8
  9
$ATTDIA
 70
     0
  9
$ATTREQ
 70
     1
  9
$HANDLING
 70
     1
  9
$HANDSEED
  5
D5
  9
$SURFTAB1
 70
     6
  9
$SURFTAB2
 70
     6
  9
$SURFTYPE
 70
     6
  9
$SURFU
 70
     6
  9
$SURFV
 70
     6
  9
$UCSNAME
  2

  9
$UCSORG
 10
0.0
 20
0.0
 30
0.0
  9
$UCSXDIR
 10
1.0
 20
0.0
 30
0.0
  9
$UCSYDIR
 10
0.0
 20
1.0
 30
0.0
  9
$PUCSNAME
  2

  9
$PUCSORG
 10
0.0
 20
0.0
 30
0.0
  9
$PUCSXDIR
 10
1.0
 20
0.0
 30
0.0
  9
$PUCSYDIR
 10
0.0
 20
1.0
 30
0.0
  9
$USERI1
 70
     0
  9
$USERI2
 70
     0
  9
$USERI3
 70
     0
  9
$USERI4
 70
     0
  9
$USERI5
 70
     0
  9
$USERR1
 40
0.0
  9
$USERR2
 40
0.0
  9
$USERR3
 40
0.0
  9
$USERR4
 40
0.0
  9
$USERR5
 40
0.0
  9
$WORLDVIEW
 70
     1
  9
$SHADEDGE
 70
     3
  9
$SHADEDIF
 70
    70
  9
$TILEMODE
 70
     1
  9
$MAXACTVP
 70
    64
  9
$PINSBASE
 10
0.0
 20
0.0
 30
0.0
  9
$PLIMCHECK
 70
     0
  9
$PEXTMIN
 10
1.000000000000000E+20
 20
1.000000000000000E+20
 30
1.000000000000000E+20
  9
$PEXTMAX
 10
-1.000000000000000E+20
 20
-1.000000000000000E+20
 30
-1.000000000000000E+20
  9
$PLIMMIN
 10
0.0
 20
0.0
  9
$PLIMMAX
 10
12.0
 20
9.0
  9
$UNITMODE
 70
     0
  9
$VISRETAIN
 70
     1
  9
$PLINEGEN
 70
     0
  9
$PSLTSCALE
 70
     1
  9
$TREEDEPTH
 70
  3020
  9
$PICKSTYLE
 70
     1
  9
$CMLSTYLE
  2
STANDARD
  9
$CMLJUST
 70
     0
  9
$CMLSCALE
 40
1.0
  9
$SAVEIMAGES
 70
     1
  0
ENDSEC
  0
SECTION
  2
CLASSES
  0
CLASS
  1
ACDBDICTIONARYWDFLT
  2
AcDbDictionaryWithDefault
  3
ObjectDBX Classes
 90
    32768
280
     0
281
     0
  0
CLASS
  1
VISUALSTYLE
  2
AcDbVisualStyle
  3
ObjectDBX Classes
 90
     4095
280
     0
281
     0
  0
CLASS
  1
MATERIAL
  2
AcDbMaterial
  3
ObjectDBX Classes
 90
     1153
280
     0
281
     0
  0
CLASS
  1
SUN
  2
AcDbSun
  3
SCENEOE
 90
     1024
280
     0
281
     0
  0
CLASS
  1
DICTIONARYVAR
  2
AcDbDictionaryVar
  3
ObjectDBX Classes
 90
        0
280
     0
281
     0
  0
CLASS
  1
XRECORD
  2
AcDbXrecord
  3
AutoCAD 2000
 90
    32768
280
     0
281
     0
  0
CLASS
  1
LWPOLYLINE
  2
AcDbPolyline
  3
AutoCAD 2000
 90
    32768
280
     0
281
     1
  0
CLASS
  1
HATCH
  2
AcDbHatch
  3
AutoCAD 2000
 90
    32768
280
     0
281
     1
  0
CLASS
  1
ACDBPLACEHOLDER
  2
AcDbPlaceHolder
  3
ObjectDBX Classes
 90
        0
280
     0
281
     0
  0
CLASS
  1
LAYOUT
  2
AcDbLayout
  3
ObjectDBX Classes
 90
        0
280
     0
281
     0
  0
ENDSEC
  0
SECTION
  2
TABLES
  0
TABLE
  2
VPORT
  5
8
330
0
100
AcDbSymbolTable
 70
     1
  0
VPORT
  5
29
330
8
100
AcDbSymbolTableRecord
100
AcDbViewportTableRecord
  2
*ACTIVE
 70
     0
 10
0.0
 20
0.0
 11
1.0
 21
1.0
 12
0.0
 22
0.0
 13
0.0
 23
0.0
 14
0.5
 24
0.5
 15
0.5
 25
0.5
 16
0.0
 26
0.0
 36
1.0
 17
0.0
 27
0.0
 37
0.0
 40
68.43888887177917
 41
2.337628865979382
 42
50.0
 43
0.0
 44
0.0
 50
0.0
 51
0.0
 71
     0
 72
   100
 73
     1
 74
     3
 75
     0
 76
     0
 77
     0
 78
     0
  0
ENDTAB
  0
TABLE
  2
LTYPE
  5
5
330
0
100
AcDbSymbolTable
 70
     1
  0
LTYPE
  5
14
330
5
100
AcDbSymbolTableRecord
100
AcDbLinetypeTableRecord
  2
BYBLOCK
 70
     0
  3

 72
    65
 73
     0
 40
0.0
  0
LTYPE
  5
15
330
5
100
AcDbSymbolTableRecord
100
AcDbLinetypeTableRecord
  2
BYLAYER
 70
     0
  3

 72
    65
 73
     0
 40
0.0
  0
LTYPE
  5
16
330
5
100
AcDbSymbolTableRecord
100
AcDbLinetypeTableRecord
  2
CONTINUOUS
 70
     0
  3
Solid line
 72
    65
 73
     0
 40
0.0
  0
ENDTAB
  0
TABLE
  2
LAYER
  5
2
330
0
100
AcDbSymbolTable
 70
     6
  0
LAYER
  5
10
330
2
100
AcDbSymbolTableRecord
100
AcDbLayerTableRecord
  2
0
 70
     0
 62
     7
  6
CONTINUOUS
  0
LAYER
  5
40
330
2
100
AcDbSymbolTableRecord
100
AcDbLayerTableRecord
  2
DIMENSION
 70
     1
 62
     7
  6
CONTINUOUS
  0
LAYER
  5
41
330
2
100
AcDbSymbolTableRecord
100
AcDbLayerTableRecord
  2
LAYER_3
 70
     1
 62
     7
  6
CONTINUOUS
  0
LAYER
  5
42
330
2
100
AcDbSymbolTableRecord
100
AcDbLayerTableRecord
  2
TPLACE
 70
     0
 62
     7
  6
CONTINUOUS
  0
LAYER
  5
C7
330
2
100
AcDbSymbolTableRecord
100
AcDbLayerTableRecord
  2
TSTOP
 70
     1
 62
     7
  6
CONTINUOUS
  0
LAYER
  5
C8
330
2
100
AcDbSymbolTableRecord
100
AcDbLayerTableRecord
  2
TKEEPOUT
 70
     1
 62
     7
  6
CONTINUOUS
  0
ENDTAB
  0
TABLE
  2
STYLE
  5
3
330
0
100
AcDbSymbolTable
 70
     1
  0
STYLE
  5
11
330
3
100
AcDbSymbolTableRecord
100
AcDbTextStyleTableRecord
  2
STANDARD
 70
     0
 40
0.0
 41
1.0
 50
0.0
 71
     0
 42
0.2
  3
txt
  4

  0
ENDTAB
  0
TABLE
  2
VIEW
  5
6
330
0
100
AcDbSymbolTable
 70
     0
  0
ENDTAB
  0
TABLE
  2
UCS
  5
7
330
0
100
AcDbSymbolTable
 70
     0
  0
ENDTAB
  0
TABLE
  2
APPID
  5
9
330
0
100
AcDbSymbolTable
 70
     1
  0
APPID
  5
12
330
9
100
AcDbSymbolTableRecord
100
AcDbRegAppTableRecord
  2
ACAD
 70
     0
  0
ENDTAB
  0
TABLE
  2
DIMSTYLE
  5
A
330
0
100
AcDbSymbolTable
 70
     1
  0
DIMSTYLE
105
27
330
A
100
AcDbSymbolTableRecord
100
AcDbDimStyleTableRecord
  2
STANDARD
 70
     0
  3

  4

  5

  6

  7

 40
1.0
 41
0.18
 42
0.0625
 43
0.38
 44
0.18
 45
0.0
 46
0.0
 47
0.0
 48
0.0
140
0.18
141
0.09
142
0.0
143
25.4
144
1.0
145
0.0
146
1.0
147
0.09
 71
     0
 72
     0
 73
     1
 74
     1
 75
     0
 76
     0
 77
     0
 78
     0
170
     0
171
     2
172
     0
173
     0
174
     0
175
     0
176
     0
177
     0
178
     0
270
     2
271
     4
272
     4
273
     2
274
     2
340
11
275
     0
280
     0
281
     0
282
     0
283
     1
284
     0
285
     0
286
     0
287
     3
288
     0
  0
ENDTAB
  0
TABLE
  2
BLOCK_RECORD
  5
1
330
0
100
AcDbSymbolTable
 70
     1
  0
BLOCK_RECORD
  5
1F
330
1
100
AcDbSymbolTableRecord
100
AcDbBlockTableRecord
  2
*MODEL_SPACE
  0
BLOCK_RECORD
  5
1B
330
1
100
AcDbSymbolTableRecord
100
AcDbBlockTableRecord
  2
*PAPER_SPACE
  0
ENDTAB
  0
ENDSEC
  0
SECTION
  2
BLOCKS
  0
BLOCK
  5
20
330
1F
100
AcDbEntity
  8
0
100
AcDbBlockBegin
  2
*MODEL_SPACE
 70
     0
 10
0.0
 20
0.0
 30
0.0
  3
*MODEL_SPACE
  1

  0
ENDBLK
  5
21
330
1F
100
AcDbEntity
  8
0
100
AcDbBlockEnd
  0
BLOCK
  5
1C
330
1B
100
AcDbEntity
 67
     1
  8
0
100
AcDbBlockBegin
  2
*PAPER_SPACE
 70
     0
 10
0.0
 20
0.0
 30
0.0
  3
*PAPER_SPACE
  1

  0
ENDBLK
  5
1D
330
1B
100
AcDbEntity
 67
     1
  8
0
100
AcDbBlockEnd
  0
ENDSEC
  0
SECTION
  2
ENTITIES
  0
SPLINE
  5
43
330
1F
100
AcDbEntity
  8
TPLACE
 62
   250
100
AcDbSpline
210
0.0
220
0.0
230
1.0
 70
    11
 71
     3
 72
   197
 73
   193
 74
     0
 42
0.0000000001
 43
0.0000000001
 12
1.0
 22
0.0
 32
0.0
 13
1.0
 23
0.0
 33
0.0
 40
0.0
 40
0.0
 40
0.0
 40
0.0
 40
1.0
 40
1.0
 40
1.0
 40
2.0
 40
2.0
 40
2.0
 40
3.0
 40
3.0
 40
3.0
 40
4.0
 40
4.0
 40
4.0
 40
5.0
 40
5.0
 40
5.0
 40
6.0
 40
6.0
 40
6.0
 40
7.0
 40
7.0
 40
7.0
 40
8.0
 40
8.0
 40
8.0
 40
9.0
 40
9.0
 40
9.0
 40
10.0
 40
10.0
 40
10.0
 40
11.0
 40
11.0
 40
11.0
 40
12.0
 40
12.0
 40
12.0
 40
13.0
 40
13.0
 40
13.0
 40
14.0
 40
14.0
 40
14.0
 40
15.0
 40
15.0
 40
15.0
 40
16.0
 40
16.0
 40
16.0
 40
17.0
 40
17.0
 40
17.0
 40
18.0
 40
18.0
 40
18.0
 40
19.0
 40
19.0
 40
19.0
 40
20.0
 40
20.0
 40
20.0
 40
21.0
 40
21.0
 40
21.0
 40
22.0
 40
22.0
 40
22.0
 40
23.0
 40
23.0
 40
23.0
 40
24.0
 40
24.0
 40
24.0
 40
25.0
 40
25.0
 40
25.0
 40
26.0
 40
26.0
 40
26.0
 40
27.0
 40
27.0
 40
27.0
 40
28.0
 40
28.0
 40
28.0
 40
29.0
 40
29.0
 40
29.0
 40
30.0
 40
30.0
 40
30.0
 40
31.0
 40
31.0
 40
31.0
 40
32.0
 40
32.0
 40
32.0
 40
33.0
 40
33.0
 40
33.0
 40
34.0
 40
34.0
 40
34.0
 40
35.0
 40
35.0
 40
35.0
 40
36.0
 40
36.0
 40
36.0
 40
37.0
 40
37.0
 40
37.0
 40
38.0
 40
38.0
 40
38.0
 40
39.0
 40
39.0
 40
39.0
 40
40.0
 40
40.0
 40
40.0
 40
41.0
 40
41.0
 40
41.0
 40
42.0
 40
42.0
 40
42.0
 40
43.0
 40
43.0
 40
43.0
 40
44.0
 40
44.0
 40
44.0
 40
45.0
 40
45.0
 40
45.0
 40
46.0
 40
46.0
 40
46.0
 40
47.0
 40
47.0
 40
47.0
 40
48.0
 40
48.0
 40
48.0
 40
49.0
 40
49.0
 40
49.0
 40
50.0
 40
50.0
 40
50.0
 40
51.0
 40
51.0
 40
51.0
 40
52.0
 40
52.0
 40
52.0
 40
53.0
 40
53.0
 40
53.0
 40
54.0
 40
54.0
 40
54.0
 40
55.0
 40
55.0
 40
55.0
 40
56.0
 40
56.0
 40
56.0
 40
57.0
 40
57.0
 40
57.0
 40
58.0
 40
58.0
 40
58.0
 40
59.0
 40
59.0
 40
59.0
 40
60.0
 40
60.0
 40
60.0
 40
61.0
 40
61.0
 40
61.0
 40
62.0
 40
62.0
 40
62.0
 40
63.0
 40
63.0
 40
63.0
 40
64.0
 40
64.0
 40
64.0
 40
64.0
 10
74.09506804966867
 20
-1.531163977279751
 30
0.0
 10
74.09506804966867
 20
-1.531163977279751
 30
0.0
 10
74.04846344952115
 20
-1.615872502780987
 30
0.0
 10
73.9543853981841
 20
-1.774700988095683
 30
0.0
 10
73.86030734684705
 20
-1.9335294734107
 30
0.0
 10
73.71875584432046
 20
-2.166477918539178
 30
0.0
 10
73.52886203956297
 20
-2.462957757793342
 30
0.0
 10
73.33896823480546
 20
-2.759437597047506
 30
0.0
 10
73.1007321278164
 20
-3.119448830427998
 30
0.0
 10
72.81328486755442
 20
-3.532402892246401
 30
0.0
 10
72.52583760729179
 20
-3.945356954064803
 30
0.0
 10
72.18917919375687
 20
-4.411253844321759
 30
0.0
 10
71.80244077590635
 20
-4.919504997328851
 30
0.0
 10
71.41570235805584
 20
-5.427756150335944
 30
0.0
 10
70.97888393589038
 20
-5.978361566094135
 30
0.0
 10
70.49111665836794
 20
-6.560732678915009
 30
0.0
 10
70.00334938084615
 20
-7.143103791735883
 30
0.0
 10
69.46463324796673
 20
-7.757240601619761
 30
0.0
 10
68.87409940868898
 20
-8.392554542878866
 30
0.0
 10
68.28356556941122
 20
-9.027868484138294
 30
0.0
 10
67.64121402373384
 20
-9.684359556772629
 30
0.0
 10
66.94617592061671
 20
-10.35143919509474
 30
0.0
 10
66.2511378174996
 20
-11.01851883341685
 30
0.0
 10
65.50341315694148
 20
-11.69618703742673
 30
0.0
 10
64.70213308790096
 20
-12.37385524143662
 30
0.0
 10
63.90085301886045
 20
-13.0515234454465
 30
0.0
 10
63.04601754133754
 20
-13.72919164945638
 30
0.0
 10
62.13675780428991
 20
-14.39627128777849
 30
0.0
 10
61.2274980672426
 20
-15.0633509261006
 30
0.0
 10
60.26381407067056
 20
-15.71984199873494
 30
0.0
 10
59.24483696353274
 20
-16.35515593999436
 30
0.0
 10
58.22585985639492
 20
-16.99046988125347
 30
0.0
 10
57.15158963869035
 20
-17.60460669113735
 30
0.0
 10
56.02115745937798
 20
-18.18697780395822
 30
0.0
 10
54.8907252800656
 20
-18.76934891677909
 30
0.0
 10
53.70413113914478
 20
-19.31995433253729
 30
0.0
 10
52.46050618557414
 20
-19.82820548554438
 30
0.0
 10
51.21688123200349
 20
-20.33645663855147
 30
0.0
 10
49.91622546578303
 20
-20.80235352880843
 30
0.0
 10
48.5576700358704
 20
-21.21530759062683
 30
0.0
 10
47.19911460595809
 20
-21.62826165244523
 30
0.0
 10
45.78265951235362
 20
-21.98827288582573
 30
0.0
 10
44.3074359040156
 20
-22.28475272507989
 30
0.0
 10
42.83221229567759
 20
-22.58123256433405
 30
0.0
 10
41.2982201726057
 20
-22.81418100946253
 30
0.0
 10
39.70459068375859
 20
-22.97300949477755
 30
0.0
 10
38.11096119491115
 20
-23.13183798009224
 30
0.0
 10
36.45769434028815
 20
-23.21654650559348
 30
0.0
 10
34.74392126884756
 20
-23.21654650559348
 30
0.0
 10
33.03014819740699
 20
-23.21654650559348
 30
0.0
 10
31.34087387665527
 20
-23.13183798009224
 30
0.0
 10
29.67973038881644
 20
-22.97300949477755
 30
0.0
 10
28.01858690097793
 20
-22.81418100946253
 30
0.0
 10
26.38557424605232
 20
-22.58123256433405
 30
0.0
 10
24.78432450626394
 20
-22.28475272507989
 30
0.0
 10
23.18307476647525
 20
-21.98827288582573
 30
0.0
 10
21.61358794182412
 20
-21.62826165244523
 30
0.0
 10
20.07949611453459
 20
-21.21530759062683
 30
0.0
 10
18.54540428724473
 20
-20.80235352880843
 30
0.0
 10
17.04670745731647
 20
-20.33645663855147
 30
0.0
 10
15.58703770697383
 20
-19.82820548554438
 30
0.0
 10
14.12736795663119
 20
-19.31995433253729
 30
0.0
 10
12.70672528587449
 20
-18.76934891677909
 30
0.0
 10
11.32874177692746
 20
-18.18697780395822
 30
0.0
 10
9.950758267980419
 20
-17.60460669113735
 30
0.0
 10
8.615433920843035
 20
-16.99046988125347
 30
0.0
 10
7.326400817739978
 20
-16.35515593999436
 30
0.0
 10
6.037367714636922
 20
-15.71984199873494
 30
0.0
 10
4.794625855567872
 20
-15.0633509261006
 30
0.0
 10
3.601807322757179
 20
-14.39627128777849
 30
0.0
 10
2.408988789946486
 20
-13.72919164945638
 30
0.0
 10
1.26609358339415
 20
-13.0515234454465
 30
0.0
 10
0.1767537853242027
 20
-12.37385524143662
 30
0.0
 10
-0.912586012745745
 20
-11.69618703742673
 30
0.0
 10
-1.948370402332984
 20
-11.01851883341685
 30
0.0
 10
-2.926967301213484
 20
-10.35143919509474
 30
0.0
 10
-3.905564200093984
 20
-9.684359556772629
 30
0.0
 10
-4.826973608268066
 20
-9.027868484138294
 30
0.0
 10
-5.687563443511058
 20
-8.392554542878866
 30
0.0
 10
-6.548153278754049
 20
-7.757240601619761
 30
0.0
 10
-7.34792354106595
 20
-7.143103791735883
 30
0.0
 10
-8.083242148223052
 20
-6.560732678915009
 30
0.0
 10
-8.818560755379831
 20
-5.978361566094135
 30
0.0
 10
-9.489427707381491
 20
-5.427756150335944
 30
0.0
 10
-10.092210922004
 20
-4.919504997328851
 30
0.0
 10
-10.69499413662651
 20
-4.411253844321759
 30
0.0
 10
-11.22969361386922
 20
-3.945356954064803
 30
0.0
 10
-11.69267727150876
 20
-3.532402892246401
 30
0.0
 10
-12.15566092914797
 20
-3.119448830427998
 30
0.0
 10
-12.546928767184
 20
-2.759437597047506
 30
0.0
 10
-12.86284870339186
 20
-2.462957757793342
 30
0.0
 10
-13.17876863959972
 20
-2.166477918539178
 30
0.0
 10
-13.41934067398004
 20
-1.9335294734107
 30
0.0
 10
-13.58093272430848
 20
-1.774700988095683
 30
0.0
 10
-13.7425247746366
 20
-1.615872502780987
 30
0.0
 10
-13.82513684091284
 20
-1.531163977279751
 30
0.0
 10
-13.82513684091284
 20
-1.531163977279751
 30
0.0
 10
-13.82513684091284
 20
-1.531163977279751
 30
0.0
 10
-13.7425247746366
 20
-1.446455451778516
 30
0.0
 10
-13.58093272430848
 20
-1.287626966463819
 30
0.0
 10
-13.41934067398004
 20
-1.128798481148802
 30
0.0
 10
-13.17876863959972
 20
-0.8958500360203244
 30
0.0
 10
-12.86284870339186
 20
-0.5993701967661604
 30
0.0
 10
-12.546928767184
 20
-0.3028903575119966
 30
0.0
 10
-12.15566092914797
 20
0.0571208758684951
 30
0.0
 10
-11.69267727150876
 20
0.470074937686898
 30
0.0
 10
-11.22969361386922
 20
0.8830289995053008
 30
0.0
 10
-10.69499413662651
 20
1.348925889762257
 30
0.0
 10
-10.092210922004
 20
1.857177042769349
 30
0.0
 10
-9.489427707381491
 20
2.365428195776441
 30
0.0
 10
-8.818560755379831
 20
2.916033611534633
 30
0.0
 10
-8.083242148223052
 20
3.498404724355507
 30
0.0
 10
-7.34792354106595
 20
4.080775837176381
 30
0.0
 10
-6.548153278754049
 20
4.694912647060258
 30
0.0
 10
-5.687563443511058
 20
5.330226588319364
 30
0.0
 10
-4.826973608268066
 20
5.96554052957847
 30
0.0
 10
-3.905564200093984
 20
6.622031602213125
 30
0.0
 10
-2.926967301213484
 20
7.289111240535235
 30
0.0
 10
-1.948370402332984
 20
7.956190878857345
 30
0.0
 10
-0.912586012745745
 20
8.633859082867229
 30
0.0
 10
0.1767537853242027
 20
9.311527286876792
 30
0.0
 10
1.26609358339415
 20
9.989195490886356
 30
0.0
 10
2.408988789946486
 20
10.66686369489624
 30
0.0
 10
3.601807322757179
 20
11.33394333321835
 30
0.0
 10
4.794625855567872
 20
12.00102297154046
 30
0.0
 10
6.037367714636922
 20
12.65751404417511
 30
0.0
 10
7.326400817739978
 20
13.29282798543422
 30
0.0
 10
8.615433920843035
 20
13.92814192669333
 30
0.0
 10
9.950758267980419
 20
14.5422787365772
 30
0.0
 10
11.32874177692746
 20
15.12464984939808
 30
0.0
 10
12.70672528587449
 20
15.70702096221895
 30
0.0
 10
14.12736795663119
 20
16.25762637797714
 30
0.0
 10
15.58703770697383
 20
16.76587753098423
 30
0.0
 10
17.04670745731647
 20
17.27412868399133
 30
0.0
 10
18.54540428724473
 20
17.74002557424828
 30
0.0
 10
20.07949611453459
 20
18.15297963606669
 30
0.0
 10
21.61358794182412
 20
18.56593369788509
 30
0.0
 10
23.18307476647525
 20
18.92594493126558
 30
0.0
 10
24.78432450626394
 20
19.22242477051974
 30
0.0
 10
26.38557424605232
 20
19.51890460977391
 30
0.0
 10
28.01858690097793
 20
19.75185305490239
 30
0.0
 10
29.67973038881644
 20
19.9106815402174
 30
0.0
 10
31.34087387665527
 20
20.0695100255321
 30
0.0
 10
33.03014819740699
 20
20.15421855103333
 30
0.0
 10
34.74392126884756
 20
20.15421855103333
 30
0.0
 10
36.45769434028815
 20
20.15421855103333
 30
0.0
 10
38.11096119491115
 20
20.0695100255321
 30
0.0
 10
39.70459068375859
 20
19.9106815402174
 30
0.0
 10
41.2982201726057
 20
19.75185305490239
 30
0.0
 10
42.83221229567759
 20
19.51890460977391
 30
0.0
 10
44.3074359040156
 20
19.22242477051974
 30
0.0
 10
45.78265951235362
 20
18.92594493126558
 30
0.0
 10
47.19911460595809
 20
18.56593369788509
 30
0.0
 10
48.5576700358704
 20
18.15297963606669
 30
0.0
 10
49.91622546578303
 20
17.74002557424828
 30
0.0
 10
51.21688123200349
 20
17.27412868399133
 30
0.0
 10
52.46050618557414
 20
16.76587753098423
 30
0.0
 10
53.70413113914478
 20
16.25762637797714
 30
0.0
 10
54.8907252800656
 20
15.70702096221895
 30
0.0
 10
56.02115745937798
 20
15.12464984939808
 30
0.0
 10
57.15158963869035
 20
14.5422787365772
 30
0.0
 10
58.22585985639492
 20
13.92814192669333
 30
0.0
 10
59.24483696353274
 20
13.29282798543422
 30
0.0
 10
60.26381407067056
 20
12.65751404417511
 30
0.0
 10
61.2274980672426
 20
12.00102297154046
 30
0.0
 10
62.13675780428991
 20
11.33394333321835
 30
0.0
 10
63.04601754133754
 20
10.66686369489624
 30
0.0
 10
63.90085301886045
 20
9.989195490886356
 30
0.0
 10
64.70213308790096
 20
9.311527286876792
 30
0.0
 10
65.50341315694148
 20
8.633859082867229
 30
0.0
 10
66.2511378174996
 20
7.956190878857345
 30
0.0
 10
66.94617592061671
 20
7.289111240535235
 30
0.0
 10
67.64121402373384
 20
6.622031602213125
 30
0.0
 10
68.28356556941122
 20
5.96554052957847
 30
0.0
 10
68.87409940868898
 20
5.330226588319364
 30
0.0
 10
69.46463324796673
 20
4.694912647060258
 30
0.0
 10
70.00334938084615
 20
4.080775837176381
 30
0.0
 10
70.49111665836794
 20
3.498404724355507
 30
0.0
 10
70.97888393589038
 20
2.916033611534633
 30
0.0
 10
71.41570235805584
 20
2.365428195776441
 30
0.0
 10
71.80244077590635
 20
1.857177042769349
 30
0.0
 10
72.18917919375687
 20
1.348925889762257
 30
0.0
 10
72.52583760729179
 20
0.8830289995053008
 30
0.0
 10
72.81328486755442
 20
0.470074937686898
 30
0.0
 10
73.1007321278164
 20
0.0571208758684951
 30
0.0
 10
73.33896823480546
 20
-0.3028903575119966
 30
0.0
 10
73.52886203956297
 20
-0.5993701967661604
 30
0.0
 10
73.71875584432046
 20
-0.8958500360203244
 30
0.0
 10
73.86030734684705
 20
-1.128798481148802
 30
0.0
 10
73.9543853981841
 20
-1.287626966463819
 30
0.0
 10
74.04846344952115
 20
-1.446455451778516
 30
0.0
 10
74.09506804966867
 20
-1.531163977279751
 30
0.0
 10
74.09506804966867
 20
-1.531163977279751
 30
0.0
  0
POLYLINE
  5
44
330
1F
100
AcDbEntity
  8
TPLACE
 62
   250
100
AcDb2dPolyline
 66
     1
 10
0.0
 20
0.0
 30
0.0
  0
VERTEX
  5
45
330
44
100
AcDbEntity
  8
TPLACE
 62
   250
100
AcDbVertex
100
AcDb2dVertex
 10
34.74861110242396
 20
5.115277776498958
 30
0.0
  0
VERTEX
  5
46
330
44
100
AcDbEntity
  8
TPLACE
 62
   250
100
AcDbVertex
100
AcDb2dVertex
 10
40.5347897672787
 20
-5.399705085721256
 30
0.0
  0
VERTEX
  5
47
330
44
100
AcDbEntity
  8
TPLACE
 62
   250
100
AcDbVertex
100
AcDb2dVertex
 10
28.37009494892548
 20
-5.399705085721256
 30
0.0
  0
VERTEX
  5
48
330
44
100
AcDbEntity
  8
TPLACE
 62
   250
100
AcDbVertex
100
AcDb2dVertex
 10
34.74861110242396
 20
5.115277776498958
 30
0.0
  0
SEQEND
  5
49
330
44
100
AcDbEntity
  8
TPLACE
 62
   250
  0
SPLINE
  5
4A
330
1F
100
AcDbEntity
  8
TPLACE
 62
   250
100
AcDbSpline
210
0.0
220
0.0
230
1.0
 70
    11
 71
     3
 72
   101
 73
    97
 74
     0
 42
0.0000000001
 43
0.0000000001
 12
1.0
 22
0.0
 32
0.0
 13
1.0
 23
0.0
 33
0.0
 40
0.0
 40
0.0
 40
0.0
 40
0.0
 40
1.0
 40
1.0
 40
1.0
 40
2.0
 40
2.0
 40
2.0
 40
3.0
 40
3.0
 40
3.0
 40
4.0
 40
4.0
 40
4.0
 40
5.0
 40
5.0
 40
5.0
 40
6.0
 40
6.0
 40
6.0
 40
7.0
 40
7.0
 40
7.0
 40
8.0
 40
8.0
 40
8.0
 40
9.0
 40
9.0
 40
9.0
 40
10.0
 40
10.0
 40
10.0
 40
11.0
 40
11.0
 40
11.0
 40
12.0
 40
12.0
 40
12.0
 40
13.0
 40
13.0
 40
13.0
 40
14.0
 40
14.0
 40
14.0
 40
15.0
 40
15.0
 40
15.0
 40
16.0
 40
16.0
 40
16.0
 40
17.0
 40
17.0
 40
17.0
 40
18.0
 40
18.0
 40
18.0
 40
19.0
 40
19.0
 40
19.0
 40
20.0
 40
20.0
 40
20.0
 40
21.0
 40
21.0
 40
21.0
 40
22.0
 40
22.0
 40
22.0
 40
23.0
 40
23.0
 40
23.0
 40
24.0
 40
24.0
 40
24.0
 40
25.0
 40
25.0
 40
25.0
 40
26.0
 40
26.0
 40
26.0
 40
27.0
 40
27.0
 40
27.0
 40
28.0
 40
28.0
 40
28.0
 40
29.0
 40
29.0
 40
29.0
 40
30.0
 40
30.0
 40
30.0
 40
31.0
 40
31.0
 40
31.0
 40
32.0
 40
32.0
 40
32.0
 40
32.0
 10
52.273712995377
 20
-1.439869880952726
 30
0.0
 10
52.273712995377
 20
-2.652968505443686
 30
0.0
 10
52.15078665294727
 20
-3.837356144302959
 30
0.0
 10
51.91671088768762
 20
-4.98125587793075
 30
0.0
 10
51.68263512242797
 20
-6.125155611558863
 30
0.0
 10
51.33740993433807
 20
-7.228567439955173
 30
0.0
 10
50.89281224301804
 20
-8.279714443520527
 30
0.0
 10
50.448214551698
 20
-9.33086144708588
 30
0.0
 10
49.90424435714783
 20
-10.32974362582028
 30
0.0
 10
49.27267857896732
 20
-11.26458406012361
 30
0.0
 10
48.64111280078649
 20
-12.19942449442694
 30
0.0
 10
47.92195143897565
 20
-13.07022318429919
 30
0.0
 10
47.12697141313361
 20
-13.86520321014122
 30
0.0
 10
46.33199138729158
 20
-14.66018323598326
 30
0.0
 10
45.46119269741932
 20
-15.37934459779411
 30
0.0
 10
44.526352263116
 20
-16.01091037597493
 30
0.0
 10
43.59151182881267
 20
-16.64247615415544
 30
0.0
 10
42.59262965007827
 20
-17.18644634870561
 30
0.0
 10
41.54148264651292
 20
-17.63104404002564
 30
0.0
 10
40.49033564294756
 20
-18.07564173134568
 30
0.0
 10
39.38692381455125
 20
-18.42086691943558
 30
0.0
 10
38.24302408092314
 20
-18.65494268469523
 30
0.0
 10
37.09912434729535
 20
-18.88901844995488
 30
0.0
 10
35.91473670843607
 20
-19.0119447923846
 30
0.0
 10
34.70163808394511
 20
-19.0119447923846
 30
0.0
 10
33.48853945945415
 20
-19.0119447923846
 30
0.0
 10
32.30415182059488
 20
-18.88901844995488
 30
0.0
 10
31.16025208696709
 20
-18.65494268469523
 30
0.0
 10
30.01635235333898
 20
-18.42086691943558
 30
0.0
 10
28.91294052494267
 20
-18.07564173134568
 30
0.0
 10
27.86179352137732
 20
-17.63104404002564
 30
0.0
 10
26.81064651781196
 20
-17.18644634870561
 30
0.0
 10
25.81176433907756
 20
-16.64247615415544
 30
0.0
 10
24.87692390477423
 20
-16.01091037597493
 30
0.0
 10
23.94208347047091
 20
-15.37934459779411
 30
0.0
 10
23.07128478059865
 20
-14.66018323598326
 30
0.0
 10
22.27630475475662
 20
-13.86520321014122
 30
0.0
 10
21.48132472891458
 20
-13.07022318429919
 30
0.0
 10
20.76216336710374
 20
-12.19942449442694
 30
0.0
 10
20.13059758892291
 20
-11.26458406012361
 30
0.0
 10
19.4990318107424
 20
-10.32974362582028
 30
0.0
 10
18.95506161619223
 20
-9.33086144708588
 30
0.0
 10
18.5104639248722
 20
-8.279714443520527
 30
0.0
 10
18.06586623355216
 20
-7.228567439955173
 30
0.0
 10
17.72064104546226
 20
-6.125155611558863
 30
0.0
 10
17.48656528020261
 20
-4.98125587793075
 30
0.0
 10
17.25248951494296
 20
-3.837356144302959
 30
0.0
 10
17.12956317251324
 20
-2.652968505443686
 30
0.0
 10
17.12956317251324
 20
-1.439869880952726
 30
0.0
 10
17.12956317251324
 20
-0.226771256461766
 30
0.0
 10
17.25248951494296
 20
0.957616382397507
 30
0.0
 10
17.48656528020261
 20
2.101516116025298
 30
0.0
 10
17.72064104546226
 20
3.245415849653411
 30
0.0
 10
18.06586623355216
 20
4.34882767804972
 30
0.0
 10
18.5104639248722
 20
5.399974681615074
 30
0.0
 10
18.95506161619223
 20
6.451121685180428
 30
0.0
 10
19.4990318107424
 20
7.450003863914827
 30
0.0
 10
20.13059758892291
 20
8.384844298218155
 30
0.0
 10
20.76216336710374
 20
9.319684732521482
 30
0.0
 10
21.48132472891458
 20
10.19048342239374
 30
0.0
 10
22.27630475475662
 20
10.98546344823577
 30
0.0
 10
23.07128478059865
 20
11.78044347407781
 30
0.0
 10
23.94208347047091
 20
12.49960483588865
 30
0.0
 10
24.87692390477423
 20
13.13117061406948
 30
0.0
 10
25.81176433907756
 20
13.76273639224999
 30
0.0
 10
26.81064651781196
 20
14.30670658680016
 30
0.0
 10
27.86179352137732
 20
14.75130427812019
 30
0.0
 10
28.91294052494267
 20
15.19590196944023
 30
0.0
 10
30.01635235333898
 20
15.54112715753013
 30
0.0
 10
31.16025208696709
 20
15.77520292278978
 30
0.0
 10
32.30415182059488
 20
16.00927868804943
 30
0.0
 10
33.48853945945415
 20
16.13220503047915
 30
0.0
 10
34.70163808394511
 20
16.13220503047915
 30
0.0
 10
35.91473670843607
 20
16.13220503047915
 30
0.0
 10
37.09912434729535
 20
16.00927868804943
 30
0.0
 10
38.24302408092314
 20
15.77520292278978
 30
0.0
 10
39.38692381455125
 20
15.54112715753013
 30
0.0
 10
40.49033564294756
 20
15.19590196944023
 30
0.0
 10
41.54148264651292
 20
14.75130427812019
 30
0.0
 10
42.59262965007827
 20
14.30670658680016
 30
0.0
 10
43.59151182881267
 20
13.76273639224999
 30
0.0
 10
44.526352263116
 20
13.13117061406948
 30
0.0
 10
45.46119269741932
 20
12.49960483588865
 30
0.0
 10
46.33199138729158
 20
11.78044347407781
 30
0.0
 10
47.12697141313361
 20
10.98546344823577
 30
0.0
 10
47.92195143897565
 20
10.19048342239374
 30
0.0
 10
48.64111280078649
 20
9.319684732521482
 30
0.0
 10
49.27267857896732
 20
8.384844298218155
 30
0.0
 10
49.90424435714783
 20
7.450003863914827
 30
0.0
 10
50.448214551698
 20
6.451121685180428
 30
0.0
 10
50.89281224301804
 20
5.399974681615074
 30
0.0
 10
51.33740993433807
 20
4.34882767804972
 30
0.0
 10
51.68263512242797
 20
3.245415849653411
 30
0.0
 10
51.91671088768762
 20
2.101516116025298
 30
0.0
 10
52.15078665294727
 20
0.957616382397507
 30
0.0
 10
52.273712995377
 20
-0.226771256461766
 30
0.0
 10
52.273712995377
 20
-1.439869880952726
 30
0.0
  0
POLYLINE
  5
4B
330
1F
100
AcDbEntity
  8
TPLACE
 62
   250
100
AcDb2dPolyline
 66
     1
 10
0.0
 20
0.0
 30
0.0
  0
VERTEX
  5
4C
330
4B
100
AcDbEntity
  8
TPLACE
 62
   250
100
AcDbVertex
100
AcDb2dVertex
 10
34.70163808394511
 20
18.42789138564966
 30
0.0
  0
VERTEX
  5
C9
330
4B
100
AcDbEntity
  8
0
100
AcDbVertex
100
AcDb2dVertex
 10
34.70163808394511
 20
18.42789138564966
 30
0.0
  0
SEQEND
  5
4D
330
4B
100
AcDbEntity
  8
TPLACE
 62
   250
  0
POLYLINE
  5
4E
330
1F
100
AcDbEntity
  8
TPLACE
 62
   250
100
AcDb2dPolyline
 66
     1
 10
0.0
 20
0.0
 30
0.0
  0
VERTEX
  5
4F
330
4E
100
AcDbEntity
  8
TPLACE
 62
   250
100
AcDbVertex
100
AcDb2dVertex
 10
34.70163808394511
 20
-5.399702915555425
 30
0.0
  0
VERTEX
  5
50
330
4E
100
AcDbEntity
  8
TPLACE
 62
   250
100
AcDbVertex
100
AcDb2dVertex
 10
34.70163808394511
 20
-12.20582385397002
 30
0.0
  0
VERTEX
  5
51
330
4E
100
AcDbEntity
  8
TPLACE
 62
   250
100
AcDbVertex
100
AcDb2dVertex
 10
34.70163808394511
 20
-19.0119447923846
 30
0.0
  0
SEQEND
  5
52
330
4E
100
AcDbEntity
  8
TPLACE
 62
   250
  0
POLYLINE
  5
53
330
1F
100
AcDbEntity
  8
TPLACE
 62
   250
100
AcDb2dPolyline
 66
     1
 10
0.0
 20
0.0
 30
0.0
  0
VERTEX
  5
54
330
53
100
AcDbEntity
  8
TPLACE
 62
   250
100
AcDbVertex
100
AcDb2dVertex
 10
34.70163808394511
 20
16.13220503047915
 30
0.0
  0
VERTEX
  5
55
330
53
100
AcDbEntity
  8
TPLACE
 62
   250
100
AcDbVertex
100
AcDb2dVertex
 10
34.70163808394511
 20
10.4742787202268
 30
0.0
  0
VERTEX
  5
56
330
53
100
AcDbEntity
  8
TPLACE
 62
   250
100
AcDbVertex
100
AcDb2dVertex
 10
34.70163808394511
 20
4.816352409974446
 30
0.0
  0
SEQEND
  5
57
330
53
100
AcDbEntity
  8
TPLACE
 62
   250
  0
POLYLINE
  5
58
330
1F
100
AcDbEntity
  8
TPLACE
 62
   250
100
AcDb2dPolyline
 66
     1
 10
0.0
 20
0.0
 30
0.0
  0
VERTEX
  5
59
330
58
100
AcDbEntity
  8
TPLACE
 62
   250
100
AcDbVertex
100
AcDb2dVertex
 10
28.5854922637077
 20
-5.264853527982534
 30
0.0
  0
VERTEX
  5
5A
330
58
100
AcDbEntity
  8
TPLACE
 62
   250
100
AcDbVertex
100
AcDb2dVertex
 10
24.07966520971607
 20
-7.931160748108916
 30
0.0
  0
VERTEX
  5
5B
330
58
100
AcDbEntity
  8
TPLACE
 62
   250
100
AcDbVertex
100
AcDb2dVertex
 10
19.57383815572445
 20
-10.5974679682353
 30
0.0
  0
SEQEND
  5
5C
330
58
100
AcDbEntity
  8
TPLACE
 62
   250
  0
POLYLINE
  5
5D
330
1F
100
AcDbEntity
  8
TPLACE
 62
   250
100
AcDb2dPolyline
 66
     1
 10
0.0
 20
0.0
 30
0.0
  0
VERTEX
  5
5E
330
5D
100
AcDbEntity
  8
TPLACE
 62
   250
100
AcDbVertex
100
AcDb2dVertex
 10
49.80007989193194
 20
7.288803655780427
 30
0.0
  0
VERTEX
  5
5F
330
5D
100
AcDbEntity
  8
TPLACE
 62
   250
100
AcDbVertex
100
AcDb2dVertex
 10
43.6845032043277
 20
3.669932784349887
 30
0.0
  0
VERTEX
  5
60
330
5D
100
AcDbEntity
  8
TPLACE
 62
   250
100
AcDbVertex
100
AcDb2dVertex
 10
37.56892651672345
 20
0.051061912919348
 30
0.0
  0
SEQEND
  5
61
330
5D
100
AcDbEntity
  8
TPLACE
 62
   250
  0
POLYLINE
  5
62
330
1F
100
AcDbEntity
  8
TPLACE
 62
   250
100
AcDb2dPolyline
 66
     1
 10
0.0
 20
0.0
 30
0.0
  0
VERTEX
  5
63
330
62
100
AcDbEntity
  8
TPLACE
 62
   250
100
AcDbVertex
100
AcDb2dVertex
 10
40.43686395991633
 20
-5.251374996413301
 30
0.0
  0
VERTEX
  5
64
330
62
100
AcDbEntity
  8
TPLACE
 62
   250
100
AcDbVertex
100
AcDb2dVertex
 10
45.06816251576738
 20
-7.925774044337244
 30
0.0
  0
VERTEX
  5
65
330
62
100
AcDbEntity
  8
TPLACE
 62
   250
100
AcDbVertex
100
AcDb2dVertex
 10
49.69946107161842
 20
-10.60017309226119
 30
0.0
  0
SEQEND
  5
66
330
62
100
AcDbEntity
  8
TPLACE
 62
   250
  0
POLYLINE
  5
67
330
1F
100
AcDbEntity
  8
TPLACE
 62
   250
100
AcDb2dPolyline
 66
     1
 10
0.0
 20
0.0
 30
0.0
  0
VERTEX
  5
68
330
67
100
AcDbEntity
  8
TPLACE
 62
   250
100
AcDbVertex
100
AcDb2dVertex
 10
19.33175172415116
 20
6.936025878090843
 30
0.0
  0
VERTEX
  5
69
330
67
100
AcDbEntity
  8
TPLACE
 62
   250
100
AcDbVertex
100
AcDb2dVertex
 10
25.53322010120598
 20
3.354913383761381
 30
0.0
  0
VERTEX
  5
6A
330
67
100
AcDbEntity
  8
TPLACE
 62
   250
100
AcDbVertex
100
AcDb2dVertex
 10
31.73468847826079
 20
-0.2261991105680819
 30
0.0
  0
SEQEND
  5
6B
330
67
100
AcDbEntity
  8
TPLACE
 62
   250
  0
POLYLINE
  5
6C
330
1F
100
AcDbEntity
  8
TPLACE
 62
   250
100
AcDb2dPolyline
 66
     1
 10
0.0
 20
0.0
 30
0.0
  0
VERTEX
  5
6D
330
6C
100
AcDbEntity
  8
TPLACE
 62
   250
100
AcDbVertex
100
AcDb2dVertex
 10
33.6471660791277
 20
-5.399704514308796
 30
0.0
  0
VERTEX
  5
6E
330
6C
100
AcDbEntity
  8
TPLACE
 62
   250
100
AcDbVertex
100
AcDb2dVertex
 10
31.89723881908348
 20
-11.93052195853885
 30
0.0
  0
VERTEX
  5
6F
330
6C
100
AcDbEntity
  8
TPLACE
 62
   250
100
AcDbVertex
100
AcDb2dVertex
 10
30.14731155903926
 20
-18.46133940276891
 30
0.0
  0
SEQEND
  5
70
330
6C
100
AcDbEntity
  8
TPLACE
 62
   250
  0
POLYLINE
  5
71
330
1F
100
AcDbEntity
  8
TPLACE
 62
   250
100
AcDb2dPolyline
 66
     1
 10
0.0
 20
0.0
 30
0.0
  0
VERTEX
  5
72
330
71
100
AcDbEntity
  8
TPLACE
 62
   250
100
AcDbVertex
100
AcDb2dVertex
 10
39.24328685687875
 20
15.4853025541759
 30
0.0
  0
VERTEX
  5
73
330
71
100
AcDbEntity
  8
TPLACE
 62
   250
100
AcDbVertex
100
AcDb2dVertex
 10
37.56892729150831
 20
9.236507585887283
 30
0.0
  0
VERTEX
  5
74
330
71
100
AcDbEntity
  8
TPLACE
 62
   250
100
AcDbVertex
100
AcDb2dVertex
 10
35.89456772613786
 20
2.987712617598668
 30
0.0
  0
SEQEND
  5
75
330
71
100
AcDbEntity
  8
TPLACE
 62
   250
  0
POLYLINE
  5
76
330
1F
100
AcDbEntity
  8
TPLACE
 62
   250
100
AcDb2dPolyline
 66
     1
 10
0.0
 20
0.0
 30
0.0
  0
VERTEX
  5
77
330
76
100
AcDbEntity
  8
TPLACE
 62
   250
100
AcDbVertex
100
AcDb2dVertex
 10
37.99449371635451
 20
-5.399706924380872
 30
0.0
  0
VERTEX
  5
78
330
76
100
AcDbEntity
  8
TPLACE
 62
   250
100
AcDbVertex
100
AcDb2dVertex
 10
42.40285827815681
 20
-9.808810510657414
 30
0.0
  0
VERTEX
  5
79
330
76
100
AcDbEntity
  8
TPLACE
 62
   250
100
AcDbVertex
100
AcDb2dVertex
 10
46.8112228399591
 20
-14.21791409693396
 30
0.0
  0
SEQEND
  5
7A
330
76
100
AcDbEntity
  8
TPLACE
 62
   250
  0
POLYLINE
  5
7B
330
1F
100
AcDbEntity
  8
TPLACE
 62
   250
100
AcDb2dPolyline
 66
     1
 10
0.0
 20
0.0
 30
0.0
  0
VERTEX
  5
7C
330
7B
100
AcDbEntity
  8
TPLACE
 62
   250
100
AcDbVertex
100
AcDb2dVertex
 10
22.01697036804945
 20
10.58049491855009
 30
0.0
  0
VERTEX
  5
7D
330
7B
100
AcDbEntity
  8
TPLACE
 62
   250
100
AcDbVertex
100
AcDb2dVertex
 10
27.07648519992636
 20
5.520131902446453
 30
0.0
  0
VERTEX
  5
7E
330
7B
100
AcDbEntity
  8
TPLACE
 62
   250
100
AcDbVertex
100
AcDb2dVertex
 10
32.13600003180328
 20
0.4597688863428203
 30
0.0
  0
SEQEND
  5
7F
330
7B
100
AcDbEntity
  8
TPLACE
 62
   250
  0
POLYLINE
  5
80
330
1F
100
AcDbEntity
  8
TPLACE
 62
   250
100
AcDb2dPolyline
 66
     1
 10
0.0
 20
0.0
 30
0.0
  0
VERTEX
  5
81
330
80
100
AcDbEntity
  8
TPLACE
 62
   250
100
AcDbVertex
100
AcDb2dVertex
 10
32.46932558661487
 20
-5.399702350792891
 30
0.0
  0
VERTEX
  5
82
330
80
100
AcDbEntity
  8
TPLACE
 62
   250
100
AcDbVertex
100
AcDb2dVertex
 10
29.18450279635547
 20
-11.089182317579
 30
0.0
  0
VERTEX
  5
83
330
80
100
AcDbEntity
  8
TPLACE
 62
   250
100
AcDbVertex
100
AcDb2dVertex
 10
25.89968000609607
 20
-16.77866228436512
 30
0.0
  0
SEQEND
  5
84
330
80
100
AcDbEntity
  8
TPLACE
 62
   250
  0
POLYLINE
  5
85
330
1F
100
AcDbEntity
  8
TPLACE
 62
   250
100
AcDb2dPolyline
 66
     1
 10
0.0
 20
0.0
 30
0.0
  0
VERTEX
  5
86
330
85
100
AcDbEntity
  8
TPLACE
 62
   250
100
AcDbVertex
100
AcDb2dVertex
 10
43.47175491707299
 20
13.65706425690501
 30
0.0
  0
VERTEX
  5
87
330
85
100
AcDbEntity
  8
TPLACE
 62
   250
100
AcDbVertex
100
AcDb2dVertex
 10
40.02929535643155
 20
7.694549394666832
 30
0.0
  0
VERTEX
  5
88
330
85
100
AcDbEntity
  8
TPLACE
 62
   250
100
AcDbVertex
100
AcDb2dVertex
 10
36.58683579579012
 20
1.732034532428656
 30
0.0
  0
SEQEND
  5
89
330
85
100
AcDbEntity
  8
TPLACE
 62
   250
  0
POLYLINE
  5
8A
330
1F
100
AcDbEntity
  8
TPLACE
 62
   250
100
AcDb2dPolyline
 66
     1
 10
0.0
 20
0.0
 30
0.0
  0
VERTEX
  5
8B
330
8A
100
AcDbEntity
  8
TPLACE
 62
   250
100
AcDbVertex
100
AcDb2dVertex
 10
36.60573577239969
 20
-5.399702530821557
 30
0.0
  0
VERTEX
  5
8C
330
8A
100
AcDbEntity
  8
TPLACE
 62
   250
100
AcDbVertex
100
AcDb2dVertex
 10
39.84989866867418
 20
-11.01984527396731
 30
0.0
  0
VERTEX
  5
8D
330
8A
100
AcDbEntity
  8
TPLACE
 62
   250
100
AcDbVertex
100
AcDb2dVertex
 10
43.09406156494867
 20
-16.63998801711306
 30
0.0
  0
SEQEND
  5
8E
330
8A
100
AcDbEntity
  8
TPLACE
 62
   250
  0
POLYLINE
  5
8F
330
1F
100
AcDbEntity
  8
TPLACE
 62
   250
100
AcDb2dPolyline
 66
     1
 10
0.0
 20
0.0
 30
0.0
  0
VERTEX
  5
90
330
8F
100
AcDbEntity
  8
TPLACE
 62
   250
100
AcDbVertex
100
AcDb2dVertex
 10
25.5629533000213
 20
13.73066045050207
 30
0.0
  0
VERTEX
  5
91
330
8F
100
AcDbEntity
  8
TPLACE
 62
   250
100
AcDbVertex
100
AcDb2dVertex
 10
29.1232104154043
 20
7.56292047242334
 30
0.0
  0
VERTEX
  5
92
330
8F
100
AcDbEntity
  8
TPLACE
 62
   250
100
AcDbVertex
100
AcDb2dVertex
 10
32.6834675307873
 20
1.395180494344611
 30
0.0
  0
SEQEND
  5
93
330
8F
100
AcDbEntity
  8
TPLACE
 62
   250
  0
POLYLINE
  5
94
330
1F
100
AcDbEntity
  8
TPLACE
 62
   250
100
AcDb2dPolyline
 66
     1
 10
0.0
 20
0.0
 30
0.0
  0
VERTEX
  5
95
330
94
100
AcDbEntity
  8
TPLACE
 62
   250
100
AcDbVertex
100
AcDb2dVertex
 10
30.91600859188547
 20
-5.39970141688721
 30
0.0
  0
VERTEX
  5
96
330
94
100
AcDbEntity
  8
TPLACE
 62
   250
100
AcDbVertex
100
AcDb2dVertex
 10
26.59918145764031
 20
-9.71652855132649
 30
0.0
  0
VERTEX
  5
97
330
94
100
AcDbEntity
  8
TPLACE
 62
   250
100
AcDbVertex
100
AcDb2dVertex
 10
22.28235432339514
 20
-14.03335568576577
 30
0.0
  0
SEQEND
  5
98
330
94
100
AcDbEntity
  8
TPLACE
 62
   250
  0
POLYLINE
  5
99
330
1F
100
AcDbEntity
  8
TPLACE
 62
   250
100
AcDb2dPolyline
 66
     1
 10
0.0
 20
0.0
 30
0.0
  0
VERTEX
  5
9A
330
99
100
AcDbEntity
  8
TPLACE
 62
   250
100
AcDbVertex
100
AcDb2dVertex
 10
47.13302098162134
 20
10.8173109735757
 30
0.0
  0
VERTEX
  5
9B
330
99
100
AcDbEntity
  8
TPLACE
 62
   250
100
AcDbVertex
100
AcDb2dVertex
 10
42.11952106710884
 20
5.803811058838288
 30
0.0
  0
VERTEX
  5
9C
330
99
100
AcDbEntity
  8
TPLACE
 62
   250
100
AcDbVertex
100
AcDb2dVertex
 10
37.10602115259634
 20
0.7903111441008756
 30
0.0
  0
SEQEND
  5
9D
330
99
100
AcDbEntity
  8
TPLACE
 62
   250
  0
POLYLINE
  5
9E
330
1F
100
AcDbEntity
  8
TPLACE
 62
   250
100
AcDb2dPolyline
 66
     1
 10
0.0
 20
0.0
 30
0.0
  0
VERTEX
  5
9F
330
9E
100
AcDbEntity
  8
TPLACE
 62
   250
100
AcDbVertex
100
AcDb2dVertex
 10
35.72267375079744
 20
-5.399705085721256
 30
0.0
  0
VERTEX
  5
A0
330
9E
100
AcDbEntity
  8
TPLACE
 62
   250
100
AcDbVertex
100
AcDb2dVertex
 10
37.45544450027828
 20
-11.86866226004773
 30
0.0
  0
VERTEX
  5
A1
330
9E
100
AcDbEntity
  8
TPLACE
 62
   250
100
AcDbVertex
100
AcDb2dVertex
 10
39.18821524975912
 20
-18.33761943437419
 30
0.0
  0
SEQEND
  5
A2
330
9E
100
AcDbEntity
  8
TPLACE
 62
   250
  0
POLYLINE
  5
A3
330
1F
100
AcDbEntity
  8
TPLACE
 62
   250
100
AcDb2dPolyline
 66
     1
 10
0.0
 20
0.0
 30
0.0
  0
VERTEX
  5
A4
330
A3
100
AcDbEntity
  8
TPLACE
 62
   250
100
AcDbVertex
100
AcDb2dVertex
 10
30.1149672484756
 20
15.53555898229137
 30
0.0
  0
VERTEX
  5
A5
330
A3
100
AcDbEntity
  8
TPLACE
 62
   250
100
AcDbVertex
100
AcDb2dVertex
 10
31.81739121931959
 20
9.179895509074179
 30
0.0
  0
VERTEX
  5
A6
330
A3
100
AcDbEntity
  8
TPLACE
 62
   250
100
AcDbVertex
100
AcDb2dVertex
 10
33.51981519016357
 20
2.824232035856987
 30
0.0
  0
SEQEND
  5
A7
330
A3
100
AcDbEntity
  8
TPLACE
 62
   250
  0
POLYLINE
  5
A8
330
1F
100
AcDbEntity
  8
TPLACE
 62
   250
100
AcDb2dPolyline
 66
     1
 10
0.0
 20
0.0
 30
0.0
  0
VERTEX
  5
A9
330
A8
100
AcDbEntity
  8
TPLACE
 62
   250
100
AcDbVertex
100
AcDb2dVertex
 10
39.27147806436693
 20
-3.137501481237332
 30
0.0
  0
VERTEX
  5
AA
330
A8
100
AcDbEntity
  8
TPLACE
 62
   250
100
AcDbVertex
100
AcDb2dVertex
 10
51.40784642256012
 20
-6.39052183148597
 30
0.0
  0
SEQEND
  5
AB
330
A8
100
AcDbEntity
  8
TPLACE
 62
   250
  0
POLYLINE
  5
AC
330
1F
100
AcDbEntity
  8
TPLACE
 62
   250
100
AcDb2dPolyline
 66
     1
 10
0.0
 20
0.0
 30
0.0
  0
VERTEX
  5
AD
330
AC
100
AcDbEntity
  8
TPLACE
 62
   250
100
AcDbVertex
100
AcDb2dVertex
 10
17.53618940643554
 20
2.688404113911642
 30
0.0
  0
VERTEX
  5
AE
330
AC
100
AcDbEntity
  8
TPLACE
 62
   250
100
AcDbVertex
100
AcDb2dVertex
 10
24.40995579872926
 20
0.8459664672414432
 30
0.0
  0
VERTEX
  5
AF
330
AC
100
AcDbEntity
  8
TPLACE
 62
   250
100
AcDbVertex
100
AcDb2dVertex
 10
31.28372219102298
 20
-0.9964711794287551
 30
0.0
  0
SEQEND
  5
B0
330
AC
100
AcDbEntity
  8
TPLACE
 62
   250
  0
POLYLINE
  5
B1
330
1F
100
AcDbEntity
  8
TPLACE
 62
   250
100
AcDb2dPolyline
 66
     1
 10
0.0
 20
0.0
 30
0.0
  0
VERTEX
  5
B2
330
B1
100
AcDbEntity
  8
TPLACE
 62
   250
100
AcDbVertex
100
AcDb2dVertex
 10
38.56457731629119
 20
-1.855654402774159
 30
0.0
  0
VERTEX
  5
B3
330
B1
100
AcDbEntity
  8
TPLACE
 62
   250
100
AcDbVertex
100
AcDb2dVertex
 10
45.26898410796441
 20
-1.8562163239454
 30
0.0
  0
VERTEX
  5
B4
330
B1
100
AcDbEntity
  8
TPLACE
 62
   250
100
AcDbVertex
100
AcDb2dVertex
 10
51.97339089963763
 20
-1.856778245116641
 30
0.0
  0
SEQEND
  5
B5
330
B1
100
AcDbEntity
  8
TPLACE
 62
   250
  0
POLYLINE
  5
B6
330
1F
100
AcDbEntity
  8
TPLACE
 62
   250
100
AcDb2dPolyline
 66
     1
 10
0.0
 20
0.0
 30
0.0
  0
VERTEX
  5
B7
330
B6
100
AcDbEntity
  8
TPLACE
 62
   250
100
AcDbVertex
100
AcDb2dVertex
 10
16.90608366481385
 20
-1.853839124182042
 30
0.0
  0
VERTEX
  5
B8
330
B6
100
AcDbEntity
  8
TPLACE
 62
   250
100
AcDbVertex
100
AcDb2dVertex
 10
23.84987165172397
 20
-1.854421108778016
 30
0.0
  0
VERTEX
  5
B9
330
B6
100
AcDbEntity
  8
TPLACE
 62
   250
100
AcDbVertex
100
AcDb2dVertex
 10
30.7936596386341
 20
-1.85500309337399
 30
0.0
  0
SEQEND
  5
BA
330
B6
100
AcDbEntity
  8
TPLACE
 62
   250
  0
POLYLINE
  5
BB
330
1F
100
AcDbEntity
  8
TPLACE
 62
   250
100
AcDb2dPolyline
 66
     1
 10
0.0
 20
0.0
 30
0.0
  0
VERTEX
  5
BC
330
BB
100
AcDbEntity
  8
TPLACE
 62
   250
100
AcDbVertex
100
AcDb2dVertex
 10
38.07809868037707
 20
-0.972910842074752
 30
0.0
  0
VERTEX
  5
BD
330
BB
100
AcDbEntity
  8
TPLACE
 62
   250
100
AcDbVertex
100
AcDb2dVertex
 10
44.8950721454972
 20
0.853079329123945
 30
0.0
  0
VERTEX
  5
BE
330
BB
100
AcDbEntity
  8
TPLACE
 62
   250
100
AcDbVertex
100
AcDb2dVertex
 10
51.71204561061733
 20
2.679069500322642
 30
0.0
  0
SEQEND
  5
BF
330
BB
100
AcDbEntity
  8
TPLACE
 62
   250
  0
POLYLINE
  5
C0
330
1F
100
AcDbEntity
  8
TPLACE
 62
   250
100
AcDb2dPolyline
 66
     1
 10
0.0
 20
0.0
 30
0.0
  0
VERTEX
  5
C1
330
C0
100
AcDbEntity
  8
TPLACE
 62
   250
100
AcDbVertex
100
AcDb2dVertex
 10
17.83886719354557
 20
-6.394178499440051
 30
0.0
  0
VERTEX
  5
C2
330
C0
100
AcDbEntity
  8
TPLACE
 62
   250
100
AcDbVertex
100
AcDb2dVertex
 10
23.93790486038802
 20
-4.760494153974073
 30
0.0
  0
VERTEX
  5
C3
330
C0
100
AcDbEntity
  8
TPLACE
 62
   250
100
AcDbVertex
100
AcDb2dVertex
 10
30.03694252723046
 20
-3.126809808508095
 30
0.0
  0
SEQEND
  5
C4
330
C0
100
AcDbEntity
  8
TPLACE
 62
   250
  0
SPLINE
  5
C5
330
1F
100
AcDbEntity
  8
TPLACE
 62
   250
100
AcDbSpline
210
0.0
220
0.0
230
1.0
 70
    11
 71
     3
 72
   161
 73
   157
 74
     0
 42
0.0000000001
 43
0.0000000001
 12
1.0
 22
0.0
 32
0.0
 13
1.0
 23
0.0
 33
0.0
 40
0.0
 40
0.0
 40
0.0
 40
0.0
 40
1.0
 40
1.0
 40
1.0
 40
2.0
 40
2.0
 40
2.0
 40
3.0
 40
3.0
 40
3.0
 40
4.0
 40
4.0
 40
4.0
 40
5.0
 40
5.0
 40
5.0
 40
6.0
 40
6.0
 40
6.0
 40
7.0
 40
7.0
 40
7.0
 40
8.0
 40
8.0
 40
8.0
 40
9.0
 40
9.0
 40
9.0
 40
10.0
 40
10.0
 40
10.0
 40
11.0
 40
11.0
 40
11.0
 40
12.0
 40
12.0
 40
12.0
 40
13.0
 40
13.0
 40
13.0
 40
14.0
 40
14.0
 40
14.0
 40
15.0
 40
15.0
 40
15.0
 40
16.0
 40
16.0
 40
16.0
 40
17.0
 40
17.0
 40
17.0
 40
18.0
 40
18.0
 40
18.0
 40
19.0
 40
19.0
 40
19.0
 40
20.0
 40
20.0
 40
20.0
 40
21.0
 40
21.0
 40
21.0
 40
22.0
 40
22.0
 40
22.0
 40
23.0
 40
23.0
 40
23.0
 40
24.0
 40
24.0
 40
24.0
 40
25.0
 40
25.0
 40
25.0
 40
26.0
 40
26.0
 40
26.0
 40
27.0
 40
27.0
 40
27.0
 40
28.0
 40
28.0
 40
28.0
 40
29.0
 40
29.0
 40
29.0
 40
30.0
 40
30.0
 40
30.0
 40
31.0
 40
31.0
 40
31.0
 40
32.0
 40
32.0
 40
32.0
 40
33.0
 40
33.0
 40
33.0
 40
34.0
 40
34.0
 40
34.0
 40
35.0
 40
35.0
 40
35.0
 40
36.0
 40
36.0
 40
36.0
 40
37.0
 40
37.0
 40
37.0
 40
38.0
 40
38.0
 40
38.0
 40
39.0
 40
39.0
 40
39.0
 40
40.0
 40
40.0
 40
40.0
 40
41.0
 40
41.0
 40
41.0
 40
42.0
 40
42.0
 40
42.0
 40
43.0
 40
43.0
 40
43.0
 40
44.0
 40
44.0
 40
44.0
 40
45.0
 40
45.0
 40
45.0
 40
46.0
 40
46.0
 40
46.0
 40
47.0
 40
47.0
 40
47.0
 40
48.0
 40
48.0
 40
48.0
 40
49.0
 40
49.0
 40
49.0
 40
50.0
 40
50.0
 40
50.0
 40
51.0
 40
51.0
 40
51.0
 40
52.0
 40
52.0
 40
52.0
 40
52.0
 10
-16.13958332929844
 20
8.643055553394792
 30
0.0
 10
-14.00086805205534
 20
10.14236110857552
 30
0.0
 10
-11.05737823542703
 20
12.15170780183971
 30
0.0
 10
-7.482185904505343
 20
14.32197401992249
 30
0.0
 10
-3.906993573583977
 20
16.49224023800527
 30
0.0
 10
0.2999012716307661
 20
18.82342598090728
 30
0.0
 10
4.965426606045771
 20
20.96640963536366
 30
0.0
 10
9.630951940460776
 20
23.10939328982037
 30
0.0
 10
14.755107764077
 20
25.06417485583144
 30
0.0
 10
20.16482205180102
 20
26.48163272013329
 30
0.0
 10
25.57453633952568
 20
27.8990905844345
 30
0.0
 10
31.26980909135812
 20
28.77922474702649
 30
0.0
 10
37.07756828220716
 20
28.7729135946444
 30
0.0
 10
42.0295303747667
 20
28.76753241640872
 30
0.0
 10
46.81910515651273
 20
27.7542742509453
 30
0.0
 10
51.21798865206726
 20
26.23741391550829
 30
0.0
 10
55.61687214762179
 20
24.72055358007128
 30
0.0
 10
59.6250643569845
 20
22.70009107466004
 30
0.0
 10
63.01426130477706
 20
20.68030121652843
 30
0.0
 10
66.2389837700935
 20
18.75852982611772
 30
0.0
 10
68.90333169255615
 20
16.83736738125989
 30
0.0
 10
70.81065229525328
 20
15.35117794843457
 30
0.0
 10
72.71797289795106
 20
13.86498851560956
 30
0.0
 10
73.86826618088396
 20
12.81377209481707
 30
0.0
 10
74.06487936714221
 20
12.63189275253734
 30
0.0
 10
74.07509960815528
 20
12.62243839828586
 30
0.0
 10
74.08264677878657
 20
12.61148321351226
 30
0.0
 10
74.08763888916556
 20
12.59941097313836
 30
0.0
 10
74.09263099954326
 20
12.58733873276415
 30
0.0
 10
74.09506804966867
 20
12.57414943678964
 30
0.0
 10
74.09506804966867
 20
12.56022686013605
 30
0.0
 10
74.09506804966867
 20
12.56022686013605
 30
0.0
 10
74.09506804966867
 20
10.43497977968162
 30
0.0
 10
74.09506804966867
 20
10.43497977968162
 30
0.0
 10
74.09506804966867
 20
10.43497977968162
 30
0.0
 10
74.09506804966867
 20
8.309732699227185
 30
0.0
 10
74.09506804966867
 20
8.309732699227185
 30
0.0
 10
74.09506804966867
 20
8.309732699227185
 30
0.0
 10
74.09506804966867
 20
6.302160724890554
 30
0.0
 10
74.09506804966867
 20
6.302160724890554
 30
0.0
 10
74.09506804966867
 20
6.302160724890554
 30
0.0
 10
74.09506804966931
 20
4.294588750553924
 30
0.0
 10
74.09506804966931
 20
4.294588750553924
 30
0.0
 10
74.09506804966931
 20
4.247854989435835
 30
0.0
 10
74.0663606903928
 20
4.2133455318974
 30
0.0
 10
74.03015877531304
 20
4.199482461145657
 30
0.0
 10
73.99395686023394
 20
4.185619390393915
 30
0.0
 10
73.95026038935224
 20
4.192402706428862
 30
0.0
 10
73.92028216614186
 20
4.228254492456895
 30
0.0
 10
73.52406187738411
 20
4.70210529118733
 30
0.0
 10
72.46106940206373
 20
5.931435429507015
 30
0.0
 10
70.80154833996625
 20
7.545630477874931
 30
0.0
 10
69.14202727786814
 20
9.159825526242846
 30
0.0
 10
66.88597762899293
 20
11.15888548465899
 30
0.0
 10
64.10364299312297
 20
13.17219592358202
 30
0.0
 10
60.91424134782167
 20
15.48006196658842
 30
0.0
 10
57.03329432135551
 20
17.80665332803879
 30
0.0
 10
52.56660694388555
 20
19.59372881562638
 30
0.0
 10
48.0999195664156
 20
21.38080430321397
 30
0.0
 10
43.04749183794122
 20
22.62836391693814
 30
0.0
 10
37.51512878862351
 20
22.77816646449214
 30
0.0
 10
32.82887101965478
 20
22.90505859829254
 30
0.0
 10
28.24026533585651
 20
22.43783801093878
 30
0.0
 10
23.78181611818486
 20
21.50321806223784
 30
0.0
 10
19.32336690051288
 20
20.56859811353723
 30
0.0
 10
14.99507414896718
 20
19.16657880348912
 30
0.0
 10
10.82944224450326
 20
17.42387349190147
 30
0.0
 10
6.663810340039332
 20
15.68116818031383
 30
0.0
 10
2.660839282657179
 20
13.59777686718632
 30
0.0
 10
-1.146966546687713
 20
11.30041291232625
 30
0.0
 10
-4.954772376032284
 20
9.003048957465863
 30
0.0
 10
-8.567412977339593
 20
6.491712360872922
 30
0.0
 10
-11.95238396965383
 20
3.893116482354735
 30
0.0
 10
-13.22916233193193
 20
2.912951217266433
 30
0.0
 10
-14.50407786184387
 20
2.102378665705636
 30
0.0
 10
-15.74236055014194
 20
1.437862799976308
 30
0.0
 10
-16.9806432384397
 20
0.7733469342473014
 30
0.0
 10
-18.18229308512327
 20
0.2548877543497644
 30
0.0
 10
-19.31254008094432
 20
-0.1410507674116949
 30
0.0
 10
-20.44278707676569
 20
-0.5369892891731541
 30
0.0
 10
-21.50163122172421
 20
-0.8104071527985356
 30
0.0
 10
-22.45430250657282
 20
-0.9848403859838731
 30
0.0
 10
-23.40697379142111
 20
-1.15927361916889
 30
0.0
 10
-24.25347221615885
 20
-1.234722221913542
 30
0.0
 10
-24.95902777153802
 20
-1.234722221913542
 30
0.0
 10
-25.84097221576198
 20
-1.234722221913542
 30
0.0
 10
-26.61869887383563
 20
-1.177382620055214
 30
0.0
 10
-27.32627386316081
 20
-1.050586589967826
 30
0.0
 10
-28.03384885248569
 20
-0.9237905598810796
 30
0.0
 10
-28.6712721730621
 20
-0.7275381015652725
 30
0.0
 10
-29.27260994229095
 20
-0.4497123886509554
 30
0.0
 10
-29.87394771151981
 20
-0.1718866757366382
 30
0.0
 10
-30.43919992940142
 20
0.1875122917768308
 30
0.0
 10
-31.00243271333733
 20
0.6406013402589013
 30
0.0
 10
-31.56566549727324
 20
1.093690388740972
 30
0.0
 10
-32.12687884726314
 20
1.640469518192285
 30
0.0
 10
-32.72013888070886
 20
2.293055554982292
 30
0.0
 10
-33.60208332493281
 20
3.263194443628646
 30
0.0
 10
-34.50056422748597
 20
4.387673610014193
 30
0.0
 10
-35.35219183143973
 20
5.528689234728939
 30
0.0
 10
-36.20381943539349
 20
6.669704859443685
 30
0.0
 10
-37.00859374074786
 20
7.82725694248763
 30
0.0
 10
-37.70312499057422
 20
8.863541664450782
 30
0.0
 10
-38.26125451810454
 20
9.696306356321212
 30
0.0
 10
-38.74819098600591
 20
10.45075868260015
 30
0.0
 10
-39.13103796877254
 20
11.05538467479526
 30
0.0
 10
-39.51388495153918
 20
11.66001066699037
 30
0.0
 10
-39.79264244917042
 20
12.11481032510132
 30
0.0
 10
-39.9344140361605
 20
12.34826968063545
 30
0.0
 10
-39.94641310492703
 20
12.36802889276512
 30
0.0
 10
-39.94052515283202
 20
12.3887972319558
 30
0.0
 10
-39.92693321987743
 20
12.40126859207296
 30
0.0
 10
-39.91334128692283
 20
12.41373995219013
 30
0.0
 10
-39.89204537310864
 20
12.41791433323379
 30
0.0
 10
-39.8732285184374
 20
12.4044856290691
 30
0.0
 10
-39.68578156685479
 20
12.27071355592933
 30
0.0
 10
-39.14659174678687
 20
11.90032721041288
 30
0.0
 10
-38.50376750870271
 20
11.45478718532529
 30
0.0
 10
-37.86094327061887
 20
11.00924716023739
 30
0.0
 10
-37.11448461451879
 20
10.48855345557836
 30
0.0
 10
-36.51249999087187
 20
10.05416666415313
 30
0.0
 10
-35.73638163746966
 20
9.494126510206744
 30
0.0
 10
-35.06608937488856
 20
8.991407313271074
 30
0.0
 10
-34.39580616541418
 20
8.483182753389052
 30
0.0
 10
-33.72552295594012
 20
7.97495819350703
 30
0.0
 10
-33.05524879957248
 20
7.461228270678658
 30
0.0
 10
-32.27916665859688
 20
6.879166664946875
 30
0.0
 10
-31.92704540155114
 20
6.615075722162731
 30
0.0
 10
-31.48705765495842
 20
6.350984779378586
 30
0.0
 10
-30.95113561928225
 20
6.077409919478057
 30
0.0
 10
-30.4152135836064
 20
5.803835059577526
 30
0.0
 10
-29.78335725884741
 20
5.520776282560933
 30
0.0
 10
-29.04749884546942
 20
5.218749671311889
 30
0.0
 10
-29.04484946877615
 20
5.217662257958853
 30
0.0
 10
-29.04211452672527
 20
5.216655815062681
 30
0.0
 10
-29.03934610664868
 20
5.215752597189152
 30
0.0
 10
-29.03657768657209
 20
5.214849379315302
 30
0.0
 10
-29.03377578846978
 20
5.214049386464417
 30
0.0
 10
-29.03099249967394
 20
5.213374873200994
 30
0.0
 10
-28.37459397572518
 20
5.05430064740357
 30
0.0
 10
-27.69452582435724
 20
4.930873701426188
 30
0.0
 10
-27.04266870530214
 20
4.85256942558754
 30
0.0
 10
-26.39081158624673
 20
4.774265149748892
 30
0.0
 10
-25.76716549950385
 20
4.741083544049618
 30
0.0
 10
-25.22361110480521
 20
4.762499998809375
 30
0.0
 10
-24.26812429467798
 20
4.800146902673807
 30
0.0
 10
-23.44166767434923
 20
4.974098132683904
 30
0.0
 10
-22.68468444437683
 20
5.208139566413836
 30
0.0
 10
-21.92770121440412
 20
5.442181000144088
 30
0.0
 10
-21.24019137478774
 20
5.736312637594173
 30
0.0
 10
-20.56259812608525
 20
6.014320356339221
 30
0.0
 10
-19.88500487738276
 20
6.292328075084268
 30
0.0
 10
-19.21732821959414
 20
6.642406319546674
 30
0.0
 10
-18.50001135327695
 20
7.076535411723642
 30
0.0
 10
-17.78269448696008
 20
7.510664503900288
 30
0.0
 10
-17.01573741211462
 20
8.028844443791817
 30
0.0
 10
-16.13958332929844
 20
8.643055553394792
 30
0.0
  0
SPLINE
  5
C6
330
1F
100
AcDbEntity
  8
TPLACE
 62
   250
100
AcDbSpline
210
0.0
220
0.0
230
1.0
 70
    11
 71
     3
 72
   101
 73
    97
 74
     0
 42
0.0000000001
 43
0.0000000001
 12
1.0
 22
0.0
 32
0.0
 13
1.0
 23
0.0
 33
0.0
 40
0.0
 40
0.0
 40
0.0
 40
0.0
 40
1.0
 40
1.0
 40
1.0
 40
2.0
 40
2.0
 40
2.0
 40
3.0
 40
3.0
 40
3.0
 40
4.0
 40
4.0
 40
4.0
 40
5.0
 40
5.0
 40
5.0
 40
6.0
 40
6.0
 40
6.0
 40
7.0
 40
7.0
 40
7.0
 40
8.0
 40
8.0
 40
8.0
 40
9.0
 40
9.0
 40
9.0
 40
10.0
 40
10.0
 40
10.0
 40
11.0
 40
11.0
 40
11.0
 40
12.0
 40
12.0
 40
12.0
 40
13.0
 40
13.0
 40
13.0
 40
14.0
 40
14.0
 40
14.0
 40
15.0
 40
15.0
 40
15.0
 40
16.0
 40
16.0
 40
16.0
 40
17.0
 40
17.0
 40
17.0
 40
18.0
 40
18.0
 40
18.0
 40
19.0
 40
19.0
 40
19.0
 40
20.0
 40
20.0
 40
20.0
 40
21.0
 40
21.0
 40
21.0
 40
22.0
 40
22.0
 40
22.0
 40
23.0
 40
23.0
 40
23.0
 40
24.0
 40
24.0
 40
24.0
 40
25.0
 40
25.0
 40
25.0
 40
26.0
 40
26.0
 40
26.0
 40
27.0
 40
27.0
 40
27.0
 40
28.0
 40
28.0
 40
28.0
 40
29.0
 40
29.0
 40
29.0
 40
30.0
 40
30.0
 40
30.0
 40
31.0
 40
31.0
 40
31.0
 40
32.0
 40
32.0
 40
32.0
 40
32.0
 10
53.54000090429746
 20
-1.531163977279751
 30
0.0
 10
53.54000090429746
 20
-2.828762494615396
 30
0.0
 10
53.40851197466048
 20
-4.095650126920943
 30
0.0
 10
53.1581313709625
 20
-5.319229618620734
 30
0.0
 10
52.90775076726452
 20
-6.542809110320525
 30
0.0
 10
52.53847848950523
 20
-7.723080461414239
 30
0.0
 10
52.06291179326092
 20
-8.847446416326536
 30
0.0
 10
51.5873450970166
 20
-9.971812371238833
 30
0.0
 10
51.00548398228727
 20
-11.04027292996907
 30
0.0
 10
50.32992570464825
 20
-12.04023083694192
 30
0.0
 10
49.65436742700924
 20
-13.04018874391476
 30
0.0
 10
48.88511198646119
 20
-13.97164399912988
 30
0.0
 10
48.03475663857945
 20
-14.82199934701163
 30
0.0
 10
47.1844012906977
 20
-15.67235469489338
 30
0.0
 10
46.25294603548257
 20
-16.44161013544143
 30
0.0
 10
45.25298812850973
 20
-17.11716841308044
 30
0.0
 10
44.25303022153689
 20
-17.79272669071945
 30
0.0
 10
43.18456966280665
 20
-18.37458780544878
 30
0.0
 10
42.06020370789435
 20
-18.8501545016931
 30
0.0
 10
40.93583775298205
 20
-19.32572119793741
 30
0.0
 10
39.75556640188834
 20
-19.69499347569671
 30
0.0
 10
38.53198691018855
 20
-19.94537407939469
 30
0.0
 10
37.30840741848876
 20
-20.19575468309266
 30
0.0
 10
36.04151978618322
 20
-20.32724361272964
 30
0.0
 10
34.74392126884756
 20
-20.32724361272964
 30
0.0
 10
33.44632275151192
 20
-20.32724361272964
 30
0.0
 10
32.17943511920605
 20
-20.19575468309266
 30
0.0
 10
30.95585562750626
 20
-19.94537407939469
 30
0.0
 10
29.73227613580647
 20
-19.69499347569671
 30
0.0
 10
28.55200478471244
 20
-19.32572119793741
 30
0.0
 10
27.42763882980046
 20
-18.8501545016931
 30
0.0
 10
26.30327287488848
 20
-18.37458780544878
 30
0.0
 10
25.23481231615792
 20
-17.79272669071945
 30
0.0
 10
24.23485440918508
 20
-17.11716841308044
 30
0.0
 10
23.23489650221224
 20
-16.44161013544143
 30
0.0
 10
22.30344124699712
 20
-15.67235469489338
 30
0.0
 10
21.45308589911537
 20
-14.82199934701163
 30
0.0
 10
20.60273055123362
 20
-13.97164399912988
 30
0.0
 10
19.83347511068557
 20
-13.04018874391476
 30
0.0
 10
19.15791683304656
 20
-12.04023083694192
 30
0.0
 10
18.48235855540787
 20
-11.04027292996907
 30
0.0
 10
17.90049744067822
 20
-9.971812371238833
 30
0.0
 10
17.4249307444339
 20
-8.847446416326536
 30
0.0
 10
16.94936404818959
 20
-7.723080461414239
 30
0.0
 10
16.58009177043061
 20
-6.542809110320525
 30
0.0
 10
16.32971116673263
 20
-5.319229618620734
 30
0.0
 10
16.07933056303466
 20
-4.095650126920943
 30
0.0
 10
15.94784163339768
 20
-2.828762494615396
 30
0.0
 10
15.94784163339768
 20
-1.531163977279751
 30
0.0
 10
15.94784163339768
 20
-0.233565459944107
 30
0.0
 10
16.07933056303466
 20
1.033322172361441
 30
0.0
 10
16.32971116673263
 20
2.256901664061231
 30
0.0
 10
16.58009177043061
 20
3.480481155761022
 30
0.0
 10
16.94936404818959
 20
4.660752506854736
 30
0.0
 10
17.4249307444339
 20
5.785118461767033
 30
0.0
 10
17.90049744067822
 20
6.909484416679331
 30
0.0
 10
18.48235855540787
 20
7.97794497540957
 30
0.0
 10
19.15791683304656
 20
8.977902882382413
 30
0.0
 10
19.83347511068557
 20
9.977860789355255
 30
0.0
 10
20.60273055123362
 20
10.90931604457038
 30
0.0
 10
21.45308589911537
 20
11.75967139245213
 30
0.0
 10
22.30344124699712
 20
12.61002674033387
 30
0.0
 10
23.23489650221224
 20
13.37928218088192
 30
0.0
 10
24.23485440918508
 20
14.05484045852094
 30
0.0
 10
25.23481231615792
 20
14.73039873615995
 30
0.0
 10
26.30327287488848
 20
15.31225985088928
 30
0.0
 10
27.42763882980046
 20
15.78782654713359
 30
0.0
 10
28.55200478471244
 20
16.26339324337791
 30
0.0
 10
29.73227613580647
 20
16.63266552113721
 30
0.0
 10
30.95585562750626
 20
16.88304612483518
 30
0.0
 10
32.17943511920605
 20
17.13342672853316
 30
0.0
 10
33.44632275151192
 20
17.26491565817014
 30
0.0
 10
34.74392126884756
 20
17.26491565817014
 30
0.0
 10
36.04151978618322
 20
17.26491565817014
 30
0.0
 10
37.30840741848876
 20
17.13342672853316
 30
0.0
 10
38.53198691018855
 20
16.88304612483518
 30
0.0
 10
39.75556640188834
 20
16.63266552113721
 30
0.0
 10
40.93583775298205
 20
16.26339324337791
 30
0.0
 10
42.06020370789435
 20
15.78782654713359
 30
0.0
 10
43.18456966280665
 20
15.31225985088928
 30
0.0
 10
44.25303022153689
 20
14.73039873615995
 30
0.0
 10
45.25298812850973
 20
14.05484045852094
 30
0.0
 10
46.25294603548257
 20
13.37928218088192
 30
0.0
 10
47.1844012906977
 20
12.61002674033387
 30
0.0
 10
48.03475663857945
 20
11.75967139245213
 30
0.0
 10
48.88511198646119
 20
10.90931604457038
 30
0.0
 10
49.65436742700924
 20
9.977860789355255
 30
0.0
 10
50.32992570464825
 20
8.977902882382413
 30
0.0
 10
51.00548398228727
 20
7.97794497540957
 30
0.0
 10
51.5873450970166
 20
6.909484416679331
 30
0.0
 10
52.06291179326092
 20
5.785118461767033
 30
0.0
 10
52.53847848950523
 20
4.660752506854736
 30
0.0
 10
52.90775076726452
 20
3.480481155761022
 30
0.0
 10
53.1581313709625
 20
2.256901664061231
 30
0.0
 10
53.40851197466048
 20
1.033322172361441
 30
0.0
 10
53.54000090429746
 20
-0.233565459944107
 30
0.0
 10
53.54000090429746
 20
-1.531163977279751
 30
0.0
  0
ENDSEC
  0
SECTION
  2
OBJECTS
  0
DICTIONARY
  5
C
330
0
100
AcDbDictionary
  3
ACAD_GROUP
350
D
  3
ACAD_LAYOUT
350
1A
  3
ACAD_MATERIAL
350
3B
  3
ACAD_MLEADERSTYLE
350
CC
  3
ACAD_MLINESTYLE
350
17
  3
ACAD_PLOTSETTINGS
350
19
  3
ACAD_VISUALSTYLE
350
2A
  3
ACDBVARIABLEDICTIONARY
350
CA
1001
ACAD
1000
TREAT_AS_HARD
1070
     0
  0
DICTIONARY
  5
D
102
{ACAD_REACTORS
330
C
102
}
330
C
100
AcDbDictionary
1001
ACAD
1000
TREAT_AS_HARD
1070
     0
  0
DICTIONARY
  5
1A
102
{ACAD_REACTORS
330
C
102
}
330
C
100
AcDbDictionary
1001
ACAD
1000
TREAT_AS_HARD
1070
     0
  0
DICTIONARY
  5
3B
102
{ACAD_REACTORS
330
C
102
}
330
C
100
AcDbDictionary
  3
BYBLOCK
350
3D
  3
BYLAYER
350
3C
  3
GLOBAL
350
3E
1001
ACAD
1000
TREAT_AS_HARD
1070
     0
  0
DICTIONARY
  5
CC
102
{ACAD_REACTORS
330
C
102
}
330
C
100
AcDbDictionary
1001
ACAD
1000
TREAT_AS_HARD
1070
     0
  0
DICTIONARY
  5
17
102
{ACAD_REACTORS
330
C
102
}
330
C
100
AcDbDictionary
  3
STANDARD
350
18
1001
ACAD
1000
TREAT_AS_HARD
1070
     0
  0
DICTIONARY
  5
19
102
{ACAD_REACTORS
330
C
102
}
330
C
100
AcDbDictionary
1001
ACAD
1000
TREAT_AS_HARD
1070
     0
  0
DICTIONARY
  5
2A
102
{ACAD_REACTORS
330
C
102
}
330
C
100
AcDbDictionary
  3
2DWIREFRAME
350
2F
  3
3DWIREFRAME
350
30
  3
3D_HIDDEN
350
31
  3
BASIC
350
32
  3
BRIGHTEN
350
36
  3
COLORCHANGE
350
3A
  3
CONCEPTUAL
350
34
  3
DIM
350
35
  3
FACEPATTERN
350
39
  3
FLAT
350
2B
  3
FLATWITHEDGES
350
2C
  3
GOURAUD
350
2D
  3
GOURAUDWITHEDGES
350
2E
  3
LINEPATTERN
350
38
  3
REALISTIC
350
33
  3
THICKEN
350
37
1001
ACAD
1000
TREAT_AS_HARD
1070
     0
  0
DICTIONARY
  5
CA
102
{ACAD_REACTORS
330
C
102
}
330
C
100
AcDbDictionary
  3
DIMASSOC
350
CD
  3
HIDETEXT
350
CE
1001
ACAD
1000
TREAT_AS_HARD
1070
     0
  0
MATERIAL
  5
3D
102
{ACAD_REACTORS
330
3B
102
}
102
{ACAD_XDICTIONARY
360
D1
102
}
330
3B
100
AcDbMaterial
  1
ByBlock
  0
MATERIAL
  5
3C
102
{ACAD_REACTORS
330
3B
102
}
102
{ACAD_XDICTIONARY
360
CF
102
}
330
3B
100
AcDbMaterial
  1
ByLayer
  0
MATERIAL
  5
3E
102
{ACAD_REACTORS
330
3B
102
}
102
{ACAD_XDICTIONARY
360
D3
102
}
330
3B
100
AcDbMaterial
  1
Global
  0
MLINESTYLE
  5
18
102
{ACAD_REACTORS
330
17
102
}
330
17
100
AcDbMlineStyle
  2
Standard
 70
     0
  3

 62
   256
 51
90.0
 52
90.0
 71
     2
 49
0.5
 62
   256
  6
BYLAYER
 49
-0.5
 62
   256
  6
BYLAYER
  0
ACAD_PROXY_OBJECT
  5
2F
102
{ACAD_REACTORS
330
2A
102
}
330
2A
100
AcDbZombieObject
 90
      499
 91
      501
 93
      436
310
42CC9915DA5C99599C985B595049028333333333333E3BF0000000000000FB0107901411070040501600405405064090741402480A0340
1001
ACAD
1000
AcDbSavedByObjectVersion
1070
     0
  0
ACAD_PROXY_OBJECT
  5
30
102
{ACAD_REACTORS
330
2A
102
}
330
2A
100
AcDbZombieObject
 90
      499
 91
      501
 93
      436
310
42CCD915DA5C99599C985B595059028333333333333E3BF0000000000000FB0107901411070040501600405405064090741402480A0340
1001
ACAD
1000
AcDbSavedByObjectVersion
1070
     0
  0
ACAD_PROXY_OBJECT
  5
31
102
{ACAD_REACTORS
330
2A
102
}
330
2A
100
AcDbZombieObject
 90
      499
 91
      501
 93
      500
310
424CD108121A5919195B90640502408333333333333E3BF0000000000000FB01079024090700405020000000000001110200405405064090740C02480A0340
1001
ACAD
1000
AcDbSavedByObjectVersion
1070
     0
  0
ACAD_PROXY_OBJECT
  5
32
102
{ACAD_REACTORS
330
2A
102
}
330
2A
100
AcDbZombieObject
 90
      499
 91
      501
 93
      388
310
4150985CDA58D07406404333333333333E3BF0000000000000FB0107A41107004050150841D405064090741402480A0350
1001
ACAD
1000
AcDbSavedByObjectVersion
1070
     0
  0
ACAD_PROXY_OBJECT
  5
36
102
{ACAD_REACTORS
330
2A
102
}
330
2A
100
AcDbZombieObject
 90
      499
 91
      501
 93
      428
310
42109C9A59DA1D195B90C409028333333333333E3BF0000000000000FB010790141107004050150841D405064090741402480A029950
1001
ACAD
1000
AcDbSavedByObjectVersion
1070
     0
  0
ACAD_PROXY_OBJECT
  5
3A
102
{ACAD_REACTORS
330
2A
102
}
330
2A
100
AcDbZombieObject
 90
      499
 91
      501
 93
      452
310
42D0DBDB1BDC90DA185B99D95104090240C333333333333E3BF0000000000000FB0108901411070040501508421405064090741402480A0350
1001
ACAD
1000
AcDbSavedByObjectVersion
1070
     0
  0
ACAD_PROXY_OBJECT
  5
34
102
{ACAD_REACTORS
330
2A
102
}
330
2A
100
AcDbZombieObject
 90
      499
 91
      501
 93
      500
310
4290DBDB98D95C1D1D585B10940D028333333333333E3BF0000000000000FB0107902409070040501000000000000111010841D405064090740C02480A0340
1001
ACAD
1000
AcDbSavedByObjectVersion
1070
     0
  0
ACAD_PROXY_OBJECT
  5
35
102
{ACAD_REACTORS
330
2A
102
}
330
2A
100
AcDbZombieObject
 90
      499
 91
      501
 93
      412
310
40D11A5B50B409028333333333333E3BF0000000000000FB010790141107004050150841D405064090741402480A02677FFFFFD0
1001
ACAD
1000
AcDbSavedByObjectVersion
1070
     0
  0
ACAD_PROXY_OBJECT
  5
39
102
{ACAD_REACTORS
330
2A
102
}
330
2A
100
AcDbZombieObject
 90
      499
 91
      501
 93
      444
310
42D19858D95C185D1D195C9B90F409028333333333333E3BF0000000000000FB010790141107004050150841D405064090741402480A0350
1001
ACAD
1000
AcDbSavedByObjectVersion
1070
     0
  0
ACAD_PROXY_OBJECT
  5
2B
102
{ACAD_REACTORS
330
2A
102
}
330
2A
100
AcDbZombieObject
 90
      499
 91
      501
 93
      388
310
41119B185D240901404333333333333E3BF0000000000000F9010740A41107004050150841D405064090741402480A1B50
1001
ACAD
1000
AcDbSavedByObjectVersion
1070
     0
  0
ACAD_PROXY_OBJECT
  5
2C
102
{ACAD_REACTORS
330
2A
102
}
330
2A
100
AcDbZombieObject
 90
      499
 91
      501
 93
      476
310
43519B185D15DA5D1A115919D95CD0140901404333333333333E3BF0000000000000F9010740901411070040501600405405064090741402480A1B50
1001
ACAD
1000
AcDbSavedByObjectVersion
1070
     0
  0
ACAD_PROXY_OBJECT
  5
2D
102
{ACAD_REACTORS
330
2A
102
}
330
2A
100
AcDbZombieObject
 90
      499
 91
      501
 93
      412
310
41D1DBDD5C985D5910240902404333333333333E3BF0000000000000F9010740A411070040501641D405064090741402480A1B50
1001
ACAD
1000
AcDbSavedByObjectVersion
1070
     0
  0
ACAD_PROXY_OBJECT
  5
2E
102
{ACAD_REACTORS
330
2A
102
}
330
2A
100
AcDbZombieObject
 90
      499
 91
      501
 93
      500
310
4411DBDD5C985D5915DA5D1A115919D95CD0340902404333333333333E3BF0000000000000F9010740901411070040501600405405064090741402480A1B50
1001
ACAD
1000
AcDbSavedByObjectVersion
1070
     0
  0
ACAD_PROXY_OBJECT
  5
38
102
{ACAD_REACTORS
330
2A
102
}
330
2A
100
AcDbZombieObject
 90
      499
 91
      501
 93
      444
310
42D31A5B995C185D1D195C9B90E409028333333333333E3BF0000000000000FB010790141107004050750841D405064090741402483A0350
1001
ACAD
1000
AcDbSavedByObjectVersion
1070
     0
  0
ACAD_PROXY_OBJECT
  5
33
102
{ACAD_REACTORS
330
2A
102
}
330
2A
100
AcDbZombieObject
 90
      499
 91
      501
 93
      420
310
425499585B1A5CDD1A58D08409028333333333333E3BF0000000000000FB01079019070040501508421405064090741402480A1B40
1001
ACAD
1000
AcDbSavedByObjectVersion
1070
     0
  0
ACAD_PROXY_OBJECT
  5
37
102
{ACAD_REACTORS
330
2A
102
}
330
2A
100
AcDbZombieObject
 90
      499
 91
      501
 93
      412
310
41D51A1A58DAD95B90D409028333333333333E3BF0000000000000FB010790141107004050150C41D405064090741402480A0350
1001
ACAD
1000
AcDbSavedByObjectVersion
1070
     0
  0
DICTIONARYVAR
  5
CD
102
{ACAD_REACTORS
330
CA
102
}
330
CA
100
DictionaryVariables
280
     0
  1
2
  0
DICTIONARYVAR
  5
CE
102
{ACAD_REACTORS
330
CA
102
}
330
CA
100
DictionaryVariables
280
     0
  1
1
  0
DICTIONARY
  5
D1
330
3D
100
AcDbDictionary
  3
ACAD_XREC_ROUNDTRIP
360
D2
1001
ACAD
1000
TREAT_AS_HARD
1070
     1
  0
DICTIONARY
  5
CF
330
3C
100
AcDbDictionary
  3
ACAD_XREC_ROUNDTRIP
360
D0
1001
ACAD
1000
TREAT_AS_HARD
1070
     1
  0
DICTIONARY
  5
D3
330
3E
100
AcDbDictionary
  3
ACAD_XREC_ROUNDTRIP
360
D4
1001
ACAD
1000
TREAT_AS_HARD
1070
     1
  0
XRECORD
  5
D2
102
{ACAD_REACTORS
330
D1
102
}
330
D1
100
AcDbXrecord
102
MATERIAL
148
0.0
149
0.0
149
0.0
 93
        0
 94
      127
282
     0
 72
     1
 77
     1
171
     1
175
     1
179
     1
273
     0
  0
XRECORD
  5
D0
102
{ACAD_REACTORS
330
CF
102
}
330
CF
100
AcDbXrecord
102
MATERIAL
148
0.0
149
0.0
149
0.0
 93
        0
 94
      127
282
     0
 72
     1
 77
     1
171
     1
175
     1
179
     1
273
     0
  0
XRECORD
  5
D4
102
{ACAD_REACTORS
330
D3
102
}
330
D3
100
AcDbXrecord
102
MATERIAL
148
0.0
149
0.0
149
0.0
 93
        0
 94
      127
282
     0
 72
     1
 77
     1
171
     1
175
     1
179
     1
273
     0
  0
ENDSEC
  0
EOF
